<svg width="713" height="650" viewBox="0 0 713 650" fill="none" xmlns="http://www.w3.org/2000/svg">
<ellipse cx="428.419" cy="214.489" rx="428.419" ry="408.489" fill="url(#paint0_linear)"/>
<mask id="mask0" mask-type="alpha" maskUnits="userSpaceOnUse" x="0" y="-194" width="857" height="817">
<ellipse cx="428.419" cy="214.489" rx="428.419" ry="408.489" fill="url(#paint1_radial)"/>
</mask>
<g mask="url(#mask0)">
</g>
<path fill-rule="evenodd" clip-rule="evenodd" d="M406.739 308.341C412.401 302.361 416.233 295.034 415.593 286.823C413.748 263.166 377.14 268.37 370.019 280.31C362.899 292.25 363.745 322.538 372.948 324.672C376.618 325.523 384.437 323.438 392.394 319.123L387.399 350.912H416.892L406.739 308.341Z" fill="#B28B67"/>
<path fill-rule="evenodd" clip-rule="evenodd" d="M397.562 295.49C398.526 294.893 399.679 294.531 400.916 294.531C404.31 294.531 407.061 297.253 407.061 300.059C407.061 302.977 405.529 305.233 403.341 306.19C404.51 308.245 405.684 309.737 407.061 310.008C412.372 309.524 419.349 297.649 419.349 287.898C419.349 277.226 409.909 268 392.315 268C376.501 268 370.504 273.866 370.195 279.055C376.972 280.73 388.813 281.375 405.832 281.266V282.371L391.086 283.477L388.628 290.109C392.538 289.847 395.332 292.259 397.562 295.49Z" fill="#191847"/>
<path d="M423.185 636.172C370.662 636.172 328.084 598.979 328.084 553.1C328.084 507.22 370.662 470.027 423.185 470.027C475.707 470.027 518.285 507.22 518.285 553.1C518.285 598.979 475.707 636.172 423.185 636.172Z" fill="#E6E8EC"/>
<path fill-rule="evenodd" clip-rule="evenodd" d="M219.404 622.285C242.71 595.013 260.743 570.787 268.859 557.709C282.754 535.316 294.073 515.42 297.601 507.841C306.013 489.77 275.938 482.249 269.48 490.748C259.705 503.612 236.944 547.857 205.839 615.38L219.404 622.285Z" fill="#B28B67"/>
<path fill-rule="evenodd" clip-rule="evenodd" d="M351.705 627.392C351.097 613.429 347.022 565.303 341.797 543.386C340.295 537.088 338.786 531.005 337.323 525.303C332.973 508.357 297.657 512.702 302.633 528.711C315.025 568.581 334.901 624.186 336.437 629.01C338.59 635.771 352.088 636.167 351.705 627.392Z" fill="#B28B67"/>
<path fill-rule="evenodd" clip-rule="evenodd" d="M311.717 486.228L389.856 450.444V442.654H380.563C304.968 459.983 265.951 471.125 264.288 476.007C264.27 476.06 264.254 476.113 264.239 476.165C264.201 476.21 264.163 476.255 264.127 476.301C249.145 494.836 218.832 583.595 215.887 590.37L244.831 597.81C255.812 561.177 312.439 533.765 311.506 489.89C311.758 488.603 311.821 487.382 311.717 486.228Z" fill="#1F28CF"/>
<path fill-rule="evenodd" clip-rule="evenodd" d="M337.175 516.354C344.324 515.067 397.097 505.043 402.73 504.154C439.121 498.412 449.732 480.888 443.458 442.654H376.41C365.457 445.485 314.333 466.12 284.8 477.541C265.254 485.1 272.396 507.298 278.673 516.354C278.733 516.789 278.933 517.085 279.287 517.217C312.366 568.052 315.122 599.05 326.148 605.249L352.336 600.289L337.175 516.354Z" fill="#2B44FF"/>
<path fill-rule="evenodd" clip-rule="evenodd" d="M354.127 621.556C356.171 624.598 357.365 626.929 357.71 628.551C358.129 630.524 358.379 633.464 358.459 637.37C355.936 637.794 333.266 641.597 290.446 648.78C287.552 643.775 287.964 640.742 291.682 639.681C295.4 638.619 298.482 637.707 300.928 636.944L329.822 618.855C330.378 618.507 331.143 618.635 331.532 619.141C331.538 619.15 331.545 619.159 331.551 619.168L334.534 623.299C338.376 624.2 341.4 624.465 343.604 624.095C345.394 623.795 347.728 622.724 350.604 620.882C351.708 620.176 353.242 620.418 354.03 621.423C354.064 621.467 354.096 621.511 354.127 621.556Z" fill="#E4E4E4"/>
<path fill-rule="evenodd" clip-rule="evenodd" d="M229.404 612.465C229.855 616.02 229.862 618.611 229.424 620.239C228.892 622.22 227.757 625.036 226.02 628.688C223.528 628.175 201.131 623.564 158.83 614.854C158.514 609.173 160.295 606.508 164.171 606.858C168.046 607.209 171.274 607.469 173.855 607.639L208.534 601.234C209.201 601.111 209.838 601.505 209.957 602.114C209.959 602.124 209.961 602.135 209.963 602.145L210.764 607.048C213.844 609.263 216.472 610.594 218.649 611.043C220.418 611.407 223.038 611.251 226.509 610.576L226.509 610.576C227.841 610.316 229.125 611.092 229.377 612.307C229.388 612.36 229.397 612.412 229.404 612.465Z" fill="#E4E4E4"/>
<path fill-rule="evenodd" clip-rule="evenodd" d="M303.367 410.194L259.701 429.452C248.73 430.302 239.357 432.051 231.582 434.698C229.653 435.79 227.099 438.219 234.072 438.854C241.045 439.489 248.347 440.438 248.875 442.702C249.403 444.966 244.738 446.817 246.088 449.975C246.988 452.08 253.98 448.295 267.063 438.621L308.112 430.538L303.367 410.194Z" fill="#B28B67"/>
<path fill-rule="evenodd" clip-rule="evenodd" d="M293.828 411.5C288.928 410.377 284.943 410.68 278.803 411.5C275.782 411.903 276.088 411.707 276.536 414.425C276.797 416.003 277.855 417.297 279.288 418.026C278.035 418.574 272.821 421.409 271.55 421.946L277.717 441.392C322.34 429.634 363.6 421.999 387.192 394.501C395.111 385.273 400.016 350.374 403.088 337.886L391.104 331.025C366.383 361.644 335.561 389.873 293.828 411.5Z" fill="#69A1AC"/>
<path fill-rule="evenodd" clip-rule="evenodd" d="M494.296 409.784L472.655 413.309C497.772 458.147 511.225 481.855 513.014 484.433C517.037 490.231 512.975 500.679 511.443 506.191C520.347 508.204 517.056 496.039 528.322 498.745C538.605 501.215 547.246 507.275 557.031 499.439C558.234 498.476 559.16 495.42 555.154 493.782C545.174 489.702 530.458 482.125 528.104 479.236C524.894 475.296 513.625 452.145 494.296 409.784Z" fill="#B28B67"/>
<path fill-rule="evenodd" clip-rule="evenodd" d="M446.382 452.51C407.749 456.328 377.341 456.328 355.157 452.51C352.409 452.037 352.529 441.378 353.804 438.468C373.652 393.138 386.709 359.954 386.709 328.469C390.351 330.18 396.724 330.437 405.83 329.238C430.301 361.685 441.549 398.913 446.382 452.51Z" fill="#191847"/>
<path fill-rule="evenodd" clip-rule="evenodd" d="M453.562 457.867C454.874 456.756 455.558 455.091 455.221 453.376L454.581 450.11C454.147 447.897 452.149 446.285 449.79 446.033C449.378 444.375 449.022 442.727 448.728 441.092C446.248 427.278 450.486 413.733 450.287 400.431C470.047 415.598 487.773 441.786 503.466 478.996L526.675 472.852C525.789 469.892 524.872 466.969 523.923 464.082C526.602 462.713 529.732 456.438 527.479 455.388C525.152 454.304 522.688 453.541 520.092 453.092C498.812 395.431 464.012 353.262 415.692 326.584H411.417L401.717 326.584C405.832 375.535 348.998 482.405 368.732 573.675C405.207 581.003 457.281 558.204 507.97 576.419C506.083 539.663 468.302 496.484 453.562 457.867Z" fill="#89C5CC"/>
<path fill-rule="evenodd" clip-rule="evenodd" d="M410.618 327.688L416.958 345.226L404.191 358.374L415.729 368.706L387.815 411.703L421.951 368.792L410.618 358.374L421.951 346.755L410.618 327.688Z" fill="black" fill-opacity="0.1"/>
<path fill-rule="evenodd" clip-rule="evenodd" d="M395.999 428.289C398.714 428.289 400.915 426.309 400.915 423.867C400.915 421.425 398.714 419.445 395.999 419.445C393.284 419.445 391.084 421.425 391.084 423.867C391.084 426.309 393.284 428.289 395.999 428.289ZM389.855 453.715C392.57 453.715 394.77 451.735 394.77 449.293C394.77 446.851 392.57 444.871 389.855 444.871C387.14 444.871 384.94 446.851 384.94 449.293C384.94 451.735 387.14 453.715 389.855 453.715ZM388.626 479.14C391.341 479.14 393.541 477.161 393.541 474.719C393.541 472.276 391.341 470.297 388.626 470.297C385.911 470.297 383.711 472.276 383.711 474.719C383.711 477.161 385.911 479.14 388.626 479.14Z" fill="black" fill-opacity="0.4"/>
<defs>
<linearGradient id="paint0_linear" x1="585.347" y1="73.3954" x2="232.913" y2="638.368" gradientUnits="userSpaceOnUse">
<stop stop-color="#EE4266"/>
<stop offset="1" stop-color="#EE4266" stop-opacity="0"/>
</linearGradient>
<radialGradient id="paint1_radial" cx="0" cy="0" r="1" gradientUnits="userSpaceOnUse" gradientTransform="translate(665.303 46.6559) rotate(135.871) scale(764.799 456.435)">
<stop offset="0.765625" stop-color="#EE4266"/>
<stop offset="1" stop-color="#EE4266" stop-opacity="0"/>
</radialGradient>
</defs>
</svg>
