<svg width="236" height="226" viewBox="0 0 236 226" fill="none" xmlns="http://www.w3.org/2000/svg">
<circle cx="155.419" cy="49.4193" r="155.419" fill="url(#paint0_linear)"/>
<mask id="mask0" mask-type="alpha" maskUnits="userSpaceOnUse" x="0" y="-106" width="311" height="311">
<circle cx="155.419" cy="49.4193" r="155.419" fill="url(#paint1_radial)"/>
</mask>
<g mask="url(#mask0)">
</g>
<path fill-rule="evenodd" clip-rule="evenodd" d="M158.235 88.268C160.289 85.8568 161.68 82.9019 161.447 79.5908C160.778 70.0506 147.498 72.1494 144.914 76.9644C142.331 81.7795 142.638 93.9933 145.977 94.8538C147.308 95.1971 150.145 94.3563 153.031 92.6164L151.219 105.435H161.918L158.235 88.268Z" fill="#B28B67"/>
<path fill-rule="evenodd" clip-rule="evenodd" d="M154.906 83.0855C155.256 82.8451 155.674 82.699 156.123 82.699C157.354 82.699 158.352 83.7968 158.352 84.928C158.352 86.1048 157.797 87.0147 157.003 87.4008C157.427 88.2295 157.853 88.8309 158.352 88.9401C160.279 88.7452 162.81 83.9564 162.81 80.0243C162.81 75.7204 159.386 72 153.003 72C147.266 72 145.091 74.3655 144.979 76.4579C147.437 77.1336 151.733 77.3937 157.907 77.3495V77.7953L152.557 78.2411L151.665 80.9158C153.084 80.81 154.098 81.7829 154.906 83.0855Z" fill="#191847"/>
<path d="M164.202 220.471C145.148 220.471 129.702 205.472 129.702 186.971C129.702 168.469 145.148 153.471 164.202 153.471C183.256 153.471 198.702 168.469 198.702 186.971C198.702 205.472 183.256 220.471 164.202 220.471Z" fill="#E6E8EC"/>
<path fill-rule="evenodd" clip-rule="evenodd" d="M90.2757 214.87C98.7307 203.872 105.273 194.102 108.217 188.828C113.257 179.798 117.364 171.775 118.643 168.719C121.695 161.431 110.785 158.398 108.442 161.826C104.896 167.013 96.6389 184.856 85.3549 212.085L90.2757 214.87Z" fill="#B28B67"/>
<path fill-rule="evenodd" clip-rule="evenodd" d="M138.271 216.93C138.051 211.299 136.572 191.891 134.677 183.053C134.132 180.513 133.585 178.06 133.054 175.761C131.476 168.927 118.664 170.679 120.469 177.135C124.965 193.213 132.175 215.636 132.733 217.582C133.513 220.308 138.41 220.468 138.271 216.93Z" fill="#B28B67"/>
<path fill-rule="evenodd" clip-rule="evenodd" d="M123.765 160.003L152.111 145.573V142.432H148.74C121.316 149.42 107.162 153.913 106.559 155.882C106.552 155.903 106.546 155.924 106.541 155.945C106.527 155.963 106.513 155.982 106.5 156C101.065 163.475 90.0683 199.268 89 202L99.5 205C103.484 190.227 124.026 179.173 123.688 161.48C123.779 160.961 123.802 160.469 123.765 160.003Z" fill="#1F28CF"/>
<path fill-rule="evenodd" clip-rule="evenodd" d="M133 172.152C135.593 171.633 154.738 167.591 156.782 167.232C169.983 164.917 173.833 157.85 171.557 142.432H147.233C143.26 143.573 124.713 151.894 114 156.5C106.909 159.548 109.5 168.5 111.777 172.152C111.799 172.327 111.871 172.447 112 172.5C124 193 125 205.5 129 208L138.5 206L133 172.152Z" fill="#2B44FF"/>
<path fill-rule="evenodd" clip-rule="evenodd" d="M139.174 214.559C139.911 215.775 140.341 216.708 140.464 217.357C140.613 218.147 140.699 219.325 140.722 220.89C139.805 221.063 131.569 222.618 116.014 225.554C114.972 223.553 115.126 222.337 116.477 221.906C117.829 221.476 118.949 221.106 119.838 220.797L130.355 213.51C130.558 213.37 130.836 213.42 130.976 213.622C130.978 213.626 130.981 213.629 130.983 213.633L132.059 215.284C133.452 215.64 134.549 215.742 135.35 215.591C136 215.468 136.849 215.036 137.896 214.294C138.298 214.01 138.854 214.104 139.139 214.506C139.151 214.524 139.163 214.541 139.174 214.559Z" fill="#E4E4E4"/>
<path fill-rule="evenodd" clip-rule="evenodd" d="M93.9309 211.035C94.1115 212.445 94.1261 213.472 93.9748 214.115C93.7907 214.898 93.3917 216.009 92.7778 217.449C91.87 217.235 83.7115 215.316 68.3025 211.691C68.1611 209.439 68.7953 208.39 70.2051 208.545C71.6148 208.699 72.7888 208.816 73.727 208.894L86.2959 206.499C86.5378 206.453 86.7712 206.611 86.8173 206.853C86.8181 206.857 86.8188 206.862 86.8195 206.866L87.1334 208.812C88.2628 209.702 89.224 210.24 90.0171 210.427C90.6615 210.578 91.6126 210.528 92.8705 210.274L92.8705 210.274C93.3532 210.177 93.8234 210.489 93.9206 210.972C93.9248 210.993 93.9282 211.014 93.9309 211.035Z" fill="#E4E4E4"/>
<path fill-rule="evenodd" clip-rule="evenodd" d="M120.735 129.342L104.894 137.107C100.914 137.45 97.5142 138.156 94.6937 139.223C93.9936 139.663 93.0672 140.643 95.5968 140.899C98.1263 141.155 100.776 141.538 100.967 142.451C101.159 143.364 99.466 144.11 99.9559 145.383C100.282 146.232 102.819 144.706 107.565 140.805L122.457 137.545L120.735 129.342Z" fill="#B28B67"/>
<path fill-rule="evenodd" clip-rule="evenodd" d="M117.275 129.868C115.497 129.416 114.051 129.537 111.824 129.868C110.728 130.031 110.839 129.952 111.002 131.048C111.096 131.684 111.48 132.206 112 132.5C111.546 132.721 109.654 133.864 109.193 134.081L111.43 141.923C127.618 137.181 142.586 134.102 151.145 123.013C154.018 119.292 155.797 105.218 156.911 100.182L152.564 97.4156C143.596 109.763 132.414 121.147 117.275 129.868Z" fill="#69A1AC"/>
<path fill-rule="evenodd" clip-rule="evenodd" d="M189.999 129.176L182.148 130.597C191.26 148.679 196.141 158.239 196.79 159.279C198.249 161.617 196.776 165.83 196.22 168.053C199.45 168.865 198.256 163.959 202.343 165.051C206.073 166.047 209.208 168.49 212.758 165.33C213.194 164.942 213.53 163.709 212.077 163.049C208.456 161.404 203.118 158.348 202.264 157.183C201.099 155.594 197.011 146.258 189.999 129.176Z" fill="#B28B67"/>
<path fill-rule="evenodd" clip-rule="evenodd" d="M172.617 146.406C158.602 147.945 147.571 147.945 139.524 146.406C138.526 146.215 138.57 141.917 139.033 140.743C146.233 122.463 150.97 109.082 150.97 96.3848C152.291 97.0749 154.603 97.1783 157.906 96.695C166.784 109.779 170.864 124.792 172.617 146.406Z" fill="#191847"/>
<path fill-rule="evenodd" clip-rule="evenodd" d="M175.222 148.566C175.698 148.119 175.946 147.447 175.824 146.756L175.592 145.438C175.434 144.546 174.71 143.896 173.854 143.794C173.704 143.126 173.575 142.461 173.469 141.802C172.569 136.231 174.106 130.769 174.034 125.405C181.202 131.521 187.633 142.082 193.326 157.087L201.745 154.609C201.424 153.416 201.091 152.237 200.747 151.073C201.719 150.521 202.854 147.99 202.037 147.567C201.193 147.13 200.299 146.822 199.357 146.641C191.637 123.389 179.013 106.383 161.484 95.625H159.933L156.414 95.625C157.907 115.365 137.289 158.462 144.448 195.268C157.68 198.223 176.571 189.029 194.96 196.374C194.275 181.552 180.569 164.139 175.222 148.566Z" fill="#89C5CC"/>
<path fill-rule="evenodd" clip-rule="evenodd" d="M159.643 96.0703L161.943 103.143L157.312 108.445L161.498 112.612L151.371 129.951L163.755 112.646L159.643 108.445L163.755 103.76L159.643 96.0703Z" fill="black" fill-opacity="0.1"/>
<path fill-rule="evenodd" clip-rule="evenodd" d="M154.34 136.639C155.325 136.639 156.123 135.84 156.123 134.855C156.123 133.871 155.325 133.072 154.34 133.072C153.355 133.072 152.557 133.871 152.557 134.855C152.557 135.84 153.355 136.639 154.34 136.639ZM152.111 146.892C153.096 146.892 153.894 146.093 153.894 145.109C153.894 144.124 153.096 143.325 152.111 143.325C151.126 143.325 150.328 144.124 150.328 145.109C150.328 146.093 151.126 146.892 152.111 146.892ZM151.665 157.145C152.65 157.145 153.448 156.347 153.448 155.362C153.448 154.377 152.65 153.579 151.665 153.579C150.68 153.579 149.882 154.377 149.882 155.362C149.882 156.347 150.68 157.145 151.665 157.145Z" fill="black" fill-opacity="0.4"/>
<defs>
<linearGradient id="paint0_linear" x1="212.349" y1="-4.2631" x2="75.5451" y2="204.839" gradientUnits="userSpaceOnUse">
<stop stop-color="#EE4266"/>
<stop offset="1" stop-color="#EE4266" stop-opacity="0"/>
</linearGradient>
<radialGradient id="paint1_radial" cx="0" cy="0" r="1" gradientUnits="userSpaceOnUse" gradientTransform="translate(241.355 -14.4368) rotate(134.506) scale(284.092 169.6)">
<stop offset="0.765625" stop-color="#EE4266"/>
<stop offset="1" stop-color="#EE4266" stop-opacity="0"/>
</radialGradient>
</defs>
</svg>
