<svg width="150" height="122" viewBox="0 0 150 122" fill="none" xmlns="http://www.w3.org/2000/svg">
<g clip-path="url(#clip0)">
<circle cx="62.0895" cy="66.7931" r="54.6124" fill="#07106D"/>
<path d="M96.3841 60.9053L153.075 60.9053C153.965 60.9053 154.411 59.8315 153.785 59.2005L97.0936 2.12631C96.4646 1.49307 95.3841 1.9385 95.3841 2.83103L95.3841 59.9053C95.3841 60.4576 95.8318 60.9053 96.3841 60.9053Z" fill="#851859"/>
<path d="M101.168 54.3896L138.713 54.3896C139.604 54.3896 140.051 53.3124 139.421 52.6825L101.875 15.1426C101.245 14.5127 100.168 14.9589 100.168 15.8498L100.168 53.3896C100.168 53.9419 100.616 54.3896 101.168 54.3896Z" fill="#010527"/>
<rect x="41.7871" y="43.8516" width="78.7718" height="52.3792" fill="#DEDEDE"/>
<rect x="46.2534" y="47.9121" width="69.8389" height="43.8523" fill="white"/>
<rect x="41.7871" y="96.2305" width="107.601" height="8.12081" fill="#F2CCD4"/>
<rect x="41.7871" y="96.2305" width="30.047" height="8.12081" fill="#717282"/>
<path d="M53.9683 24.5195C53.9683 22.8627 55.3114 21.5195 56.9683 21.5195H105.378C107.035 21.5195 108.378 22.8627 108.378 24.5195V91.7645H53.9683V24.5195Z" fill="#5C184E"/>
<path d="M53.9683 24.5195C53.9683 22.8627 55.3114 21.5195 56.9683 21.5195H105.378C107.035 21.5195 108.378 22.8627 108.378 24.5195V25.1739H53.9683V24.5195Z" fill="#D7D7D7"/>
<circle cx="106.144" cy="23.3471" r="1.0151" fill="#EE4266"/>
<circle cx="100.46" cy="23.3471" r="1.0151" fill="#07106D"/>
<circle cx="103.302" cy="23.3471" r="1.0151" fill="white"/>
<path d="M53.9683 25.1738H108.378V55.8299C108.378 55.8299 101.069 55.0493 87.0605 67.402C73.0522 79.7547 53.9683 63.1885 53.9683 63.1885V25.1738Z" fill="#BA1C51"/>
<rect x="85.2334" y="29.2344" width="20.302" height="14.6174" rx="1" fill="black"/>
<line x1="93.1753" y1="34.6037" x2="91.4153" y2="36.3637" stroke="#BA1C51" stroke-width="3" stroke-linecap="round"/>
<line x1="91.4153" y1="36.3633" x2="93.1752" y2="38.1232" stroke="#BA1C51" stroke-width="3" stroke-linecap="round"/>
<line x1="97.5942" y1="38.1238" x2="99.3542" y2="36.3638" stroke="#BA1C51" stroke-width="3" stroke-linecap="round"/>
<line x1="99.3538" y1="36.3633" x2="97.5938" y2="34.6033" stroke="#BA1C51" stroke-width="3" stroke-linecap="round"/>
<rect x="56.8105" y="41.8223" width="25.5805" height="1.62416" fill="white"/>
<rect x="56.8105" y="37.7617" width="25.5805" height="1.62416" fill="white"/>
<rect x="56.8105" y="33.7012" width="25.5805" height="1.62416" fill="white"/>
<rect x="56.8105" y="29.6406" width="25.5805" height="1.62416" fill="white"/>
<rect x="64.9312" y="52.7852" width="14.2114" height="14.6174" fill="white"/>
<rect x="83.2031" y="52.7852" width="14.2114" height="14.6174" fill="white"/>
<rect x="74.27" y="48.7246" width="13.8054" height="1.62416" fill="white"/>
<rect x="56.8105" y="75.1172" width="25.5805" height="1.62416" fill="white"/>
<rect x="56.8105" y="79.1777" width="25.5805" height="1.62416" fill="white"/>
<rect x="56.8105" y="83.2383" width="25.5805" height="1.62416" fill="white"/>
<path d="M116.296 56.8447C99.3648 56.8447 85.6396 70.5699 85.6396 87.5008H146.952C146.952 70.5699 133.227 56.8447 116.296 56.8447Z" fill="#EBF3F4"/>
<path d="M142.145 79.8183C138.79 68.6388 128.486 60.499 116.295 60.499C103.034 60.499 92.0048 70.1316 89.7256 82.8312H142.865C142.681 81.8058 142.44 80.8003 142.145 79.8183Z" fill="#202345" fill-opacity="0.96"/>
<line x1="101.203" y1="10.6698" x2="103.213" y2="8.66005" stroke="black" stroke-width="2"/>
<line x1="104.075" y1="13.5409" x2="106.084" y2="11.5311" stroke="black" stroke-width="2"/>
<line x1="106.946" y1="16.412" x2="108.956" y2="14.4022" stroke="black" stroke-width="2"/>
<line x1="109.817" y1="19.2831" x2="111.827" y2="17.2733" stroke="black" stroke-width="2"/>
<line x1="112.688" y1="22.1542" x2="114.698" y2="20.1444" stroke="black" stroke-width="2"/>
<line x1="115.559" y1="25.0253" x2="117.569" y2="23.0155" stroke="black" stroke-width="2"/>
<line x1="118.43" y1="27.8964" x2="120.44" y2="25.8866" stroke="black" stroke-width="2"/>
<line x1="121.301" y1="30.7675" x2="123.311" y2="28.7577" stroke="black" stroke-width="2"/>
<line x1="124.172" y1="33.6386" x2="126.182" y2="31.6288" stroke="black" stroke-width="2"/>
<line x1="127.043" y1="36.5097" x2="129.053" y2="34.4999" stroke="black" stroke-width="2"/>
<line x1="129.914" y1="39.3808" x2="131.924" y2="37.371" stroke="black" stroke-width="2"/>
<line x1="132.786" y1="42.2529" x2="134.795" y2="40.2431" stroke="black" stroke-width="2"/>
<line x1="135.657" y1="45.1239" x2="137.667" y2="43.1142" stroke="black" stroke-width="2"/>
<line x1="138.528" y1="47.995" x2="140.538" y2="45.9852" stroke="black" stroke-width="2"/>
<line x1="141.399" y1="50.8661" x2="143.409" y2="48.8563" stroke="black" stroke-width="2"/>
<line x1="144.27" y1="53.7372" x2="146.28" y2="51.7274" stroke="black" stroke-width="2"/>
<line x1="143.485" y1="84.8613" x2="143.485" y2="87.7036" stroke="#07106D" stroke-width="2"/>
<line x1="139.424" y1="84.8613" x2="139.424" y2="87.7036" stroke="#07106D" stroke-width="2"/>
<line x1="135.364" y1="84.8613" x2="135.364" y2="87.7036" stroke="#07106D" stroke-width="2"/>
<line x1="131.304" y1="84.8613" x2="131.304" y2="87.7036" stroke="#07106D" stroke-width="2"/>
<line x1="127.243" y1="84.8613" x2="127.243" y2="87.7036" stroke="#07106D" stroke-width="2"/>
<line x1="123.183" y1="84.8613" x2="123.183" y2="87.7036" stroke="#07106D" stroke-width="2"/>
<line x1="119.123" y1="84.8613" x2="119.123" y2="87.7036" stroke="#07106D" stroke-width="2"/>
<line x1="115.062" y1="84.8613" x2="115.062" y2="87.7036" stroke="#07106D" stroke-width="2"/>
<line x1="111.002" y1="84.8613" x2="111.002" y2="87.7036" stroke="#07106D" stroke-width="2"/>
<line x1="106.941" y1="84.8613" x2="106.941" y2="87.7036" stroke="#07106D" stroke-width="2"/>
<line x1="102.881" y1="84.8613" x2="102.881" y2="87.7036" stroke="#07106D" stroke-width="2"/>
<line x1="98.8203" y1="84.8613" x2="98.8203" y2="87.7036" stroke="#07106D" stroke-width="2"/>
<line x1="94.7603" y1="84.8613" x2="94.7603" y2="87.7036" stroke="#07106D" stroke-width="2"/>
<line x1="90.6997" y1="84.8613" x2="90.6997" y2="87.7036" stroke="#07106D" stroke-width="2"/>
</g>
<defs>
<clipPath id="clip0">
<rect width="149.046" height="121" fill="white" transform="translate(0.477051 0.405273)"/>
</clipPath>
</defs>
</svg>
