<svg width="152" height="110" viewBox="0 0 152 110" fill="none" xmlns="http://www.w3.org/2000/svg">
<circle cx="97.0474" cy="54.7027" r="54.7027" fill="#07106D"/>
<rect width="107.779" height="8.13423" transform="matrix(-1 0 0 1 118.603 62.6328)" fill="#F2CCD4"/>
<rect width="30.0967" height="8.13423" transform="matrix(-1 0 0 1 118.603 62.6328)" fill="#717282"/>
<rect x="38.481" y="3.66113" width="78.9021" height="52.4658" fill="white"/>
<rect x="37.2603" width="81.3423" height="3.6604" fill="#C4C4C4"/>
<rect x="77.5254" y="56.126" width="0.813423" height="3.25369" fill="#C4C4C4"/>
<circle cx="77.9321" cy="60.6" r="1.22013" fill="#C4C4C4"/>
<rect x="44.9888" y="8.94824" width="65.4806" height="41.8913" fill="#BA1C51"/>
<path d="M0.25 78.7676C0.25 74.3493 3.83172 70.7676 8.25 70.7676H118.603V89.4763H8.25001C3.83173 89.4763 0.25 85.8946 0.25 81.4763V78.7676Z" fill="#851859"/>
<path d="M81.999 79.9192C81.999 75.5391 85.5498 71.9883 89.9299 71.9883H118.603V87.85H89.9299C85.5498 87.85 81.999 84.2993 81.999 79.9192Z" fill="white"/>
<rect x="88.5063" y="83.7812" width="30.0967" height="0.813423" fill="#717282"/>
<rect x="105.588" y="80.1221" width="13.0148" height="0.813423" fill="#717282"/>
<rect x="55.5625" y="20.3359" width="45.145" height="7.32081" fill="white"/>
<rect x="60.8501" y="30.9092" width="26.0295" height="2.44027" fill="white"/>
<rect x="60.8501" y="37.0107" width="26.0295" height="2.44027" fill="white"/>
<rect x="27.9062" y="14.6406" width="39.8577" height="23.5893" fill="black"/>
<path d="M27.9062 14.6419C27.9062 13.0696 29.1809 11.7949 30.7532 11.7949H64.917C66.4894 11.7949 67.764 13.0696 67.764 14.6419H27.9062Z" fill="#D7D7D7"/>
<circle cx="66.1279" cy="13.3022" r="0.743614" fill="#EE4266"/>
<circle cx="61.9638" cy="13.3032" r="0.743614" fill="#07106D"/>
<circle cx="64.0459" cy="13.3022" r="0.743614" fill="white"/>
<rect x="29.9404" y="17.0801" width="34.9772" height="1.62685" fill="white"/>
<rect x="29.9404" y="23.5879" width="25.2161" height="1.62685" fill="white"/>
<rect x="29.9404" y="20.3359" width="18.7087" height="1.62685" fill="white"/>
<path d="M12.4515 55.1262V53.1612C12.4515 52.4453 11.7212 51.9613 11.0618 52.2403L6.41742 54.2052C5.41353 54.6299 5.71703 56.1262 6.80706 56.1262H11.4515C12.0037 56.1262 12.4515 55.6785 12.4515 55.1262Z" fill="white"/>
<rect x="10.8247" y="42.2979" width="22.7758" height="13.8282" rx="2" fill="white"/>
<path d="M25.507 45.5508C25.9338 45.5508 26.2798 45.8967 26.2798 46.3235C26.2798 46.7503 25.9338 47.0963 25.507 47.0963L22.4161 47.0963L19.3251 47.0963C18.8983 47.0963 18.5524 46.7503 18.5524 46.3235C18.5524 45.8967 18.8983 45.5508 19.3251 45.5508L25.507 45.5508Z" fill="#07106D"/>
<path d="M25.507 48.6426C25.9338 48.6426 26.2798 48.9885 26.2798 49.4153C26.2798 49.8421 25.9338 50.1881 25.507 50.1881L22.4161 50.1881C21.9893 50.1881 21.6433 49.8421 21.6433 49.4153C21.6433 48.9885 21.9893 48.6426 22.4161 48.6426L25.507 48.6426Z" fill="#07106D"/>
<path d="M26.2798 48.7966C26.2798 49.2234 25.9338 49.5693 25.507 49.5693C25.0803 49.5693 24.7343 49.2234 24.7343 48.7966L24.7343 46.3238C24.7343 45.897 25.0803 45.5511 25.507 45.5511C25.9338 45.5511 26.2798 45.897 26.2798 46.3238L26.2798 48.7966Z" fill="#07106D"/>
<path d="M23.1885 50.6511C23.1885 51.0779 22.8425 51.4238 22.4157 51.4238C21.989 51.4238 21.643 51.0779 21.643 50.6511L21.643 49.4147C21.643 48.9879 21.989 48.642 22.4157 48.642C22.8425 48.642 23.1885 48.9879 23.1885 49.4147L23.1885 50.6511Z" fill="#07106D"/>
<path d="M23.1885 52.8151C23.1885 53.2419 22.8425 53.5879 22.4157 53.5879C21.989 53.5879 21.643 53.2419 21.643 52.8151C21.643 52.3884 21.989 52.0424 22.4157 52.0424C22.8425 52.0424 23.1885 52.3884 23.1885 52.8151Z" fill="#07106D"/>
<path d="M20.0977 47.2507C20.0977 47.6775 19.7517 48.0234 19.3249 48.0234C18.8981 48.0234 18.5522 47.6775 18.5522 47.2507L18.5522 46.6325C18.5522 46.2057 18.8981 45.8598 19.3249 45.8598C19.7517 45.8598 20.0977 46.2057 20.0977 46.6325L20.0977 47.2507Z" fill="#07106D"/>
<ellipse cx="103.536" cy="47.0448" rx="11.6835" ry="14.6044" transform="rotate(-16 103.536 47.0448)" fill="#851859"/>
<ellipse cx="114.327" cy="47.2229" rx="11.6835" ry="14.6044" transform="rotate(16 114.327 47.2229)" fill="#851859"/>
<rect x="108.564" y="31.4258" width="0.73022" height="5.11154" fill="black"/>
</svg>
