<svg width="499" height="458" viewBox="0 0 499 458" fill="none" xmlns="http://www.w3.org/2000/svg">
<path d="M499 0H139V417.987H499V0Z" fill="#E5E5E5"/>
<path d="M251.75 47.1155H160.742V54.363H251.75V47.1155Z" fill="#ABA7A7"/>
<path d="M316.177 64.8337H160.742V72.0813H316.177V64.8337Z" fill="#ABA7A7"/>
<path d="M481.76 40.1909H417.171V95.9234H481.76V40.1909Z" fill="#F6F6F6"/>
<path d="M481.417 40.5139V95.6004H417.468V40.5139H481.417ZM482.063 39.8679H416.822V96.2463H482.063V39.8679Z" fill="#ABA7A7"/>
<path d="M416.525 40.1909H351.937V95.9234H416.525V40.1909Z" fill="#F6F6F6"/>
<path d="M416.176 40.5139V95.6004H352.227V40.5139H416.176ZM416.822 39.8679H351.582V96.2463H416.822V39.8679Z" fill="#ABA7A7"/>
<path d="M481.76 96.5693H417.171V152.302H481.76V96.5693Z" fill="#F6F6F6"/>
<path d="M481.417 96.8923V151.979H417.468V96.8923H481.417ZM482.063 96.2463H416.822V152.625H482.063V96.2463Z" fill="#ABA7A7"/>
<path d="M416.525 96.5693H351.937V152.302H416.525V96.5693Z" fill="#F6F6F6"/>
<path d="M416.176 96.8923V151.979H352.227V96.8923H416.176ZM416.822 96.2463H351.582V152.625H416.822V96.2463Z" fill="#ABA7A7"/>
<path d="M351.291 96.5693H286.702V152.302H351.291V96.5693Z" fill="#F6F6F6"/>
<path d="M350.968 96.8923V151.979H287.019V96.8923H350.968ZM351.614 96.2463H286.373V152.625H351.614V96.2463Z" fill="#ABA7A7"/>
<path d="M286.057 96.5693H221.468V152.302H286.057V96.5693Z" fill="#F6F6F6"/>
<path d="M285.734 96.8923V151.979H221.785V96.8923H285.734ZM286.379 96.2463H221.139V152.625H286.379V96.2463Z" fill="#ABA7A7"/>
<path d="M220.822 96.5693H156.234V152.302H220.822V96.5693Z" fill="#F6F6F6"/>
<path d="M220.499 96.8923V151.979H156.55V96.8923H220.499ZM221.145 96.2463H155.905V152.625H221.145V96.2463Z" fill="#ABA7A7"/>
<path d="M481.76 152.941H417.171V208.674H481.76V152.941Z" fill="#F6F6F6"/>
<path d="M481.417 153.271V208.357H417.468V153.271H481.417ZM482.063 152.625H416.822V209.003H482.063V152.625Z" fill="#ABA7A7"/>
<path d="M416.525 152.941H351.937V208.674H416.525V152.941Z" fill="#F6F6F6"/>
<path d="M416.176 153.271V208.357H352.227V153.271H416.176ZM416.822 152.625H351.582V209.003H416.822V152.625Z" fill="#ABA7A7"/>
<path d="M351.291 152.941H286.702V208.674H351.291V152.941Z" fill="#F6F6F6"/>
<path d="M350.968 153.271V208.357H287.019V153.271H350.968ZM351.614 152.625H286.373V209.003H351.614V152.625Z" fill="#ABA7A7"/>
<path d="M286.057 152.941H221.468V208.674H286.057V152.941Z" fill="#F6F6F6"/>
<path d="M285.734 153.271V208.357H221.785V153.271H285.734ZM286.379 152.625H221.139V209.003H286.379V152.625Z" fill="#ABA7A7"/>
<path d="M220.822 152.941H156.234V208.674H220.822V152.941Z" fill="#F6F6F6"/>
<path d="M220.499 153.271V208.357H156.55V153.271H220.499ZM221.145 152.625H155.905V209.003H221.145V152.625Z" fill="#ABA7A7"/>
<path d="M481.76 209.319H417.171V265.052H481.76V209.319Z" fill="#F6F6F6"/>
<path d="M481.417 209.643V264.73H417.468V209.643H481.417ZM482.063 208.997H416.822V265.375H482.063V208.997Z" fill="#ABA7A7"/>
<path d="M416.525 209.319H351.937V265.052H416.525V209.319Z" fill="#F6F6F6"/>
<path d="M416.176 209.643V264.73H352.227V209.643H416.176ZM416.822 208.997H351.582V265.375H416.822V208.997Z" fill="#ABA7A7"/>
<path d="M351.291 209.319H286.702V265.052H351.291V209.319Z" fill="#F6F6F6"/>
<path d="M350.968 209.643V264.73H287.019V209.643H350.968ZM351.614 208.997H286.373V265.375H351.614V208.997Z" fill="#ABA7A7"/>
<path d="M286.057 209.319H221.468V265.052H286.057V209.319Z" fill="#F6F6F6"/>
<path d="M285.734 209.643V264.73H221.785V209.643H285.734ZM286.379 208.997H221.139V265.375H286.379V208.997Z" fill="#ABA7A7"/>
<path d="M220.822 209.319H156.234V265.052H220.822V209.319Z" fill="#F6F6F6"/>
<path d="M220.499 209.643V264.73H156.55V209.643H220.499ZM221.145 208.997H155.905V265.375H221.145V208.997Z" fill="#ABA7A7"/>
<path d="M481.76 265.691H417.171V321.424H481.76V265.691Z" fill="#F6F6F6"/>
<path d="M481.417 266.021V321.101H417.468V266.021H481.417ZM482.063 265.375H416.822V321.747H482.063V265.375Z" fill="#ABA7A7"/>
<path d="M416.525 265.691H351.937V321.424H416.525V265.691Z" fill="#F6F6F6"/>
<path d="M416.176 266.021V321.101H352.227V266.021H416.176ZM416.822 265.375H351.582V321.747H416.822V265.375Z" fill="#ABA7A7"/>
<path d="M351.291 265.691H286.702V321.424H351.291V265.691Z" fill="#F6F6F6"/>
<path d="M350.968 266.021V321.101H287.019V266.021H350.968ZM351.614 265.375H286.373V321.747H351.614V265.375Z" fill="#ABA7A7"/>
<path d="M286.057 265.691H221.468V321.424H286.057V265.691Z" fill="#F6F6F6"/>
<path d="M285.734 266.021V321.101H221.785V266.021H285.734ZM286.379 265.375H221.139V321.747H286.379V265.375Z" fill="#ABA7A7"/>
<path d="M220.822 265.691H156.234V321.424H220.822V265.691Z" fill="#F6F6F6"/>
<path d="M220.499 266.021V321.101H156.55V266.021H220.499ZM221.145 265.375H155.905V321.747H221.145V265.375Z" fill="#ABA7A7"/>
<path d="M481.76 322.07H417.171V377.802H481.76V322.07Z" fill="#F6F6F6"/>
<path d="M481.417 322.393V377.48H417.468V322.393H481.417ZM482.063 321.747H416.822V378.125H482.063V321.747Z" fill="#ABA7A7"/>
<path d="M416.525 322.07H351.937V377.802H416.525V322.07Z" fill="#F6F6F6"/>
<path d="M416.176 322.393V377.48H352.227V322.393H416.176ZM416.822 321.747H351.582V378.125H416.822V321.747Z" fill="#ABA7A7"/>
<path d="M351.291 322.07H286.702V377.802H351.291V322.07Z" fill="#F6F6F6"/>
<path d="M350.968 322.393V377.48H287.019V322.393H350.968ZM351.614 321.747H286.373V378.125H351.614V321.747Z" fill="#ABA7A7"/>
<path d="M286.057 322.07H221.468V377.802H286.057V322.07Z" fill="#F6F6F6"/>
<path d="M285.734 322.393V377.48H221.785V322.393H285.734ZM286.379 321.747H221.139V378.125H286.379V321.747Z" fill="#ABA7A7"/>
<path d="M220.822 322.07H156.234V377.802H220.822V322.07Z" fill="#F6F6F6"/>
<path d="M220.499 322.393V377.48H156.55V322.393H220.499ZM221.145 321.747H155.905V378.125H221.145V321.747Z" fill="#ABA7A7"/>
<path d="M164.754 108.726C166.787 108.726 168.436 107.078 168.436 105.044C168.436 103.011 166.787 101.362 164.754 101.362C162.72 101.362 161.072 103.011 161.072 105.044C161.072 107.078 162.72 108.726 164.754 108.726Z" fill="#FFA5A5"/>
<path d="M173.952 108.726C175.986 108.726 177.634 107.078 177.634 105.044C177.634 103.011 175.986 101.362 173.952 101.362C171.919 101.362 170.27 103.011 170.27 105.044C170.27 107.078 171.919 108.726 173.952 108.726Z" fill="#5C184E"/>
<path d="M294.77 163.309C296.804 163.309 298.452 161.66 298.452 159.627C298.452 157.594 296.804 155.945 294.77 155.945C292.737 155.945 291.088 157.594 291.088 159.627C291.088 161.66 292.737 163.309 294.77 163.309Z" fill="#93E1D8"/>
<path d="M303.975 163.309C306.009 163.309 307.657 161.66 307.657 159.627C307.657 157.594 306.009 155.945 303.975 155.945C301.942 155.945 300.293 157.594 300.293 159.627C300.293 161.66 301.942 163.309 303.975 163.309Z" fill="#93E1D8"/>
<path d="M426.627 108.726C428.661 108.726 430.309 107.078 430.309 105.044C430.309 103.011 428.661 101.362 426.627 101.362C424.594 101.362 422.946 103.011 422.946 105.044C422.946 107.078 424.594 108.726 426.627 108.726Z" fill="#93E1D8"/>
<path d="M435.826 108.726C437.86 108.726 439.508 107.078 439.508 105.044C439.508 103.011 437.86 101.362 435.826 101.362C433.793 101.362 432.144 103.011 432.144 105.044C432.144 107.078 433.793 108.726 435.826 108.726Z" fill="#93E1D8"/>
<path d="M445.031 108.726C447.064 108.726 448.713 107.078 448.713 105.044C448.713 103.011 447.064 101.362 445.031 101.362C442.998 101.362 441.349 103.011 441.349 105.044C441.349 107.078 442.998 108.726 445.031 108.726Z" fill="#93E1D8"/>
<path d="M454.229 108.726C456.263 108.726 457.911 107.078 457.911 105.044C457.911 103.011 456.263 101.362 454.229 101.362C452.196 101.362 450.548 103.011 450.548 105.044C450.548 107.078 452.196 108.726 454.229 108.726Z" fill="#93E1D8"/>
<path d="M426.627 222.794C428.661 222.794 430.309 221.146 430.309 219.113C430.309 217.079 428.661 215.431 426.627 215.431C424.594 215.431 422.946 217.079 422.946 219.113C422.946 221.146 424.594 222.794 426.627 222.794Z" fill="#93E1D8"/>
<path d="M435.826 222.794C437.86 222.794 439.508 221.146 439.508 219.113C439.508 217.079 437.86 215.431 435.826 215.431C433.793 215.431 432.144 217.079 432.144 219.113C432.144 221.146 433.793 222.794 435.826 222.794Z" fill="#93E1D8"/>
<path d="M445.031 222.794C447.064 222.794 448.713 221.146 448.713 219.113C448.713 217.079 447.064 215.431 445.031 215.431C442.998 215.431 441.349 217.079 441.349 219.113C441.349 221.146 442.998 222.794 445.031 222.794Z" fill="#93E1D8"/>
<path d="M454.229 222.794C456.263 222.794 457.911 221.146 457.911 219.113C457.911 217.079 456.263 215.431 454.229 215.431C452.196 215.431 450.548 217.079 450.548 219.113C450.548 221.146 452.196 222.794 454.229 222.794Z" fill="#93E1D8"/>
<path d="M229.762 163.309C231.795 163.309 233.444 161.66 233.444 159.627C233.444 157.594 231.795 155.945 229.762 155.945C227.729 155.945 226.08 157.594 226.08 159.627C226.08 161.66 227.729 163.309 229.762 163.309Z" fill="#5C184E"/>
<path d="M164.754 219.119C166.787 219.119 168.436 217.47 168.436 215.437C168.436 213.403 166.787 211.755 164.754 211.755C162.72 211.755 161.072 213.403 161.072 215.437C161.072 217.47 162.72 219.119 164.754 219.119Z" fill="#FFA5A5"/>
<path d="M399.432 188.752C401.024 186.134 401.884 183.132 401.922 180.063C401.96 176.994 401.175 173.972 399.65 171.314L402.373 168.574C402.572 168.374 402.73 168.136 402.837 167.875C402.945 167.614 403 167.334 403 167.051C403 166.768 402.945 166.488 402.837 166.227C402.73 165.966 402.572 165.728 402.373 165.528L399.497 162.635C399.299 162.435 399.063 162.276 398.803 162.168C398.544 162.059 398.265 162.004 397.985 162.004C397.704 162.004 397.425 162.059 397.166 162.168C396.906 162.276 396.67 162.435 396.472 162.635L393.817 165.304C391.19 163.69 388.177 162.827 385.099 162.806C382.022 162.786 378.997 163.609 376.35 165.187L373.81 162.631C373.611 162.431 373.375 162.272 373.116 162.164C372.856 162.056 372.578 162 372.297 162C372.016 162 371.738 162.056 371.478 162.164C371.218 162.272 370.983 162.431 370.784 162.631L367.913 165.528C367.714 165.728 367.556 165.966 367.449 166.227C367.341 166.488 367.286 166.768 367.286 167.051C367.286 167.334 367.341 167.614 367.449 167.875C367.556 168.136 367.714 168.374 367.913 168.574L370.442 171.12C369.103 173.374 368.303 175.91 368.105 178.529H379.521C379.801 177.436 380.398 176.452 381.236 175.702C382.074 174.952 383.114 174.471 384.225 174.318C385.336 174.166 386.467 174.35 387.473 174.847C388.48 175.344 389.316 176.131 389.877 177.109L393.137 175.215C392.313 173.774 391.125 172.577 389.695 171.746C388.264 170.914 386.64 170.478 384.988 170.48C384.855 170.48 384.721 170.48 384.589 170.489L384.467 170.496C384.373 170.496 384.279 170.507 384.185 170.515L384.055 170.527C383.955 170.537 383.856 170.548 383.757 170.561L383.663 170.574C383.535 170.592 383.407 170.613 383.281 170.636C383.251 170.636 383.22 170.648 383.187 170.654C383.093 170.673 382.993 170.693 382.897 170.715L382.771 170.745C382.683 170.766 382.596 170.789 382.509 170.812L382.392 170.845C382.278 170.878 382.166 170.912 382.054 170.949L382.027 170.957C381.907 170.997 381.79 171.04 381.672 171.084L381.559 171.129C381.478 171.161 381.397 171.193 381.317 171.228L381.194 171.281C381.111 171.317 381.029 171.356 380.948 171.395L380.85 171.441C380.74 171.496 380.63 171.552 380.523 171.611L380.435 171.66C380.355 171.705 380.276 171.75 380.198 171.796L380.079 171.868L379.872 172L379.759 172.075C379.676 172.131 379.593 172.189 379.511 172.248L379.453 172.289C379.355 172.36 379.261 172.433 379.17 172.507L379.065 172.593L378.877 172.747C378.84 172.778 378.804 172.81 378.767 172.842C378.704 172.896 378.644 172.951 378.586 173.006C378.554 173.036 378.522 173.064 378.492 173.094C378.406 173.177 378.322 173.26 378.24 173.345L378.159 173.432C378.101 173.493 378.043 173.556 377.987 173.621L377.888 173.735C377.838 173.792 377.794 173.85 377.74 173.91C377.709 173.948 377.677 173.986 377.646 174.025C377.59 174.095 377.535 174.167 377.481 174.239L377.417 174.323C377.348 174.417 377.28 174.512 377.214 174.607C377.187 174.646 377.162 174.687 377.135 174.728C377.093 174.792 377.051 174.857 377.01 174.922C376.983 174.967 376.956 175.01 376.929 175.055C376.888 175.122 376.848 175.191 376.81 175.259L376.741 175.38C376.686 175.483 376.631 175.586 376.578 175.69H372.815C373.792 172.887 375.691 170.503 378.198 168.936C380.705 167.368 383.669 166.711 386.599 167.072C389.528 167.434 392.247 168.792 394.304 170.923C396.36 173.053 397.632 175.828 397.906 178.786H388.072C387.798 178.05 387.274 177.436 386.592 177.054C385.911 176.671 385.116 176.545 384.351 176.697C383.585 176.849 382.898 177.27 382.412 177.885C381.926 178.5 381.673 179.268 381.698 180.053C381.722 180.838 382.023 181.589 382.547 182.172C383.07 182.754 383.782 183.131 384.556 183.234C385.329 183.337 386.114 183.161 386.771 182.736C387.427 182.311 387.912 181.665 388.139 180.913H397.939C397.729 183.911 396.495 186.742 394.447 188.929C392.399 191.115 389.663 192.521 386.702 192.909C383.742 193.296 380.74 192.641 378.204 191.055C375.669 189.469 373.756 187.049 372.791 184.206H376.583C376.636 184.311 376.69 184.414 376.747 184.516C376.768 184.556 376.791 184.595 376.814 184.635C376.853 184.704 376.893 184.774 376.934 184.842C376.96 184.886 376.987 184.929 377.014 184.972C377.055 185.039 377.098 185.104 377.141 185.17C377.166 185.21 377.193 185.249 377.219 185.288C377.286 185.383 377.354 185.484 377.424 185.58C377.443 185.605 377.464 185.63 377.483 185.657C377.538 185.729 377.594 185.802 377.652 185.874C377.682 185.913 377.713 185.95 377.746 185.988C377.795 186.048 377.84 186.106 377.896 186.165L377.99 186.277C378.047 186.34 378.104 186.404 378.164 186.466L378.242 186.55C378.325 186.636 378.409 186.719 378.495 186.801L378.589 186.889C378.649 186.945 378.709 187 378.77 187.055L378.881 187.15C378.942 187.202 379.003 187.254 379.069 187.305L379.172 187.389C379.266 187.464 379.36 187.537 379.454 187.609L379.51 187.648C379.593 187.708 379.676 187.765 379.76 187.822L379.872 187.896C379.942 187.942 380.01 187.985 380.081 188.029C380.12 188.052 380.159 188.077 380.199 188.1C380.277 188.147 380.357 188.194 380.437 188.237L380.524 188.286C380.631 188.345 380.741 188.401 380.851 188.456L380.945 188.502C381.027 188.541 381.108 188.579 381.191 188.616L381.313 188.669C381.394 188.704 381.475 188.736 381.556 188.763L381.669 188.808C381.787 188.852 381.904 188.895 382.024 188.935L382.05 188.943C382.162 188.98 382.275 189.014 382.389 189.048L382.507 189.08C382.593 189.103 382.68 189.126 382.767 189.147L382.903 189.181C382.998 189.203 383.096 189.223 383.194 189.242C383.224 189.248 383.253 189.255 383.288 189.26C383.414 189.283 383.542 189.304 383.67 189.322L383.764 189.334C383.858 189.347 383.962 189.359 384.062 189.369L384.191 189.381C384.285 189.388 384.38 189.395 384.474 189.4L384.596 189.406C384.728 189.412 384.861 189.416 384.995 189.416C386.647 189.418 388.27 188.981 389.701 188.15C391.132 187.319 392.32 186.122 393.144 184.681L389.883 182.787C389.323 183.765 388.486 184.552 387.48 185.049C386.473 185.546 385.342 185.73 384.232 185.578C383.121 185.425 382.08 184.943 381.242 184.194C380.405 183.444 379.808 182.46 379.528 181.367H368.122C368.344 183.921 369.14 186.39 370.449 188.589L367.627 191.43C367.428 191.63 367.27 191.867 367.163 192.129C367.055 192.39 367 192.67 367 192.953C367 193.236 367.055 193.516 367.163 193.777C367.27 194.038 367.428 194.275 367.627 194.475L370.502 197.369C370.7 197.569 370.936 197.728 371.196 197.836C371.455 197.944 371.734 198 372.015 198C372.296 198 372.574 197.944 372.833 197.836C373.093 197.728 373.329 197.569 373.527 197.369L376.356 194.522C378.942 196.061 381.888 196.88 384.891 196.897C387.895 196.914 390.849 196.127 393.452 194.617L396.186 197.368C396.384 197.568 396.62 197.727 396.88 197.835C397.139 197.943 397.418 197.999 397.698 197.999C397.979 197.999 398.258 197.943 398.517 197.835C398.777 197.727 399.013 197.568 399.211 197.368L402.086 194.474C402.285 194.275 402.443 194.037 402.55 193.776C402.658 193.515 402.713 193.235 402.713 192.952C402.713 192.669 402.658 192.389 402.55 192.128C402.443 191.866 402.285 191.629 402.086 191.429L399.432 188.752Z" fill="#5C184E"/>
<path d="M269.432 302.752C271.024 300.134 271.884 297.132 271.922 294.063C271.96 290.994 271.175 287.972 269.65 285.314L272.373 282.574C272.572 282.374 272.73 282.136 272.837 281.875C272.945 281.614 273 281.334 273 281.051C273 280.768 272.945 280.488 272.837 280.227C272.73 279.966 272.572 279.728 272.373 279.528L269.497 276.635C269.299 276.435 269.063 276.276 268.803 276.168C268.544 276.059 268.265 276.004 267.985 276.004C267.704 276.004 267.425 276.059 267.166 276.168C266.906 276.276 266.67 276.435 266.472 276.635L263.817 279.304C261.19 277.69 258.177 276.827 255.099 276.806C252.022 276.786 248.997 277.609 246.35 279.187L243.81 276.631C243.611 276.431 243.375 276.272 243.116 276.164C242.856 276.056 242.578 276 242.297 276C242.016 276 241.738 276.056 241.478 276.164C241.218 276.272 240.983 276.431 240.784 276.631L237.913 279.528C237.714 279.728 237.556 279.966 237.449 280.227C237.341 280.488 237.286 280.768 237.286 281.051C237.286 281.334 237.341 281.614 237.449 281.875C237.556 282.136 237.714 282.374 237.913 282.574L240.442 285.12C239.103 287.374 238.303 289.91 238.105 292.529H249.521C249.801 291.436 250.398 290.452 251.236 289.702C252.074 288.952 253.114 288.471 254.225 288.318C255.336 288.166 256.467 288.35 257.473 288.847C258.48 289.344 259.316 290.131 259.877 291.109L263.137 289.215C262.313 287.774 261.125 286.577 259.695 285.746C258.264 284.914 256.64 284.478 254.988 284.48C254.855 284.48 254.721 284.48 254.589 284.489L254.467 284.496C254.373 284.496 254.279 284.507 254.185 284.515L254.055 284.527C253.955 284.537 253.856 284.548 253.757 284.561L253.663 284.574C253.535 284.592 253.407 284.613 253.281 284.636C253.251 284.636 253.22 284.648 253.187 284.654C253.093 284.673 252.993 284.693 252.897 284.715L252.771 284.745C252.683 284.766 252.596 284.789 252.509 284.812L252.392 284.845C252.278 284.878 252.166 284.912 252.054 284.949L252.027 284.957C251.907 284.997 251.79 285.04 251.672 285.084L251.559 285.129C251.478 285.161 251.397 285.193 251.317 285.228L251.194 285.281C251.111 285.317 251.029 285.356 250.948 285.395L250.85 285.441C250.74 285.496 250.63 285.552 250.523 285.611L250.435 285.66C250.355 285.705 250.276 285.75 250.198 285.796L250.079 285.868L249.872 286L249.759 286.075C249.676 286.131 249.593 286.189 249.511 286.248L249.453 286.289C249.355 286.36 249.261 286.433 249.17 286.507L249.065 286.593L248.877 286.747C248.84 286.778 248.804 286.81 248.767 286.842C248.704 286.896 248.644 286.951 248.586 287.006C248.554 287.036 248.522 287.064 248.492 287.094C248.406 287.177 248.322 287.26 248.24 287.345L248.159 287.432C248.101 287.493 248.043 287.556 247.987 287.621L247.888 287.735C247.838 287.792 247.794 287.85 247.74 287.91C247.709 287.948 247.677 287.986 247.646 288.025C247.59 288.095 247.535 288.167 247.481 288.239L247.417 288.323C247.348 288.417 247.28 288.512 247.214 288.607C247.187 288.646 247.162 288.687 247.135 288.728C247.093 288.792 247.051 288.857 247.01 288.922C246.983 288.967 246.956 289.01 246.929 289.055C246.888 289.122 246.848 289.191 246.81 289.259L246.741 289.38C246.686 289.483 246.631 289.586 246.578 289.69H242.815C243.792 286.887 245.691 284.503 248.198 282.936C250.705 281.368 253.669 280.711 256.599 281.072C259.528 281.434 262.247 282.792 264.304 284.923C266.36 287.053 267.632 289.828 267.906 292.786H258.072C257.798 292.05 257.274 291.436 256.592 291.054C255.911 290.671 255.116 290.545 254.351 290.697C253.585 290.849 252.898 291.27 252.412 291.885C251.926 292.5 251.673 293.268 251.698 294.053C251.722 294.838 252.023 295.589 252.547 296.172C253.07 296.754 253.782 297.131 254.556 297.234C255.329 297.337 256.114 297.161 256.771 296.736C257.427 296.311 257.912 295.665 258.139 294.913H267.939C267.729 297.911 266.495 300.742 264.447 302.929C262.399 305.115 259.663 306.521 256.702 306.909C253.742 307.296 250.74 306.641 248.204 305.055C245.669 303.469 243.756 301.049 242.791 298.206H246.583C246.636 298.311 246.69 298.414 246.747 298.516C246.768 298.556 246.791 298.595 246.814 298.635C246.853 298.704 246.893 298.774 246.934 298.842C246.96 298.886 246.987 298.929 247.014 298.972C247.055 299.039 247.098 299.104 247.141 299.17C247.166 299.21 247.193 299.249 247.219 299.288C247.286 299.383 247.354 299.484 247.424 299.58C247.443 299.605 247.464 299.63 247.483 299.657C247.538 299.729 247.594 299.802 247.652 299.874C247.682 299.913 247.713 299.95 247.746 299.988C247.795 300.048 247.84 300.106 247.896 300.165L247.99 300.277C248.047 300.34 248.104 300.404 248.164 300.466L248.242 300.55C248.325 300.636 248.409 300.719 248.495 300.801L248.589 300.889C248.649 300.945 248.709 301 248.77 301.055L248.881 301.15C248.942 301.202 249.003 301.254 249.069 301.305L249.172 301.389C249.266 301.464 249.36 301.537 249.454 301.609L249.51 301.648C249.593 301.708 249.676 301.765 249.76 301.822L249.872 301.896C249.942 301.942 250.01 301.985 250.081 302.029C250.12 302.052 250.159 302.077 250.199 302.1C250.277 302.147 250.357 302.194 250.437 302.237L250.524 302.286C250.631 302.345 250.741 302.401 250.851 302.456L250.945 302.502C251.027 302.541 251.108 302.579 251.191 302.616L251.313 302.669C251.394 302.704 251.475 302.736 251.556 302.763L251.669 302.808C251.787 302.852 251.904 302.895 252.024 302.935L252.05 302.943C252.162 302.98 252.275 303.014 252.389 303.048L252.507 303.08C252.593 303.103 252.68 303.126 252.767 303.147L252.903 303.181C252.998 303.203 253.096 303.223 253.194 303.242C253.224 303.248 253.253 303.255 253.288 303.26C253.414 303.283 253.542 303.304 253.67 303.322L253.764 303.334C253.858 303.347 253.962 303.359 254.062 303.369L254.191 303.381C254.285 303.388 254.38 303.395 254.474 303.4L254.596 303.406C254.728 303.412 254.861 303.416 254.995 303.416C256.647 303.418 258.27 302.981 259.701 302.15C261.132 301.319 262.32 300.122 263.144 298.681L259.883 296.787C259.323 297.765 258.486 298.552 257.48 299.049C256.473 299.546 255.342 299.73 254.232 299.578C253.121 299.425 252.08 298.943 251.242 298.194C250.405 297.444 249.808 296.46 249.528 295.367H238.122C238.344 297.921 239.14 300.39 240.449 302.589L237.627 305.43C237.428 305.63 237.27 305.867 237.163 306.129C237.055 306.39 237 306.67 237 306.953C237 307.236 237.055 307.516 237.163 307.777C237.27 308.038 237.428 308.275 237.627 308.475L240.502 311.369C240.7 311.569 240.936 311.728 241.196 311.836C241.455 311.944 241.734 312 242.015 312C242.296 312 242.574 311.944 242.833 311.836C243.093 311.728 243.329 311.569 243.527 311.369L246.356 308.522C248.942 310.061 251.888 310.88 254.891 310.897C257.895 310.914 260.849 310.127 263.452 308.617L266.186 311.368C266.384 311.568 266.62 311.727 266.88 311.835C267.139 311.943 267.418 311.999 267.698 311.999C267.979 311.999 268.258 311.943 268.517 311.835C268.777 311.727 269.013 311.568 269.211 311.368L272.086 308.474C272.285 308.275 272.443 308.037 272.55 307.776C272.658 307.515 272.713 307.235 272.713 306.952C272.713 306.669 272.658 306.389 272.55 306.128C272.443 305.866 272.285 305.629 272.086 305.429L269.432 302.752Z" fill="#5C184E"/>
<path fill-rule="evenodd" clip-rule="evenodd" d="M95.4434 79.7415C92.2615 73.0491 90.909 65.53 93.4388 58.1886C100.728 37.0359 129.467 49.8194 132.389 62.2642C135.311 74.7089 127.222 102.123 119.156 102.046C115.94 102.015 110.039 98.398 104.57 92.7182L100.902 122.783L76.7257 116.305L95.4434 79.7415Z" fill="#FFA5A5"/>
<path fill-rule="evenodd" clip-rule="evenodd" d="M104.217 80.4676C99.6772 85.419 94.3696 88.6416 90.2272 87.5317C82.359 85.4234 79.5832 73.4048 82.6138 62.0944C82.7203 61.697 82.8339 61.3044 82.9545 60.9168C73.1009 64.3981 63.6697 73.9375 52.6568 70.9866C37.6738 66.9719 39.8211 35.1567 60.7545 40.7658C74.9907 44.5804 81.4373 48.5324 86.6498 53.2189C88.7393 50.1822 91.3102 47.8473 94.0575 46.4718C94.7525 46.0138 95.7251 45.6581 96.924 45.4079C97.6643 45.2277 98.4095 45.119 99.1541 45.0865C103.152 44.7242 108.677 45.1934 114.62 46.5656C115.73 46.8219 116.813 47.1 117.863 47.3965C119.367 41.8522 125.074 38.566 130.627 40.0539C136.191 41.5446 139.492 47.2632 138.002 52.8267C136.56 58.2071 131.164 61.472 125.778 60.3327C122.49 60.4561 118.403 60.0985 113.997 59.2291C113.994 60.9218 113.741 62.7782 113.198 64.8068C112.718 66.598 112.011 68.4447 111.13 70.2761C110.491 68.9088 109.431 67.8445 108.157 67.5031C104.593 66.5482 101.327 68.8151 100.493 71.9277C99.4345 75.8781 100.949 79.347 104.217 80.4676Z" fill="#262424"/>
<path fill-rule="evenodd" clip-rule="evenodd" d="M45.8875 208.498L84.0896 340.14L102.058 438.978H120.093L102.09 208.498H45.8875Z" fill="#FFA5A5"/>
<path fill-rule="evenodd" clip-rule="evenodd" d="M28.7189 208.498C31.3845 276.885 30.3332 314.185 29.7366 320.399C29.14 326.612 25.7531 368.224 2.67358 441.064H21.4314C51.9964 371.187 62.6664 329.574 66.172 320.399C69.6776 311.223 80.0311 273.923 95.1468 208.498H28.7189Z" fill="#FFA5A5"/>
<path fill-rule="evenodd" clip-rule="evenodd" d="M45.0674 208.498C55.0044 253.796 72.1911 326.104 96.6275 425.42H123.005C124.954 323.481 116.666 256.388 102.313 208.498H45.0674Z" fill="#89D4CC"/>
<path fill-rule="evenodd" clip-rule="evenodd" d="M28.5857 208.498C31.1963 276.885 24.4307 344.259 3.47339 426.485H31.6173C62.2385 357.651 84.1857 290.609 99.1852 208.498H28.5857Z" fill="#93E1D8"/>
<path fill-rule="evenodd" clip-rule="evenodd" d="M0 454.621L1.03499 437.935C7.09473 439.707 14.6847 439.012 23.8048 435.849C33.6112 442.795 45.9562 447.539 60.8397 450.079C61.9752 450.272 62.7386 451.35 62.5449 452.485C62.5323 452.559 62.5158 452.632 62.4955 452.704L61.0646 457.75H23.8048H2.06999L0 454.621Z" fill="#F6F6F6"/>
<path fill-rule="evenodd" clip-rule="evenodd" d="M98.0322 454.621L99.0672 437.935C105.127 439.707 112.717 439.012 121.837 435.849C131.643 442.795 143.988 447.539 158.872 450.079C160.007 450.272 160.771 451.35 160.577 452.485C160.565 452.559 160.548 452.632 160.528 452.704L159.097 457.75H121.837H100.102L98.0322 454.621Z" fill="#F6F6F6"/>
<path fill-rule="evenodd" clip-rule="evenodd" d="M120.508 149.87L159.599 136.631C166.769 130.637 173.574 126.2 180.014 123.319C181.902 122.895 185.055 122.993 181.279 127.589C177.504 132.186 173.74 137.19 174.928 139.021C176.115 140.851 180.155 139.299 181.442 142.219C182.3 144.166 175.575 145.817 161.266 147.171L131.181 166.321L120.508 149.87ZM173.436 176.189L190.611 170.347C194.283 162.374 197.651 158.631 200.716 159.117C203.256 158.439 197.305 168.283 201.917 168.151C206.528 168.02 218.814 161.857 220.396 163.827C222.737 166.742 218.954 173.757 215.392 176.95C208.734 182.919 203.816 184.494 192.143 185.634C186.041 186.23 179.178 188.372 171.557 192.06L173.436 176.189Z" fill="#FFA5A5"/>
<path fill-rule="evenodd" clip-rule="evenodd" d="M103.914 142.459C116.423 144.529 133.539 144.828 153.294 136.683L157.528 153.473C143.128 163.474 124.135 170.429 109.143 167.349C97.3279 164.922 93.7919 149.49 103.914 142.459Z" fill="#2F2D2D"/>
<path fill-rule="evenodd" clip-rule="evenodd" d="M116.327 170.377C129 176.021 151.917 176.042 185.077 170.44C189.993 187.817 191.559 199.863 189.772 206.578C160.539 215.841 136.498 218.03 117.524 215.108C116.148 226.43 112.901 236.86 106.596 245.803C93.6333 264.187 41.7032 235.888 22.4978 236.269C17.5304 196.47 42.7099 185.092 46.987 160.942C51.6708 134.494 80.0889 97.5244 83.2138 98.0754L111.711 103.1C109.722 123.579 113.71 147.237 116.327 170.377Z" fill="#262424"/>
</svg>
