<svg width="272" height="239" viewBox="0 0 272 239" fill="none" xmlns="http://www.w3.org/2000/svg">
<circle cx="136" cy="88" r="136" fill="url(#paint0_linear)"/>
<mask id="mask0" mask-type="alpha" maskUnits="userSpaceOnUse" x="0" y="-48" width="272" height="272">
<circle cx="136" cy="88" r="136" fill="url(#paint1_radial)"/>
</mask>
<g mask="url(#mask0)">
<path d="M212.069 63.376H75.0084V170.888H212.069V63.376Z" fill="#262424"/>
<path d="M141.979 78.0685H108.167C108.113 78.0686 108.059 78.0581 108.009 78.0376C107.959 78.017 107.914 77.9868 107.876 77.9487C107.838 77.9106 107.807 77.8653 107.787 77.8155C107.766 77.7656 107.755 77.7122 107.755 77.6583C107.755 77.6043 107.766 77.5509 107.787 77.5011C107.807 77.4512 107.838 77.406 107.876 77.3679C107.914 77.3298 107.959 77.2995 108.009 77.279C108.059 77.2584 108.113 77.2479 108.167 77.248H141.979C142.088 77.2482 142.192 77.2916 142.269 77.3685C142.346 77.4454 142.389 77.5496 142.389 77.6583C142.389 77.7669 142.346 77.8711 142.269 77.9481C142.192 78.025 142.088 78.0683 141.979 78.0685Z" fill="#F6F6F6"/>
<path d="M178.993 82.5814H125.811C125.703 82.5814 125.598 82.5382 125.521 82.4612C125.444 82.3843 125.401 82.28 125.401 82.1711C125.401 82.0623 125.444 81.958 125.521 81.881C125.598 81.8041 125.703 81.7609 125.811 81.7609H178.993C179.046 81.7609 179.1 81.7715 179.15 81.7921C179.199 81.8127 179.245 81.8429 179.283 81.881C179.321 81.9191 179.351 81.9644 179.372 82.0141C179.392 82.0639 179.403 82.1173 179.403 82.1711C179.403 82.225 179.392 82.2784 179.372 82.3281C179.351 82.3779 179.321 82.4231 179.283 82.4612C179.245 82.4993 179.199 82.5296 179.15 82.5502C179.1 82.5708 179.046 82.5814 178.993 82.5814Z" fill="#F6F6F6"/>
<path d="M142.143 87.0943H108.331C108.222 87.0943 108.117 87.0511 108.04 86.9741C107.964 86.8972 107.92 86.7928 107.92 86.684C107.92 86.5752 107.964 86.4709 108.04 86.3939C108.117 86.317 108.222 86.2738 108.331 86.2738H142.143C142.252 86.2738 142.356 86.317 142.433 86.3939C142.51 86.4709 142.554 86.5752 142.554 86.684C142.554 86.7928 142.51 86.8972 142.433 86.9741C142.356 87.0511 142.252 87.0943 142.143 87.0943Z" fill="#F6F6F6"/>
<path d="M178.993 87.1763H145.18C145.071 87.1763 144.967 87.1331 144.89 87.0562C144.813 86.9792 144.77 86.8749 144.77 86.7661C144.77 86.6573 144.813 86.5529 144.89 86.476C144.967 86.399 145.071 86.3558 145.18 86.3558H178.993C179.101 86.3558 179.206 86.399 179.283 86.476C179.36 86.5529 179.403 86.6573 179.403 86.7661C179.403 86.8749 179.36 86.9792 179.283 87.0562C179.206 87.1331 179.101 87.1763 178.993 87.1763Z" fill="#F6F6F6"/>
<path d="M142.225 91.6072H108.413C108.304 91.6072 108.199 91.564 108.123 91.487C108.046 91.4101 108.002 91.3057 108.002 91.1969C108.002 91.0881 108.046 90.9838 108.123 90.9068C108.199 90.8299 108.304 90.7867 108.413 90.7867H142.225C142.334 90.7867 142.439 90.8299 142.515 90.9068C142.592 90.9838 142.636 91.0881 142.636 91.1969C142.636 91.3057 142.592 91.4101 142.515 91.487C142.439 91.564 142.334 91.6072 142.225 91.6072Z" fill="#F6F6F6"/>
<path d="M142.307 96.1201H108.495C108.386 96.1201 108.281 96.0768 108.205 95.9999C108.128 95.923 108.084 95.8186 108.084 95.7098C108.084 95.601 108.128 95.4966 108.205 95.4197C108.281 95.3428 108.386 95.2995 108.495 95.2995H142.307C142.416 95.2995 142.521 95.3428 142.598 95.4197C142.674 95.4966 142.718 95.601 142.718 95.7098C142.718 95.8186 142.674 95.923 142.598 95.9999C142.521 96.0768 142.416 96.1201 142.307 96.1201Z" fill="#F6F6F6"/>
<path d="M157.654 78.1506H147.97C147.861 78.1506 147.757 78.1073 147.68 78.0304C147.603 77.9535 147.56 77.8491 147.56 77.7403C147.56 77.6315 147.603 77.5271 147.68 77.4502C147.757 77.3733 147.861 77.33 147.97 77.33H157.654C157.763 77.33 157.868 77.3733 157.945 77.4502C158.022 77.5271 158.065 77.6315 158.065 77.7403C158.065 77.8491 158.022 77.9535 157.945 78.0304C157.868 78.1073 157.763 78.1506 157.654 78.1506Z" fill="#F6F6F6"/>
<path d="M157.654 91.6072H147.97C147.861 91.6072 147.757 91.564 147.68 91.487C147.603 91.4101 147.56 91.3057 147.56 91.1969C147.56 91.0881 147.603 90.9838 147.68 90.9068C147.757 90.8299 147.861 90.7867 147.97 90.7867H157.654C157.763 90.7867 157.868 90.8299 157.945 90.9068C158.022 90.9838 158.065 91.0881 158.065 91.1969C158.065 91.3057 158.022 91.4101 157.945 91.487C157.868 91.564 157.763 91.6072 157.654 91.6072Z" fill="#F6F6F6"/>
<path d="M157.654 96.038H147.97C147.916 96.0381 147.863 96.0276 147.813 96.007C147.763 95.9865 147.718 95.9563 147.679 95.9181C147.641 95.88 147.611 95.8348 147.59 95.7849C147.569 95.7351 147.559 95.6817 147.559 95.6277C147.559 95.5738 147.569 95.5204 147.59 95.4705C147.611 95.4207 147.641 95.3754 147.679 95.3373C147.718 95.2992 147.763 95.269 147.813 95.2485C147.863 95.2279 147.916 95.2174 147.97 95.2175H157.654C157.708 95.2174 157.762 95.2279 157.812 95.2485C157.861 95.269 157.907 95.2992 157.945 95.3373C157.983 95.3754 158.013 95.4207 158.034 95.4705C158.055 95.5204 158.065 95.5738 158.065 95.6277C158.065 95.6817 158.055 95.7351 158.034 95.7849C158.013 95.8348 157.983 95.88 157.945 95.9181C157.907 95.9563 157.861 95.9865 157.812 96.007C157.762 96.0276 157.708 96.0381 157.654 96.038Z" fill="#F6F6F6"/>
<path d="M173.904 96.038H164.22C164.111 96.0378 164.007 95.9944 163.93 95.9175C163.854 95.8406 163.811 95.7364 163.811 95.6277C163.811 95.5191 163.854 95.4149 163.93 95.338C164.007 95.261 164.111 95.2177 164.22 95.2175H173.904C173.958 95.2174 174.012 95.2279 174.062 95.2485C174.111 95.269 174.157 95.2992 174.195 95.3373C174.233 95.3754 174.263 95.4207 174.284 95.4705C174.305 95.5204 174.315 95.5738 174.315 95.6277C174.315 95.6817 174.305 95.7351 174.284 95.7849C174.263 95.8348 174.233 95.88 174.195 95.9181C174.157 95.9563 174.111 95.9865 174.062 96.007C174.012 96.0276 173.958 96.0381 173.904 96.038Z" fill="#F6F6F6"/>
<path d="M117.769 82.5814H108.084C107.976 82.5814 107.871 82.5382 107.794 82.4612C107.717 82.3843 107.674 82.28 107.674 82.1711C107.674 82.0623 107.717 81.958 107.794 81.881C107.871 81.8041 107.976 81.7609 108.084 81.7609H117.769C117.877 81.7609 117.982 81.8041 118.059 81.881C118.136 81.958 118.179 82.0623 118.179 82.1711C118.179 82.28 118.136 82.3843 118.059 82.4612C117.982 82.5382 117.877 82.5814 117.769 82.5814Z" fill="#F6F6F6"/>
<path d="M142.02 144.531H108.207C108.099 144.531 107.994 144.488 107.917 144.411C107.84 144.334 107.797 144.23 107.797 144.121C107.797 144.012 107.84 143.908 107.917 143.831C107.994 143.754 108.099 143.71 108.207 143.71H142.02C142.129 143.71 142.233 143.754 142.31 143.831C142.387 143.908 142.43 144.012 142.43 144.121C142.43 144.23 142.387 144.334 142.31 144.411C142.233 144.488 142.129 144.531 142.02 144.531Z" fill="#F6F6F6"/>
<path d="M141.856 153.557H108.043C107.935 153.557 107.83 153.513 107.753 153.437C107.676 153.36 107.633 153.255 107.633 153.146C107.633 153.038 107.676 152.933 107.753 152.856C107.83 152.779 107.935 152.736 108.043 152.736H141.856C141.965 152.736 142.069 152.779 142.146 152.856C142.223 152.933 142.266 153.038 142.266 153.146C142.266 153.255 142.223 153.36 142.146 153.437C142.069 153.513 141.965 153.557 141.856 153.557Z" fill="#F6F6F6"/>
<path d="M141.938 158.07H108.125C108.071 158.07 108.018 158.059 107.968 158.039C107.918 158.018 107.873 157.988 107.835 157.95C107.797 157.912 107.766 157.866 107.746 157.817C107.725 157.767 107.714 157.713 107.714 157.659C107.714 157.605 107.725 157.552 107.746 157.502C107.766 157.452 107.797 157.407 107.835 157.369C107.873 157.331 107.918 157.301 107.968 157.28C108.018 157.26 108.071 157.249 108.125 157.249H141.938C141.992 157.249 142.046 157.26 142.095 157.28C142.145 157.301 142.191 157.331 142.229 157.369C142.267 157.407 142.297 157.452 142.318 157.502C142.339 157.552 142.349 157.605 142.349 157.659C142.349 157.713 142.339 157.767 142.318 157.817C142.297 157.866 142.267 157.912 142.229 157.95C142.191 157.988 142.145 158.018 142.095 158.039C142.046 158.059 141.992 158.07 141.938 158.07Z" fill="#F6F6F6"/>
<path d="M156.382 153.639H146.698C146.589 153.639 146.485 153.596 146.408 153.519C146.331 153.442 146.288 153.337 146.288 153.229C146.288 153.12 146.331 153.015 146.408 152.938C146.485 152.861 146.589 152.818 146.698 152.818H156.382C156.491 152.818 156.595 152.861 156.672 152.938C156.749 153.015 156.793 153.12 156.793 153.229C156.793 153.337 156.749 153.442 156.672 153.519C156.595 153.596 156.491 153.639 156.382 153.639Z" fill="#F6F6F6"/>
<path d="M156.382 158.07H146.698C146.589 158.07 146.485 158.026 146.408 157.949C146.331 157.873 146.288 157.768 146.288 157.659C146.288 157.551 146.331 157.446 146.408 157.369C146.485 157.292 146.589 157.249 146.698 157.249H156.382C156.491 157.249 156.595 157.292 156.672 157.369C156.749 157.446 156.793 157.551 156.793 157.659C156.793 157.768 156.749 157.873 156.672 157.949C156.595 158.026 156.491 158.07 156.382 158.07Z" fill="#F6F6F6"/>
<path d="M172.632 153.639H162.948C162.839 153.639 162.735 153.596 162.658 153.519C162.581 153.442 162.537 153.337 162.537 153.229C162.537 153.12 162.581 153.015 162.658 152.938C162.735 152.861 162.839 152.818 162.948 152.818H172.632C172.741 152.818 172.845 152.861 172.922 152.938C172.999 153.015 173.042 153.12 173.042 153.229C173.042 153.337 172.999 153.442 172.922 153.519C172.845 153.596 172.741 153.639 172.632 153.639Z" fill="#F6F6F6"/>
<path d="M179.034 149.044H125.852C125.744 149.044 125.639 149.001 125.562 148.924C125.485 148.847 125.442 148.742 125.442 148.634C125.442 148.525 125.485 148.42 125.562 148.344C125.639 148.267 125.744 148.223 125.852 148.223H179.034C179.142 148.223 179.247 148.267 179.324 148.344C179.401 148.42 179.444 148.525 179.444 148.634C179.444 148.742 179.401 148.847 179.324 148.924C179.247 149.001 179.142 149.044 179.034 149.044Z" fill="#F6F6F6"/>
<path d="M117.81 149.044H108.125C108.017 149.044 107.912 149.001 107.835 148.924C107.758 148.847 107.715 148.742 107.715 148.634C107.715 148.525 107.758 148.42 107.835 148.344C107.912 148.267 108.017 148.223 108.125 148.223H117.81C117.918 148.223 118.023 148.267 118.1 148.344C118.177 148.42 118.22 148.525 118.22 148.634C118.22 148.742 118.177 148.847 118.1 148.924C118.023 149.001 117.918 149.044 117.81 149.044Z" fill="#F6F6F6"/>
<path d="M179.034 162.665H125.852C125.799 162.665 125.745 162.654 125.695 162.634C125.645 162.613 125.6 162.583 125.562 162.545C125.524 162.507 125.493 162.461 125.473 162.411C125.452 162.362 125.441 162.308 125.441 162.254C125.441 162.2 125.452 162.147 125.473 162.097C125.493 162.047 125.524 162.002 125.562 161.964C125.6 161.926 125.645 161.896 125.695 161.875C125.745 161.854 125.799 161.844 125.852 161.844H179.034C179.142 161.844 179.247 161.887 179.324 161.964C179.401 162.041 179.444 162.145 179.444 162.254C179.444 162.363 179.401 162.467 179.324 162.544C179.247 162.621 179.142 162.665 179.034 162.665Z" fill="#F6F6F6"/>
<path d="M117.81 162.665H108.125C108.071 162.665 108.018 162.654 107.968 162.634C107.918 162.613 107.873 162.583 107.835 162.545C107.797 162.507 107.766 162.461 107.746 162.411C107.725 162.362 107.714 162.308 107.714 162.254C107.714 162.2 107.725 162.147 107.746 162.097C107.766 162.047 107.797 162.002 107.835 161.964C107.873 161.926 107.918 161.896 107.968 161.875C108.018 161.854 108.071 161.844 108.125 161.844H117.81C117.864 161.844 117.917 161.854 117.967 161.875C118.017 161.896 118.062 161.926 118.1 161.964C118.139 162.002 118.169 162.047 118.19 162.097C118.21 162.147 118.221 162.2 118.221 162.254C118.221 162.308 118.21 162.362 118.19 162.411C118.169 162.461 118.139 162.507 118.1 162.545C118.062 162.583 118.017 162.613 117.967 162.634C117.917 162.654 117.864 162.665 117.81 162.665Z" fill="#F6F6F6"/>
<path d="M133.854 106.951L120.723 119.915L133.854 132.88L136.809 129.926L126.878 119.997L136.891 109.987L133.854 106.951Z" fill="#BA1C51"/>
<path d="M153.223 106.951L166.354 119.915L153.223 132.88L150.268 129.926L160.199 119.997L150.186 109.987L153.223 106.951Z" fill="#BA1C51"/>
<path d="M78.6535 67.7494C79.5595 67.7494 80.2939 67.0151 80.2939 66.1094C80.2939 65.2036 79.5595 64.4694 78.6535 64.4694C77.7476 64.4694 77.0132 65.2036 77.0132 66.1094C77.0132 67.0151 77.7476 67.7494 78.6535 67.7494Z" fill="#BA1C51"/>
<path d="M83.0278 67.7494C83.9337 67.7494 84.6681 67.0151 84.6681 66.1094C84.6681 65.2036 83.9337 64.4694 83.0278 64.4694C82.1219 64.4694 81.3875 65.2036 81.3875 66.1094C81.3875 67.0151 82.1219 67.7494 83.0278 67.7494Z" fill="#BA1C51"/>
<path d="M87.4021 67.7494C88.308 67.7494 89.0424 67.0151 89.0424 66.1094C89.0424 65.2036 88.308 64.4694 87.4021 64.4694C86.4961 64.4694 85.7617 65.2036 85.7617 66.1094C85.7617 67.0151 86.4961 67.7494 87.4021 67.7494Z" fill="#BA1C51"/>
<path opacity="0.1" d="M212.069 68.8427H75.0084V69.3894H212.069V68.8427Z" fill="#262424"/>
</g>
<path fill-rule="evenodd" clip-rule="evenodd" d="M39.3983 145.582L53.1328 193.78L63.0752 231.008L70.4624 229.304L59.8138 145.582H39.3983Z" fill="#ABA7A7"/>
<path fill-rule="evenodd" clip-rule="evenodd" d="M35.7253 145.582C35.4077 170.424 34.3244 183.973 33.9908 186.23C33.6573 188.487 28.6139 202.845 18.8606 229.304H26.432C38.8487 203.921 45.78 189.563 47.2259 186.23C48.6719 182.897 53.1342 169.348 59.8552 145.582H35.7253Z" fill="#797979"/>
<path fill-rule="evenodd" clip-rule="evenodd" d="M17.8258 225.525C17.294 226.189 17.0174 226.724 16.9961 227.132C16.9702 227.627 17.0638 228.393 17.2768 229.428C17.9199 229.635 24.2707 232.499 32.447 234.877L42.9743 236.833C43.6845 235.707 42.114 234.544 40.7392 233.994C39.3645 233.443 37.837 233.283 36.9285 232.903L26.2174 226.555C26.0001 226.422 25.7384 226.401 25.6329 226.508C25.6311 226.51 25.6294 226.512 25.6277 226.514L24.8325 227.4C23.5351 227.363 22.487 227.217 21.6881 226.959C21.039 226.751 20.1513 226.297 19.0248 225.599C18.5925 225.332 18.0673 225.286 17.8517 225.497C17.8424 225.506 17.8338 225.516 17.8258 225.525Z" fill="#E4E4E4"/>
<path fill-rule="evenodd" clip-rule="evenodd" d="M62.1049 229.687C61.6153 230.994 61.3705 231.972 61.3705 232.621C61.3705 233.41 61.5019 234.561 61.7649 236.075C62.6803 236.075 70.9078 236.075 86.4471 236.075C87.0885 233.955 86.7183 232.81 85.3363 232.641C83.9544 232.472 82.8064 232.319 81.8924 232.183L70.4203 227.069C70.1996 226.97 69.9409 227.069 69.8425 227.29C69.8408 227.294 69.8391 227.298 69.8376 227.302L69.1002 229.09C67.8209 229.687 66.7813 229.986 65.9815 229.986C65.3316 229.986 64.4342 229.723 63.2892 229.198L63.2892 229.198C62.8498 228.997 62.3303 229.19 62.1289 229.629C62.1202 229.648 62.1122 229.667 62.1049 229.687Z" fill="#E4E4E4"/>
<path fill-rule="evenodd" clip-rule="evenodd" d="M47.0743 104.475C45.3287 102.426 44.1473 99.9153 44.3447 97.1016C44.9135 88.9944 56.1989 90.7779 58.3942 94.8697C60.5894 98.9615 60.3286 109.341 57.4914 110.072C56.36 110.364 53.9496 109.649 51.4965 108.171L53.0363 119.064H43.9443L47.0743 104.475Z" fill="#FFA5A5"/>
<path fill-rule="evenodd" clip-rule="evenodd" d="M49.9032 100.072C49.6059 99.8678 49.2507 99.7437 48.8691 99.7437C47.823 99.7437 46.9749 100.677 46.9749 101.638C46.9749 102.638 47.4472 103.411 48.1216 103.739C47.7614 104.443 47.3992 104.955 46.9749 105.047C45.3377 104.882 43.1866 100.812 43.1866 97.4708C43.1866 93.8133 46.0968 90.6518 51.5209 90.6518C56.3961 90.6518 58.2446 92.662 58.3398 94.4401C56.2507 95.0143 52.6003 95.2354 47.3538 95.1978V95.5766L51.8997 95.9554L52.6574 98.2284C51.452 98.1384 50.5906 98.9652 49.9032 100.072Z" fill="#262424"/>
<path fill-rule="evenodd" clip-rule="evenodd" d="M75.0084 140.133L88.7351 134.105C91.1397 131.709 93.4617 129.888 95.7011 128.642C96.3707 128.428 97.5147 128.364 96.2942 130.147C95.0736 131.93 93.8699 133.86 94.3576 134.484C94.8453 135.109 96.2581 134.42 96.8162 135.436C97.1883 136.113 94.8069 136.923 89.6719 137.866L79.3914 145.749L75.0084 140.133ZM19.5129 141.794L27.2758 143.334C19.4689 157.883 15.2822 165.594 14.7157 166.467C13.4411 168.431 14.6303 172.031 15.0696 173.927C12.3137 174.568 13.4005 170.42 9.91294 171.286C6.72961 172.077 4.03054 174.105 1.06222 171.369C0.697287 171.033 0.430135 169.982 1.67439 169.442C4.77429 168.099 9.35412 165.583 10.0967 164.606C11.1094 163.274 14.2482 155.67 19.5129 141.794Z" fill="#FFA5A5"/>
<path fill-rule="evenodd" clip-rule="evenodd" d="M48.3747 112.75L51.6505 112.188C58.7855 119.109 61.6971 135.737 66.4521 137.938C70.9477 140.019 77.3206 138.006 84.8957 135.287L87.2156 140.47C80.3328 147.916 65.6699 154.207 59.7264 150.616C50.2239 144.874 48.0302 124.365 48.3747 112.75Z" fill="#07106D"/>
<path fill-rule="evenodd" clip-rule="evenodd" d="M34.0947 153.916C47.2294 153.916 56.891 153.916 63.0796 153.916C64.404 153.916 64.1545 152.004 63.963 151.039C61.7533 139.901 53.1276 127.895 53.1276 112.041L44.7671 110.73C37.8518 121.852 35.4603 135.545 34.0947 153.916Z" fill="#F6F6F6"/>
<path fill-rule="evenodd" clip-rule="evenodd" d="M31.2037 142.64C25.295 153.298 20.3284 160.972 16.3039 165.66L10.2284 164.47C14.1419 140.199 25.475 122.286 44.2277 110.73H44.3231L47.538 110.73C55.0436 136.315 57.1127 153.362 53.7455 161.872H27.6546C28.0674 155.645 29.3909 149.06 31.2037 142.64H31.2037Z" fill="#07106D"/>
<defs>
<linearGradient id="paint0_linear" x1="185.816" y1="41.0251" x2="66.1058" y2="224" gradientUnits="userSpaceOnUse">
<stop stop-color="#EE4266"/>
<stop offset="1" stop-color="#EE4266" stop-opacity="0"/>
</linearGradient>
<radialGradient id="paint1_radial" cx="0" cy="0" r="1" gradientUnits="userSpaceOnUse" gradientTransform="translate(211.198 32.1226) rotate(134.506) scale(248.596 148.409)">
<stop offset="0.765625" stop-color="#EE4266"/>
<stop offset="1" stop-color="#EE4266" stop-opacity="0"/>
</radialGradient>
</defs>
</svg>
