<svg width="112" height="24" viewBox="0 0 112 24" fill="none" xmlns="http://www.w3.org/2000/svg">
<path d="M31.59 10.12C31.1167 10.12 30.69 10.0467 30.31 9.90001C29.93 9.74668 29.6067 9.52334 29.34 9.23001C29.0733 8.93001 28.8667 8.56001 28.72 8.12001C28.5733 7.67334 28.5 7.15334 28.5 6.56001C28.5 5.97334 28.5733 5.45334 28.72 5.00001C28.8667 4.54001 29.0733 4.15668 29.34 3.85001C29.6067 3.53668 29.93 3.30001 30.31 3.14001C30.69 2.98001 31.1167 2.90001 31.59 2.90001C32.2367 2.90001 32.77 3.03334 33.19 3.30001C33.61 3.56001 33.9467 3.97334 34.2 4.54001L32.89 5.22001C32.7967 4.92668 32.65 4.69334 32.45 4.52001C32.2567 4.34001 31.97 4.25001 31.59 4.25001C31.1433 4.25001 30.7833 4.39668 30.51 4.69001C30.2433 4.97668 30.11 5.39668 30.11 5.95001V7.07001C30.11 7.62334 30.2433 8.04668 30.51 8.34001C30.7833 8.62668 31.1433 8.77001 31.59 8.77001C31.9633 8.77001 32.26 8.67001 32.48 8.47001C32.7067 8.26334 32.8733 8.01668 32.98 7.73001L34.22 8.45001C33.96 8.98334 33.6167 9.39668 33.19 9.69001C32.77 9.97668 32.2367 10.12 31.59 10.12Z" fill="white"/>
<path d="M37.3337 10.12C36.947 10.12 36.6003 10.0567 36.2937 9.93001C35.9937 9.80334 35.737 9.62001 35.5237 9.38001C35.317 9.14001 35.157 8.85001 35.0437 8.51001C34.9303 8.17001 34.8737 7.79001 34.8737 7.37001C34.8737 6.95001 34.9303 6.57001 35.0437 6.23001C35.157 5.89001 35.317 5.60334 35.5237 5.37001C35.737 5.13001 35.9937 4.94668 36.2937 4.82001C36.6003 4.69334 36.947 4.63001 37.3337 4.63001C37.7203 4.63001 38.0637 4.69334 38.3637 4.82001C38.6703 4.94668 38.927 5.13001 39.1337 5.37001C39.347 5.60334 39.5103 5.89001 39.6237 6.23001C39.737 6.57001 39.7937 6.95001 39.7937 7.37001C39.7937 7.79001 39.737 8.17001 39.6237 8.51001C39.5103 8.85001 39.347 9.14001 39.1337 9.38001C38.927 9.62001 38.6703 9.80334 38.3637 9.93001C38.0637 10.0567 37.7203 10.12 37.3337 10.12ZM37.3337 8.95001C37.627 8.95001 37.8537 8.86001 38.0137 8.68001C38.1737 8.50001 38.2537 8.24334 38.2537 7.91001V6.84001C38.2537 6.50668 38.1737 6.25001 38.0137 6.07001C37.8537 5.89001 37.627 5.80001 37.3337 5.80001C37.0403 5.80001 36.8137 5.89001 36.6537 6.07001C36.4937 6.25001 36.4137 6.50668 36.4137 6.84001V7.91001C36.4137 8.24334 36.4937 8.50001 36.6537 8.68001C36.8137 8.86001 37.0403 8.95001 37.3337 8.95001Z" fill="white"/>
<path d="M40.8482 10V4.75001H42.3282V5.64001H42.3882C42.4815 5.36001 42.6415 5.12334 42.8682 4.93001C43.0949 4.73001 43.4049 4.63001 43.7982 4.63001C44.1582 4.63001 44.4649 4.72001 44.7182 4.90001C44.9715 5.08001 45.1549 5.34334 45.2682 5.69001H45.2982C45.3449 5.54334 45.4149 5.40668 45.5082 5.28001C45.6082 5.14668 45.7282 5.03334 45.8682 4.94001C46.0082 4.84668 46.1649 4.77334 46.3382 4.72001C46.5115 4.66001 46.6982 4.63001 46.8982 4.63001C47.4049 4.63001 47.7915 4.81001 48.0582 5.17001C48.3315 5.53001 48.4682 6.04334 48.4682 6.71001V10H46.9882V6.83001C46.9882 6.16334 46.7482 5.83001 46.2682 5.83001C46.0482 5.83001 45.8482 5.89334 45.6682 6.02001C45.4882 6.14668 45.3982 6.34001 45.3982 6.60001V10H43.9182V6.83001C43.9182 6.16334 43.6782 5.83001 43.1982 5.83001C43.0915 5.83001 42.9849 5.84668 42.8782 5.88001C42.7782 5.90668 42.6849 5.95334 42.5982 6.02001C42.5182 6.08668 42.4515 6.17001 42.3982 6.27001C42.3515 6.36334 42.3282 6.47334 42.3282 6.60001V10H40.8482Z" fill="white"/>
<path d="M49.7838 4.75001H51.2638V5.63001H51.3137C51.3871 5.33668 51.5537 5.09668 51.8137 4.91001C52.0804 4.72334 52.3837 4.63001 52.7237 4.63001C53.3904 4.63001 53.8937 4.86334 54.2337 5.33001C54.5737 5.79668 54.7437 6.47668 54.7437 7.37001C54.7437 8.26334 54.5737 8.94668 54.2337 9.42001C53.8937 9.88668 53.3904 10.12 52.7237 10.12C52.5504 10.12 52.3871 10.0933 52.2337 10.04C52.0804 9.99334 51.9404 9.92668 51.8137 9.84001C51.6937 9.74668 51.5904 9.64001 51.5037 9.52001C51.4171 9.39334 51.3537 9.26001 51.3137 9.12001H51.2638V12H49.7838V4.75001ZM52.2337 8.92001C52.5137 8.92001 52.7437 8.82334 52.9237 8.63001C53.1104 8.43001 53.2038 8.16334 53.2038 7.83001V6.92001C53.2038 6.58668 53.1104 6.32334 52.9237 6.13001C52.7437 5.93001 52.5137 5.83001 52.2337 5.83001C51.9537 5.83001 51.7204 5.90001 51.5338 6.04001C51.3538 6.17334 51.2638 6.36001 51.2638 6.60001V8.15001C51.2638 8.39001 51.3538 8.58001 51.5338 8.72001C51.7204 8.85334 51.9537 8.92001 52.2337 8.92001Z" fill="white"/>
<path d="M58.9677 9.12001H58.9177C58.8711 9.25334 58.8077 9.38001 58.7277 9.50001C58.6544 9.62001 58.5577 9.72668 58.4377 9.82001C58.3177 9.91334 58.1744 9.98668 58.0077 10.04C57.8477 10.0933 57.6611 10.12 57.4477 10.12C56.9077 10.12 56.4977 9.94334 56.2177 9.59001C55.9444 9.23001 55.8077 8.71668 55.8077 8.05001V4.75001H57.2877V7.92001C57.2877 8.24001 57.3444 8.48668 57.4577 8.66001C57.5711 8.83334 57.7644 8.92001 58.0377 8.92001C58.1511 8.92001 58.2644 8.90334 58.3777 8.87001C58.4911 8.83668 58.5911 8.79001 58.6777 8.73001C58.7644 8.66334 58.8344 8.58334 58.8877 8.49001C58.9411 8.39668 58.9677 8.28668 58.9677 8.16001V4.75001H60.4477V10H58.9677V9.12001Z" fill="white"/>
<path d="M63.6648 10C63.1514 10 62.7614 9.87001 62.4948 9.61001C62.2348 9.35001 62.1048 8.97001 62.1048 8.47001V5.90001H61.3648V4.75001H61.7348C61.9348 4.75001 62.0714 4.70334 62.1448 4.61001C62.2181 4.51001 62.2548 4.37001 62.2548 4.19001V3.33001H63.5848V4.75001H64.6248V5.90001H63.5848V8.85001H64.5448V10H63.6648Z" fill="white"/>
<path d="M67.8038 10.12C67.4038 10.12 67.0472 10.0567 66.7338 9.93001C66.4205 9.79668 66.1538 9.61334 65.9338 9.38001C65.7205 9.14001 65.5572 8.85001 65.4438 8.51001C65.3372 8.17001 65.2838 7.79001 65.2838 7.37001C65.2838 6.95668 65.3372 6.58334 65.4438 6.25001C65.5505 5.91001 65.7072 5.62001 65.9138 5.38001C66.1272 5.14001 66.3872 4.95668 66.6938 4.83001C67.0005 4.69668 67.3505 4.63001 67.7438 4.63001C68.1772 4.63001 68.5472 4.70334 68.8538 4.85001C69.1672 4.99668 69.4205 5.19334 69.6138 5.44001C69.8138 5.68668 69.9572 5.97334 70.0438 6.30001C70.1372 6.62001 70.1838 6.95668 70.1838 7.31001V7.75001H66.8138V7.83001C66.8138 8.17668 66.9072 8.45334 67.0938 8.66001C67.2805 8.86001 67.5738 8.96001 67.9738 8.96001C68.2805 8.96001 68.5305 8.90001 68.7238 8.78001C68.9172 8.65334 69.0972 8.50334 69.2638 8.33001L70.0038 9.25001C69.7705 9.52334 69.4638 9.73668 69.0838 9.89001C68.7105 10.0433 68.2838 10.12 67.8038 10.12ZM67.7738 5.72001C67.4738 5.72001 67.2372 5.82001 67.0638 6.02001C66.8972 6.21334 66.8138 6.47334 66.8138 6.80001V6.88001H68.6538V6.79001C68.6538 6.47001 68.5805 6.21334 68.4338 6.02001C68.2938 5.82001 68.0738 5.72001 67.7738 5.72001Z" fill="white"/>
<path d="M71.2291 10V4.75001H72.7091V5.89001H72.7591C72.7857 5.74334 72.8324 5.60334 72.8991 5.47001C72.9657 5.33001 73.0524 5.20668 73.1591 5.10001C73.2724 4.99334 73.4057 4.91001 73.5591 4.85001C73.7124 4.78334 73.8924 4.75001 74.0991 4.75001H74.3591V6.13001H73.9891C73.5557 6.13001 73.2324 6.18668 73.0191 6.30001C72.8124 6.41334 72.7091 6.62334 72.7091 6.93001V10H71.2291Z" fill="white"/>
<path d="M79.9753 10.12C79.362 10.12 78.842 10.0167 78.4153 9.81001C77.9886 9.59668 77.6253 9.32334 77.3253 8.99001L78.3253 7.98001C78.7986 8.51334 79.382 8.78001 80.0753 8.78001C80.4486 8.78001 80.7253 8.70334 80.9053 8.55001C81.0853 8.39668 81.1753 8.19334 81.1753 7.94001C81.1753 7.74668 81.122 7.58668 81.0153 7.46001C80.9086 7.32668 80.692 7.23668 80.3653 7.19001L79.6753 7.10001C78.9353 7.00668 78.392 6.78334 78.0453 6.43001C77.7053 6.07668 77.5353 5.60668 77.5353 5.02001C77.5353 4.70668 77.5953 4.42001 77.7153 4.16001C77.8353 3.90001 78.0053 3.67668 78.2253 3.49001C78.452 3.30334 78.7253 3.16001 79.0453 3.06001C79.372 2.95334 79.742 2.90001 80.1553 2.90001C80.682 2.90001 81.1453 2.98334 81.5453 3.15001C81.9453 3.31668 82.2886 3.56001 82.5753 3.88001L81.5653 4.90001C81.3986 4.70668 81.1953 4.55001 80.9553 4.43001C80.722 4.30334 80.4253 4.24001 80.0653 4.24001C79.7253 4.24001 79.472 4.30001 79.3053 4.42001C79.1386 4.54001 79.0553 4.70668 79.0553 4.92001C79.0553 5.16001 79.1186 5.33334 79.2453 5.44001C79.3786 5.54668 79.592 5.62334 79.8853 5.67001L80.5753 5.78001C81.2953 5.89334 81.8286 6.11668 82.1753 6.45001C82.522 6.77668 82.6953 7.24334 82.6953 7.85001C82.6953 8.18334 82.6353 8.49001 82.5153 8.77001C82.3953 9.05001 82.2186 9.29001 81.9853 9.49001C81.7586 9.69001 81.4753 9.84668 81.1353 9.96001C80.7953 10.0667 80.4086 10.12 79.9753 10.12Z" fill="white"/>
<path d="M86.0055 10.12C85.6189 10.12 85.2722 10.0567 84.9655 9.93001C84.6655 9.80334 84.4089 9.62001 84.1955 9.38001C83.9889 9.14001 83.8289 8.85001 83.7155 8.51001C83.6022 8.17001 83.5455 7.79001 83.5455 7.37001C83.5455 6.95001 83.6022 6.57001 83.7155 6.23001C83.8289 5.89001 83.9889 5.60334 84.1955 5.37001C84.4089 5.13001 84.6655 4.94668 84.9655 4.82001C85.2722 4.69334 85.6189 4.63001 86.0055 4.63001C86.3922 4.63001 86.7355 4.69334 87.0355 4.82001C87.3422 4.94668 87.5989 5.13001 87.8055 5.37001C88.0189 5.60334 88.1822 5.89001 88.2955 6.23001C88.4089 6.57001 88.4655 6.95001 88.4655 7.37001C88.4655 7.79001 88.4089 8.17001 88.2955 8.51001C88.1822 8.85001 88.0189 9.14001 87.8055 9.38001C87.5989 9.62001 87.3422 9.80334 87.0355 9.93001C86.7355 10.0567 86.3922 10.12 86.0055 10.12ZM86.0055 8.95001C86.2989 8.95001 86.5255 8.86001 86.6855 8.68001C86.8455 8.50001 86.9255 8.24334 86.9255 7.91001V6.84001C86.9255 6.50668 86.8455 6.25001 86.6855 6.07001C86.5255 5.89001 86.2989 5.80001 86.0055 5.80001C85.7122 5.80001 85.4855 5.89001 85.3255 6.07001C85.1655 6.25001 85.0855 6.50668 85.0855 6.84001V7.91001C85.0855 8.24334 85.1655 8.50001 85.3255 8.68001C85.4855 8.86001 85.7122 8.95001 86.0055 8.95001Z" fill="white"/>
<path d="M91.6401 10.12C91.2467 10.12 90.8967 10.0567 90.5901 9.93001C90.2834 9.79668 90.0267 9.61334 89.8201 9.38001C89.6134 9.14001 89.4567 8.85001 89.3501 8.51001C89.2434 8.17001 89.1901 7.79001 89.1901 7.37001C89.1901 6.95001 89.2434 6.57334 89.3501 6.24001C89.4567 5.90001 89.6134 5.61001 89.8201 5.37001C90.0267 5.13001 90.2834 4.94668 90.5901 4.82001C90.8967 4.69334 91.2467 4.63001 91.6401 4.63001C92.1734 4.63001 92.6167 4.75001 92.9701 4.99001C93.3301 5.23001 93.5867 5.56668 93.7401 6.00001L92.5401 6.52001C92.4934 6.32001 92.3967 6.15001 92.2501 6.01001C92.1034 5.87001 91.9001 5.80001 91.6401 5.80001C91.3401 5.80001 91.1134 5.90001 90.9601 6.10001C90.8067 6.29334 90.7301 6.55668 90.7301 6.89001V7.87001C90.7301 8.20334 90.8067 8.46668 90.9601 8.66001C91.1134 8.85334 91.3401 8.95001 91.6401 8.95001C91.9067 8.95001 92.1167 8.88001 92.2701 8.74001C92.4301 8.59334 92.5467 8.40334 92.6201 8.17001L93.7701 8.67001C93.5967 9.17001 93.3267 9.53668 92.9601 9.77001C92.6001 10.0033 92.1601 10.12 91.6401 10.12Z" fill="white"/>
<path d="M95.4261 4.19001C95.1261 4.19001 94.9061 4.12334 94.7661 3.99001C94.6328 3.85001 94.5661 3.67334 94.5661 3.46001V3.24001C94.5661 3.02668 94.6328 2.85334 94.7661 2.72001C94.9061 2.58001 95.1261 2.51001 95.4261 2.51001C95.7261 2.51001 95.9428 2.58001 96.0761 2.72001C96.2161 2.85334 96.2861 3.02668 96.2861 3.24001V3.46001C96.2861 3.67334 96.2161 3.85001 96.0761 3.99001C95.9428 4.12334 95.7261 4.19001 95.4261 4.19001ZM94.6861 4.75001H96.1661V10H94.6861V4.75001Z" fill="white"/>
<path d="M99.7374 10.12C99.3374 10.12 98.9808 10.0567 98.6674 9.93001C98.3541 9.79668 98.0874 9.61334 97.8674 9.38001C97.6541 9.14001 97.4908 8.85001 97.3774 8.51001C97.2708 8.17001 97.2174 7.79001 97.2174 7.37001C97.2174 6.95668 97.2708 6.58334 97.3774 6.25001C97.4841 5.91001 97.6408 5.62001 97.8474 5.38001C98.0608 5.14001 98.3208 4.95668 98.6274 4.83001C98.9341 4.69668 99.2841 4.63001 99.6774 4.63001C100.111 4.63001 100.481 4.70334 100.787 4.85001C101.101 4.99668 101.354 5.19334 101.547 5.44001C101.747 5.68668 101.891 5.97334 101.977 6.30001C102.071 6.62001 102.117 6.95668 102.117 7.31001V7.75001H98.7474V7.83001C98.7474 8.17668 98.8408 8.45334 99.0274 8.66001C99.2141 8.86001 99.5074 8.96001 99.9074 8.96001C100.214 8.96001 100.464 8.90001 100.657 8.78001C100.851 8.65334 101.031 8.50334 101.197 8.33001L101.937 9.25001C101.704 9.52334 101.397 9.73668 101.017 9.89001C100.644 10.0433 100.217 10.12 99.7374 10.12ZM99.7074 5.72001C99.4074 5.72001 99.1708 5.82001 98.9974 6.02001C98.8308 6.21334 98.7474 6.47334 98.7474 6.80001V6.88001H100.587V6.79001C100.587 6.47001 100.514 6.21334 100.367 6.02001C100.227 5.82001 100.007 5.72001 99.7074 5.72001Z" fill="white"/>
<path d="M105.003 10C104.489 10 104.099 9.87001 103.833 9.61001C103.573 9.35001 103.443 8.97001 103.443 8.47001V5.90001H102.703V4.75001H103.073C103.273 4.75001 103.409 4.70334 103.483 4.61001C103.556 4.51001 103.593 4.37001 103.593 4.19001V3.33001H104.923V4.75001H105.963V5.90001H104.923V8.85001H105.883V10H105.003Z" fill="white"/>
<path d="M110.201 4.75001H111.581L109.561 10.81C109.427 11.2167 109.237 11.5167 108.991 11.71C108.751 11.9033 108.404 12 107.951 12H107.031V10.85H108.021L108.201 10.27L106.361 4.75001H107.831L108.601 7.20001L108.981 8.72001H109.041L109.431 7.20001L110.201 4.75001Z" fill="white"/>
<path d="M30.82 23.12C30.4333 23.12 30.0867 23.0567 29.78 22.93C29.48 22.8033 29.2233 22.62 29.01 22.38C28.8033 22.14 28.6433 21.85 28.53 21.51C28.4167 21.17 28.36 20.79 28.36 20.37C28.36 19.95 28.4167 19.57 28.53 19.23C28.6433 18.89 28.8033 18.6033 29.01 18.37C29.2233 18.13 29.48 17.9467 29.78 17.82C30.0867 17.6933 30.4333 17.63 30.82 17.63C31.2067 17.63 31.55 17.6933 31.85 17.82C32.1567 17.9467 32.4133 18.13 32.62 18.37C32.8333 18.6033 32.9967 18.89 33.11 19.23C33.2233 19.57 33.28 19.95 33.28 20.37C33.28 20.79 33.2233 21.17 33.11 21.51C32.9967 21.85 32.8333 22.14 32.62 22.38C32.4133 22.62 32.1567 22.8033 31.85 22.93C31.55 23.0567 31.2067 23.12 30.82 23.12ZM30.82 21.95C31.1133 21.95 31.34 21.86 31.5 21.68C31.66 21.5 31.74 21.2433 31.74 20.91V19.84C31.74 19.5067 31.66 19.25 31.5 19.07C31.34 18.89 31.1133 18.8 30.82 18.8C30.5267 18.8 30.3 18.89 30.14 19.07C29.98 19.25 29.9 19.5067 29.9 19.84V20.91C29.9 21.2433 29.98 21.5 30.14 21.68C30.3 21.86 30.5267 21.95 30.82 21.95Z" fill="white"/>
<path d="M34.5359 18.9H33.7959V17.75H34.5359V17.13C34.5359 16.6233 34.6693 16.2433 34.9359 15.99C35.2026 15.73 35.5926 15.6 36.1059 15.6H37.0659V16.75H36.0159V17.75H37.0659V18.9H36.0159V23H34.5359V18.9Z" fill="white"/>
<path d="M42.0925 23C41.5792 23 41.1892 22.87 40.9225 22.61C40.6625 22.35 40.5325 21.97 40.5325 21.47V18.9H39.7925V17.75H40.1625C40.3625 17.75 40.4992 17.7033 40.5725 17.61C40.6458 17.51 40.6825 17.37 40.6825 17.19V16.33H42.0125V17.75H43.0525V18.9H42.0125V21.85H42.9725V23H42.0925Z" fill="white"/>
<path d="M44.0806 15.6H45.5606V18.64H45.6206C45.714 18.3667 45.8773 18.13 46.1106 17.93C46.344 17.73 46.6673 17.63 47.0806 17.63C47.6206 17.63 48.0273 17.81 48.3006 18.17C48.5806 18.53 48.7206 19.0433 48.7206 19.71V23H47.2406V19.83C47.2406 19.49 47.1873 19.24 47.0806 19.08C46.974 18.9133 46.784 18.83 46.5106 18.83C46.3906 18.83 46.274 18.8467 46.1606 18.88C46.0473 18.9067 45.944 18.9533 45.8506 19.02C45.764 19.0867 45.694 19.17 45.6406 19.27C45.5873 19.3633 45.5606 19.4733 45.5606 19.6V23H44.0806V15.6Z" fill="white"/>
<path d="M52.2277 23.12C51.8277 23.12 51.471 23.0567 51.1577 22.93C50.8443 22.7967 50.5777 22.6133 50.3577 22.38C50.1443 22.14 49.981 21.85 49.8677 21.51C49.761 21.17 49.7077 20.79 49.7077 20.37C49.7077 19.9567 49.761 19.5833 49.8677 19.25C49.9743 18.91 50.131 18.62 50.3377 18.38C50.551 18.14 50.811 17.9567 51.1177 17.83C51.4243 17.6967 51.7743 17.63 52.1677 17.63C52.601 17.63 52.971 17.7033 53.2777 17.85C53.591 17.9967 53.8443 18.1933 54.0377 18.44C54.2377 18.6867 54.381 18.9733 54.4677 19.3C54.561 19.62 54.6077 19.9567 54.6077 20.31V20.75H51.2377V20.83C51.2377 21.1767 51.331 21.4533 51.5177 21.66C51.7043 21.86 51.9977 21.96 52.3977 21.96C52.7043 21.96 52.9543 21.9 53.1477 21.78C53.341 21.6533 53.521 21.5033 53.6877 21.33L54.4277 22.25C54.1943 22.5233 53.8877 22.7367 53.5077 22.89C53.1343 23.0433 52.7077 23.12 52.2277 23.12ZM52.1977 18.72C51.8977 18.72 51.661 18.82 51.4877 19.02C51.321 19.2133 51.2377 19.4733 51.2377 19.8V19.88H53.0777V19.79C53.0777 19.47 53.0043 19.2133 52.8577 19.02C52.7177 18.82 52.4977 18.72 52.1977 18.72Z" fill="white"/>
<path d="M62.3962 23L61.8962 21.34H59.5662L59.0662 23H57.5262L59.8262 16.02H61.7062L63.9762 23H62.3962ZM60.7462 17.4H60.6962L59.9262 20.05H61.5262L60.7462 17.4Z" fill="white"/>
<path d="M66.5163 23C66.003 23 65.613 22.87 65.3463 22.61C65.0863 22.35 64.9563 21.97 64.9563 21.47V18.9H64.2163V17.75H64.5863C64.7863 17.75 64.923 17.7033 64.9963 17.61C65.0697 17.51 65.1063 17.37 65.1063 17.19V16.33H66.4363V17.75H67.4763V18.9H66.4363V21.85H67.3963V23H66.5163Z" fill="white"/>
<path d="M70.6554 23.12C70.2554 23.12 69.8987 23.0567 69.5854 22.93C69.2721 22.7967 69.0054 22.6133 68.7854 22.38C68.5721 22.14 68.4087 21.85 68.2954 21.51C68.1887 21.17 68.1354 20.79 68.1354 20.37C68.1354 19.9567 68.1887 19.5833 68.2954 19.25C68.4021 18.91 68.5587 18.62 68.7654 18.38C68.9787 18.14 69.2387 17.9567 69.5454 17.83C69.8521 17.6967 70.2021 17.63 70.5954 17.63C71.0287 17.63 71.3987 17.7033 71.7054 17.85C72.0187 17.9967 72.2721 18.1933 72.4654 18.44C72.6654 18.6867 72.8087 18.9733 72.8954 19.3C72.9887 19.62 73.0354 19.9567 73.0354 20.31V20.75H69.6654V20.83C69.6654 21.1767 69.7587 21.4533 69.9454 21.66C70.1321 21.86 70.4254 21.96 70.8254 21.96C71.1321 21.96 71.3821 21.9 71.5754 21.78C71.7687 21.6533 71.9487 21.5033 72.1154 21.33L72.8554 22.25C72.6221 22.5233 72.3154 22.7367 71.9354 22.89C71.5621 23.0433 71.1354 23.12 70.6554 23.12ZM70.6254 18.72C70.3254 18.72 70.0887 18.82 69.9154 19.02C69.7487 19.2133 69.6654 19.4733 69.6654 19.8V19.88H71.5054V19.79C71.5054 19.47 71.4321 19.2133 71.2854 19.02C71.1454 18.82 70.9254 18.72 70.6254 18.72Z" fill="white"/>
<path d="M74.0806 23V17.75H75.5606V18.64H75.6206C75.714 18.3667 75.8773 18.13 76.1106 17.93C76.344 17.73 76.6673 17.63 77.0806 17.63C77.6206 17.63 78.0273 17.81 78.3006 18.17C78.5806 18.53 78.7206 19.0433 78.7206 19.71V23H77.2406V19.83C77.2406 19.49 77.1873 19.24 77.0806 19.08C76.974 18.9133 76.784 18.83 76.5106 18.83C76.3906 18.83 76.274 18.8467 76.1606 18.88C76.0473 18.9067 75.944 18.9533 75.8506 19.02C75.764 19.0867 75.694 19.17 75.6406 19.27C75.5873 19.3633 75.5606 19.4733 75.5606 19.6V23H74.0806Z" fill="white"/>
<path d="M82.2277 23.12C81.8277 23.12 81.471 23.0567 81.1577 22.93C80.8443 22.7967 80.5777 22.6133 80.3577 22.38C80.1443 22.14 79.981 21.85 79.8677 21.51C79.761 21.17 79.7077 20.79 79.7077 20.37C79.7077 19.9567 79.761 19.5833 79.8677 19.25C79.9743 18.91 80.131 18.62 80.3377 18.38C80.551 18.14 80.811 17.9567 81.1177 17.83C81.4243 17.6967 81.7743 17.63 82.1677 17.63C82.601 17.63 82.971 17.7033 83.2777 17.85C83.591 17.9967 83.8443 18.1933 84.0377 18.44C84.2377 18.6867 84.381 18.9733 84.4677 19.3C84.561 19.62 84.6077 19.9567 84.6077 20.31V20.75H81.2377V20.83C81.2377 21.1767 81.331 21.4533 81.5177 21.66C81.7043 21.86 81.9977 21.96 82.3977 21.96C82.7043 21.96 82.9543 21.9 83.1477 21.78C83.341 21.6533 83.521 21.5033 83.6877 21.33L84.4277 22.25C84.1943 22.5233 83.8877 22.7367 83.5077 22.89C83.1343 23.0433 82.7077 23.12 82.2277 23.12ZM82.1977 18.72C81.8977 18.72 81.661 18.82 81.4877 19.02C81.321 19.2133 81.2377 19.4733 81.2377 19.8V19.88H83.0777V19.79C83.0777 19.47 83.0043 19.2133 82.8577 19.02C82.7177 18.82 82.4977 18.72 82.1977 18.72Z" fill="white"/>
<path d="M87.7829 23.12C87.3962 23.12 87.0496 23.0567 86.7429 22.93C86.4429 22.8033 86.1862 22.62 85.9729 22.38C85.7662 22.14 85.6062 21.85 85.4929 21.51C85.3796 21.17 85.3229 20.79 85.3229 20.37C85.3229 19.95 85.3796 19.57 85.4929 19.23C85.6062 18.89 85.7662 18.6033 85.9729 18.37C86.1862 18.13 86.4429 17.9467 86.7429 17.82C87.0496 17.6933 87.3962 17.63 87.7829 17.63C88.1696 17.63 88.5129 17.6933 88.8129 17.82C89.1196 17.9467 89.3762 18.13 89.5829 18.37C89.7962 18.6033 89.9596 18.89 90.0729 19.23C90.1862 19.57 90.2429 19.95 90.2429 20.37C90.2429 20.79 90.1862 21.17 90.0729 21.51C89.9596 21.85 89.7962 22.14 89.5829 22.38C89.3762 22.62 89.1196 22.8033 88.8129 22.93C88.5129 23.0567 88.1696 23.12 87.7829 23.12ZM87.7829 21.95C88.0762 21.95 88.3029 21.86 88.4629 21.68C88.6229 21.5 88.7029 21.2433 88.7029 20.91V19.84C88.7029 19.5067 88.6229 19.25 88.4629 19.07C88.3029 18.89 88.0762 18.8 87.7829 18.8C87.4896 18.8 87.2629 18.89 87.1029 19.07C86.9429 19.25 86.8629 19.5067 86.8629 19.84V20.91C86.8629 21.2433 86.9429 21.5 87.1029 21.68C87.2629 21.86 87.4896 21.95 87.7829 21.95Z" fill="white"/>
<path d="M21.6204 17.8347C22.6812 16.0893 23.2545 14.0881 23.28 12.0421C23.3055 9.99616 22.7822 7.98115 21.7653 6.20946L23.581 4.38249C23.7134 4.24919 23.8185 4.09093 23.8902 3.91675C23.9618 3.74258 23.9987 3.5559 23.9987 3.36737C23.9987 3.17884 23.9618 2.99216 23.8902 2.81799C23.8185 2.64381 23.7134 2.48556 23.581 2.35225L21.6637 0.423016C21.5313 0.289705 21.3741 0.183956 21.201 0.111808C21.028 0.0396594 20.8425 0.00252518 20.6552 0.00252518C20.4679 0.00252518 20.2825 0.0396594 20.1094 0.111808C19.9364 0.183956 19.7792 0.289705 19.6467 0.423016L17.8769 2.20263C16.1259 1.12682 14.1169 0.551199 12.0656 0.537519C10.0142 0.523839 7.99786 1.07262 6.23286 2.12498L4.5395 0.420491C4.40706 0.28718 4.24984 0.181431 4.0768 0.109282C3.90377 0.0371342 3.71831 0 3.53101 0C3.34372 0 3.15826 0.0371342 2.98522 0.109282C2.81218 0.181431 2.65496 0.28718 2.52252 0.420491L0.608403 2.35225C0.475963 2.48556 0.370904 2.64381 0.299228 2.81799C0.227551 2.99216 0.190659 3.17884 0.190659 3.36737C0.190659 3.5559 0.227551 3.74258 0.299228 3.91675C0.370904 4.09093 0.475963 4.24919 0.608403 4.38249L2.29486 6.08004C1.40201 7.58259 0.868457 9.27352 0.736346 11.0193H8.34704C8.53368 10.2908 8.93159 9.63483 9.49004 9.13488C10.0485 8.63493 10.7422 8.31369 11.4827 8.21211C12.2232 8.11053 12.977 8.23321 13.648 8.56451C14.319 8.89581 14.8768 9.42073 15.2503 10.0723L17.4241 8.80976C16.8744 7.84909 16.0827 7.05138 15.1289 6.49717C14.1751 5.94297 13.0929 5.65187 11.9915 5.65329C11.9025 5.65329 11.8134 5.65329 11.7256 5.6596L11.6441 5.66402C11.5814 5.66402 11.5186 5.67159 11.4559 5.67664L11.3694 5.68485C11.3029 5.69116 11.2364 5.69874 11.1706 5.70758L11.1078 5.71579C11.0225 5.72778 10.9373 5.74167 10.8532 5.75745C10.8331 5.75745 10.8131 5.76503 10.7905 5.76944C10.7278 5.78207 10.6613 5.79533 10.5973 5.80985L10.5133 5.83005C10.455 5.84394 10.3966 5.85909 10.3389 5.87487L10.2605 5.89634C10.1846 5.91843 10.11 5.94116 10.0354 5.96578L10.0172 5.97146C9.93754 5.99797 9.85915 6.02638 9.78075 6.05605L9.70549 6.08572C9.65156 6.10719 9.59762 6.12865 9.54431 6.15201L9.46215 6.18736C9.40696 6.21135 9.3524 6.23723 9.29846 6.26312L9.2326 6.29405C9.15923 6.33067 9.08647 6.36791 9.01498 6.40705L8.95602 6.43988C8.90292 6.46976 8.85024 6.50006 8.79798 6.53079L8.71895 6.57876L8.58098 6.66651L8.50572 6.71639C8.45011 6.75384 8.39492 6.79235 8.34014 6.83191L8.30126 6.85906C8.23645 6.90662 8.17374 6.95523 8.11311 7.00489L8.04287 7.0617L7.91743 7.1646C7.89318 7.18565 7.86872 7.20669 7.84405 7.22773C7.80224 7.26393 7.7621 7.30054 7.72364 7.33758C7.70231 7.35715 7.68099 7.37609 7.66092 7.39629C7.60385 7.45121 7.5474 7.50677 7.49284 7.56358L7.4389 7.62103C7.40002 7.66206 7.36176 7.70373 7.32413 7.74729L7.25828 7.82304C7.22504 7.86155 7.19556 7.90006 7.15981 7.93983C7.13912 7.96509 7.11779 7.99034 7.0971 8.01685C7.05946 8.06357 7.02309 8.11155 6.98671 8.15952L6.94407 8.21508C6.89828 8.27821 6.85313 8.34134 6.80922 8.40447C6.79104 8.43098 6.7741 8.45813 6.75654 8.48527C6.72832 8.5282 6.7001 8.57113 6.67313 8.61469C6.65494 8.64436 6.63675 8.6734 6.61919 8.70307C6.5916 8.74789 6.56526 8.79397 6.53954 8.83943L6.49376 8.92023C6.45676 8.98841 6.42038 9.05722 6.38526 9.12667H3.87658C4.52745 7.25773 5.79358 5.66896 7.46489 4.62398C9.13621 3.57899 11.1122 3.1406 13.0651 3.38155C15.018 3.62249 16.8304 4.52828 18.2015 5.94864C19.5726 7.36899 20.42 9.21853 20.6032 11.1904H14.0474C13.8648 10.7 13.5152 10.2908 13.0608 10.0358C12.6064 9.78084 12.0768 9.69658 11.5664 9.79808C11.056 9.89959 10.5981 10.1803 10.2741 10.59C9.95024 10.9998 9.78145 11.5121 9.79788 12.0355C9.81431 12.5589 10.0149 13.0594 10.3639 13.4478C10.7128 13.8362 11.1875 14.0872 11.7032 14.156C12.2189 14.2249 12.7422 14.1072 13.1797 13.8238C13.6172 13.5404 13.9405 13.1099 14.0919 12.6089H20.6251C20.4848 14.6071 19.6623 16.495 18.297 17.9525C16.9317 19.41 15.1078 20.3473 13.1343 20.6057C11.1608 20.8641 9.15924 20.4276 7.46899 19.3702C5.77873 18.3127 4.50378 16.6995 3.86027 14.8039H6.38839C6.42352 14.874 6.45989 14.9428 6.49752 15.011C6.51195 15.0375 6.527 15.0634 6.54205 15.0899C6.56839 15.136 6.59473 15.1827 6.62233 15.2281C6.63989 15.2572 6.65745 15.2862 6.67564 15.3146C6.70323 15.3594 6.73146 15.403 6.7603 15.4466C6.77724 15.4731 6.7948 15.4996 6.81236 15.5255C6.85689 15.5886 6.90205 15.6561 6.94908 15.7199C6.96163 15.7369 6.97542 15.7534 6.98797 15.771C7.02497 15.8196 7.0626 15.8683 7.10086 15.9162C7.12093 15.9421 7.14162 15.9667 7.16357 15.992C7.19619 16.0318 7.22629 16.0709 7.26329 16.11L7.32601 16.1845C7.36427 16.2268 7.40253 16.2691 7.44204 16.3108L7.49409 16.3663C7.54928 16.4238 7.60573 16.4793 7.6628 16.5343L7.72552 16.5923C7.76566 16.6302 7.8058 16.6668 7.84656 16.7035L7.91994 16.7666C7.96071 16.8013 8.00147 16.836 8.04537 16.8701L8.11436 16.9263C8.17708 16.9762 8.2398 17.0248 8.30251 17.0728L8.33952 17.0986C8.39471 17.1384 8.4499 17.1769 8.50634 17.2148L8.58098 17.264C8.62739 17.2943 8.67317 17.3234 8.72021 17.3524C8.74592 17.3682 8.77226 17.3846 8.7986 17.3998C8.85066 17.4313 8.90397 17.4629 8.95728 17.4913L9.0156 17.5241C9.0871 17.5633 9.15985 17.6005 9.23323 17.6371L9.29595 17.6681C9.35051 17.694 9.40508 17.7192 9.46027 17.7438L9.5418 17.7792C9.59574 17.8025 9.64967 17.824 9.70361 17.8423L9.77887 17.872C9.85727 17.9017 9.93566 17.9301 10.0153 17.9566L10.0329 17.9623C10.1075 17.9869 10.1828 18.0096 10.2587 18.0317L10.3377 18.0532C10.3947 18.0689 10.4531 18.0841 10.5108 18.098L10.6017 18.1207C10.6644 18.1352 10.7303 18.1485 10.7955 18.1611C10.8156 18.1655 10.835 18.17 10.8582 18.1731C10.9423 18.1889 11.0276 18.2028 11.1129 18.2148L11.1756 18.223C11.2383 18.2312 11.3073 18.2394 11.3738 18.2457L11.4603 18.2539C11.523 18.259 11.5857 18.2634 11.6485 18.2665L11.73 18.271C11.8178 18.2747 11.9069 18.2773 11.9959 18.2773C13.0973 18.2787 14.1795 17.9876 15.1333 17.4334C16.0871 16.8792 16.8788 16.0815 17.4284 15.1208L15.2547 13.8582C14.8812 14.5098 14.3234 15.0347 13.6524 15.366C12.9814 15.6973 12.2276 15.82 11.4871 15.7184C10.7466 15.6169 10.0529 15.2956 9.49443 14.7957C8.93598 14.2957 8.53807 13.6397 8.35143 12.9113H0.747635C0.896021 14.6138 1.42657 16.2601 2.29925 17.7262L0.417744 19.62C0.285303 19.7533 0.180245 19.9116 0.108568 20.0858C0.0368916 20.2599 0 20.4466 0 20.6352C0 20.8237 0.0368916 21.0104 0.108568 21.1845C0.180245 21.3587 0.285303 21.517 0.417744 21.6503L2.33437 23.5795C2.46681 23.7128 2.62403 23.8186 2.79707 23.8907C2.9701 23.9629 3.15557 24 3.34286 24C3.53015 24 3.71562 23.9629 3.88865 23.8907C4.06169 23.8186 4.21891 23.7128 4.35135 23.5795L6.23725 21.6812C7.96093 22.7071 9.92448 23.2536 11.9269 23.2647C13.9293 23.2757 15.8987 22.7511 17.6335 21.7443L19.4561 23.5789C19.5885 23.7122 19.7457 23.8179 19.9188 23.8901C20.0918 23.9622 20.2773 23.9994 20.4646 23.9994C20.6519 23.9994 20.8373 23.9622 21.0104 23.8901C21.1834 23.8179 21.3406 23.7122 21.4731 23.5789L23.3897 21.6496C23.5221 21.5163 23.6272 21.3581 23.6989 21.1839C23.7705 21.0097 23.8074 20.823 23.8074 20.6345C23.8074 20.446 23.7705 20.2593 23.6989 20.0851C23.6272 19.911 23.5221 19.7527 23.3897 19.6194L21.6204 17.8347Z" fill="white"/>
</svg>
