<svg width="17" height="16" viewBox="0 0 17 16" fill="none" xmlns="http://www.w3.org/2000/svg">
<path d="M14.9144 11.8898C15.6216 10.7262 16.0038 9.39207 16.0208 8.02809C16.0378 6.66411 15.689 5.32077 15.011 4.13964L16.2215 2.92166C16.3098 2.83279 16.3798 2.72729 16.4276 2.61117C16.4754 2.49505 16.5 2.3706 16.5 2.24491C16.5 2.11923 16.4754 1.99478 16.4276 1.87866C16.3798 1.76254 16.3098 1.65704 16.2215 1.56817L14.9433 0.282011C14.855 0.193136 14.7501 0.122637 14.6348 0.0745384C14.5194 0.0264396 14.3958 0.00168345 14.2709 0.00168345C14.146 0.00168345 14.0224 0.0264396 13.907 0.0745384C13.7916 0.122637 13.6868 0.193136 13.5985 0.282011L12.4186 1.46842C11.2512 0.751216 9.91179 0.367466 8.54414 0.358346C7.17649 0.349226 5.83219 0.715081 4.65546 1.41666L3.52649 0.280327C3.4382 0.191453 3.33338 0.120954 3.21801 0.0728549C3.10265 0.0247562 2.979 0 2.85413 0C2.72926 0 2.60562 0.0247562 2.49025 0.0728549C2.37489 0.120954 2.27007 0.191453 2.18177 0.280327L0.905624 1.56817C0.817325 1.65704 0.747283 1.76254 0.699496 1.87866C0.651709 1.99478 0.627113 2.11923 0.627113 2.24491C0.627113 2.3706 0.651709 2.49505 0.699496 2.61117C0.747283 2.72729 0.817325 2.83279 0.905624 2.92166L2.02999 4.05336C1.43472 5.05506 1.079 6.18235 0.990923 7.34619H6.06499C6.18942 6.86056 6.45471 6.42322 6.82703 6.08992C7.19935 5.75662 7.66184 5.54246 8.15555 5.47474C8.64926 5.40702 9.15182 5.48881 9.59917 5.70968C10.0465 5.93054 10.4184 6.28049 10.6674 6.7149L12.1167 5.87317C11.7502 5.23272 11.2224 4.70092 10.5865 4.33145C9.95055 3.96198 9.22904 3.76792 8.49477 3.76886C8.4354 3.76886 8.37602 3.76886 8.31748 3.77307L8.26313 3.77601C8.22131 3.77601 8.1795 3.78106 8.13769 3.78443L8.07998 3.7899C8.03566 3.79411 7.99134 3.79916 7.94744 3.80505L7.90562 3.81052C7.84876 3.81852 7.79189 3.82778 7.73586 3.8383C7.72248 3.8383 7.7091 3.84335 7.69405 3.8463C7.65223 3.85471 7.60791 3.86355 7.56526 3.87323L7.50923 3.8867C7.47034 3.89596 7.43146 3.90606 7.39299 3.91658L7.34072 3.93089C7.29013 3.94562 7.24037 3.96077 7.19061 3.97718L7.17848 3.98097C7.12538 3.99865 7.07312 4.01759 7.02085 4.03737L6.97067 4.05715C6.93471 4.07146 6.89875 4.08577 6.86321 4.10134L6.80844 4.12491C6.77164 4.1409 6.73526 4.15816 6.6993 4.17541L6.6554 4.19603C6.60648 4.22044 6.55797 4.24527 6.51031 4.27137L6.471 4.29325C6.4356 4.31317 6.40048 4.33337 6.36563 4.35386L6.31295 4.38584L6.22096 4.44434L6.17078 4.47759C6.13371 4.50256 6.09691 4.52823 6.06039 4.55461L6.03447 4.57271C5.99126 4.60441 5.94945 4.63682 5.90903 4.66992L5.8622 4.7078L5.77857 4.7764C5.7624 4.79043 5.74609 4.80446 5.72965 4.81849C5.70177 4.84262 5.67501 4.86703 5.64937 4.89172C5.63515 4.90477 5.62093 4.91739 5.60755 4.93086C5.5695 4.96747 5.53187 5.00451 5.49549 5.04239L5.45953 5.08069C5.43361 5.10804 5.4081 5.13582 5.38301 5.16486L5.33911 5.21536C5.31695 5.24104 5.2973 5.26671 5.27346 5.29322C5.25966 5.31006 5.24545 5.32689 5.23165 5.34457C5.20656 5.37571 5.18231 5.4077 5.15806 5.43968L5.12962 5.47672C5.0991 5.5188 5.06899 5.56089 5.03972 5.60298C5.0276 5.62065 5.01631 5.63875 5.0046 5.65685C4.98579 5.68547 4.96697 5.71408 4.94899 5.74312C4.93686 5.76291 4.92474 5.78227 4.91303 5.80205C4.89463 5.83193 4.87707 5.86265 4.85993 5.89295L4.8294 5.94682C4.80473 5.99227 4.78048 6.03815 4.75707 6.08444H3.08453C3.51846 4.83849 4.36259 3.77931 5.47686 3.08265C6.59113 2.38599 7.90855 2.09373 9.21055 2.25436C10.5125 2.41499 11.7208 3.01886 12.635 3.96576C13.5491 4.91266 14.1141 6.14568 14.2362 7.46024H9.86542C9.74371 7.13333 9.5106 6.86056 9.20765 6.69056C8.9047 6.52056 8.55162 6.46439 8.21135 6.53206C7.87108 6.59972 7.56575 6.78683 7.3498 7.06002C7.13384 7.33321 7.02131 7.67472 7.03227 8.02366C7.04322 8.3726 7.17695 8.70627 7.4096 8.9652C7.64226 9.22412 7.95872 9.39145 8.30255 9.43737C8.64639 9.48328 8.99525 9.40478 9.28693 9.21587C9.57861 9.02696 9.79414 8.73991 9.89511 8.40592H14.2508C14.1573 9.73807 13.6089 10.9967 12.6987 11.9683C11.7884 12.94 10.5724 13.5649 9.25664 13.7372C7.94091 13.9094 6.60648 13.6184 5.47959 12.9134C4.35269 12.2085 3.50268 11.133 3.07365 9.86926H4.75916C4.78257 9.91598 4.80682 9.96185 4.83191 10.0073C4.84153 10.025 4.85156 10.0422 4.8616 10.0599C4.87916 10.0906 4.89672 10.1218 4.91512 10.1521C4.92683 10.1714 4.93854 10.1908 4.95066 10.2097C4.96906 10.2396 4.98788 10.2687 5.00711 10.2977C5.0184 10.3154 5.03011 10.3331 5.04182 10.3503C5.0715 10.3924 5.10161 10.4374 5.13297 10.4799C5.14133 10.4913 5.15053 10.5022 5.15889 10.514C5.18356 10.5464 5.20865 10.5788 5.23416 10.6108C5.24754 10.6281 5.26134 10.6445 5.27597 10.6613C5.29771 10.6878 5.31778 10.7139 5.34245 10.74L5.38427 10.7897C5.40977 10.8179 5.43528 10.8461 5.46162 10.8739L5.49633 10.9109C5.53312 10.9492 5.57076 10.9862 5.60881 11.0228L5.65062 11.0616C5.67738 11.0868 5.70414 11.1112 5.73132 11.1356L5.78024 11.1777C5.80742 11.2009 5.8346 11.224 5.86387 11.2467L5.90986 11.2842C5.95168 11.3174 5.99349 11.3499 6.0353 11.3818L6.05997 11.3991C6.09677 11.4256 6.13357 11.4513 6.1712 11.4765L6.22096 11.5094C6.2519 11.5296 6.28242 11.5489 6.31378 11.5683C6.33093 11.5788 6.34849 11.5897 6.36605 11.5998C6.40075 11.6209 6.4363 11.6419 6.47184 11.6609L6.51072 11.6828C6.55839 11.7089 6.60689 11.7337 6.65582 11.7581L6.69763 11.7787C6.73401 11.796 6.77039 11.8128 6.80718 11.8292L6.86154 11.8528C6.8975 11.8684 6.93346 11.8827 6.96942 11.8949L7.01959 11.9147C7.07186 11.9344 7.12413 11.9534 7.17723 11.971L7.18894 11.9748C7.2387 11.9913 7.28887 12.0064 7.33947 12.0211L7.39215 12.0354C7.4302 12.046 7.46909 12.0561 7.50756 12.0653L7.56819 12.0805C7.61 12.0902 7.6539 12.099 7.69739 12.1074C7.71077 12.1104 7.72373 12.1133 7.7392 12.1154C7.79523 12.1259 7.8521 12.1352 7.90897 12.1432L7.95078 12.1487C7.99259 12.1541 8.03859 12.1596 8.08291 12.1638L8.14061 12.1693C8.18243 12.1726 8.22424 12.1756 8.26605 12.1777L8.32041 12.1806C8.37895 12.1832 8.43833 12.1848 8.4977 12.1848C9.23197 12.1858 9.95348 11.9917 10.5894 11.6223C11.2253 11.2528 11.7532 10.721 12.1196 10.0805L10.6703 9.23881C10.4213 9.67322 10.0495 10.0232 9.6021 10.244C9.15475 10.4649 8.65219 10.5467 8.15848 10.479C7.66477 10.4112 7.20228 10.1971 6.82996 9.86379C6.45763 9.53049 6.19235 9.09315 6.06792 8.60752H0.99845C1.09738 9.74252 1.4511 10.8401 2.03292 11.8174L0.778511 13.08C0.690212 13.1689 0.62017 13.2744 0.572383 13.3905C0.524596 13.5066 0.5 13.6311 0.5 13.7568C0.5 13.8825 0.524596 14.0069 0.572383 14.123C0.62017 14.2391 0.690212 14.3446 0.778511 14.4335L2.05633 15.7197C2.14463 15.8085 2.24945 15.879 2.36481 15.9271C2.48018 15.9752 2.60382 16 2.72869 16C2.85356 16 2.97721 15.9752 3.09257 15.9271C3.20794 15.879 3.31276 15.8085 3.40105 15.7197L4.65839 14.4541C5.80757 15.1381 7.11667 15.5024 8.45169 15.5098C9.78672 15.5172 11.0997 15.1674 12.2563 14.4962L13.4714 15.7193C13.5597 15.8081 13.6645 15.8786 13.7799 15.9267C13.8953 15.9748 14.0189 15.9996 14.1438 15.9996C14.2686 15.9996 14.3923 15.9748 14.5077 15.9267C14.623 15.8786 14.7278 15.8081 14.8161 15.7193L16.094 14.4331C16.1823 14.3442 16.2523 14.2387 16.3001 14.1226C16.3479 14.0065 16.3725 13.882 16.3725 13.7563C16.3725 13.6307 16.3479 13.5062 16.3001 13.3901C16.2523 13.274 16.1823 13.1685 16.094 13.0796L14.9144 11.8898Z" fill="white"/>
</svg>
