<svg width="173" height="134" viewBox="0 0 173 134" fill="none" xmlns="http://www.w3.org/2000/svg">
<g clip-path="url(#clip0)" filter="url(#filter0_d)">
<path opacity="0.1" d="M135.891 72.2189C131.591 79.2227 132.352 88.7356 134.194 96.2367C134.811 98.7483 135.523 101.397 134.974 104.211C134.304 107.652 131.9 110.365 129.473 111.917C125.047 114.749 120.008 114.691 116.358 111.768C113.199 109.241 111.131 104.82 107.909 102.43C102.511 98.4306 95.0761 100.901 88.6083 104.691C84.0321 107.371 78.9957 110.763 74.7877 108.873C71.8268 107.543 69.9958 103.763 69.1472 99.6437C68.7386 97.6558 68.4965 95.4832 67.5469 93.9699C66.982 93.0707 66.2027 92.4705 65.3944 91.9794C58.0162 87.4999 47.9924 91.3138 40.8816 86.2365C36.0784 82.8068 33.3685 75.6951 32.5022 68.081C31.6359 60.4669 32.4026 52.3103 33.3584 44.2792C34.0419 38.5727 34.9599 32.4619 37.9409 27.809C41.0935 22.8874 46.0417 20.6746 50.3316 21.1154C54.6216 21.5562 58.3365 24.2977 61.5344 27.6457C65.5318 31.8302 69.1282 37.1813 74.3186 38.5137C77.8494 39.4217 81.7232 38.3366 85.4848 37.7163C91.7735 36.6789 97.9688 36.9427 104.118 37.2955C110.005 37.6334 115.929 38.0629 121.408 40.1375C125.286 41.6056 128.253 44.6836 131.869 46.6779C134.225 47.9776 136.89 48.1321 139.084 49.8702C141.786 52.0051 144.116 55.9735 143.008 60.9981C141.955 65.7765 138.172 68.5029 135.891 72.2189Z" fill="#F50057"/>
<path d="M55.6116 50.8247C55.6116 50.8247 37.0571 46.693 60.6658 22.5195C60.6658 22.5195 70.8421 32.1254 67.1095 44.0658C65.6089 48.8669 60.7793 51.8306 55.8865 50.8812L55.6116 50.8247Z" fill="#F50057"/>
<path opacity="0.4" d="M55.6116 50.8247C55.2043 50.7343 37.453 46.2849 60.6657 22.5195C60.6657 22.5195 70.8421 32.1254 67.1095 44.0658C65.6089 48.8669 60.7792 51.8306 55.8865 50.8812L55.6116 50.8247Z" fill="white"/>
<path d="M55.8574 50.9616C55.8574 50.9616 65.658 36.2583 60.6682 22.5195" stroke="#535461" stroke-miterlimit="10"/>
<path d="M131.942 65.1014C131.942 65.1014 128.744 52.2781 133.59 43.1482C135.625 39.3167 136.434 34.9514 135.754 30.6703C135.428 28.6395 134.915 26.6427 134.223 24.7051" stroke="#535461" stroke-width="2" stroke-miterlimit="10"/>
<path d="M137.243 18.9345C137.176 20.4867 134.161 24.8658 134.161 24.8658C134.161 24.8658 131.533 20.2456 131.6 18.6933C131.646 17.9584 131.98 17.2709 132.53 16.7784C133.08 16.2859 133.802 16.0277 134.54 16.0592C135.279 16.0908 135.976 16.4096 136.481 16.9472C136.987 17.4848 137.26 18.1983 137.243 18.9345Z" fill="#F50057"/>
<path d="M141.538 27.7279C140.635 28.995 135.713 31.0395 135.713 31.0395C135.713 31.0395 136.029 25.7386 136.932 24.4715C137.143 24.1614 137.414 23.8963 137.729 23.6919C138.044 23.4875 138.397 23.3479 138.767 23.2812C139.137 23.2146 139.517 23.2222 139.884 23.3037C140.251 23.3851 140.599 23.5388 140.905 23.7557C141.212 23.9726 141.472 24.2483 141.67 24.5666C141.869 24.8849 142.001 25.2395 142.06 25.6095C142.119 25.9795 142.103 26.3575 142.013 26.7212C141.923 27.085 141.761 27.4272 141.537 27.7279H141.538Z" fill="#F50057"/>
<path d="M140.702 42.4088C139.281 43.048 133.996 42.3397 133.996 42.3397C133.996 42.3397 136.955 37.9229 138.377 37.2825C139.056 36.992 139.824 36.9789 140.513 37.2457C141.203 37.5126 141.76 38.0382 142.064 38.7097C142.369 39.3811 142.397 40.1447 142.142 40.8364C141.887 41.5281 141.37 42.0927 140.702 42.4088Z" fill="#F50057"/>
<path d="M137.558 53.3755C136.266 54.2446 130.937 54.4354 130.937 54.4354C130.937 54.4354 133.104 49.5842 134.397 48.7139C135.018 48.3122 135.772 48.1693 136.498 48.316C137.223 48.4628 137.862 48.8873 138.277 49.4984C138.691 50.1095 138.848 50.8581 138.714 51.5832C138.579 52.3084 138.164 52.952 137.558 53.3755Z" fill="#F50057"/>
<path d="M129.777 31.0928C130.847 32.2231 136.007 33.5643 136.007 33.5643C136.007 33.5643 134.953 28.3589 133.882 27.2299C133.364 26.7038 132.659 26.4012 131.92 26.3872C131.18 26.3732 130.464 26.6489 129.926 27.1549C129.388 27.661 129.071 28.357 129.043 29.0934C129.015 29.8298 129.279 30.5477 129.777 31.0928Z" fill="#F50057"/>
<path d="M126.264 43.9593C127.625 44.7128 132.947 44.4616 132.947 44.4616C132.947 44.4616 130.383 39.8075 129.02 39.0503C128.368 38.7073 127.607 38.6318 126.9 38.8401C126.193 39.0483 125.595 39.5237 125.236 40.1647C124.876 40.8056 124.782 41.5614 124.974 42.2704C125.166 42.9795 125.629 43.5856 126.264 43.9593Z" fill="#F50057"/>
<path d="M124.572 56.9344C125.785 57.9101 131.078 58.5544 131.078 58.5544C131.078 58.5544 129.335 53.5311 128.122 52.559C127.538 52.1077 126.799 51.9025 126.065 51.9876C125.33 52.0726 124.658 52.4411 124.194 53.0139C123.729 53.5867 123.508 54.3181 123.579 55.0511C123.65 55.7841 124.007 56.4603 124.572 56.9344Z" fill="#F50057"/>
<path d="M137.243 18.9345C137.176 20.4867 134.161 24.8658 134.161 24.8658C134.161 24.8658 131.533 20.2456 131.6 18.6933C131.646 17.9584 131.98 17.2709 132.53 16.7784C133.08 16.2859 133.802 16.0277 134.54 16.0592C135.279 16.0908 135.976 16.4096 136.481 16.9472C136.987 17.4848 137.26 18.1983 137.243 18.9345Z" fill="#FC6681"/>
<path d="M141.538 27.7279C140.635 28.995 135.713 31.0395 135.713 31.0395C135.713 31.0395 136.029 25.7386 136.932 24.4715C137.143 24.1614 137.414 23.8963 137.729 23.6919C138.044 23.4875 138.397 23.3479 138.767 23.2812C139.137 23.2146 139.517 23.2222 139.884 23.3037C140.251 23.3851 140.599 23.5388 140.905 23.7557C141.212 23.9726 141.472 24.2483 141.67 24.5666C141.869 24.8849 142.001 25.2395 142.06 25.6095C142.119 25.9795 142.103 26.3575 142.013 26.7212C141.923 27.085 141.761 27.4272 141.537 27.7279H141.538Z" fill="#FC6681"/>
<path d="M140.702 42.4088C139.281 43.048 133.996 42.3397 133.996 42.3397C133.996 42.3397 136.955 37.9229 138.377 37.2825C139.056 36.992 139.824 36.9789 140.513 37.2457C141.203 37.5126 141.76 38.0382 142.064 38.7097C142.369 39.3811 142.397 40.1447 142.142 40.8364C141.887 41.5281 141.37 42.0927 140.702 42.4088Z" fill="#FC6681"/>
<path d="M137.558 53.3755C136.266 54.2446 130.937 54.4354 130.937 54.4354C130.937 54.4354 133.104 49.5842 134.397 48.7139C135.018 48.3122 135.772 48.1693 136.498 48.316C137.223 48.4628 137.862 48.8873 138.277 49.4984C138.691 50.1095 138.848 50.8581 138.714 51.5832C138.579 52.3084 138.164 52.952 137.558 53.3755Z" fill="#FC6681"/>
<path d="M129.777 31.0928C130.847 32.2231 136.007 33.5643 136.007 33.5643C136.007 33.5643 134.953 28.3589 133.882 27.2299C133.364 26.7038 132.659 26.4012 131.92 26.3872C131.18 26.3732 130.464 26.6489 129.926 27.1549C129.388 27.661 129.071 28.357 129.043 29.0934C129.015 29.8298 129.279 30.5477 129.777 31.0928Z" fill="#FC6681"/>
<path d="M126.264 43.9593C127.625 44.7128 132.947 44.4616 132.947 44.4616C132.947 44.4616 130.383 39.8075 129.02 39.0503C128.368 38.7073 127.607 38.6318 126.9 38.8401C126.193 39.0483 125.595 39.5237 125.236 40.1647C124.876 40.8056 124.782 41.5614 124.974 42.2704C125.166 42.9795 125.629 43.5856 126.264 43.9593Z" fill="#FC6681"/>
<path d="M124.572 56.9344C125.785 57.9101 131.078 58.5544 131.078 58.5544C131.078 58.5544 129.335 53.5311 128.122 52.559C127.538 52.1077 126.799 51.9025 126.065 51.9876C125.33 52.0726 124.658 52.4411 124.194 53.0139C123.729 53.5867 123.508 54.3181 123.579 55.0511C123.65 55.7841 124.007 56.4603 124.572 56.9344Z" fill="#FC6681"/>
<path d="M120.235 56.8184C120.235 56.8184 133.647 45.6251 136.628 39.9802C139.609 34.3352 143.408 29.4727 143.408 29.4727" stroke="#535461" stroke-width="2" stroke-miterlimit="10"/>
<path d="M141.649 42.0887L135.848 40.7852C135.848 40.7852 137.215 46.881 141.649 42.0887Z" fill="#F50057"/>
<path d="M132.779 35.8652L136.118 40.8459C136.118 40.8459 129.594 41.3181 132.779 35.8652Z" fill="#F50057"/>
<path d="M143.932 37.4073L138.628 36.4805C138.628 36.4805 141.961 41.5276 143.932 37.4073Z" fill="#F50057"/>
<path d="M136.088 32.959L138.706 36.3673C138.706 36.3673 134.072 36.8018 136.088 32.959Z" fill="#F50057"/>
<path d="M141.372 32.2793C141.372 32.2793 145.892 32.494 146.416 32.9235C146.939 33.353 145.742 35.8722 144.02 35.4616C142.297 35.0509 141.372 32.2793 141.372 32.2793Z" fill="#F50057"/>
<path d="M139.566 28.2598C139.566 28.2598 141.411 31.6078 141.341 32.2445C141.272 32.8812 138.531 33.597 137.976 31.1833C137.421 28.7696 139.566 28.2598 139.566 28.2598Z" fill="#F50057"/>
<path d="M145.615 30.4301C145.826 29.7689 145.458 29.0631 144.794 28.8538C144.13 28.6444 143.421 29.0107 143.211 29.6719C143.001 30.3331 143.369 31.0389 144.033 31.2482C144.696 31.4576 145.405 31.0913 145.615 30.4301Z" fill="#FFD037"/>
<path d="M143.642 29.1488C143.852 28.4876 143.485 27.7819 142.821 27.5725C142.157 27.3631 141.448 27.7294 141.238 28.3906C141.028 29.0519 141.395 29.7576 142.059 29.967C142.723 30.1764 143.432 29.8101 143.642 29.1488Z" fill="#FFD037"/>
<path d="M59.9695 59.6926C59.9695 59.6926 65.3918 55.674 58.5824 41.6087C58.5824 41.6087 49.5031 30.4318 58.5824 19.8828C58.5824 19.8828 38.7845 20.3851 39.1628 38.7203C39.5411 57.0554 49.0618 59.6926 49.0618 59.6926H59.9695Z" fill="#F50057"/>
<path d="M54.9054 59.6925C54.9054 59.6925 53.5397 50.0226 49.8828 44.1202C49.1605 42.9264 48.6411 41.6221 48.3456 40.2598C47.1237 34.9062 48.8664 29.3077 52.8146 25.4761L58.5837 19.8789" stroke="#535461" stroke-width="2" stroke-miterlimit="10"/>
<path d="M71.2618 27.4121C71.2618 27.4121 72.5076 29.0346 70.6867 31.4835C68.8658 33.9324 67.3652 36.0045 67.9718 37.5266C67.9718 37.5266 70.7183 32.978 72.954 32.9139C75.1898 32.8499 73.7207 30.1473 71.2618 27.4121Z" fill="#F50057"/>
<path opacity="0.1" d="M71.2619 27.4121C71.3697 27.5689 71.4546 27.7402 71.5141 27.9207C73.6956 30.4726 74.857 32.8549 72.7612 32.9152C70.8079 32.9704 68.465 36.4491 67.9038 37.3269C67.9223 37.3946 67.9446 37.4613 67.9706 37.5266C67.9706 37.5266 70.7171 32.978 72.9529 32.9139C75.1887 32.8499 73.7209 30.1473 71.2619 27.4121Z" fill="black"/>
<path d="M73.5771 29.4786C73.5771 30.05 73.5128 30.5122 73.4333 30.5122C73.3539 30.5122 73.2896 30.0488 73.2896 29.4786C73.2896 28.9085 73.3703 29.176 73.4497 29.176C73.5291 29.176 73.5771 28.9085 73.5771 29.4786Z" fill="#FFD037"/>
<path d="M74.3716 30.1606C73.8672 30.4343 73.4296 30.5989 73.3918 30.5298C73.3539 30.4607 73.731 30.1832 74.2341 29.9094C74.7373 29.6356 74.5393 29.8353 74.5771 29.9094C74.615 29.9835 74.8747 29.8868 74.3716 30.1606Z" fill="#FFD037"/>
<path d="M64.6846 27.4121C64.6846 27.4121 63.4388 29.0346 65.2596 31.4835C67.0805 33.9324 68.5811 36.0045 67.9746 37.5266C67.9746 37.5266 65.2281 32.978 62.9924 32.9139C60.7566 32.8499 62.2231 30.1473 64.6846 27.4121Z" fill="#F50057"/>
<path opacity="0.1" d="M64.6845 27.4121C64.5767 27.5689 64.4918 27.7402 64.4323 27.9207C62.2508 30.4726 61.0894 32.8549 63.1852 32.9152C65.1385 32.9704 67.4814 36.4491 68.0426 37.3269C68.0241 37.3946 68.0017 37.4613 67.9757 37.5266C67.9757 37.5266 65.2255 32.9767 62.9897 32.9152C60.7539 32.8536 62.223 30.1473 64.6845 27.4121Z" fill="black"/>
<path d="M62.3667 29.4786C62.3667 30.05 62.431 30.5122 62.5105 30.5122C62.5899 30.5122 62.6542 30.0488 62.6542 29.4786C62.6542 28.9085 62.5735 29.176 62.4941 29.176C62.4146 29.176 62.3667 28.9085 62.3667 29.4786Z" fill="#FFD037"/>
<path d="M61.5722 30.1606C62.0766 30.4343 62.5142 30.5989 62.552 30.5298C62.5899 30.4607 62.2128 30.1832 61.7097 29.9094C61.2066 29.6356 61.4045 29.8353 61.3667 29.9094C61.3289 29.9835 61.0691 29.8868 61.5722 30.1606Z" fill="#FFD037"/>
<path d="M154.5 97.1009L143.452 48.6911H139.348C139.184 46.8413 139.074 45.0492 139.032 43.3614C139.032 43.3614 124.153 46.6039 112.286 37.2229C100.42 27.8418 86.4697 38.0341 86.4697 38.0341L86.4155 37.9952V37.9764V38.0002C85.4471 37.317 72.0829 28.1959 60.6568 37.2304C48.7958 46.6114 33.9108 43.3689 33.9108 43.3689C33.8692 45.0781 33.7582 46.8852 33.5905 48.7526H29.7823L18.5 97.2754C18.5 97.2754 64.363 98.9859 80.4345 97.4085C81.0108 98.6217 83.495 99.5334 86.471 99.5334C89.8152 99.5334 92.5352 98.3818 92.6298 96.9464C105.14 97.8945 132.06 99.4103 154.5 97.1009Z" fill="url(#paint0_linear)"/>
<path d="M30.9639 49.1158L19.9187 96.6289C19.9187 96.6289 80.7208 98.8969 85.6174 95.7222C85.6174 95.7222 123.363 99.5211 153.081 96.4594L142.264 49.0605L30.9639 49.1158Z" fill="#E2E2EC"/>
<path opacity="0.1" d="M34.7217 50.7578L24.4243 95.0547C24.4243 95.0547 81.1118 97.1696 85.6766 94.2096C85.6766 94.2096 120.868 97.751 148.575 94.8965L138.487 50.7051L34.7217 50.7578Z" fill="black"/>
<path d="M137.938 43.8439C137.938 43.8439 123.363 47.0186 111.749 37.8335C100.135 28.6483 86.4709 38.6272 86.4709 38.6272C86.4709 38.6272 72.8078 28.6483 61.1939 37.8335C49.58 47.0186 35.0053 43.8439 35.0053 43.8439C34.5462 62.3272 25.897 92.2637 25.897 92.2637C25.897 92.2637 41.8374 96.5725 62.9026 87.8419C83.9678 79.1114 86.4721 90.9036 86.4721 90.9036C86.4721 90.9036 88.9765 79.1101 110.042 87.8419C131.107 96.5737 147.047 92.2637 147.047 92.2637C147.047 92.2637 138.393 62.3272 137.938 43.8439Z" fill="#F1F2FB"/>
<path opacity="0.1" d="M58.3479 91.2466C58.3479 91.2466 77.5909 86.9378 86.4684 93.2873C86.4684 93.2873 95.008 85.5765 114.82 91.5869" fill="black"/>
<path d="M86.471 98.8398C89.8041 98.8398 92.5062 97.672 92.5062 96.2314C92.5062 94.7908 89.8041 93.623 86.471 93.623C83.1378 93.623 80.4358 94.7908 80.4358 96.2314C80.4358 97.672 83.1378 98.8398 86.471 98.8398Z" fill="#E8EAF8"/>
<path opacity="0.1" d="M86.4143 38.5703C86.4143 38.5703 90.7408 60.4557 86.5278 91.2989L86.4143 38.5703Z" fill="black"/>
<path opacity="0.1" d="M39.1743 50.7044C39.1743 50.7044 48.2372 52.8016 56.0819 50.7044C63.9267 48.6072 78.33 41.7465 83.0676 50.7044" stroke="black" stroke-width="4" stroke-miterlimit="10"/>
<path opacity="0.1" d="M39.1743 54.5601C39.1743 54.5601 48.2372 56.6574 56.0819 54.5601C63.9267 52.4629 80.9125 52.5759 83.0676 54.5601" stroke="black" stroke-width="4" stroke-miterlimit="10"/>
<path opacity="0.1" d="M39.1743 61.3587C39.1743 61.3587 48.2372 63.4559 56.0819 61.3587C63.9267 59.2615 78.33 52.4008 83.0676 61.3587" stroke="black" stroke-width="4" stroke-miterlimit="10"/>
<path opacity="0.1" d="M39.1743 65.2183C39.1743 65.2183 48.2372 67.3156 56.0819 65.2183C63.9267 63.1211 80.9125 63.2341 83.0676 65.2183" stroke="black" stroke-width="4" stroke-miterlimit="10"/>
<path opacity="0.1" d="M133.769 50.7044C133.769 50.7044 124.706 52.8016 116.861 50.7044C109.017 48.6072 94.6134 41.7465 89.8757 50.7044" stroke="black" stroke-width="4" stroke-miterlimit="10"/>
<path opacity="0.1" d="M133.769 54.5601C133.769 54.5601 124.706 56.6574 116.861 54.5601C109.017 52.4629 92.0308 52.5759 89.8757 54.5601" stroke="black" stroke-width="4" stroke-miterlimit="10"/>
<path opacity="0.1" d="M133.769 61.3587C133.769 61.3587 124.706 63.4559 116.861 61.3587C109.017 59.2615 94.6134 52.4008 89.8757 61.3587" stroke="black" stroke-width="4" stroke-miterlimit="10"/>
<path opacity="0.1" d="M133.769 65.2183C133.769 65.2183 124.706 67.3156 116.861 65.2183C109.017 63.1211 92.0308 63.2341 89.8757 65.2183" stroke="black" stroke-width="4" stroke-miterlimit="10"/>
<path d="M133.953 106.039C134.332 105.752 134.691 105.412 134.801 105.001C134.857 104.783 134.827 104.551 134.717 104.355C134.607 104.158 134.425 104.011 134.209 103.943C133.666 103.775 133.086 104.08 132.644 104.389C132.203 104.698 131.7 105.051 131.124 104.986C131.72 104.556 132.006 103.856 131.84 103.228C131.812 103.091 131.742 102.966 131.641 102.87C131.339 102.607 130.792 102.72 130.431 102.926C129.282 103.583 128.962 104.85 128.956 105.992C128.84 105.58 128.938 105.152 128.934 104.728C128.931 104.305 128.789 103.838 128.351 103.611C128.07 103.49 127.766 103.432 127.46 103.441C126.945 103.426 126.368 103.468 126.016 103.775C125.579 104.152 125.692 104.796 126.073 105.216C126.454 105.635 127.034 105.899 127.567 106.189C127.975 106.41 128.386 106.667 128.636 107.017C128.667 107.063 128.694 107.113 128.715 107.165H131.952C132.663 106.873 133.335 106.495 133.953 106.039Z" fill="#F50057"/>
<path d="M111.571 60.8154C111.571 60.8154 111.603 60.9962 111.656 61.3177C111.628 61.3679 111.6 61.4182 111.571 61.4671C110.537 63.2002 110.378 65.6968 110.476 67.7463C110.566 69.3993 110.857 71.0354 111.342 72.6189C111.933 74.6769 112.23 76.8077 112.225 78.9483C112.634 79.3889 113.126 79.7456 113.672 79.9982C113.7 80.0823 113.729 80.1677 113.754 80.2493C114.231 81.831 114.553 83.4548 114.716 85.0981L115.042 89.1996C115.042 89.1996 117.535 98.4827 118.293 100.21C118.832 101.438 118.714 103.977 118.6 105.338C118.276 106.254 117.881 107.127 117.533 107.222C116.903 107.4 116.272 108.912 117.19 109.672C117.259 109.729 117.333 109.779 117.411 109.823L117.448 109.843L117.515 109.877L117.613 109.921L117.663 109.94L117.768 109.975L117.813 109.989C117.863 110.002 117.913 110.016 117.967 110.029C118.606 110.154 119.27 110.05 119.839 109.734C120.53 109.631 121.144 109.262 121.604 108.889L121.591 109.543H122.348L122.313 108.236C122.449 108.084 122.525 107.984 122.525 107.984C122.525 107.984 122.547 107.194 122.634 106.275L122.579 109.225H123.335L123.131 103.781C123.169 103.7 123.22 103.625 123.281 103.559C123.912 102.931 122.822 100.905 122.258 100.567C122.511 99.2362 123.473 97.3136 124.582 93.6277C126.208 88.2276 124.149 82.9418 124.149 82.9418V78.7976C124.695 78.564 125.016 78.4045 125.016 78.4045C125.016 78.4045 124.26 73.979 125.016 70.8494C125.507 68.8263 125.634 67.0292 125.224 65.31C125.769 63.4413 126.209 61.9984 126.209 61.9984L126.966 54.2273C127.159 53.0606 127.289 52.0622 127.372 51.2133C127.386 51.1078 127.396 51.001 127.401 50.8956C127.54 49.3145 127.509 48.2583 127.419 47.5676C127.463 47.2511 127.478 46.9312 127.464 46.6119C127.481 46.448 127.488 46.2832 127.484 46.1184C127.593 45.9928 127.698 45.8672 127.799 45.7416C128.068 45.4095 128.296 45.047 128.479 44.6616C129.313 43.0956 129.337 41.183 128.173 39.8028C127.456 38.9526 127.233 38.0371 126.614 37.1317C126.048 36.3028 125.941 35.3094 125.804 34.355C125.636 33.1686 125.404 31.9919 125.111 30.8299C125.024 30.4883 124.547 30.2786 124.31 29.9948C123.852 29.446 122.516 29.4648 121.745 29.343C120.451 29.1383 119.05 28.9474 117.873 29.4535C117.053 29.8064 116.464 30.4481 115.824 31.0145C115.134 31.6236 113.721 31.9174 113.502 32.6471C113.307 32.9259 113.296 33.275 113.628 33.7422C113.948 34.1918 114.453 34.5132 114.923 34.8498C114.984 34.8925 115.04 34.9377 115.1 34.9754C114.94 35.9445 115.097 36.9391 115.548 37.8126C115.999 38.6861 116.719 39.3926 117.603 39.8279C117.59 39.9095 117.576 39.9899 117.561 40.069C117.423 40.7732 117.232 41.4662 116.991 42.1424C116.851 42.5594 115.232 43.2877 114.091 43.7549C113.959 43.6199 113.802 43.512 113.628 43.4372C112.761 43.2212 109.835 44.8399 109.618 45.3799C109.558 45.5306 109.716 45.9476 109.975 46.4725C109.992 46.7117 110.031 46.9488 110.092 47.1808C110.028 48.2859 110.144 50.0692 110.703 52.9363L111.571 60.8154ZM123.74 62.0297C123.7 61.9531 123.658 61.8753 123.614 61.7949C122.41 59.3699 121.695 55.4492 123.42 53.1108C123.574 53.1272 123.728 53.1422 123.881 53.1523C123.984 56.3346 123.924 61.5663 123.924 61.5663C123.924 61.5663 123.856 61.7422 123.74 62.0297ZM119.441 80.5131C119.686 81.7375 119.974 83.1604 120.242 84.4539C120.562 85.96 120.54 87.5182 120.179 89.015L119.16 85.9709L118.923 80.6148L118.908 80.395C119.072 80.3674 119.235 80.3377 119.396 80.3059L119.441 80.5131Z" fill="url(#paint1_linear)"/>
<path d="M120.228 84.2222C120.543 85.7047 120.522 87.2384 120.166 88.7118C120.103 88.9918 120.019 89.2668 119.914 89.5344L120.202 101.176L120.235 102.496C120.501 102.552 120.77 102.591 121.042 102.614C121.293 102.64 121.547 102.64 121.798 102.614C122.05 102.582 122.272 102.507 122.391 102.363C122.509 102.218 122.535 101.986 122.367 101.648C122.182 101.277 122.111 100.86 122.161 100.449C122.171 100.333 122.19 100.211 122.213 100.086C122.465 98.776 123.407 96.8822 124.501 93.2554C126.101 87.9432 124.074 82.7378 124.074 82.7378V77.8476L118.847 77.3164C118.847 77.3164 119.1 78.6325 119.446 80.343C119.681 81.5486 119.963 82.9488 120.228 84.2222Z" fill="#FDC2CC"/>
<path opacity="0.1" d="M120.228 84.2222C120.543 85.7047 120.522 87.2384 120.166 88.7118C120.103 88.9918 120.019 89.2668 119.914 89.5344L120.202 101.176L120.235 102.496C120.501 102.552 120.77 102.591 121.042 102.614C121.293 102.64 121.547 102.64 121.798 102.614C122.05 102.582 122.272 102.507 122.391 102.363C122.509 102.218 122.535 101.986 122.367 101.648C122.182 101.277 122.111 100.86 122.161 100.449C122.171 100.333 122.19 100.211 122.213 100.086C122.465 98.776 123.407 96.8822 124.501 93.2554C126.101 87.9432 124.074 82.7378 124.074 82.7378V77.8476L118.847 77.3164C118.847 77.3164 119.1 78.6325 119.446 80.343C119.681 81.5486 119.963 82.9488 120.228 84.2222Z" fill="black"/>
<path d="M112.974 77.8477C113.318 78.5713 113.608 79.3198 113.84 80.0868C114.309 81.6435 114.626 83.2416 114.787 84.859L115.107 88.8965C115.107 88.8965 117.561 98.0326 118.308 99.733C118.839 100.942 118.723 103.441 118.61 104.784C118.565 105.329 118.521 105.683 118.521 105.683L119.609 104.356L121.035 102.614L121.686 101.819L121.828 101.646C121.656 101.289 121.517 100.918 121.412 100.537C121.082 99.3733 120.865 98.1811 120.763 96.9765C120.443 93.6837 120.337 89.2205 120.337 89.2205L120.168 88.7181L119.159 85.7154L118.926 80.4409L118.839 78.4881L112.974 77.8477Z" fill="#FDC2CC"/>
<path d="M121.226 100.766C120.65 101.512 120.22 102.359 119.957 103.263C119.618 104.413 119.021 106.178 118.521 106.32C117.774 106.532 117.028 108.657 118.947 109.083C120.866 109.509 122.468 107.383 122.468 107.383C122.468 107.383 122.575 103.664 123.214 103.027C123.854 102.391 122.681 100.264 122.147 100.052C121.934 99.9656 121.574 100.317 121.226 100.766Z" fill="#5F5D7E"/>
<path opacity="0.1" d="M118.308 108.764C118.809 108.869 119.331 108.821 119.806 108.628C120.39 108.395 120.897 108.003 121.267 107.496C121.638 106.99 121.858 106.389 121.902 105.764C121.992 104.626 122.184 103.096 122.574 102.708C123.078 102.206 122.448 100.774 121.905 100.09C121.94 100.066 121.98 100.051 122.022 100.044C122.063 100.038 122.106 100.041 122.146 100.052C122.68 100.264 123.854 102.389 123.213 103.027C122.572 103.665 122.466 107.382 122.466 107.382C122.466 107.382 120.869 109.507 118.948 109.08C118.669 109.027 118.407 108.906 118.184 108.73C118.224 108.743 118.265 108.754 118.308 108.764Z" fill="black"/>
<path d="M123.063 103.116L123.269 108.604H122.522L122.625 103.12C122.628 103.064 122.653 103.013 122.694 102.975C122.735 102.938 122.789 102.918 122.845 102.92C122.9 102.918 122.953 102.938 122.994 102.974C123.034 103.011 123.059 103.062 123.063 103.116Z" fill="#5F5D7E"/>
<path opacity="0.15" d="M123.063 103.116L123.269 108.604H122.522L122.625 103.12C122.628 103.064 122.653 103.013 122.694 102.975C122.735 102.938 122.789 102.918 122.845 102.92C122.9 102.918 122.953 102.938 122.994 102.974C123.034 103.011 123.059 103.062 123.063 103.116Z" fill="black"/>
<path d="M120.266 101.085C119.691 101.831 119.261 102.678 118.998 103.582C118.658 104.731 118.062 106.497 117.561 106.639C116.815 106.851 116.068 108.976 117.988 109.402C119.907 109.828 121.508 107.699 121.508 107.699C121.508 107.699 121.615 103.98 122.255 103.344C122.894 102.707 121.721 100.581 121.188 100.369C120.972 100.29 120.614 100.636 120.266 101.085Z" fill="#5F5D7E"/>
<path opacity="0.1" d="M117.348 109.08C117.85 109.185 118.371 109.138 118.846 108.945C119.43 108.712 119.937 108.319 120.308 107.813C120.679 107.306 120.898 106.706 120.942 106.08C121.033 104.942 121.224 103.413 121.614 103.025C122.118 102.522 121.488 101.091 120.946 100.406C120.981 100.383 121.02 100.367 121.062 100.361C121.103 100.354 121.146 100.357 121.187 100.369C121.72 100.581 122.894 102.706 122.253 103.344C121.613 103.982 121.508 107.699 121.508 107.699C121.508 107.699 119.908 109.824 117.987 109.399C117.708 109.346 117.446 109.225 117.223 109.049C117.269 109.061 117.305 109.073 117.348 109.08Z" fill="black"/>
<path d="M122.102 103.429L122.308 108.917H121.556L121.66 103.432C121.662 103.377 121.687 103.325 121.728 103.288C121.769 103.25 121.823 103.231 121.879 103.233C121.935 103.23 121.989 103.248 122.031 103.285C122.073 103.322 122.098 103.373 122.102 103.429Z" fill="#5F5D7E"/>
<path opacity="0.15" d="M122.102 103.429L122.308 108.917H121.556L121.66 103.432C121.662 103.377 121.687 103.325 121.728 103.288C121.769 103.25 121.823 103.231 121.879 103.233C121.935 103.23 121.989 103.248 122.031 103.285C122.073 103.322 122.098 103.373 122.102 103.429Z" fill="black"/>
<path d="M113.081 44.5946L117.348 51.2882L122.362 51.9262C122.362 51.9262 125.455 45.8706 125.349 45.5516C125.243 45.2326 123.642 44.5959 122.149 43.4267C120.656 42.2575 122.469 37.3711 122.469 37.3711L117.562 37.7956C117.581 37.8609 117.6 37.9211 117.614 37.994C117.81 38.8191 117.74 39.7346 117.59 40.5396C117.453 41.2314 117.265 41.9122 117.028 42.5765C116.815 43.2132 113.081 44.5946 113.081 44.5946Z" fill="#FDC2CC"/>
<path opacity="0.1" d="M118.841 77.3164C118.841 77.3164 119.093 78.6325 119.44 80.343C121.028 80.0065 122.579 79.5134 124.069 78.8711V77.8476L118.841 77.3164Z" fill="black"/>
<path opacity="0.1" d="M112.974 77.8477C113.318 78.5713 113.608 79.3198 113.84 80.0868C115.324 80.7536 117.17 80.7348 118.927 80.4372L118.84 78.4844L112.974 77.8477Z" fill="black"/>
<path d="M111.694 61.5925C110.676 63.2992 110.52 65.7543 110.615 67.7787C110.705 69.4053 110.991 71.0153 111.468 72.5735C112.051 74.5992 112.343 76.6965 112.338 78.8037C115.965 82.7344 124.925 78.2724 124.925 78.2724C124.925 78.2724 124.179 73.9172 124.925 70.8354C125.445 68.693 125.556 66.8055 125.029 64.9971C124.786 64.1707 124.428 63.3823 123.966 62.6549C123.825 62.4314 123.687 62.184 123.555 61.919C122.319 59.43 121.605 55.341 123.593 53.0855C123.799 52.8507 124.032 52.6401 124.286 52.4576C126.019 51.208 126.808 49.8203 127.141 48.6461C127.349 47.9166 127.392 47.1501 127.267 46.402C127.054 45.2328 124.067 44.1703 124.067 44.1703C124.174 47.6766 119.693 50.6504 119.693 50.6504C119.693 50.6504 114.573 44.0636 113.72 43.8514C112.868 43.6391 109.986 45.2328 109.773 45.764C109.56 46.2952 112.12 50.226 112.12 50.226C112.12 50.226 113.721 58.193 111.694 61.5925Z" fill="#D39999"/>
<path opacity="0.1" d="M124.282 52.4574C126.015 51.2078 126.805 49.8201 127.137 48.6459C127.054 46.8877 126.633 46.6152 126.633 46.6152C126.633 46.6152 123.108 50.0135 123.429 51.1865C123.502 51.4565 123.555 52.1622 123.589 53.0903C123.795 52.8538 124.028 52.6414 124.282 52.4574Z" fill="black"/>
<path opacity="0.1" d="M118.308 76.6784C119.054 78.9101 122.788 74.9781 122.895 73.2789C122.963 72.1914 124.168 67.9278 125.025 64.998C124.782 64.1716 124.425 63.3832 123.962 62.6558C123.821 62.4323 123.683 62.1849 123.551 61.9199C123.146 62.9108 121.521 66.9721 121.615 68.1802C121.722 69.5617 120.975 71.5798 120.975 71.5798C120.975 71.5798 117.561 74.4468 118.308 76.6784Z" fill="black"/>
<path d="M126.842 46.6133C126.842 46.6133 128.016 47.3567 126.842 54.4748L126.096 62.124C126.096 62.124 123.216 71.5792 123.108 73.2796C123.001 74.98 119.269 78.9095 118.521 76.6791C117.773 74.4488 121.188 71.5792 121.188 71.5792C121.188 71.5792 121.934 69.5611 121.829 68.1797C121.723 66.7983 123.855 61.6996 123.855 61.6996C123.855 61.6996 123.962 52.3512 123.642 51.182C123.322 50.0128 126.842 46.6133 126.842 46.6133Z" fill="#FDC2CC"/>
<path opacity="0.1" d="M111.054 45.7637C111.054 45.7637 109.667 46.0827 111.054 53.2007L111.908 60.9567C111.908 60.9567 113.829 72.1123 113.722 73.3894C113.614 74.6666 117.883 77.9582 118.202 76.1523C118.521 74.3464 116.068 71.3713 116.068 71.3713C116.068 71.3713 114.999 69.0305 114.999 64.674L114.786 61.1677L113.294 48.5265L111.054 45.7637Z" fill="black"/>
<path d="M110.837 45.7637C110.837 45.7637 109.45 46.0827 110.837 53.2007L111.691 60.9567C111.691 60.9567 113.612 72.1123 113.504 73.3894C113.397 74.6666 117.666 77.9582 117.985 76.1523C118.304 74.3464 115.851 71.3713 115.851 71.3713C115.851 71.3713 114.784 69.0342 114.784 64.6777L114.571 61.1715L113.081 48.5265L110.837 45.7637Z" fill="#FDC2CC"/>
<path opacity="0.1" d="M110.148 46.1349C110.148 46.1349 109.507 49.5345 113.987 50.7037C118.468 51.8728 113.454 46.6649 113.454 46.6649C113.454 46.6649 111.748 44.1168 110.148 46.1349Z" fill="black"/>
<path d="M110.254 46.03C110.254 46.03 109.614 49.4283 114.095 50.5975C118.575 51.7667 113.561 46.56 113.561 46.56C113.561 46.56 111.854 44.0107 110.254 46.03Z" fill="#D39999"/>
<path opacity="0.1" d="M127.323 46.1349C127.323 46.1349 127.963 49.5345 123.483 50.7037C119.003 51.8728 124.015 46.6649 124.015 46.6649C124.015 46.6649 125.717 44.1168 127.323 46.1349Z" fill="black"/>
<path d="M127.216 46.03C127.216 46.03 127.861 49.4283 123.376 50.5975C118.89 51.7667 123.909 46.56 123.909 46.56C123.909 46.56 125.615 44.0107 127.216 46.03Z" fill="#D39999"/>
<path opacity="0.1" d="M117.59 40.5402C118.179 40.711 118.838 39.3371 119.535 39.3371C120.272 39.3371 120.967 40.8077 121.582 40.4963C121.762 39.5059 122.023 38.5319 122.362 37.584L117.614 38.0009C117.808 38.821 117.74 39.7352 117.59 40.5402Z" fill="black"/>
<path d="M119.642 40.7697C122.146 40.7697 124.175 38.7484 124.175 36.2549C124.175 33.7615 122.146 31.7402 119.642 31.7402C117.138 31.7402 115.109 33.7615 115.109 36.2549C115.109 38.7484 117.138 40.7697 119.642 40.7697Z" fill="#FDC2CC"/>
<path opacity="0.1" d="M113.718 34.3066C114.033 34.7486 114.53 35.0601 114.993 35.3966C115.565 35.8047 116.105 36.2552 116.609 36.7441C116.966 37.0683 117.27 37.4443 117.513 37.8593C117.873 38.5274 117.921 39.2834 117.964 40.0193L118.404 47.6209C118.433 48.1232 118.462 48.6369 118.333 49.1279C118.203 49.5462 118.019 49.9463 117.787 50.3184C117.206 51.3457 116.608 52.393 115.672 53.2068C115.36 53.4768 114.979 53.826 115.144 54.1801C115.278 54.4652 115.689 54.5568 116.042 54.5983C117.524 54.7967 119.165 54.9662 120.413 54.2467C120.883 53.9754 121.273 53.5861 121.8 53.4178C122.534 53.1855 123.343 53.4279 124.125 53.4266C124.955 53.4266 125.747 53.1516 126.521 52.8803C126.669 52.8429 126.805 52.7666 126.914 52.6593C126.976 52.57 127.015 52.4669 127.027 52.3591C127.144 51.7425 127.255 51.1033 127.063 50.4993C126.855 49.845 126.307 49.2786 126.245 48.6029C126.164 47.6636 127.034 46.8988 127.66 46.1264C128.991 44.4826 129.288 42.1153 127.921 40.494C127.216 39.6577 126.995 38.756 126.386 37.8656C125.829 37.0506 125.723 36.0723 125.589 35.1329C125.423 33.9651 125.195 32.8069 124.906 31.663C124.821 31.3265 124.351 31.1205 124.117 30.8405C123.666 30.3005 122.352 30.3193 121.595 30.1987C120.322 29.9978 118.947 29.8094 117.783 30.308C116.976 30.6546 116.396 31.2875 115.766 31.8439C114.873 32.6376 112.707 32.8862 113.718 34.3066Z" fill="black"/>
<path d="M113.825 34.0937C114.14 34.5357 114.637 34.8472 115.1 35.1837C115.672 35.5926 116.212 36.0439 116.716 36.5338C117.072 36.8579 117.377 37.2339 117.62 37.6489C117.98 38.317 118.028 39.073 118.071 39.809L118.514 47.408C118.543 47.9103 118.572 48.424 118.444 48.915C118.313 49.3333 118.13 49.7334 117.898 50.1055C117.317 51.1328 116.719 52.1801 115.783 52.9939C115.47 53.2639 115.09 53.613 115.255 53.9672C115.388 54.2523 115.8 54.3439 116.153 54.3854C117.634 54.5838 119.276 54.7533 120.523 54.0338C120.994 53.7625 121.383 53.3732 121.91 53.2049C122.644 52.9726 123.454 53.2149 124.236 53.2137C125.065 53.2137 125.857 52.9387 126.632 52.6674C126.78 52.63 126.916 52.5537 127.025 52.4464C127.087 52.3571 127.125 52.254 127.137 52.1462C127.255 51.5296 127.366 50.8904 127.174 50.2864C126.966 49.6321 126.417 49.0657 126.355 48.39C126.275 47.4507 127.145 46.6859 127.77 45.9135C129.102 44.2697 129.398 41.9024 128.031 40.2812C127.326 39.4448 127.106 38.5431 126.497 37.6527C125.939 36.8377 125.833 35.8594 125.7 34.92C125.533 33.7522 125.305 32.594 125.016 31.4502C124.932 31.1136 124.461 30.9076 124.228 30.6276C123.777 30.0876 122.463 30.1064 121.706 29.9859C120.432 29.7849 119.058 29.5965 117.894 30.0951C117.087 30.4417 116.507 31.0747 115.876 31.631C114.974 32.4247 112.813 32.6733 113.825 34.0937Z" fill="#865A61"/>
</g>
<defs>
<filter id="filter0_d" x="0.5" y="0" width="172" height="134" filterUnits="userSpaceOnUse" color-interpolation-filters="sRGB">
<feFlood flood-opacity="0" result="BackgroundImageFix"/>
<feColorMatrix in="SourceAlpha" type="matrix" values="0 0 0 0 0 0 0 0 0 0 0 0 0 0 0 0 0 0 127 0"/>
<feOffset dy="2"/>
<feGaussianBlur stdDeviation="9"/>
<feColorMatrix type="matrix" values="0 0 0 0 0 0 0 0 0 0 0 0 0 0 0 0 0 0 0.25 0"/>
<feBlend mode="normal" in2="BackgroundImageFix" result="effect1_dropShadow"/>
<feBlend mode="normal" in="SourceGraphic" in2="effect1_dropShadow" result="shape"/>
</filter>
<linearGradient id="paint0_linear" x1="86.5" y1="99.5321" x2="86.5" y2="33.2569" gradientUnits="userSpaceOnUse">
<stop stop-color="#808080" stop-opacity="0.25"/>
<stop offset="0.54" stop-color="#808080" stop-opacity="0.12"/>
<stop offset="1" stop-color="#808080" stop-opacity="0.1"/>
</linearGradient>
<linearGradient id="paint1_linear" x1="-17518.9" y1="65523" x2="-17518.9" y2="13339.7" gradientUnits="userSpaceOnUse">
<stop stop-color="#808080" stop-opacity="0.25"/>
<stop offset="0.54" stop-color="#808080" stop-opacity="0.12"/>
<stop offset="1" stop-color="#808080" stop-opacity="0.1"/>
</linearGradient>
<clipPath id="clip0">
<rect width="136" height="98" fill="white" transform="translate(18.5 16)"/>
</clipPath>
</defs>
</svg>
