<svg width="303" height="216" viewBox="0 0 303 216" fill="none" xmlns="http://www.w3.org/2000/svg">
<rect x="-279" y="-47" width="582" height="263" rx="40" fill="#5C184E"/>
<mask id="mask0" mask-type="alpha" maskUnits="userSpaceOnUse" x="-195" y="-30" width="498" height="246">
<rect x="-195" y="-30" width="498" height="246" rx="40" fill="#FFA5A5"/>
</mask>
<g mask="url(#mask0)">
<path d="M288.089 188.268C302.324 164.561 310.019 137.38 310.361 109.59C310.703 81.7991 303.68 54.4295 290.033 30.3661L314.395 5.55098C316.172 3.74033 317.581 1.59076 318.543 -0.775005C319.505 -3.14077 320 -5.67639 320 -8.23708C320 -10.7978 319.505 -13.3334 318.543 -15.6992C317.581 -18.0649 316.172 -20.2145 314.395 -22.0251L288.67 -48.255C286.893 -50.0655 284.784 -51.5017 282.463 -52.4815C280.142 -53.4614 277.655 -53.9657 275.142 -53.9657C272.63 -53.9657 270.142 -53.4614 267.821 -52.4815C265.5 -51.5017 263.391 -50.0655 261.615 -48.255L237.892 -24.0831C214.395 -38.7004 187.435 -46.5217 159.905 -46.7075C132.376 -46.8933 105.316 -39.4366 81.6308 -25.1377L58.9098 -48.2893C57.1335 -50.0998 55.0246 -51.536 52.7036 -52.5158C50.3825 -53.4957 47.8947 -54 45.3824 -54C42.87 -54 40.3822 -53.4957 38.0611 -52.5158C35.7401 -51.536 33.6312 -50.0998 31.8549 -48.2893L6.16339 -22.0509C4.38634 -20.2402 2.97669 -18.0907 2.01496 -15.7249C1.05322 -13.3591 0.558217 -10.8235 0.558217 -8.26281C0.558217 -5.70211 1.05322 -3.16649 2.01496 -0.800728C2.97669 1.56504 4.38634 3.71461 6.16339 5.52525L28.7918 28.5825C16.8103 48.988 9.64845 71.9523 7.87167 95.6621H109.998C112.496 85.7583 117.834 76.8377 125.331 70.039C132.827 63.2403 142.141 58.872 152.085 57.4917C162.028 56.1115 172.15 57.7818 181.158 62.2896C190.166 66.7974 197.651 73.9381 202.658 82.8001L231.817 65.6508C224.44 52.5985 213.813 41.7611 201.01 34.2333C188.207 26.7054 173.681 22.7538 158.899 22.7775C157.704 22.7775 156.509 22.7775 155.323 22.8632L154.237 22.9232C153.395 22.9661 152.554 23.0261 151.712 23.0947L150.551 23.2062C149.659 23.292 148.767 23.3948 147.884 23.5149L147.042 23.6264C145.898 23.7893 144.753 23.9779 143.625 24.1923C143.356 24.1923 143.087 24.2952 142.784 24.3552C141.942 24.5267 141.05 24.7068 140.184 24.904L139.056 25.1784C138.273 25.367 137.499 25.5728 136.725 25.7872L135.673 26.0787C134.655 26.3788 133.653 26.6875 132.652 27.0219L132.408 27.0991C131.339 27.4592 130.287 27.8451 129.235 28.2481L128.226 28.6511C127.494 28.9427 126.778 29.2342 126.055 29.5515L124.961 30.0316C124.22 30.3575 123.488 30.709 122.764 31.0606L121.881 31.4808C120.896 31.9781 119.92 32.484 118.961 33.0156L118.17 33.4615C117.451 33.8674 116.745 34.2789 116.049 34.6963L114.989 35.3479L113.137 36.5398C112.801 36.7627 112.456 36.9857 112.127 37.2172C111.381 37.726 110.641 38.249 109.906 38.7864C109.729 38.9064 109.552 39.0265 109.384 39.1551C108.543 39.7982 107.701 40.4584 106.859 41.1358L105.925 41.9075L104.242 43.3052L103.258 44.1627C102.697 44.6486 102.158 45.1459 101.642 45.6547C101.356 45.9205 101.07 46.1777 100.801 46.4521C100.035 47.1981 99.2774 47.9527 98.5453 48.7244L97.8216 49.5047C97.2999 50.062 96.7865 50.628 96.2816 51.2196L95.4401 52.2486C94.9941 52.7716 94.5565 53.2947 94.1189 53.8349C93.8412 54.1779 93.5551 54.5209 93.2774 54.881C92.7725 55.5155 92.276 56.1672 91.7963 56.8189L91.2241 57.5735C90.6098 58.4309 90.0039 59.2884 89.4148 60.1459C89.1708 60.506 88.9436 60.8747 88.6995 61.2434C88.3208 61.8265 87.9506 62.4096 87.5887 63.0012C87.3447 63.4042 87.1006 63.7987 86.865 64.2017C86.4948 64.8105 86.1413 65.4364 85.7963 66.0538L85.182 67.1513C84.6771 68.0774 84.189 69.0121 83.7262 69.9553H50.0654C58.7986 44.5701 75.7872 22.9904 98.2124 8.7967C120.638 -5.39701 147.151 -11.3515 173.355 -8.07886C199.558 -4.8062 223.876 7.4969 242.273 26.7891C260.67 46.0814 272.041 71.203 274.498 97.9859H186.484C184.037 91.3242 179.348 85.7646 173.253 82.2982C167.157 78.8319 160.052 77.6841 153.203 79.0597C146.354 80.4352 140.208 84.2446 135.859 89.8087C131.511 95.3727 129.243 102.33 129.46 109.439C129.678 116.548 132.366 123.348 137.046 128.625C141.726 133.903 148.093 137.315 155.013 138.253C161.932 139.192 168.954 137.596 174.826 133.749C180.698 129.903 185.038 124.057 187.073 117.253H274.734C272.855 144.393 261.822 170.036 243.507 189.835C225.193 209.633 200.722 222.369 174.244 225.884C147.766 229.398 120.91 223.475 98.2291 209.118C75.5477 194.761 58.4365 172.854 49.7961 147.11H83.7177C84.189 148.062 84.6771 148.997 85.1736 149.923L85.7795 150.994C86.1329 151.62 86.4863 152.255 86.8566 152.872C87.0922 153.267 87.3279 153.661 87.5719 154.047C87.9422 154.656 88.3208 155.247 88.7079 155.839C88.9352 156.199 89.1624 156.559 89.4064 156.911C90.0039 157.768 90.6098 158.686 91.2409 159.552C91.4092 159.783 91.5944 160.006 91.7627 160.246C92.2592 160.907 92.7556 161.567 93.269 162.219L94.1105 163.248C94.5481 163.788 94.9941 164.319 95.4485 164.851L96.29 165.863C96.7949 166.437 97.3167 167.012 97.8468 167.578L98.5453 168.332C99.2858 169.113 100.043 169.867 100.809 170.613C101.087 170.879 101.364 171.145 101.651 171.402C102.181 171.917 102.728 172.414 103.275 172.911L104.259 173.769C104.806 174.24 105.353 174.712 105.942 175.175L106.868 175.938C107.709 176.615 108.551 177.276 109.435 177.927L109.931 178.279C110.663 178.819 111.412 179.342 112.169 179.857C112.498 180.088 112.834 180.311 113.171 180.526C113.785 180.937 114.408 181.332 115.039 181.726C115.384 181.94 115.729 182.163 116.083 182.369C116.789 182.798 117.505 183.227 118.22 183.612L119.003 184.058C119.962 184.59 120.938 185.096 121.923 185.593L122.764 186.013C123.496 186.365 124.228 186.708 124.969 187.042L126.063 187.522C126.787 187.84 127.502 188.131 128.234 188.38L129.244 188.783C130.296 189.186 131.348 189.572 132.416 189.932L132.652 190.009C133.653 190.344 134.663 190.652 135.682 190.952L136.742 191.244C137.508 191.458 138.282 191.664 139.064 191.853L140.192 192.127C141.034 192.324 141.926 192.504 142.801 192.676C143.062 192.736 143.331 192.796 143.642 192.839C144.77 193.053 145.914 193.242 147.059 193.405L147.9 193.516C148.784 193.628 149.676 193.739 150.568 193.825L151.729 193.936C152.571 194.005 153.412 194.065 154.254 194.108L155.339 194.168C156.526 194.219 157.721 194.254 158.916 194.254C173.692 194.271 188.211 190.317 201.008 182.789C213.804 175.262 224.426 164.427 231.8 151.38L202.658 134.248C197.647 143.099 190.163 150.229 181.159 154.728C172.156 159.228 162.042 160.895 152.106 159.515C142.17 158.135 132.862 153.772 125.368 146.981C117.875 140.191 112.536 131.28 110.032 121.386H8.03156C10.0226 144.511 17.1413 166.873 28.8507 186.785L3.60517 212.509C1.82812 214.32 0.418477 216.469 -0.543262 218.835C-1.505 221.201 -2 223.736 -2 226.297C-2 228.858 -1.505 231.393 -0.543262 233.759C0.418477 236.125 1.82812 238.275 3.60517 240.085L29.322 266.289C31.0982 268.1 33.2071 269.536 35.5282 270.516C37.8492 271.496 40.337 272 42.8494 272C45.3618 272 47.8495 271.496 50.1706 270.516C52.4917 269.536 54.6006 268.1 56.3768 266.289L81.6897 240.505C104.818 254.44 131.164 261.862 158.032 262.013C184.9 262.163 211.325 255.037 234.602 241.363L259.057 266.281C260.833 268.091 262.942 269.527 265.263 270.507C267.584 271.487 270.072 271.991 272.584 271.991C275.096 271.991 277.584 271.487 279.905 270.507C282.226 269.527 284.335 268.091 286.111 266.281L311.837 240.077C313.614 238.266 315.023 236.116 315.985 233.751C316.947 231.385 317.442 228.849 317.442 226.289C317.442 223.728 316.947 221.192 315.985 218.826C315.023 216.461 313.614 214.311 311.837 212.5L288.089 188.268Z" fill="#C25077" fill-opacity="0.28"/>
</g>
</svg>
