<svg width="44" height="44" viewBox="0 0 44 44" fill="none" xmlns="http://www.w3.org/2000/svg">
<circle cx="22" cy="22" r="22" fill="#93E1D8"/>
<path d="M29.2684 12.0449H24.518C23.5632 12.0449 22.7865 12.7786 22.7865 13.6803V18.1668C22.7865 19.0685 23.5632 19.8021 24.518 19.8021H29.2684C30.2232 19.8021 30.9999 19.0685 30.9999 18.1668V13.6803C31 12.7786 30.2232 12.0449 29.2684 12.0449ZM28.7742 16.5708H25.0122C24.6337 16.5708 24.3268 16.2811 24.3268 15.9235C24.3268 15.566 24.6337 15.2762 25.0122 15.2762H28.7742C29.1527 15.2762 29.4596 15.566 29.4596 15.9235C29.4596 16.2811 29.1527 16.5708 28.7742 16.5708ZM19.482 12.0449H14.7315C13.7768 12.0449 13 12.7786 13 13.6803V18.1668C13 19.0685 13.7768 19.8021 14.7315 19.8021H19.4819C20.4367 19.8021 21.2134 19.0685 21.2134 18.1668V13.6803C21.2135 12.7786 20.4368 12.0449 19.482 12.0449ZM19.0116 16.5708H17.816V17.7C17.816 18.0575 17.5091 18.3473 17.1306 18.3473C16.7521 18.3473 16.4452 18.0575 16.4452 17.7V16.5708H15.2497C14.8712 16.5708 14.5643 16.2811 14.5643 15.9235C14.5643 15.566 14.8712 15.2762 15.2497 15.2762H16.4452V14.1471C16.4452 13.7895 16.7521 13.4998 17.1306 13.4998C17.5091 13.4998 17.816 13.7895 17.816 14.1471V15.2762H19.0115C19.3901 15.2762 19.6969 15.566 19.6969 15.9235C19.6969 16.2811 19.3901 16.5708 19.0116 16.5708ZM19.482 21.1961H14.7315C13.7768 21.1961 13 21.9297 13 22.8314V27.3178C13 28.2196 13.7768 28.9532 14.7315 28.9532H19.4819C20.4367 28.9532 21.2134 28.2196 21.2134 27.3178V22.8314C21.2135 21.9297 20.4368 21.1961 19.482 21.1961ZM18.9453 25.873C19.213 26.1259 19.213 26.5357 18.9453 26.7884C18.8115 26.9148 18.6361 26.978 18.4607 26.978C18.2853 26.978 18.1099 26.9148 17.9761 26.7884L17.1307 25.99L16.2853 26.7884C16.1515 26.9148 15.9761 26.978 15.8007 26.978C15.6253 26.978 15.4499 26.9148 15.3161 26.7884C15.0484 26.5356 15.0484 26.1258 15.3161 25.873L16.1615 25.0746L15.3161 24.2762C15.0484 24.0233 15.0484 23.6135 15.3161 23.3607C15.5838 23.108 16.0177 23.108 16.2853 23.3607L17.1307 24.1591L17.9761 23.3607C18.2437 23.108 18.6777 23.108 18.9453 23.3607C19.213 23.6136 19.213 24.0234 18.9453 24.2762L18.0999 25.0746L18.9453 25.873ZM29.2684 21.1961H24.518C23.5632 21.1961 22.7865 21.9297 22.7865 22.8314V27.3178C22.7865 28.2196 23.5632 28.9532 24.518 28.9532H29.2684C30.2232 28.9532 30.9999 28.2196 30.9999 27.3178V22.8314C31 21.9297 30.2232 21.1961 29.2684 21.1961ZM26.8932 22.507H26.9999C27.3784 22.507 27.6853 22.7967 27.6853 23.1543C27.6853 23.5118 27.3784 23.8016 26.9999 23.8016H26.8932C26.5147 23.8016 26.2079 23.5118 26.2079 23.1543C26.2079 22.7967 26.5147 22.507 26.8932 22.507ZM26.9998 27.6422H26.8932C26.5146 27.6422 26.2078 27.3525 26.2078 26.9949C26.2078 26.6373 26.5146 26.3476 26.8932 26.3476H26.9998C27.3783 26.3476 27.6852 26.6373 27.6852 26.9949C27.6852 27.3525 27.3783 27.6422 26.9998 27.6422ZM28.7742 25.7219H25.0122C24.6337 25.7219 24.3268 25.4321 24.3268 25.0746C24.3268 24.717 24.6337 24.4273 25.0122 24.4273H28.7742C29.1527 24.4273 29.4596 24.717 29.4596 25.0746C29.4596 25.4321 29.1527 25.7219 28.7742 25.7219Z" fill="#EFEFEF"/>
</svg>
