<svg width="148" height="154" viewBox="0 0 148 154" fill="none" xmlns="http://www.w3.org/2000/svg">
<path fill-rule="evenodd" clip-rule="evenodd" d="M90.2352 16.268C92.2894 13.8568 93.6797 10.9019 93.4474 7.59081C92.778 -1.94936 79.4977 0.149358 76.9145 4.96442C74.3312 9.77947 74.6381 21.9933 77.9768 22.8538C79.3082 23.1971 82.1446 22.3563 85.0314 20.6164L83.2194 33.4354H93.9185L90.2352 16.268Z" fill="#B28B67"/>
<path fill-rule="evenodd" clip-rule="evenodd" d="M86.9065 11.0855C87.2564 10.8451 87.6744 10.699 88.1234 10.699C89.3544 10.699 90.3524 11.7968 90.3524 12.928C90.3524 14.1048 89.7967 15.0147 89.003 15.4008C89.4269 16.2295 89.8531 16.8309 90.3524 16.9401C92.279 16.7452 94.8103 11.9564 94.8103 8.02426C94.8103 3.72036 91.3857 0 85.0029 0C79.2659 0 77.0907 2.36547 76.9786 4.45792C79.437 5.13357 83.7327 5.39374 89.9066 5.34951V5.7953L84.5571 6.24109L83.6655 8.91585C85.084 8.80995 86.0976 9.7829 86.9065 11.0855Z" fill="#191847"/>
<path d="M96.2021 148.471C77.1483 148.471 61.7021 133.472 61.7021 114.971C61.7021 96.4692 77.1483 81.4707 96.2021 81.4707C115.256 81.4707 130.702 96.4692 130.702 114.971C130.702 133.472 115.256 148.471 96.2021 148.471Z" fill="#E6E8EC"/>
<path fill-rule="evenodd" clip-rule="evenodd" d="M22.2757 142.87C30.7307 131.872 37.2726 122.102 40.2166 116.828C45.2575 107.798 49.3638 99.7749 50.6435 96.7188C53.6951 89.4313 42.7847 86.3984 40.4419 89.8258C36.8961 95.0133 28.6389 112.856 17.3549 140.085L22.2757 142.87Z" fill="#B28B67"/>
<path fill-rule="evenodd" clip-rule="evenodd" d="M70.2714 144.93C70.0508 139.299 68.5725 119.891 66.6767 111.053C66.132 108.513 65.5846 106.06 65.0537 103.761C63.4756 96.9272 50.6641 98.6794 52.4692 105.135C56.9646 121.213 64.1753 143.636 64.7325 145.582C65.5135 148.308 70.41 148.468 70.2714 144.93Z" fill="#B28B67"/>
<path fill-rule="evenodd" clip-rule="evenodd" d="M55.7647 88.0031L84.1113 73.573V70.4316H80.7402C53.3161 77.4198 39.1618 81.913 38.5586 83.8817C38.5521 83.9029 38.5461 83.9241 38.5407 83.9453C38.5269 83.9634 38.5133 83.9817 38.5 84C33.0651 91.4745 22.0683 127.268 21 130L31.5 133C35.4838 118.227 56.0264 107.173 55.6879 89.4799C55.7793 88.9609 55.8024 88.4687 55.7647 88.0031Z" fill="#1F28CF"/>
<path fill-rule="evenodd" clip-rule="evenodd" d="M64.9998 100.152C67.5934 99.6329 86.7379 95.5906 88.7817 95.2321C101.983 92.9166 105.833 85.8499 103.557 70.4316H79.2332C75.26 71.573 56.7133 79.8943 45.9998 84.5C38.909 87.5483 41.4998 96.5 43.777 100.152C43.7988 100.327 43.8711 100.447 43.9998 100.5C55.9998 121 56.9998 133.5 60.9998 136L70.4998 134L64.9998 100.152Z" fill="#2B44FF"/>
<path fill-rule="evenodd" clip-rule="evenodd" d="M71.1741 142.559C71.9111 143.775 72.3409 144.708 72.4635 145.357C72.6126 146.147 72.6987 147.325 72.7215 148.89C71.8052 149.063 63.5695 150.618 48.0144 153.554C46.9717 151.553 47.126 150.337 48.4774 149.906C49.8287 149.476 50.949 149.106 51.8382 148.797L62.3554 141.51C62.5578 141.37 62.8355 141.42 62.9758 141.622C62.9782 141.626 62.9805 141.629 62.9828 141.633L64.059 143.284C65.4523 143.64 66.5493 143.742 67.35 143.591C68.0005 143.468 68.8492 143.036 69.8962 142.294C70.298 142.01 70.8545 142.104 71.1391 142.506C71.1514 142.524 71.1631 142.541 71.1741 142.559Z" fill="#E4E4E4"/>
<path fill-rule="evenodd" clip-rule="evenodd" d="M25.9309 139.035C26.1115 140.445 26.1261 141.472 25.9748 142.115C25.7907 142.898 25.3917 144.009 24.7778 145.449C23.87 145.235 15.7115 143.316 0.302459 139.691C0.161098 137.439 0.795303 136.39 2.20508 136.545C3.61485 136.699 4.78882 136.816 5.72698 136.894L18.2959 134.499C18.5378 134.453 18.7712 134.611 18.8173 134.853C18.8181 134.857 18.8188 134.862 18.8195 134.866L19.1334 136.812C20.2628 137.702 21.224 138.24 22.0171 138.427C22.6615 138.578 23.6126 138.528 24.8705 138.274L24.8705 138.274C25.3532 138.177 25.8234 138.489 25.9206 138.972C25.9248 138.993 25.9282 139.014 25.9309 139.035Z" fill="#E4E4E4"/>
<path fill-rule="evenodd" clip-rule="evenodd" d="M52.7354 57.3415L36.8944 65.1074C32.9145 65.4504 29.5142 66.1556 26.6937 67.2231C25.9936 67.6633 25.0672 68.643 27.5968 68.899C30.1263 69.1549 32.7755 69.5379 32.9671 70.4507C33.1586 71.3635 31.466 72.1103 31.9559 73.3835C32.2824 74.2323 34.8189 72.7061 39.5651 68.8051L54.4567 65.5452L52.7354 57.3415Z" fill="#B28B67"/>
<path fill-rule="evenodd" clip-rule="evenodd" d="M49.2747 57.868C47.4971 57.4156 46.0514 57.5374 43.8242 57.868C42.7283 58.0308 42.8391 57.9517 43.0018 59.0476C43.0963 59.6841 43.4801 60.2061 44 60.5C43.5455 60.721 41.6539 61.8642 41.1928 62.0807L43.4301 69.9227C59.6181 65.181 74.5861 62.1019 83.145 51.0133C86.0175 47.2917 87.7971 33.2184 88.9114 28.1824L84.5641 25.4156C75.5957 37.7634 64.4144 49.147 49.2747 57.868Z" fill="#69A1AC"/>
<path fill-rule="evenodd" clip-rule="evenodd" d="M121.999 57.1756L114.148 58.5971C123.26 76.6789 128.141 86.2394 128.79 87.2787C130.249 89.6171 128.776 93.8304 128.22 96.053C131.45 96.8648 130.256 91.9593 134.343 93.0505C138.073 94.0465 141.208 96.4903 144.758 93.3303C145.194 92.9418 145.53 91.7095 144.077 91.0491C140.456 89.4037 135.118 86.348 134.264 85.1829C133.099 83.5941 129.011 74.2584 121.999 57.1756Z" fill="#B28B67"/>
<path fill-rule="evenodd" clip-rule="evenodd" d="M104.617 74.4058C90.6025 75.9455 79.5712 75.9455 71.5235 74.4058C70.5265 74.2151 70.5702 69.917 71.0326 68.7432C78.2331 50.4633 82.9696 37.0816 82.9696 24.3848C84.2908 25.0749 86.6031 25.1783 89.9063 24.695C98.7837 37.7795 102.864 52.7924 104.617 74.4058Z" fill="#191847"/>
<path fill-rule="evenodd" clip-rule="evenodd" d="M107.222 76.5663C107.698 76.1185 107.946 75.4472 107.824 74.7555L107.592 73.4385C107.434 72.5459 106.71 71.896 105.854 71.7943C105.704 71.1255 105.575 70.4612 105.469 69.8017C104.569 64.231 106.106 58.7688 106.034 53.4049C113.202 59.5209 119.633 70.0816 125.326 85.0869L133.745 82.6093C133.424 81.4159 133.091 80.237 132.747 79.0728C133.719 78.5208 134.854 75.9904 134.037 75.567C133.193 75.1297 132.299 74.8219 131.357 74.6408C123.637 51.3886 111.013 34.3833 93.4839 23.625H91.933L88.414 23.625C89.9067 43.365 69.2889 86.4616 76.4479 123.268C89.6803 126.223 108.571 117.029 126.96 124.374C126.275 109.552 112.569 92.1392 107.222 76.5663Z" fill="#89C5CC"/>
<path fill-rule="evenodd" clip-rule="evenodd" d="M91.6435 24.0703L93.9434 31.143L89.3119 36.4451L93.4976 40.6117L83.3711 57.9505L95.7546 40.6463L91.6435 36.4451L95.7546 31.7595L91.6435 24.0703Z" fill="black" fill-opacity="0.1"/>
<path fill-rule="evenodd" clip-rule="evenodd" d="M86.3399 64.6386C87.3247 64.6386 88.123 63.8403 88.123 62.8554C88.123 61.8706 87.3247 61.0723 86.3399 61.0723C85.3551 61.0723 84.5567 61.8706 84.5567 62.8554C84.5567 63.8403 85.3551 64.6386 86.3399 64.6386ZM84.1109 74.8918C85.0957 74.8918 85.8941 74.0935 85.8941 73.1087C85.8941 72.1238 85.0957 71.3255 84.1109 71.3255C83.1261 71.3255 82.3277 72.1238 82.3277 73.1087C82.3277 74.0935 83.1261 74.8918 84.1109 74.8918ZM83.6651 85.1451C84.6499 85.1451 85.4483 84.3467 85.4483 83.3619C85.4483 82.3771 84.6499 81.5787 83.6651 81.5787C82.6803 81.5787 81.882 82.3771 81.882 83.3619C81.882 84.3467 82.6803 85.1451 83.6651 85.1451Z" fill="black" fill-opacity="0.4"/>
</svg>
