<svg width="1368" height="804" viewBox="0 0 1368 804" fill="none" xmlns="http://www.w3.org/2000/svg">
<rect x="-296" y="-191" width="1664" height="991" rx="196" fill="#5C184E"/>
<mask id="mask0" mask-type="alpha" maskUnits="userSpaceOnUse" x="-298" y="-171" width="1664" height="975">
<rect x="-298" y="-171" width="1664" height="975" rx="196" fill="#FFA5A5"/>
</mask>
<g mask="url(#mask0)">
<path d="M1356.38 701.053C1410.08 611.315 1439.11 508.426 1440.4 403.232C1441.69 298.037 1415.2 194.436 1363.71 103.349L1455.62 9.41689C1462.32 2.56311 1467.64 -5.57362 1471.27 -14.5287C1474.9 -23.4838 1476.76 -33.0818 1476.76 -42.7747C1476.76 -52.4677 1474.9 -62.0657 1471.27 -71.0208C1467.64 -79.9758 1462.32 -88.1126 1455.62 -94.9663L1358.57 -194.254C1351.87 -201.107 1343.91 -206.543 1335.15 -210.252C1326.4 -213.961 1317.01 -215.87 1307.53 -215.87C1298.06 -215.87 1288.67 -213.961 1279.92 -210.252C1271.16 -206.543 1263.2 -201.107 1256.5 -194.254L1167.01 -102.756C1078.36 -158.087 976.654 -187.693 872.797 -188.396C768.94 -189.099 666.856 -160.874 577.502 -106.748L491.786 -194.384C485.085 -201.237 477.129 -206.673 468.372 -210.382C459.616 -214.091 450.231 -216 440.753 -216C431.275 -216 421.889 -214.091 413.133 -210.382C404.377 -206.673 396.421 -201.237 389.72 -194.384L292.797 -95.0637C286.093 -88.2099 280.775 -80.0732 277.147 -71.1181C273.518 -62.1631 271.651 -52.565 271.651 -42.8721C271.651 -33.1792 273.518 -23.5811 277.147 -14.6261C280.775 -5.67099 286.093 2.46574 292.797 9.31952L378.164 96.5977C332.963 173.838 305.944 260.764 299.241 350.512H684.52C693.945 313.024 714.082 279.257 742.362 253.522C770.641 227.787 805.781 211.252 843.294 206.027C880.807 200.802 918.992 207.125 952.974 224.188C986.957 241.251 1015.19 268.281 1034.08 301.826L1144.09 236.911C1116.26 187.505 1076.17 146.482 1027.87 117.987C979.566 89.4922 924.766 74.5341 869.001 74.6239C864.493 74.6239 859.985 74.624 855.508 74.9485L851.413 75.1757C848.238 75.338 845.064 75.5652 841.889 75.8248L837.508 76.2468C834.143 76.5714 830.778 76.9609 827.444 77.4153L824.27 77.8372C819.952 78.4539 815.634 79.168 811.38 79.9794C810.364 79.9794 809.349 80.3689 808.206 80.5961C805.031 81.2452 801.666 81.9268 798.396 82.6734L794.142 83.712C791.189 84.4261 788.269 85.205 785.348 86.0165L781.38 87.1201C777.538 88.2561 773.76 89.4245 769.983 90.6904L769.062 90.9825C765.03 92.3457 761.062 93.8063 757.093 95.3318L753.284 96.8573C750.522 97.9609 747.823 99.0644 745.093 100.265L740.966 102.083C738.172 103.316 735.41 104.647 732.68 105.978L729.347 107.568C725.632 109.451 721.95 111.366 718.331 113.378L715.346 115.066C712.637 116.602 709.971 118.16 707.346 119.74L703.346 122.207L696.362 126.718C695.092 127.562 693.79 128.406 692.552 129.282C689.737 131.208 686.944 133.188 684.171 135.222C683.504 135.676 682.838 136.131 682.203 136.618C679.028 139.052 675.853 141.551 672.679 144.115L669.155 147.037L662.805 152.327L659.091 155.573C656.975 157.412 654.943 159.295 652.996 161.22C651.916 162.227 650.837 163.2 649.821 164.239C646.932 167.063 644.075 169.919 641.313 172.84L638.583 175.794C636.614 177.904 634.678 180.046 632.773 182.285L629.598 186.18C627.916 188.16 626.265 190.14 624.614 192.185C623.566 193.483 622.487 194.781 621.439 196.145C619.535 198.547 617.662 201.013 615.852 203.48L613.693 206.336C611.376 209.582 609.09 212.828 606.868 216.074C605.947 217.437 605.09 218.832 604.169 220.228C602.741 222.435 601.344 224.642 599.979 226.882C599.058 228.407 598.137 229.9 597.248 231.426C595.852 233.73 594.518 236.1 593.217 238.437L590.899 242.591C588.994 246.097 587.153 249.635 585.407 253.205H458.42C491.366 157.115 555.457 75.43 640.057 21.7028C724.658 -32.0243 824.682 -54.5637 923.536 -42.1758C1022.39 -29.7879 1114.13 16.7827 1183.53 89.8091C1252.94 162.836 1295.83 257.928 1305.11 359.308H973.067C963.837 334.092 946.147 313.048 923.152 299.926C900.156 286.805 873.35 282.461 847.513 287.668C821.676 292.874 798.487 307.294 782.082 328.355C765.677 349.417 757.121 375.751 757.941 402.661C758.761 429.572 768.903 455.311 786.559 475.287C804.215 495.264 828.236 508.18 854.34 511.732C880.444 515.285 906.934 509.243 929.086 494.684C951.238 480.124 967.612 457.995 975.289 432.24H1305.99C1298.9 534.973 1257.28 632.038 1188.19 706.981C1119.1 781.924 1026.78 830.134 926.891 843.437C827.002 856.74 725.687 834.319 640.12 779.974C554.553 725.629 490 642.704 457.404 545.257H585.375C587.153 548.86 588.994 552.398 590.867 555.903L593.153 559.96C594.486 562.33 595.82 564.732 597.217 567.069C598.106 568.562 598.994 570.055 599.915 571.515C601.312 573.82 602.741 576.059 604.201 578.299C605.058 579.662 605.915 581.025 606.836 582.356C609.09 585.602 611.376 589.075 613.757 592.353C614.392 593.229 615.09 594.073 615.725 594.982C617.598 597.481 619.471 599.98 621.408 602.447L624.582 606.342C626.233 608.387 627.916 610.399 629.63 612.412L632.805 616.242C634.71 618.416 636.678 620.591 638.678 622.733L641.313 625.589C644.107 628.543 646.964 631.399 649.853 634.223C650.9 635.229 651.948 636.235 653.027 637.209C655.028 639.157 657.091 641.039 659.155 642.922L662.869 646.167C664.933 647.953 666.996 649.738 669.218 651.491L672.71 654.379C675.885 656.943 679.06 659.443 682.393 661.909L684.266 663.24C687.028 665.285 689.854 667.265 692.711 669.212C693.949 670.089 695.219 670.932 696.489 671.744C698.806 673.302 701.156 674.795 703.537 676.288C704.838 677.099 706.14 677.943 707.473 678.722C710.14 680.345 712.838 681.968 715.537 683.429L718.489 685.116C722.108 687.129 725.791 689.044 729.505 690.926L732.68 692.517C735.442 693.847 738.204 695.146 740.998 696.412L745.125 698.229C747.855 699.43 750.554 700.534 753.315 701.475L757.125 703C761.093 704.526 765.062 705.987 769.094 707.35L769.983 707.642C773.76 708.908 777.57 710.076 781.411 711.212L785.411 712.316C788.3 713.127 791.221 713.906 794.174 714.62L798.428 715.659C801.602 716.405 804.967 717.087 808.269 717.736C809.253 717.963 810.269 718.191 811.444 718.353C815.698 719.164 820.015 719.878 824.333 720.495L827.508 720.917C830.841 721.339 834.206 721.761 837.571 722.086L841.953 722.507C845.127 722.767 848.302 722.994 851.477 723.157L855.572 723.384C860.048 723.579 864.556 723.708 869.064 723.708C924.808 723.775 979.582 708.806 1027.86 680.312C1076.13 651.819 1116.2 610.808 1144.02 561.421L1034.08 496.571C1015.18 530.073 986.944 557.061 952.979 574.095C919.014 591.128 880.857 597.436 843.372 592.213C805.888 586.991 770.773 570.474 742.505 544.77C714.236 519.066 694.095 485.337 684.647 447.885H299.845C307.356 535.418 334.212 620.064 378.386 695.438L283.146 792.81C276.442 799.664 271.124 807.801 267.496 816.756C263.867 825.711 262 835.309 262 845.002C262 854.695 263.867 864.293 267.496 873.248C271.124 882.203 276.442 890.34 283.146 897.193L380.164 996.384C386.865 1003.24 394.821 1008.67 403.577 1012.38C412.334 1016.09 421.719 1018 431.197 1018C440.675 1018 450.06 1016.09 458.817 1012.38C467.573 1008.67 475.529 1003.24 482.23 996.384L577.724 898.784C664.976 951.53 764.369 979.625 865.73 980.196C967.091 980.766 1066.78 953.79 1154.59 902.03L1246.85 996.351C1253.55 1003.2 1261.51 1008.64 1270.26 1012.35C1279.02 1016.06 1288.41 1017.97 1297.88 1017.97C1307.36 1017.97 1316.75 1016.06 1325.5 1012.35C1334.26 1008.64 1342.22 1003.2 1348.92 996.351L1445.97 897.161C1452.67 890.307 1457.99 882.171 1461.62 873.215C1465.24 864.26 1467.11 854.662 1467.11 844.969C1467.11 835.276 1465.24 825.678 1461.62 816.723C1457.99 807.768 1452.67 799.632 1445.97 792.778L1356.38 701.053Z" fill="#C25077" fill-opacity="0.28"/>
</g>
</svg>
