<svg width="160" height="123" viewBox="0 0 160 123" fill="none" xmlns="http://www.w3.org/2000/svg">
<rect x="23.1064" y="48.8018" width="53.6509" height="15.9811" rx="5" fill="#07106D"/>
<rect x="23.1064" y="54.5098" width="101.594" height="68.4906" rx="1" fill="#07106D"/>
<rect x="67.772" y="33.0986" width="5.70755" height="46.295" transform="rotate(-11.7597 67.772 33.0986)" fill="black"/>
<rect x="15.0015" y="78.375" width="5.70755" height="58.217" transform="rotate(-75.6381 15.0015 78.375)" fill="black"/>
<rect x="143.973" y="75.1885" width="5.70755" height="58.217" transform="rotate(76.8808 143.973 75.1885)" fill="black"/>
<path d="M40.0347 57.5416C40.1489 57.1003 40.547 56.792 41.0029 56.792H140.531C141.185 56.792 141.663 57.4093 141.5 58.0424L124.894 122.25C124.78 122.691 124.382 123 123.926 123H24.3975C23.7436 123 23.2656 122.382 23.4293 121.749L40.0347 57.5416Z" fill="#BA1C51"/>
<rect x="92.9482" y="86.8604" width="5.70755" height="58.217" transform="rotate(-129.542 92.9482 86.8604)" fill="black"/>
<rect x="77.269" y="79.4521" width="5.70755" height="57.5846" transform="rotate(134.626 77.269 79.4521)" fill="black"/>
<rect x="95.8242" y="47.0801" width="5.70755" height="31.3139" transform="rotate(20.714 95.8242 47.0801)" fill="black"/>
<rect x="137.572" y="49.1084" width="5.70755" height="19.0531" transform="rotate(164.071 137.572 49.1084)" fill="black"/>
<rect x="35.748" y="34.0938" width="5.70755" height="21.4955" transform="rotate(-169.436 35.748 34.0938)" fill="black"/>
<rect x="76.418" y="27.376" width="5.70755" height="19.0531" transform="rotate(-122.727 76.418 27.376)" fill="black"/>
<circle cx="83.0356" cy="89.3256" r="13.1274" fill="black"/>
<circle cx="83.0404" cy="88.9906" r="7.99057" fill="white"/>
<circle cx="100.48" cy="41.7036" r="7.99057" transform="rotate(6.82287 100.48 41.7036)" fill="black"/>
<circle cx="100.605" cy="41.8284" r="3.99528" transform="rotate(6.82287 100.605 41.8284)" fill="#BA1C51"/>
<circle cx="127.876" cy="24.5815" r="7.99057" transform="rotate(6.82287 127.876 24.5815)" fill="black"/>
<circle cx="128.001" cy="24.7053" r="3.99528" transform="rotate(6.82287 128.001 24.7053)" fill="#BA1C51"/>
<circle cx="9.87157" cy="72.85" r="7.99057" transform="rotate(13.1139 9.87157 72.85)" fill="black"/>
<circle cx="9.98266" cy="72.987" r="3.99528" transform="rotate(13.1139 9.98266 72.987)" fill="#BA1C51"/>
<circle cx="150" cy="75.7235" r="7.99057" transform="rotate(165.633 150 75.7235)" fill="black"/>
<circle cx="149.838" cy="75.6523" r="3.99528" transform="rotate(165.633 149.838 75.6523)" fill="#BA1C51"/>
<circle cx="31.5835" cy="37.991" r="7.99057" transform="rotate(10.4504 31.5835 37.991)" fill="black"/>
<circle cx="31.7014" cy="38.1234" r="3.99528" transform="rotate(10.4504 31.7014 38.1234)" fill="#BA1C51"/>
<circle cx="70.8006" cy="29.1469" r="7.99057" transform="rotate(6.82287 70.8006 29.1469)" fill="black"/>
<circle cx="70.9255" cy="29.2717" r="3.99528" transform="rotate(6.82287 70.9255 29.2717)" fill="#BA1C51"/>
<circle cx="95.9139" cy="10.8833" r="7.99057" transform="rotate(6.82287 95.9139 10.8833)" fill="black"/>
<circle cx="96.0387" cy="11.008" r="3.99528" transform="rotate(6.82287 96.0387 11.008)" fill="#BA1C51"/>
<circle cx="37.0223" cy="8.53683" r="7.99057" transform="rotate(4.06443 37.0223 8.53683)" fill="black"/>
<circle cx="37.0695" cy="8.70609" r="3.99528" transform="rotate(36.4203 37.0695 8.70609)" fill="#BA1C51"/>
</svg>
