<svg width="206" height="121" viewBox="0 0 206 121" fill="none" xmlns="http://www.w3.org/2000/svg">
<path d="M22.0811 3C22.0811 1.34315 23.4242 0 25.0811 0H157.744C160.505 0 162.744 2.23858 162.744 5V70.0875C162.744 70.6398 162.296 71.0875 161.744 71.0875H23.0811C22.5288 71.0875 22.0811 70.6398 22.0811 70.0875V3Z" fill="black"/>
<path d="M32.6685 70.0879V57.5467C32.6685 56.8117 31.9022 56.3278 31.2386 56.6438L4.90201 69.185C3.93984 69.6432 4.26626 71.0879 5.33195 71.0879H31.6685C32.2208 71.0879 32.6685 70.6402 32.6685 70.0879Z" fill="black"/>
<rect x="32.6687" y="8.0752" width="121" height="6.05" rx="1" fill="#BA1C51"/>
<rect x="32.6687" y="18.6621" width="121" height="6.05" rx="1" fill="#BA1C51"/>
<rect x="32.6687" y="29.25" width="121" height="6.05" rx="1" fill="#BA1C51"/>
<rect x="32.6687" y="39.8379" width="121" height="6.05" rx="1" fill="#BA1C51"/>
<rect x="32.906" y="50" width="121" height="6.05" rx="1" fill="#BA1C51"/>
<path d="M183.919 52.9121C183.919 51.2553 182.576 49.9121 180.919 49.9121H48.2564C45.495 49.9121 43.2564 52.1507 43.2564 54.9121V116C43.2564 118.761 45.495 121 48.2564 121H182.919C183.471 121 183.919 120.552 183.919 120V52.9121Z" fill="#BA1C51"/>
<path d="M173.331 120V107.459C173.331 106.724 174.098 106.24 174.761 106.556L201.098 119.097C202.06 119.555 201.733 121 200.668 121H174.331C173.779 121 173.331 120.552 173.331 120Z" fill="#BA1C51"/>
<rect x="52.3315" y="68.5742" width="121" height="6.05" rx="1" fill="#07106D"/>
<rect x="52.3315" y="57.9873" width="121" height="6.05" rx="1" fill="#07106D"/>
<circle cx="102.669" cy="45.8875" r="31.7625" fill="white"/>
<path d="M89.9062 66.0127C89.9062 63.2513 92.1448 61.0127 94.9063 61.0127H110.619C113.38 61.0127 115.619 63.2513 115.619 66.0127V104.5C115.619 107.262 113.38 109.5 110.619 109.5H94.9062C92.1448 109.5 89.9062 107.262 89.9062 104.5V66.0127Z" fill="white"/>
<rect x="86.9998" y="85" width="31" height="5" rx="2" fill="white"/>
<rect x="86.9998" y="96" width="31" height="4.5" rx="2" fill="white"/>
<rect x="93.406" y="40" width="4" height="35" rx="1" fill="#BA1C51"/>
<path d="M94.0732 55.4704L89.5778 57.057C88.6882 57.371 88.6882 58.629 89.5778 58.943L94.0732 60.5296C94.7238 60.7592 95.406 60.2766 95.406 59.5866V56.4134C95.406 55.7234 94.7238 55.2408 94.0732 55.4704Z" fill="#BA1C51"/>
<rect x="93.406" y="40" width="7" height="4" rx="1" fill="#BA1C51"/>
<rect x="93.406" y="71" width="7" height="4" rx="1" fill="#BA1C51"/>
<rect width="4" height="35" rx="1" transform="matrix(-1 0 0 1 111.906 40)" fill="#BA1C51"/>
<path d="M111.239 55.4704L115.734 57.057C116.624 57.371 116.624 58.629 115.734 58.943L111.239 60.5296C110.588 60.7592 109.906 60.2766 109.906 59.5866V56.4134C109.906 55.7234 110.588 55.2408 111.239 55.4704Z" fill="#BA1C51"/>
<rect width="7" height="4" rx="1" transform="matrix(-1 0 0 1 111.906 40)" fill="#BA1C51"/>
<rect width="7" height="4" rx="1" transform="matrix(-1 0 0 1 111.906 71)" fill="#BA1C51"/>
<rect x="52.3308" y="79.1621" width="121" height="6.05" rx="1" fill="#07106D"/>
<rect x="51.9998" y="90" width="121" height="6.05" rx="1" fill="#07106D"/>
<rect x="51.9998" y="100.587" width="121" height="6.05" rx="1" fill="#07106D"/>
</svg>
