<svg width="120" height="121" viewBox="0 0 120 121" fill="none" xmlns="http://www.w3.org/2000/svg">
<rect x="77.0762" y="80" width="42.1548" height="36" rx="2" fill="black"/>
<rect x="96.5444" y="87" width="5" height="5" rx="1" fill="#BA1C51"/>
<path d="M101.108 96.4401L98.1767 95.8002C97.6371 95.6824 97.1042 96.0243 96.9864 96.5639L94.7046 107.015C94.4936 107.982 95.6644 108.635 96.3762 107.948L100.267 104.191C100.409 104.054 100.507 103.878 100.549 103.685L101.871 97.6304C101.989 97.0908 101.647 96.5579 101.108 96.4401Z" fill="#BA1C51"/>
<rect x="0.768799" y="80" width="73.3806" height="36" rx="2" fill="#BA1C51"/>
<path d="M18.0002 88C18.0002 87.4477 18.448 87 19.0002 87H22.0002C22.5525 87 23.0002 87.4477 23.0002 88V99V110C23.0002 110.552 22.5525 111 22.0002 111H19.0002C18.448 111 18.0002 110.552 18.0002 110V88Z" fill="#07106D"/>
<path d="M32 96C32.5523 96 33 96.4477 33 97L33 100C33 100.552 32.5523 101 32 101L21 101L10 101C9.44772 101 9 100.552 9 100L9 97C9 96.4477 9.44772 96 10 96L32 96Z" fill="#07106D"/>
<path d="M50 88C50 87.4477 50.4477 87 51 87H54C54.5523 87 55 87.4477 55 88V94V100C55 100.552 54.5523 101 54 101H51C50.4477 101 50 100.552 50 100V88Z" fill="#07106D"/>
<path d="M40.9511 98.0639C40.4258 97.8932 40.1384 97.3291 40.309 96.8038L41.2361 93.9507C41.4067 93.4254 41.9709 93.138 42.4961 93.3086L48.2025 95.1627L53.9088 97.0168C54.4341 97.1875 54.7215 97.7516 54.5509 98.2769L53.6238 101.13C53.4531 101.655 52.889 101.943 52.3637 101.772L40.9511 98.0639Z" fill="#07106D"/>
<path d="M46.6327 110.457C46.3081 110.903 45.6827 111.002 45.2359 110.678L42.8089 108.914C42.362 108.59 42.263 107.964 42.5876 107.518L46.1143 102.664L49.641 97.8095C49.9657 97.3627 50.591 97.2636 51.0378 97.5882L53.4649 99.3516C53.9117 99.6762 54.0108 100.302 53.6861 100.748L46.6327 110.457Z" fill="#07106D"/>
<path d="M61.6866 107.517C62.0113 107.964 61.9122 108.589 61.4654 108.914L59.0383 110.677C58.5915 111.002 57.9662 110.903 57.6415 110.456L54.1148 105.602L50.5881 100.748C50.2635 100.301 50.3625 99.6757 50.8094 99.3511L53.2364 97.5877C53.6832 97.2631 54.3086 97.3621 54.6332 97.809L61.6866 107.517Z" fill="#07106D"/>
<path d="M63.3634 93.309C63.8887 93.1384 64.4528 93.4258 64.6235 93.9511L65.5505 96.8042C65.7212 97.3295 65.4337 97.8936 64.9085 98.0643L59.2021 99.9184L53.4958 101.773C52.9705 101.943 52.4064 101.656 52.2357 101.13L51.3087 98.2773C51.138 97.752 51.4255 97.1879 51.9507 97.0172L63.3634 93.309Z" fill="#07106D"/>
<rect x="21.0002" y="40" width="78.8452" height="36" rx="2" fill="black"/>
<path d="M91 69C91 69.5523 90.5523 70 90 70L87 70C86.4477 70 86 69.5523 86 69L86 58L86 47C86 46.4477 86.4477 46 87 46L90 46C90.5523 46 91 46.4477 91 47L91 69Z" fill="#BA1C51"/>
<path d="M82 70C81.4477 70 81 69.5523 81 69L81 66C81 65.4477 81.4477 65 82 65L86 65L90 65C90.5523 65 91 65.4477 91 66L91 69C91 69.5523 90.5523 70 90 70L82 70Z" fill="#BA1C51"/>
<path d="M82 51C81.4477 51 81 50.5523 81 50L81 47C81 46.4477 81.4477 46 82 46L86 46L90 46C90.5523 46 91 46.4477 91 47L91 50C91 50.5523 90.5523 51 90 51L82 51Z" fill="#BA1C51"/>
<path d="M29 47C29 46.4477 29.4477 46 30 46H33C33.5523 46 34 46.4477 34 47V58V69C34 69.5523 33.5523 70 33 70H30C29.4477 70 29 69.5523 29 69V47Z" fill="#BA1C51"/>
<path d="M38 46C38.5523 46 39 46.4477 39 47L39 50C39 50.5523 38.5523 51 38 51L34 51L30 51C29.4477 51 29 50.5523 29 50L29 47C29 46.4477 29.4477 46 30 46L38 46Z" fill="#BA1C51"/>
<path d="M38 65C38.5523 65 39 65.4477 39 66L39 69C39 69.5523 38.5523 70 38 70L34 70L30 70C29.4477 70 29 69.5523 29 69L29 66C29 65.4477 29.4477 65 30 65L38 65Z" fill="#BA1C51"/>
<rect x="20.5842" width="41" height="36" rx="2" fill="#BA1C51"/>
<path d="M53 5C53.5523 5 54 5.44772 54 6L54 9C54 9.55228 53.5523 10 53 10L41.5 10L30 10C29.4477 10 29 9.55228 29 9L29 6C29 5.44771 29.4477 5 30 5L53 5Z" fill="black"/>
<path d="M53 15C53.5523 15 54 15.4477 54 16L54 19C54 19.5523 53.5523 20 53 20L40 20C39.4477 20 39 19.5523 39 19L39 16C39 15.4477 39.4477 15 40 15L53 15Z" fill="black"/>
<path d="M54 17C54 17.5523 53.5523 18 53 18L50 18C49.4477 18 49 17.5523 49 17L49 6C49 5.44771 49.4477 5 50 5L53 5C53.5523 5 54 5.44772 54 6L54 17Z" fill="black"/>
<path d="M44 23C44 23.5523 43.5523 24 43 24L40 24C39.4477 24 39 23.5523 39 23L39 16C39 15.4477 39.4477 15 40 15L43 15C43.5523 15 44 15.4477 44 16L44 23Z" fill="black"/>
<path d="M44 30C44 30.5523 43.5523 31 43 31L40 31C39.4477 31 39 30.5523 39 30L39 27C39 26.4477 39.4477 26 40 26L43 26C43.5523 26 44 26.4477 44 27L44 30Z" fill="black"/>
<path d="M34 12C34 12.5523 33.5523 13 33 13L30 13C29.4477 13 29 12.5523 29 12L29 7C29 6.44772 29.4477 6 30 6L33 6C33.5523 6 34 6.44772 34 7L34 12Z" fill="black"/>
<path d="M55.1191 20.2969H58.2417L71.5127 121H68.3901L55.1191 20.2969Z" fill="white"/>
<path d="M71.5127 20.2969H74.6353L87.9062 121H84.7837L71.5127 20.2969Z" fill="white"/>
<rect x="59.8027" y="32.7871" width="15.6129" height="1.56129" fill="white"/>
<rect x="62.9258" y="63.2324" width="15.6129" height="1.56129" fill="white"/>
<rect x="61.3643" y="53.084" width="15.6129" height="1.56129" fill="white"/>
<rect x="59.8027" y="42.9355" width="15.6129" height="1.56129" fill="white"/>
<rect x="64.4863" y="73.3809" width="15.6129" height="1.56129" fill="white"/>
<rect x="67.6094" y="103.826" width="15.6129" height="1.56129" fill="white"/>
<rect x="66.0479" y="93.6777" width="15.6129" height="1.56129" fill="white"/>
<rect x="64.4863" y="83.5293" width="15.6129" height="1.56129" fill="white"/>
</svg>
