<svg width="272" height="256" viewBox="0 0 272 256" fill="none" xmlns="http://www.w3.org/2000/svg">
<g clip-path="url(#clip0)">
<path d="M197.473 145.27V215.988L209.308 235.266L210.209 236.732H256.906L257.849 145.27H197.473Z" fill="#E5E5E5"/>
<path opacity="0.1" d="M197.473 145.27V215.988L209.308 235.266L210.034 145.27H197.473Z" fill="#262424"/>
<path d="M84.7398 143.384V214.102L72.905 233.38L72.0044 234.846H25.3073L24.3638 143.384H84.7398Z" fill="#E5E5E5"/>
<path opacity="0.1" d="M84.7398 143.384V214.102L72.905 233.38L72.1787 143.384H84.7398Z" fill="#262424"/>
<path d="M272 141.97V146.212H18.2318V140.083L41.8161 127.826H251.246L272 141.97Z" fill="#E5E5E5"/>
<path opacity="0.1" d="M272 141.97V146.212H18.2318V140.083L272 141.97Z" fill="#262424"/>
<path d="M54.5519 163.185H43.2311L38.5143 159.885H59.7404L54.5519 163.185Z" fill="#262424"/>
<path d="M54.5519 176.857H43.2311L38.5143 173.557H59.7404L54.5519 176.857Z" fill="#262424"/>
<path d="M54.5519 196.187H43.2311L38.5143 192.886H59.7404L54.5519 196.187Z" fill="#262424"/>
<path d="M54.5519 215.517H43.2311L38.5143 212.216H59.7404L54.5519 215.517Z" fill="#262424"/>
<path d="M227.661 165.071H238.982L243.699 161.771H222.473L227.661 165.071Z" fill="#262424"/>
<path d="M227.661 178.743H238.982L243.699 175.443H222.473L227.661 178.743Z" fill="#262424"/>
<path d="M227.661 198.073H238.982L243.699 194.773H222.473L227.661 198.073Z" fill="#262424"/>
<path d="M227.661 217.402H238.982L243.699 214.102H222.473L227.661 217.402Z" fill="#262424"/>
<path d="M131.614 46.0469H36.311C35.8377 46.0468 35.369 46.14 34.9317 46.321C34.4944 46.502 34.097 46.7673 33.7623 47.1019C33.4276 47.4364 33.1621 47.8336 32.981 48.2707C32.7999 48.7078 32.7067 49.1762 32.7068 49.6494V113.816C32.7067 114.29 32.7999 114.758 32.981 115.195C33.1621 115.632 33.4276 116.029 33.7623 116.364C34.097 116.698 34.4944 116.964 34.9317 117.145C35.369 117.326 35.8377 117.419 36.311 117.419H72.4889L71.1335 126.068C71.1335 126.068 63.3877 130.181 68.834 130.302C74.2803 130.423 99.9385 130.302 99.9385 130.302C99.9385 130.302 104.901 130.302 97.0338 125.947L95.7588 117.419H131.614C132.088 117.419 132.556 117.326 132.994 117.145C133.431 116.964 133.828 116.698 134.163 116.364C134.498 116.029 134.763 115.632 134.944 115.195C135.125 114.758 135.218 114.29 135.218 113.816V49.6494C135.218 49.1762 135.125 48.7078 134.944 48.2707C134.763 47.8336 134.498 47.4364 134.163 47.1019C133.828 46.7673 133.431 46.502 132.994 46.321C132.556 46.14 132.088 46.0468 131.614 46.0469Z" fill="#262424"/>
<path d="M131.769 49.8574H36.1562V103.326H131.769V49.8574Z" fill="#F6F6F6"/>
<path d="M83.9627 48.7682C84.2969 48.7682 84.5678 48.4975 84.5678 48.1636C84.5678 47.8297 84.2969 47.559 83.9627 47.559C83.6285 47.559 83.3575 47.8297 83.3575 48.1636C83.3575 48.4975 83.6285 48.7682 83.9627 48.7682Z" fill="#F6F6F6"/>
<path d="M83.9626 114.818C85.2326 114.818 86.2622 113.789 86.2622 112.52C86.2622 111.25 85.2326 110.221 83.9626 110.221C82.6926 110.221 81.6631 111.25 81.6631 112.52C81.6631 113.789 82.6926 114.818 83.9626 114.818Z" fill="#F6F6F6"/>
<path d="M120.286 136.835V138.044H55.172V137.077L55.2615 136.835L56.8663 132.48H118.954L120.286 136.835Z" fill="#262424"/>
<path d="M145.343 135.65C145.225 136.157 144.777 136.692 143.765 137.197C140.134 139.012 132.751 136.714 132.751 136.714C132.751 136.714 127.063 135.746 127.063 133.205C127.223 133.096 127.389 132.997 127.562 132.909C129.088 132.102 134.15 130.11 143.124 132.993C143.785 133.201 144.376 133.588 144.83 134.111C145.031 134.309 145.183 134.551 145.272 134.819C145.361 135.086 145.386 135.371 145.343 135.65Z" fill="#262424"/>
<path opacity="0.1" d="M145.343 135.65C140.899 137.352 136.938 137.479 132.873 134.657C131.335 133.521 129.474 132.908 127.562 132.909C129.088 132.102 134.15 130.11 143.124 132.993C143.785 133.201 144.376 133.588 144.83 134.111C145.031 134.309 145.183 134.551 145.272 134.819C145.361 135.086 145.386 135.371 145.343 135.65Z" fill="#262424"/>
<path d="M139.771 134.657C140.64 134.657 141.345 134.44 141.345 134.173C141.345 133.906 140.64 133.689 139.771 133.689C138.902 133.689 138.198 133.906 138.198 134.173C138.198 134.44 138.902 134.657 139.771 134.657Z" fill="#F6F6F6"/>
<path opacity="0.1" d="M120.286 136.835V138.044H55.172V137.076L55.2615 136.835H120.286Z" fill="#262424"/>
<path d="M74.9131 67.4182H63.5341V70.1563H74.9131V67.4182Z" fill="#07106D"/>
<path d="M114.318 67.4182H110.315V70.1563H114.318V67.4182Z" fill="#07106D"/>
<path d="M122.326 67.4182H118.322V70.1563H122.326V67.4182Z" fill="#07106D"/>
<path d="M106.1 67.4182H78.9167V70.1563H106.1V67.4182Z" fill="#07106D"/>
<path d="M60.5839 85.1102H49.2048V87.8483H60.5839V85.1102Z" fill="#07106D"/>
<path d="M99.9891 85.1102H95.9854V87.8483H99.9891V85.1102Z" fill="#07106D"/>
<path d="M107.997 85.1102H103.993V87.8483H107.997V85.1102Z" fill="#07106D"/>
<path d="M91.7709 85.1102H64.5876V87.8483H91.7709V85.1102Z" fill="#07106D"/>
<path d="M107.575 73.5261H96.196V76.2642H107.575V73.5261Z" fill="#07106D"/>
<path d="M122.958 73.5261H111.579V76.2642H122.958V73.5261Z" fill="#07106D"/>
<path d="M53.2086 73.5261H49.2048V76.2642H53.2086V73.5261Z" fill="#07106D"/>
<path d="M61.216 73.5261H57.2123V76.2642H61.216V73.5261Z" fill="#07106D"/>
<path d="M92.403 73.5261H65.2197V76.2642H92.403V73.5261Z" fill="#07106D"/>
<path d="M83.9741 79.4236H72.5951V82.1616H83.9741V79.4236Z" fill="#07106D"/>
<path d="M68.5913 79.4236H57.2123V82.1616H68.5913V79.4236Z" fill="#07106D"/>
<path d="M53.2086 79.4236H49.2048V82.1616H53.2086V79.4236Z" fill="#07106D"/>
<path d="M122.958 79.4236H118.954V82.1616H122.958V79.4236Z" fill="#07106D"/>
<path d="M114.95 79.4236H87.7672V82.1616H114.95V79.4236Z" fill="#07106D"/>
<path fill-rule="evenodd" clip-rule="evenodd" d="M200.398 53.6404C202.696 50.9413 204.252 47.6335 203.992 43.927C203.243 33.2477 188.383 35.597 185.492 40.987C182.602 46.3771 182.945 60.0493 186.681 61.0127C188.171 61.3969 191.345 60.4558 194.575 58.508L192.547 72.8578H204.519L200.398 53.6404Z" fill="#FFA5A5"/>
<path fill-rule="evenodd" clip-rule="evenodd" d="M192.316 34.7748C193.894 34.5159 198.142 34.3379 198.926 34.3381C199.426 34.3381 199.969 34.4525 200.266 33.9926C200.508 33.616 200.419 32.979 200.492 32.5419C200.576 32.0342 200.696 31.5331 200.816 31.0332C201.161 29.6107 201.681 28.2573 202.409 26.9867C203.775 24.6029 205.776 22.7357 208.302 21.6492C211.092 20.4494 214.248 20.1747 217.249 20.4181C220.46 20.6784 223.367 21.7389 226.399 22.7369C229.288 23.6878 232.314 24.0621 235.336 23.5977C238.38 23.1299 240.681 21.4791 243.249 19.9123C245.878 18.3083 248.882 17.2592 251.99 17.5004C254.891 17.7256 257.565 18.9239 259.964 20.5247C262.208 22.0224 264.06 23.8244 265.106 26.3606C266.231 29.0887 266.229 32.0833 264.38 34.4943C261.699 37.9891 256.722 38.8929 252.581 38.803C250.186 38.7512 247.833 38.3138 245.572 37.5182C242.556 36.457 239.95 34.6585 237.129 33.1992C235.805 32.5145 234.436 31.9521 233.002 31.547C231.61 31.1537 230.239 30.9733 228.978 31.8145C227.645 32.7045 226.45 33.5787 224.925 34.1358C223.462 34.6703 221.912 34.9693 220.353 34.9572C217.32 34.9338 214.33 33.9883 211.384 33.355C208.981 32.8387 206.411 32.3241 203.962 32.8204C202.94 33.0276 201.447 33.4552 201.078 34.5177C207.291 35.6442 209.731 43.3305 207.979 48.973C207.034 52.0185 201.352 55.5786 199.142 53.9775C197.743 52.9632 198.593 51.6316 199.142 50.7526C200.196 49.0692 200.556 46.9068 198.607 45.7347C196.926 44.7239 195.159 47.1244 195.125 47.1217C194.664 47.0853 190.672 44.8268 187.921 41.531C185.208 41.6919 184.796 39.9021 185.444 38.4384C186.092 36.9747 190.136 35.1327 192.316 34.7748Z" fill="#262424"/>
<path fill-rule="evenodd" clip-rule="evenodd" d="M136.923 195.448C143.315 181.297 147.937 168.974 149.792 162.473C152.969 151.341 155.386 141.545 155.997 137.887C157.453 129.164 144.792 128.656 143.118 132.991C140.585 139.553 136.163 161.112 130.85 193.676L136.923 195.448Z" fill="#FFA5A5"/>
<path fill-rule="evenodd" clip-rule="evenodd" d="M161.826 133.947L193.545 117.793V114.277H189.773C159.086 122.099 143.405 127.113 142.73 129.316C142.723 129.34 142.716 129.364 142.71 129.388C142.695 129.408 142.679 129.428 142.665 129.449C136.583 137.816 132.941 178.665 131.745 181.723L143.399 183.462C147.857 166.926 162.119 155.406 161.74 135.6C161.842 135.019 161.868 134.468 161.826 133.947Z" fill="#E5E5E5"/>
<path fill-rule="evenodd" clip-rule="evenodd" d="M178.177 176.355C175.745 170.535 166.61 150.757 161.167 142.227C159.604 139.776 158.071 137.417 156.616 135.214C152.29 128.663 139.542 135.51 143.958 141.576C154.956 156.682 171.28 177.382 172.625 179.205C174.509 181.759 179.706 180.013 178.177 176.355Z" fill="#FFA5A5"/>
<path fill-rule="evenodd" clip-rule="evenodd" d="M162.368 142.039C165.611 143.22 196.484 142.44 198.771 142.039C213.543 139.447 217.851 131.536 215.304 114.277H188.087C183.641 115.555 160.536 125.248 148.547 130.404C140.613 133.816 142.309 140.898 144.161 145.715C151.893 161.185 160.872 168.421 165.112 171.415L175.088 166.924C175.088 166.924 165.361 144.468 162.368 142.039Z" fill="#F6F6F6"/>
<path fill-rule="evenodd" clip-rule="evenodd" d="M178.864 173.716C180.375 174.214 181.419 174.695 181.995 175.159C182.697 175.722 183.626 176.662 184.784 177.977C184.13 178.791 178.256 186.104 167.162 199.917C164.819 198.973 164.066 197.826 164.903 196.477C165.739 195.127 166.423 193.998 166.955 193.088L170.601 179.237C170.671 178.971 170.944 178.812 171.21 178.882C171.215 178.883 171.219 178.884 171.224 178.886L173.34 179.508C174.783 178.797 175.791 178.086 176.362 177.375C176.826 176.798 177.233 175.812 177.584 174.42L177.584 174.42C177.719 173.885 178.262 173.561 178.796 173.696C178.819 173.702 178.842 173.709 178.864 173.716Z" fill="#E5E5E5"/>
<path fill-rule="evenodd" clip-rule="evenodd" d="M139.832 192.824C140.39 194.315 140.669 195.43 140.669 196.17C140.669 197.07 140.519 198.383 140.22 200.109C139.176 200.109 129.798 200.109 112.085 200.109C111.354 197.691 111.776 196.386 113.351 196.193C114.926 196 116.235 195.826 117.277 195.671L130.353 189.839C130.605 189.727 130.9 189.84 131.012 190.091C131.014 190.096 131.016 190.1 131.018 190.104L131.858 192.144C133.317 192.825 134.501 193.165 135.413 193.165C136.154 193.165 137.177 192.866 138.482 192.267L138.482 192.267C138.983 192.038 139.575 192.258 139.805 192.759C139.815 192.78 139.824 192.802 139.832 192.824Z" fill="#E5E5E5"/>
<path fill-rule="evenodd" clip-rule="evenodd" d="M162.618 100.612L144.543 92.6711C141.377 89.5147 138.319 87.1157 135.37 85.4741C134.489 85.1933 132.982 85.1084 134.59 87.4568C136.197 89.8052 137.782 92.3477 137.139 93.1707C136.497 93.9937 134.637 93.0853 133.902 94.4238C133.412 95.316 136.548 96.3834 143.309 97.6258L156.846 108.009L162.618 100.612ZM235.692 102.799L225.47 104.828C235.75 123.993 241.263 134.151 242.009 135.301C243.687 137.888 242.121 142.63 241.543 145.127C245.172 145.972 243.74 140.508 248.333 141.649C252.524 142.69 256.078 145.363 259.987 141.759C260.467 141.315 260.819 139.93 259.181 139.22C255.099 137.45 249.069 134.136 248.091 132.85C246.757 131.095 242.624 121.078 235.692 102.799Z" fill="#FFA5A5"/>
<path fill-rule="evenodd" clip-rule="evenodd" d="M197.688 64.5393L193.374 63.7991C183.98 72.9159 180.146 94.8196 173.885 97.7188C167.966 100.46 159.574 97.8069 149.599 94.2248L146.545 101.052C155.608 110.861 174.916 119.149 182.742 114.418C195.254 106.855 198.142 79.8402 197.688 64.5393Z" fill="#EE5A79"/>
<path fill-rule="evenodd" clip-rule="evenodd" d="M216.491 118.768C199.196 118.768 186.474 118.768 178.325 118.768C176.581 118.768 176.91 116.249 177.162 114.978C180.072 100.306 191.429 84.4907 191.429 63.6061L202.438 61.8792C211.544 76.5297 214.693 94.5676 216.491 118.768Z" fill="#262424"/>
<path fill-rule="evenodd" clip-rule="evenodd" d="M220.298 103.914C228.078 117.954 234.618 128.062 239.917 134.238L247.917 132.67C242.764 100.699 227.841 77.1016 203.148 61.8792H201.161L198.79 61.8792C188.906 95.5818 186.182 118.038 190.616 129.248H224.971C224.428 121.045 222.685 112.371 220.298 103.914H220.298Z" fill="#EE4266"/>
</g>
<defs>
<clipPath id="clip0">
<rect width="272" height="256" fill="white"/>
</clipPath>
</defs>
</svg>
