<svg width="217" height="167" viewBox="0 0 217 167" fill="none" xmlns="http://www.w3.org/2000/svg">
<g clip-path="url(#clip0)">
<path opacity="0.1" d="M211.741 113.835C211.547 113.976 211.368 114.114 211.178 114.248C210.475 114.743 209.739 115.19 208.975 115.586C204.974 117.687 200.042 118.714 195.238 119.411C184.464 120.976 173.464 121.28 162.511 121.578C132.917 122.388 103.25 123.196 73.7274 121.33C62.0629 120.594 50.1418 119.363 39.5718 115.586C38.0567 115.046 36.5715 114.451 35.116 113.8C32.1707 112.481 29.3421 110.876 26.9898 108.958C24.7793 107.161 22.9869 105.096 21.9157 102.749C19.682 97.8602 20.864 92.3693 23.4146 87.5777C24.4739 85.6392 25.6686 83.7772 26.9898 82.0054C28.9591 79.3075 31.1306 76.687 33.1117 73.9909C40.1609 64.4076 44.7606 52.2832 38.2537 42.4539C36.3835 39.63 33.6813 37.1509 32.1571 34.2031C30.213 30.4321 30.3627 26.2447 30.9809 22.1774C31.0613 21.6609 31.1462 21.1496 31.2356 20.6435C32.2913 14.6123 34.2781 8.11426 40.4039 4.3491C46.7669 0.43675 55.8029 0.634304 63.6998 2.02493C75.9805 4.20965 87.3087 8.75728 98.7574 12.8633C110.206 16.9693 122.184 20.7209 134.766 21.1238C145.876 21.4802 158.835 18.8132 166.209 11.8814C173.371 5.14901 186.834 4.63575 196.537 8.70305C203.197 11.494 208.166 16.5219 210.262 22.1774C210.686 23.3129 210.992 24.4889 211.174 25.6869C211.342 26.7818 211.396 27.8909 211.337 28.9969C211.308 29.5431 211.251 30.0835 211.174 30.618C209.552 41.7779 197.882 50.5807 190.788 60.5495C187.322 65.4186 184.874 71.2678 187.258 76.5185C190.893 84.5194 203.535 87.3646 211.17 93.3184C212.607 94.4019 213.871 95.6947 214.922 97.1532C218.625 102.452 217.259 109.609 211.741 113.835Z" fill="#BA1C51"/>
<path d="M50.1555 63.8897C50.1555 63.8897 41.2127 48.1009 27.7364 43.5532C22.0811 41.6436 17.145 38.0527 13.7701 33.1448C12.1724 30.8147 10.7928 28.3433 9.64868 25.7617" stroke="#535461" stroke-width="2" stroke-miterlimit="10"/>
<path d="M1.17433 22.8407C2.71015 24.3185 9.86047 25.868 9.86047 25.868C9.86047 25.868 8.1108 18.7947 6.57109 17.3092C5.83096 16.611 4.84446 16.2314 3.82537 16.2528C2.80629 16.2742 1.83672 16.6948 1.12678 17.4235C0.416835 18.1522 0.023718 19.1303 0.0326186 20.1457C0.0415193 21.1612 0.45172 22.1322 1.17433 22.8485V22.8407Z" fill="#BA1C51"/>
<path d="M5.22 35.6412C7.31766 36.0557 14.1628 33.4739 14.1628 33.4739C14.1628 33.4739 8.82626 28.4847 6.72666 28.0702C5.72879 27.8952 4.70179 28.1165 3.86577 28.6868C3.02974 29.2571 2.45121 30.1309 2.25417 31.1211C2.05712 32.1113 2.25724 33.1389 2.81163 33.9839C3.36602 34.8288 4.23057 35.4237 5.22 35.6412Z" fill="#BA1C51"/>
<path d="M19.9464 49.4952C21.9682 48.798 26.5563 43.1289 26.5563 43.1289C26.5563 43.1289 19.4254 41.504 17.4055 42.2012C16.9099 42.3546 16.4502 42.6056 16.0539 42.9394C15.6575 43.2731 15.3325 43.6828 15.0981 44.1441C14.8637 44.6054 14.7247 45.109 14.6894 45.6248C14.6541 46.1406 14.7231 46.6583 14.8925 47.147C15.0618 47.6358 15.328 48.0856 15.6752 48.4699C16.0224 48.8542 16.4436 49.1651 16.9137 49.3841C17.3838 49.6031 17.8933 49.7258 18.4119 49.7449C18.9305 49.764 19.4477 49.6791 19.9328 49.4952H19.9464Z" fill="#BA1C51"/>
<path d="M33.4577 57.4753C35.569 57.1267 41.0591 52.3137 41.0591 52.3137C41.0591 52.3137 34.3073 49.5111 32.196 49.8578C31.1821 50.0245 30.2762 50.5857 29.6775 51.4178C29.0789 52.2499 28.8366 53.2849 29.0039 54.2951C29.1712 55.3052 29.7344 56.2078 30.5697 56.8042C31.405 57.4006 32.4438 57.642 33.4577 57.4753Z" fill="#BA1C51"/>
<path d="M20.1195 27.9446C20.1195 30.0751 16.2507 36.2593 16.2507 36.2593C16.2507 36.2593 12.3743 30.079 12.3723 27.9485C12.3607 27.4344 12.4524 26.9232 12.6419 26.445C12.8313 25.9667 13.1148 25.5309 13.4757 25.1633C13.8365 24.7956 14.2674 24.5035 14.7431 24.3041C15.2189 24.1047 15.7298 24.002 16.2459 24.002C16.762 24.002 17.2729 24.1047 17.7486 24.3041C18.2244 24.5035 18.6553 24.7956 19.0161 25.1633C19.377 25.5309 19.6604 25.9667 19.8499 26.445C20.0394 26.9232 20.131 27.4344 20.1195 27.9485V27.9446Z" fill="#BA1C51"/>
<path d="M35.8043 37.4888C35.1647 39.5224 29.6143 44.2676 29.6143 44.2676C29.6143 44.2676 27.7713 37.2079 28.4032 35.1646C28.7427 34.229 29.4318 33.4602 30.3265 33.0185C31.2213 32.5768 32.2527 32.4963 33.2056 32.7939C34.1585 33.0914 34.9592 33.744 35.4409 34.6155C35.9225 35.4869 36.0478 36.51 35.7907 37.4713L35.8043 37.4888Z" fill="#BA1C51"/>
<path d="M49.7706 48.8274C49.4867 50.9404 44.8209 56.5513 44.8209 56.5513C44.8209 56.5513 41.8076 49.912 42.0992 47.7989C42.2502 46.7966 42.7908 45.8937 43.6043 45.2851C44.4177 44.6766 45.4388 44.4111 46.4471 44.5461C47.4553 44.6812 48.3698 45.2058 48.9931 46.0068C49.6163 46.8079 49.8984 47.8209 49.7783 48.8274H49.7706Z" fill="#BA1C51"/>
<path opacity="0.25" d="M1.17433 22.8407C2.71015 24.3185 9.86047 25.868 9.86047 25.868C9.86047 25.868 8.1108 18.7947 6.57109 17.3092C5.83096 16.611 4.84446 16.2314 3.82537 16.2528C2.80629 16.2742 1.83672 16.6948 1.12678 17.4235C0.416835 18.1522 0.023718 19.1303 0.0326186 20.1457C0.0415193 21.1612 0.45172 22.1322 1.17433 22.8485V22.8407Z" fill="black"/>
<path opacity="0.25" d="M5.22 35.6412C7.31766 36.0557 14.1628 33.4739 14.1628 33.4739C14.1628 33.4739 8.82626 28.4847 6.72666 28.0702C5.72879 27.8952 4.70179 28.1165 3.86577 28.6868C3.02974 29.2571 2.45121 30.1309 2.25417 31.1211C2.05712 32.1113 2.25724 33.1389 2.81163 33.9839C3.36602 34.8288 4.23057 35.4237 5.22 35.6412Z" fill="black"/>
<path opacity="0.25" d="M19.9464 49.4952C21.9682 48.798 26.5563 43.1289 26.5563 43.1289C26.5563 43.1289 19.4254 41.504 17.4055 42.2012C16.9099 42.3546 16.4502 42.6056 16.0539 42.9394C15.6575 43.2731 15.3325 43.6828 15.0981 44.1441C14.8637 44.6054 14.7247 45.109 14.6894 45.6248C14.6541 46.1406 14.7231 46.6583 14.8925 47.147C15.0618 47.6358 15.328 48.0856 15.6752 48.4699C16.0224 48.8542 16.4436 49.1651 16.9137 49.3841C17.3838 49.6031 17.8933 49.7258 18.4119 49.7449C18.9305 49.764 19.4477 49.6791 19.9328 49.4952H19.9464Z" fill="black"/>
<path opacity="0.25" d="M33.4577 57.4753C35.569 57.1267 41.0591 52.3137 41.0591 52.3137C41.0591 52.3137 34.3073 49.5111 32.196 49.8578C31.1821 50.0245 30.2762 50.5857 29.6775 51.4178C29.0789 52.2499 28.8366 53.2849 29.0039 54.2951C29.1712 55.3052 29.7344 56.2078 30.5697 56.8042C31.405 57.4006 32.4438 57.642 33.4577 57.4753Z" fill="black"/>
<path opacity="0.25" d="M20.1195 27.9446C20.1195 30.0751 16.2507 36.2593 16.2507 36.2593C16.2507 36.2593 12.3743 30.079 12.3723 27.9485C12.3607 27.4344 12.4524 26.9232 12.6419 26.445C12.8313 25.9667 13.1148 25.5309 13.4757 25.1633C13.8365 24.7956 14.2674 24.5035 14.7431 24.3041C15.2189 24.1047 15.7298 24.002 16.2459 24.002C16.762 24.002 17.2729 24.1047 17.7486 24.3041C18.2244 24.5035 18.6553 24.7956 19.0161 25.1633C19.377 25.5309 19.6604 25.9667 19.8499 26.445C20.0394 26.9232 20.131 27.4344 20.1195 27.9485V27.9446Z" fill="black"/>
<path opacity="0.25" d="M35.8043 37.4888C35.1647 39.5224 29.6143 44.2676 29.6143 44.2676C29.6143 44.2676 27.7713 37.2079 28.4032 35.1646C28.7427 34.229 29.4318 33.4602 30.3265 33.0185C31.2213 32.5768 32.2527 32.4963 33.2056 32.7939C34.1585 33.0914 34.9592 33.744 35.4409 34.6155C35.9225 35.4869 36.0478 36.51 35.7907 37.4713L35.8043 37.4888Z" fill="black"/>
<path opacity="0.25" d="M49.7706 48.8274C49.4867 50.9404 44.8209 56.5513 44.8209 56.5513C44.8209 56.5513 41.8076 49.912 42.0992 47.7989C42.2502 46.7966 42.7908 45.8937 43.6043 45.2851C44.4177 44.6766 45.4388 44.4111 46.4471 44.5461C47.4553 44.6812 48.3698 45.2058 48.9931 46.0068C49.6163 46.8079 49.8984 47.8209 49.7783 48.8274H49.7706Z" fill="black"/>
<path d="M49.6402 63.5764C49.6402 63.5764 47.8905 45.5292 37.4158 35.9304C33.0241 31.9018 29.9719 26.6337 28.8813 20.7768C28.3694 18.0008 28.1143 15.1838 28.1192 12.3613" stroke="#535461" stroke-width="2" stroke-miterlimit="10"/>
<path d="M21.558 6.27439C22.359 8.25187 28.2709 12.5419 28.2709 12.5419C28.2709 12.5419 29.5443 5.36603 28.7453 3.38855C28.3611 2.43825 27.6138 1.6789 26.6677 1.27754C25.7216 0.876177 24.6542 0.865687 23.7004 1.24837C22.7465 1.63106 21.9843 2.37558 21.5814 3.31814C21.1786 4.2607 21.168 5.3241 21.5522 6.27439H21.558Z" fill="#BA1C51"/>
<path d="M20.0435 19.6087C21.7932 20.8347 29.0971 21.2356 29.0971 21.2356C29.0971 21.2356 26.2646 14.5227 24.5149 13.2967C23.6747 12.7059 22.6334 12.4719 21.6201 12.6461C20.6067 12.8203 19.7043 13.3883 19.1113 14.2254C18.5184 15.0624 18.2835 16.0998 18.4583 17.1094C18.6331 18.119 19.2033 19.018 20.0435 19.6087Z" fill="#BA1C51"/>
<path d="M27.8801 38.2186C30.0185 38.3987 36.5195 35.0694 36.5195 35.0694C36.5195 35.0694 30.662 30.7057 28.5294 30.5276C28.0162 30.4731 27.4974 30.5214 27.0032 30.6694C26.509 30.8175 26.0495 31.0625 25.6517 31.3899C25.2538 31.7173 24.9256 32.1206 24.6863 32.5761C24.4471 33.0316 24.3015 33.5301 24.2583 34.0424C24.215 34.5547 24.2749 35.0704 24.4345 35.5594C24.594 36.0483 24.85 36.5005 25.1874 36.8895C25.5247 37.2786 25.9367 37.5965 26.3991 37.8247C26.8615 38.053 27.365 38.1869 27.8801 38.2186Z" fill="#BA1C51"/>
<path d="M36.9863 50.9694C39.0587 51.504 46.036 49.3193 46.036 49.3193C46.036 49.3193 41.0028 44.0318 38.9324 43.4972C37.944 43.2587 36.9012 43.4168 36.0289 43.9374C35.1565 44.4581 34.5246 45.2995 34.2695 46.2802C34.0143 47.2609 34.1564 48.3022 34.665 49.1795C35.1737 50.0568 36.0081 50.6996 36.9883 50.9694H36.9863Z" fill="#BA1C51"/>
<path d="M36.8015 18.5896C35.9363 20.5381 29.8825 24.6267 29.8825 24.6267C29.8825 24.6267 28.8521 17.414 29.7172 15.4636C29.9176 14.9918 30.2102 14.5643 30.5781 14.2063C30.946 13.8483 31.3817 13.5668 31.8599 13.3783C32.3381 13.1897 32.8492 13.0979 33.3634 13.1082C33.8775 13.1185 34.3845 13.2306 34.8547 13.4381C35.325 13.6456 35.749 13.9443 36.1022 14.3167C36.4553 14.6892 36.7305 15.1279 36.9117 15.6074C37.0929 16.0869 37.1765 16.5976 37.1576 17.1096C37.1386 17.6216 37.0176 18.1247 36.8015 18.5896Z" fill="#BA1C51"/>
<path d="M47.2606 33.6349C45.8492 35.2367 38.8447 37.3342 38.8447 37.3342C38.8447 37.3342 40.0267 30.1448 41.4401 28.5431C41.7757 28.1623 42.1832 27.8511 42.6395 27.6273C43.0958 27.4035 43.5919 27.2714 44.0995 27.2386C44.607 27.2057 45.1161 27.2728 45.5976 27.436C46.0791 27.5992 46.5237 27.8553 46.9058 28.1896C47.288 28.5239 47.6004 28.93 47.825 29.3846C48.0497 29.8392 48.1823 30.3334 48.2152 30.8391C48.2482 31.3447 48.1808 31.8519 48.017 32.3316C47.8533 32.8113 47.5962 33.2542 47.2606 33.6349Z" fill="#BA1C51"/>
<path d="M55.4259 49.6506C54.3061 51.4673 47.7585 54.7134 47.7585 54.7134C47.7585 54.7134 47.7041 47.4271 48.8238 45.6104C49.3616 44.7371 50.2256 44.1125 51.2256 43.8738C52.2257 43.6352 53.2799 43.8021 54.1564 44.3379C55.033 44.8737 55.66 45.7344 55.8995 46.7307C56.139 47.727 55.9715 48.7773 55.4337 49.6506H55.4259Z" fill="#BA1C51"/>
<path opacity="0.1" d="M79.3496 165.929C91.3244 165.929 101.032 164.67 101.032 163.117C101.032 161.564 91.3244 160.305 79.3496 160.305C67.3747 160.305 57.6672 161.564 57.6672 163.117C57.6672 164.67 67.3747 165.929 79.3496 165.929Z" fill="#BA1C51"/>
<path opacity="0.1" d="M35.5533 164.022C39.191 164.022 42.1399 163.519 42.1399 162.899C42.1399 162.278 39.191 161.775 35.5533 161.775C31.9157 161.775 28.9668 162.278 28.9668 162.899C28.9668 163.519 31.9157 164.022 35.5533 164.022Z" fill="#BA1C51"/>
<path d="M36.9841 150.391C36.9841 150.391 38.0514 151.783 36.4903 153.877C34.9292 155.971 33.6422 157.751 34.1574 159.062C34.1574 159.062 36.5117 155.159 38.4343 155.105C40.357 155.051 39.0953 152.738 36.9841 150.391Z" fill="#BA1C51"/>
<path opacity="0.1" d="M36.9842 150.391C37.0774 150.525 37.1507 150.673 37.2019 150.828C39.0721 153.017 40.0694 155.06 38.2711 155.111C36.5973 155.159 34.5871 158.142 34.1069 158.895C34.1228 158.954 34.1416 159.011 34.1633 159.068C34.1633 159.068 36.5176 155.165 38.4403 155.111C40.363 155.056 39.0954 152.738 36.9842 150.391Z" fill="black"/>
<path d="M38.9691 152.165C38.9691 152.655 38.9146 153.052 38.8466 153.052C38.7785 153.052 38.7222 152.665 38.7222 152.165C38.7222 151.665 38.7922 151.905 38.8602 151.905C38.9282 151.905 38.9691 151.675 38.9691 152.165Z" fill="#FFD037"/>
<path d="M39.6515 152.749C39.2199 152.983 38.8427 153.125 38.8097 153.065C38.7766 153.005 39.1013 152.766 39.5329 152.532C39.9645 152.298 39.7934 152.468 39.8264 152.532C39.8595 152.596 40.0831 152.515 39.6515 152.749Z" fill="#FFD037"/>
<path d="M31.3425 150.391C31.3425 150.391 30.2752 151.783 31.8363 153.877C33.3974 155.971 34.6844 157.751 34.1692 159.062C34.1692 159.062 31.8149 155.159 29.8922 155.105C27.9695 155.051 29.2351 152.738 31.3425 150.391Z" fill="#BA1C51"/>
<path opacity="0.1" d="M31.3423 150.391C31.2491 150.525 31.1758 150.673 31.1246 150.828C29.2544 153.017 28.2571 155.06 30.0554 155.111C31.7312 155.159 33.7394 158.142 34.2196 158.895C34.2046 158.954 34.1858 159.011 34.1632 159.068C34.1632 159.068 31.8089 155.165 29.8862 155.111C27.9635 155.056 29.235 152.738 31.3423 150.391Z" fill="black"/>
<path d="M29.3577 152.165C29.3577 152.655 29.4121 153.052 29.4801 153.052C29.5482 153.052 29.6046 152.665 29.6046 152.165C29.6046 151.665 29.5346 151.905 29.4665 151.905C29.3985 151.905 29.3577 151.675 29.3577 152.165Z" fill="#FFD037"/>
<path d="M28.6771 152.749C29.1087 152.983 29.4839 153.125 29.517 153.065C29.55 153.005 29.2254 152.766 28.7938 152.532C28.3622 152.298 28.5333 152.468 28.5002 152.532C28.4672 152.596 28.2456 152.515 28.6771 152.749Z" fill="#FFD037"/>
<path d="M29.6978 158.886C29.6978 158.886 32.6839 158.793 33.5859 158.155C34.488 157.518 38.1778 156.753 38.4014 157.778C38.625 158.802 42.8883 162.87 39.5173 162.897C36.1463 162.924 31.6846 162.374 30.7864 161.83C29.8883 161.285 29.6978 158.886 29.6978 158.886Z" fill="#A8A8A8"/>
<path opacity="0.2" d="M39.5756 162.539C36.2046 162.567 31.7429 162.017 30.8448 161.472C30.1604 161.056 29.8883 159.566 29.7969 158.881H29.6978C29.6978 158.881 29.8922 161.279 30.7845 161.825C31.6768 162.371 36.1443 162.919 39.5154 162.892C40.4874 162.892 40.8257 162.539 40.8062 162.028C40.6721 162.342 40.3008 162.534 39.5756 162.539Z" fill="black"/>
<path d="M129.417 158.77C129.417 158.77 121.198 158.277 122.168 164.015C122.168 164.015 121.974 165.028 122.897 165.489C122.897 165.489 122.913 165.065 123.741 165.208C124.035 165.258 124.335 165.272 124.633 165.251C125.037 165.224 125.421 165.067 125.726 164.802C125.726 164.802 128.035 163.853 128.933 160.089C128.933 160.089 129.598 159.268 129.573 159.057L128.185 159.638C128.185 159.638 128.659 160.636 128.286 161.465C128.286 161.465 128.241 159.675 127.975 159.721C127.92 159.721 127.254 160.066 127.254 160.066C127.254 160.066 128.07 161.809 127.448 163.064C127.448 163.064 127.681 160.934 126.993 160.192L126.021 160.76C126.021 160.76 126.974 162.553 126.328 164.017C126.328 164.017 126.494 161.772 125.817 160.897L124.932 161.585C124.932 161.585 125.827 163.353 125.28 164.567C125.28 164.567 125.21 161.955 124.74 161.757C124.74 161.757 123.962 162.437 123.848 162.725C123.848 162.725 124.46 164.008 124.081 164.685C124.081 164.685 123.848 162.942 123.655 162.942C123.655 162.942 122.878 164.104 122.804 164.879C122.804 164.879 122.839 163.703 123.469 162.824C123.024 162.909 122.614 163.121 122.288 163.434C122.288 163.434 122.409 162.619 123.649 162.547C123.649 162.547 124.287 161.672 124.458 161.619C124.458 161.619 123.214 161.515 122.46 161.848C122.46 161.848 123.123 161.073 124.686 161.428L125.558 160.719C125.558 160.719 123.922 160.494 123.226 160.742C123.226 160.742 124.027 160.06 125.794 160.548L126.746 159.983C126.746 159.983 125.348 159.683 124.516 159.789C124.516 159.789 125.395 159.317 127.024 159.828L127.705 159.524C127.705 159.524 126.68 159.33 126.381 159.293C126.081 159.257 126.066 159.179 126.066 159.179C126.714 159.071 127.38 159.145 127.989 159.392C127.989 159.392 129.443 158.861 129.417 158.77Z" fill="#BA1C51"/>
<path opacity="0.1" d="M123.756 166.97C126.969 166.97 129.573 166.531 129.573 165.99C129.573 165.449 126.969 165.01 123.756 165.01C120.544 165.01 117.939 165.449 117.939 165.99C117.939 166.531 120.544 166.97 123.756 166.97Z" fill="#BA1C51"/>
<path d="M115.018 159.076C115.018 159.076 110.383 158.797 110.935 162.034C110.907 162.198 110.932 162.367 111.006 162.516C111.08 162.665 111.199 162.787 111.347 162.865C111.347 162.865 111.347 162.625 111.824 162.706C111.989 162.733 112.157 162.741 112.325 162.731C112.553 162.715 112.769 162.626 112.941 162.477C112.941 162.477 114.244 161.941 114.751 159.82C114.751 159.82 115.125 159.357 115.111 159.239L114.333 159.57C114.333 159.57 114.6 160.134 114.39 160.601C114.39 160.601 114.364 159.592 114.215 159.615C114.184 159.615 113.808 159.808 113.808 159.808C113.808 159.808 114.267 160.777 113.921 161.499C113.921 161.499 114.051 160.293 113.665 159.878L113.114 160.2C113.114 160.2 113.651 161.211 113.287 162.036C113.287 162.036 113.381 160.769 112.998 160.277L112.5 160.665C112.5 160.665 113.004 161.662 112.694 162.346C112.694 162.346 112.654 160.872 112.389 160.761C112.2 160.92 112.031 161.102 111.886 161.302C111.886 161.302 112.232 162.026 112.018 162.408C112.018 162.408 111.886 161.426 111.779 161.422C111.779 161.422 111.343 162.073 111.299 162.518C111.318 162.105 111.447 161.704 111.672 161.356C111.421 161.403 111.19 161.522 111.007 161.699C111.007 161.699 111.075 161.238 111.785 161.199C111.785 161.199 112.142 160.705 112.24 160.676C112.24 160.676 111.538 160.616 111.112 160.804C111.112 160.804 111.487 160.37 112.368 160.568L112.86 160.167C112.86 160.167 111.936 160.041 111.546 160.18C111.546 160.18 111.997 159.793 112.994 160.076L113.528 159.758C113.116 159.667 112.694 159.631 112.273 159.65C112.273 159.65 112.768 159.384 113.686 159.671L114.075 159.501C114.075 159.501 113.492 159.386 113.33 159.369C113.169 159.351 113.151 159.305 113.151 159.305C113.517 159.244 113.893 159.286 114.236 159.425C114.236 159.425 115.031 159.129 115.018 159.076Z" fill="#BA1C51"/>
<path opacity="0.1" d="M111.826 163.702C113.637 163.702 115.105 163.454 115.105 163.15C115.105 162.845 113.637 162.598 111.826 162.598C110.014 162.598 108.546 162.845 108.546 163.15C108.546 163.454 110.014 163.702 111.826 163.702Z" fill="#BA1C51"/>
<path d="M123.838 152.218C123.838 152.218 118.245 151.881 118.904 155.788C118.87 155.986 118.9 156.19 118.989 156.37C119.079 156.55 119.223 156.697 119.402 156.791C119.402 156.791 119.402 156.502 119.975 156.597C120.176 156.629 120.379 156.639 120.582 156.626C120.856 156.607 121.117 156.499 121.326 156.32C121.326 156.32 122.899 155.673 123.509 153.111C123.509 153.111 123.962 152.553 123.945 152.41L123 152.811C123 152.811 123.323 153.491 123.07 154.054C123.07 154.054 123.039 152.836 122.856 152.865C122.821 152.865 122.366 153.099 122.366 153.099C122.366 153.099 122.922 154.283 122.502 155.141C122.502 155.141 122.662 153.684 122.193 153.185L121.528 153.572C121.528 153.572 122.178 154.792 121.738 155.79C121.738 155.79 121.851 154.262 121.388 153.659L120.786 154.126C120.786 154.126 121.396 155.329 121.025 156.156C121.025 156.156 120.976 154.378 120.655 154.242C120.655 154.242 120.129 154.705 120.049 154.895C120.049 154.895 120.467 155.768 120.206 156.229C120.206 156.229 120.049 155.046 119.919 155.04C119.919 155.04 119.394 155.815 119.335 156.363C119.36 155.866 119.516 155.383 119.786 154.965C119.484 155.022 119.205 155.166 118.984 155.379C118.984 155.379 119.065 154.823 119.917 154.775C119.917 154.775 120.35 154.18 120.467 154.143C120.467 154.143 119.619 154.074 119.106 154.3C119.106 154.3 119.557 153.775 120.622 154.014L121.217 153.531C121.217 153.531 120.101 153.378 119.629 153.547C119.629 153.547 120.173 153.084 121.379 153.421L122.026 153.034C122.026 153.034 121.075 152.84 120.51 152.904C120.51 152.904 121.106 152.582 122.217 152.929L122.679 152.724C122.679 152.724 121.981 152.586 121.777 152.565C121.573 152.544 121.563 152.487 121.563 152.487C122.005 152.414 122.457 152.465 122.872 152.633C122.872 152.633 123.857 152.28 123.838 152.218Z" fill="#BA1C51"/>
<path opacity="0.1" d="M119.987 157.799C122.174 157.799 123.947 157.501 123.947 157.133C123.947 156.765 122.174 156.467 119.987 156.467C117.8 156.467 116.027 156.765 116.027 157.133C116.027 157.501 117.8 157.799 119.987 157.799Z" fill="#BA1C51"/>
<path d="M211.535 114.21V19.4746H26.5854V108.775C28.9475 110.739 31.7878 112.391 34.7506 113.749C36.2099 114.419 37.7004 115.032 39.222 115.587H209.329L211.535 114.21Z" fill="url(#paint0_linear)"/>
<path d="M211.178 114.248V22.1855H26.9897V108.974C29.3421 110.884 32.1707 112.489 35.116 113.816C36.5702 114.462 38.0554 115.057 39.5718 115.602H208.975L211.178 114.248Z" fill="white"/>
<path d="M211.178 19.7441H26.9917V24.6133H211.178V19.7441Z" fill="#5A5773"/>
<path d="M30.6699 23.4378C31.3678 23.4378 31.9336 22.8741 31.9336 22.1788C31.9336 21.4836 31.3678 20.9199 30.6699 20.9199C29.972 20.9199 29.4062 21.4836 29.4062 22.1788C29.4062 22.8741 29.972 23.4378 30.6699 23.4378Z" fill="white"/>
<path d="M34.072 23.4378C34.7699 23.4378 35.3357 22.8741 35.3357 22.1788C35.3357 21.4836 34.7699 20.9199 34.072 20.9199C33.3741 20.9199 32.8083 21.4836 32.8083 22.1788C32.8083 22.8741 33.3741 23.4378 34.072 23.4378Z" fill="white"/>
<path d="M37.4741 23.4378C38.172 23.4378 38.7378 22.8741 38.7378 22.1788C38.7378 21.4836 38.172 20.9199 37.4741 20.9199C36.7762 20.9199 36.2104 21.4836 36.2104 22.1788C36.2104 22.8741 36.7762 23.4378 37.4741 23.4378Z" fill="white"/>
<path d="M104.485 35.3145H74.0598V54.361H104.485V35.3145Z" fill="#BA1C51"/>
<path opacity="0.2" d="M62.3584 35.3145H31.9336V54.361H62.3584V35.3145Z" fill="#5A5773"/>
<path opacity="0.2" d="M146.611 35.3145H116.186V54.361H146.611V35.3145Z" fill="#5A5773"/>
<path opacity="0.2" d="M62.3584 62.5449H31.9336V81.5915H62.3584V62.5449Z" fill="#5A5773"/>
<path opacity="0.2" d="M104.485 62.5449H74.0598V81.5915H104.485V62.5449Z" fill="#5A5773"/>
<path opacity="0.2" d="M146.611 62.5449H116.186V81.5915H146.611V62.5449Z" fill="#5A5773"/>
<path opacity="0.2" d="M62.3584 89.7715H31.9336V108.818H62.3584V89.7715Z" fill="#5A5773"/>
<path opacity="0.2" d="M104.485 89.7715H74.0598V108.818H104.485V89.7715Z" fill="#5A5773"/>
<path opacity="0.2" d="M146.611 89.7715H116.186V108.818H146.611V89.7715Z" fill="#5A5773"/>
<path d="M97.029 51.997L94.9294 52.7369L94.1673 51.478C93.5841 50.5096 92.7754 49.1848 92.1785 48.2222C91.1248 46.5294 92.5032 43.9496 92.5032 43.9496C92.5032 43.9496 92.752 41.3601 93.6385 40.5621C94.525 39.7641 94.7719 43.9496 94.7719 43.9496C98.3316 45.561 96.4244 49.3513 96.4244 49.3513L96.7704 50.8543L97.029 51.997Z" fill="#EFB7B9"/>
<path opacity="0.1" d="M97.0289 51.9976L94.9293 52.7375L94.1672 51.4786V51.3682C94.1672 51.3682 95.3706 50.545 96.7742 50.8549L97.0289 51.9976Z" fill="black"/>
<path d="M93.6387 60.4801L94.6904 59.593L94.1636 51.6095C94.1636 51.6095 96.8853 49.754 98.8994 52.6573C98.8994 52.6573 98.8177 54.4314 98.8994 54.9156C98.981 55.3998 98.3336 55.884 98.8994 56.3663C99.4651 56.8485 98.8994 58.4638 98.8994 58.4638C98.8994 58.4638 99.539 59.593 99.9433 59.9145C100.348 60.236 100.754 62.8991 99.9433 63.4627C99.1326 64.0263 97.6124 65.3182 97.6124 65.8818C97.6124 66.4454 95.6683 67.8186 95.6683 67.8186L93.9614 65.57L93.6387 60.4801Z" fill="#FF6484"/>
<path d="M70.893 108.943C66.9699 107.285 67.8408 103.235 68.5796 101.195C68.7272 100.782 68.9005 100.379 69.0986 99.9868L71.2993 98.6562C71.2993 98.6562 71.7484 99.797 72.2286 101.327C73.3425 104.887 74.6237 110.521 70.893 108.943Z" fill="#EFB7B9"/>
<path d="M76.2856 145.897C76.0201 146.413 75.824 146.961 75.7024 147.528C75.5082 148.44 75.4234 149.371 75.4497 150.303C75.4653 150.948 75.5197 151.37 75.5197 151.37L71.1494 154.365C71.1494 154.365 71.1747 154.014 71.2175 153.499C71.3302 152.128 71.5654 149.583 71.7871 149.254C71.9407 149.025 72.0476 148.107 72.1156 147.255C72.1837 146.403 72.2109 145.655 72.2109 145.655C72.2109 145.655 77.4696 143.691 76.2856 145.897Z" fill="#EFB7B9"/>
<path d="M86.6068 148.044C86.6068 148.044 86.6068 148.876 86.5757 149.845C86.5446 150.813 86.4863 151.956 86.3638 152.489C86.251 152.977 86.2432 153.873 86.2646 154.7C86.2938 155.669 86.3638 156.54 86.3638 156.54C86.3638 156.54 81.9021 152.337 82.357 152.004C82.4795 151.915 82.6 151.557 82.7109 151.08C82.8469 150.499 82.9694 149.725 83.0608 149.066C83.1697 148.282 83.2377 147.65 83.2377 147.65L86.6068 148.044Z" fill="#EFB7B9"/>
<path opacity="0.1" d="M76.2858 145.897C76.0202 146.413 75.8241 146.961 75.7026 147.528C74.5064 147.497 73.3125 147.405 72.1255 147.255C72.1916 146.422 72.2208 145.655 72.2208 145.655C72.2208 145.655 77.4697 143.691 76.2858 145.897Z" fill="black"/>
<path opacity="0.1" d="M86.6068 148.044C86.6068 148.044 86.6068 148.876 86.5757 149.845C85.1837 150.199 83.7529 149.49 83.0608 149.07C83.1697 148.286 83.2377 147.654 83.2377 147.654L86.6068 148.044Z" fill="black"/>
<path d="M95.7421 106.847C93.9614 110.721 93.2323 115.315 93.2323 115.315L92.5849 119.188C92.5849 119.188 92.9096 120.881 92.5849 121.526C92.2603 122.171 91.6129 123.221 91.6129 123.221C91.6129 123.221 92.0989 127.172 91.6129 127.575C91.1269 127.978 91.6129 130.397 91.6129 130.397L89.9935 138.531L87.7267 149.013C85.5415 150.789 82.6332 148.531 82.6332 148.531L83.2748 141.677C83.2748 141.677 84.2468 129.668 83.8424 129.176C83.4381 128.685 84.0038 127.16 84.0038 127.16C84.0038 127.16 84.5715 125.708 84.1671 125.144C83.7627 124.58 84.2468 123.37 84.2468 123.37C84.2468 123.37 84.0854 118.45 84.5715 117.321C85.0575 116.192 84.5715 109.208 84.5715 109.208L84.3771 107.033L84.2643 105.828L84.2546 105.71C84.2546 105.71 84.1807 106.192 84.0602 106.94C83.7025 109.216 82.9404 113.932 82.639 114.902C82.4342 115.601 82.156 116.277 81.8089 116.918C81.8089 116.918 82.2288 119.337 81.8089 119.982C81.389 120.627 81.7448 121.354 81.7448 121.354C81.7448 121.354 82.1491 123.37 80.9341 124.176C79.719 124.981 80.9341 125.386 80.9341 125.386C80.9341 125.386 80.0437 127.323 79.721 128.127C79.3983 128.93 79.721 130.064 79.721 130.064L79.0736 136.594C79.0736 136.594 78.5059 139.335 78.5876 141.19C78.6692 143.046 77.8586 147.319 77.8586 147.319C77.8586 147.319 71.6258 147.319 70.6655 146.592C69.7051 145.866 72.2693 138.781 72.2693 138.781C72.2693 138.781 72.9984 126.362 72.8351 126.041C72.6717 125.719 72.8351 123.298 73.4027 122.816C73.9704 122.334 73.4027 121.363 73.4027 121.363C73.4027 121.363 73.2414 119.427 73.4027 118.944C73.5641 118.462 73.3775 116.847 73.3775 116.847C73.3775 116.847 72.8351 112.896 72.7553 110.637C72.6756 108.379 72.2693 103.301 72.2693 103.301C72.2693 103.301 72.6931 100.159 72.7573 98.664C72.7806 98.1139 73.0275 97.4264 73.3405 96.7795C73.6908 96.0491 74.0937 95.3448 74.5458 94.6722C74.5458 94.6722 93.7242 89.0245 94.529 89.5862C94.7429 89.7353 95.0539 90.7482 95.3611 92.2144C96.2165 96.3108 97.0524 104 95.7421 106.847Z" fill="#444053"/>
<path d="M83.9259 57.5625C87.0106 57.5625 89.5113 55.0712 89.5113 51.998C89.5113 48.9249 87.0106 46.4336 83.9259 46.4336C80.8412 46.4336 78.3406 48.9249 78.3406 51.998C78.3406 55.0712 80.8412 57.5625 83.9259 57.5625Z" fill="#A1616A"/>
<path opacity="0.1" d="M95.3609 92.2183C94.7174 92.5475 94.2858 92.7741 94.2858 92.7741C94.2858 92.7741 85.2206 97.0487 82.6427 96.8066C80.6481 96.6129 75.5566 96.7233 73.3384 96.7775C73.6887 96.0471 74.0915 95.3429 74.5437 94.6703C74.5437 94.6703 93.724 89.0245 94.5288 89.5862C94.7427 89.7392 95.0537 90.7482 95.3609 92.2183Z" fill="black"/>
<path d="M80.0398 60.8827C80.0398 60.8827 74.8666 61.6962 73.6458 62.4942C72.4249 63.2921 70.0065 64.8338 70.0065 68.14C70.0065 71.4461 69.4407 74.8336 69.1161 75.8001C68.7914 76.7665 74.2154 84.5893 74.2154 84.5893L72.2713 96.4445C72.2713 96.4445 80.0476 96.2024 82.6371 96.4445C85.2266 96.6866 94.288 92.4121 94.288 92.4121C94.288 92.4121 99.6303 89.5901 100.764 89.5068C101.897 89.4236 98.4969 83.2974 98.4969 83.2974C98.4969 83.2974 93.2343 73.381 94.1247 71.7676C95.0151 70.1543 95.6683 67.8165 95.6683 67.8165L94.6963 59.5928C94.6963 59.5928 93.2401 59.1086 92.0251 59.9957C90.81 60.8827 86.6828 60.3985 86.6828 60.3985L80.0398 60.8827Z" fill="#FF6484"/>
<path opacity="0.1" d="M71.2585 75.2382L69.2288 75.8018L68.667 83.3902C68.667 83.3902 69.396 85.4065 68.667 86.0514C67.938 86.6964 67.7766 100.486 67.7766 100.486C67.7766 100.486 70.1251 102.179 72.8759 100.889C72.8759 100.889 72.4716 99.3573 73.6866 93.7928C74.9017 88.2284 74.8997 85.4065 74.8997 85.4065C74.8997 85.4065 74.8997 78.4707 75.4674 77.3416C76.0351 76.2124 75.4674 73.3905 75.4674 73.3905C75.4674 73.3905 74.334 71.8585 74.4137 71.2949C74.4934 70.7313 71.2585 75.2382 71.2585 75.2382Z" fill="black"/>
<path opacity="0.1" d="M72.2284 101.333C71.0365 101.733 69.7391 101.686 68.5793 101.201C68.727 100.788 68.9003 100.384 69.0984 99.9927L71.2991 98.6621C71.2991 98.6621 71.756 99.8029 72.2284 101.333Z" fill="black"/>
<path d="M71.1359 75.2361L69.1121 75.7997L68.5464 83.3881C68.5464 83.3881 69.2754 85.4044 68.5464 86.0493C67.8174 86.6943 67.656 100.484 67.656 100.484C67.656 100.484 70.0064 102.175 72.7553 100.879C72.7553 100.879 72.351 99.3474 73.5641 93.783C74.7772 88.2185 74.7791 85.3966 74.7791 85.3966C74.7791 85.3966 74.7791 78.4609 75.3448 77.3317C75.9106 76.2026 75.3448 73.3806 75.3448 73.3806C75.3448 73.3806 74.2114 71.8486 74.2931 71.285C74.3747 70.7214 71.1359 75.2361 71.1359 75.2361Z" fill="#FF6484"/>
<path opacity="0.1" d="M91.8577 76.4453C91.8577 76.4453 90.806 85.4767 87.7285 87.1714C87.7285 87.1714 94.6086 85.2365 91.8577 76.4453Z" fill="black"/>
<path opacity="0.1" d="M76.3984 77.2539C76.3984 77.2539 80.2011 79.1074 79.3146 80.3973C78.4281 81.6872 76.3984 77.2539 76.3984 77.2539Z" fill="black"/>
<path opacity="0.1" d="M76.3984 80.9629C76.3984 80.9629 78.8266 83.4633 78.3425 84.3503C77.8584 85.2374 76.3984 80.9629 76.3984 80.9629Z" fill="black"/>
<path opacity="0.1" d="M95.9851 60.2383C95.9851 60.2383 96.9377 61.8497 97.0291 62.8995C97.1204 63.9492 95.9851 60.2383 95.9851 60.2383Z" fill="black"/>
<path opacity="0.1" d="M95.9851 58.0608C95.9851 58.0608 96.4633 57.656 97.6842 58.0608C98.9051 58.4656 95.9851 58.0608 95.9851 58.0608Z" fill="black"/>
<path opacity="0.1" d="M91.3114 105.194C89.3059 105.478 87.2608 105.217 85.3917 104.439L84.3711 107.042L84.2583 105.837C84.4255 104.826 84.7502 103.744 85.3917 103.471C85.3917 103.471 87.6391 105.255 91.3114 105.194Z" fill="black"/>
<path opacity="0.1" d="M74.7073 108.582C74.7073 108.582 79.6861 109.61 81.0819 109.428L74.7073 108.582Z" fill="black"/>
<path opacity="0.1" d="M75.2241 109.881C75.2241 109.881 77.349 109.79 78.4105 110.214L75.2241 109.881Z" fill="black"/>
<path opacity="0.1" d="M75.4673 110.758C76.4368 110.963 77.4209 111.093 78.4106 111.145L75.4673 110.758Z" fill="black"/>
<path opacity="0.1" d="M75.3447 121.857C75.4361 121.797 79.5945 120.828 80.1116 121.524L75.3447 121.857Z" fill="black"/>
<path opacity="0.1" d="M75.3447 123.126C75.3447 123.126 78.9568 122.702 79.0482 123.126C79.1396 123.55 75.3447 123.126 75.3447 123.126Z" fill="black"/>
<path opacity="0.1" d="M75.3447 124.275C75.3447 124.275 79.1998 123.481 79.6547 123.675C80.1097 123.869 75.3447 124.275 75.3447 124.275Z" fill="black"/>
<path opacity="0.1" d="M75.5275 151.371L71.1572 154.366C71.1572 154.366 71.1825 154.015 71.2253 153.5C72.1973 151.118 73.4629 149.861 73.4629 149.861C74.4485 149.605 75.0707 149.841 75.4575 150.304C75.4731 150.947 75.5275 151.371 75.5275 151.371Z" fill="black"/>
<path d="M75.9533 154.062C75.3357 155.465 75.0249 156.984 75.0416 158.516C75.0662 159.773 74.7462 161.013 74.1162 162.102C74.025 162.255 73.9223 162.401 73.809 162.539C73.809 162.539 70.7724 162.514 69.7089 161.637C69.5895 161.542 69.4919 161.424 69.4232 161.288C68.8147 160.079 70.6071 155.452 70.6071 155.452C71.548 151.885 73.4591 149.979 73.4591 149.979C76.8632 149.102 75.9533 154.062 75.9533 154.062Z" fill="#444053"/>
<path opacity="0.1" d="M74.1162 162.093C74.0251 162.246 73.9224 162.392 73.8091 162.53C73.8091 162.53 70.7724 162.505 69.709 161.628C70.2319 159.904 71.9 154.688 72.6815 155.575C73.4164 156.408 73.9276 160.415 74.1162 162.093Z" fill="black"/>
<path d="M73.7002 155.899L73.4883 163.712H74.507C74.507 163.712 74.6722 156.857 75.1272 155.899C75.5821 154.94 73.7002 155.899 73.7002 155.899Z" fill="#444053"/>
<path opacity="0.1" d="M86.3638 156.54C86.3638 156.54 81.9021 152.337 82.357 152.004C82.4795 151.915 82.6 151.557 82.7109 151.08C83.5682 150.931 85.0438 151.287 86.2646 154.7C86.2938 155.669 86.3638 156.54 86.3638 156.54Z" fill="black"/>
<path d="M87.0307 161.229C86.9965 161.244 86.9606 161.254 86.9238 161.26C86.3989 161.351 84.4645 161.299 83.3817 161.26C83.1833 161.253 82.9952 161.17 82.857 161.028C82.7188 160.886 82.6414 160.697 82.641 160.499C82.641 160.208 82.641 159.854 82.6176 159.476C82.5671 158.283 82.4232 156.863 81.9936 156.544C81.2335 155.963 80.6327 153.991 81.9936 151.495C81.9936 151.495 84.6026 149.509 86.4844 155.477C86.4844 155.477 86.6672 157.179 87.4856 157.783C88.3041 158.388 87.3962 161.057 87.0307 161.229Z" fill="#444053"/>
<path opacity="0.1" d="M86.9199 161.26C86.395 161.351 84.4606 161.298 83.3778 161.26C83.1794 161.253 82.9913 161.17 82.8531 161.028C82.7149 160.886 82.6375 160.696 82.6371 160.499C82.6371 160.208 82.6371 159.854 82.6138 159.476C82.9423 158.031 83.4147 156.544 84.0232 156.205C84.0271 156.203 85.8682 155.995 86.9199 161.26Z" fill="black"/>
<path d="M82.324 156.027L82.8139 162.528H83.436V155.473L82.324 156.027Z" fill="#444053"/>
<path opacity="0.1" d="M83.8442 43.1319C82.0807 43.2627 80.3735 43.809 78.8635 44.7259C78.4747 44.9603 78.0858 45.245 77.9245 45.6653C77.7845 46.0294 77.8428 46.44 77.8487 46.8273C77.9012 50.1625 74.1685 52.6862 74.2852 56.0194C74.3318 57.3423 74.9986 58.5741 75.1211 59.8931C75.3252 62.0933 74.0188 64.1172 72.7668 65.9398C74.0567 66.018 75.3273 65.5984 76.3148 64.768C77.6359 69.1549 77.8065 73.8059 76.8105 78.2773H78.601C78.7779 78.2644 78.9555 78.2861 79.124 78.3412C79.2811 78.4155 79.4219 78.5202 79.5381 78.6491C81.2119 80.309 82.3336 82.7629 81.694 85.029L85.5044 83.6054C86.4162 83.2645 87.3416 82.9178 88.1348 82.3562C88.928 81.7945 89.5928 80.9791 89.76 80.0223C89.8631 79.4413 89.83 78.7479 90.3102 78.4109C90.5468 78.2855 90.7992 78.1924 91.0606 78.1339C92.1065 77.7659 92.5692 76.5612 92.7831 75.4766C93.0435 74.1459 93.1252 72.7867 93.0261 71.4345C92.8569 69.1684 92.1843 66.8675 92.7384 64.6557C93.0514 63.4142 93.7473 62.2579 93.8037 60.9757C93.8951 58.8627 92.2368 57.0421 91.9899 54.9406C91.8169 53.4764 92.3476 51.9947 92.1746 50.5305C92.0785 49.7748 91.8009 49.0533 91.3654 48.4271C90.9298 47.801 90.3491 47.2888 89.6725 46.9339C89.204 46.6937 88.7005 46.5329 88.2378 46.2676C87.1822 45.6575 86.5076 44.5593 85.5492 43.804C84.5907 43.0486 82.9946 42.7639 82.2734 43.7459L83.8442 43.1319Z" fill="black"/>
<path d="M83.8442 42.8897C82.0807 43.0205 80.3736 43.5668 78.8635 44.4837C78.4747 44.718 78.0858 45.0028 77.9245 45.423C77.7845 45.7872 77.8428 46.1978 77.8487 46.5851C77.9012 49.9203 74.1685 52.444 74.2852 55.7792C74.3318 57.1001 74.9986 58.3319 75.1211 59.6528C75.3253 61.853 74.0188 63.877 72.7668 65.7014C74.0563 65.7768 75.3259 65.3575 76.3148 64.5297C77.6356 68.9153 77.8063 73.565 76.8105 78.035H78.601C78.778 78.0228 78.9556 78.0452 79.124 78.1009C79.2814 78.1738 79.4223 78.2779 79.5381 78.4069C81.2119 80.0687 82.3337 82.5207 81.6941 84.7867L85.5045 83.3632C86.4162 83.0223 87.3416 82.6756 88.1348 82.1139C88.928 81.5523 89.5929 80.7369 89.76 79.7801C89.8631 79.199 89.83 78.5057 90.3102 78.1687C90.5468 78.0433 90.7992 77.9501 91.0606 77.8917C92.1066 77.5237 92.5692 76.319 92.7831 75.2344C93.0458 73.9027 93.1295 72.5421 93.0319 71.1884C92.8628 68.9223 92.1902 66.6214 92.7442 64.4096C93.0572 63.1681 93.7532 62.0118 93.8096 60.7296C93.9009 58.6166 92.2426 56.796 91.9957 54.6945C91.8227 53.2303 92.3535 51.7506 92.1804 50.2844C92.0841 49.5288 91.8063 48.8074 91.3708 48.1813C90.9353 47.5553 90.3548 47.043 89.6784 46.6878C89.2099 46.4476 88.7064 46.2869 88.2437 46.0234C87.188 45.4114 86.5134 44.3132 85.555 43.5579C84.5966 42.8025 83.0005 42.5178 82.2792 43.4998L83.8442 42.8897Z" fill="#925978"/>
<g opacity="0.1">
<path opacity="0.1" d="M77.8447 45.7773C77.8369 45.852 77.833 45.927 77.833 46.002C77.8388 45.9284 77.8427 45.8529 77.8447 45.7773Z" fill="black"/>
<path opacity="0.1" d="M91.9741 53.5307C92.0441 52.5042 92.2735 51.4738 92.188 50.4512C92.1238 51.4777 91.8944 52.5081 91.9741 53.5307Z" fill="black"/>
<path opacity="0.1" d="M75.1211 58.6344C75.0083 57.4336 74.4465 56.3102 74.3143 55.1113C74.2879 55.3311 74.2782 55.5525 74.2851 55.7737C74.3318 57.0811 74.9831 58.3032 75.1152 59.6047C75.1474 59.2821 75.1493 58.9573 75.1211 58.6344Z" fill="black"/>
<path opacity="0.1" d="M92.7521 63.4053C92.57 64.1935 92.5045 65.0039 92.5577 65.8109C92.577 65.3402 92.6421 64.8726 92.7521 64.4144C93.0651 63.1729 93.761 62.0167 93.8174 60.7345C93.8266 60.5068 93.8162 60.2787 93.7863 60.0527C93.6347 61.2051 93.0301 62.2781 92.7521 63.4053Z" fill="black"/>
<path opacity="0.1" d="M76.3148 63.5098C75.5039 64.1868 74.5003 64.5932 73.4453 64.6719C73.2237 65.0166 72.9943 65.3536 72.7668 65.6867C74.0563 65.7621 75.3259 65.3429 76.3148 64.515C77.025 66.8694 77.4057 69.3102 77.4462 71.7683C77.5039 68.9735 77.1221 66.1869 76.3148 63.5098Z" fill="black"/>
<path opacity="0.1" d="M92.789 74.2178C92.5751 75.3024 92.1124 76.5071 91.0665 76.8732C90.8047 76.9313 90.5522 77.0252 90.3161 77.1521C89.8359 77.4891 89.869 78.1863 89.7659 78.7635C89.5988 79.7203 88.9358 80.5338 88.1407 81.0877C87.3456 81.6416 86.4221 81.998 85.5103 82.3389L81.8749 83.6946C81.8561 84.0582 81.7974 84.4187 81.7 84.7696L85.5103 83.346C86.4221 83.0051 87.3475 82.6584 88.1407 82.0968C88.9339 81.5351 89.5988 80.7197 89.7659 79.7629C89.869 79.1819 89.8359 78.4885 90.3161 78.1515C90.5527 78.0261 90.8051 77.933 91.0665 77.8745C92.1124 77.5065 92.5751 76.3018 92.789 75.2172C93.0103 74.0885 93.1023 72.9384 93.0631 71.7891C93.0375 72.6047 92.9458 73.4169 92.789 74.2178Z" fill="black"/>
<path opacity="0.1" d="M79.544 77.3845C79.4283 77.255 79.2874 77.1502 79.1299 77.0766C78.9614 77.0216 78.7839 76.9993 78.6069 77.0107H77.0186C76.9564 77.3477 76.8903 77.6847 76.8242 78.0198H78.6147C78.7917 78.0076 78.9693 78.03 79.1377 78.0857C79.2951 78.1586 79.436 78.2627 79.5518 78.3917C80.7765 79.608 81.7039 81.2465 81.8633 82.9277C82.0596 80.9173 81.0137 78.8488 79.544 77.3845Z" fill="black"/>
</g>
<path opacity="0.1" d="M70.6616 83.9854C70.6616 83.9854 72.108 83.3811 72.4307 83.9854C72.7534 84.5896 70.6616 83.9854 70.6616 83.9854Z" fill="black"/>
<path opacity="0.1" d="M71.1729 85.0225C71.1729 85.0225 72.6192 84.4182 72.9439 85.0225C73.2686 85.6267 71.1729 85.0225 71.1729 85.0225Z" fill="black"/>
<path opacity="0.1" d="M160.816 6.82399C160.816 6.82399 153.419 6.38046 154.292 11.544C154.292 11.544 154.119 12.4562 154.949 12.8707C154.949 12.8707 154.963 12.4833 155.707 12.617C155.972 12.6614 156.242 12.6744 156.51 12.6557C156.872 12.6307 157.216 12.4886 157.49 12.2509C157.49 12.2509 159.568 11.3968 160.377 8.01125C160.377 8.01125 160.976 7.27139 160.96 7.08158L159.712 7.6142C159.712 7.6142 160.138 8.51095 159.801 9.25662C159.801 9.25662 159.762 7.64519 159.521 7.68393C159.473 7.68393 158.874 7.99382 158.874 7.99382C158.874 7.99382 159.607 9.55682 159.053 10.6937C159.053 10.6937 159.263 8.76854 158.645 8.10809L157.762 8.62909C157.762 8.62909 158.619 10.2425 158.038 11.5595C158.038 11.5595 158.188 9.53939 157.577 8.75305L156.78 9.37089C156.78 9.37089 157.587 10.9533 157.101 12.0456C157.101 12.0456 157.037 9.6924 156.613 9.51615C156.613 9.51615 155.917 10.1282 155.812 10.38C155.812 10.38 156.362 11.5421 156.02 12.1425C156.02 12.1425 155.81 10.5775 155.631 10.5698C155.631 10.5698 154.937 11.6079 154.865 12.3129C154.899 11.6551 155.105 11.0174 155.462 10.4632C155.062 10.5388 154.693 10.7301 154.401 11.0133C154.401 11.0133 154.508 10.2793 155.633 10.2134C155.633 10.2134 156.207 9.42706 156.36 9.37864C156.36 9.37864 155.241 9.28567 154.562 9.58587C154.562 9.58587 155.159 8.8925 156.566 9.19851L157.344 8.55937C157.344 8.55937 155.87 8.36569 155.244 8.58067C155.244 8.58067 155.964 7.96864 157.556 8.41411L158.411 7.90472C158.411 7.90472 157.155 7.63357 156.407 7.73235C156.407 7.73235 157.196 7.30819 158.662 7.76721L159.274 7.49412C159.274 7.49412 158.353 7.314 158.085 7.28495C157.816 7.25589 157.801 7.1823 157.801 7.1823C158.384 7.08563 158.982 7.1527 159.529 7.37598C159.529 7.37598 160.838 6.90533 160.816 6.82399Z" fill="#BA1C51"/>
<path opacity="0.1" d="M150.273 2.63672C150.273 2.63672 144.052 6.64785 147.826 10.291C147.826 10.291 148.228 11.1277 149.144 10.9727C149.144 10.9727 148.926 10.6551 149.605 10.32C149.845 10.1994 150.07 10.0505 150.275 9.87651C150.552 9.64247 150.746 9.325 150.826 8.97202C150.826 8.97202 151.992 7.05458 150.631 3.8511C150.631 3.8511 150.674 2.90206 150.542 2.76261L149.854 3.9247C149.854 3.9247 150.73 4.39534 150.903 5.19331C150.903 5.19331 149.914 3.92082 149.737 4.0932C149.702 4.12806 149.399 4.72653 149.399 4.72653C149.399 4.72653 150.921 5.55162 151.148 6.79311C151.148 6.79311 150.176 5.11777 149.28 4.95314L148.876 5.88281C148.876 5.88281 150.528 6.6769 150.843 8.08109C150.843 8.08109 149.76 6.36508 148.802 6.09199L148.53 7.06039C148.53 7.06039 150.124 7.8661 150.378 9.03593C150.378 9.03593 148.928 7.18047 148.481 7.29281C148.481 7.29281 148.287 8.19536 148.349 8.45489C148.349 8.45489 149.48 9.05918 149.566 9.75255C149.566 9.75255 148.465 8.61565 148.324 8.71055C148.324 8.71055 148.382 9.95592 148.745 10.5718C148.382 10.0219 148.169 9.38703 148.127 8.72992C147.85 9.02702 147.666 9.39877 147.598 9.79904C147.598 9.79904 147.248 9.14439 148.117 8.42778C148.117 8.42778 148.117 7.45937 148.205 7.32573C148.205 7.32573 147.248 7.90677 146.879 8.55367C146.879 8.55367 146.949 7.64337 148.269 7.0662L148.522 6.08811C148.522 6.08811 147.215 6.79698 146.844 7.3451C146.844 7.3451 147.06 6.42705 148.605 5.84601L148.994 4.9299C148.994 4.9299 147.828 5.45477 147.276 5.97578C147.276 5.97578 147.664 5.16619 149.115 4.6723L149.445 4.09126C149.445 4.09126 148.596 4.49024 148.362 4.62582C148.129 4.7614 148.073 4.71104 148.073 4.71104C148.485 4.28884 149.006 3.98909 149.579 3.84529C149.579 3.84529 150.34 2.69095 150.273 2.63672Z" fill="#BA1C51"/>
<path opacity="0.1" d="M140.806 7.3104C140.806 7.3104 137.087 13.7019 142.108 15.2378C142.108 15.2378 142.849 15.8014 143.594 15.2378C143.594 15.2378 143.257 15.0557 143.708 14.4495C143.865 14.2331 143.996 13.9991 144.097 13.7522C144.238 13.4182 144.266 13.0478 144.177 12.6967C144.177 12.6967 144.342 10.4616 141.669 8.2207C141.669 8.2207 141.28 7.35688 141.086 7.29297L141.002 8.64873C141.002 8.64873 141.998 8.67198 142.517 9.30531C142.517 9.30531 141.055 8.61775 140.981 8.84823C140.965 8.89471 140.967 9.56485 140.967 9.56485C140.967 9.56485 142.715 9.61714 143.493 10.6204C143.493 10.6204 141.86 9.56872 140.991 9.82438L141.053 10.8354C141.053 10.8354 142.886 10.7967 143.806 11.9064C143.806 11.9064 142.056 10.8664 141.084 11.0562L141.278 12.042C141.278 12.042 143.067 12.042 143.825 12.9678C143.825 12.9678 141.687 11.9684 141.339 12.2648C141.339 12.2648 141.574 13.1596 141.753 13.3668C141.753 13.3668 143.036 13.3939 143.428 13.973C143.428 13.973 141.93 13.4559 141.846 13.607C141.846 13.607 142.466 14.6896 143.071 15.0731C142.497 14.7491 142.018 14.2819 141.681 13.7174C141.569 14.1074 141.574 14.5215 141.696 14.9085C141.696 14.9085 141.086 14.4843 141.533 13.452C141.533 13.452 141.086 12.5882 141.111 12.4313C141.111 12.4313 140.528 13.3862 140.489 14.1241C140.489 14.1241 140.135 13.2816 141.049 12.1718L140.829 11.184C140.829 11.184 139.987 12.4061 139.906 13.0627C139.906 13.0627 139.68 12.1466 140.794 10.9322L140.72 9.94252C140.72 9.94252 139.915 10.94 139.667 11.6508C139.667 11.6508 139.639 10.756 140.711 9.65781L140.74 8.98961C140.74 8.98961 140.157 9.72754 140.018 9.95802C139.88 10.1885 139.799 10.1556 139.799 10.1556C139.974 9.59268 140.302 9.08919 140.748 8.70103C140.748 8.70103 140.887 7.32783 140.806 7.3104Z" fill="#BA1C51"/>
<path d="M172.737 80.1683C172.187 80.1683 171.649 80.3309 171.192 80.6354C170.734 80.94 170.378 81.3728 170.167 81.8793C169.957 82.3857 169.901 82.943 170.009 83.4806C170.116 84.0183 170.381 84.5121 170.77 84.8997C171.159 85.2873 171.655 85.5513 172.195 85.6582C172.734 85.7652 173.294 85.7103 173.802 85.5005C174.31 85.2907 174.745 84.9355 175.05 84.4797C175.356 84.0239 175.519 83.4881 175.519 82.9399C175.517 82.2055 175.223 81.5017 174.702 80.9824C174.181 80.4631 173.474 80.1704 172.737 80.1683ZM164.603 58.4199V61.1915H167.385L172.393 71.2978L170.299 74.693C170.071 75.0946 169.951 75.5484 169.951 76.01C169.951 77.8655 171.225 78.7816 172.951 78.7816H189.217V76.1165H173.291C173.245 76.1194 173.198 76.1123 173.155 76.0959C173.111 76.0795 173.072 76.0541 173.039 76.0213C173.006 75.9885 172.981 75.9491 172.964 75.9058C172.948 75.8625 172.941 75.8161 172.943 75.7699C172.98 75.65 173.03 75.5344 173.091 75.4251L174.481 73.2384H184.845C185.346 73.2425 185.838 73.1089 186.267 72.8523C186.697 72.5957 187.047 72.226 187.279 71.7839L192.289 63.2019C192.387 62.984 192.434 62.7471 192.429 62.5085C192.427 62.3302 192.389 62.1541 192.318 61.9906C192.246 61.8271 192.142 61.6795 192.012 61.5567C191.883 61.4339 191.729 61.3383 191.562 61.2755C191.394 61.2128 191.216 61.1842 191.037 61.1915H170.447L169.125 58.4199H164.603ZM186.433 80.1683C185.883 80.1687 185.346 80.3316 184.888 80.6364C184.431 80.9412 184.075 81.3742 183.865 81.8806C183.654 82.3871 183.599 82.9443 183.707 83.4818C183.815 84.0193 184.08 84.513 184.469 84.9004C184.858 85.2878 185.354 85.5516 185.893 85.6584C186.433 85.7652 186.992 85.7102 187.5 85.5003C188.009 85.2905 188.443 84.9353 188.749 84.4795C189.054 84.0238 189.217 83.488 189.217 82.9399C189.215 82.2051 188.921 81.5011 188.399 80.9817C187.878 80.4623 187.171 80.1699 186.433 80.1683Z" fill="#BA1C51"/>
<path d="M182.874 66.0879H180.541V63.7637H178.791V66.0879H176.458V67.831H178.791V70.1552H180.541V67.831H182.874V66.0879Z" fill="white"/>
</g>
<defs>
<linearGradient id="paint0_linear" x1="119.059" y1="115.587" x2="119.059" y2="19.4746" gradientUnits="userSpaceOnUse">
<stop stop-color="#808080" stop-opacity="0.25"/>
<stop offset="0.54" stop-color="#808080" stop-opacity="0.12"/>
<stop offset="1" stop-color="#808080" stop-opacity="0.1"/>
</linearGradient>
<clipPath id="clip0">
<rect width="217" height="166" fill="white" transform="translate(0 0.970703)"/>
</clipPath>
</defs>
</svg>
