<svg width="211" height="160" viewBox="0 0 211 160" fill="none" xmlns="http://www.w3.org/2000/svg">
<g clip-path="url(#clip0)">
<path opacity="0.1" d="M197.939 87.279C190.556 97.3975 192.993 111.841 197.26 123.348C198.689 127.199 200.313 131.274 199.572 135.465C198.667 140.588 194.413 144.427 189.99 146.517C181.929 150.328 172.406 149.719 165.195 144.918C158.972 140.774 154.591 133.888 148.247 129.942C137.631 123.34 123.847 126.29 112.031 131.33C103.672 134.896 94.5145 139.488 86.368 136.195C80.6353 133.879 76.7752 127.981 74.7442 121.677C73.7636 118.633 73.0772 115.329 71.1236 112.946C69.9619 111.53 68.4269 110.543 66.8485 109.718C52.4432 102.184 33.9138 106.893 19.9478 98.4862C10.519 92.8091 4.65055 81.7921 2.21226 70.21C-0.226022 58.6279 0.377421 46.4016 1.34859 34.3844C2.03877 25.8443 3.13063 16.7184 8.27121 10.0072C13.7079 2.91181 22.8198 0.0921041 30.9682 1.20341C39.1166 2.31472 46.422 6.8353 52.8128 12.2317C60.8066 18.9636 68.161 27.4152 78.1028 29.9712C84.8745 31.7117 92.0687 30.4798 99.1082 29.9354C110.875 29.0276 122.601 30.073 134.255 31.254C145.411 32.3841 156.645 33.6461 167.211 37.3511C174.688 39.973 180.615 44.9287 187.654 48.3154C192.242 50.5229 197.29 51.0352 201.609 53.887C206.938 57.3998 211.754 63.6232 210.191 71.0915C208.714 78.1907 201.861 81.9089 197.939 87.279Z" fill="#BA1C51"/>
<g opacity="0.5">
<path opacity="0.5" d="M161.731 133.432C161.731 133.432 162.353 115.018 172.327 104.613C176.513 100.247 179.263 94.7017 179.991 88.7006C180.331 85.8526 180.409 82.9795 180.224 80.1172" stroke="#535461" stroke-width="2" stroke-miterlimit="10"/>
<path opacity="0.5" d="M186.472 73.526C185.789 75.5829 180.083 80.3069 180.083 80.3069C180.083 80.3069 178.335 73.1098 179.018 71.0548C179.18 70.5659 179.437 70.1137 179.774 69.7241C180.112 69.3345 180.522 69.015 180.983 68.7839C181.444 68.5529 181.946 68.4148 182.46 68.3775C182.975 68.3402 183.491 68.4044 183.981 68.5666C184.47 68.7287 184.923 68.9856 185.313 69.3225C185.703 69.6594 186.023 70.0697 186.254 70.53C186.486 70.9904 186.624 71.4918 186.661 72.0055C186.699 72.5192 186.634 73.0353 186.472 73.5242V73.526Z" fill="#BA1C51"/>
<path opacity="0.5" d="M188.85 86.9564C187.153 88.3126 179.798 89.1828 179.798 89.1828C179.798 89.1828 182.25 82.1929 183.947 80.8386C184.346 80.4915 184.811 80.2287 185.315 80.0658C185.818 79.9029 186.349 79.8434 186.876 79.8908C187.403 79.9382 187.915 80.0915 188.382 80.3415C188.848 80.5916 189.259 80.9332 189.59 81.3459C189.92 81.7585 190.164 82.2337 190.306 82.7429C190.448 83.252 190.486 83.7846 190.417 84.3087C190.348 84.8327 190.173 85.3374 189.904 85.7924C189.635 86.2474 189.276 86.6434 188.85 86.9564Z" fill="#BA1C51"/>
<path opacity="0.5" d="M182.122 106.326C179.976 106.643 173.181 103.689 173.181 103.689C173.181 103.689 178.827 98.8899 180.973 98.5734C181.483 98.4981 182.003 98.5239 182.503 98.6493C183.004 98.7747 183.474 98.9973 183.888 99.3043C184.302 99.6114 184.652 99.9969 184.917 100.439C185.181 100.881 185.357 101.37 185.432 101.88C185.507 102.39 185.482 102.909 185.356 103.409C185.23 103.908 185.008 104.378 184.7 104.792C184.393 105.205 184.007 105.554 183.564 105.819C183.122 106.084 182.632 106.258 182.122 106.334V106.326Z" fill="#BA1C51"/>
<path opacity="0.5" d="M173.724 119.839C171.663 120.513 164.465 118.742 164.465 118.742C164.465 118.742 169.219 113.06 171.28 112.385C172.27 112.061 173.348 112.142 174.277 112.611C175.207 113.08 175.912 113.899 176.237 114.888C176.562 115.876 176.481 116.953 176.011 117.881C175.541 118.81 174.721 119.514 173.732 119.839H173.724Z" fill="#BA1C51"/>
<path opacity="0.5" d="M171.839 86.9876C172.84 88.9089 179.233 92.6704 179.233 92.6704C179.233 92.6704 179.813 85.2886 178.812 83.3655C178.574 82.9086 178.248 82.5031 177.853 82.1719C177.459 81.8408 177.002 81.5906 176.511 81.4357C176.019 81.2807 175.501 81.224 174.988 81.2688C174.474 81.3135 173.974 81.4589 173.517 81.6966C173.059 81.9343 172.653 82.2597 172.322 82.6542C171.99 83.0486 171.74 83.5044 171.585 83.9955C171.43 84.4867 171.373 85.0035 171.418 85.5166C171.463 86.0296 171.608 86.5289 171.846 86.9857L171.839 86.9876Z" fill="#BA1C51"/>
<path opacity="0.5" d="M162.219 102.912C163.75 104.447 170.969 106.127 170.969 106.127C170.969 106.127 169.311 98.9096 167.782 97.3745C167.047 96.6377 166.049 96.2227 165.008 96.2207C163.967 96.2188 162.967 96.6301 162.229 97.3642C161.492 98.0983 161.076 99.095 161.074 100.135C161.072 101.175 161.484 102.174 162.219 102.91V102.912Z" fill="#BA1C51"/>
<path opacity="0.5" d="M154.997 119.674C156.245 121.445 163.077 124.321 163.077 124.321C163.077 124.321 162.666 116.928 161.416 115.156C161.127 114.716 160.752 114.34 160.314 114.048C159.876 113.756 159.384 113.555 158.866 113.457C158.349 113.359 157.817 113.366 157.303 113.478C156.788 113.589 156.301 113.803 155.871 114.106C155.441 114.41 155.076 114.796 154.799 115.243C154.521 115.69 154.337 116.188 154.256 116.708C154.175 117.227 154.2 117.758 154.328 118.268C154.457 118.778 154.687 119.257 155.004 119.676L154.997 119.674Z" fill="#BA1C51"/>
<path opacity="0.5" d="M163.922 125.81C163.922 125.81 158.265 117.59 159.257 109.856C159.694 106.615 159.067 103.32 157.469 100.465C156.7 99.1154 155.809 97.8393 154.806 96.6523" stroke="#535461" stroke-width="2" stroke-miterlimit="10"/>
<path opacity="0.5" d="M155.404 91.7746C155.768 92.8896 154.806 96.7811 154.806 96.7811C154.806 96.7811 151.727 94.2081 151.363 93.0949C151.188 92.5597 151.233 91.9769 151.488 91.4747C151.743 90.9726 152.188 90.5923 152.723 90.4174C153.259 90.2426 153.843 90.2876 154.346 90.5424C154.848 90.7973 155.229 91.2412 155.404 91.7764V91.7746Z" fill="#BA1C51"/>
<path opacity="0.5" d="M160.765 96.8567C160.465 97.9868 157.539 100.735 157.539 100.735C157.539 100.735 156.355 96.9037 156.654 95.7698C156.799 95.2253 157.154 94.7604 157.641 94.4772C158.129 94.1941 158.709 94.116 159.254 94.2602C159.799 94.4043 160.265 94.7588 160.548 95.2457C160.831 95.7327 160.91 96.3121 160.765 96.8567Z" fill="#BA1C51"/>
<path opacity="0.5" d="M164.073 107.456C163.241 108.282 159.328 109.177 159.328 109.177C159.328 109.177 160.241 105.273 161.074 104.446C161.272 104.249 161.507 104.093 161.766 103.987C162.024 103.881 162.301 103.827 162.58 103.828C162.859 103.829 163.136 103.885 163.394 103.992C163.651 104.1 163.885 104.257 164.082 104.455C164.279 104.653 164.435 104.888 164.541 105.146C164.647 105.404 164.701 105.68 164.7 105.959C164.699 106.238 164.644 106.514 164.536 106.772C164.428 107.029 164.271 107.263 164.073 107.459V107.456Z" fill="#BA1C51"/>
<path opacity="0.5" d="M164.769 116.039C164.088 116.994 160.375 118.533 160.375 118.533C160.375 118.533 160.614 114.53 161.295 113.575C161.457 113.348 161.662 113.155 161.898 113.006C162.135 112.858 162.398 112.758 162.674 112.711C162.949 112.665 163.231 112.673 163.503 112.735C163.775 112.797 164.032 112.913 164.26 113.074C164.487 113.236 164.681 113.44 164.829 113.677C164.978 113.913 165.078 114.176 165.124 114.451C165.171 114.726 165.163 115.007 165.101 115.279C165.038 115.551 164.923 115.808 164.761 116.035L164.769 116.039Z" fill="#BA1C51"/>
<path opacity="0.5" d="M153.367 102.333C154.422 102.849 158.414 102.434 158.414 102.434C158.414 102.434 156.288 99.0327 155.234 98.5184C154.728 98.2712 154.144 98.2349 153.611 98.4177C153.078 98.6005 152.639 98.9874 152.391 99.4932C152.144 99.999 152.108 100.582 152.291 101.115C152.474 101.647 152.861 102.085 153.367 102.333Z" fill="#BA1C51"/>
<path opacity="0.5" d="M154.308 112.364C155.47 112.541 159.155 110.953 159.155 110.953C159.155 110.953 156.107 108.342 154.947 108.173C154.39 108.088 153.822 108.228 153.368 108.562C152.914 108.895 152.611 109.396 152.526 109.953C152.441 110.509 152.581 111.077 152.916 111.53C153.25 111.984 153.751 112.286 154.308 112.371V112.364Z" fill="#BA1C51"/>
<path opacity="0.5" d="M156.56 121.983C157.675 122.36 161.576 121.418 161.576 121.418C161.576 121.418 159.015 118.331 157.901 117.96C157.366 117.782 156.782 117.824 156.278 118.077C155.774 118.329 155.39 118.771 155.213 119.306C155.035 119.84 155.077 120.423 155.33 120.927C155.582 121.43 156.025 121.813 156.56 121.991V121.983Z" fill="#BA1C51"/>
<path opacity="0.5" d="M155.404 91.7746C155.768 92.8896 154.806 96.7811 154.806 96.7811C154.806 96.7811 151.727 94.2081 151.363 93.0949C151.188 92.5597 151.233 91.9769 151.488 91.4747C151.743 90.9726 152.188 90.5923 152.723 90.4174C153.259 90.2426 153.843 90.2876 154.346 90.5424C154.848 90.7973 155.229 91.2412 155.404 91.7764V91.7746Z" fill="white"/>
<path opacity="0.5" d="M160.765 96.8567C160.465 97.9868 157.539 100.735 157.539 100.735C157.539 100.735 156.355 96.9037 156.654 95.7698C156.799 95.2253 157.154 94.7604 157.641 94.4772C158.129 94.1941 158.709 94.116 159.254 94.2602C159.799 94.4043 160.265 94.7588 160.548 95.2457C160.831 95.7327 160.91 96.3121 160.765 96.8567Z" fill="white"/>
<path opacity="0.5" d="M164.073 107.456C163.241 108.282 159.328 109.177 159.328 109.177C159.328 109.177 160.241 105.273 161.074 104.446C161.272 104.249 161.507 104.093 161.766 103.987C162.024 103.881 162.301 103.827 162.58 103.828C162.859 103.829 163.136 103.885 163.394 103.992C163.651 104.1 163.885 104.257 164.082 104.455C164.279 104.653 164.435 104.888 164.541 105.146C164.647 105.404 164.701 105.68 164.7 105.959C164.699 106.238 164.644 106.514 164.536 106.772C164.428 107.029 164.271 107.263 164.073 107.459V107.456Z" fill="white"/>
<path opacity="0.5" d="M164.769 116.039C164.088 116.994 160.375 118.533 160.375 118.533C160.375 118.533 160.614 114.53 161.295 113.575C161.457 113.348 161.662 113.155 161.898 113.006C162.135 112.858 162.398 112.758 162.674 112.711C162.949 112.665 163.231 112.673 163.503 112.735C163.775 112.797 164.032 112.913 164.26 113.074C164.487 113.236 164.681 113.44 164.829 113.677C164.978 113.913 165.078 114.176 165.124 114.451C165.171 114.726 165.163 115.007 165.101 115.279C165.038 115.551 164.923 115.808 164.761 116.035L164.769 116.039Z" fill="white"/>
<path opacity="0.5" d="M153.367 102.333C154.422 102.849 158.414 102.434 158.414 102.434C158.414 102.434 156.288 99.0327 155.234 98.5184C154.728 98.2712 154.144 98.2349 153.611 98.4177C153.078 98.6005 152.639 98.9874 152.391 99.4932C152.144 99.999 152.108 100.582 152.291 101.115C152.474 101.647 152.861 102.085 153.367 102.333Z" fill="white"/>
<path opacity="0.5" d="M154.308 112.364C155.47 112.541 159.155 110.953 159.155 110.953C159.155 110.953 156.107 108.342 154.947 108.173C154.39 108.088 153.822 108.228 153.368 108.562C152.914 108.895 152.611 109.396 152.526 109.953C152.441 110.509 152.581 111.077 152.916 111.53C153.25 111.984 153.751 112.286 154.308 112.371V112.364Z" fill="white"/>
<path opacity="0.5" d="M156.56 121.983C157.675 122.36 161.576 121.418 161.576 121.418C161.576 121.418 159.015 118.331 157.901 117.96C157.366 117.782 156.782 117.824 156.278 118.077C155.774 118.329 155.39 118.771 155.213 119.306C155.035 119.84 155.077 120.423 155.33 120.927C155.582 121.43 156.025 121.813 156.56 121.991V121.983Z" fill="white"/>
<path opacity="0.5" d="M153.454 148.099H169.545L173.57 123.588H149.432L153.454 148.099Z" fill="#474059"/>
<path opacity="0.1" d="M152.511 123.588L156.27 146.492H169.809L169.545 148.099H153.454L149.432 123.588H152.511Z" fill="black"/>
</g>
<path d="M156.505 8.37109H38.4565V150.637H156.505V8.37109Z" fill="url(#paint0_linear)"/>
<path d="M154.997 10.1914H39.9653V148.822H154.997V10.1914Z" fill="white"/>
<path d="M131.047 25.8242H84.6577V28.0845H131.047V25.8242Z" fill="#C0BCCF"/>
<path d="M131.047 32.9824H84.6577V35.2427H131.047V32.9824Z" fill="#C0BCCF"/>
<path d="M119.921 40.1406H95.7837V42.4009H119.921V40.1406Z" fill="#BA1C51"/>
<path opacity="0.5" d="M131.047 71.2188H84.6577V73.479H131.047V71.2188Z" fill="#C0BCCF"/>
<path opacity="0.5" d="M131.047 78.377H84.6577V80.6372H131.047V78.377Z" fill="#C0BCCF"/>
<path opacity="0.5" d="M119.921 85.5332H95.7837V87.7935H119.921V85.5332Z" fill="#BA1C51"/>
<path opacity="0.5" d="M131.047 116.613H84.6577V118.874H131.047V116.613Z" fill="#C0BCCF"/>
<path opacity="0.5" d="M131.047 123.77H84.6577V126.03H131.047V123.77Z" fill="#C0BCCF"/>
<path opacity="0.5" d="M119.921 130.928H95.7837V133.188H119.921V130.928Z" fill="#BA1C51"/>
<g opacity="0.5">
<path opacity="0.5" d="M68.325 83.8256L67.352 83.3886C67.3668 83.2409 67.3731 83.0925 67.3708 82.9441C67.3776 82.8186 67.3776 82.6928 67.3708 82.5674C67.2747 81.5766 66.6429 80.7139 66.196 79.8079C65.7868 78.9809 65.527 78.0882 65.4285 77.1709C65.3097 76.0408 65.4285 74.8692 65.0137 73.8069C64.6761 72.9498 64.0085 72.2341 63.2938 71.6012C62.4916 70.8492 61.5543 70.2555 60.5312 69.8514C59.4865 69.4746 58.2853 69.3786 57.2406 69.7628C56.2977 70.1094 55.5717 70.8007 54.8702 71.4731C54.3608 71.9214 53.9108 72.4328 53.5313 72.995C53.1032 73.6957 52.9203 74.5019 52.777 75.2968C52.5518 76.5694 52.3969 77.8534 52.3131 79.143C52.2395 80.2185 52.1245 81.4391 51.2042 82.0983C50.7554 82.4204 50.1237 82.6013 49.9182 83.0891C49.8599 83.2356 49.8367 83.3936 49.8503 83.5506C49.8446 83.6812 49.8541 83.812 49.8786 83.9405C49.8918 84.0158 49.9068 84.0893 49.9257 84.1646C49.6616 84.8203 49.4399 85.4922 49.2619 86.1763C49.1243 86.6848 48.9979 87.184 48.8848 87.6681H49.1903H49.3524L51.11 87.7095H51.1345L53.0202 87.7528H53.0297L54.7872 87.7943H54.8306L55.3378 87.8301H55.5038L62.532 87.992H62.5697L63.0374 88.0034H63.2014L64.6082 88.0354L66.6825 88.0825H66.6976L68.259 88.1201H68.425H68.7456L68.6626 86.4852C69.0058 83.9819 68.325 83.8256 68.325 83.8256ZM60.4294 83.6259C60.4294 85.0122 58.9434 86.7093 58.9434 86.7093L57.448 84.6751L57.5027 84.596L58.9434 86.5549C58.9434 86.5549 60.4294 84.8597 60.4294 83.4715C60.464 83.4009 60.5037 83.3329 60.5482 83.268L60.5821 83.3735C60.5251 83.4538 60.474 83.5381 60.4294 83.6259ZM62.7149 89.0657C62.7149 88.996 62.7149 88.9244 62.7017 88.8547C62.6885 88.785 62.6904 88.7229 62.681 88.6551C62.6715 88.5873 62.664 88.5213 62.6546 88.4535C62.6451 88.3857 62.6319 88.3198 62.6187 88.252C62.6055 88.1842 62.5923 88.1182 62.5773 88.0504C62.5773 88.0278 62.5678 88.0071 62.5622 87.9826C62.5414 87.8941 62.5188 87.8056 62.4943 87.717C62.4698 87.6285 62.4547 87.5739 62.432 87.5042C62.432 87.4722 62.4132 87.4402 62.4019 87.41C62.3906 87.3799 62.3698 87.3083 62.3528 87.2575L62.3189 87.1595C62.3038 87.1162 62.2887 87.071 62.2718 87.0277C62.2435 86.9485 62.2133 86.8713 62.1831 86.7922C62.153 86.7131 62.1209 86.6359 62.0888 86.5586C62.0247 86.4004 61.955 86.2441 61.8852 86.0859C61.6117 85.4756 61.3044 84.8747 61.0215 84.2795C60.8698 83.9681 60.7351 83.6487 60.618 83.3227L60.5821 83.3698C60.525 83.4506 60.4739 83.5356 60.4294 83.624C60.4294 85.0104 58.9434 86.7075 58.9434 86.7075L57.448 84.6732L56.1393 86.5568C55.9507 86.6509 55.7621 86.9711 55.615 87.427C55.5735 87.5494 55.5339 87.685 55.4962 87.8263C55.4698 87.9224 55.4453 88.0146 55.4227 88.122C55.4095 88.1729 55.3982 88.2237 55.3869 88.2765L55.3529 88.4366V88.4611C55.3303 88.5703 55.3077 88.6833 55.2869 88.7982C55.2662 88.9131 55.2417 89.045 55.2209 89.1749C55.2058 89.2566 55.1926 89.3375 55.1813 89.4179C55.1549 89.5742 55.1323 89.7325 55.1097 89.8907C55.0965 89.983 55.0833 90.079 55.0719 90.1638L55.0267 90.5142C55.1229 90.8023 55.2303 91.0792 55.3416 91.3693C55.4124 91.5216 55.4539 91.6858 55.4642 91.8534C57.784 92.4711 60.2254 92.4711 62.5452 91.8534C62.5444 91.8477 62.5444 91.842 62.5452 91.8364C62.5104 91.6788 62.4952 91.5175 62.4999 91.3561C62.538 90.9035 62.601 90.4532 62.6885 90.0075C62.7164 89.7876 62.7284 89.566 62.7243 89.3445V89.2653C62.7187 89.1938 62.7168 89.1297 62.7149 89.0676V89.0657ZM62.7149 89.0657C62.7149 88.996 62.7149 88.9244 62.7017 88.8547C62.6885 88.785 62.6904 88.7229 62.681 88.6551C62.6715 88.5873 62.664 88.5213 62.6546 88.4535C62.6451 88.3857 62.6319 88.3198 62.6187 88.252C62.6055 88.1842 62.5923 88.1182 62.5773 88.0504C62.5773 88.0278 62.5678 88.0071 62.5622 87.9826C62.5414 87.8941 62.5188 87.8056 62.4943 87.717C62.4698 87.6285 62.4547 87.5739 62.432 87.5042C62.432 87.4722 62.4132 87.4402 62.4019 87.41C62.3906 87.3799 62.3698 87.3083 62.3528 87.2575L62.3189 87.1595C62.3038 87.1162 62.2887 87.071 62.2718 87.0277C62.2435 86.9485 62.2133 86.8713 62.1831 86.7922C62.153 86.7131 62.1209 86.6359 62.0888 86.5586C62.0247 86.4004 61.955 86.2441 61.8852 86.0859C61.6117 85.4756 61.3044 84.8747 61.0215 84.2795C60.8698 83.9681 60.7351 83.6487 60.618 83.3227L60.5821 83.3698C60.525 83.4506 60.4739 83.5356 60.4294 83.624C60.4294 85.0104 58.9434 86.7075 58.9434 86.7075L57.448 84.6732L56.1393 86.5568C55.9507 86.6509 55.7621 86.9711 55.615 87.427C55.5735 87.5494 55.5339 87.685 55.4962 87.8263C55.4698 87.9224 55.4453 88.0146 55.4227 88.122C55.4095 88.1729 55.3982 88.2237 55.3869 88.2765L55.3529 88.4366V88.4611C55.3303 88.5703 55.3077 88.6833 55.2869 88.7982C55.2662 88.9131 55.2417 89.045 55.2209 89.1749C55.2058 89.2566 55.1926 89.3375 55.1813 89.4179C55.1549 89.5742 55.1323 89.7325 55.1097 89.8907C55.0965 89.983 55.0833 90.079 55.0719 90.1638L55.0267 90.5142C55.1229 90.8023 55.2303 91.0792 55.3416 91.3693C55.4124 91.5216 55.4539 91.6858 55.4642 91.8534C57.784 92.4711 60.2254 92.4711 62.5452 91.8534C62.5444 91.8477 62.5444 91.842 62.5452 91.8364C62.5104 91.6788 62.4952 91.5175 62.4999 91.3561C62.538 90.9035 62.601 90.4532 62.6885 90.0075C62.7164 89.7876 62.7284 89.566 62.7243 89.3445V89.2653C62.7187 89.1938 62.7168 89.1297 62.7149 89.0676V89.0657ZM62.7149 89.0657C62.7149 88.996 62.7149 88.9244 62.7017 88.8547C62.6885 88.785 62.6904 88.7229 62.681 88.6551C62.6715 88.5873 62.664 88.5213 62.6546 88.4535C62.6451 88.3857 62.6319 88.3198 62.6187 88.252C62.6055 88.1842 62.5923 88.1182 62.5773 88.0504C62.5773 88.0278 62.5678 88.0071 62.5622 87.9826C62.5414 87.8941 62.5188 87.8056 62.4943 87.717C62.4698 87.6285 62.4547 87.5739 62.432 87.5042C62.432 87.4722 62.4132 87.4402 62.4019 87.41C62.3906 87.3799 62.3698 87.3083 62.3528 87.2575L62.3189 87.1595C62.3038 87.1162 62.2887 87.071 62.2718 87.0277C62.2435 86.9485 62.2133 86.8713 62.1831 86.7922C62.153 86.7131 62.1209 86.6359 62.0888 86.5586C62.0247 86.4004 61.955 86.2441 61.8852 86.0859C61.6117 85.4756 61.3044 84.8747 61.0215 84.2795C60.8698 83.9681 60.7351 83.6487 60.618 83.3227L60.5821 83.3698C60.525 83.4506 60.4739 83.5356 60.4294 83.624C60.4294 85.0104 58.9434 86.7075 58.9434 86.7075L57.448 84.6732L56.1393 86.5568C55.9507 86.6509 55.7621 86.9711 55.615 87.427C55.5735 87.5494 55.5339 87.685 55.4962 87.8263C55.4698 87.9224 55.4453 88.0146 55.4227 88.122C55.4095 88.1729 55.3982 88.2237 55.3869 88.2765L55.3529 88.4366V88.4611C55.3303 88.5703 55.3077 88.6833 55.2869 88.7982C55.2662 88.9131 55.2417 89.045 55.2209 89.1749C55.2058 89.2566 55.1926 89.3375 55.1813 89.4179C55.1549 89.5742 55.1323 89.7325 55.1097 89.8907C55.0965 89.983 55.0833 90.079 55.0719 90.1638L55.0267 90.5142C55.1229 90.8023 55.2303 91.0792 55.3416 91.3693C55.4124 91.5216 55.4539 91.6858 55.4642 91.8534C57.784 92.4711 60.2254 92.4711 62.5452 91.8534C62.5444 91.8477 62.5444 91.842 62.5452 91.8364C62.5104 91.6788 62.4952 91.5175 62.4999 91.3561C62.538 90.9035 62.601 90.4532 62.6885 90.0075C62.7164 89.7876 62.7284 89.566 62.7243 89.3445V89.2653C62.7187 89.1938 62.7168 89.1297 62.7149 89.0676V89.0657ZM62.7149 89.0657C62.7149 88.996 62.7149 88.9244 62.7017 88.8547C62.6885 88.785 62.6904 88.7229 62.681 88.6551C62.6715 88.5873 62.664 88.5213 62.6546 88.4535C62.6451 88.3857 62.6319 88.3198 62.6187 88.252C62.6055 88.1842 62.5923 88.1182 62.5773 88.0504C62.5773 88.0278 62.5678 88.0071 62.5622 87.9826C62.5414 87.8941 62.5188 87.8056 62.4943 87.717C62.4698 87.6285 62.4547 87.5739 62.432 87.5042C62.432 87.4722 62.4132 87.4402 62.4019 87.41C62.3906 87.3799 62.3698 87.3083 62.3528 87.2575L62.3189 87.1595C62.3038 87.1162 62.2887 87.071 62.2718 87.0277C62.2435 86.9485 62.2133 86.8713 62.1831 86.7922C62.153 86.7131 62.1209 86.6359 62.0888 86.5586C62.0247 86.4004 61.955 86.2441 61.8852 86.0859C61.6117 85.4756 61.3044 84.8747 61.0215 84.2795C60.8698 83.9681 60.7351 83.6487 60.618 83.3227L60.5821 83.3698C60.525 83.4506 60.4739 83.5356 60.4294 83.624C60.4294 85.0104 58.9434 86.7075 58.9434 86.7075L57.448 84.6732L56.1393 86.5568C55.9507 86.6509 55.7621 86.9711 55.615 87.427C55.5735 87.5494 55.5339 87.685 55.4962 87.8263C55.4698 87.9224 55.4453 88.0146 55.4227 88.122C55.4095 88.1729 55.3982 88.2237 55.3869 88.2765L55.3529 88.4366V88.4611C55.3303 88.5703 55.3077 88.6833 55.2869 88.7982C55.2662 88.9131 55.2417 89.045 55.2209 89.1749C55.2058 89.2566 55.1926 89.3375 55.1813 89.4179C55.1549 89.5742 55.1323 89.7325 55.1097 89.8907C55.0965 89.983 55.0833 90.079 55.0719 90.1638L55.0267 90.5142C55.1229 90.8023 55.2303 91.0792 55.3416 91.3693C55.4124 91.5216 55.4539 91.6858 55.4642 91.8534C57.784 92.4711 60.2254 92.4711 62.5452 91.8534C62.5444 91.8477 62.5444 91.842 62.5452 91.8364C62.5104 91.6788 62.4952 91.5175 62.4999 91.3561C62.538 90.9035 62.601 90.4532 62.6885 90.0075C62.7164 89.7876 62.7284 89.566 62.7243 89.3445V89.2653C62.7187 89.1938 62.7168 89.1297 62.7149 89.0676V89.0657Z" fill="url(#paint1_linear)"/>
<path opacity="0.5" d="M62.7829 75.9277H54.1084V81.7668H62.7829V75.9277Z" fill="#493545"/>
<path opacity="0.5" d="M64.2236 82.3676L60.5935 87.4759L56.7993 87.1463C56.7993 87.1463 51.8492 87.474 55.1493 83.6861C56.7352 81.8647 57.2538 80.3466 57.3651 79.2635C57.4858 78.0919 57.1293 77.4251 57.1293 77.4251L61.2535 76.9316C61.0674 77.4867 61.0438 78.0833 61.1856 78.6513C61.7023 80.7911 64.2236 82.3676 64.2236 82.3676Z" fill="#C77485"/>
<path opacity="0.1" d="M61.1835 78.6456C60.6456 79.0524 60.0159 79.3211 59.3498 79.4282C58.6837 79.5352 58.0014 79.4774 57.3629 79.2596C57.4836 78.088 57.1272 77.4212 57.1272 77.4212L61.2513 76.9277C61.0656 77.4822 61.0421 78.0781 61.1835 78.6456Z" fill="black"/>
<path opacity="0.5" d="M58.6962 79.3169C60.9739 79.3169 62.8203 77.4726 62.8203 75.1975C62.8203 72.9224 60.9739 71.0781 58.6962 71.0781C56.4185 71.0781 54.572 72.9224 54.572 75.1975C54.572 77.4726 56.4185 79.3169 58.6962 79.3169Z" fill="#C77485"/>
<path opacity="0.1" d="M64.0726 82.5787L63.9764 82.2019L63.8934 81.8704L63.7709 81.3807L63.7482 81.2903L63.7294 81.2149C63.7294 81.2149 63.8274 80.9192 63.1806 81.0153L63.0599 81.036C62.9581 81.0567 62.8393 81.085 62.7035 81.1227L62.5809 81.1603L62.4188 81.2112C61.9053 81.3782 61.437 81.6604 61.0497 82.0362C60.8759 82.2023 60.7221 82.3881 60.5915 82.59C60.5783 82.6088 60.5688 82.6257 60.5575 82.6408C60.5129 82.7108 60.4732 82.7838 60.4387 82.8593C60.4387 84.3436 58.9527 86.1555 58.9527 86.1555L57.5026 84.0629L57.4743 84.0215L57.1292 83.5204L57.0066 83.3585L56.9651 83.3019L56.2108 82.2905L56.0223 82.0381L55.96 81.9533L55.8676 81.8309L55.6508 81.5427L54.8022 82.0381L53.6707 82.6973L53.0107 86.9824V87.1011L53.0314 87.4552L53.1691 89.7833V89.8153L52.9277 90.7797L52.9636 90.7986C53.5331 91.1054 54.1258 91.3674 54.7362 91.5821L54.8965 91.6386C55.085 91.7008 55.2623 91.7573 55.4471 91.8119C55.454 91.8398 55.459 91.8681 55.4622 91.8967C55.4622 91.8703 55.4622 91.842 55.4622 91.8157C57.7762 92.4762 60.2292 92.4762 62.5432 91.8157L62.5866 91.8025C62.6941 91.7724 62.8035 91.7403 62.9091 91.7045L63.0807 91.6499C63.546 91.4945 64.0019 91.3121 64.446 91.1037L64.6044 87.7321L64.7175 85.3004V85.161L64.0726 82.5787Z" fill="black"/>
<path opacity="0.5" d="M62.7148 88.8426C62.7148 88.7672 62.7148 88.6919 62.7016 88.6165C62.6884 88.5412 62.6903 88.4753 62.6809 88.4037C62.6715 88.3321 62.6639 88.2605 62.6545 88.189C62.6451 88.1174 62.6319 88.0458 62.6187 87.9742C62.6055 87.9027 62.5923 87.8311 62.5772 87.7595C62.5772 87.735 62.5678 87.7124 62.5621 87.6879C62.5414 87.5938 62.5187 87.4996 62.4942 87.4035C62.4697 87.3075 62.4546 87.2509 62.432 87.1756C62.432 87.1417 62.4131 87.1078 62.4018 87.0758C62.3905 87.0438 62.3698 86.9665 62.3528 86.9119L62.3188 86.8064C62.3038 86.7593 62.2887 86.7122 62.2717 86.6652C62.2434 86.5804 62.2132 86.4975 62.1831 86.4128C62.1529 86.328 62.1208 86.2451 62.0888 86.1622C62.0247 85.9927 61.9549 85.8251 61.8851 85.6574C61.6117 85.0057 61.3043 84.3634 61.0214 83.7268C60.8694 83.393 60.7347 83.0516 60.6179 82.704L60.5821 82.7549C60.5247 82.8415 60.4737 82.9321 60.4293 83.0261C60.4293 84.5085 58.9433 86.3223 58.9433 86.3223L57.4479 84.1468L56.1392 86.1566C55.9506 86.2564 55.7621 86.5992 55.615 87.0871C55.5735 87.2189 55.5339 87.3621 55.4962 87.5146C55.4698 87.6164 55.4452 87.7237 55.4226 87.8311C55.4094 87.8857 55.3981 87.9403 55.3868 87.9968L55.3528 88.1683V88.1946C55.3302 88.3114 55.3076 88.4319 55.2868 88.5544C55.2661 88.6768 55.2416 88.8181 55.2208 88.9518C55.2058 89.0385 55.1926 89.1251 55.1812 89.2117C55.1548 89.3794 55.1322 89.5489 55.1096 89.7165C55.0964 89.8145 55.0832 89.9049 55.0719 90.0085L55.0266 90.3852C55.1228 90.6941 55.2303 90.9993 55.3415 91.2988C55.4126 91.4629 55.4541 91.6382 55.4641 91.8167C57.7781 92.4772 60.2311 92.4772 62.5451 91.8167C62.5443 91.8105 62.5443 91.8042 62.5451 91.7979C62.5103 91.6288 62.4951 91.4563 62.4999 91.2837C62.5379 90.8005 62.6009 90.3195 62.6885 89.8427C62.7163 89.6077 62.7283 89.3711 62.7243 89.1345V89.0498C62.7186 88.9782 62.7167 88.9104 62.7148 88.8426ZM62.7148 88.8426C62.7148 88.7672 62.7148 88.6919 62.7016 88.6165C62.6884 88.5412 62.6903 88.4753 62.6809 88.4037C62.6715 88.3321 62.6639 88.2605 62.6545 88.189C62.6451 88.1174 62.6319 88.0458 62.6187 87.9742C62.6055 87.9027 62.5923 87.8311 62.5772 87.7595C62.5772 87.735 62.5678 87.7124 62.5621 87.6879C62.5414 87.5938 62.5187 87.4996 62.4942 87.4035C62.4697 87.3075 62.4546 87.2509 62.432 87.1756C62.432 87.1417 62.4131 87.1078 62.4018 87.0758C62.3905 87.0438 62.3698 86.9665 62.3528 86.9119L62.3188 86.8064C62.3038 86.7593 62.2887 86.7122 62.2717 86.6652C62.2434 86.5804 62.2132 86.4975 62.1831 86.4128C62.1529 86.328 62.1208 86.2451 62.0888 86.1622C62.0247 85.9927 61.9549 85.8251 61.8851 85.6574C61.6117 85.0057 61.3043 84.3634 61.0214 83.7268C60.8694 83.393 60.7347 83.0516 60.6179 82.704L60.5821 82.7549C60.5247 82.8415 60.4737 82.9321 60.4293 83.0261C60.4293 84.5085 58.9433 86.3223 58.9433 86.3223L57.4479 84.1468L56.1392 86.1566C55.9506 86.2564 55.7621 86.5992 55.615 87.0871C55.5735 87.2189 55.5339 87.3621 55.4962 87.5146C55.4698 87.6164 55.4452 87.7237 55.4226 87.8311C55.4094 87.8857 55.3981 87.9403 55.3868 87.9968L55.3528 88.1683V88.1946C55.3302 88.3114 55.3076 88.4319 55.2868 88.5544C55.2661 88.6768 55.2416 88.8181 55.2208 88.9518C55.2058 89.0385 55.1926 89.1251 55.1812 89.2117C55.1548 89.3794 55.1322 89.5489 55.1096 89.7165C55.0964 89.8145 55.0832 89.9049 55.0719 90.0085L55.0266 90.3852C55.1228 90.6941 55.2303 90.9993 55.3415 91.2988C55.4126 91.4629 55.4541 91.6382 55.4641 91.8167C57.7781 92.4772 60.2311 92.4772 62.5451 91.8167C62.5443 91.8105 62.5443 91.8042 62.5451 91.7979C62.5103 91.6288 62.4951 91.4563 62.4999 91.2837C62.5379 90.8005 62.6009 90.3195 62.6885 89.8427C62.7163 89.6077 62.7283 89.3711 62.7243 89.1345V89.0498C62.7186 88.9782 62.7167 88.9104 62.7148 88.8426ZM62.7148 88.8426C62.7148 88.7672 62.7148 88.6919 62.7016 88.6165C62.6884 88.5412 62.6903 88.4753 62.6809 88.4037C62.6715 88.3321 62.6639 88.2605 62.6545 88.189C62.6451 88.1174 62.6319 88.0458 62.6187 87.9742C62.6055 87.9027 62.5923 87.8311 62.5772 87.7595C62.5772 87.735 62.5678 87.7124 62.5621 87.6879C62.5414 87.5938 62.5187 87.4996 62.4942 87.4035C62.4697 87.3075 62.4546 87.2509 62.432 87.1756C62.432 87.1417 62.4131 87.1078 62.4018 87.0758C62.3905 87.0438 62.3698 86.9665 62.3528 86.9119L62.3188 86.8064C62.3038 86.7593 62.2887 86.7122 62.2717 86.6652C62.2434 86.5804 62.2132 86.4975 62.1831 86.4128C62.1529 86.328 62.1208 86.2451 62.0888 86.1622C62.0247 85.9927 61.9549 85.8251 61.8851 85.6574C61.6117 85.0057 61.3043 84.3634 61.0214 83.7268C60.8694 83.393 60.7347 83.0516 60.6179 82.704L60.5821 82.7549C60.5247 82.8415 60.4737 82.9321 60.4293 83.0261C60.4293 84.5085 58.9433 86.3223 58.9433 86.3223L57.4479 84.1468L56.1392 86.1566C55.9506 86.2564 55.7621 86.5992 55.615 87.0871C55.5735 87.2189 55.5339 87.3621 55.4962 87.5146C55.4698 87.6164 55.4452 87.7237 55.4226 87.8311C55.4094 87.8857 55.3981 87.9403 55.3868 87.9968L55.3528 88.1683V88.1946C55.3302 88.3114 55.3076 88.4319 55.2868 88.5544C55.2661 88.6768 55.2416 88.8181 55.2208 88.9518C55.2058 89.0385 55.1926 89.1251 55.1812 89.2117C55.1548 89.3794 55.1322 89.5489 55.1096 89.7165C55.0964 89.8145 55.0832 89.9049 55.0719 90.0085L55.0266 90.3852C55.1228 90.6941 55.2303 90.9993 55.3415 91.2988C55.4126 91.4629 55.4541 91.6382 55.4641 91.8167C57.7781 92.4772 60.2311 92.4772 62.5451 91.8167C62.5443 91.8105 62.5443 91.8042 62.5451 91.7979C62.5103 91.6288 62.4951 91.4563 62.4999 91.2837C62.5379 90.8005 62.6009 90.3195 62.6885 89.8427C62.7163 89.6077 62.7283 89.3711 62.7243 89.1345V89.0498C62.7186 88.9782 62.7167 88.9104 62.7148 88.8426ZM64.7138 85.3071L64.0405 82.623L63.9255 82.1634L63.8935 82.0372L63.7294 81.3817C63.7298 81.3761 63.7298 81.3704 63.7294 81.3648C63.7333 81.3358 63.7287 81.3064 63.7162 81.28C63.6917 81.231 63.6294 81.1802 63.4842 81.167C63.429 81.1631 63.3735 81.1631 63.3183 81.167C63.1545 81.1832 62.9923 81.2135 62.8337 81.2574C62.7563 81.2781 62.6734 81.3007 62.5847 81.329L62.4226 81.3798H62.4075C61.9731 81.5222 61.5699 81.746 61.2194 82.0391C60.9879 82.2319 60.7848 82.4564 60.616 82.7059L60.5802 82.7567C60.5228 82.8434 60.4718 82.934 60.4274 83.028C60.4274 84.5103 58.9414 86.3242 58.9414 86.3242L57.446 84.1487L57.3612 84.0263L57.3461 84.0055L57.1292 83.6872L56.9652 83.4687L56.9218 83.4122L56.1486 82.3819L55.9035 82.0485V82.0372L55.8186 81.9223L55.6564 81.7076L55.0907 82.0372L53.6764 82.8603L53.0239 87.1003V87.1455L53.0428 87.4544L53.1823 89.8145V89.9482L52.9692 90.7977C53.5388 91.1046 54.1315 91.3666 54.7419 91.5813L54.9021 91.6378C55.0907 91.7 55.268 91.7565 55.4528 91.8111C55.4596 91.839 55.4647 91.8673 55.4679 91.8958C55.4679 91.8695 55.4679 91.8412 55.4679 91.8149C57.7819 92.4754 60.2349 92.4754 62.5489 91.8149L62.5923 91.8017C62.6998 91.7715 62.8091 91.7395 62.9147 91.7037L63.0863 91.6491C63.5517 91.4937 64.0075 91.3113 64.4516 91.1029L64.6082 87.735L64.7213 85.3297L64.7138 85.3071ZM55.4396 91.8111C55.4464 91.839 55.4515 91.8673 55.4547 91.8958C55.4547 91.8695 55.4547 91.8412 55.4547 91.8149L55.4396 91.8111ZM62.7148 88.8426C62.7148 88.7672 62.7148 88.6919 62.7016 88.6165C62.6884 88.5412 62.6903 88.4753 62.6809 88.4037C62.6715 88.3321 62.6639 88.2605 62.6545 88.189C62.6451 88.1174 62.6319 88.0458 62.6187 87.9742C62.6055 87.9027 62.5923 87.8311 62.5772 87.7595C62.5772 87.735 62.5678 87.7124 62.5621 87.6879C62.5414 87.5938 62.5187 87.4996 62.4942 87.4035C62.4697 87.3075 62.4546 87.2509 62.432 87.1756C62.432 87.1417 62.4131 87.1078 62.4018 87.0758C62.3905 87.0438 62.3698 86.9665 62.3528 86.9119L62.3188 86.8064C62.3038 86.7593 62.2887 86.7122 62.2717 86.6652C62.2434 86.5804 62.2132 86.4975 62.1831 86.4128C62.1529 86.328 62.1208 86.2451 62.0888 86.1622C62.0247 85.9927 61.9549 85.8251 61.8851 85.6574C61.6117 85.0057 61.3043 84.3634 61.0214 83.7268C60.8694 83.393 60.7347 83.0516 60.6179 82.704L60.5821 82.7549C60.5247 82.8415 60.4737 82.9321 60.4293 83.0261C60.4293 84.5085 58.9433 86.3223 58.9433 86.3223L57.4479 84.1468L56.1392 86.1566C55.9506 86.2564 55.7621 86.5992 55.615 87.0871C55.5735 87.2189 55.5339 87.3621 55.4962 87.5146C55.4698 87.6164 55.4452 87.7237 55.4226 87.8311C55.4094 87.8857 55.3981 87.9403 55.3868 87.9968L55.3528 88.1683V88.1946C55.3302 88.3114 55.3076 88.4319 55.2868 88.5544C55.2661 88.6768 55.2416 88.8181 55.2208 88.9518C55.2058 89.0385 55.1926 89.1251 55.1812 89.2117C55.1548 89.3794 55.1322 89.5489 55.1096 89.7165C55.0964 89.8145 55.0832 89.9049 55.0719 90.0085L55.0266 90.3852C55.1228 90.6941 55.2303 90.9993 55.3415 91.2988C55.4126 91.4629 55.4541 91.6382 55.4641 91.8167C57.7781 92.4772 60.2311 92.4772 62.5451 91.8167C62.5443 91.8105 62.5443 91.8042 62.5451 91.7979C62.5103 91.6288 62.4951 91.4563 62.4999 91.2837C62.5379 90.8005 62.6009 90.3195 62.6885 89.8427C62.7163 89.6077 62.7283 89.3711 62.7243 89.1345V89.0498C62.7186 88.9782 62.7167 88.9104 62.7148 88.8426ZM62.7148 88.8426C62.7148 88.7672 62.7148 88.6919 62.7016 88.6165C62.6884 88.5412 62.6903 88.4753 62.6809 88.4037C62.6715 88.3321 62.6639 88.2605 62.6545 88.189C62.6451 88.1174 62.6319 88.0458 62.6187 87.9742C62.6055 87.9027 62.5923 87.8311 62.5772 87.7595C62.5772 87.735 62.5678 87.7124 62.5621 87.6879C62.5414 87.5938 62.5187 87.4996 62.4942 87.4035C62.4697 87.3075 62.4546 87.2509 62.432 87.1756C62.432 87.1417 62.4131 87.1078 62.4018 87.0758C62.3905 87.0438 62.3698 86.9665 62.3528 86.9119L62.3188 86.8064C62.3038 86.7593 62.2887 86.7122 62.2717 86.6652C62.2434 86.5804 62.2132 86.4975 62.1831 86.4128C62.1529 86.328 62.1208 86.2451 62.0888 86.1622C62.0247 85.9927 61.9549 85.8251 61.8851 85.6574C61.6117 85.0057 61.3043 84.3634 61.0214 83.7268C60.8694 83.393 60.7347 83.0516 60.6179 82.704L60.5821 82.7549C60.5247 82.8415 60.4737 82.9321 60.4293 83.0261C60.4293 84.5085 58.9433 86.3223 58.9433 86.3223L57.4479 84.1468L56.1392 86.1566C55.9506 86.2564 55.7621 86.5992 55.615 87.0871C55.5735 87.2189 55.5339 87.3621 55.4962 87.5146C55.4698 87.6164 55.4452 87.7237 55.4226 87.8311C55.4094 87.8857 55.3981 87.9403 55.3868 87.9968L55.3528 88.1683V88.1946C55.3302 88.3114 55.3076 88.4319 55.2868 88.5544C55.2661 88.6768 55.2416 88.8181 55.2208 88.9518C55.2058 89.0385 55.1926 89.1251 55.1812 89.2117C55.1548 89.3794 55.1322 89.5489 55.1096 89.7165C55.0964 89.8145 55.0832 89.9049 55.0719 90.0085L55.0266 90.3852C55.1228 90.6941 55.2303 90.9993 55.3415 91.2988C55.4126 91.4629 55.4541 91.6382 55.4641 91.8167C57.7781 92.4772 60.2311 92.4772 62.5451 91.8167C62.5443 91.8105 62.5443 91.8042 62.5451 91.7979C62.5103 91.6288 62.4951 91.4563 62.4999 91.2837C62.5379 90.8005 62.6009 90.3195 62.6885 89.8427C62.7163 89.6077 62.7283 89.3711 62.7243 89.1345V89.0498C62.7186 88.9782 62.7167 88.9104 62.7148 88.8426ZM62.7148 88.8426C62.7148 88.7672 62.7148 88.6919 62.7016 88.6165C62.6884 88.5412 62.6903 88.4753 62.6809 88.4037C62.6715 88.3321 62.6639 88.2605 62.6545 88.189C62.6451 88.1174 62.6319 88.0458 62.6187 87.9742C62.6055 87.9027 62.5923 87.8311 62.5772 87.7595C62.5772 87.735 62.5678 87.7124 62.5621 87.6879C62.5414 87.5938 62.5187 87.4996 62.4942 87.4035C62.4697 87.3075 62.4546 87.2509 62.432 87.1756C62.432 87.1417 62.4131 87.1078 62.4018 87.0758C62.3905 87.0438 62.3698 86.9665 62.3528 86.9119L62.3188 86.8064C62.3038 86.7593 62.2887 86.7122 62.2717 86.6652C62.2434 86.5804 62.2132 86.4975 62.1831 86.4128C62.1529 86.328 62.1208 86.2451 62.0888 86.1622C62.0247 85.9927 61.9549 85.8251 61.8851 85.6574C61.6117 85.0057 61.3043 84.3634 61.0214 83.7268C60.8694 83.393 60.7347 83.0516 60.6179 82.704L60.5821 82.7549C60.5247 82.8415 60.4737 82.9321 60.4293 83.0261C60.4293 84.5085 58.9433 86.3223 58.9433 86.3223L57.4479 84.1468L56.1392 86.1566C55.9506 86.2564 55.7621 86.5992 55.615 87.0871C55.5735 87.2189 55.5339 87.3621 55.4962 87.5146C55.4698 87.6164 55.4452 87.7237 55.4226 87.8311C55.4094 87.8857 55.3981 87.9403 55.3868 87.9968L55.3528 88.1683V88.1946C55.3302 88.3114 55.3076 88.4319 55.2868 88.5544C55.2661 88.6768 55.2416 88.8181 55.2208 88.9518C55.2058 89.0385 55.1926 89.1251 55.1812 89.2117C55.1548 89.3794 55.1322 89.5489 55.1096 89.7165C55.0964 89.8145 55.0832 89.9049 55.0719 90.0085L55.0266 90.3852C55.1228 90.6941 55.2303 90.9993 55.3415 91.2988C55.4126 91.4629 55.4541 91.6382 55.4641 91.8167C57.7781 92.4772 60.2311 92.4772 62.5451 91.8167C62.5443 91.8105 62.5443 91.8042 62.5451 91.7979C62.5103 91.6288 62.4951 91.4563 62.4999 91.2837C62.5379 90.8005 62.6009 90.3195 62.6885 89.8427C62.7163 89.6077 62.7283 89.3711 62.7243 89.1345V89.0498C62.7186 88.9782 62.7167 88.9104 62.7148 88.8426ZM62.7148 88.8426C62.7148 88.7672 62.7148 88.6919 62.7016 88.6165C62.6884 88.5412 62.6903 88.4753 62.6809 88.4037C62.6715 88.3321 62.6639 88.2605 62.6545 88.189C62.6451 88.1174 62.6319 88.0458 62.6187 87.9742C62.6055 87.9027 62.5923 87.8311 62.5772 87.7595C62.5772 87.735 62.5678 87.7124 62.5621 87.6879C62.5414 87.5938 62.5187 87.4996 62.4942 87.4035C62.4697 87.3075 62.4546 87.2509 62.432 87.1756C62.432 87.1417 62.4131 87.1078 62.4018 87.0758C62.3905 87.0438 62.3698 86.9665 62.3528 86.9119L62.3188 86.8064C62.3038 86.7593 62.2887 86.7122 62.2717 86.6652C62.2434 86.5804 62.2132 86.4975 62.1831 86.4128C62.1529 86.328 62.1208 86.2451 62.0888 86.1622C62.0247 85.9927 61.9549 85.8251 61.8851 85.6574C61.6117 85.0057 61.3043 84.3634 61.0214 83.7268C60.8694 83.393 60.7347 83.0516 60.6179 82.704L60.5821 82.7549C60.5247 82.8415 60.4737 82.9321 60.4293 83.0261C60.4293 84.5085 58.9433 86.3223 58.9433 86.3223L57.4479 84.1468L56.1392 86.1566C55.9506 86.2564 55.7621 86.5992 55.615 87.0871C55.5735 87.2189 55.5339 87.3621 55.4962 87.5146C55.4698 87.6164 55.4452 87.7237 55.4226 87.8311C55.4094 87.8857 55.3981 87.9403 55.3868 87.9968L55.3528 88.1683V88.1946C55.3302 88.3114 55.3076 88.4319 55.2868 88.5544C55.2661 88.6768 55.2416 88.8181 55.2208 88.9518C55.2058 89.0385 55.1926 89.1251 55.1812 89.2117C55.1548 89.3794 55.1322 89.5489 55.1096 89.7165C55.0964 89.8145 55.0832 89.9049 55.0719 90.0085L55.0266 90.3852C55.1228 90.6941 55.2303 90.9993 55.3415 91.2988C55.4126 91.4629 55.4541 91.6382 55.4641 91.8167C57.7781 92.4772 60.2311 92.4772 62.5451 91.8167C62.5443 91.8105 62.5443 91.8042 62.5451 91.7979C62.5103 91.6288 62.4951 91.4563 62.4999 91.2837C62.5379 90.8005 62.6009 90.3195 62.6885 89.8427C62.7163 89.6077 62.7283 89.3711 62.7243 89.1345V89.0498C62.7186 88.9782 62.7167 88.9104 62.7148 88.8426ZM62.7148 88.8426C62.7148 88.7672 62.7148 88.6919 62.7016 88.6165C62.6884 88.5412 62.6903 88.4753 62.6809 88.4037C62.6715 88.3321 62.6639 88.2605 62.6545 88.189C62.6451 88.1174 62.6319 88.0458 62.6187 87.9742C62.6055 87.9027 62.5923 87.8311 62.5772 87.7595C62.5772 87.735 62.5678 87.7124 62.5621 87.6879C62.5414 87.5938 62.5187 87.4996 62.4942 87.4035C62.4697 87.3075 62.4546 87.2509 62.432 87.1756C62.432 87.1417 62.4131 87.1078 62.4018 87.0758C62.3905 87.0438 62.3698 86.9665 62.3528 86.9119L62.3188 86.8064C62.3038 86.7593 62.2887 86.7122 62.2717 86.6652C62.2434 86.5804 62.2132 86.4975 62.1831 86.4128C62.1529 86.328 62.1208 86.2451 62.0888 86.1622C62.0247 85.9927 61.9549 85.8251 61.8851 85.6574C61.6117 85.0057 61.3043 84.3634 61.0214 83.7268C60.8694 83.393 60.7347 83.0516 60.6179 82.704L60.5821 82.7549C60.5247 82.8415 60.4737 82.9321 60.4293 83.0261C60.4293 84.5085 58.9433 86.3223 58.9433 86.3223L57.4479 84.1468L56.1392 86.1566C55.9506 86.2564 55.7621 86.5992 55.615 87.0871C55.5735 87.2189 55.5339 87.3621 55.4962 87.5146C55.4698 87.6164 55.4452 87.7237 55.4226 87.8311C55.4094 87.8857 55.3981 87.9403 55.3868 87.9968L55.3528 88.1683V88.1946C55.3302 88.3114 55.3076 88.4319 55.2868 88.5544C55.2661 88.6768 55.2416 88.8181 55.2208 88.9518C55.2058 89.0385 55.1926 89.1251 55.1812 89.2117C55.1548 89.3794 55.1322 89.5489 55.1096 89.7165C55.0964 89.8145 55.0832 89.9049 55.0719 90.0085L55.0266 90.3852C55.1228 90.6941 55.2303 90.9993 55.3415 91.2988C55.4126 91.4629 55.4541 91.6382 55.4641 91.8167C57.7781 92.4772 60.2311 92.4772 62.5451 91.8167C62.5443 91.8105 62.5443 91.8042 62.5451 91.7979C62.5103 91.6288 62.4951 91.4563 62.4999 91.2837C62.5379 90.8005 62.6009 90.3195 62.6885 89.8427C62.7163 89.6077 62.7283 89.3711 62.7243 89.1345V89.0498C62.7186 88.9782 62.7167 88.9104 62.7148 88.8426ZM62.7148 88.8426C62.7148 88.7672 62.7148 88.6919 62.7016 88.6165C62.6884 88.5412 62.6903 88.4753 62.6809 88.4037C62.6715 88.3321 62.6639 88.2605 62.6545 88.189C62.6451 88.1174 62.6319 88.0458 62.6187 87.9742C62.6055 87.9027 62.5923 87.8311 62.5772 87.7595C62.5772 87.735 62.5678 87.7124 62.5621 87.6879C62.5414 87.5938 62.5187 87.4996 62.4942 87.4035C62.4697 87.3075 62.4546 87.2509 62.432 87.1756C62.432 87.1417 62.4131 87.1078 62.4018 87.0758C62.3905 87.0438 62.3698 86.9665 62.3528 86.9119L62.3188 86.8064C62.3038 86.7593 62.2887 86.7122 62.2717 86.6652C62.2434 86.5804 62.2132 86.4975 62.1831 86.4128C62.1529 86.328 62.1208 86.2451 62.0888 86.1622C62.0247 85.9927 61.9549 85.8251 61.8851 85.6574C61.6117 85.0057 61.3043 84.3634 61.0214 83.7268C60.8694 83.393 60.7347 83.0516 60.6179 82.704L60.5821 82.7549C60.5247 82.8415 60.4737 82.9321 60.4293 83.0261C60.4293 84.5085 58.9433 86.3223 58.9433 86.3223L57.4479 84.1468L56.1392 86.1566C55.9506 86.2564 55.7621 86.5992 55.615 87.0871C55.5735 87.2189 55.5339 87.3621 55.4962 87.5146C55.4698 87.6164 55.4452 87.7237 55.4226 87.8311C55.4094 87.8857 55.3981 87.9403 55.3868 87.9968L55.3528 88.1683V88.1946C55.3302 88.3114 55.3076 88.4319 55.2868 88.5544C55.2661 88.6768 55.2416 88.8181 55.2208 88.9518C55.2058 89.0385 55.1926 89.1251 55.1812 89.2117C55.1548 89.3794 55.1322 89.5489 55.1096 89.7165C55.0964 89.8145 55.0832 89.9049 55.0719 90.0085L55.0266 90.3852C55.1228 90.6941 55.2303 90.9993 55.3415 91.2988C55.4126 91.4629 55.4541 91.6382 55.4641 91.8167C57.7781 92.4772 60.2311 92.4772 62.5451 91.8167C62.5443 91.8105 62.5443 91.8042 62.5451 91.7979C62.5103 91.6288 62.4951 91.4563 62.4999 91.2837C62.5379 90.8005 62.6009 90.3195 62.6885 89.8427C62.7163 89.6077 62.7283 89.3711 62.7243 89.1345V89.0498C62.7186 88.9782 62.7167 88.9104 62.7148 88.8426ZM62.7148 88.8426C62.7148 88.7672 62.7148 88.6919 62.7016 88.6165C62.6884 88.5412 62.6903 88.4753 62.6809 88.4037C62.6715 88.3321 62.6639 88.2605 62.6545 88.189C62.6451 88.1174 62.6319 88.0458 62.6187 87.9742C62.6055 87.9027 62.5923 87.8311 62.5772 87.7595C62.5772 87.735 62.5678 87.7124 62.5621 87.6879C62.5414 87.5938 62.5187 87.4996 62.4942 87.4035C62.4697 87.3075 62.4546 87.2509 62.432 87.1756C62.432 87.1417 62.4131 87.1078 62.4018 87.0758C62.3905 87.0438 62.3698 86.9665 62.3528 86.9119L62.3188 86.8064C62.3038 86.7593 62.2887 86.7122 62.2717 86.6652C62.2434 86.5804 62.2132 86.4975 62.1831 86.4128C62.1529 86.328 62.1208 86.2451 62.0888 86.1622C62.0247 85.9927 61.9549 85.8251 61.8851 85.6574C61.6117 85.0057 61.3043 84.3634 61.0214 83.7268C60.8694 83.393 60.7347 83.0516 60.6179 82.704L60.5821 82.7549C60.5247 82.8415 60.4737 82.9321 60.4293 83.0261C60.4293 84.5085 58.9433 86.3223 58.9433 86.3223L57.4479 84.1468L56.1392 86.1566C55.9506 86.2564 55.7621 86.5992 55.615 87.0871C55.5735 87.2189 55.5339 87.3621 55.4962 87.5146C55.4698 87.6164 55.4452 87.7237 55.4226 87.8311C55.4094 87.8857 55.3981 87.9403 55.3868 87.9968L55.3528 88.1683V88.1946C55.3302 88.3114 55.3076 88.4319 55.2868 88.5544C55.2661 88.6768 55.2416 88.8181 55.2208 88.9518C55.2058 89.0385 55.1926 89.1251 55.1812 89.2117C55.1548 89.3794 55.1322 89.5489 55.1096 89.7165C55.0964 89.8145 55.0832 89.9049 55.0719 90.0085L55.0266 90.3852C55.1228 90.6941 55.2303 90.9993 55.3415 91.2988C55.4126 91.4629 55.4541 91.6382 55.4641 91.8167C57.7781 92.4772 60.2311 92.4772 62.5451 91.8167C62.5443 91.8105 62.5443 91.8042 62.5451 91.7979C62.5103 91.6288 62.4951 91.4563 62.4999 91.2837C62.5379 90.8005 62.6009 90.3195 62.6885 89.8427C62.7163 89.6077 62.7283 89.3711 62.7243 89.1345V89.0498C62.7186 88.9782 62.7167 88.9104 62.7148 88.8426ZM62.7148 88.8426C62.7148 88.7672 62.7148 88.6919 62.7016 88.6165C62.6884 88.5412 62.6903 88.4753 62.6809 88.4037C62.6715 88.3321 62.6639 88.2605 62.6545 88.189C62.6451 88.1174 62.6319 88.0458 62.6187 87.9742C62.6055 87.9027 62.5923 87.8311 62.5772 87.7595C62.5772 87.735 62.5678 87.7124 62.5621 87.6879C62.5414 87.5938 62.5187 87.4996 62.4942 87.4035C62.4697 87.3075 62.4546 87.2509 62.432 87.1756C62.432 87.1417 62.4131 87.1078 62.4018 87.0758C62.3905 87.0438 62.3698 86.9665 62.3528 86.9119L62.3188 86.8064C62.3038 86.7593 62.2887 86.7122 62.2717 86.6652C62.2434 86.5804 62.2132 86.4975 62.1831 86.4128C62.1529 86.328 62.1208 86.2451 62.0888 86.1622C62.0247 85.9927 61.9549 85.8251 61.8851 85.6574C61.6117 85.0057 61.3043 84.3634 61.0214 83.7268C60.8694 83.393 60.7347 83.0516 60.6179 82.704L60.5821 82.7549C60.5247 82.8415 60.4737 82.9321 60.4293 83.0261C60.4293 84.5085 58.9433 86.3223 58.9433 86.3223L57.4479 84.1468L56.1392 86.1566C55.9506 86.2564 55.7621 86.5992 55.615 87.0871C55.5735 87.2189 55.5339 87.3621 55.4962 87.5146C55.4698 87.6164 55.4452 87.7237 55.4226 87.8311C55.4094 87.8857 55.3981 87.9403 55.3868 87.9968L55.3528 88.1683V88.1946C55.3302 88.3114 55.3076 88.4319 55.2868 88.5544C55.2661 88.6768 55.2416 88.8181 55.2208 88.9518C55.2058 89.0385 55.1926 89.1251 55.1812 89.2117C55.1548 89.3794 55.1322 89.5489 55.1096 89.7165C55.0964 89.8145 55.0832 89.9049 55.0719 90.0085L55.0266 90.3852C55.1228 90.6941 55.2303 90.9993 55.3415 91.2988C55.4126 91.4629 55.4541 91.6382 55.4641 91.8167C57.7781 92.4772 60.2311 92.4772 62.5451 91.8167C62.5443 91.8105 62.5443 91.8042 62.5451 91.7979C62.5103 91.6288 62.4951 91.4563 62.4999 91.2837C62.5379 90.8005 62.6009 90.3195 62.6885 89.8427C62.7163 89.6077 62.7283 89.3711 62.7243 89.1345V89.0498C62.7186 88.9782 62.7167 88.9104 62.7148 88.8426Z" fill="white"/>
<path opacity="0.1" d="M57.4745 84.0193L57.3482 84.0024C57.1574 83.9766 56.9685 83.9389 56.7825 83.8894L56.7127 83.8705C56.2526 83.7406 55.7491 83.507 55.6359 83.0964C55.6022 82.9642 55.6062 82.8253 55.6472 82.6952C55.7106 82.4711 55.7965 82.254 55.9037 82.0472V82.0359C55.9179 82.0069 55.9336 81.9786 55.9508 81.9512C56.1064 81.6474 56.3417 81.3915 56.6316 81.2109L56.4053 81.2467L54.4894 81.5575L51.5193 82.0359C51.5193 82.0359 50.9913 81.9305 50.2728 83.9082C50.2728 83.9327 50.2558 83.9553 50.2483 83.9817C50.0748 84.4658 49.8919 85.0704 49.7033 85.8257C49.5732 86.3493 49.4544 86.8635 49.345 87.3627C49.313 87.5134 49.2809 87.6622 49.2507 87.8091C49.5907 88.2094 49.9567 88.5869 50.3464 88.9392L50.4086 88.9976C51.1717 89.6879 52.015 90.2842 52.9204 90.7738L52.9563 90.7927C53.5258 91.0995 54.1185 91.3615 54.7289 91.5763L54.8892 91.6328C54.9231 91.2843 54.9608 90.8982 55.0061 90.5026C55.0061 90.4631 55.0061 90.4235 55.0212 90.3839L55.0664 90.0072C55.0777 89.9112 55.0909 89.8189 55.1041 89.7153C55.1268 89.5476 55.1494 89.3781 55.1758 89.2105C55.1871 89.1238 55.2003 89.0372 55.2154 88.9506C55.2361 88.8168 55.2588 88.6831 55.2814 88.5531C55.304 88.4231 55.3248 88.3101 55.3474 88.1933V88.167L55.3814 87.9956C55.3927 87.9391 55.404 87.8844 55.4172 87.8298C55.4398 87.7225 55.4643 87.6151 55.4907 87.5134C55.5284 87.3608 55.568 87.2177 55.6095 87.0858C55.7604 86.598 55.9358 86.2552 56.1338 86.1553L57.4425 84.1456L57.4972 84.0608L57.5217 84.0231L57.4745 84.0193Z" fill="black"/>
<path opacity="0.1" d="M55.0928 70.6791C54.9042 70.939 54.9193 71.2969 54.8344 71.6209C54.6326 72.3574 53.8331 72.8188 53.6502 73.561C53.5427 73.9942 53.6671 74.4538 53.5936 74.8945C53.4597 75.7064 52.7167 76.2564 52.3018 76.9665C52.0915 77.3323 51.9668 77.7409 51.9371 78.1617C51.9074 78.5825 51.9734 79.0046 52.1302 79.3963C52.2273 79.5938 52.3074 79.7993 52.3697 80.0103C52.4173 80.3248 52.3974 80.6459 52.3113 80.9521C52.1698 81.6227 52.0246 82.361 52.349 82.9657C52.6224 83.4761 53.19 83.7756 53.7614 83.8698C54.3384 83.9349 54.9221 83.9082 55.4907 83.7907C56.1148 83.6946 56.7541 83.5835 57.2972 83.2633L55.2549 78.3396C55.0494 77.8423 54.8382 77.3281 54.8401 76.7894C54.8567 76.392 54.9429 76.0006 55.0946 75.6329C55.49 74.5675 56.0639 73.5771 56.7918 72.7039C57.0879 73.0468 57.0653 73.5685 57.3123 73.949C57.5306 74.2303 57.8213 74.4471 58.1533 74.5762C59.121 75.0477 60.1152 75.4628 61.131 75.8194C61.1947 75.8274 61.2555 75.8509 61.3079 75.888C61.3603 75.9251 61.4028 75.9745 61.4315 76.0319C61.4602 76.0893 61.4743 76.1528 61.4726 76.217C61.4708 76.2811 61.4532 76.3438 61.4214 76.3995L60.652 79.5714C60.4823 80.2703 60.3333 81.0783 60.7689 81.6434C61.2045 82.2085 62.187 82.4759 62.1926 83.2049C62.1846 83.3203 62.1846 83.4361 62.1926 83.5514C62.2436 83.8924 62.649 84.0562 62.9941 84.0732C63.5606 84.0844 64.1126 83.8941 64.5517 83.5363C64.9907 83.1785 65.2881 82.6765 65.3909 82.1199C65.5795 80.873 64.7535 79.724 64.4084 78.5091C63.8276 76.4654 64.597 74.0676 63.4561 72.2726C62.5321 70.8166 60.8481 70.421 59.249 70.2402C58.1269 70.1084 55.8829 69.6375 55.0928 70.6791Z" fill="black"/>
<path opacity="0.5" d="M55.0928 70.4896C54.9042 70.7496 54.9193 71.1075 54.8344 71.4314C54.6326 72.1679 53.8331 72.6294 53.6502 73.3715C53.5427 73.8047 53.6671 74.2643 53.5936 74.7051C53.4597 75.5169 52.7167 76.0669 52.3018 76.777C52.0915 77.1428 51.9668 77.5515 51.9371 77.9723C51.9074 78.3931 51.9734 78.8151 52.1302 79.2068C52.2273 79.4044 52.3074 79.6098 52.3697 79.8209C52.4173 80.1354 52.3974 80.4564 52.3113 80.7627C52.1698 81.4332 52.0246 82.1716 52.349 82.7762C52.6224 83.2867 53.19 83.5861 53.7614 83.6803C54.3384 83.7455 54.9221 83.7188 55.4907 83.6012C56.1148 83.5052 56.7541 83.394 57.2972 83.0738L55.2549 78.1501C55.0494 77.6529 54.8382 77.1387 54.8401 76.6C54.8567 76.2026 54.9429 75.8112 55.0946 75.4434C55.49 74.3781 56.0639 73.3876 56.7918 72.5145C57.0879 72.8573 57.0653 73.3791 57.3123 73.7595C57.5306 74.0408 57.8213 74.2576 58.1533 74.3868C59.121 74.8583 60.1152 75.2734 61.131 75.6299C61.1947 75.6379 61.2555 75.6615 61.3079 75.6986C61.3603 75.7356 61.4028 75.785 61.4315 75.8424C61.4602 75.8998 61.4743 75.9634 61.4726 76.0275C61.4708 76.0916 61.4532 76.1543 61.4214 76.2101L60.652 79.382C60.4823 80.0808 60.3333 80.8889 60.7689 81.4539C61.2045 82.019 62.187 82.2865 62.1926 83.0154C62.1846 83.1308 62.1846 83.2466 62.1926 83.362C62.2436 83.7029 62.649 83.8668 62.9941 83.8838C63.5606 83.8949 64.1126 83.7046 64.5517 83.3468C64.9907 82.9891 65.2881 82.4871 65.3909 81.9305C65.5795 80.6836 64.7535 79.5346 64.4084 78.3197C63.8276 76.276 64.597 73.8782 63.4561 72.0832C62.5321 70.6271 60.8481 70.2316 59.249 70.0508C58.1269 69.9189 55.8829 69.448 55.0928 70.4896Z" fill="#493545"/>
</g>
<g opacity="0.5">
<path opacity="0.5" d="M53.9331 120.941C53.9501 121.572 53.5202 122.111 53.1788 122.636C52.8375 123.162 52.5848 123.879 52.9356 124.405C53.0506 124.578 53.2241 124.712 53.3278 124.893C53.6918 125.524 53.0864 126.249 52.8658 126.942C52.6112 127.743 52.9073 128.637 53.4428 129.287C53.9784 129.937 54.7176 130.376 55.4644 130.762C57.0345 131.598 58.7197 132.197 60.4654 132.54C61.3781 132.708 62.3512 132.783 63.2073 132.418C63.8013 132.145 64.2866 131.682 64.5851 131.101C64.8837 130.52 64.9782 129.856 64.8536 129.216C64.6367 128.225 63.9107 127.428 63.5335 126.492C63.4455 126.308 63.4028 126.106 63.4091 125.902C63.4411 125.546 63.7146 125.268 63.9277 124.979C64.4621 124.195 64.6803 123.238 64.5387 122.299C64.3898 121.361 64.03 120.468 63.4864 119.689C63.2921 119.365 63.0358 119.084 62.7321 118.86C62.321 118.583 61.8119 118.504 61.3216 118.434C59.2736 118.148 57.1521 117.835 55.0872 117.73C54.4348 117.696 53.9558 117.824 53.6333 118.434C53.1411 119.344 53.9086 120.028 53.9331 120.941Z" fill="#444176"/>
<path opacity="0.5" d="M64.4802 127.348L60.5936 132.868L56.7995 132.539C56.7995 132.539 56.675 133.857 55.1495 129.079C54.2971 126.406 56.0301 127.334 56.3714 126.594C56.7128 125.854 57.3143 125.2 57.3652 124.654C57.4859 123.483 57.1295 122.816 57.1295 122.816L61.2537 122.322C61.0676 122.877 61.044 123.474 61.1858 124.042C61.7025 126.185 64.4802 127.348 64.4802 127.348Z" fill="#C77485"/>
<path opacity="0.5" d="M58.6342 122.641C61.342 122.641 63.5372 120.912 63.5372 118.779C63.5372 116.647 61.342 114.918 58.6342 114.918C55.9263 114.918 53.7312 116.647 53.7312 118.779C53.7312 120.912 55.9263 122.641 58.6342 122.641Z" fill="#444176"/>
<path opacity="0.1" d="M61.1837 124.04C60.6458 124.447 60.0162 124.716 59.3501 124.823C58.6839 124.93 58.0017 124.872 57.3632 124.654C57.4839 123.483 57.1274 122.816 57.1274 122.816L61.2516 122.322C61.0659 122.877 61.0423 123.473 61.1837 124.04Z" fill="black"/>
<path opacity="0.5" d="M58.6964 124.711C60.9741 124.711 62.8206 122.867 62.8206 120.592C62.8206 118.317 60.9741 116.473 58.6964 116.473C56.4187 116.473 54.5723 118.317 54.5723 120.592C54.5723 122.867 56.4187 124.711 58.6964 124.711Z" fill="#C77485"/>
<path opacity="0.1" d="M64.0728 127.973L63.9766 127.596L63.8937 127.265L63.7711 126.775L63.7485 126.685L63.7296 126.609C63.7296 126.609 63.8277 126.314 63.1808 126.41L63.0602 126.431C62.9583 126.451 62.8395 126.48 62.7037 126.517L62.5812 126.555L62.419 126.606C61.9056 126.773 61.4372 127.055 61.0499 127.431C60.8761 127.597 60.7223 127.783 60.5917 127.984C60.5785 128.003 60.5691 128.02 60.5577 128.035C60.5131 128.105 60.4734 128.178 60.4389 128.254C60.4389 129.738 58.953 131.55 58.953 131.55L57.5028 129.457L57.4745 129.416L57.1294 128.915L57.0069 128.753L56.9654 128.696L56.2111 127.685L56.0225 127.433L55.9603 127.348L55.8679 127.225L55.651 126.937L54.8024 127.433L53.671 128.092L53.011 132.377V132.496L53.0317 132.85L53.1694 135.178V135.21L52.928 136.174L52.9638 136.193C53.5334 136.5 54.126 136.762 54.7364 136.977L54.8967 137.033C55.0853 137.095 55.2625 137.152 55.4473 137.206C55.4542 137.234 55.4592 137.263 55.4624 137.291C55.4624 137.265 55.4624 137.237 55.4624 137.21C57.7765 137.871 60.2294 137.871 62.5435 137.21L62.5868 137.197C62.6943 137.167 62.8037 137.135 62.9093 137.099L63.0809 137.044C63.5462 136.889 64.0021 136.707 64.4462 136.498L64.6046 133.127L64.7177 130.695V130.556L64.0728 127.973Z" fill="black"/>
<path opacity="0.5" d="M62.7151 134.235C62.7151 134.16 62.7151 134.084 62.7019 134.009C62.6887 133.934 62.6906 133.868 62.6812 133.796C62.6717 133.725 62.6642 133.653 62.6548 133.582C62.6453 133.51 62.6321 133.438 62.6189 133.367C62.6057 133.295 62.5925 133.224 62.5774 133.152C62.5774 133.128 62.568 133.105 62.5624 133.08C62.5416 132.986 62.519 132.892 62.4945 132.796C62.47 132.7 62.4549 132.643 62.4322 132.568C62.4322 132.534 62.4134 132.5 62.4021 132.468C62.3907 132.436 62.37 132.359 62.353 132.304L62.3191 132.199C62.304 132.152 62.2889 132.105 62.2719 132.058C62.2437 131.973 62.2135 131.89 62.1833 131.805C62.1531 131.721 62.1211 131.638 62.089 131.555C62.0249 131.385 61.9551 131.218 61.8854 131.05C61.6119 130.398 61.3046 129.756 61.0217 129.119C60.8697 128.786 60.735 128.444 60.6181 128.097L60.5823 128.147C60.525 128.234 60.4739 128.325 60.4296 128.419C60.4296 129.901 58.9436 131.715 58.9436 131.715L57.4482 129.539L56.1394 131.549C55.9509 131.649 55.7623 131.992 55.6152 132.48C55.5737 132.611 55.5341 132.755 55.4964 132.907C55.47 133.009 55.4455 133.116 55.4229 133.224C55.4097 133.278 55.3983 133.333 55.387 133.389L55.3531 133.561V133.587C55.3305 133.704 55.3078 133.824 55.2871 133.947C55.2663 134.069 55.2418 134.211 55.2211 134.344C55.206 134.431 55.1928 134.518 55.1815 134.604C55.1551 134.772 55.1325 134.941 55.1098 135.109C55.0966 135.207 55.0834 135.297 55.0721 135.401L55.0268 135.778C55.123 136.087 55.2305 136.392 55.3418 136.691C55.4128 136.855 55.4543 137.031 55.4643 137.209C57.7784 137.87 60.2314 137.87 62.5454 137.209C62.5445 137.203 62.5445 137.197 62.5454 137.19C62.5105 137.021 62.4953 136.849 62.5001 136.676C62.5382 136.193 62.6011 135.712 62.6887 135.235C62.7165 135 62.7285 134.764 62.7245 134.527V134.442C62.7189 134.371 62.717 134.303 62.7151 134.235ZM62.7151 134.235C62.7151 134.16 62.7151 134.084 62.7019 134.009C62.6887 133.934 62.6906 133.868 62.6812 133.796C62.6717 133.725 62.6642 133.653 62.6548 133.582C62.6453 133.51 62.6321 133.438 62.6189 133.367C62.6057 133.295 62.5925 133.224 62.5774 133.152C62.5774 133.128 62.568 133.105 62.5624 133.08C62.5416 132.986 62.519 132.892 62.4945 132.796C62.47 132.7 62.4549 132.643 62.4322 132.568C62.4322 132.534 62.4134 132.5 62.4021 132.468C62.3907 132.436 62.37 132.359 62.353 132.304L62.3191 132.199C62.304 132.152 62.2889 132.105 62.2719 132.058C62.2437 131.973 62.2135 131.89 62.1833 131.805C62.1531 131.721 62.1211 131.638 62.089 131.555C62.0249 131.385 61.9551 131.218 61.8854 131.05C61.6119 130.398 61.3046 129.756 61.0217 129.119C60.8697 128.786 60.735 128.444 60.6181 128.097L60.5823 128.147C60.525 128.234 60.4739 128.325 60.4296 128.419C60.4296 129.901 58.9436 131.715 58.9436 131.715L57.4482 129.539L56.1394 131.549C55.9509 131.649 55.7623 131.992 55.6152 132.48C55.5737 132.611 55.5341 132.755 55.4964 132.907C55.47 133.009 55.4455 133.116 55.4229 133.224C55.4097 133.278 55.3983 133.333 55.387 133.389L55.3531 133.561V133.587C55.3305 133.704 55.3078 133.824 55.2871 133.947C55.2663 134.069 55.2418 134.211 55.2211 134.344C55.206 134.431 55.1928 134.518 55.1815 134.604C55.1551 134.772 55.1325 134.941 55.1098 135.109C55.0966 135.207 55.0834 135.297 55.0721 135.401L55.0268 135.778C55.123 136.087 55.2305 136.392 55.3418 136.691C55.4128 136.855 55.4543 137.031 55.4643 137.209C57.7784 137.87 60.2314 137.87 62.5454 137.209C62.5445 137.203 62.5445 137.197 62.5454 137.19C62.5105 137.021 62.4953 136.849 62.5001 136.676C62.5382 136.193 62.6011 135.712 62.6887 135.235C62.7165 135 62.7285 134.764 62.7245 134.527V134.442C62.7189 134.371 62.717 134.303 62.7151 134.235ZM62.7151 134.235C62.7151 134.16 62.7151 134.084 62.7019 134.009C62.6887 133.934 62.6906 133.868 62.6812 133.796C62.6717 133.725 62.6642 133.653 62.6548 133.582C62.6453 133.51 62.6321 133.438 62.6189 133.367C62.6057 133.295 62.5925 133.224 62.5774 133.152C62.5774 133.128 62.568 133.105 62.5624 133.08C62.5416 132.986 62.519 132.892 62.4945 132.796C62.47 132.7 62.4549 132.643 62.4322 132.568C62.4322 132.534 62.4134 132.5 62.4021 132.468C62.3907 132.436 62.37 132.359 62.353 132.304L62.3191 132.199C62.304 132.152 62.2889 132.105 62.2719 132.058C62.2437 131.973 62.2135 131.89 62.1833 131.805C62.1531 131.721 62.1211 131.638 62.089 131.555C62.0249 131.385 61.9551 131.218 61.8854 131.05C61.6119 130.398 61.3046 129.756 61.0217 129.119C60.8697 128.786 60.735 128.444 60.6181 128.097L60.5823 128.147C60.525 128.234 60.4739 128.325 60.4296 128.419C60.4296 129.901 58.9436 131.715 58.9436 131.715L57.4482 129.539L56.1394 131.549C55.9509 131.649 55.7623 131.992 55.6152 132.48C55.5737 132.611 55.5341 132.755 55.4964 132.907C55.47 133.009 55.4455 133.116 55.4229 133.224C55.4097 133.278 55.3983 133.333 55.387 133.389L55.3531 133.561V133.587C55.3305 133.704 55.3078 133.824 55.2871 133.947C55.2663 134.069 55.2418 134.211 55.2211 134.344C55.206 134.431 55.1928 134.518 55.1815 134.604C55.1551 134.772 55.1325 134.941 55.1098 135.109C55.0966 135.207 55.0834 135.297 55.0721 135.401L55.0268 135.778C55.123 136.087 55.2305 136.392 55.3418 136.691C55.4128 136.855 55.4543 137.031 55.4643 137.209C57.7784 137.87 60.2314 137.87 62.5454 137.209C62.5445 137.203 62.5445 137.197 62.5454 137.19C62.5105 137.021 62.4953 136.849 62.5001 136.676C62.5382 136.193 62.6011 135.712 62.6887 135.235C62.7165 135 62.7285 134.764 62.7245 134.527V134.442C62.7189 134.371 62.717 134.303 62.7151 134.235ZM64.714 130.7L64.0408 128.016L63.9258 127.556L63.8937 127.43L63.7296 126.774C63.73 126.769 63.73 126.763 63.7296 126.757C63.7336 126.728 63.729 126.699 63.7164 126.673C63.6919 126.624 63.6297 126.573 63.4845 126.56C63.4292 126.556 63.3738 126.556 63.3185 126.56C63.1547 126.576 62.9926 126.606 62.8339 126.65C62.7566 126.671 62.6736 126.693 62.585 126.722L62.4228 126.772H62.4077C61.9734 126.915 61.5702 127.139 61.2197 127.432C60.9882 127.624 60.785 127.849 60.6162 128.098L60.5804 128.149C60.5231 128.236 60.472 128.327 60.4277 128.421C60.4277 129.903 58.9417 131.717 58.9417 131.717L57.4463 129.541L57.3614 129.419L57.3463 129.398L57.1295 129.08L56.9654 128.861L56.922 128.805L56.1489 127.774L55.9037 127.441V127.43L55.8189 127.315L55.6567 127.1L55.091 127.43L53.6766 128.253L53.0242 132.493V132.538L53.043 132.847L53.1826 135.207V135.341L52.9695 136.19C53.539 136.497 54.1317 136.759 54.7421 136.974L54.9024 137.03C55.091 137.092 55.2682 137.149 55.453 137.204C55.4599 137.232 55.4649 137.26 55.4681 137.288C55.4681 137.262 55.4681 137.234 55.4681 137.207C57.7821 137.868 60.2351 137.868 62.5491 137.207L62.5925 137.194C62.7 137.164 62.8094 137.132 62.915 137.096L63.0866 137.042C63.5519 136.886 64.0078 136.704 64.4519 136.495L64.6084 133.128L64.7215 130.722L64.714 130.7ZM55.4398 137.204C55.4467 137.232 55.4517 137.26 55.4549 137.288C55.4549 137.262 55.4549 137.234 55.4549 137.207L55.4398 137.204ZM62.7151 134.235C62.7151 134.16 62.7151 134.084 62.7019 134.009C62.6887 133.934 62.6906 133.868 62.6812 133.796C62.6717 133.725 62.6642 133.653 62.6548 133.582C62.6453 133.51 62.6321 133.438 62.6189 133.367C62.6057 133.295 62.5925 133.224 62.5774 133.152C62.5774 133.128 62.568 133.105 62.5624 133.08C62.5416 132.986 62.519 132.892 62.4945 132.796C62.47 132.7 62.4549 132.643 62.4322 132.568C62.4322 132.534 62.4134 132.5 62.4021 132.468C62.3907 132.436 62.37 132.359 62.353 132.304L62.3191 132.199C62.304 132.152 62.2889 132.105 62.2719 132.058C62.2437 131.973 62.2135 131.89 62.1833 131.805C62.1531 131.721 62.1211 131.638 62.089 131.555C62.0249 131.385 61.9551 131.218 61.8854 131.05C61.6119 130.398 61.3046 129.756 61.0217 129.119C60.8697 128.786 60.735 128.444 60.6181 128.097L60.5823 128.147C60.525 128.234 60.4739 128.325 60.4296 128.419C60.4296 129.901 58.9436 131.715 58.9436 131.715L57.4482 129.539L56.1394 131.549C55.9509 131.649 55.7623 131.992 55.6152 132.48C55.5737 132.611 55.5341 132.755 55.4964 132.907C55.47 133.009 55.4455 133.116 55.4229 133.224C55.4097 133.278 55.3983 133.333 55.387 133.389L55.3531 133.561V133.587C55.3305 133.704 55.3078 133.824 55.2871 133.947C55.2663 134.069 55.2418 134.211 55.2211 134.344C55.206 134.431 55.1928 134.518 55.1815 134.604C55.1551 134.772 55.1325 134.941 55.1098 135.109C55.0966 135.207 55.0834 135.297 55.0721 135.401L55.0268 135.778C55.123 136.087 55.2305 136.392 55.3418 136.691C55.4128 136.855 55.4543 137.031 55.4643 137.209C57.7784 137.87 60.2314 137.87 62.5454 137.209C62.5445 137.203 62.5445 137.197 62.5454 137.19C62.5105 137.021 62.4953 136.849 62.5001 136.676C62.5382 136.193 62.6011 135.712 62.6887 135.235C62.7165 135 62.7285 134.764 62.7245 134.527V134.442C62.7189 134.371 62.717 134.303 62.7151 134.235ZM62.7151 134.235C62.7151 134.16 62.7151 134.084 62.7019 134.009C62.6887 133.934 62.6906 133.868 62.6812 133.796C62.6717 133.725 62.6642 133.653 62.6548 133.582C62.6453 133.51 62.6321 133.438 62.6189 133.367C62.6057 133.295 62.5925 133.224 62.5774 133.152C62.5774 133.128 62.568 133.105 62.5624 133.08C62.5416 132.986 62.519 132.892 62.4945 132.796C62.47 132.7 62.4549 132.643 62.4322 132.568C62.4322 132.534 62.4134 132.5 62.4021 132.468C62.3907 132.436 62.37 132.359 62.353 132.304L62.3191 132.199C62.304 132.152 62.2889 132.105 62.2719 132.058C62.2437 131.973 62.2135 131.89 62.1833 131.805C62.1531 131.721 62.1211 131.638 62.089 131.555C62.0249 131.385 61.9551 131.218 61.8854 131.05C61.6119 130.398 61.3046 129.756 61.0217 129.119C60.8697 128.786 60.735 128.444 60.6181 128.097L60.5823 128.147C60.525 128.234 60.4739 128.325 60.4296 128.419C60.4296 129.901 58.9436 131.715 58.9436 131.715L57.4482 129.539L56.1394 131.549C55.9509 131.649 55.7623 131.992 55.6152 132.48C55.5737 132.611 55.5341 132.755 55.4964 132.907C55.47 133.009 55.4455 133.116 55.4229 133.224C55.4097 133.278 55.3983 133.333 55.387 133.389L55.3531 133.561V133.587C55.3305 133.704 55.3078 133.824 55.2871 133.947C55.2663 134.069 55.2418 134.211 55.2211 134.344C55.206 134.431 55.1928 134.518 55.1815 134.604C55.1551 134.772 55.1325 134.941 55.1098 135.109C55.0966 135.207 55.0834 135.297 55.0721 135.401L55.0268 135.778C55.123 136.087 55.2305 136.392 55.3418 136.691C55.4128 136.855 55.4543 137.031 55.4643 137.209C57.7784 137.87 60.2314 137.87 62.5454 137.209C62.5445 137.203 62.5445 137.197 62.5454 137.19C62.5105 137.021 62.4953 136.849 62.5001 136.676C62.5382 136.193 62.6011 135.712 62.6887 135.235C62.7165 135 62.7285 134.764 62.7245 134.527V134.442C62.7189 134.371 62.717 134.303 62.7151 134.235ZM62.7151 134.235C62.7151 134.16 62.7151 134.084 62.7019 134.009C62.6887 133.934 62.6906 133.868 62.6812 133.796C62.6717 133.725 62.6642 133.653 62.6548 133.582C62.6453 133.51 62.6321 133.438 62.6189 133.367C62.6057 133.295 62.5925 133.224 62.5774 133.152C62.5774 133.128 62.568 133.105 62.5624 133.08C62.5416 132.986 62.519 132.892 62.4945 132.796C62.47 132.7 62.4549 132.643 62.4322 132.568C62.4322 132.534 62.4134 132.5 62.4021 132.468C62.3907 132.436 62.37 132.359 62.353 132.304L62.3191 132.199C62.304 132.152 62.2889 132.105 62.2719 132.058C62.2437 131.973 62.2135 131.89 62.1833 131.805C62.1531 131.721 62.1211 131.638 62.089 131.555C62.0249 131.385 61.9551 131.218 61.8854 131.05C61.6119 130.398 61.3046 129.756 61.0217 129.119C60.8697 128.786 60.735 128.444 60.6181 128.097L60.5823 128.147C60.525 128.234 60.4739 128.325 60.4296 128.419C60.4296 129.901 58.9436 131.715 58.9436 131.715L57.4482 129.539L56.1394 131.549C55.9509 131.649 55.7623 131.992 55.6152 132.48C55.5737 132.611 55.5341 132.755 55.4964 132.907C55.47 133.009 55.4455 133.116 55.4229 133.224C55.4097 133.278 55.3983 133.333 55.387 133.389L55.3531 133.561V133.587C55.3305 133.704 55.3078 133.824 55.2871 133.947C55.2663 134.069 55.2418 134.211 55.2211 134.344C55.206 134.431 55.1928 134.518 55.1815 134.604C55.1551 134.772 55.1325 134.941 55.1098 135.109C55.0966 135.207 55.0834 135.297 55.0721 135.401L55.0268 135.778C55.123 136.087 55.2305 136.392 55.3418 136.691C55.4128 136.855 55.4543 137.031 55.4643 137.209C57.7784 137.87 60.2314 137.87 62.5454 137.209C62.5445 137.203 62.5445 137.197 62.5454 137.19C62.5105 137.021 62.4953 136.849 62.5001 136.676C62.5382 136.193 62.6011 135.712 62.6887 135.235C62.7165 135 62.7285 134.764 62.7245 134.527V134.442C62.7189 134.371 62.717 134.303 62.7151 134.235ZM62.7151 134.235C62.7151 134.16 62.7151 134.084 62.7019 134.009C62.6887 133.934 62.6906 133.868 62.6812 133.796C62.6717 133.725 62.6642 133.653 62.6548 133.582C62.6453 133.51 62.6321 133.438 62.6189 133.367C62.6057 133.295 62.5925 133.224 62.5774 133.152C62.5774 133.128 62.568 133.105 62.5624 133.08C62.5416 132.986 62.519 132.892 62.4945 132.796C62.47 132.7 62.4549 132.643 62.4322 132.568C62.4322 132.534 62.4134 132.5 62.4021 132.468C62.3907 132.436 62.37 132.359 62.353 132.304L62.3191 132.199C62.304 132.152 62.2889 132.105 62.2719 132.058C62.2437 131.973 62.2135 131.89 62.1833 131.805C62.1531 131.721 62.1211 131.638 62.089 131.555C62.0249 131.385 61.9551 131.218 61.8854 131.05C61.6119 130.398 61.3046 129.756 61.0217 129.119C60.8697 128.786 60.735 128.444 60.6181 128.097L60.5823 128.147C60.525 128.234 60.4739 128.325 60.4296 128.419C60.4296 129.901 58.9436 131.715 58.9436 131.715L57.4482 129.539L56.1394 131.549C55.9509 131.649 55.7623 131.992 55.6152 132.48C55.5737 132.611 55.5341 132.755 55.4964 132.907C55.47 133.009 55.4455 133.116 55.4229 133.224C55.4097 133.278 55.3983 133.333 55.387 133.389L55.3531 133.561V133.587C55.3305 133.704 55.3078 133.824 55.2871 133.947C55.2663 134.069 55.2418 134.211 55.2211 134.344C55.206 134.431 55.1928 134.518 55.1815 134.604C55.1551 134.772 55.1325 134.941 55.1098 135.109C55.0966 135.207 55.0834 135.297 55.0721 135.401L55.0268 135.778C55.123 136.087 55.2305 136.392 55.3418 136.691C55.4128 136.855 55.4543 137.031 55.4643 137.209C57.7784 137.87 60.2314 137.87 62.5454 137.209C62.5445 137.203 62.5445 137.197 62.5454 137.19C62.5105 137.021 62.4953 136.849 62.5001 136.676C62.5382 136.193 62.6011 135.712 62.6887 135.235C62.7165 135 62.7285 134.764 62.7245 134.527V134.442C62.7189 134.371 62.717 134.303 62.7151 134.235ZM62.7151 134.235C62.7151 134.16 62.7151 134.084 62.7019 134.009C62.6887 133.934 62.6906 133.868 62.6812 133.796C62.6717 133.725 62.6642 133.653 62.6548 133.582C62.6453 133.51 62.6321 133.438 62.6189 133.367C62.6057 133.295 62.5925 133.224 62.5774 133.152C62.5774 133.128 62.568 133.105 62.5624 133.08C62.5416 132.986 62.519 132.892 62.4945 132.796C62.47 132.7 62.4549 132.643 62.4322 132.568C62.4322 132.534 62.4134 132.5 62.4021 132.468C62.3907 132.436 62.37 132.359 62.353 132.304L62.3191 132.199C62.304 132.152 62.2889 132.105 62.2719 132.058C62.2437 131.973 62.2135 131.89 62.1833 131.805C62.1531 131.721 62.1211 131.638 62.089 131.555C62.0249 131.385 61.9551 131.218 61.8854 131.05C61.6119 130.398 61.3046 129.756 61.0217 129.119C60.8697 128.786 60.735 128.444 60.6181 128.097L60.5823 128.147C60.525 128.234 60.4739 128.325 60.4296 128.419C60.4296 129.901 58.9436 131.715 58.9436 131.715L57.4482 129.539L56.1394 131.549C55.9509 131.649 55.7623 131.992 55.6152 132.48C55.5737 132.611 55.5341 132.755 55.4964 132.907C55.47 133.009 55.4455 133.116 55.4229 133.224C55.4097 133.278 55.3983 133.333 55.387 133.389L55.3531 133.561V133.587C55.3305 133.704 55.3078 133.824 55.2871 133.947C55.2663 134.069 55.2418 134.211 55.2211 134.344C55.206 134.431 55.1928 134.518 55.1815 134.604C55.1551 134.772 55.1325 134.941 55.1098 135.109C55.0966 135.207 55.0834 135.297 55.0721 135.401L55.0268 135.778C55.123 136.087 55.2305 136.392 55.3418 136.691C55.4128 136.855 55.4543 137.031 55.4643 137.209C57.7784 137.87 60.2314 137.87 62.5454 137.209C62.5445 137.203 62.5445 137.197 62.5454 137.19C62.5105 137.021 62.4953 136.849 62.5001 136.676C62.5382 136.193 62.6011 135.712 62.6887 135.235C62.7165 135 62.7285 134.764 62.7245 134.527V134.442C62.7189 134.371 62.717 134.303 62.7151 134.235ZM62.7151 134.235C62.7151 134.16 62.7151 134.084 62.7019 134.009C62.6887 133.934 62.6906 133.868 62.6812 133.796C62.6717 133.725 62.6642 133.653 62.6548 133.582C62.6453 133.51 62.6321 133.438 62.6189 133.367C62.6057 133.295 62.5925 133.224 62.5774 133.152C62.5774 133.128 62.568 133.105 62.5624 133.08C62.5416 132.986 62.519 132.892 62.4945 132.796C62.47 132.7 62.4549 132.643 62.4322 132.568C62.4322 132.534 62.4134 132.5 62.4021 132.468C62.3907 132.436 62.37 132.359 62.353 132.304L62.3191 132.199C62.304 132.152 62.2889 132.105 62.2719 132.058C62.2437 131.973 62.2135 131.89 62.1833 131.805C62.1531 131.721 62.1211 131.638 62.089 131.555C62.0249 131.385 61.9551 131.218 61.8854 131.05C61.6119 130.398 61.3046 129.756 61.0217 129.119C60.8697 128.786 60.735 128.444 60.6181 128.097L60.5823 128.147C60.525 128.234 60.4739 128.325 60.4296 128.419C60.4296 129.901 58.9436 131.715 58.9436 131.715L57.4482 129.539L56.1394 131.549C55.9509 131.649 55.7623 131.992 55.6152 132.48C55.5737 132.611 55.5341 132.755 55.4964 132.907C55.47 133.009 55.4455 133.116 55.4229 133.224C55.4097 133.278 55.3983 133.333 55.387 133.389L55.3531 133.561V133.587C55.3305 133.704 55.3078 133.824 55.2871 133.947C55.2663 134.069 55.2418 134.211 55.2211 134.344C55.206 134.431 55.1928 134.518 55.1815 134.604C55.1551 134.772 55.1325 134.941 55.1098 135.109C55.0966 135.207 55.0834 135.297 55.0721 135.401L55.0268 135.778C55.123 136.087 55.2305 136.392 55.3418 136.691C55.4128 136.855 55.4543 137.031 55.4643 137.209C57.7784 137.87 60.2314 137.87 62.5454 137.209C62.5445 137.203 62.5445 137.197 62.5454 137.19C62.5105 137.021 62.4953 136.849 62.5001 136.676C62.5382 136.193 62.6011 135.712 62.6887 135.235C62.7165 135 62.7285 134.764 62.7245 134.527V134.442C62.7189 134.371 62.717 134.303 62.7151 134.235ZM62.7151 134.235C62.7151 134.16 62.7151 134.084 62.7019 134.009C62.6887 133.934 62.6906 133.868 62.6812 133.796C62.6717 133.725 62.6642 133.653 62.6548 133.582C62.6453 133.51 62.6321 133.438 62.6189 133.367C62.6057 133.295 62.5925 133.224 62.5774 133.152C62.5774 133.128 62.568 133.105 62.5624 133.08C62.5416 132.986 62.519 132.892 62.4945 132.796C62.47 132.7 62.4549 132.643 62.4322 132.568C62.4322 132.534 62.4134 132.5 62.4021 132.468C62.3907 132.436 62.37 132.359 62.353 132.304L62.3191 132.199C62.304 132.152 62.2889 132.105 62.2719 132.058C62.2437 131.973 62.2135 131.89 62.1833 131.805C62.1531 131.721 62.1211 131.638 62.089 131.555C62.0249 131.385 61.9551 131.218 61.8854 131.05C61.6119 130.398 61.3046 129.756 61.0217 129.119C60.8697 128.786 60.735 128.444 60.6181 128.097L60.5823 128.147C60.525 128.234 60.4739 128.325 60.4296 128.419C60.4296 129.901 58.9436 131.715 58.9436 131.715L57.4482 129.539L56.1394 131.549C55.9509 131.649 55.7623 131.992 55.6152 132.48C55.5737 132.611 55.5341 132.755 55.4964 132.907C55.47 133.009 55.4455 133.116 55.4229 133.224C55.4097 133.278 55.3983 133.333 55.387 133.389L55.3531 133.561V133.587C55.3305 133.704 55.3078 133.824 55.2871 133.947C55.2663 134.069 55.2418 134.211 55.2211 134.344C55.206 134.431 55.1928 134.518 55.1815 134.604C55.1551 134.772 55.1325 134.941 55.1098 135.109C55.0966 135.207 55.0834 135.297 55.0721 135.401L55.0268 135.778C55.123 136.087 55.2305 136.392 55.3418 136.691C55.4128 136.855 55.4543 137.031 55.4643 137.209C57.7784 137.87 60.2314 137.87 62.5454 137.209C62.5445 137.203 62.5445 137.197 62.5454 137.19C62.5105 137.021 62.4953 136.849 62.5001 136.676C62.5382 136.193 62.6011 135.712 62.6887 135.235C62.7165 135 62.7285 134.764 62.7245 134.527V134.442C62.7189 134.371 62.717 134.303 62.7151 134.235ZM62.7151 134.235C62.7151 134.16 62.7151 134.084 62.7019 134.009C62.6887 133.934 62.6906 133.868 62.6812 133.796C62.6717 133.725 62.6642 133.653 62.6548 133.582C62.6453 133.51 62.6321 133.438 62.6189 133.367C62.6057 133.295 62.5925 133.224 62.5774 133.152C62.5774 133.128 62.568 133.105 62.5624 133.08C62.5416 132.986 62.519 132.892 62.4945 132.796C62.47 132.7 62.4549 132.643 62.4322 132.568C62.4322 132.534 62.4134 132.5 62.4021 132.468C62.3907 132.436 62.37 132.359 62.353 132.304L62.3191 132.199C62.304 132.152 62.2889 132.105 62.2719 132.058C62.2437 131.973 62.2135 131.89 62.1833 131.805C62.1531 131.721 62.1211 131.638 62.089 131.555C62.0249 131.385 61.9551 131.218 61.8854 131.05C61.6119 130.398 61.3046 129.756 61.0217 129.119C60.8697 128.786 60.735 128.444 60.6181 128.097L60.5823 128.147C60.525 128.234 60.4739 128.325 60.4296 128.419C60.4296 129.901 58.9436 131.715 58.9436 131.715L57.4482 129.539L56.1394 131.549C55.9509 131.649 55.7623 131.992 55.6152 132.48C55.5737 132.611 55.5341 132.755 55.4964 132.907C55.47 133.009 55.4455 133.116 55.4229 133.224C55.4097 133.278 55.3983 133.333 55.387 133.389L55.3531 133.561V133.587C55.3305 133.704 55.3078 133.824 55.2871 133.947C55.2663 134.069 55.2418 134.211 55.2211 134.344C55.206 134.431 55.1928 134.518 55.1815 134.604C55.1551 134.772 55.1325 134.941 55.1098 135.109C55.0966 135.207 55.0834 135.297 55.0721 135.401L55.0268 135.778C55.123 136.087 55.2305 136.392 55.3418 136.691C55.4128 136.855 55.4543 137.031 55.4643 137.209C57.7784 137.87 60.2314 137.87 62.5454 137.209C62.5445 137.203 62.5445 137.197 62.5454 137.19C62.5105 137.021 62.4953 136.849 62.5001 136.676C62.5382 136.193 62.6011 135.712 62.6887 135.235C62.7165 135 62.7285 134.764 62.7245 134.527V134.442C62.7189 134.371 62.717 134.303 62.7151 134.235Z" fill="#444176"/>
<path opacity="0.1" d="M57.4745 129.414L57.3482 129.397C57.1574 129.371 56.9685 129.333 56.7825 129.284L56.7127 129.265C56.2526 129.135 55.7491 128.902 55.6359 128.491C55.6022 128.359 55.6062 128.22 55.6472 128.09C55.7105 127.866 55.7965 127.649 55.9037 127.442V127.43C55.9179 127.401 55.9336 127.373 55.9508 127.346C56.1064 127.042 56.3417 126.786 56.6316 126.605L56.4053 126.641L54.4894 126.952L51.5193 127.43C51.5193 127.43 50.9913 127.325 50.2728 129.303C50.2728 129.327 50.2558 129.35 50.2483 129.376C50.0748 129.86 49.8919 130.465 49.7033 131.22C49.5732 131.744 49.4544 132.258 49.345 132.757C49.313 132.908 49.2809 133.057 49.2507 133.204C49.5907 133.604 49.9567 133.981 50.3464 134.334L50.4086 134.392C51.1717 135.082 52.015 135.679 52.9204 136.168L52.9563 136.187C53.5258 136.494 54.1185 136.756 54.7289 136.971L54.8892 137.027C54.9231 136.679 54.9608 136.293 55.0061 135.897C55.0061 135.858 55.0061 135.818 55.0212 135.778L55.0664 135.402C55.0777 135.306 55.0909 135.213 55.1041 135.11C55.1268 134.942 55.1494 134.773 55.1758 134.605C55.1871 134.518 55.2003 134.432 55.2154 134.345C55.2361 134.211 55.2588 134.078 55.2814 133.948C55.304 133.818 55.3248 133.705 55.3474 133.588V133.562L55.3813 133.39C55.3927 133.334 55.404 133.279 55.4172 133.224C55.4398 133.117 55.4643 133.01 55.4907 132.908C55.5284 132.755 55.568 132.612 55.6095 132.48C55.7604 131.992 55.9358 131.65 56.1338 131.55L57.4425 129.54L57.4972 129.455L57.5217 129.418L57.4745 129.414Z" fill="black"/>
<path opacity="0.1" d="M57.7892 119.385C58.3776 119.285 58.9697 119.071 59.5543 119.197C60.0446 119.299 60.4538 119.625 60.9026 119.851C61.3359 120.068 61.8099 120.193 62.2943 120.218C62.471 120.241 62.6504 120.206 62.8053 120.118C63.0392 119.956 63.0731 119.625 63.0335 119.342C62.9204 118.54 62.4188 117.85 61.9021 117.225C61.6958 116.958 61.4577 116.717 61.193 116.507C60.516 116.008 59.6203 115.923 58.7811 115.961C57.8232 116.004 56.8501 116.189 56.0185 116.669C55.4528 116.993 54.1554 118.014 54.6061 118.752C55.0794 119.525 57.0481 119.511 57.7892 119.385Z" fill="black"/>
<path opacity="0.5" d="M57.7892 119.198C58.3776 119.098 58.9697 118.883 59.5543 119.009C60.0446 119.111 60.4538 119.437 60.9026 119.663C61.3359 119.881 61.8099 120.006 62.2943 120.03C62.471 120.054 62.6504 120.018 62.8053 119.931C63.0392 119.769 63.0731 119.437 63.0335 119.154C62.9204 118.352 62.4188 117.663 61.9021 117.037C61.6958 116.77 61.4577 116.529 61.193 116.32C60.516 115.821 59.6203 115.736 58.7811 115.773C57.8232 115.817 56.8501 116.001 56.0185 116.482C55.4528 116.806 54.1554 117.827 54.6061 118.565C55.0794 119.337 57.0481 119.324 57.7892 119.198Z" fill="#444176"/>
</g>
<path d="M109.574 109.973H109.602C109.644 111.235 109.823 112.377 110.168 112.693C110.99 113.447 114.4 111.94 114.166 111.028C114.119 110.84 114.04 110.531 113.94 110.141C114.86 110.026 115.646 109.764 115.959 109.226L116.551 111.049L116.593 111.179H116.604H116.638C117.029 114.875 117.913 122.548 118.62 123.577C119.563 124.938 120.647 130.84 120.647 130.84L122.675 142.945C122.675 142.945 123.455 149.915 123.923 150.668C124.059 150.812 124.24 150.906 124.436 150.934C124.162 151.751 123.77 152.706 123.304 153.239C122.361 154.298 121.121 156.417 120.029 156.266C118.937 156.115 118.626 158.385 120.653 158.686C121.775 158.854 123.565 158.651 124.939 158.436C124.939 159.042 125.362 159.739 126.423 159.898C128.451 160.201 132.661 159.293 132.661 159.293C132.661 159.293 136.244 157.786 136.405 156.72C136.518 155.948 135.969 152.847 135.664 151.222C136.229 150.316 135.626 142.497 135.626 142.497L134.534 127.517C134.534 127.517 135.158 119.195 134.534 117.681C134.144 116.739 133.998 112.407 133.944 109.309L134.698 109.358C134.741 109.306 134.78 109.251 134.815 109.194L135.004 109.207C135.004 109.207 135.946 108.148 135.16 106.483C134.581 105.246 134.691 99.659 134.783 96.877L134.894 95.5585C134.936 95.5184 134.967 95.4695 134.987 95.4153C136.449 95.218 137.871 94.7881 139.198 94.142C139.598 93.9758 139.97 93.7497 140.303 93.4715C141.083 92.718 140.614 88.1749 139.054 81.3657C137.495 74.5566 136.092 75.1612 136.092 75.1612C136.092 75.1612 132.348 74.858 130.632 72.5883C128.916 70.3186 127.764 70.3487 127.764 70.3487C127.721 70.0511 127.691 69.7705 127.67 69.5086C127.67 69.4107 127.655 69.3203 127.649 69.2223C128.233 68.6804 128.677 68.0067 128.947 67.2578C129.297 67.0694 129.729 67.0072 130.065 66.7699C130.15 66.7078 130.228 66.6357 130.297 66.5552C130.633 66.2452 130.847 65.8247 130.898 65.3704C130.952 64.8744 130.928 64.3731 130.829 63.8843C130.71 63.161 130.534 62.4207 130.112 61.8519C129.69 61.2831 129.058 60.9403 128.449 60.6219C126.799 59.7567 125.145 58.9003 123.487 58.0527C123.163 57.855 122.802 57.7267 122.426 57.676C121.762 57.6384 121.166 58.0923 120.63 58.5236C120.417 58.6916 120.212 58.8708 120.017 59.0605C119.852 59.207 119.701 59.3691 119.567 59.5445C118.941 60.3827 118.675 61.9612 118.95 63.0084C119.037 63.3399 119.224 63.436 119.454 63.4322C119.112 64.1101 118.935 64.8584 118.935 65.6172C118.939 66.4479 119.152 67.2644 119.554 67.9915C119.956 68.7186 120.535 69.3329 121.238 69.778C121.238 69.8835 121.238 69.9871 121.247 70.0869C121.255 70.4734 121.242 70.8601 121.209 71.2453C121.209 71.2453 117.061 73.4849 116.595 74.5434C116.129 75.602 114.411 76.3592 114.411 76.3592C114.411 76.3592 111.136 78.0243 111.136 83.9255L109.42 92.2471L109.108 108.135C109.108 108.135 109.323 107.947 109.674 107.679C109.663 107.785 109.653 107.894 109.644 108.005C109.597 108.612 109.581 109.222 109.597 109.83L109.574 109.973ZM130.525 151.094C130.461 151.337 130.367 151.659 130.248 152.036C130.195 151.723 130.142 151.414 130.089 151.12C130.225 151.107 130.37 151.099 130.525 151.094Z" fill="url(#paint2_linear)"/>
<path d="M124.86 149.142C124.86 149.142 124.259 151.843 123.351 152.892C122.444 153.941 121.256 156.043 120.208 155.892C119.159 155.742 118.856 157.993 120.809 158.292C122.763 158.591 126.808 157.693 126.808 157.693C126.808 157.693 130.263 156.186 130.412 155.143C130.561 154.099 129.51 148.691 129.51 148.691L124.86 149.142Z" fill="#53526B"/>
<path opacity="0.05" d="M124.86 149.142C124.86 149.142 124.259 151.843 123.351 152.892C122.444 153.941 121.256 156.043 120.208 155.892C119.159 155.742 118.856 157.993 120.809 158.292C122.763 158.591 126.808 157.693 126.808 157.693C126.808 157.693 130.263 156.186 130.412 155.143C130.561 154.099 129.51 148.691 129.51 148.691L124.86 149.142Z" fill="black"/>
<path d="M130.418 150.343C130.418 150.343 129.816 153.044 128.909 154.093C128.002 155.142 126.808 157.244 125.762 157.093C124.715 156.943 124.41 159.194 126.363 159.493C128.317 159.793 132.371 158.892 132.371 158.892C132.371 158.892 135.826 157.385 135.975 156.342C136.124 155.298 135.074 149.891 135.074 149.891L130.418 150.343Z" fill="#53526B"/>
<path d="M116.75 109.24C116.75 109.24 117.951 122.141 118.852 123.491C119.754 124.842 120.804 130.692 120.804 130.692L122.756 142.692C122.756 142.692 123.51 149.594 123.957 150.344C124.404 151.093 129.978 150.771 129.978 150.771L126.512 111.039L116.75 109.24Z" fill="#5F5D7E"/>
<path opacity="0.05" d="M116.75 109.24C116.75 109.24 117.951 122.141 118.852 123.491C119.754 124.842 120.804 130.692 120.804 130.692L122.756 142.692C122.756 142.692 123.51 149.594 123.957 150.344C124.404 151.093 129.978 150.771 129.978 150.771L126.512 111.039L116.75 109.24Z" fill="black"/>
<path d="M114.347 103.086L114.739 104.331L116.861 111.057L116.902 111.185H116.913C117.198 111.249 123.21 112.63 124.507 113.054C124.577 113.075 124.646 113.101 124.713 113.131C125.314 113.431 126.065 124.231 126.065 124.231C126.065 124.231 126.516 134.432 126.819 135.182C127.123 135.932 128.328 151.381 129.073 150.932C129.818 150.484 135.23 150.932 135.23 150.932C135.831 150.332 135.23 142.232 135.23 142.232L134.162 127.384C134.162 127.384 134.764 119.134 134.162 117.633C133.561 116.132 133.561 106.083 133.561 106.083L121.268 104.163L120.08 103.975L114.347 103.086Z" fill="#5F5D7E"/>
<path opacity="0.02" d="M114.739 104.334L116.861 111.06L116.912 111.192C117.196 111.256 123.208 112.637 124.506 113.061H124.636L121.277 104.166L121.181 103.91L120.089 103.98L114.739 104.334Z" fill="black"/>
<path opacity="0.1" d="M128.766 73.0859C128.766 73.0859 123.208 79.087 119.754 74.1351L116.45 76.386L117.051 79.8367L115.098 105.937C115.098 105.937 120.204 105.787 123.808 106.986C124.812 107.342 125.896 107.404 126.934 107.165C127.971 106.925 128.919 106.395 129.665 105.636L129.071 82.6865L130.423 75.6363L128.766 73.0859Z" fill="black"/>
<path d="M128.766 72.6367C128.766 72.6367 123.208 78.6378 119.754 73.6859L116.45 75.9367L117.051 79.3875L115.098 105.488C115.098 105.488 120.204 105.337 123.808 106.537C124.812 106.893 125.896 106.955 126.934 106.715C127.971 106.476 128.919 105.946 129.665 105.187L129.071 82.2373L130.423 75.1871L128.766 72.6367Z" fill="#53526B"/>
<path d="M117.672 99.3633V100.309H117.37V99.6797H116.267V100.309H115.963V99.3652L117.672 99.3633Z" fill="#E82127"/>
<path d="M117.402 99.0568H116.236C116.16 99.0386 116.09 98.9998 116.034 98.9446C115.979 98.8895 115.939 98.8202 115.92 98.7441H117.717C117.697 98.8201 117.658 98.8893 117.602 98.9444C117.546 98.9995 117.476 99.0384 117.4 99.0568" fill="#E82127"/>
<path d="M127.94 98.7559C127.92 98.831 127.88 98.8995 127.825 98.9542C127.769 99.0089 127.7 99.0477 127.625 99.0667H127.134L127.11 99.0761V100.312H126.808V99.0761L126.78 99.0667H126.29C126.214 99.0472 126.146 99.0081 126.09 98.9536C126.035 98.899 125.995 98.8308 125.975 98.7559H127.94Z" fill="#E82127"/>
<path d="M117.2 103.689C117.2 103.689 117.2 107.59 116.299 109.24C115.397 110.89 110.142 109.994 110.142 109.994L111.192 104.443L117.2 103.689Z" fill="#D6DBE6"/>
<path d="M110.713 112.694C111.505 113.447 114.788 111.94 114.562 111.044C114.404 110.409 113.849 108.137 113.534 106.849L113.315 105.943C113.315 105.943 111.392 105.342 110.713 105.943C110.466 106.161 110.293 107.022 110.211 108.062C110.072 109.868 110.213 112.215 110.713 112.694Z" fill="#FDC2CC"/>
<path d="M117.945 75.337L123.201 79.3866C123.201 79.3866 131.01 78.9365 129.058 75.1863C128.208 73.5369 127.695 71.7352 127.549 69.8859C127.486 69.2036 127.486 68.517 127.549 67.8347C127.549 67.8347 120.34 61.2422 121.241 68.735C121.312 69.3102 121.354 69.8886 121.366 70.4679C121.473 76.0923 117.945 75.337 117.945 75.337Z" fill="#FDC2CC"/>
<path opacity="0.1" d="M121.256 68.7364C121.328 69.3116 121.369 69.8899 121.381 70.4693C122.19 71.0045 123.139 71.2889 124.11 71.2868C125.454 71.2868 126.444 69.9796 127.338 69.1113C127.238 67.8662 127.562 67.8361 127.562 67.8361C127.562 67.8361 120.355 61.236 121.256 68.7364Z" fill="black"/>
<path d="M124.11 70.986C126.847 70.986 129.065 68.7698 129.065 66.036C129.065 63.3021 126.847 61.0859 124.11 61.0859C121.373 61.0859 119.154 63.3021 119.154 66.036C119.154 68.7698 121.373 70.986 124.11 70.986Z" fill="#FDC2CC"/>
<path opacity="0.1" d="M127.638 70.7598C127.638 70.7598 128.464 70.8351 130.116 73.0841C131.768 75.3331 135.371 75.6345 135.371 75.6345C135.371 75.6345 136.724 75.0336 138.225 81.7843C139.726 88.535 140.176 93.0349 139.426 93.7846C138.675 94.5342 135.671 95.5871 134.163 95.5871C134.163 95.5871 133.712 105.037 134.463 106.687C135.213 108.337 134.312 109.388 134.312 109.388L127.711 108.938C127.711 108.938 125.458 106.088 125.007 101.138C124.557 96.188 123.056 82.0857 123.806 80.4357C124.557 78.7857 127.86 74.5853 127.711 74.1351C127.563 73.685 127.638 70.7598 127.638 70.7598Z" fill="black"/>
<path d="M127.655 70.7149C127.655 70.7149 128.766 70.6847 130.418 72.9356C132.069 75.1865 135.671 75.486 135.671 75.486C135.671 75.486 137.023 74.8851 138.524 81.6358C140.025 88.3866 140.476 92.8864 139.726 93.6361C138.975 94.3858 135.971 95.4368 134.47 95.4368C134.47 95.4368 134.019 104.887 134.77 106.537C135.52 108.187 134.619 109.238 134.619 109.238L128.019 108.788C128.019 108.788 125.765 105.938 125.315 100.988C124.864 96.0376 123.359 81.9372 124.11 80.2947C124.86 78.6522 128.164 74.4443 128.015 73.9942C127.866 73.544 127.655 70.7149 127.655 70.7149Z" fill="#D6DBE6"/>
<path opacity="0.1" d="M110.213 108.06C110.932 107.512 112.288 106.659 113.536 106.847L113.317 105.941C113.317 105.941 111.394 105.34 110.715 105.941C110.464 106.159 110.293 107.018 110.213 108.06Z" fill="black"/>
<path opacity="0.1" d="M121.339 71.6621C121.339 71.6621 117.509 74.1371 117.059 75.1882C116.608 76.2392 114.956 76.9889 114.956 76.9889C114.956 76.9889 111.803 78.6389 111.803 84.4892L110.151 92.7393L117.66 103.24C117.66 103.24 118.562 92.7393 119.012 90.1889C119.463 87.6386 120.063 82.843 120.063 82.843C120.063 82.843 122.316 79.9932 122.014 79.2435C121.713 78.4938 121.339 71.6621 121.339 71.6621Z" fill="black"/>
<path d="M121.339 71.6152C121.339 71.6152 117.345 73.836 116.897 74.8851C116.448 75.9343 114.794 76.6858 114.794 76.6858C114.794 76.6858 111.641 78.3358 111.641 84.1862L109.989 92.4362L109.689 108.187C109.689 108.187 112.393 105.636 114.345 106.836C116.297 108.036 117.498 102.935 117.498 102.935C117.498 102.935 118.4 92.4344 118.85 89.884C119.301 87.3336 119.901 82.5381 119.901 82.5381C119.901 82.5381 122.154 79.6882 121.852 78.9386C121.551 78.1889 121.339 71.6152 121.339 71.6152Z" fill="#D6DBE6"/>
<path opacity="0.1" d="M119.759 60.0155C120.013 59.6924 120.307 59.4026 120.634 59.1528C121.151 58.7234 121.722 58.2751 122.363 58.3128C122.726 58.361 123.074 58.4856 123.385 58.6782C124.982 59.5183 126.574 60.3671 128.162 61.2248C128.748 61.5412 129.354 61.8765 129.763 62.4453C130.172 63.0142 130.338 63.745 130.453 64.4607C130.549 64.9456 130.572 65.4421 130.521 65.9337C130.474 66.4157 130.24 66.86 129.869 67.1712C129.441 67.482 128.854 67.4839 128.496 67.8907C128.288 68.1262 128.198 68.4558 128.051 68.7421C127.904 69.0284 127.649 69.3072 127.359 69.2563C127.068 69.2055 126.893 68.8984 126.851 68.5877C126.833 68.2727 126.851 67.9566 126.906 67.6459C126.963 67.0808 126.891 66.4818 126.563 66.0618C126.337 65.7755 126.012 65.6022 125.793 65.3084C125.269 64.6001 125.509 63.4248 124.934 62.7599C124.767 62.5861 124.556 62.4596 124.324 62.3935C124.093 62.3273 123.847 62.3237 123.614 62.3832C123.148 62.4811 122.722 62.7335 122.294 62.9482C121.715 63.2396 121.109 63.4731 120.485 63.6452C119.961 63.7883 119.354 64.1311 119.174 63.4342C118.901 62.4114 119.156 60.8462 119.759 60.0155Z" fill="black"/>
<path d="M119.91 59.8671C120.164 59.544 120.458 59.2542 120.785 59.0044C121.302 58.5749 121.873 58.1267 122.514 58.1643C122.877 58.2126 123.225 58.3371 123.536 58.5297C125.132 59.3698 126.457 58.5749 128.313 61.0763C128.709 61.6113 129.505 61.728 129.914 62.2969C130.323 62.8657 130.489 63.5966 130.604 64.3123C130.7 64.7971 130.723 65.2936 130.672 65.7853C130.625 66.2672 130.391 66.7116 130.02 67.0228C129.592 67.3336 129.005 67.3354 128.647 67.7423C128.439 67.9777 128.349 68.3074 128.202 68.5937C128.055 68.88 127.8 69.1587 127.51 69.1079C127.219 69.057 127.044 68.75 127.002 68.4392C126.984 68.1242 127.002 67.8082 127.057 67.4974C127.114 66.9324 127.042 66.3334 126.714 65.9133C126.488 65.627 126.163 65.4538 125.944 65.1599C125.42 64.4517 125.66 63.2763 125.085 62.6114C124.918 62.4376 124.707 62.3112 124.475 62.245C124.244 62.1788 123.998 62.1753 123.765 62.2347C123.299 62.3327 122.873 62.5851 122.444 62.7998C121.866 63.0912 121.26 63.3246 120.636 63.4967C120.112 63.6399 119.505 63.9827 119.325 63.2858C119.05 62.263 119.307 60.6959 119.91 59.8671Z" fill="#865A61"/>
<path opacity="0.1" d="M133.446 82.7617C133.446 82.7617 135.449 87.8624 133.946 89.9626L130.642 89.2092C130.642 89.2092 133.646 90.1095 133.195 88.3088C132.745 86.5081 133.446 82.7617 133.446 82.7617Z" fill="black"/>
<path opacity="0.1" d="M134.54 95.3645C134.54 95.3645 130.184 95.664 128.982 94.7637C130.564 95.9697 132.432 96.7453 134.404 97.0145L134.54 95.3645Z" fill="black"/>
<path opacity="0.1" d="M115.774 85.7578C115.774 85.7578 113.521 92.6592 113.672 93.7084C113.823 94.7575 114.122 106.309 114.122 106.309L114.573 106.159L114.422 93.5577L115.774 85.7578Z" fill="black"/>
<path d="M135.07 94.1923L83.5884 52.7536C83.2888 52.4545 82.933 52.2173 82.5415 52.0557C82.1499 51.8941 81.7303 51.8112 81.3066 51.8118H79.1192C83.4905 46.2165 85.5606 39.1663 84.9073 32.099C84.254 25.0317 80.9265 18.4794 75.6033 13.7781C70.2802 9.07676 63.3621 6.58051 56.2599 6.7983C49.1576 7.01608 42.4059 9.93151 37.3815 14.9501C32.357 19.9687 29.4382 26.7126 29.2202 33.8066C29.0021 40.9007 31.5013 47.8107 36.2081 53.1277C40.9148 58.4447 47.4747 61.7683 54.5503 62.4209C61.6258 63.0734 68.6841 61.0057 74.286 56.6394V58.8225C74.2853 59.2457 74.3683 59.6648 74.5301 60.0559C74.6919 60.447 74.9293 60.8023 75.2288 61.1016L126.71 102.54C127.008 102.84 127.363 103.079 127.753 103.241C128.144 103.404 128.563 103.487 128.986 103.487C129.409 103.487 129.828 103.404 130.219 103.241C130.61 103.079 130.964 102.84 131.262 102.54L135.056 98.7543C135.662 98.15 136.003 97.3308 136.006 96.476C136.008 95.6211 135.672 94.8 135.07 94.1923ZM57.0992 51.8118C53.6999 51.8118 50.377 50.805 47.5507 48.9187C44.7243 47.0324 42.5215 44.3513 41.2206 41.2144C39.9198 38.0776 39.5794 34.6259 40.2426 31.2959C40.9057 27.9658 42.5426 24.907 44.9462 22.5061C47.3499 20.1053 50.4123 18.4703 53.7462 17.8079C57.0801 17.1455 60.5358 17.4855 63.6763 18.7848C66.8167 20.0841 69.501 22.2845 71.3895 25.1075C73.278 27.9306 74.286 31.2497 74.286 34.645C74.2877 36.9 73.8444 39.1333 72.9813 41.2171C72.1183 43.3008 70.8524 45.1942 69.2562 46.789C67.6599 48.3837 65.7646 49.6485 63.6786 50.511C61.5926 51.3735 59.3568 51.8168 57.0992 51.8156V51.8118Z" fill="url(#paint3_linear)"/>
<path d="M135.447 93.8173L83.9656 52.3786C83.666 52.0795 83.3102 51.8423 82.9187 51.6807C82.5271 51.5191 82.1075 51.4362 81.6838 51.4369H79.4964C83.8677 45.8415 85.9378 38.7913 85.2845 31.724C84.6312 24.6567 81.3037 18.1044 75.9805 13.4031C70.6574 8.70176 63.7393 6.20551 56.6371 6.4233C49.5348 6.64108 42.7831 9.55651 37.7587 14.5751C32.7342 19.5937 29.8154 26.3376 29.5974 33.4316C29.3793 40.5257 31.8785 47.4357 36.5853 52.7527C41.292 58.0697 47.8519 61.3933 54.9275 62.0459C62.003 62.6984 69.0613 60.6307 74.6632 56.2645V58.4475C74.6625 58.8707 74.7455 59.2898 74.9073 59.6809C75.0691 60.072 75.3065 60.4273 75.606 60.7266L127.087 102.165C127.385 102.465 127.74 102.704 128.131 102.866C128.521 103.029 128.94 103.112 129.363 103.112C129.787 103.112 130.206 103.029 130.596 102.866C130.987 102.704 131.341 102.465 131.639 102.165L135.434 98.3793C136.039 97.775 136.38 96.9559 136.383 96.101C136.385 95.2461 136.049 94.425 135.447 93.8173ZM57.4764 51.4369C54.0771 51.4369 50.7542 50.43 47.9279 48.5437C45.1015 46.6574 42.8986 43.9763 41.5978 40.8394C40.297 37.7026 39.9566 34.2509 40.6198 30.9209C41.2829 27.5908 42.9198 24.532 45.3234 22.1311C47.7271 19.7303 50.7895 18.0953 54.1234 17.4329C57.4573 16.7705 60.913 17.1105 64.0535 18.4098C67.1939 19.7091 69.8782 21.9095 71.7667 24.7325C73.6552 27.5556 74.6632 30.8747 74.6632 34.27C74.6649 36.525 74.2216 38.7583 73.3585 40.8421C72.4954 42.9258 71.2296 44.8192 69.6334 46.414C68.0371 48.0087 66.1418 49.2735 64.0558 50.136C61.9698 50.9985 59.734 51.4419 57.4764 51.4406V51.4369Z" fill="#BA1C51"/>
<path d="M131.619 90.0374C131.619 90.0374 124.104 81.4294 125.16 87.3363C125.914 91.5367 128.764 93.7876 130.116 94.2377C131.468 94.6879 131.619 90.0374 131.619 90.0374Z" fill="#FDC2CC"/>
<path d="M133.421 82.0879C133.421 82.0879 133.572 87.6388 134.323 88.3884C135.073 89.1381 133.872 90.0385 133.872 90.0385L130.868 89.285C130.868 89.285 131.622 94.2351 128.466 93.6361C128.466 93.6361 130.568 95.5856 132.671 95.8869C134.773 96.1883 134.623 95.4368 134.623 95.4368L137.776 91.6866L133.421 82.0879Z" fill="#D6DBE6"/>
<path d="M134.253 95.5167L137.301 94.8481L136.893 93.4448L135.007 92.6914L132.556 93.8215L134.253 95.5167Z" fill="#D6DBE6"/>
<path d="M59.3564 41.3825L63.4127 38.2576C63.4127 38.2576 60.6953 38.8396 60.7726 34.5018C60.7717 34.4873 60.7717 34.4729 60.7726 34.4584C60.7726 34.0667 60.8103 33.6372 60.8669 33.1644C61.5627 27.3762 55.9997 32.4694 55.9997 32.4694C56.0476 32.9819 56.0476 33.4977 55.9997 34.0101C55.9997 34.0233 55.9997 34.0384 55.9997 34.0516C55.8897 35.478 55.4961 36.8682 54.8419 38.1408C53.3314 41.034 59.3564 41.3825 59.3564 41.3825Z" fill="#FDC2CC"/>
<path opacity="0.1" d="M56.5182 33.2059C57.2065 33.8745 57.627 35.0894 58.6623 35.0894C59.4114 35.0911 60.1442 34.8716 60.7687 34.4584C60.7687 34.0667 60.8064 33.6372 60.863 33.1644C61.5588 27.3762 55.9958 32.4694 55.9958 32.4694C55.9958 32.4694 56.5918 32.2641 56.5182 33.2059Z" fill="black"/>
<path d="M58.6624 34.9015C60.7746 34.9015 62.4868 33.1913 62.4868 31.0816C62.4868 28.9719 60.7746 27.2617 58.6624 27.2617C56.5503 27.2617 54.8381 28.9719 54.8381 31.0816C54.8381 33.1913 56.5503 34.9015 58.6624 34.9015Z" fill="#FDC2CC"/>
<path opacity="0.1" d="M62.3303 26.1904C62.111 25.9136 61.8575 25.6655 61.576 25.4521C61.1347 25.0848 60.6444 24.6986 60.0956 24.7326C59.7851 24.7738 59.4869 24.8804 59.2207 25.0452C57.8535 25.7648 56.7201 25.0848 55.1304 27.2245C54.791 27.6822 54.1102 27.7896 53.7595 28.2699C53.4087 28.7502 53.2673 29.3812 53.1674 29.9953C53.0848 30.4106 53.065 30.836 53.1089 31.2573C53.1508 31.6707 53.3541 32.051 53.6746 32.3158C54.0405 32.5814 54.544 32.5833 54.8514 32.9317C55.0059 33.1587 55.1325 33.4035 55.2285 33.6607C55.353 33.9056 55.5717 34.1372 55.8206 34.1014C56.0695 34.0657 56.2185 33.7963 56.2544 33.5364C56.2699 33.2674 56.2541 32.9975 56.2072 32.7321C56.1601 32.2555 56.2204 31.7357 56.5014 31.3759C56.69 31.1292 56.9728 30.9823 57.1595 30.7317C57.6083 30.1271 57.4047 29.1119 57.8969 28.5506C58.0408 28.4029 58.2213 28.296 58.4201 28.2408C58.6188 28.1855 58.8287 28.1839 59.0283 28.236C59.4247 28.349 59.805 28.5123 60.1598 28.722C60.6548 28.9716 61.1734 29.1716 61.708 29.3191C62.1568 29.4415 62.6773 29.7353 62.83 29.1307C63.0695 28.2417 62.8451 26.9005 62.3303 26.1904Z" fill="black"/>
<path d="M62.3303 26.001C62.111 25.7241 61.8575 25.476 61.576 25.2626C61.1347 24.8953 60.6444 24.5092 60.0956 24.5431C59.7851 24.5844 59.4869 24.6909 59.2207 24.8558C57.8535 25.5753 56.7201 24.8953 55.1304 27.0351C54.791 27.4928 54.1102 27.6001 53.7595 28.0804C53.4087 28.5608 53.2673 29.1918 53.1674 29.8058C53.0848 30.2212 53.065 30.6466 53.1089 31.0678C53.1508 31.4812 53.3541 31.8615 53.6746 32.1264C54.0405 32.392 54.544 32.3938 54.8514 32.7423C55.0059 32.9693 55.1325 33.214 55.2285 33.4712C55.353 33.7161 55.5717 33.9478 55.8206 33.912C56.0695 33.8762 56.2185 33.6069 56.2544 33.3469C56.2699 33.0779 56.2541 32.808 56.2072 32.5426C56.1601 32.0661 56.2204 31.5462 56.5014 31.1865C56.69 30.9397 56.9728 30.7928 57.1595 30.5423C57.6083 29.9377 57.4047 28.9224 57.8969 28.3611C58.0408 28.2135 58.2213 28.1066 58.4201 28.0513C58.6188 27.9961 58.8287 27.9944 59.0283 28.0465C59.4247 28.1596 59.805 28.3229 60.1598 28.5325C60.6548 28.7821 61.1734 28.9821 61.708 29.1296C62.1568 29.252 62.6773 29.5459 62.83 28.9412C63.0695 28.0522 62.8451 26.7111 62.3303 26.001Z" fill="#865A61"/>
<path opacity="0.1" d="M54.8382 43.3925L54.7628 46.2838C55.8587 46.5813 56.9894 46.7314 58.1251 46.7302C58.3136 46.7302 58.5116 46.7302 58.704 46.717C59.7111 46.6737 60.7094 46.5106 61.6778 46.2311H61.6967C61.8758 46.1783 62.0531 46.1237 62.2285 46.0634H62.2473L62.4076 46.0069C63.018 45.7922 63.6107 45.5302 64.1802 45.2234L64.2161 45.2045C64.2783 45.1706 64.3405 45.1367 64.4046 45.1009L64.1123 41.2038L64.5781 38.531L62.0286 36.7963C61.8855 37.0027 61.7252 37.1968 61.5496 37.3764C61.2979 37.639 61.0033 37.8568 60.6784 38.0206C58.8492 38.9209 56.7673 37.4894 55.732 36.6041L55.4963 36.3951C55.2285 36.1521 55.0758 35.9863 55.0758 35.9863L53.801 37.9528L54.8382 43.3925Z" fill="black"/>
<path d="M54.8382 43.58L54.7628 46.4713C55.8587 46.7688 56.9894 46.9189 58.1251 46.9177C58.3136 46.9177 58.5116 46.9177 58.704 46.9046C59.7111 46.8612 60.7094 46.6981 61.6778 46.4186H61.6967C61.8758 46.3659 62.0531 46.3112 62.2285 46.251H62.2473L62.4076 46.1944C63.018 45.9797 63.6107 45.7177 64.1802 45.4109L64.2161 45.392C64.2783 45.3581 64.3405 45.3242 64.4046 45.2884L64.1123 41.3913L64.5781 38.7185L62.0286 36.9838C61.8855 37.1902 61.7252 37.3843 61.5496 37.5639C61.2979 37.8265 61.0033 38.0443 60.6784 38.2081C58.8492 39.1084 56.7673 37.6769 55.732 36.7916L55.4963 36.5826C55.2285 36.3396 55.0758 36.1738 55.0758 36.1738L53.801 38.1403L54.8382 43.58Z" fill="#53526B"/>
<path d="M61.9059 43.8123C61.9059 43.8123 62.0455 44.9217 62.2284 46.2478H62.2473L62.4076 46.1913C63.0179 45.9765 63.6106 45.7146 64.1802 45.4077L64.216 45.3889C64.2782 45.3549 64.3405 45.321 64.4046 45.2853C65.2405 44.8166 66.0211 44.2555 66.7316 43.6126L66.7938 43.5542C67.1835 43.2019 67.5494 42.8244 67.8894 42.4241L67.929 42.377C67.2558 40.0433 65.8547 39.3087 65.8547 39.3087C65.8547 39.3087 64.5799 38.7285 64.2311 37.9186C63.8822 37.1087 60.8028 35.3965 60.8028 35.3965V35.4097C60.8028 35.5547 60.7537 36.8826 60.6802 38.2181C60.6331 39.0864 60.5746 39.9585 60.5067 40.5123C60.492 40.6922 60.4592 40.8701 60.4087 41.0434C60.1692 41.6142 61.9059 43.8123 61.9059 43.8123Z" fill="#555388"/>
</g>
<defs>
<linearGradient id="paint0_linear" x1="97.4808" y1="150.639" x2="97.4808" y2="8.37109" gradientUnits="userSpaceOnUse">
<stop stop-color="#808080" stop-opacity="0.25"/>
<stop offset="0.54" stop-color="#808080" stop-opacity="0.12"/>
<stop offset="1" stop-color="#808080" stop-opacity="0.1"/>
</linearGradient>
<linearGradient id="paint1_linear" x1="7053.86" y1="11669.7" x2="7053.86" y2="8911.02" gradientUnits="userSpaceOnUse">
<stop stop-color="#808080" stop-opacity="0.25"/>
<stop offset="0.54" stop-color="#808080" stop-opacity="0.12"/>
<stop offset="1" stop-color="#808080" stop-opacity="0.1"/>
</linearGradient>
<linearGradient id="paint2_linear" x1="-32973.6" y1="88841.7" x2="-32973.6" y2="33300.5" gradientUnits="userSpaceOnUse">
<stop stop-color="#808080" stop-opacity="0.25"/>
<stop offset="0.54" stop-color="#808080" stop-opacity="0.12"/>
<stop offset="1" stop-color="#808080" stop-opacity="0.1"/>
</linearGradient>
<linearGradient id="paint3_linear" x1="51133.4" y1="54948.2" x2="51133.4" y2="5283.83" gradientUnits="userSpaceOnUse">
<stop stop-color="#808080" stop-opacity="0.25"/>
<stop offset="0.54" stop-color="#808080" stop-opacity="0.12"/>
<stop offset="1" stop-color="#808080" stop-opacity="0.1"/>
</linearGradient>
<clipPath id="clip0">
<rect width="210" height="159" fill="white" transform="translate(0.5 0.970703)"/>
</clipPath>
</defs>
</svg>
