<svg width="202" height="113" viewBox="0 0 202 113" fill="none" xmlns="http://www.w3.org/2000/svg">
<g filter="url(#filter0_d)">
<g opacity="0.7">
<path opacity="0.7" d="M148.862 5H52.9487C52.1266 5.00301 51.3395 5.33202 50.7602 5.91471C50.1809 6.4974 49.8569 7.28608 49.8594 8.10737V74.0624C49.8569 74.8836 50.1809 75.6723 50.7602 76.255C51.3395 76.8377 52.1266 77.1667 52.9487 77.1697H85.9362V88.5546H84.4323C84.2259 88.5553 84.0216 88.5967 83.8311 88.6763C83.6407 88.7559 83.4678 88.8723 83.3223 89.0187C83.1769 89.165 83.0617 89.3386 82.9834 89.5295C82.9051 89.7203 82.8652 89.9247 82.8659 90.131V92.4151H85.9362V93.7663H115.874V92.4151H118.945V90.131C118.945 89.9247 118.905 89.7203 118.827 89.5295C118.749 89.3386 118.634 89.165 118.488 89.0187C118.343 88.8723 118.17 88.7559 117.979 88.6763C117.789 88.5967 117.585 88.5553 117.378 88.5546H115.963V88.4562H115.867V77.1697H148.862C149.684 77.1667 150.471 76.8377 151.05 76.255C151.63 75.6723 151.954 74.8836 151.951 74.0624V8.10737C151.954 7.28608 151.63 6.4974 151.05 5.91471C150.471 5.33202 149.684 5.00301 148.862 5Z" fill="url(#paint0_linear)"/>
</g>
<path d="M115.774 75.209H86.2261V92.6193H115.774V75.209Z" fill="#BDBDBD"/>
<g opacity="0.1">
<path opacity="0.1" d="M86.8075 76.9133H115.251C115.594 75.4239 115.869 74.4531 115.869 74.4531H86.1313C86.1313 74.4531 86.4363 75.4202 86.8075 76.9133Z" fill="black"/>
</g>
<path d="M53.6664 5.56836H148.333C149.142 5.56836 149.918 5.88936 150.49 6.46075C151.062 7.03214 151.383 7.80711 151.383 8.61517V66.8831H50.6169V8.61517C50.6169 7.80711 50.9382 7.03214 51.5101 6.46075C52.082 5.88936 52.8577 5.56836 53.6664 5.56836Z" fill="#535461"/>
<path d="M148.333 76.3449H53.6664C52.8577 76.3449 52.082 76.0239 51.5101 75.4526C50.9382 74.8812 50.6169 74.1062 50.6169 73.2981V66.8828H151.383V73.2981C151.383 74.1062 151.062 74.8812 150.49 75.4526C149.918 76.0239 149.142 76.3449 148.333 76.3449Z" fill="#BDBDBD"/>
<path d="M101 73.3165C101.942 73.3165 102.705 72.554 102.705 71.6133C102.705 70.6727 101.942 69.9102 101 69.9102C100.059 69.9102 99.2954 70.6727 99.2954 71.6133C99.2954 72.554 100.059 73.3165 101 73.3165Z" fill="#535461"/>
<path d="M84.743 87.5098H117.257C117.667 87.5098 118.061 87.6727 118.351 87.9626C118.642 88.2526 118.805 88.6458 118.805 89.0559V91.2946H83.1956V89.0559C83.1956 88.8528 83.2356 88.6518 83.3134 88.4642C83.3911 88.2766 83.5051 88.1062 83.6488 87.9626C83.7925 87.819 83.9631 87.7052 84.1508 87.6275C84.3386 87.5498 84.5398 87.5098 84.743 87.5098Z" fill="#BDBDBD"/>
<g opacity="0.5">
<path opacity="0.5" d="M131.4 18.459H70.5997C70.1289 18.459 69.7473 18.8403 69.7473 19.3106V53.1397C69.7473 53.61 70.1289 53.9912 70.5997 53.9912H131.4C131.871 53.9912 132.252 53.61 132.252 53.1397V19.3106C132.252 18.8403 131.871 18.459 131.4 18.459Z" fill="url(#paint1_linear)"/>
</g>
<path d="M130.599 18.7207H71.4009C70.9302 18.7207 70.5486 19.102 70.5486 19.5723V52.6823C70.5486 53.1526 70.9302 53.5339 71.4009 53.5339H130.599C131.07 53.5339 131.451 53.1526 131.451 52.6823V19.5723C131.451 19.102 131.07 18.7207 130.599 18.7207Z" fill="white"/>
<g opacity="0.5">
<path opacity="0.5" d="M93.3745 23.7168H88.3665C87.8958 23.7168 87.5142 24.0981 87.5142 24.5684V28.9021C87.5142 29.3724 87.8958 29.7536 88.3665 29.7536H93.3745C93.8452 29.7536 94.2268 29.3724 94.2268 28.9021V24.5684C94.2268 24.0981 93.8452 23.7168 93.3745 23.7168Z" fill="#F50057"/>
</g>
<path d="M114.029 23.7168H96.5752C96.3901 23.7168 96.24 23.8668 96.24 24.0518C96.24 24.2367 96.3901 24.3867 96.5752 24.3867H114.029C114.214 24.3867 114.365 24.2367 114.365 24.0518C114.365 23.8668 114.214 23.7168 114.029 23.7168Z" fill="#E0E0E0"/>
<path d="M110.97 25.7324H96.5752C96.3901 25.7324 96.24 25.8824 96.24 26.0674C96.24 26.2524 96.3901 26.4023 96.5752 26.4023H110.97C111.156 26.4023 111.306 26.2524 111.306 26.0674C111.306 25.8824 111.156 25.7324 110.97 25.7324Z" fill="#E0E0E0"/>
<g opacity="0.5">
<path opacity="0.5" d="M93.3745 33.1074H88.3665C87.8958 33.1074 87.5142 33.4887 87.5142 33.959V38.2927C87.5142 38.763 87.8958 39.1443 88.3665 39.1443H93.3745C93.8452 39.1443 94.2268 38.763 94.2268 38.2927V33.959C94.2268 33.4887 93.8452 33.1074 93.3745 33.1074Z" fill="#F50057"/>
</g>
<path d="M114.029 33.1074H96.5752C96.3901 33.1074 96.24 33.2574 96.24 33.4424C96.24 33.6274 96.3901 33.7773 96.5752 33.7773H114.029C114.214 33.7773 114.365 33.6274 114.365 33.4424C114.365 33.2574 114.214 33.1074 114.029 33.1074Z" fill="#E0E0E0"/>
<path d="M114.029 35.1191H96.5752C96.3901 35.1191 96.24 35.2691 96.24 35.4541C96.24 35.6391 96.3901 35.7891 96.5752 35.7891H114.029C114.214 35.7891 114.365 35.6391 114.365 35.4541C114.365 35.2691 114.214 35.1191 114.029 35.1191Z" fill="#E0E0E0"/>
<g opacity="0.5">
<path opacity="0.5" d="M93.3745 42.498H88.3665C87.8958 42.498 87.5142 42.8793 87.5142 43.3496V47.6833C87.5142 48.1536 87.8958 48.5349 88.3665 48.5349H93.3745C93.8452 48.5349 94.2268 48.1536 94.2268 47.6833V43.3496C94.2268 42.8793 93.8452 42.498 93.3745 42.498Z" fill="#F50057"/>
</g>
<path d="M114.029 42.498H96.5752C96.3901 42.498 96.24 42.648 96.24 42.833C96.24 43.018 96.3901 43.168 96.5752 43.168H114.029C114.214 43.168 114.365 43.018 114.365 42.833C114.365 42.648 114.214 42.498 114.029 42.498Z" fill="#E0E0E0"/>
<path d="M114.185 44.5098H96.5412C96.3748 44.5098 96.24 44.6445 96.24 44.8107V44.8788C96.24 45.045 96.3748 45.1797 96.5412 45.1797H114.185C114.351 45.1797 114.486 45.045 114.486 44.8788V44.8107C114.486 44.6445 114.351 44.5098 114.185 44.5098Z" fill="#E0E0E0"/>
<path d="M101 12.9485V8.78516" stroke="#F50057" stroke-width="2" stroke-miterlimit="10"/>
<path d="M101 19.9498V14.4863" stroke="#F50057" stroke-width="2" stroke-miterlimit="10"/>
<path d="M101 20.7073C101.419 20.7073 101.758 20.3684 101.758 19.9503C101.758 19.5323 101.419 19.1934 101 19.1934C100.582 19.1934 100.242 19.5323 100.242 19.9503C100.242 20.3684 100.582 20.7073 101 20.7073Z" fill="#F50057"/>
<path d="M101 14.4612C101.419 14.4612 101.758 14.1223 101.758 13.7042C101.758 13.2862 101.419 12.9473 101 12.9473C100.582 12.9473 100.242 13.2862 100.242 13.7042C100.242 14.1223 100.582 14.4612 101 14.4612Z" stroke="white" stroke-miterlimit="10"/>
<path d="M101 12.9485V8.78516" stroke="#F50057" stroke-width="2" stroke-miterlimit="10"/>
<path d="M101 19.9498V14.4863" stroke="#F50057" stroke-width="2" stroke-miterlimit="10"/>
<path d="M101 20.7073C101.419 20.7073 101.758 20.3684 101.758 19.9503C101.758 19.5323 101.419 19.1934 101 19.1934C100.582 19.1934 100.242 19.5323 100.242 19.9503C100.242 20.3684 100.582 20.7073 101 20.7073Z" fill="#F50057"/>
<path d="M101 14.4612C101.419 14.4612 101.758 14.1223 101.758 13.7042C101.758 13.2862 101.419 12.9473 101 12.9473C100.582 12.9473 100.242 13.2862 100.242 13.7042C100.242 14.1223 100.582 14.4612 101 14.4612Z" stroke="white" stroke-miterlimit="10"/>
<path d="M101 57.7988V63.6654" stroke="#F50057" stroke-width="2" stroke-miterlimit="10"/>
<path d="M101 52.5V57.9634" stroke="#F50057" stroke-width="2" stroke-miterlimit="10"/>
<path d="M101 53.2561C101.419 53.2561 101.758 52.9172 101.758 52.4992C101.758 52.0811 101.419 51.7422 101 51.7422C100.582 51.7422 100.242 52.0811 100.242 52.4992C100.242 52.9172 100.582 53.2561 101 53.2561Z" fill="#F50057"/>
<path d="M66.9063 36.8867H60.9399" stroke="#F50057" stroke-width="2" stroke-miterlimit="10"/>
<path d="M72.115 36.8867H66.6467" stroke="#F50057" stroke-width="2" stroke-miterlimit="10"/>
<path d="M72.1151 37.6448C72.5335 37.6448 72.8727 37.3059 72.8727 36.8878C72.8727 36.4698 72.5335 36.1309 72.1151 36.1309C71.6966 36.1309 71.3574 36.4698 71.3574 36.8878C71.3574 37.3059 71.6966 37.6448 72.1151 37.6448Z" fill="#F50057"/>
<g opacity="0.1">
<path opacity="0.1" d="M115.869 87.416H86.3208V87.9837H115.869V87.416Z" fill="black"/>
</g>
<g opacity="0.7">
<path opacity="0.7" d="M42.9422 74.4638H29.2289L29.4183 72.9233C33.2937 69.4469 35.7996 60.1854 35.7996 60.1854C35.7439 60.1931 35.6889 60.2045 35.6348 60.2195C33.3619 60.6774 31.7443 61.6104 30.6135 62.7326L31.0946 58.6336C38.2543 57.0932 41.0935 47.631 41.0935 47.631C36.525 48.6435 33.6763 50.2104 31.9072 51.6978L32.6118 45.6761C37.4531 47.3358 42.4611 38.519 42.4611 38.519L42.2717 38.4792L42.3664 38.4187L42.2224 38.4697C36.8716 37.3173 34.0115 40.3735 33.0834 41.6434L33.1535 41.0529C33.0121 41.4314 32.8744 41.8023 32.7406 42.1657V42.1808C32.3618 43.2065 32.0152 44.2196 31.7007 45.22C31.4267 46.0742 31.1704 46.9194 30.9317 47.7559V47.7445C30.9317 47.7445 30.7101 42.3587 25.0259 40.9413C25.0259 40.9413 25.6226 52.6876 30.1267 50.7649C29.71 52.4681 29.3691 54.1069 29.0736 55.6984C28.8855 56.7342 28.7213 57.7435 28.5812 58.7263L28.5546 58.7566L28.5812 58.7339L28.5698 58.8115C28.4435 59.7035 28.3362 60.5727 28.2478 61.4193C28.3349 59.788 28.0375 55.0758 22.4803 50.6475C22.4803 50.6475 15.0933 63.6183 27.689 66.1655C27.7174 66.1901 27.7459 66.2147 27.7724 66.2374L27.7534 66.1787L27.8671 66.2033L27.9182 65.5372C27.7664 68.3174 27.7809 71.1043 27.9618 73.8828C27.975 74.072 27.9883 74.2613 28.0016 74.4411H14.1311C8.83899 85.3774 17.0707 91.3708 17.0707 91.3708H39.7999C48.6264 80.2546 42.9422 74.4638 42.9422 74.4638Z" fill="url(#paint2_linear)"/>
</g>
<path opacity="0.6" d="M28.456 78.6163C28.456 78.6163 24.8572 62.9092 32.8124 42.6602" stroke="#535461" stroke-width="3" stroke-miterlimit="10"/>
<path d="M14.44 73.8848H42.2832C42.2832 73.8848 47.7761 80.8868 39.2526 91.2951H17.2811C17.2811 91.2951 9.32593 84.1039 14.44 73.8848Z" fill="#F50057"/>
<path d="M32.413 43.6996C32.413 43.6996 35.1803 38.7793 41.8096 40.2932C41.8096 40.2932 36.33 49.6154 31.3921 46.5629L32.413 43.6996Z" fill="#4DB6AC"/>
<path d="M30.6588 48.9211C30.6588 48.9211 30.4448 43.8892 24.9519 42.5645C24.9519 42.5645 25.5201 53.5406 29.8766 51.7427L30.6588 48.9211Z" fill="#4DB6AC"/>
<path d="M28.8634 56.3518C28.8634 56.3518 29.8768 51.0795 40.4837 48.8086C40.4837 48.8086 37.1009 59.7128 28.3748 59.2756L28.8634 56.3518Z" fill="#4DB6AC"/>
<path d="M28.0035 62.2707C28.0035 62.2707 29.1191 56.758 22.4898 51.6484C22.4898 51.6484 15.2922 63.8868 27.6948 66.188L28.0035 62.2707Z" fill="#4DB6AC"/>
<path d="M27.8046 69.848C27.8046 69.848 27.0356 62.0569 35.3696 60.543C35.3696 60.543 32.3258 71.4225 27.7932 73.3623L27.8046 69.848Z" fill="#4DB6AC"/>
<path opacity="0.3" d="M31.4868 46.6335C31.4868 46.6335 38.6844 41.1454 41.7149 40.1992" stroke="#535461" stroke-miterlimit="10"/>
<path opacity="0.3" d="M28.3613 59.217C28.3613 59.217 37.0742 49.9441 40.4835 48.8086" stroke="#535461" stroke-miterlimit="10"/>
<path opacity="0.3" d="M24.9519 42.5645C24.9519 42.5645 30.2554 49.7557 29.8765 51.6481" stroke="#535461" stroke-miterlimit="10"/>
<path opacity="0.3" d="M22.4897 51.6484C22.4897 51.6484 25.3309 64.517 27.6038 66.2202" stroke="#535461" stroke-miterlimit="10"/>
<path opacity="0.3" d="M27.7932 73.4115C27.7932 73.4115 32.339 60.9215 35.3696 60.543" stroke="#535461" stroke-miterlimit="10"/>
<g opacity="0.1">
<path opacity="0.1" d="M42.2831 73.8848H14.4399C14.3774 74.0116 14.3168 74.1384 14.2505 74.2633H41.3361C41.3361 74.2633 46.6945 81.0968 38.6086 91.2951H39.2526C47.776 80.8868 42.2831 73.8848 42.2831 73.8848Z" fill="black"/>
</g>
<path d="M193 91.2188H9V97.4505H193V91.2188Z" fill="#E0E0E0"/>
<path d="M185.202 97.4512H16.7961V100H185.202V97.4512Z" fill="#E0E0E0"/>
<path opacity="0.1" d="M185.202 97.4512H16.7961V98.3009H185.202V97.4512Z" fill="black"/>
<path d="M139.734 36.8867H140.871" stroke="#F50057" stroke-width="2" stroke-miterlimit="10"/>
<path d="M129.696 36.8867H138.196" stroke="#F50057" stroke-width="2" stroke-miterlimit="10"/>
<path d="M129.695 37.6448C130.114 37.6448 130.453 37.3059 130.453 36.8878C130.453 36.4698 130.114 36.1309 129.695 36.1309C129.277 36.1309 128.938 36.4698 128.938 36.8878C128.938 37.3059 129.277 37.6448 129.695 37.6448Z" fill="#F50057"/>
<path d="M138.977 37.6448C139.395 37.6448 139.734 37.3059 139.734 36.8878C139.734 36.4698 139.395 36.1309 138.977 36.1309C138.558 36.1309 138.219 36.4698 138.219 36.8878C138.219 37.3059 138.558 37.6448 138.977 37.6448Z" stroke="white" stroke-miterlimit="10"/>
<g opacity="0.7">
<path opacity="0.7" d="M181.878 89.1905L181.897 89.1621C181.936 89.1016 181.975 89.0385 182.012 88.9729L182.033 88.9369C182.07 88.8751 182.105 88.812 182.137 88.7477L182.154 88.7155C182.192 88.6417 182.228 88.5679 182.261 88.4903C182.329 88.3355 182.388 88.1769 182.439 88.0153L182.458 87.9529C182.475 87.8942 182.492 87.8355 182.507 87.7769L182.526 87.6936C182.538 87.6406 182.55 87.587 182.56 87.5328C182.56 87.5025 182.571 87.4722 182.577 87.4419C182.583 87.4116 182.594 87.3359 182.601 87.2811C182.609 87.2262 182.601 87.2186 182.613 87.1883C182.624 87.1581 182.624 87.0729 182.628 87.0142C182.628 86.9877 182.628 86.9593 182.628 86.9329C182.628 86.8477 182.628 86.7606 182.628 86.6755V71.0459H180.005V63.3853H176.785V71.0459H174.565V60.0433H171.345V71.0459H170.135V58.4707H166.915V71.0459H164.073V86.6774C164.073 89.2284 166.197 91.2949 168.809 91.2949H177.9C178.644 91.2978 179.377 91.1273 180.043 90.7967C180.708 90.4662 181.288 89.9849 181.734 89.3911C181.781 89.3243 181.829 89.2574 181.878 89.1905Z" fill="url(#paint3_linear)"/>
</g>
<path d="M170.324 65.7461H167.293V84.6704H170.324V65.7461Z" fill="#535461"/>
<path d="M170.324 59.502H167.293V65.747H170.324V59.502Z" fill="#3AD29F"/>
<path d="M174.491 67.2617H171.46V86.186H174.491V67.2617Z" fill="#535461"/>
<path d="M174.491 61.0156H171.46V67.2606H174.491V61.0156Z" fill="#4D8AF0"/>
<path d="M179.605 70.4785H176.574V89.4028H179.605V70.4785Z" fill="#535461"/>
<path d="M179.605 64.2324H176.574V70.4775H179.605V64.2324Z" fill="#F55F44"/>
<path d="M164.642 71.6133H182.067V86.6581C182.067 87.8376 181.598 88.9687 180.764 89.8028C179.929 90.6368 178.797 91.1053 177.616 91.1053H169.093C167.912 91.1053 166.78 90.6368 165.945 89.8028C165.111 88.9687 164.642 87.8376 164.642 86.6581V71.6133Z" fill="#F50057"/>
<g opacity="0.1">
<path opacity="0.1" d="M164.642 71.6133V72.3703H181.31V87.4151C181.311 88.4094 180.978 89.3754 180.363 90.1572C180.894 89.7417 181.324 89.2106 181.619 88.6043C181.915 87.998 182.068 87.3324 182.067 86.6581V71.6133H164.642Z" fill="black"/>
</g>
</g>
<defs>
<filter id="filter0_d" x="0" y="0" width="202" height="113" filterUnits="userSpaceOnUse" color-interpolation-filters="sRGB">
<feFlood flood-opacity="0" result="BackgroundImageFix"/>
<feColorMatrix in="SourceAlpha" type="matrix" values="0 0 0 0 0 0 0 0 0 0 0 0 0 0 0 0 0 0 127 0"/>
<feOffset dy="4"/>
<feGaussianBlur stdDeviation="4.5"/>
<feColorMatrix type="matrix" values="0 0 0 0 0.0541667 0 0 0 0 0.0780638 0 0 0 0 0.325 0 0 0 0.83 0"/>
<feBlend mode="normal" in2="BackgroundImageFix" result="effect1_dropShadow"/>
<feBlend mode="normal" in="SourceGraphic" in2="effect1_dropShadow" result="shape"/>
</filter>
<linearGradient id="paint0_linear" x1="100.905" y1="93.7644" x2="100.905" y2="5" gradientUnits="userSpaceOnUse">
<stop stop-color="#808080" stop-opacity="0.25"/>
<stop offset="0.54" stop-color="#808080" stop-opacity="0.12"/>
<stop offset="1" stop-color="#808080" stop-opacity="0.1"/>
</linearGradient>
<linearGradient id="paint1_linear" x1="30429.8" y1="9217.05" x2="30429.8" y2="2545.51" gradientUnits="userSpaceOnUse">
<stop stop-color="#808080" stop-opacity="0.25"/>
<stop offset="0.54" stop-color="#808080" stop-opacity="0.12"/>
<stop offset="1" stop-color="#808080" stop-opacity="0.1"/>
</linearGradient>
<linearGradient id="paint2_linear" x1="4287.41" y1="27413.5" x2="9825.55" y2="27413.5" gradientUnits="userSpaceOnUse">
<stop stop-color="#808080" stop-opacity="0.25"/>
<stop offset="0.54" stop-color="#808080" stop-opacity="0.12"/>
<stop offset="1" stop-color="#808080" stop-opacity="0.1"/>
</linearGradient>
<linearGradient id="paint3_linear" x1="17475.4" y1="18711.8" x2="19293.8" y2="18711.8" gradientUnits="userSpaceOnUse">
<stop stop-color="#808080" stop-opacity="0.25"/>
<stop offset="0.54" stop-color="#808080" stop-opacity="0.12"/>
<stop offset="1" stop-color="#808080" stop-opacity="0.1"/>
</linearGradient>
</defs>
</svg>
