<svg width="930" height="576" viewBox="0 0 930 576" fill="none" xmlns="http://www.w3.org/2000/svg">
<path d="M92.2194 200.338C-10.285 200.197 -17.9402 133.416 23.6304 86.0636C69.7098 33.5688 171.637 0 171.637 0H930V576C930 576 917.83 508.117 791.4 507.09C743.898 506.701 739.739 442.551 700.959 444.35C665.977 445.975 607.297 476.69 538.594 456.69C512.589 449.15 501.184 390.741 460.351 386.753C429.488 383.725 411.957 338.884 366.917 339.448C289.056 340.387 179.97 385.887 144.921 361.046C77.6401 313.371 166.303 200.432 92.2194 200.338Z" fill="url(#paint0_radial)"/>
<defs>
<radialGradient id="paint0_radial" cx="0" cy="0" r="1" gradientUnits="userSpaceOnUse" gradientTransform="translate(715 56.5) rotate(115.291) scale(472.822 736.497)">
<stop offset="0.078125" stop-color="#EE4266"/>
<stop offset="1" stop-color="#5C184E"/>
</radialGradient>
</defs>
</svg>
