<svg width="519" height="392" viewBox="0 0 519 392" fill="none" xmlns="http://www.w3.org/2000/svg">
<g clip-path="url(#clip0)">
<path opacity="0.1" d="M487.956 212.786C469.71 237.732 475.732 273.341 486.278 301.71C489.811 311.206 493.824 321.251 491.992 331.583C489.755 344.214 479.241 353.678 468.312 358.833C448.388 368.227 424.853 366.727 407.031 354.89C391.651 344.674 380.825 327.696 365.147 317.968C338.908 301.691 304.844 308.963 275.642 321.39C254.982 330.181 232.35 341.502 212.217 333.385C198.049 327.673 188.509 313.134 183.489 297.591C181.066 290.086 179.369 281.941 174.541 276.067C171.67 272.575 167.877 270.141 163.976 268.107C128.374 249.532 82.5797 261.142 48.0639 240.417C24.7613 226.42 10.2578 199.259 4.23174 170.704C-1.79431 142.15 -0.302945 112.007 2.09722 82.3795C3.80297 61.3246 6.50141 38.8255 19.206 22.2797C32.6423 4.78654 55.1619 -2.1652 75.3 0.574633C95.4381 3.31446 113.493 14.4595 129.287 27.764C149.043 44.3608 167.219 65.1975 191.79 71.4991C208.526 75.7899 226.305 72.7529 243.703 71.4109C272.785 69.1726 301.764 71.7499 330.566 74.6615C358.138 77.4478 385.9 80.5591 412.013 89.6934C430.492 96.1576 445.14 108.375 462.538 116.725C473.877 122.167 486.353 123.43 497.026 130.461C510.196 139.122 522.099 154.465 518.236 172.877C514.586 190.38 497.65 199.547 487.956 212.786Z" fill="#BA1C51"/>
<g opacity="0.5">
<path opacity="0.5" d="M398.47 326.569C398.47 326.569 400.008 281.172 424.657 255.519C435.004 244.755 441.799 231.084 443.598 216.289C444.438 209.267 444.632 202.184 444.175 195.127" stroke="#535461" stroke-width="2" stroke-miterlimit="10"/>
<path opacity="0.5" d="M459.616 178.879C457.929 183.95 443.826 195.596 443.826 195.596C443.826 195.596 439.506 177.853 441.193 172.786C441.594 171.581 442.229 170.466 443.063 169.505C443.896 168.545 444.912 167.757 446.051 167.188C447.19 166.618 448.43 166.277 449.702 166.186C450.973 166.094 452.249 166.252 453.459 166.652C454.669 167.052 455.788 167.685 456.752 168.515C457.716 169.346 458.506 170.358 459.078 171.492C459.65 172.627 459.991 173.863 460.084 175.13C460.176 176.397 460.017 177.669 459.616 178.874V178.879Z" fill="#BA1C51"/>
<path opacity="0.5" d="M465.493 211.988C461.298 215.331 443.122 217.477 443.122 217.477C443.122 217.477 449.181 200.244 453.375 196.905C454.362 196.049 455.512 195.401 456.756 195C458 194.598 459.313 194.451 460.616 194.568C461.918 194.685 463.184 195.063 464.336 195.68C465.488 196.296 466.504 197.138 467.321 198.156C468.138 199.173 468.741 200.344 469.092 201.6C469.444 202.855 469.537 204.168 469.366 205.46C469.195 206.752 468.764 207.996 468.098 209.118C467.433 210.24 466.546 211.216 465.493 211.988Z" fill="#BA1C51"/>
<path opacity="0.5" d="M448.864 259.745C443.56 260.525 426.768 253.244 426.768 253.244C426.768 253.244 440.722 241.411 446.025 240.631C447.286 240.446 448.571 240.509 449.807 240.818C451.044 241.128 452.206 241.676 453.23 242.433C454.253 243.19 455.117 244.141 455.771 245.23C456.426 246.32 456.859 247.527 457.045 248.783C457.232 250.04 457.168 251.32 456.857 252.552C456.547 253.784 455.996 254.942 455.237 255.962C454.477 256.982 453.523 257.842 452.43 258.494C451.336 259.147 450.124 259.578 448.864 259.764V259.745Z" fill="#BA1C51"/>
<path opacity="0.5" d="M428.11 293.06C423.016 294.722 405.227 290.357 405.227 290.357C405.227 290.357 416.976 276.347 422.07 274.684C424.516 273.884 427.18 274.084 429.478 275.241C431.775 276.398 433.517 278.417 434.321 280.854C435.124 283.29 434.923 285.945 433.762 288.234C432.601 290.523 430.575 292.259 428.129 293.06H428.11Z" fill="#BA1C51"/>
<path opacity="0.5" d="M423.45 212.068C425.925 216.804 441.724 226.078 441.724 226.078C441.724 226.078 443.159 207.879 440.685 203.138C440.096 202.011 439.291 201.011 438.315 200.195C437.339 199.379 436.212 198.762 434.996 198.38C433.781 197.998 432.502 197.858 431.233 197.968C429.963 198.079 428.728 198.437 427.598 199.023C426.467 199.609 425.464 200.411 424.645 201.384C423.825 202.356 423.206 203.48 422.823 204.691C422.439 205.902 422.299 207.176 422.41 208.441C422.521 209.706 422.88 210.937 423.469 212.063L423.45 212.068Z" fill="#BA1C51"/>
<path opacity="0.5" d="M399.676 251.331C403.461 255.116 421.301 259.258 421.301 259.258C421.301 259.258 417.205 241.463 413.425 237.679C411.609 235.862 409.142 234.839 406.569 234.834C403.995 234.829 401.525 235.843 399.702 237.653C397.879 239.463 396.852 241.92 396.847 244.485C396.842 247.049 397.86 249.51 399.676 251.327V251.331Z" fill="#BA1C51"/>
<path opacity="0.5" d="M381.827 292.655C384.912 297.02 401.797 304.111 401.797 304.111C401.797 304.111 400.781 285.885 397.691 281.515C396.976 280.431 396.05 279.502 394.968 278.783C393.885 278.064 392.668 277.569 391.39 277.327C390.111 277.086 388.797 277.103 387.526 277.378C386.254 277.653 385.051 278.18 383.988 278.928C382.925 279.676 382.024 280.629 381.338 281.73C380.652 282.832 380.195 284.06 379.996 285.341C379.796 286.622 379.856 287.931 380.174 289.188C380.492 290.445 381.06 291.626 381.845 292.66L381.827 292.655Z" fill="#BA1C51"/>
<path opacity="0.5" d="M403.885 307.782C403.885 307.782 389.904 287.517 392.355 268.449C393.435 260.458 391.885 252.334 387.937 245.295C386.036 241.969 383.833 238.823 381.356 235.896" stroke="#535461" stroke-width="2" stroke-miterlimit="10"/>
<path opacity="0.5" d="M382.833 223.868C383.733 226.617 381.356 236.211 381.356 236.211C381.356 236.211 373.745 229.868 372.846 227.124C372.413 225.804 372.524 224.367 373.155 223.129C373.786 221.891 374.884 220.953 376.208 220.522C377.533 220.091 378.975 220.202 380.217 220.83C381.46 221.459 382.401 222.553 382.833 223.873V223.868Z" fill="#BA1C51"/>
<path opacity="0.5" d="M396.083 236.402C395.342 239.188 388.109 245.963 388.109 245.963C388.109 245.963 385.182 236.518 385.923 233.722C386.28 232.38 387.157 231.234 388.362 230.536C389.567 229.838 391.001 229.645 392.348 230C393.695 230.356 394.846 231.23 395.546 232.43C396.247 233.631 396.44 235.059 396.083 236.402Z" fill="#BA1C51"/>
<path opacity="0.5" d="M404.258 262.527C402.203 264.566 392.532 266.772 392.532 266.772C392.532 266.772 394.788 257.145 396.848 255.106C397.337 254.622 397.918 254.238 398.557 253.976C399.195 253.715 399.879 253.582 400.569 253.584C401.26 253.586 401.943 253.724 402.58 253.989C403.217 254.254 403.795 254.642 404.281 255.13C404.768 255.617 405.153 256.196 405.415 256.832C405.678 257.469 405.811 258.15 405.809 258.838C405.807 259.526 405.669 260.206 405.403 260.841C405.137 261.475 404.748 262.052 404.258 262.536V262.527Z" fill="#BA1C51"/>
<path opacity="0.5" d="M405.978 283.689C404.295 286.043 395.119 289.837 395.119 289.837C395.119 289.837 395.711 279.969 397.393 277.615C397.793 277.055 398.299 276.578 398.884 276.213C399.468 275.847 400.119 275.6 400.799 275.485C401.48 275.371 402.176 275.391 402.849 275.544C403.521 275.698 404.157 275.982 404.719 276.38C405.282 276.778 405.76 277.283 406.127 277.865C406.493 278.447 406.741 279.096 406.857 279.774C406.972 280.452 406.952 281.146 406.798 281.816C406.644 282.486 406.359 283.119 405.959 283.68L405.978 283.689Z" fill="#BA1C51"/>
<path opacity="0.5" d="M377.8 249.9C380.406 251.173 390.272 250.151 390.272 250.151C390.272 250.151 385.019 241.764 382.414 240.497C381.163 239.887 379.719 239.798 378.402 240.248C377.084 240.699 376 241.653 375.388 242.9C374.777 244.147 374.687 245.585 375.139 246.898C375.592 248.211 376.549 249.291 377.8 249.9Z" fill="#BA1C51"/>
<path opacity="0.5" d="M380.126 274.628C382.997 275.065 392.103 271.15 392.103 271.15C392.103 271.15 384.572 264.714 381.706 264.296C380.328 264.087 378.924 264.432 377.802 265.255C376.679 266.078 375.931 267.312 375.722 268.684C375.512 270.057 375.858 271.456 376.684 272.574C377.51 273.693 378.748 274.438 380.126 274.647V274.628Z" fill="#BA1C51"/>
<path opacity="0.5" d="M385.691 298.344C388.445 299.273 398.087 296.951 398.087 296.951C398.087 296.951 391.759 289.34 389.004 288.425C387.682 287.987 386.239 288.091 384.993 288.713C383.747 289.336 382.8 290.425 382.361 291.743C381.921 293.061 382.025 294.499 382.65 295.74C383.274 296.982 384.368 297.925 385.691 298.363V298.344Z" fill="#BA1C51"/>
<path opacity="0.5" d="M382.833 223.868C383.733 226.617 381.356 236.211 381.356 236.211C381.356 236.211 373.745 229.868 372.846 227.124C372.413 225.804 372.524 224.367 373.155 223.129C373.786 221.891 374.884 220.953 376.208 220.522C377.533 220.091 378.975 220.202 380.217 220.83C381.46 221.459 382.401 222.553 382.833 223.873V223.868Z" fill="white"/>
<path opacity="0.5" d="M396.083 236.402C395.342 239.188 388.109 245.963 388.109 245.963C388.109 245.963 385.182 236.518 385.923 233.722C386.28 232.38 387.157 231.234 388.362 230.536C389.567 229.838 391.001 229.645 392.348 230C393.695 230.356 394.846 231.23 395.546 232.43C396.247 233.631 396.44 235.059 396.083 236.402Z" fill="white"/>
<path opacity="0.5" d="M404.258 262.527C402.203 264.566 392.532 266.772 392.532 266.772C392.532 266.772 394.788 257.145 396.848 255.106C397.337 254.622 397.918 254.238 398.557 253.976C399.195 253.715 399.879 253.582 400.569 253.584C401.26 253.586 401.943 253.724 402.58 253.989C403.217 254.254 403.795 254.642 404.281 255.13C404.768 255.617 405.153 256.196 405.415 256.832C405.678 257.469 405.811 258.15 405.809 258.838C405.807 259.526 405.669 260.206 405.403 260.841C405.137 261.475 404.748 262.052 404.258 262.536V262.527Z" fill="white"/>
<path opacity="0.5" d="M405.978 283.689C404.295 286.043 395.119 289.837 395.119 289.837C395.119 289.837 395.711 279.969 397.393 277.615C397.793 277.055 398.299 276.578 398.884 276.213C399.468 275.847 400.119 275.6 400.799 275.485C401.48 275.371 402.176 275.391 402.849 275.544C403.521 275.698 404.157 275.982 404.719 276.38C405.282 276.778 405.76 277.283 406.127 277.865C406.493 278.447 406.741 279.096 406.857 279.774C406.972 280.452 406.952 281.146 406.798 281.816C406.644 282.486 406.359 283.119 405.959 283.68L405.978 283.689Z" fill="white"/>
<path opacity="0.5" d="M377.8 249.9C380.406 251.173 390.272 250.151 390.272 250.151C390.272 250.151 385.019 241.764 382.414 240.497C381.163 239.887 379.719 239.798 378.402 240.248C377.084 240.699 376 241.653 375.388 242.9C374.777 244.147 374.687 245.585 375.139 246.898C375.592 248.211 376.549 249.291 377.8 249.9Z" fill="white"/>
<path opacity="0.5" d="M380.126 274.628C382.997 275.065 392.103 271.15 392.103 271.15C392.103 271.15 384.572 264.714 381.706 264.296C380.328 264.087 378.924 264.432 377.802 265.255C376.679 266.078 375.931 267.312 375.722 268.684C375.512 270.057 375.858 271.456 376.684 272.574C377.51 273.693 378.748 274.438 380.126 274.647V274.628Z" fill="white"/>
<path opacity="0.5" d="M385.691 298.344C388.445 299.273 398.087 296.951 398.087 296.951C398.087 296.951 391.759 289.34 389.004 288.425C387.682 287.987 386.239 288.091 384.993 288.713C383.747 289.336 382.8 290.425 382.361 291.743C381.921 293.061 382.025 294.499 382.65 295.74C383.274 296.982 384.368 297.925 385.691 298.363V298.344Z" fill="white"/>
<path opacity="0.5" d="M378.015 362.73H417.783L427.728 302.301H368.074L378.015 362.73Z" fill="#474059"/>
<path opacity="0.1" d="M375.684 302.301L384.973 358.769H418.435L417.783 362.73H378.015L368.074 302.301H375.684Z" fill="black"/>
</g>
<path d="M385.555 18.2461H93.8069V368.991H385.555V18.2461Z" fill="url(#paint0_linear)"/>
<path d="M381.827 22.7305H97.5354V364.513H381.827V22.7305Z" fill="white"/>
<path d="M322.638 61.2754H207.99V66.8479H322.638V61.2754Z" fill="#C0BCCF"/>
<path d="M322.638 78.9219H207.99V84.4944H322.638V78.9219Z" fill="#C0BCCF"/>
<path d="M295.141 96.5664H235.487V102.139H295.141V96.5664Z" fill="#BA1C51"/>
<path opacity="0.5" d="M322.638 173.189H207.99V178.762H322.638V173.189Z" fill="#C0BCCF"/>
<path opacity="0.5" d="M322.638 190.836H207.99V196.408H322.638V190.836Z" fill="#C0BCCF"/>
<path opacity="0.5" d="M295.141 208.482H235.487V214.055H295.141V208.482Z" fill="#BA1C51"/>
<path opacity="0.5" d="M322.638 285.105H207.99V290.678H322.638V285.105Z" fill="#C0BCCF"/>
<path opacity="0.5" d="M322.638 302.752H207.99V308.324H322.638V302.752Z" fill="#C0BCCF"/>
<path opacity="0.5" d="M295.141 320.396H235.487V325.969H295.141V320.396Z" fill="#BA1C51"/>
<g opacity="0.5">
<path opacity="0.5" d="M167.625 204.271L165.22 203.194C165.257 202.83 165.272 202.464 165.267 202.098C165.283 201.789 165.283 201.479 165.267 201.169C165.029 198.727 163.468 196.6 162.363 194.366C161.352 192.327 160.71 190.126 160.466 187.865C160.173 185.078 160.466 182.19 159.441 179.571C158.607 177.458 156.957 175.693 155.191 174.133C153.208 172.279 150.891 170.815 148.363 169.819C145.781 168.89 142.812 168.653 140.23 169.601C137.9 170.455 136.106 172.159 134.372 173.817C133.113 174.922 132.001 176.183 131.063 177.569C130.005 179.297 129.553 181.284 129.199 183.244C128.642 186.382 128.26 189.547 128.052 192.727C127.871 195.378 127.586 198.388 125.312 200.013C124.203 200.807 122.642 201.253 122.134 202.455C121.99 202.817 121.932 203.206 121.966 203.593C121.952 203.915 121.975 204.238 122.036 204.554C122.068 204.74 122.106 204.921 122.152 205.107C121.499 206.724 120.952 208.38 120.512 210.067C120.171 211.32 119.859 212.551 119.58 213.745H120.335H120.735L125.079 213.847H125.14L129.8 213.953H129.823L134.167 214.056H134.274L135.528 214.144H135.938L153.308 214.543H153.401L154.557 214.571H154.962L158.439 214.65L163.566 214.766H163.603L167.462 214.859H167.872H168.664L168.459 210.828C169.307 204.657 167.625 204.271 167.625 204.271ZM148.111 203.779C148.111 207.197 144.439 211.381 144.439 211.381L140.743 206.366L140.878 206.17L144.439 211C144.439 211 148.111 206.821 148.111 203.398C148.197 203.224 148.295 203.057 148.405 202.897L148.489 203.157C148.348 203.355 148.222 203.563 148.111 203.779ZM153.76 217.19C153.76 217.018 153.76 216.842 153.727 216.67C153.695 216.498 153.699 216.345 153.676 216.178C153.653 216.011 153.634 215.848 153.611 215.681C153.587 215.514 153.555 215.351 153.522 215.184C153.49 215.017 153.457 214.854 153.42 214.687C153.42 214.631 153.396 214.58 153.382 214.52C153.331 214.302 153.275 214.083 153.215 213.865C153.154 213.647 153.117 213.512 153.061 213.34C153.061 213.262 153.014 213.183 152.986 213.108C152.958 213.034 152.907 212.858 152.865 212.732L152.781 212.491C152.744 212.384 152.707 212.272 152.665 212.166C152.595 211.971 152.52 211.78 152.446 211.585C152.371 211.39 152.292 211.2 152.213 211.009C152.054 210.619 151.882 210.234 151.709 209.844C151.033 208.339 150.274 206.858 149.575 205.39C149.2 204.622 148.867 203.835 148.577 203.031L148.489 203.147C148.348 203.347 148.221 203.556 148.111 203.774C148.111 207.192 144.439 211.376 144.439 211.376L140.743 206.361L137.509 211.005C137.043 211.237 136.576 212.026 136.213 213.15C136.11 213.452 136.013 213.786 135.919 214.135C135.854 214.371 135.794 214.599 135.738 214.864C135.705 214.989 135.677 215.114 135.649 215.244L135.565 215.639V215.7C135.509 215.969 135.453 216.247 135.402 216.531C135.351 216.814 135.29 217.139 135.239 217.46C135.202 217.661 135.169 217.86 135.141 218.059C135.076 218.444 135.02 218.834 134.964 219.224C134.931 219.452 134.899 219.689 134.871 219.898L134.759 220.761C134.997 221.472 135.262 222.154 135.537 222.87C135.712 223.245 135.815 223.65 135.84 224.063C141.573 225.586 147.607 225.586 153.34 224.063C153.339 224.049 153.339 224.035 153.34 224.021C153.254 223.633 153.217 223.235 153.229 222.837C153.323 221.721 153.478 220.611 153.695 219.512C153.763 218.97 153.793 218.424 153.783 217.877V217.682C153.769 217.506 153.764 217.348 153.76 217.195V217.19ZM153.76 217.19C153.76 217.018 153.76 216.842 153.727 216.67C153.695 216.498 153.699 216.345 153.676 216.178C153.653 216.011 153.634 215.848 153.611 215.681C153.587 215.514 153.555 215.351 153.522 215.184C153.49 215.017 153.457 214.854 153.42 214.687C153.42 214.631 153.396 214.58 153.382 214.52C153.331 214.302 153.275 214.083 153.215 213.865C153.154 213.647 153.117 213.512 153.061 213.34C153.061 213.262 153.014 213.183 152.986 213.108C152.958 213.034 152.907 212.858 152.865 212.732L152.781 212.491C152.744 212.384 152.707 212.272 152.665 212.166C152.595 211.971 152.52 211.78 152.446 211.585C152.371 211.39 152.292 211.2 152.213 211.009C152.054 210.619 151.882 210.234 151.709 209.844C151.033 208.339 150.274 206.858 149.575 205.39C149.2 204.622 148.867 203.835 148.577 203.031L148.489 203.147C148.348 203.347 148.221 203.556 148.111 203.774C148.111 207.192 144.439 211.376 144.439 211.376L140.743 206.361L137.509 211.005C137.043 211.237 136.576 212.026 136.213 213.15C136.11 213.452 136.013 213.786 135.919 214.135C135.854 214.371 135.794 214.599 135.738 214.864C135.705 214.989 135.677 215.114 135.649 215.244L135.565 215.639V215.7C135.509 215.969 135.453 216.247 135.402 216.531C135.351 216.814 135.29 217.139 135.239 217.46C135.202 217.661 135.169 217.86 135.141 218.059C135.076 218.444 135.02 218.834 134.964 219.224C134.931 219.452 134.899 219.689 134.871 219.898L134.759 220.761C134.997 221.472 135.262 222.154 135.537 222.87C135.712 223.245 135.815 223.65 135.84 224.063C141.573 225.586 147.607 225.586 153.34 224.063C153.339 224.049 153.339 224.035 153.34 224.021C153.254 223.633 153.217 223.235 153.229 222.837C153.323 221.721 153.478 220.611 153.695 219.512C153.763 218.97 153.793 218.424 153.783 217.877V217.682C153.769 217.506 153.764 217.348 153.76 217.195V217.19ZM153.76 217.19C153.76 217.018 153.76 216.842 153.727 216.67C153.695 216.498 153.699 216.345 153.676 216.178C153.653 216.011 153.634 215.848 153.611 215.681C153.587 215.514 153.555 215.351 153.522 215.184C153.49 215.017 153.457 214.854 153.42 214.687C153.42 214.631 153.396 214.58 153.382 214.52C153.331 214.302 153.275 214.083 153.215 213.865C153.154 213.647 153.117 213.512 153.061 213.34C153.061 213.262 153.014 213.183 152.986 213.108C152.958 213.034 152.907 212.858 152.865 212.732L152.781 212.491C152.744 212.384 152.707 212.272 152.665 212.166C152.595 211.971 152.52 211.78 152.446 211.585C152.371 211.39 152.292 211.2 152.213 211.009C152.054 210.619 151.882 210.234 151.709 209.844C151.033 208.339 150.274 206.858 149.575 205.39C149.2 204.622 148.867 203.835 148.577 203.031L148.489 203.147C148.348 203.347 148.221 203.556 148.111 203.774C148.111 207.192 144.439 211.376 144.439 211.376L140.743 206.361L137.509 211.005C137.043 211.237 136.576 212.026 136.213 213.15C136.11 213.452 136.013 213.786 135.919 214.135C135.854 214.371 135.794 214.599 135.738 214.864C135.705 214.989 135.677 215.114 135.649 215.244L135.565 215.639V215.7C135.509 215.969 135.453 216.247 135.402 216.531C135.351 216.814 135.29 217.139 135.239 217.46C135.202 217.661 135.169 217.86 135.141 218.059C135.076 218.444 135.02 218.834 134.964 219.224C134.931 219.452 134.899 219.689 134.871 219.898L134.759 220.761C134.997 221.472 135.262 222.154 135.537 222.87C135.712 223.245 135.815 223.65 135.84 224.063C141.573 225.586 147.607 225.586 153.34 224.063C153.339 224.049 153.339 224.035 153.34 224.021C153.254 223.633 153.217 223.235 153.229 222.837C153.323 221.721 153.478 220.611 153.695 219.512C153.763 218.97 153.793 218.424 153.783 217.877V217.682C153.769 217.506 153.764 217.348 153.76 217.195V217.19ZM153.76 217.19C153.76 217.018 153.76 216.842 153.727 216.67C153.695 216.498 153.699 216.345 153.676 216.178C153.653 216.011 153.634 215.848 153.611 215.681C153.587 215.514 153.555 215.351 153.522 215.184C153.49 215.017 153.457 214.854 153.42 214.687C153.42 214.631 153.396 214.58 153.382 214.52C153.331 214.302 153.275 214.083 153.215 213.865C153.154 213.647 153.117 213.512 153.061 213.34C153.061 213.262 153.014 213.183 152.986 213.108C152.958 213.034 152.907 212.858 152.865 212.732L152.781 212.491C152.744 212.384 152.707 212.272 152.665 212.166C152.595 211.971 152.52 211.78 152.446 211.585C152.371 211.39 152.292 211.2 152.213 211.009C152.054 210.619 151.882 210.234 151.709 209.844C151.033 208.339 150.274 206.858 149.575 205.39C149.2 204.622 148.867 203.835 148.577 203.031L148.489 203.147C148.348 203.347 148.221 203.556 148.111 203.774C148.111 207.192 144.439 211.376 144.439 211.376L140.743 206.361L137.509 211.005C137.043 211.237 136.576 212.026 136.213 213.15C136.11 213.452 136.013 213.786 135.919 214.135C135.854 214.371 135.794 214.599 135.738 214.864C135.705 214.989 135.677 215.114 135.649 215.244L135.565 215.639V215.7C135.509 215.969 135.453 216.247 135.402 216.531C135.351 216.814 135.29 217.139 135.239 217.46C135.202 217.661 135.169 217.86 135.141 218.059C135.076 218.444 135.02 218.834 134.964 219.224C134.931 219.452 134.899 219.689 134.871 219.898L134.759 220.761C134.997 221.472 135.262 222.154 135.537 222.87C135.712 223.245 135.815 223.65 135.84 224.063C141.573 225.586 147.607 225.586 153.34 224.063C153.339 224.049 153.339 224.035 153.34 224.021C153.254 223.633 153.217 223.235 153.229 222.837C153.323 221.721 153.478 220.611 153.695 219.512C153.763 218.97 153.793 218.424 153.783 217.877V217.682C153.769 217.506 153.764 217.348 153.76 217.195V217.19Z" fill="url(#paint1_linear)"/>
<path opacity="0.5" d="M153.928 184.801H132.489V199.197H153.928V184.801Z" fill="#493545"/>
<path opacity="0.5" d="M157.488 200.677L148.517 213.271L139.14 212.459C139.14 212.459 126.906 213.267 135.062 203.928C138.981 199.437 140.263 195.695 140.538 193.024C140.836 190.136 139.955 188.492 139.955 188.492L150.148 187.275C149.688 188.644 149.63 190.115 149.98 191.515C151.257 196.791 157.488 200.677 157.488 200.677Z" fill="#C77485"/>
<path opacity="0.1" d="M149.975 191.501C148.646 192.504 147.09 193.166 145.444 193.43C143.797 193.694 142.111 193.551 140.533 193.015C140.832 190.126 139.951 188.482 139.951 188.482L150.143 187.266C149.684 188.633 149.626 190.102 149.975 191.501Z" fill="black"/>
<path opacity="0.5" d="M143.828 193.154C149.457 193.154 154.021 188.607 154.021 182.998C154.021 177.389 149.457 172.842 143.828 172.842C138.199 172.842 133.636 177.389 133.636 182.998C133.636 188.607 138.199 193.154 143.828 193.154Z" fill="#C77485"/>
<path opacity="0.1" d="M157.115 201.197L156.878 200.268L156.673 199.451L156.37 198.243L156.314 198.02L156.267 197.834C156.267 197.834 156.51 197.105 154.911 197.342L154.613 197.393C154.361 197.444 154.067 197.514 153.732 197.607L153.429 197.7L153.028 197.825C151.759 198.237 150.602 198.933 149.645 199.859C149.215 200.269 148.835 200.727 148.512 201.224C148.479 201.271 148.456 201.313 148.428 201.35C148.318 201.522 148.22 201.702 148.135 201.888C148.135 205.548 144.462 210.015 144.462 210.015L140.878 204.856L140.808 204.754L139.955 203.518L139.652 203.119L139.55 202.98L137.686 200.486L137.22 199.864L137.066 199.655L136.838 199.353L136.302 198.642L134.204 199.864L131.408 201.489L129.777 212.054V212.346L129.828 213.219L130.168 218.959V219.038L129.572 221.416L129.66 221.462C131.068 222.219 132.533 222.864 134.041 223.394L134.437 223.533C134.903 223.686 135.341 223.826 135.798 223.96C135.815 224.029 135.828 224.099 135.836 224.169C135.836 224.104 135.836 224.035 135.836 223.97C141.554 225.598 147.617 225.598 153.336 223.97L153.443 223.937C153.709 223.863 153.979 223.784 154.24 223.696L154.664 223.561C155.814 223.178 156.941 222.728 158.038 222.214L158.43 213.902L158.709 207.907V207.563L157.115 201.197Z" fill="black"/>
<path opacity="0.5" d="M153.76 216.638C153.76 216.452 153.76 216.266 153.727 216.08C153.695 215.895 153.699 215.732 153.676 215.556C153.653 215.379 153.634 215.203 153.611 215.026C153.587 214.85 153.555 214.673 153.522 214.497C153.49 214.32 153.457 214.144 153.42 213.968C153.42 213.907 153.396 213.851 153.382 213.791C153.331 213.559 153.275 213.327 153.215 213.09C153.154 212.853 153.117 212.714 153.061 212.528C153.061 212.444 153.014 212.361 152.986 212.282C152.958 212.203 152.907 212.012 152.865 211.878L152.781 211.618C152.744 211.502 152.707 211.386 152.665 211.269C152.595 211.061 152.52 210.856 152.446 210.647C152.371 210.438 152.292 210.234 152.213 210.03C152.054 209.612 151.882 209.198 151.709 208.785C151.033 207.178 150.274 205.595 149.575 204.025C149.199 203.202 148.866 202.361 148.577 201.504L148.489 201.629C148.347 201.843 148.221 202.066 148.111 202.298C148.111 205.952 144.439 210.424 144.439 210.424L140.743 205.061L137.509 210.016C137.043 210.262 136.577 211.107 136.213 212.31C136.11 212.635 136.013 212.988 135.919 213.364C135.854 213.615 135.794 213.879 135.738 214.144C135.705 214.279 135.677 214.413 135.649 214.553L135.565 214.975V215.04C135.509 215.328 135.453 215.625 135.402 215.927C135.351 216.229 135.29 216.577 135.239 216.907C135.202 217.121 135.169 217.334 135.141 217.548C135.076 217.961 135.02 218.379 134.964 218.792C134.931 219.034 134.899 219.257 134.871 219.512L134.759 220.441C134.997 221.203 135.262 221.955 135.537 222.693C135.713 223.098 135.815 223.53 135.84 223.97C141.559 225.599 147.622 225.599 153.34 223.97C153.338 223.955 153.338 223.939 153.34 223.924C153.254 223.507 153.217 223.081 153.229 222.656C153.323 221.465 153.478 220.279 153.695 219.104C153.763 218.524 153.793 217.941 153.783 217.357V217.149C153.769 216.972 153.765 216.805 153.76 216.638ZM153.76 216.638C153.76 216.452 153.76 216.266 153.727 216.08C153.695 215.895 153.699 215.732 153.676 215.556C153.653 215.379 153.634 215.203 153.611 215.026C153.587 214.85 153.555 214.673 153.522 214.497C153.49 214.32 153.457 214.144 153.42 213.968C153.42 213.907 153.396 213.851 153.382 213.791C153.331 213.559 153.275 213.327 153.215 213.09C153.154 212.853 153.117 212.714 153.061 212.528C153.061 212.444 153.014 212.361 152.986 212.282C152.958 212.203 152.907 212.012 152.865 211.878L152.781 211.618C152.744 211.502 152.707 211.386 152.665 211.269C152.595 211.061 152.52 210.856 152.446 210.647C152.371 210.438 152.292 210.234 152.213 210.03C152.054 209.612 151.882 209.198 151.709 208.785C151.033 207.178 150.274 205.595 149.575 204.025C149.199 203.202 148.866 202.361 148.577 201.504L148.489 201.629C148.347 201.843 148.221 202.066 148.111 202.298C148.111 205.952 144.439 210.424 144.439 210.424L140.743 205.061L137.509 210.016C137.043 210.262 136.577 211.107 136.213 212.31C136.11 212.635 136.013 212.988 135.919 213.364C135.854 213.615 135.794 213.879 135.738 214.144C135.705 214.279 135.677 214.413 135.649 214.553L135.565 214.975V215.04C135.509 215.328 135.453 215.625 135.402 215.927C135.351 216.229 135.29 216.577 135.239 216.907C135.202 217.121 135.169 217.334 135.141 217.548C135.076 217.961 135.02 218.379 134.964 218.792C134.931 219.034 134.899 219.257 134.871 219.512L134.759 220.441C134.997 221.203 135.262 221.955 135.537 222.693C135.713 223.098 135.815 223.53 135.84 223.97C141.559 225.599 147.622 225.599 153.34 223.97C153.338 223.955 153.338 223.939 153.34 223.924C153.254 223.507 153.217 223.081 153.229 222.656C153.323 221.465 153.478 220.279 153.695 219.104C153.763 218.524 153.793 217.941 153.783 217.357V217.149C153.769 216.972 153.765 216.805 153.76 216.638ZM153.76 216.638C153.76 216.452 153.76 216.266 153.727 216.08C153.695 215.895 153.699 215.732 153.676 215.556C153.653 215.379 153.634 215.203 153.611 215.026C153.587 214.85 153.555 214.673 153.522 214.497C153.49 214.32 153.457 214.144 153.42 213.968C153.42 213.907 153.396 213.851 153.382 213.791C153.331 213.559 153.275 213.327 153.215 213.09C153.154 212.853 153.117 212.714 153.061 212.528C153.061 212.444 153.014 212.361 152.986 212.282C152.958 212.203 152.907 212.012 152.865 211.878L152.781 211.618C152.744 211.502 152.707 211.386 152.665 211.269C152.595 211.061 152.52 210.856 152.446 210.647C152.371 210.438 152.292 210.234 152.213 210.03C152.054 209.612 151.882 209.198 151.709 208.785C151.033 207.178 150.274 205.595 149.575 204.025C149.199 203.202 148.866 202.361 148.577 201.504L148.489 201.629C148.347 201.843 148.221 202.066 148.111 202.298C148.111 205.952 144.439 210.424 144.439 210.424L140.743 205.061L137.509 210.016C137.043 210.262 136.577 211.107 136.213 212.31C136.11 212.635 136.013 212.988 135.919 213.364C135.854 213.615 135.794 213.879 135.738 214.144C135.705 214.279 135.677 214.413 135.649 214.553L135.565 214.975V215.04C135.509 215.328 135.453 215.625 135.402 215.927C135.351 216.229 135.29 216.577 135.239 216.907C135.202 217.121 135.169 217.334 135.141 217.548C135.076 217.961 135.02 218.379 134.964 218.792C134.931 219.034 134.899 219.257 134.871 219.512L134.759 220.441C134.997 221.203 135.262 221.955 135.537 222.693C135.713 223.098 135.815 223.53 135.84 223.97C141.559 225.599 147.622 225.599 153.34 223.97C153.338 223.955 153.338 223.939 153.34 223.924C153.254 223.507 153.217 223.081 153.229 222.656C153.323 221.465 153.478 220.279 153.695 219.104C153.763 218.524 153.793 217.941 153.783 217.357V217.149C153.769 216.972 153.765 216.805 153.76 216.638ZM158.7 207.921L157.036 201.304L156.752 200.171L156.673 199.86L156.267 198.244C156.268 198.23 156.268 198.216 156.267 198.202C156.277 198.131 156.266 198.058 156.235 197.993C156.174 197.872 156.02 197.747 155.661 197.714C155.525 197.705 155.388 197.705 155.251 197.714C154.846 197.754 154.446 197.829 154.054 197.937C153.862 197.988 153.657 198.044 153.438 198.114L153.038 198.239H153C151.927 198.59 150.93 199.142 150.064 199.864C149.492 200.34 148.99 200.893 148.573 201.508L148.484 201.634C148.342 201.847 148.216 202.071 148.107 202.302C148.107 205.957 144.434 210.429 144.434 210.429L140.738 205.065L140.529 204.764L140.491 204.712L139.955 203.928L139.55 203.389L139.443 203.25L137.532 200.71L136.926 199.888V199.86L136.716 199.576L136.316 199.047L134.917 199.86L131.422 201.889L129.809 212.342V212.454L129.856 213.215L130.201 219.034V219.364L129.674 221.458C131.082 222.214 132.547 222.86 134.055 223.39L134.451 223.529C134.917 223.682 135.355 223.822 135.812 223.956C135.829 224.025 135.842 224.095 135.85 224.165C135.85 224.1 135.85 224.031 135.85 223.966C141.568 225.594 147.631 225.594 153.35 223.966L153.457 223.933C153.723 223.859 153.993 223.78 154.254 223.692L154.678 223.557C155.828 223.174 156.955 222.724 158.052 222.21L158.439 213.907L158.719 207.977L158.7 207.921ZM135.78 223.956C135.797 224.025 135.809 224.095 135.817 224.165C135.817 224.1 135.817 224.031 135.817 223.966L135.78 223.956ZM153.76 216.638C153.76 216.452 153.76 216.266 153.727 216.08C153.695 215.895 153.699 215.732 153.676 215.556C153.653 215.379 153.634 215.203 153.611 215.026C153.587 214.85 153.555 214.673 153.522 214.497C153.49 214.32 153.457 214.144 153.42 213.968C153.42 213.907 153.396 213.851 153.382 213.791C153.331 213.559 153.275 213.327 153.215 213.09C153.154 212.853 153.117 212.714 153.061 212.528C153.061 212.444 153.014 212.361 152.986 212.282C152.958 212.203 152.907 212.012 152.865 211.878L152.781 211.618C152.744 211.502 152.707 211.386 152.665 211.269C152.595 211.061 152.52 210.856 152.446 210.647C152.371 210.438 152.292 210.234 152.213 210.03C152.054 209.612 151.882 209.198 151.709 208.785C151.033 207.178 150.274 205.595 149.575 204.025C149.199 203.202 148.866 202.361 148.577 201.504L148.489 201.629C148.347 201.843 148.221 202.066 148.111 202.298C148.111 205.952 144.439 210.424 144.439 210.424L140.743 205.061L137.509 210.016C137.043 210.262 136.577 211.107 136.213 212.31C136.11 212.635 136.013 212.988 135.919 213.364C135.854 213.615 135.794 213.879 135.738 214.144C135.705 214.279 135.677 214.413 135.649 214.553L135.565 214.975V215.04C135.509 215.328 135.453 215.625 135.402 215.927C135.351 216.229 135.29 216.577 135.239 216.907C135.202 217.121 135.169 217.334 135.141 217.548C135.076 217.961 135.02 218.379 134.964 218.792C134.931 219.034 134.899 219.257 134.871 219.512L134.759 220.441C134.997 221.203 135.262 221.955 135.537 222.693C135.713 223.098 135.815 223.53 135.84 223.97C141.559 225.599 147.622 225.599 153.34 223.97C153.338 223.955 153.338 223.939 153.34 223.924C153.254 223.507 153.217 223.081 153.229 222.656C153.323 221.465 153.478 220.279 153.695 219.104C153.763 218.524 153.793 217.941 153.783 217.357V217.149C153.769 216.972 153.765 216.805 153.76 216.638ZM153.76 216.638C153.76 216.452 153.76 216.266 153.727 216.08C153.695 215.895 153.699 215.732 153.676 215.556C153.653 215.379 153.634 215.203 153.611 215.026C153.587 214.85 153.555 214.673 153.522 214.497C153.49 214.32 153.457 214.144 153.42 213.968C153.42 213.907 153.396 213.851 153.382 213.791C153.331 213.559 153.275 213.327 153.215 213.09C153.154 212.853 153.117 212.714 153.061 212.528C153.061 212.444 153.014 212.361 152.986 212.282C152.958 212.203 152.907 212.012 152.865 211.878L152.781 211.618C152.744 211.502 152.707 211.386 152.665 211.269C152.595 211.061 152.52 210.856 152.446 210.647C152.371 210.438 152.292 210.234 152.213 210.03C152.054 209.612 151.882 209.198 151.709 208.785C151.033 207.178 150.274 205.595 149.575 204.025C149.199 203.202 148.866 202.361 148.577 201.504L148.489 201.629C148.347 201.843 148.221 202.066 148.111 202.298C148.111 205.952 144.439 210.424 144.439 210.424L140.743 205.061L137.509 210.016C137.043 210.262 136.577 211.107 136.213 212.31C136.11 212.635 136.013 212.988 135.919 213.364C135.854 213.615 135.794 213.879 135.738 214.144C135.705 214.279 135.677 214.413 135.649 214.553L135.565 214.975V215.04C135.509 215.328 135.453 215.625 135.402 215.927C135.351 216.229 135.29 216.577 135.239 216.907C135.202 217.121 135.169 217.334 135.141 217.548C135.076 217.961 135.02 218.379 134.964 218.792C134.931 219.034 134.899 219.257 134.871 219.512L134.759 220.441C134.997 221.203 135.262 221.955 135.537 222.693C135.713 223.098 135.815 223.53 135.84 223.97C141.559 225.599 147.622 225.599 153.34 223.97C153.338 223.955 153.338 223.939 153.34 223.924C153.254 223.507 153.217 223.081 153.229 222.656C153.323 221.465 153.478 220.279 153.695 219.104C153.763 218.524 153.793 217.941 153.783 217.357V217.149C153.769 216.972 153.765 216.805 153.76 216.638ZM153.76 216.638C153.76 216.452 153.76 216.266 153.727 216.08C153.695 215.895 153.699 215.732 153.676 215.556C153.653 215.379 153.634 215.203 153.611 215.026C153.587 214.85 153.555 214.673 153.522 214.497C153.49 214.32 153.457 214.144 153.42 213.968C153.42 213.907 153.396 213.851 153.382 213.791C153.331 213.559 153.275 213.327 153.215 213.09C153.154 212.853 153.117 212.714 153.061 212.528C153.061 212.444 153.014 212.361 152.986 212.282C152.958 212.203 152.907 212.012 152.865 211.878L152.781 211.618C152.744 211.502 152.707 211.386 152.665 211.269C152.595 211.061 152.52 210.856 152.446 210.647C152.371 210.438 152.292 210.234 152.213 210.03C152.054 209.612 151.882 209.198 151.709 208.785C151.033 207.178 150.274 205.595 149.575 204.025C149.199 203.202 148.866 202.361 148.577 201.504L148.489 201.629C148.347 201.843 148.221 202.066 148.111 202.298C148.111 205.952 144.439 210.424 144.439 210.424L140.743 205.061L137.509 210.016C137.043 210.262 136.577 211.107 136.213 212.31C136.11 212.635 136.013 212.988 135.919 213.364C135.854 213.615 135.794 213.879 135.738 214.144C135.705 214.279 135.677 214.413 135.649 214.553L135.565 214.975V215.04C135.509 215.328 135.453 215.625 135.402 215.927C135.351 216.229 135.29 216.577 135.239 216.907C135.202 217.121 135.169 217.334 135.141 217.548C135.076 217.961 135.02 218.379 134.964 218.792C134.931 219.034 134.899 219.257 134.871 219.512L134.759 220.441C134.997 221.203 135.262 221.955 135.537 222.693C135.713 223.098 135.815 223.53 135.84 223.97C141.559 225.599 147.622 225.599 153.34 223.97C153.338 223.955 153.338 223.939 153.34 223.924C153.254 223.507 153.217 223.081 153.229 222.656C153.323 221.465 153.478 220.279 153.695 219.104C153.763 218.524 153.793 217.941 153.783 217.357V217.149C153.769 216.972 153.765 216.805 153.76 216.638ZM153.76 216.638C153.76 216.452 153.76 216.266 153.727 216.08C153.695 215.895 153.699 215.732 153.676 215.556C153.653 215.379 153.634 215.203 153.611 215.026C153.587 214.85 153.555 214.673 153.522 214.497C153.49 214.32 153.457 214.144 153.42 213.968C153.42 213.907 153.396 213.851 153.382 213.791C153.331 213.559 153.275 213.327 153.215 213.09C153.154 212.853 153.117 212.714 153.061 212.528C153.061 212.444 153.014 212.361 152.986 212.282C152.958 212.203 152.907 212.012 152.865 211.878L152.781 211.618C152.744 211.502 152.707 211.386 152.665 211.269C152.595 211.061 152.52 210.856 152.446 210.647C152.371 210.438 152.292 210.234 152.213 210.03C152.054 209.612 151.882 209.198 151.709 208.785C151.033 207.178 150.274 205.595 149.575 204.025C149.199 203.202 148.866 202.361 148.577 201.504L148.489 201.629C148.347 201.843 148.221 202.066 148.111 202.298C148.111 205.952 144.439 210.424 144.439 210.424L140.743 205.061L137.509 210.016C137.043 210.262 136.577 211.107 136.213 212.31C136.11 212.635 136.013 212.988 135.919 213.364C135.854 213.615 135.794 213.879 135.738 214.144C135.705 214.279 135.677 214.413 135.649 214.553L135.565 214.975V215.04C135.509 215.328 135.453 215.625 135.402 215.927C135.351 216.229 135.29 216.577 135.239 216.907C135.202 217.121 135.169 217.334 135.141 217.548C135.076 217.961 135.02 218.379 134.964 218.792C134.931 219.034 134.899 219.257 134.871 219.512L134.759 220.441C134.997 221.203 135.262 221.955 135.537 222.693C135.713 223.098 135.815 223.53 135.84 223.97C141.559 225.599 147.622 225.599 153.34 223.97C153.338 223.955 153.338 223.939 153.34 223.924C153.254 223.507 153.217 223.081 153.229 222.656C153.323 221.465 153.478 220.279 153.695 219.104C153.763 218.524 153.793 217.941 153.783 217.357V217.149C153.769 216.972 153.765 216.805 153.76 216.638ZM153.76 216.638C153.76 216.452 153.76 216.266 153.727 216.08C153.695 215.895 153.699 215.732 153.676 215.556C153.653 215.379 153.634 215.203 153.611 215.026C153.587 214.85 153.555 214.673 153.522 214.497C153.49 214.32 153.457 214.144 153.42 213.968C153.42 213.907 153.396 213.851 153.382 213.791C153.331 213.559 153.275 213.327 153.215 213.09C153.154 212.853 153.117 212.714 153.061 212.528C153.061 212.444 153.014 212.361 152.986 212.282C152.958 212.203 152.907 212.012 152.865 211.878L152.781 211.618C152.744 211.502 152.707 211.386 152.665 211.269C152.595 211.061 152.52 210.856 152.446 210.647C152.371 210.438 152.292 210.234 152.213 210.03C152.054 209.612 151.882 209.198 151.709 208.785C151.033 207.178 150.274 205.595 149.575 204.025C149.199 203.202 148.866 202.361 148.577 201.504L148.489 201.629C148.347 201.843 148.221 202.066 148.111 202.298C148.111 205.952 144.439 210.424 144.439 210.424L140.743 205.061L137.509 210.016C137.043 210.262 136.577 211.107 136.213 212.31C136.11 212.635 136.013 212.988 135.919 213.364C135.854 213.615 135.794 213.879 135.738 214.144C135.705 214.279 135.677 214.413 135.649 214.553L135.565 214.975V215.04C135.509 215.328 135.453 215.625 135.402 215.927C135.351 216.229 135.29 216.577 135.239 216.907C135.202 217.121 135.169 217.334 135.141 217.548C135.076 217.961 135.02 218.379 134.964 218.792C134.931 219.034 134.899 219.257 134.871 219.512L134.759 220.441C134.997 221.203 135.262 221.955 135.537 222.693C135.713 223.098 135.815 223.53 135.84 223.97C141.559 225.599 147.622 225.599 153.34 223.97C153.338 223.955 153.338 223.939 153.34 223.924C153.254 223.507 153.217 223.081 153.229 222.656C153.323 221.465 153.478 220.279 153.695 219.104C153.763 218.524 153.793 217.941 153.783 217.357V217.149C153.769 216.972 153.765 216.805 153.76 216.638ZM153.76 216.638C153.76 216.452 153.76 216.266 153.727 216.08C153.695 215.895 153.699 215.732 153.676 215.556C153.653 215.379 153.634 215.203 153.611 215.026C153.587 214.85 153.555 214.673 153.522 214.497C153.49 214.32 153.457 214.144 153.42 213.968C153.42 213.907 153.396 213.851 153.382 213.791C153.331 213.559 153.275 213.327 153.215 213.09C153.154 212.853 153.117 212.714 153.061 212.528C153.061 212.444 153.014 212.361 152.986 212.282C152.958 212.203 152.907 212.012 152.865 211.878L152.781 211.618C152.744 211.502 152.707 211.386 152.665 211.269C152.595 211.061 152.52 210.856 152.446 210.647C152.371 210.438 152.292 210.234 152.213 210.03C152.054 209.612 151.882 209.198 151.709 208.785C151.033 207.178 150.274 205.595 149.575 204.025C149.199 203.202 148.866 202.361 148.577 201.504L148.489 201.629C148.347 201.843 148.221 202.066 148.111 202.298C148.111 205.952 144.439 210.424 144.439 210.424L140.743 205.061L137.509 210.016C137.043 210.262 136.577 211.107 136.213 212.31C136.11 212.635 136.013 212.988 135.919 213.364C135.854 213.615 135.794 213.879 135.738 214.144C135.705 214.279 135.677 214.413 135.649 214.553L135.565 214.975V215.04C135.509 215.328 135.453 215.625 135.402 215.927C135.351 216.229 135.29 216.577 135.239 216.907C135.202 217.121 135.169 217.334 135.141 217.548C135.076 217.961 135.02 218.379 134.964 218.792C134.931 219.034 134.899 219.257 134.871 219.512L134.759 220.441C134.997 221.203 135.262 221.955 135.537 222.693C135.713 223.098 135.815 223.53 135.84 223.97C141.559 225.599 147.622 225.599 153.34 223.97C153.338 223.955 153.338 223.939 153.34 223.924C153.254 223.507 153.217 223.081 153.229 222.656C153.323 221.465 153.478 220.279 153.695 219.104C153.763 218.524 153.793 217.941 153.783 217.357V217.149C153.769 216.972 153.765 216.805 153.76 216.638ZM153.76 216.638C153.76 216.452 153.76 216.266 153.727 216.08C153.695 215.895 153.699 215.732 153.676 215.556C153.653 215.379 153.634 215.203 153.611 215.026C153.587 214.85 153.555 214.673 153.522 214.497C153.49 214.32 153.457 214.144 153.42 213.968C153.42 213.907 153.396 213.851 153.382 213.791C153.331 213.559 153.275 213.327 153.215 213.09C153.154 212.853 153.117 212.714 153.061 212.528C153.061 212.444 153.014 212.361 152.986 212.282C152.958 212.203 152.907 212.012 152.865 211.878L152.781 211.618C152.744 211.502 152.707 211.386 152.665 211.269C152.595 211.061 152.52 210.856 152.446 210.647C152.371 210.438 152.292 210.234 152.213 210.03C152.054 209.612 151.882 209.198 151.709 208.785C151.033 207.178 150.274 205.595 149.575 204.025C149.199 203.202 148.866 202.361 148.577 201.504L148.489 201.629C148.347 201.843 148.221 202.066 148.111 202.298C148.111 205.952 144.439 210.424 144.439 210.424L140.743 205.061L137.509 210.016C137.043 210.262 136.577 211.107 136.213 212.31C136.11 212.635 136.013 212.988 135.919 213.364C135.854 213.615 135.794 213.879 135.738 214.144C135.705 214.279 135.677 214.413 135.649 214.553L135.565 214.975V215.04C135.509 215.328 135.453 215.625 135.402 215.927C135.351 216.229 135.29 216.577 135.239 216.907C135.202 217.121 135.169 217.334 135.141 217.548C135.076 217.961 135.02 218.379 134.964 218.792C134.931 219.034 134.899 219.257 134.871 219.512L134.759 220.441C134.997 221.203 135.262 221.955 135.537 222.693C135.713 223.098 135.815 223.53 135.84 223.97C141.559 225.599 147.622 225.599 153.34 223.97C153.338 223.955 153.338 223.939 153.34 223.924C153.254 223.507 153.217 223.081 153.229 222.656C153.323 221.465 153.478 220.279 153.695 219.104C153.763 218.524 153.793 217.941 153.783 217.357V217.149C153.769 216.972 153.765 216.805 153.76 216.638ZM153.76 216.638C153.76 216.452 153.76 216.266 153.727 216.08C153.695 215.895 153.699 215.732 153.676 215.556C153.653 215.379 153.634 215.203 153.611 215.026C153.587 214.85 153.555 214.673 153.522 214.497C153.49 214.32 153.457 214.144 153.42 213.968C153.42 213.907 153.396 213.851 153.382 213.791C153.331 213.559 153.275 213.327 153.215 213.09C153.154 212.853 153.117 212.714 153.061 212.528C153.061 212.444 153.014 212.361 152.986 212.282C152.958 212.203 152.907 212.012 152.865 211.878L152.781 211.618C152.744 211.502 152.707 211.386 152.665 211.269C152.595 211.061 152.52 210.856 152.446 210.647C152.371 210.438 152.292 210.234 152.213 210.03C152.054 209.612 151.882 209.198 151.709 208.785C151.033 207.178 150.274 205.595 149.575 204.025C149.199 203.202 148.866 202.361 148.577 201.504L148.489 201.629C148.347 201.843 148.221 202.066 148.111 202.298C148.111 205.952 144.439 210.424 144.439 210.424L140.743 205.061L137.509 210.016C137.043 210.262 136.577 211.107 136.213 212.31C136.11 212.635 136.013 212.988 135.919 213.364C135.854 213.615 135.794 213.879 135.738 214.144C135.705 214.279 135.677 214.413 135.649 214.553L135.565 214.975V215.04C135.509 215.328 135.453 215.625 135.402 215.927C135.351 216.229 135.29 216.577 135.239 216.907C135.202 217.121 135.169 217.334 135.141 217.548C135.076 217.961 135.02 218.379 134.964 218.792C134.931 219.034 134.899 219.257 134.871 219.512L134.759 220.441C134.997 221.203 135.262 221.955 135.537 222.693C135.713 223.098 135.815 223.53 135.84 223.97C141.559 225.599 147.622 225.599 153.34 223.97C153.338 223.955 153.338 223.939 153.34 223.924C153.254 223.507 153.217 223.081 153.229 222.656C153.323 221.465 153.478 220.279 153.695 219.104C153.763 218.524 153.793 217.941 153.783 217.357V217.149C153.769 216.972 153.765 216.805 153.76 216.638Z" fill="white"/>
<path opacity="0.1" d="M140.808 204.75L140.496 204.708C140.024 204.645 139.558 204.552 139.098 204.43L138.925 204.383C137.788 204.063 136.544 203.487 136.264 202.475C136.181 202.149 136.191 201.806 136.292 201.485C136.449 200.933 136.661 200.398 136.926 199.888V199.86C136.961 199.788 137 199.719 137.042 199.651C137.427 198.902 138.009 198.271 138.725 197.826L138.166 197.914L133.431 198.681L126.09 199.86C126.09 199.86 124.785 199.6 123.01 204.476C123.01 204.536 122.968 204.592 122.949 204.657C122.52 205.851 122.068 207.341 121.602 209.203C121.281 210.494 120.987 211.762 120.717 212.993C120.637 213.364 120.558 213.731 120.484 214.093C121.324 215.08 122.228 216.011 123.191 216.88L123.345 217.024C125.231 218.725 127.315 220.196 129.553 221.403L129.642 221.449C131.049 222.206 132.514 222.852 134.022 223.381L134.419 223.52C134.503 222.661 134.596 221.709 134.708 220.734C134.708 220.636 134.708 220.539 134.745 220.441L134.857 219.513C134.885 219.276 134.917 219.048 134.95 218.793C135.006 218.38 135.062 217.962 135.127 217.548C135.155 217.335 135.188 217.121 135.225 216.907C135.276 216.578 135.332 216.248 135.388 215.928C135.444 215.607 135.495 215.329 135.551 215.041V214.976L135.635 214.553C135.663 214.414 135.691 214.279 135.724 214.144C135.78 213.88 135.84 213.615 135.905 213.364C135.999 212.988 136.096 212.635 136.199 212.31C136.572 211.107 137.005 210.262 137.495 210.016L140.729 205.061L140.864 204.852L140.925 204.759L140.808 204.75Z" fill="black"/>
<path opacity="0.1" d="M134.922 171.859C134.456 172.499 134.493 173.382 134.284 174.18C133.785 175.996 131.809 177.134 131.357 178.964C131.091 180.032 131.399 181.165 131.217 182.251C130.886 184.253 129.05 185.609 128.024 187.359C127.505 188.261 127.197 189.269 127.123 190.306C127.05 191.344 127.213 192.384 127.6 193.35C127.84 193.837 128.038 194.343 128.192 194.864C128.31 195.639 128.261 196.431 128.048 197.186C127.698 198.839 127.339 200.659 128.141 202.15C128.817 203.408 130.22 204.147 131.632 204.379C133.058 204.54 134.5 204.474 135.905 204.184C137.448 203.947 139.028 203.673 140.37 202.884L135.323 190.745C134.815 189.519 134.293 188.251 134.298 186.923C134.339 185.943 134.552 184.978 134.927 184.072C135.904 181.445 137.322 179.003 139.121 176.851C139.853 177.696 139.797 178.982 140.407 179.92C140.947 180.614 141.665 181.148 142.486 181.467C144.878 182.629 147.335 183.652 149.845 184.531C150.003 184.551 150.153 184.609 150.282 184.701C150.412 184.792 150.517 184.914 150.588 185.055C150.659 185.197 150.694 185.354 150.689 185.512C150.685 185.67 150.641 185.824 150.563 185.962L148.661 193.782C148.242 195.505 147.874 197.497 148.95 198.89C150.027 200.283 152.455 200.943 152.469 202.74C152.449 203.024 152.449 203.31 152.469 203.594C152.595 204.435 153.597 204.839 154.45 204.88C155.85 204.908 157.214 204.439 158.299 203.557C159.384 202.675 160.119 201.437 160.373 200.065C160.839 196.991 158.798 194.158 157.945 191.163C156.51 186.124 158.411 180.213 155.591 175.787C153.308 172.198 149.146 171.222 145.194 170.777C142.421 170.451 136.875 169.291 134.922 171.859Z" fill="black"/>
<path opacity="0.5" d="M134.922 171.394C134.456 172.035 134.493 172.917 134.284 173.716C133.785 175.531 131.809 176.669 131.357 178.499C131.091 179.567 131.399 180.7 131.217 181.786C130.886 183.788 129.05 185.144 128.024 186.895C127.505 187.797 127.197 188.804 127.123 189.841C127.05 190.879 127.213 191.919 127.6 192.885C127.84 193.372 128.038 193.879 128.192 194.399C128.31 195.174 128.261 195.966 128.048 196.721C127.698 198.374 127.339 200.194 128.141 201.685C128.817 202.944 130.22 203.682 131.632 203.914C133.058 204.075 134.5 204.009 135.905 203.719C137.448 203.482 139.028 203.208 140.37 202.419L135.323 190.28C134.815 189.054 134.293 187.786 134.298 186.458C134.339 185.478 134.552 184.513 134.927 183.607C135.904 180.98 137.322 178.538 139.121 176.386C139.853 177.231 139.797 178.517 140.407 179.455C140.947 180.149 141.665 180.683 142.486 181.002C144.878 182.164 147.335 183.187 149.845 184.067C150.003 184.086 150.153 184.144 150.282 184.236C150.412 184.327 150.517 184.449 150.588 184.59C150.659 184.732 150.694 184.889 150.689 185.047C150.685 185.205 150.641 185.359 150.563 185.497L148.661 193.317C148.242 195.04 147.874 197.032 148.95 198.425C150.027 199.818 152.455 200.478 152.469 202.275C152.449 202.559 152.449 202.845 152.469 203.129C152.595 203.97 153.597 204.374 154.45 204.416C155.85 204.443 157.214 203.974 158.299 203.092C159.384 202.21 160.119 200.972 160.373 199.6C160.839 196.526 158.798 193.693 157.945 190.698C156.51 185.659 158.411 179.748 155.591 175.322C153.308 171.733 149.146 170.757 145.194 170.312C142.421 169.987 136.875 168.826 134.922 171.394Z" fill="#493545"/>
</g>
<g opacity="0.5">
<path opacity="0.5" d="M132.056 295.776C132.098 297.331 131.035 298.659 130.192 299.955C129.348 301.251 128.723 303.02 129.59 304.316C129.875 304.743 130.303 305.072 130.56 305.518C131.459 307.074 129.963 308.862 129.418 310.571C128.789 312.544 129.52 314.75 130.844 316.352C132.168 317.954 133.995 319.036 135.84 319.988C139.721 322.049 143.885 323.526 148.2 324.372C150.455 324.785 152.86 324.971 154.976 324.07C156.444 323.399 157.643 322.256 158.381 320.824C159.119 319.393 159.353 317.756 159.045 316.176C158.509 313.733 156.715 311.769 155.782 309.461C155.565 309.008 155.459 308.509 155.475 308.007C155.554 307.13 156.23 306.442 156.756 305.732C158.077 303.797 158.616 301.437 158.267 299.124C157.899 296.81 157.009 294.61 155.666 292.688C155.186 291.891 154.552 291.196 153.802 290.644C152.786 289.962 151.527 289.767 150.316 289.595C145.254 288.889 140.011 288.118 134.908 287.858C133.295 287.774 132.112 288.09 131.315 289.595C130.098 291.838 131.995 293.523 132.056 295.776Z" fill="#444176"/>
<path opacity="0.5" d="M158.122 311.569L148.517 325.18L139.14 324.368C139.14 324.368 138.832 327.618 135.062 315.837C132.955 309.247 137.238 311.537 138.082 309.712C138.926 307.887 140.412 306.275 140.538 304.929C140.836 302.04 139.955 300.396 139.955 300.396L150.148 299.18C149.688 300.548 149.63 302.019 149.98 303.419C151.257 308.704 158.122 311.569 158.122 311.569Z" fill="#C77485"/>
<path opacity="0.5" d="M143.674 299.965C150.367 299.965 155.792 295.703 155.792 290.446C155.792 285.188 150.367 280.926 143.674 280.926C136.982 280.926 131.557 285.188 131.557 290.446C131.557 295.703 136.982 299.965 143.674 299.965Z" fill="#444176"/>
<path opacity="0.1" d="M149.975 303.415C148.646 304.418 147.09 305.08 145.444 305.344C143.797 305.608 142.111 305.466 140.533 304.929C140.832 302.04 139.951 300.396 139.951 300.396L150.143 299.18C149.684 300.547 149.626 302.016 149.975 303.415Z" fill="black"/>
<path opacity="0.5" d="M143.828 305.068C149.457 305.068 154.021 300.521 154.021 294.912C154.021 289.303 149.457 284.756 143.828 284.756C138.199 284.756 133.636 289.303 133.636 294.912C133.636 300.521 138.199 305.068 143.828 305.068Z" fill="#C77485"/>
<path opacity="0.1" d="M157.115 313.111L156.878 312.182L156.673 311.365L156.37 310.157L156.314 309.934L156.267 309.749C156.267 309.749 156.51 309.019 154.911 309.256L154.613 309.307C154.361 309.358 154.067 309.428 153.732 309.521L153.429 309.614L153.028 309.739C151.759 310.151 150.602 310.847 149.645 311.773C149.215 312.183 148.835 312.641 148.512 313.139C148.479 313.185 148.456 313.227 148.428 313.264C148.318 313.436 148.22 313.616 148.135 313.803C148.135 317.462 144.462 321.929 144.462 321.929L140.878 316.77L140.808 316.668L139.955 315.433L139.652 315.033L139.55 314.894L137.686 312.4L137.22 311.778L137.066 311.569L136.838 311.267L136.302 310.557L134.204 311.778L131.408 313.403L129.777 323.968V324.26L129.828 325.133L130.168 330.873V330.952L129.572 333.33L129.66 333.376C131.068 334.133 132.533 334.779 134.041 335.308L134.437 335.447C134.903 335.6 135.341 335.74 135.798 335.874C135.815 335.943 135.828 336.013 135.836 336.083C135.836 336.018 135.836 335.949 135.836 335.884C141.554 337.512 147.617 337.512 153.336 335.884L153.443 335.851C153.709 335.777 153.979 335.698 154.24 335.61L154.664 335.475C155.814 335.092 156.941 334.642 158.038 334.128L158.43 325.816L158.709 319.821V319.477L157.115 313.111Z" fill="black"/>
<path opacity="0.5" d="M153.76 328.552C153.76 328.366 153.76 328.18 153.727 327.994C153.695 327.809 153.699 327.646 153.676 327.47C153.653 327.293 153.634 327.117 153.611 326.94C153.587 326.764 153.555 326.587 153.522 326.411C153.49 326.234 153.457 326.058 153.42 325.882C153.42 325.821 153.396 325.765 153.382 325.705C153.331 325.473 153.275 325.241 153.215 325.004C153.154 324.767 153.117 324.628 153.061 324.442C153.061 324.358 153.014 324.275 152.986 324.196C152.958 324.117 152.907 323.926 152.865 323.792L152.781 323.532C152.744 323.416 152.707 323.3 152.665 323.183C152.595 322.975 152.52 322.77 152.446 322.561C152.371 322.352 152.292 322.148 152.213 321.944C152.054 321.526 151.882 321.112 151.709 320.699C151.034 319.092 150.274 317.509 149.575 315.939C149.199 315.116 148.866 314.275 148.577 313.418L148.489 313.543C148.347 313.757 148.221 313.98 148.111 314.212C148.111 317.866 144.439 322.338 144.439 322.338L140.743 316.975L137.509 321.93C137.043 322.176 136.577 323.021 136.213 324.224C136.111 324.549 136.013 324.902 135.919 325.278C135.854 325.529 135.794 325.793 135.738 326.058C135.705 326.193 135.677 326.327 135.649 326.467L135.565 326.889V326.954C135.509 327.242 135.453 327.539 135.402 327.841C135.351 328.143 135.29 328.491 135.239 328.821C135.202 329.035 135.169 329.248 135.141 329.462C135.076 329.875 135.02 330.293 134.964 330.706C134.931 330.948 134.899 331.171 134.871 331.426L134.759 332.355C134.997 333.117 135.262 333.869 135.537 334.607C135.713 335.012 135.815 335.444 135.84 335.884C141.559 337.513 147.622 337.513 153.34 335.884C153.338 335.869 153.338 335.853 153.34 335.838C153.254 335.421 153.217 334.995 153.229 334.57C153.323 333.379 153.478 332.193 153.695 331.018C153.763 330.438 153.793 329.855 153.783 329.271V329.062C153.769 328.886 153.765 328.719 153.76 328.552ZM153.76 328.552C153.76 328.366 153.76 328.18 153.727 327.994C153.695 327.809 153.699 327.646 153.676 327.47C153.653 327.293 153.634 327.117 153.611 326.94C153.587 326.764 153.555 326.587 153.522 326.411C153.49 326.234 153.457 326.058 153.42 325.882C153.42 325.821 153.396 325.765 153.382 325.705C153.331 325.473 153.275 325.241 153.215 325.004C153.154 324.767 153.117 324.628 153.061 324.442C153.061 324.358 153.014 324.275 152.986 324.196C152.958 324.117 152.907 323.926 152.865 323.792L152.781 323.532C152.744 323.416 152.707 323.3 152.665 323.183C152.595 322.975 152.52 322.77 152.446 322.561C152.371 322.352 152.292 322.148 152.213 321.944C152.054 321.526 151.882 321.112 151.709 320.699C151.034 319.092 150.274 317.509 149.575 315.939C149.199 315.116 148.866 314.275 148.577 313.418L148.489 313.543C148.347 313.757 148.221 313.98 148.111 314.212C148.111 317.866 144.439 322.338 144.439 322.338L140.743 316.975L137.509 321.93C137.043 322.176 136.577 323.021 136.213 324.224C136.111 324.549 136.013 324.902 135.919 325.278C135.854 325.529 135.794 325.793 135.738 326.058C135.705 326.193 135.677 326.327 135.649 326.467L135.565 326.889V326.954C135.509 327.242 135.453 327.539 135.402 327.841C135.351 328.143 135.29 328.491 135.239 328.821C135.202 329.035 135.169 329.248 135.141 329.462C135.076 329.875 135.02 330.293 134.964 330.706C134.931 330.948 134.899 331.171 134.871 331.426L134.759 332.355C134.997 333.117 135.262 333.869 135.537 334.607C135.713 335.012 135.815 335.444 135.84 335.884C141.559 337.513 147.622 337.513 153.34 335.884C153.338 335.869 153.338 335.853 153.34 335.838C153.254 335.421 153.217 334.995 153.229 334.57C153.323 333.379 153.478 332.193 153.695 331.018C153.763 330.438 153.793 329.855 153.783 329.271V329.062C153.769 328.886 153.765 328.719 153.76 328.552ZM153.76 328.552C153.76 328.366 153.76 328.18 153.727 327.994C153.695 327.809 153.699 327.646 153.676 327.47C153.653 327.293 153.634 327.117 153.611 326.94C153.587 326.764 153.555 326.587 153.522 326.411C153.49 326.234 153.457 326.058 153.42 325.882C153.42 325.821 153.396 325.765 153.382 325.705C153.331 325.473 153.275 325.241 153.215 325.004C153.154 324.767 153.117 324.628 153.061 324.442C153.061 324.358 153.014 324.275 152.986 324.196C152.958 324.117 152.907 323.926 152.865 323.792L152.781 323.532C152.744 323.416 152.707 323.3 152.665 323.183C152.595 322.975 152.52 322.77 152.446 322.561C152.371 322.352 152.292 322.148 152.213 321.944C152.054 321.526 151.882 321.112 151.709 320.699C151.034 319.092 150.274 317.509 149.575 315.939C149.199 315.116 148.866 314.275 148.577 313.418L148.489 313.543C148.347 313.757 148.221 313.98 148.111 314.212C148.111 317.866 144.439 322.338 144.439 322.338L140.743 316.975L137.509 321.93C137.043 322.176 136.577 323.021 136.213 324.224C136.111 324.549 136.013 324.902 135.919 325.278C135.854 325.529 135.794 325.793 135.738 326.058C135.705 326.193 135.677 326.327 135.649 326.467L135.565 326.889V326.954C135.509 327.242 135.453 327.539 135.402 327.841C135.351 328.143 135.29 328.491 135.239 328.821C135.202 329.035 135.169 329.248 135.141 329.462C135.076 329.875 135.02 330.293 134.964 330.706C134.931 330.948 134.899 331.171 134.871 331.426L134.759 332.355C134.997 333.117 135.262 333.869 135.537 334.607C135.713 335.012 135.815 335.444 135.84 335.884C141.559 337.513 147.622 337.513 153.34 335.884C153.338 335.869 153.338 335.853 153.34 335.838C153.254 335.421 153.217 334.995 153.229 334.57C153.323 333.379 153.478 332.193 153.695 331.018C153.763 330.438 153.793 329.855 153.783 329.271V329.062C153.769 328.886 153.765 328.719 153.76 328.552ZM158.7 319.835L157.036 313.218L156.752 312.085L156.673 311.774L156.267 310.158C156.268 310.144 156.268 310.13 156.267 310.116C156.277 310.045 156.266 309.972 156.235 309.907C156.174 309.786 156.02 309.661 155.661 309.628C155.525 309.619 155.388 309.619 155.251 309.628C154.846 309.668 154.446 309.743 154.054 309.851C153.862 309.902 153.657 309.958 153.438 310.028L153.038 310.153H153C151.927 310.504 150.93 311.056 150.064 311.778C149.492 312.254 148.99 312.807 148.573 313.422L148.484 313.548C148.343 313.761 148.216 313.985 148.107 314.216C148.107 317.871 144.434 322.343 144.434 322.343L140.738 316.979L140.529 316.678L140.491 316.626L139.955 315.842L139.55 315.303L139.443 315.164L137.532 312.624L136.926 311.802V311.774L136.716 311.49L136.316 310.961L134.917 311.774L131.422 313.803L129.809 324.256V324.368L129.856 325.129L130.201 330.948V331.278L129.674 333.372C131.082 334.128 132.547 334.774 134.055 335.304L134.451 335.443C134.917 335.596 135.355 335.736 135.812 335.87C135.829 335.939 135.842 336.009 135.85 336.079C135.85 336.014 135.85 335.945 135.85 335.88C141.568 337.508 147.631 337.508 153.35 335.88L153.457 335.847C153.723 335.773 153.993 335.694 154.254 335.606L154.678 335.471C155.828 335.088 156.955 334.638 158.052 334.124L158.439 325.821L158.719 319.891L158.7 319.835ZM135.78 335.87C135.797 335.939 135.809 336.009 135.817 336.079C135.817 336.014 135.817 335.945 135.817 335.88L135.78 335.87ZM153.76 328.552C153.76 328.366 153.76 328.18 153.727 327.994C153.695 327.809 153.699 327.646 153.676 327.47C153.653 327.293 153.634 327.117 153.611 326.94C153.587 326.764 153.555 326.587 153.522 326.411C153.49 326.234 153.457 326.058 153.42 325.882C153.42 325.821 153.396 325.765 153.382 325.705C153.331 325.473 153.275 325.241 153.215 325.004C153.154 324.767 153.117 324.628 153.061 324.442C153.061 324.358 153.014 324.275 152.986 324.196C152.958 324.117 152.907 323.926 152.865 323.792L152.781 323.532C152.744 323.416 152.707 323.3 152.665 323.183C152.595 322.975 152.52 322.77 152.446 322.561C152.371 322.352 152.292 322.148 152.213 321.944C152.054 321.526 151.882 321.112 151.709 320.699C151.034 319.092 150.274 317.509 149.575 315.939C149.199 315.116 148.866 314.275 148.577 313.418L148.489 313.543C148.347 313.757 148.221 313.98 148.111 314.212C148.111 317.866 144.439 322.338 144.439 322.338L140.743 316.975L137.509 321.93C137.043 322.176 136.577 323.021 136.213 324.224C136.111 324.549 136.013 324.902 135.919 325.278C135.854 325.529 135.794 325.793 135.738 326.058C135.705 326.193 135.677 326.327 135.649 326.467L135.565 326.889V326.954C135.509 327.242 135.453 327.539 135.402 327.841C135.351 328.143 135.29 328.491 135.239 328.821C135.202 329.035 135.169 329.248 135.141 329.462C135.076 329.875 135.02 330.293 134.964 330.706C134.931 330.948 134.899 331.171 134.871 331.426L134.759 332.355C134.997 333.117 135.262 333.869 135.537 334.607C135.713 335.012 135.815 335.444 135.84 335.884C141.559 337.513 147.622 337.513 153.34 335.884C153.338 335.869 153.338 335.853 153.34 335.838C153.254 335.421 153.217 334.995 153.229 334.57C153.323 333.379 153.478 332.193 153.695 331.018C153.763 330.438 153.793 329.855 153.783 329.271V329.062C153.769 328.886 153.765 328.719 153.76 328.552ZM153.76 328.552C153.76 328.366 153.76 328.18 153.727 327.994C153.695 327.809 153.699 327.646 153.676 327.47C153.653 327.293 153.634 327.117 153.611 326.94C153.587 326.764 153.555 326.587 153.522 326.411C153.49 326.234 153.457 326.058 153.42 325.882C153.42 325.821 153.396 325.765 153.382 325.705C153.331 325.473 153.275 325.241 153.215 325.004C153.154 324.767 153.117 324.628 153.061 324.442C153.061 324.358 153.014 324.275 152.986 324.196C152.958 324.117 152.907 323.926 152.865 323.792L152.781 323.532C152.744 323.416 152.707 323.3 152.665 323.183C152.595 322.975 152.52 322.77 152.446 322.561C152.371 322.352 152.292 322.148 152.213 321.944C152.054 321.526 151.882 321.112 151.709 320.699C151.034 319.092 150.274 317.509 149.575 315.939C149.199 315.116 148.866 314.275 148.577 313.418L148.489 313.543C148.347 313.757 148.221 313.98 148.111 314.212C148.111 317.866 144.439 322.338 144.439 322.338L140.743 316.975L137.509 321.93C137.043 322.176 136.577 323.021 136.213 324.224C136.111 324.549 136.013 324.902 135.919 325.278C135.854 325.529 135.794 325.793 135.738 326.058C135.705 326.193 135.677 326.327 135.649 326.467L135.565 326.889V326.954C135.509 327.242 135.453 327.539 135.402 327.841C135.351 328.143 135.29 328.491 135.239 328.821C135.202 329.035 135.169 329.248 135.141 329.462C135.076 329.875 135.02 330.293 134.964 330.706C134.931 330.948 134.899 331.171 134.871 331.426L134.759 332.355C134.997 333.117 135.262 333.869 135.537 334.607C135.713 335.012 135.815 335.444 135.84 335.884C141.559 337.513 147.622 337.513 153.34 335.884C153.338 335.869 153.338 335.853 153.34 335.838C153.254 335.421 153.217 334.995 153.229 334.57C153.323 333.379 153.478 332.193 153.695 331.018C153.763 330.438 153.793 329.855 153.783 329.271V329.062C153.769 328.886 153.765 328.719 153.76 328.552ZM153.76 328.552C153.76 328.366 153.76 328.18 153.727 327.994C153.695 327.809 153.699 327.646 153.676 327.47C153.653 327.293 153.634 327.117 153.611 326.94C153.587 326.764 153.555 326.587 153.522 326.411C153.49 326.234 153.457 326.058 153.42 325.882C153.42 325.821 153.396 325.765 153.382 325.705C153.331 325.473 153.275 325.241 153.215 325.004C153.154 324.767 153.117 324.628 153.061 324.442C153.061 324.358 153.014 324.275 152.986 324.196C152.958 324.117 152.907 323.926 152.865 323.792L152.781 323.532C152.744 323.416 152.707 323.3 152.665 323.183C152.595 322.975 152.52 322.77 152.446 322.561C152.371 322.352 152.292 322.148 152.213 321.944C152.054 321.526 151.882 321.112 151.709 320.699C151.034 319.092 150.274 317.509 149.575 315.939C149.199 315.116 148.866 314.275 148.577 313.418L148.489 313.543C148.347 313.757 148.221 313.98 148.111 314.212C148.111 317.866 144.439 322.338 144.439 322.338L140.743 316.975L137.509 321.93C137.043 322.176 136.577 323.021 136.213 324.224C136.111 324.549 136.013 324.902 135.919 325.278C135.854 325.529 135.794 325.793 135.738 326.058C135.705 326.193 135.677 326.327 135.649 326.467L135.565 326.889V326.954C135.509 327.242 135.453 327.539 135.402 327.841C135.351 328.143 135.29 328.491 135.239 328.821C135.202 329.035 135.169 329.248 135.141 329.462C135.076 329.875 135.02 330.293 134.964 330.706C134.931 330.948 134.899 331.171 134.871 331.426L134.759 332.355C134.997 333.117 135.262 333.869 135.537 334.607C135.713 335.012 135.815 335.444 135.84 335.884C141.559 337.513 147.622 337.513 153.34 335.884C153.338 335.869 153.338 335.853 153.34 335.838C153.254 335.421 153.217 334.995 153.229 334.57C153.323 333.379 153.478 332.193 153.695 331.018C153.763 330.438 153.793 329.855 153.783 329.271V329.062C153.769 328.886 153.765 328.719 153.76 328.552ZM153.76 328.552C153.76 328.366 153.76 328.18 153.727 327.994C153.695 327.809 153.699 327.646 153.676 327.47C153.653 327.293 153.634 327.117 153.611 326.94C153.587 326.764 153.555 326.587 153.522 326.411C153.49 326.234 153.457 326.058 153.42 325.882C153.42 325.821 153.396 325.765 153.382 325.705C153.331 325.473 153.275 325.241 153.215 325.004C153.154 324.767 153.117 324.628 153.061 324.442C153.061 324.358 153.014 324.275 152.986 324.196C152.958 324.117 152.907 323.926 152.865 323.792L152.781 323.532C152.744 323.416 152.707 323.3 152.665 323.183C152.595 322.975 152.52 322.77 152.446 322.561C152.371 322.352 152.292 322.148 152.213 321.944C152.054 321.526 151.882 321.112 151.709 320.699C151.034 319.092 150.274 317.509 149.575 315.939C149.199 315.116 148.866 314.275 148.577 313.418L148.489 313.543C148.347 313.757 148.221 313.98 148.111 314.212C148.111 317.866 144.439 322.338 144.439 322.338L140.743 316.975L137.509 321.93C137.043 322.176 136.577 323.021 136.213 324.224C136.111 324.549 136.013 324.902 135.919 325.278C135.854 325.529 135.794 325.793 135.738 326.058C135.705 326.193 135.677 326.327 135.649 326.467L135.565 326.889V326.954C135.509 327.242 135.453 327.539 135.402 327.841C135.351 328.143 135.29 328.491 135.239 328.821C135.202 329.035 135.169 329.248 135.141 329.462C135.076 329.875 135.02 330.293 134.964 330.706C134.931 330.948 134.899 331.171 134.871 331.426L134.759 332.355C134.997 333.117 135.262 333.869 135.537 334.607C135.713 335.012 135.815 335.444 135.84 335.884C141.559 337.513 147.622 337.513 153.34 335.884C153.338 335.869 153.338 335.853 153.34 335.838C153.254 335.421 153.217 334.995 153.229 334.57C153.323 333.379 153.478 332.193 153.695 331.018C153.763 330.438 153.793 329.855 153.783 329.271V329.062C153.769 328.886 153.765 328.719 153.76 328.552ZM153.76 328.552C153.76 328.366 153.76 328.18 153.727 327.994C153.695 327.809 153.699 327.646 153.676 327.47C153.653 327.293 153.634 327.117 153.611 326.94C153.587 326.764 153.555 326.587 153.522 326.411C153.49 326.234 153.457 326.058 153.42 325.882C153.42 325.821 153.396 325.765 153.382 325.705C153.331 325.473 153.275 325.241 153.215 325.004C153.154 324.767 153.117 324.628 153.061 324.442C153.061 324.358 153.014 324.275 152.986 324.196C152.958 324.117 152.907 323.926 152.865 323.792L152.781 323.532C152.744 323.416 152.707 323.3 152.665 323.183C152.595 322.975 152.52 322.77 152.446 322.561C152.371 322.352 152.292 322.148 152.213 321.944C152.054 321.526 151.882 321.112 151.709 320.699C151.034 319.092 150.274 317.509 149.575 315.939C149.199 315.116 148.866 314.275 148.577 313.418L148.489 313.543C148.347 313.757 148.221 313.98 148.111 314.212C148.111 317.866 144.439 322.338 144.439 322.338L140.743 316.975L137.509 321.93C137.043 322.176 136.577 323.021 136.213 324.224C136.111 324.549 136.013 324.902 135.919 325.278C135.854 325.529 135.794 325.793 135.738 326.058C135.705 326.193 135.677 326.327 135.649 326.467L135.565 326.889V326.954C135.509 327.242 135.453 327.539 135.402 327.841C135.351 328.143 135.29 328.491 135.239 328.821C135.202 329.035 135.169 329.248 135.141 329.462C135.076 329.875 135.02 330.293 134.964 330.706C134.931 330.948 134.899 331.171 134.871 331.426L134.759 332.355C134.997 333.117 135.262 333.869 135.537 334.607C135.713 335.012 135.815 335.444 135.84 335.884C141.559 337.513 147.622 337.513 153.34 335.884C153.338 335.869 153.338 335.853 153.34 335.838C153.254 335.421 153.217 334.995 153.229 334.57C153.323 333.379 153.478 332.193 153.695 331.018C153.763 330.438 153.793 329.855 153.783 329.271V329.062C153.769 328.886 153.765 328.719 153.76 328.552ZM153.76 328.552C153.76 328.366 153.76 328.18 153.727 327.994C153.695 327.809 153.699 327.646 153.676 327.47C153.653 327.293 153.634 327.117 153.611 326.94C153.587 326.764 153.555 326.587 153.522 326.411C153.49 326.234 153.457 326.058 153.42 325.882C153.42 325.821 153.396 325.765 153.382 325.705C153.331 325.473 153.275 325.241 153.215 325.004C153.154 324.767 153.117 324.628 153.061 324.442C153.061 324.358 153.014 324.275 152.986 324.196C152.958 324.117 152.907 323.926 152.865 323.792L152.781 323.532C152.744 323.416 152.707 323.3 152.665 323.183C152.595 322.975 152.52 322.77 152.446 322.561C152.371 322.352 152.292 322.148 152.213 321.944C152.054 321.526 151.882 321.112 151.709 320.699C151.034 319.092 150.274 317.509 149.575 315.939C149.199 315.116 148.866 314.275 148.577 313.418L148.489 313.543C148.347 313.757 148.221 313.98 148.111 314.212C148.111 317.866 144.439 322.338 144.439 322.338L140.743 316.975L137.509 321.93C137.043 322.176 136.577 323.021 136.213 324.224C136.111 324.549 136.013 324.902 135.919 325.278C135.854 325.529 135.794 325.793 135.738 326.058C135.705 326.193 135.677 326.327 135.649 326.467L135.565 326.889V326.954C135.509 327.242 135.453 327.539 135.402 327.841C135.351 328.143 135.29 328.491 135.239 328.821C135.202 329.035 135.169 329.248 135.141 329.462C135.076 329.875 135.02 330.293 134.964 330.706C134.931 330.948 134.899 331.171 134.871 331.426L134.759 332.355C134.997 333.117 135.262 333.869 135.537 334.607C135.713 335.012 135.815 335.444 135.84 335.884C141.559 337.513 147.622 337.513 153.34 335.884C153.338 335.869 153.338 335.853 153.34 335.838C153.254 335.421 153.217 334.995 153.229 334.57C153.323 333.379 153.478 332.193 153.695 331.018C153.763 330.438 153.793 329.855 153.783 329.271V329.062C153.769 328.886 153.765 328.719 153.76 328.552ZM153.76 328.552C153.76 328.366 153.76 328.18 153.727 327.994C153.695 327.809 153.699 327.646 153.676 327.47C153.653 327.293 153.634 327.117 153.611 326.94C153.587 326.764 153.555 326.587 153.522 326.411C153.49 326.234 153.457 326.058 153.42 325.882C153.42 325.821 153.396 325.765 153.382 325.705C153.331 325.473 153.275 325.241 153.215 325.004C153.154 324.767 153.117 324.628 153.061 324.442C153.061 324.358 153.014 324.275 152.986 324.196C152.958 324.117 152.907 323.926 152.865 323.792L152.781 323.532C152.744 323.416 152.707 323.3 152.665 323.183C152.595 322.975 152.52 322.77 152.446 322.561C152.371 322.352 152.292 322.148 152.213 321.944C152.054 321.526 151.882 321.112 151.709 320.699C151.034 319.092 150.274 317.509 149.575 315.939C149.199 315.116 148.866 314.275 148.577 313.418L148.489 313.543C148.347 313.757 148.221 313.98 148.111 314.212C148.111 317.866 144.439 322.338 144.439 322.338L140.743 316.975L137.509 321.93C137.043 322.176 136.577 323.021 136.213 324.224C136.111 324.549 136.013 324.902 135.919 325.278C135.854 325.529 135.794 325.793 135.738 326.058C135.705 326.193 135.677 326.327 135.649 326.467L135.565 326.889V326.954C135.509 327.242 135.453 327.539 135.402 327.841C135.351 328.143 135.29 328.491 135.239 328.821C135.202 329.035 135.169 329.248 135.141 329.462C135.076 329.875 135.02 330.293 134.964 330.706C134.931 330.948 134.899 331.171 134.871 331.426L134.759 332.355C134.997 333.117 135.262 333.869 135.537 334.607C135.713 335.012 135.815 335.444 135.84 335.884C141.559 337.513 147.622 337.513 153.34 335.884C153.338 335.869 153.338 335.853 153.34 335.838C153.254 335.421 153.217 334.995 153.229 334.57C153.323 333.379 153.478 332.193 153.695 331.018C153.763 330.438 153.793 329.855 153.783 329.271V329.062C153.769 328.886 153.765 328.719 153.76 328.552ZM153.76 328.552C153.76 328.366 153.76 328.18 153.727 327.994C153.695 327.809 153.699 327.646 153.676 327.47C153.653 327.293 153.634 327.117 153.611 326.94C153.587 326.764 153.555 326.587 153.522 326.411C153.49 326.234 153.457 326.058 153.42 325.882C153.42 325.821 153.396 325.765 153.382 325.705C153.331 325.473 153.275 325.241 153.215 325.004C153.154 324.767 153.117 324.628 153.061 324.442C153.061 324.358 153.014 324.275 152.986 324.196C152.958 324.117 152.907 323.926 152.865 323.792L152.781 323.532C152.744 323.416 152.707 323.3 152.665 323.183C152.595 322.975 152.52 322.77 152.446 322.561C152.371 322.352 152.292 322.148 152.213 321.944C152.054 321.526 151.882 321.112 151.709 320.699C151.034 319.092 150.274 317.509 149.575 315.939C149.199 315.116 148.866 314.275 148.577 313.418L148.489 313.543C148.347 313.757 148.221 313.98 148.111 314.212C148.111 317.866 144.439 322.338 144.439 322.338L140.743 316.975L137.509 321.93C137.043 322.176 136.577 323.021 136.213 324.224C136.111 324.549 136.013 324.902 135.919 325.278C135.854 325.529 135.794 325.793 135.738 326.058C135.705 326.193 135.677 326.327 135.649 326.467L135.565 326.889V326.954C135.509 327.242 135.453 327.539 135.402 327.841C135.351 328.143 135.29 328.491 135.239 328.821C135.202 329.035 135.169 329.248 135.141 329.462C135.076 329.875 135.02 330.293 134.964 330.706C134.931 330.948 134.899 331.171 134.871 331.426L134.759 332.355C134.997 333.117 135.262 333.869 135.537 334.607C135.713 335.012 135.815 335.444 135.84 335.884C141.559 337.513 147.622 337.513 153.34 335.884C153.338 335.869 153.338 335.853 153.34 335.838C153.254 335.421 153.217 334.995 153.229 334.57C153.323 333.379 153.478 332.193 153.695 331.018C153.763 330.438 153.793 329.855 153.783 329.271V329.062C153.769 328.886 153.765 328.719 153.76 328.552Z" fill="#444176"/>
<path opacity="0.1" d="M140.808 316.664L140.496 316.622C140.024 316.559 139.558 316.466 139.098 316.344L138.925 316.297C137.788 315.977 136.544 315.401 136.264 314.389C136.181 314.063 136.191 313.72 136.292 313.4C136.449 312.847 136.661 312.312 136.926 311.802V311.774C136.961 311.703 137 311.633 137.042 311.565C137.427 310.816 138.009 310.185 138.725 309.74L138.166 309.828L133.431 310.595L126.09 311.774C126.09 311.774 124.785 311.514 123.01 316.39C123.01 316.451 122.968 316.506 122.949 316.571C122.52 317.765 122.068 319.255 121.602 321.118C121.281 322.408 120.987 323.676 120.717 324.907C120.637 325.278 120.558 325.645 120.484 326.007C121.324 326.994 122.228 327.925 123.191 328.794L123.345 328.938C125.231 330.639 127.315 332.11 129.553 333.317L129.642 333.363C131.049 334.12 132.514 334.766 134.022 335.295L134.419 335.434C134.503 334.575 134.596 333.623 134.708 332.648C134.708 332.551 134.708 332.453 134.745 332.355L134.857 331.427C134.885 331.19 134.917 330.962 134.95 330.707C135.006 330.294 135.062 329.876 135.127 329.462C135.155 329.249 135.188 329.035 135.225 328.822C135.276 328.492 135.332 328.162 135.388 327.842C135.444 327.521 135.495 327.243 135.551 326.955V326.89L135.635 326.467C135.663 326.328 135.691 326.193 135.724 326.058C135.78 325.794 135.84 325.529 135.905 325.278C135.999 324.902 136.096 324.549 136.199 324.224C136.572 323.021 137.005 322.176 137.495 321.93L140.729 316.975L140.864 316.766L140.925 316.673L140.808 316.664Z" fill="black"/>
<path opacity="0.1" d="M141.586 291.94C143.041 291.694 144.504 291.165 145.949 291.476C147.16 291.727 148.172 292.53 149.281 293.087C150.352 293.624 151.523 293.932 152.72 293.993C153.157 294.05 153.601 293.964 153.983 293.747C154.561 293.347 154.645 292.53 154.547 291.833C154.268 289.855 153.028 288.156 151.751 286.614C151.241 285.955 150.653 285.361 149.999 284.845C148.326 283.614 146.112 283.405 144.038 283.498C141.67 283.605 139.266 284.06 137.21 285.244C135.812 286.043 132.606 288.56 133.72 290.38C134.889 292.284 139.755 292.251 141.586 291.94Z" fill="black"/>
<path opacity="0.5" d="M141.586 291.475C143.041 291.229 144.504 290.7 145.949 291.011C147.16 291.262 148.172 292.065 149.281 292.622C150.352 293.159 151.523 293.468 152.72 293.528C153.157 293.585 153.601 293.499 153.983 293.282C154.561 292.882 154.645 292.065 154.547 291.369C154.268 289.39 153.028 287.691 151.751 286.149C151.241 285.49 150.653 284.896 149.999 284.38C148.326 283.149 146.112 282.94 144.038 283.033C141.67 283.14 139.266 283.595 137.21 284.779C135.812 285.578 132.606 288.095 133.72 289.915C134.889 291.819 139.755 291.787 141.586 291.475Z" fill="#444176"/>
</g>
<path d="M269.569 268.737H269.639C269.742 271.848 270.184 274.662 271.037 275.442C273.069 277.3 281.495 273.585 280.917 271.337C280.801 270.873 280.605 270.111 280.358 269.15C282.633 268.867 284.576 268.221 285.35 266.893L286.813 271.388L286.916 271.709H286.944H287.027C287.992 280.82 290.178 299.739 291.926 302.274C294.256 305.632 296.936 320.181 296.936 320.181L301.946 350.026C301.946 350.026 303.875 367.208 305.031 369.066C305.367 369.42 305.814 369.651 306.299 369.721C305.623 371.736 304.653 374.09 303.502 375.405C301.172 378.014 298.105 383.239 295.407 382.867C292.709 382.496 291.94 388.091 296.95 388.834C299.723 389.248 304.145 388.746 307.543 388.217C307.543 389.712 308.587 391.43 311.211 391.82C316.221 392.568 326.628 390.33 326.628 390.33C326.628 390.33 335.483 386.615 335.879 383.986C336.159 382.082 334.802 374.439 334.047 370.431C335.446 368.197 333.954 348.921 333.954 348.921L331.256 311.989C331.256 311.989 332.798 291.473 331.256 287.739C330.291 285.417 329.932 274.737 329.797 267.098L331.661 267.218C331.767 267.091 331.864 266.956 331.95 266.814L332.416 266.847C332.416 266.847 334.746 264.237 332.803 260.132C331.372 257.081 331.643 243.308 331.871 236.449L332.146 233.198C332.248 233.099 332.326 232.979 332.374 232.845C335.989 232.359 339.502 231.299 342.781 229.706C343.77 229.296 344.691 228.739 345.512 228.053C347.442 226.195 346.281 214.994 342.427 198.207C338.573 181.42 335.105 182.91 335.105 182.91C335.105 182.91 325.854 182.163 321.613 176.567C317.372 170.971 314.524 171.046 314.524 171.046C314.417 170.312 314.343 169.62 314.291 168.975C314.291 168.733 314.254 168.51 314.24 168.269C315.682 166.933 316.781 165.272 317.447 163.425C318.313 162.961 319.381 162.808 320.21 162.222C320.422 162.069 320.614 161.892 320.784 161.693C321.615 160.929 322.143 159.892 322.27 158.772C322.402 157.549 322.344 156.313 322.098 155.108C321.804 153.325 321.371 151.5 320.327 150.098C319.283 148.695 317.722 147.85 316.216 147.065C312.14 144.932 308.053 142.821 303.954 140.731C303.154 140.244 302.26 139.927 301.331 139.802C299.69 139.709 298.217 140.829 296.894 141.892C296.366 142.306 295.86 142.748 295.379 143.215C294.97 143.577 294.597 143.976 294.265 144.409C292.718 146.475 292.061 150.367 292.741 152.949C292.956 153.766 293.417 154.003 293.986 153.994C293.142 155.665 292.703 157.51 292.704 159.38C292.713 161.429 293.239 163.442 294.233 165.234C295.228 167.027 296.659 168.541 298.394 169.639C298.394 169.899 298.394 170.154 298.418 170.4C298.437 171.353 298.406 172.306 298.324 173.256C298.324 173.256 288.071 178.778 286.92 181.387C285.769 183.997 281.523 185.864 281.523 185.864C281.523 185.864 273.428 189.969 273.428 204.518L269.187 225.034L268.418 264.205C268.418 264.205 268.949 263.74 269.816 263.081C269.788 263.341 269.765 263.61 269.742 263.884C269.626 265.381 269.587 266.883 269.625 268.384L269.569 268.737ZM321.347 370.115C321.189 370.714 320.956 371.508 320.662 372.437C320.532 371.666 320.401 370.905 320.271 370.18C320.606 370.148 320.965 370.129 321.347 370.115Z" fill="url(#paint2_linear)"/>
<path d="M307.347 365.303C307.347 365.303 305.86 371.962 303.619 374.549C301.377 377.136 298.441 382.318 295.85 381.947C293.258 381.575 292.508 387.124 297.336 387.863C302.165 388.601 312.161 386.386 312.161 386.386C312.161 386.386 320.699 382.671 321.068 380.098C321.436 377.526 318.84 364.193 318.84 364.193L307.347 365.303Z" fill="#53526B"/>
<path opacity="0.05" d="M307.347 365.303C307.347 365.303 305.86 371.962 303.619 374.549C301.377 377.136 298.441 382.318 295.85 381.947C293.258 381.575 292.508 387.124 297.336 387.863C302.165 388.601 312.161 386.386 312.161 386.386C312.161 386.386 320.699 382.671 321.068 380.098C321.436 377.526 318.84 364.193 318.84 364.193L307.347 365.303Z" fill="black"/>
<path d="M321.082 368.261C321.082 368.261 319.595 374.92 317.353 377.507C315.112 380.093 312.161 385.276 309.575 384.904C306.988 384.533 306.233 390.082 311.062 390.821C315.89 391.559 325.91 389.339 325.91 389.339C325.91 389.339 334.448 385.624 334.816 383.051C335.184 380.479 332.589 367.146 332.589 367.146L321.082 368.261Z" fill="#53526B"/>
<path d="M287.302 266.93C287.302 266.93 290.271 298.735 292.499 302.065C294.726 305.394 297.322 319.818 297.322 319.818L302.146 349.403C302.146 349.403 304.01 366.418 305.115 368.266C306.219 370.114 319.996 369.32 319.996 369.32L311.43 271.364L287.302 266.93Z" fill="#5F5D7E"/>
<path opacity="0.05" d="M287.302 266.93C287.302 266.93 290.271 298.735 292.499 302.065C294.726 305.394 297.322 319.818 297.322 319.818L302.146 349.403C302.146 349.403 304.01 366.418 305.115 368.266C306.219 370.114 319.996 369.32 319.996 369.32L311.43 271.364L287.302 266.93Z" fill="black"/>
<path d="M281.365 251.758L282.334 254.827L287.577 271.41L287.68 271.726H287.708C288.411 271.884 303.269 275.288 306.476 276.333C306.649 276.386 306.818 276.45 306.984 276.523C308.47 277.261 310.325 303.889 310.325 303.889C310.325 303.889 311.439 329.04 312.189 330.888C312.94 332.736 315.918 370.824 317.759 369.719C319.6 368.614 332.975 369.719 332.975 369.719C334.462 368.238 332.975 348.27 332.975 348.27L330.337 311.663C330.337 311.663 331.824 291.323 330.337 287.622C328.851 283.921 328.851 259.146 328.851 259.146L298.469 254.414L295.533 253.95L281.365 251.758Z" fill="#5F5D7E"/>
<path opacity="0.02" d="M282.334 254.832L287.577 271.415L287.703 271.74C288.407 271.898 303.265 275.302 306.471 276.347H306.793L298.492 254.419L298.255 253.787L295.556 253.959L282.334 254.832Z" fill="black"/>
<path opacity="0.1" d="M316.999 177.797C316.999 177.797 303.265 192.592 294.727 180.383L286.561 185.933L288.048 194.44L283.22 258.789C283.22 258.789 295.84 258.418 304.747 261.376C307.227 262.252 309.907 262.405 312.472 261.815C315.036 261.225 317.378 259.917 319.222 258.046L317.754 201.466L321.096 184.085L316.999 177.797Z" fill="black"/>
<path d="M316.999 176.688C316.999 176.688 303.265 191.483 294.727 179.274L286.561 184.823L288.048 193.331L283.22 257.68C283.22 257.68 295.84 257.308 304.747 260.266C307.227 261.143 309.907 261.295 312.472 260.706C315.036 260.116 317.378 258.808 319.222 256.937L317.754 200.357L321.096 182.975L316.999 176.688Z" fill="#53526B"/>
<path d="M289.581 242.574V244.905H288.836V243.354H286.109V244.905H285.359V242.579L289.581 242.574Z" fill="#E82127"/>
<path d="M288.915 241.822H286.035C285.846 241.777 285.673 241.681 285.535 241.545C285.397 241.409 285.299 241.238 285.252 241.051H289.693C289.645 241.238 289.547 241.409 289.409 241.545C289.271 241.68 289.099 241.776 288.91 241.822" fill="#E82127"/>
<path d="M314.958 241.078C314.909 241.263 314.81 241.432 314.674 241.567C314.537 241.702 314.366 241.798 314.179 241.844H312.968L312.907 241.868V244.914H312.161V241.868L312.092 241.844H310.88C310.694 241.796 310.524 241.7 310.387 241.566C310.251 241.431 310.152 241.263 310.102 241.078H314.958Z" fill="#E82127"/>
<path d="M288.416 253.244C288.416 253.244 288.416 262.861 286.189 266.929C283.961 270.997 270.972 268.787 270.972 268.787L273.568 255.102L288.416 253.244Z" fill="#D6DBE6"/>
<path d="M272.384 275.442C274.341 277.3 282.455 273.585 281.896 271.374C281.505 269.809 280.134 264.209 279.356 261.033L278.815 258.799C278.815 258.799 274.062 257.318 272.384 258.799C271.773 259.338 271.345 261.46 271.144 264.023C270.799 268.477 271.149 274.263 272.384 275.442Z" fill="#FDC2CC"/>
<path d="M290.257 183.341L303.246 193.325C303.246 193.325 322.545 192.215 317.721 182.969C315.621 178.903 314.354 174.461 313.993 169.902C313.836 168.22 313.836 166.527 313.993 164.845C313.993 164.845 296.176 148.591 298.404 167.064C298.579 168.482 298.682 169.908 298.711 171.337C298.977 185.203 290.257 183.341 290.257 183.341Z" fill="#FDC2CC"/>
<path opacity="0.1" d="M298.441 167.069C298.616 168.487 298.719 169.913 298.748 171.341C300.748 172.66 303.094 173.362 305.492 173.356C308.815 173.356 311.262 170.134 313.471 167.993C313.224 164.923 314.026 164.849 314.026 164.849C314.026 164.849 296.213 148.577 298.441 167.069Z" fill="black"/>
<path d="M305.492 172.619C312.257 172.619 317.74 167.155 317.74 160.415C317.74 153.675 312.257 148.211 305.492 148.211C298.728 148.211 293.245 153.675 293.245 160.415C293.245 167.155 298.728 172.619 305.492 172.619Z" fill="#FDC2CC"/>
<path opacity="0.1" d="M314.212 172.061C314.212 172.061 316.253 172.246 320.336 177.791C324.419 183.336 333.325 184.079 333.325 184.079C333.325 184.079 336.666 182.597 340.376 199.241C344.086 215.884 345.2 226.978 343.345 228.826C341.49 230.674 334.066 233.27 330.337 233.27C330.337 233.27 329.224 256.568 331.078 260.636C332.933 264.704 330.706 267.295 330.706 267.295L314.394 266.185C314.394 266.185 308.824 259.159 307.711 246.955C306.597 234.752 302.887 199.984 304.742 195.916C306.597 191.848 314.762 181.492 314.394 180.382C314.026 179.272 314.212 172.061 314.212 172.061Z" fill="black"/>
<path d="M314.254 171.949C314.254 171.949 316.999 171.875 321.082 177.424C325.164 182.974 334.066 183.712 334.066 183.712C334.066 183.712 337.408 182.231 341.117 198.874C344.827 215.517 345.941 226.611 344.086 228.459C342.231 230.308 334.807 232.899 331.097 232.899C331.097 232.899 329.983 256.197 331.838 260.265C333.693 264.333 331.465 266.924 331.465 266.924L315.154 265.814C315.154 265.814 309.584 258.788 308.47 246.584C307.357 234.38 303.637 199.617 305.492 195.568C307.347 191.518 315.512 181.144 315.144 180.034C314.776 178.924 314.254 171.949 314.254 171.949Z" fill="#D6DBE6"/>
<path opacity="0.1" d="M271.149 264.017C272.925 262.666 276.276 260.562 279.361 261.027L278.82 258.793C278.82 258.793 274.066 257.312 272.389 258.793C271.769 259.332 271.345 261.449 271.149 264.017Z" fill="black"/>
<path opacity="0.1" d="M298.646 174.281C298.646 174.281 289.18 180.383 288.067 182.974C286.953 185.566 282.87 187.414 282.87 187.414C282.87 187.414 275.078 191.482 275.078 205.905L270.995 226.245L289.553 252.134C289.553 252.134 291.781 226.245 292.895 219.957C294.009 213.67 295.491 201.847 295.491 201.847C295.491 201.847 301.06 194.821 300.314 192.972C299.569 191.124 298.646 174.281 298.646 174.281Z" fill="black"/>
<path d="M298.646 174.17C298.646 174.17 288.775 179.645 287.666 182.232C286.557 184.818 282.469 186.671 282.469 186.671C282.469 186.671 274.677 190.739 274.677 205.162L270.594 225.502L269.853 264.334C269.853 264.334 276.536 258.046 281.36 261.004C286.184 263.962 289.153 251.387 289.153 251.387C289.153 251.387 291.38 225.498 292.494 219.21C293.608 212.922 295.09 201.099 295.09 201.099C295.09 201.099 300.659 194.073 299.914 192.225C299.168 190.377 298.646 174.17 298.646 174.17Z" fill="#D6DBE6"/>
<path opacity="0.1" d="M294.741 145.569C295.369 144.772 296.096 144.058 296.903 143.442C298.18 142.383 299.592 141.278 301.177 141.371C302.073 141.49 302.934 141.797 303.703 142.272C307.649 144.343 311.584 146.436 315.508 148.55C316.957 149.33 318.453 150.157 319.465 151.559C320.476 152.962 320.886 154.763 321.17 156.528C321.408 157.723 321.465 158.947 321.338 160.159C321.223 161.348 320.644 162.443 319.726 163.21C318.668 163.977 317.218 163.981 316.333 164.984C315.82 165.565 315.596 166.377 315.233 167.083C314.869 167.789 314.24 168.476 313.522 168.351C312.805 168.226 312.371 167.469 312.269 166.702C312.223 165.926 312.268 165.147 312.404 164.381C312.544 162.987 312.367 161.511 311.556 160.475C310.996 159.769 310.195 159.342 309.654 158.618C308.359 156.872 308.95 153.974 307.529 152.335C307.116 151.906 306.597 151.594 306.024 151.431C305.451 151.268 304.844 151.259 304.267 151.406C303.116 151.647 302.062 152.27 301.004 152.799C299.575 153.517 298.078 154.093 296.535 154.517C295.239 154.87 293.739 155.715 293.296 153.997C292.62 151.476 293.249 147.617 294.741 145.569Z" fill="black"/>
<path d="M295.113 145.201C295.742 144.405 296.468 143.69 297.276 143.075C298.553 142.016 299.965 140.911 301.549 141.004C302.446 141.122 303.307 141.43 304.075 141.904C308.018 143.976 311.295 142.016 315.881 148.183C316.859 149.502 318.826 149.79 319.837 151.192C320.849 152.594 321.259 154.396 321.543 156.161C321.781 157.356 321.838 158.58 321.711 159.792C321.595 160.98 321.016 162.076 320.098 162.843C319.04 163.609 317.591 163.614 316.705 164.617C316.193 165.198 315.969 166.01 315.606 166.716C315.242 167.422 314.613 168.109 313.895 167.984C313.177 167.858 312.744 167.102 312.642 166.335C312.596 165.559 312.641 164.78 312.777 164.013C312.916 162.62 312.739 161.144 311.928 160.108C311.369 159.402 310.568 158.975 310.027 158.251C308.731 156.504 309.323 153.607 307.902 151.967C307.489 151.539 306.97 151.227 306.396 151.064C305.823 150.901 305.217 150.892 304.639 151.039C303.488 151.28 302.435 151.902 301.377 152.432C299.948 153.15 298.451 153.726 296.908 154.15C295.612 154.503 294.111 155.348 293.668 153.63C292.988 151.108 293.622 147.245 295.113 145.201Z" fill="#865A61"/>
<path opacity="0.1" d="M328.567 201.646C328.567 201.646 333.516 214.222 329.802 219.4L321.636 217.542C321.636 217.542 329.061 219.762 327.947 215.322C326.833 210.883 328.567 201.646 328.567 201.646Z" fill="black"/>
<path opacity="0.1" d="M331.27 232.72C331.27 232.72 320.504 233.458 317.535 231.238C321.445 234.212 326.061 236.124 330.934 236.788L331.27 232.72Z" fill="black"/>
<path opacity="0.1" d="M284.893 209.035C284.893 209.035 279.324 226.05 279.696 228.637C280.069 231.223 280.81 259.703 280.81 259.703L281.924 259.332L281.551 228.265L284.893 209.035Z" fill="black"/>
<path d="M332.579 229.83L205.347 127.667C204.607 126.929 203.727 126.345 202.76 125.946C201.792 125.548 200.755 125.344 199.708 125.345H194.302C205.105 111.55 210.221 94.1688 208.607 76.745C206.992 59.3211 198.769 43.167 185.613 31.5763C172.457 19.9857 155.359 13.8314 137.807 14.3683C120.254 14.9053 103.568 22.093 91.1501 34.4659C78.7325 46.8388 71.5189 63.4652 70.98 80.9549C70.4412 98.4447 76.6176 115.481 88.25 128.589C99.8825 141.698 116.095 149.892 133.582 151.501C151.068 153.11 168.512 148.012 182.357 137.247V142.629C182.355 143.673 182.56 144.706 182.96 145.67C183.36 146.634 183.947 147.51 184.687 148.248L311.919 250.411C312.656 251.151 313.532 251.739 314.498 252.139C315.463 252.54 316.499 252.747 317.545 252.747C318.59 252.747 319.626 252.54 320.592 252.139C321.557 251.739 322.433 251.151 323.17 250.411L332.547 241.077C334.043 239.588 334.886 237.568 334.892 235.46C334.899 233.353 334.067 231.329 332.579 229.83ZM139.881 125.345C131.48 125.345 123.268 122.863 116.283 118.212C109.297 113.562 103.853 106.952 100.638 99.2182C97.4233 91.4846 96.5822 82.9748 98.2211 74.7649C99.8601 66.5549 103.905 59.0136 109.846 53.0946C115.786 47.1755 123.355 43.1446 131.594 41.5116C139.834 39.8785 148.374 40.7167 156.136 43.92C163.897 47.1234 170.531 52.5481 175.198 59.5081C179.866 66.4682 182.357 74.651 182.357 83.0217C182.361 88.5814 181.266 94.0873 179.133 99.2247C177 104.362 173.871 109.03 169.926 112.962C165.981 116.893 161.297 120.012 156.142 122.138C150.986 124.265 145.461 125.357 139.881 125.354V125.345Z" fill="url(#paint3_linear)"/>
<path d="M333.511 228.9L206.279 126.737C205.539 126 204.659 125.415 203.692 125.017C202.724 124.618 201.687 124.414 200.64 124.415H195.234C206.037 110.621 211.153 93.2391 209.539 75.8153C207.924 58.3914 199.7 42.2373 186.545 30.6466C173.389 19.056 156.291 12.9017 138.739 13.4386C121.186 13.9756 104.499 21.1633 92.0819 33.5362C79.6644 45.9092 72.4508 62.5355 71.9119 80.0252C71.373 97.515 77.5495 114.551 89.1819 127.66C100.814 140.768 117.027 148.962 134.513 150.571C152 152.18 169.444 147.082 183.289 136.317V141.7C183.287 142.743 183.492 143.776 183.892 144.74C184.292 145.705 184.879 146.581 185.619 147.319L312.851 249.482C313.588 250.222 314.464 250.809 315.429 251.21C316.395 251.611 317.43 251.817 318.476 251.817C319.522 251.817 320.558 251.611 321.523 251.21C322.489 250.809 323.365 250.222 324.102 249.482L333.479 240.148C334.975 238.658 335.818 236.638 335.824 234.531C335.83 232.423 334.999 230.399 333.511 228.9ZM140.813 124.415C132.412 124.415 124.2 121.933 117.214 117.283C110.229 112.632 104.785 106.022 101.57 98.2885C98.3552 90.5549 97.514 82.0451 99.153 73.8352C100.792 65.6252 104.837 58.0839 110.778 52.1649C116.718 46.2459 124.287 42.2149 132.526 40.5819C140.766 38.9488 149.306 39.787 157.068 42.9903C164.829 46.1937 171.463 51.6184 176.13 58.5784C180.798 65.5385 183.289 73.7213 183.289 82.092C183.293 87.6517 182.197 93.1576 180.064 98.295C177.931 103.432 174.803 108.1 170.858 112.032C166.913 115.964 162.229 119.082 157.073 121.208C151.918 123.335 146.392 124.428 140.813 124.425V124.415Z" fill="#BA1C51"/>
<path d="M324.051 219.585C324.051 219.585 305.478 198.363 308.088 212.925C309.953 223.281 316.995 228.83 320.336 229.94C323.678 231.05 324.051 219.585 324.051 219.585Z" fill="#FDC2CC"/>
<path d="M328.506 199.984C328.506 199.984 328.879 213.67 330.734 215.518C332.589 217.366 329.62 219.586 329.62 219.586L322.196 217.728C322.196 217.728 324.06 229.932 316.258 228.455C316.258 228.455 321.455 233.262 326.651 234.005C331.848 234.748 331.475 232.895 331.475 232.895L339.267 223.649L328.506 199.984Z" fill="#D6DBE6"/>
<path d="M330.561 233.095L338.093 231.446L337.086 227.986L332.425 226.129L326.367 228.915L330.561 233.095Z" fill="#D6DBE6"/>
<path d="M145.46 99.6328L155.484 91.9288C155.484 91.9288 148.769 93.3637 148.96 82.6691C148.957 82.6335 148.957 82.5979 148.96 82.5623C148.96 81.5964 149.053 80.5376 149.193 79.372C150.912 65.1017 137.164 77.6585 137.164 77.6585C137.282 78.9219 137.282 80.1936 137.164 81.4571C137.164 81.4896 137.164 81.5267 137.164 81.5592C136.892 85.0759 135.919 88.5032 134.302 91.6409C130.569 98.7737 145.46 99.6328 145.46 99.6328Z" fill="#FDC2CC"/>
<path opacity="0.1" d="M138.445 79.4742C140.146 81.1227 141.186 84.118 143.744 84.118C145.596 84.122 147.407 83.5808 148.95 82.5623C148.95 81.5964 149.043 80.5376 149.183 79.372C150.903 65.1017 137.154 77.6585 137.154 77.6585C137.154 77.6585 138.627 77.1523 138.445 79.4742Z" fill="black"/>
<path d="M143.744 83.6535C148.964 83.6535 153.196 79.4371 153.196 74.2359C153.196 69.0348 148.964 64.8184 143.744 64.8184C138.524 64.8184 134.293 69.0348 134.293 74.2359C134.293 79.4371 138.524 83.6535 143.744 83.6535Z" fill="#FDC2CC"/>
<path opacity="0.1" d="M152.809 62.1756C152.267 61.493 151.641 60.8814 150.945 60.3552C149.854 59.4497 148.643 58.4977 147.286 58.5813C146.519 58.6831 145.782 58.9458 145.124 59.3522C141.745 61.1261 138.944 59.4497 135.015 64.725C134.176 65.8535 132.494 66.1182 131.627 67.3023C130.76 68.4865 130.411 70.0422 130.164 71.556C129.959 72.5801 129.911 73.6289 130.019 74.6674C130.123 75.6866 130.625 76.6242 131.417 77.2772C132.321 77.9319 133.566 77.9366 134.325 78.7957C134.707 79.3553 135.02 79.9587 135.257 80.5928C135.565 81.1965 136.106 81.7677 136.721 81.6795C137.336 81.5912 137.704 80.9272 137.793 80.2863C137.831 79.6231 137.792 78.9577 137.676 78.3034C137.56 77.1286 137.709 75.8469 138.403 74.9599C138.869 74.3516 139.568 73.9894 140.03 73.3717C141.139 71.8811 140.636 69.3781 141.852 67.9942C142.208 67.6303 142.654 67.3668 143.145 67.2305C143.636 67.0943 144.155 67.0902 144.648 67.2187C145.628 67.4974 146.568 67.9 147.445 68.4168C148.668 69.0322 149.95 69.5253 151.271 69.8889C152.38 70.1908 153.667 70.9152 154.044 69.4245C154.636 67.2327 154.081 63.9263 152.809 62.1756Z" fill="black"/>
<path d="M152.809 61.7107C152.267 61.0281 151.641 60.4165 150.945 59.8904C149.854 58.9849 148.643 58.0329 147.286 58.1165C146.519 58.2182 145.782 58.481 145.124 58.8873C141.745 60.6613 138.944 58.9849 135.015 64.2602C134.176 65.3886 132.494 65.6533 131.627 66.8375C130.76 68.0216 130.411 69.5773 130.164 71.0912C129.959 72.1152 129.911 73.164 130.019 74.2025C130.123 75.2218 130.625 76.1594 131.417 76.8123C132.321 77.4671 133.566 77.4717 134.325 78.3308C134.707 78.8904 135.02 79.4938 135.257 80.128C135.565 80.7317 136.106 81.3029 136.721 81.2146C137.336 81.1264 137.704 80.4623 137.793 79.8215C137.831 79.1583 137.792 78.4928 137.676 77.8386C137.56 76.6637 137.709 75.382 138.403 74.4951C138.869 73.8867 139.568 73.5245 140.03 72.9069C141.139 71.4162 140.636 68.9133 141.852 67.5294C142.208 67.1654 142.654 66.9019 143.145 66.7657C143.636 66.6295 144.155 66.6254 144.648 66.7539C145.628 67.0325 146.568 67.4352 147.445 67.952C148.668 68.5674 149.95 69.0605 151.271 69.4241C152.38 69.7259 153.667 70.4503 154.044 68.9597C154.636 66.7678 154.081 63.4615 152.809 61.7107Z" fill="#865A61"/>
<path opacity="0.1" d="M134.293 104.587L134.106 111.716C136.815 112.449 139.609 112.819 142.416 112.816C142.882 112.816 143.371 112.816 143.847 112.784C146.336 112.677 148.803 112.275 151.196 111.586H151.243C151.686 111.456 152.124 111.321 152.557 111.172H152.604L153 111.033C154.509 110.504 155.973 109.858 157.381 109.101L157.47 109.055C157.623 108.971 157.777 108.888 157.936 108.799L157.213 99.1914L158.364 92.6019L152.063 88.325C151.71 88.8339 151.314 89.3123 150.88 89.7552C150.258 90.4026 149.529 90.9396 148.726 91.3434C144.206 93.5631 139.06 90.0339 136.502 87.8513L135.919 87.3358C135.257 86.7368 134.88 86.3281 134.88 86.3281L131.729 91.1762L134.293 104.587Z" fill="black"/>
<path d="M134.293 105.05L134.106 112.179C136.815 112.912 139.609 113.282 142.416 113.279C142.882 113.279 143.371 113.279 143.847 113.247C146.336 113.14 148.803 112.738 151.196 112.049H151.243C151.686 111.919 152.124 111.784 152.557 111.635H152.604L153 111.496C154.509 110.967 155.973 110.321 157.381 109.564L157.47 109.518C157.623 109.434 157.777 109.351 157.936 109.262L157.213 99.6543L158.364 93.0648L152.063 88.7878C151.71 89.2968 151.314 89.7752 150.88 90.2181C150.258 90.8655 149.529 91.4025 148.726 91.8063C144.206 94.026 139.06 90.4968 136.502 88.3142L135.919 87.7987C135.257 87.1997 134.88 86.791 134.88 86.791L131.729 91.6391L134.293 105.05Z" fill="#53526B"/>
<path d="M151.76 105.623C151.76 105.623 152.105 108.359 152.557 111.628H152.604L153 111.489C154.509 110.959 155.973 110.313 157.381 109.557L157.469 109.51C157.623 109.427 157.777 109.343 157.936 109.255C160.002 108.099 161.931 106.716 163.687 105.131L163.84 104.987C164.803 104.119 165.708 103.188 166.548 102.201L166.646 102.085C164.982 96.3312 161.519 94.5201 161.519 94.5201C161.519 94.5201 158.369 93.0899 157.507 91.093C156.645 89.0962 149.034 84.875 149.034 84.875V84.9075C149.034 85.2651 148.913 88.5389 148.731 91.8314C148.615 93.9722 148.47 96.1222 148.302 97.4875C148.266 97.931 148.185 98.3698 148.06 98.7971C147.468 100.204 151.76 105.623 151.76 105.623Z" fill="#555388"/>
</g>
<defs>
<linearGradient id="paint0_linear" x1="239.681" y1="368.995" x2="239.681" y2="18.2461" gradientUnits="userSpaceOnUse">
<stop stop-color="#808080" stop-opacity="0.25"/>
<stop offset="0.54" stop-color="#808080" stop-opacity="0.12"/>
<stop offset="1" stop-color="#808080" stop-opacity="0.1"/>
</linearGradient>
<linearGradient id="paint1_linear" x1="17431.9" y1="28768.2" x2="17431.9" y2="21966.9" gradientUnits="userSpaceOnUse">
<stop stop-color="#808080" stop-opacity="0.25"/>
<stop offset="0.54" stop-color="#808080" stop-opacity="0.12"/>
<stop offset="1" stop-color="#808080" stop-opacity="0.1"/>
</linearGradient>
<linearGradient id="paint2_linear" x1="-81493.3" y1="219029" x2="-81493.3" y2="82097.1" gradientUnits="userSpaceOnUse">
<stop stop-color="#808080" stop-opacity="0.25"/>
<stop offset="0.54" stop-color="#808080" stop-opacity="0.12"/>
<stop offset="1" stop-color="#808080" stop-opacity="0.1"/>
</linearGradient>
<linearGradient id="paint3_linear" x1="126371" y1="135467" x2="126371" y2="13024.4" gradientUnits="userSpaceOnUse">
<stop stop-color="#808080" stop-opacity="0.25"/>
<stop offset="0.54" stop-color="#808080" stop-opacity="0.12"/>
<stop offset="1" stop-color="#808080" stop-opacity="0.1"/>
</linearGradient>
<clipPath id="clip0">
<rect width="519" height="392" fill="white"/>
</clipPath>
</defs>
</svg>
