<svg width="219" height="152" viewBox="0 0 219 152" fill="none" xmlns="http://www.w3.org/2000/svg">
<g clip-path="url(#clip0)">
<path opacity="0.1" d="M123.873 21.526C109.835 21.5448 96.3234 17.5704 83.3994 13.1553C70.4754 8.74026 57.6509 3.79626 43.8743 1.70125C35.0142 0.354598 24.9391 0.478385 18.0132 5.36799C11.3465 10.0719 9.41599 17.8574 8.48453 25.0502C7.78405 30.4612 7.46105 36.1404 10.0845 41.09C11.9061 44.5261 15.0235 47.3582 17.2207 50.6329C24.8902 62.0251 20.278 76.5776 12.8245 88.2343C9.3296 93.7034 5.23569 98.9456 2.59342 104.728C-0.0488436 110.51 -1.13242 117.067 1.56243 122.775C4.23286 128.431 10.2648 132.537 16.7381 135.341C29.8837 141.046 45.1889 142.269 60.0829 142.74C93.052 143.785 126.085 141.654 159.03 139.524C171.221 138.736 183.467 137.942 195.407 135.66C202.037 134.394 208.863 132.515 213.563 128.396C219.53 123.167 220.75 114.629 216.408 108.492C209.128 98.1992 189.929 96.2579 184.709 85.1208C181.83 78.9896 184.312 71.9581 187.969 66.0482C195.811 53.3675 209.31 42.0091 209.537 27.826C209.693 18.0862 202.673 8.58458 192.189 4.35143C181.199 -0.0824087 166.215 1.05794 158.515 9.32168C150.598 17.8349 136.267 21.5129 123.873 21.526Z" fill="#BA1C51"/>
<path d="M186.391 122.011C186.391 122.011 184.083 120.49 181.796 121.572C181.796 121.572 182.5 122.926 185.396 122.799L186.391 122.011Z" fill="#BA1C51"/>
<path d="M186.684 122.094C186.684 122.094 187.387 124.765 185.625 126.582C185.625 126.582 184.566 125.481 185.625 122.784L186.684 122.094Z" fill="#BA1C51"/>
<path d="M189.554 119.53C189.554 119.53 189.383 117.259 184.247 118.013C184.247 118.013 184.222 119.478 186.025 120.172C187.828 120.865 188.654 120.28 189.554 119.53Z" fill="#BA1C51"/>
<path d="M189.876 119.514C189.876 119.514 192.047 120.21 190.111 125.02C190.111 125.02 188.678 124.701 188.421 122.787C188.164 120.872 188.926 120.211 189.876 119.514Z" fill="#BA1C51"/>
<path d="M192.776 116.291C192.776 116.291 193.071 112.553 187.822 112.936C187.822 112.936 187.447 116.312 191.851 117.19L192.776 116.291Z" fill="#BA1C51"/>
<path d="M196.245 112.071C196.245 112.071 195.526 107.834 190.279 109.096C190.279 109.096 190.26 112.759 195.388 113.08L196.245 112.071Z" fill="#BA1C51"/>
<path d="M198.78 107.708C198.78 107.708 197.575 103.582 192.376 104.816C192.376 104.816 193.614 108.528 198.435 108.47L198.78 107.708Z" fill="#BA1C51"/>
<path d="M201.188 103.449C201.188 103.449 200.01 99.1672 194.99 100.448C194.99 100.448 196.666 104.516 200.855 104.173L201.188 103.449Z" fill="#BA1C51"/>
<path d="M202.739 99.3993C202.739 99.3993 201.834 94.1627 197.154 95.3218C197.154 95.3218 198.514 100.086 202.395 100.163L202.739 99.3993Z" fill="#BA1C51"/>
<path d="M204.194 94.5107C204.194 94.5107 203.107 89.2329 198.373 90.7596C198.373 90.7596 200.228 95.7486 203.858 95.2328L204.194 94.5107Z" fill="#BA1C51"/>
<path d="M205.088 89.9603C205.088 89.9603 203.362 84.6806 199.702 84.8231C199.702 84.8231 201.466 90.3992 204.782 91.0125L205.088 89.9603Z" fill="#BA1C51"/>
<path d="M205.667 85.5187C205.667 85.5187 203.789 79.1643 200.811 79.6539C200.811 79.6539 202.11 84.5116 205.562 86.509L205.667 85.5187Z" fill="#BA1C51"/>
<path d="M205.993 80.2215C205.993 80.2215 204.232 74.9268 201.299 74.7148C201.299 74.7148 202.497 79.9252 205.935 81.5982L205.993 80.2215Z" fill="#BA1C51"/>
<path d="M206.348 75.2759C206.348 75.2759 204.153 69.9755 202.217 69.8555C202.217 69.8555 203.171 75.0752 206.16 76.1461L206.348 75.2759Z" fill="#BA1C51"/>
<path d="M206.591 70.6777C206.591 70.6777 205.24 64.9216 203.301 64.4434C203.301 64.4434 203.565 69.1529 206.395 71.1091L206.591 70.6777Z" fill="#BA1C51"/>
<path d="M207.323 64.6543C207.323 64.6543 205.903 60.0648 204.331 59.3652C204.331 59.3652 204.641 64.7762 206.96 65.7759L207.323 64.6543Z" fill="#BA1C51"/>
<path d="M207.93 60.7162L208.215 52.625C208.215 52.625 205.276 58.7243 207.717 62.136L207.93 60.7162Z" fill="#BA1C51"/>
<path d="M210.198 52.6678C210.198 52.6678 212.314 46.7598 212.827 46.4297C212.827 46.4297 208.677 50.2633 209.082 55.1942L210.198 52.6678Z" fill="#BA1C51"/>
<path d="M192.919 116.264C192.919 116.264 196.641 115.778 196.53 121.031C196.53 121.031 193.167 121.579 192.068 117.233L192.919 116.264Z" fill="#BA1C51"/>
<path d="M196.421 111.93C196.421 111.93 200.722 111.917 200.365 117.294C200.365 117.294 196.754 117.939 195.563 112.946L196.421 111.93Z" fill="#BA1C51"/>
<path d="M198.821 108.056C198.821 108.056 202.726 106.227 205.223 110.948C205.223 110.948 201.618 112.471 198.476 108.819L198.821 108.056Z" fill="#BA1C51"/>
<path d="M201.274 103.487C201.274 103.487 205.272 101.542 207.619 106.153C207.619 106.153 203.454 107.585 200.943 104.217L201.274 103.487Z" fill="#BA1C51"/>
<path d="M202.688 99.5137C202.688 99.5137 206.536 95.8432 209.606 99.555C209.606 99.555 205.676 102.577 202.511 100.331L202.688 99.5137Z" fill="#BA1C51"/>
<path d="M203.976 94.3848C203.976 94.3848 207.847 90.6336 210.893 94.5574C210.893 94.5574 206.549 97.6389 203.837 95.1725L203.976 94.3848Z" fill="#BA1C51"/>
<path d="M204.699 89.8103C204.699 89.8103 207.682 85.1214 211.193 86.168C211.193 86.168 208.099 91.1326 204.733 90.9113L204.699 89.8103Z" fill="#BA1C51"/>
<path d="M205.578 85.4888C205.578 85.4888 208.583 79.5845 211.426 80.6123C211.426 80.6123 209.259 85.1512 205.501 86.4848L205.578 85.4888Z" fill="#BA1C51"/>
<path d="M205.787 79.9127C205.787 79.9127 208.876 75.265 211.77 75.8333C211.77 75.8333 209.244 80.5466 205.486 81.2575L205.787 79.9127Z" fill="#BA1C51"/>
<path d="M206.027 75.1735C206.027 75.1735 208.421 69.9575 210.367 69.9219C210.367 69.9219 209.218 75.1003 206.189 76.0587L206.027 75.1735Z" fill="#BA1C51"/>
<path d="M206.497 70.5663C206.497 70.5663 209.158 65.2847 211.158 65.2734C211.158 65.2734 209.796 69.7898 206.585 71.0295L206.497 70.5663Z" fill="#BA1C51"/>
<path d="M206.896 64.9844C206.896 64.9844 208.887 60.6143 210.536 60.1191C210.536 60.1191 209.541 65.4458 207.116 66.1435L206.896 64.9844Z" fill="#BA1C51"/>
<path d="M208.166 60.556L212.615 53.7871C212.615 53.7871 211.475 60.4641 207.516 61.8521L208.166 60.556Z" fill="#BA1C51"/>
<path d="M211.22 53.2136C211.22 53.2136 216.39 49.65 216.577 49.0742C216.577 49.0742 213.948 54.0651 209.066 54.9466L211.22 53.2136Z" fill="#BA1C51"/>
<path d="M211.53 51.6103C211.53 51.6103 217.466 45.9104 218.981 45.916C218.981 45.916 214.086 46.1392 211.387 51.3064L211.53 51.6103Z" fill="#BA1C51"/>
<path d="M206.955 65.8301L207.171 65.8582C208.286 57.1387 209.913 51.979 211.749 51.3469L211.678 51.1406C209.73 51.8158 208.093 56.8967 206.955 65.8301Z" fill="#444053"/>
<path d="M205.313 86.6832L205.64 86.7095C205.71 85.8955 205.762 85.0627 205.798 84.2318C206.11 77.0147 206.592 70.3864 207.227 65.418L207.039 65.1836C206.403 70.1632 205.783 76.9903 205.471 84.2187C205.436 85.044 205.383 85.873 205.313 86.6832Z" fill="#444053"/>
<path d="M180.299 126.171C180.355 126.147 186.108 123.581 192.078 117.463C195.575 113.88 198.481 109.765 200.688 105.272C203.448 99.6583 205.131 92.76 205.694 86.0586L205.355 86.218C204.087 101.26 197.231 111.538 191.779 117.137C185.867 123.2 180.179 125.74 180.123 125.764L180.299 126.171Z" fill="#444053"/>
<path d="M195.193 16.9551H14.7455C14.3191 16.9551 13.9102 17.1242 13.6088 17.4253C13.3073 17.7264 13.1379 18.1348 13.1379 18.5606V23.2382H196.801V18.5606C196.801 18.1348 196.631 17.7264 196.33 17.4253C196.028 17.1242 195.62 16.9551 195.193 16.9551Z" fill="#3F3D56"/>
<path d="M13.1379 23.2402V128.505C13.1379 129.363 13.4794 130.186 14.0873 130.794C14.6952 131.401 15.5196 131.742 16.3793 131.742H193.559C194.419 131.742 195.244 131.401 195.851 130.794C196.459 130.186 196.801 129.363 196.801 128.505V23.2402H13.1379Z" fill="white"/>
<path opacity="0.8" d="M16.0468 20.8012C16.4617 20.8012 16.798 20.4653 16.798 20.051C16.798 19.6367 16.4617 19.3008 16.0468 19.3008C15.632 19.3008 15.2957 19.6367 15.2957 20.051C15.2957 20.4653 15.632 20.8012 16.0468 20.8012Z" fill="#FA5959"/>
<path opacity="0.8" d="M18.1127 20.8012C18.5276 20.8012 18.8639 20.4653 18.8639 20.051C18.8639 19.6367 18.5276 19.3008 18.1127 19.3008C17.6979 19.3008 17.3616 19.6367 17.3616 20.051C17.3616 20.4653 17.6979 20.8012 18.1127 20.8012Z" fill="#FED253"/>
<path opacity="0.8" d="M20.1782 20.8012C20.593 20.8012 20.9294 20.4653 20.9294 20.051C20.9294 19.6367 20.593 19.3008 20.1782 19.3008C19.7633 19.3008 19.427 19.6367 19.427 20.051C19.427 20.4653 19.7633 20.8012 20.1782 20.8012Z" fill="#8CCF4D"/>
<path opacity="0.05" d="M177.817 40.791H30.2104V105.614H177.817V40.791Z" fill="black"/>
<path d="M176.69 41.2812H31.3374V104.675H176.69V41.2812Z" fill="#3F3D56"/>
<path d="M70.9616 57.5977C68.1017 57.5977 65.306 58.4447 62.928 60.0315C60.55 61.6184 58.6966 63.8739 57.6022 66.5129C56.5077 69.1518 56.2214 72.0555 56.7793 74.857C57.3373 77.6584 58.7145 80.2317 60.7367 82.2515C62.759 84.2712 65.3356 85.6466 68.1406 86.2039C70.9456 86.7611 73.853 86.4751 76.4953 85.3821C79.1375 84.289 81.3959 82.4379 82.9848 80.063C84.5737 77.688 85.4218 74.8958 85.4218 72.0395C85.4218 70.143 85.0477 68.265 84.3211 66.5129C83.5944 64.7607 82.5292 63.1686 81.1865 61.8276C79.8437 60.4865 78.2497 59.4227 76.4953 58.697C74.7409 57.9712 72.8606 57.5977 70.9616 57.5977ZM73.5551 72.3865V79.2248H68.4433V72.3865C67.7359 71.8517 67.2146 71.1085 66.9529 70.2619C66.6912 69.4153 66.7023 68.5079 66.9847 67.6679C67.2671 66.8279 67.8066 66.0978 68.5269 65.5805C69.2472 65.0632 70.112 64.7849 70.9992 64.7849C71.8864 64.7849 72.7512 65.0632 73.4715 65.5805C74.1918 66.0978 74.7312 66.8279 75.0136 67.6679C75.2961 68.5079 75.3072 69.4153 75.0455 70.2619C74.7838 71.1085 74.2624 71.8517 73.5551 72.3865Z" fill="#BA1C51"/>
<path opacity="0.05" d="M70.9616 57.5977C68.1017 57.5977 65.306 58.4447 62.928 60.0315C60.55 61.6184 58.6966 63.8739 57.6022 66.5129C56.5077 69.1518 56.2214 72.0555 56.7793 74.857C57.3373 77.6584 58.7145 80.2317 60.7367 82.2515C62.759 84.2712 65.3356 85.6466 68.1406 86.2039C70.9456 86.7611 73.853 86.4751 76.4953 85.3821C79.1375 84.289 81.3959 82.4379 82.9848 80.063C84.5737 77.688 85.4218 74.8958 85.4218 72.0395C85.4218 70.143 85.0477 68.265 84.3211 66.5129C83.5944 64.7607 82.5292 63.1686 81.1865 61.8276C79.8437 60.4865 78.2497 59.4227 76.4953 58.697C74.7409 57.9712 72.8606 57.5977 70.9616 57.5977ZM73.5551 72.3865V79.2248H68.4433V72.3865C67.7359 71.8517 67.2146 71.1085 66.9529 70.2619C66.6912 69.4153 66.7023 68.5079 66.9847 67.6679C67.2671 66.8279 67.8066 66.0978 68.5269 65.5805C69.2472 65.0632 70.112 64.7849 70.9992 64.7849C71.8864 64.7849 72.7512 65.0632 73.4715 65.5805C74.1918 66.0978 74.7312 66.8279 75.0136 67.6679C75.2961 68.5079 75.3072 69.4153 75.0455 70.2619C74.7838 71.1085 74.2624 71.8517 73.5551 72.3865Z" fill="black"/>
<path d="M70.962 53.4727C67.2849 53.4727 63.6904 54.5617 60.633 56.6019C57.5757 58.6422 55.1927 61.5422 53.7856 64.9351C52.3784 68.3279 52.0102 72.0614 52.7276 75.6632C53.445 79.2651 55.2156 82.5736 57.8157 85.1704C60.4158 87.7672 63.7285 89.5357 67.335 90.2521C70.9414 90.9686 74.6795 90.6008 78.0767 89.1955C81.4739 87.7901 84.3775 85.4102 86.4204 82.3567C88.4632 79.3032 89.5536 75.7132 89.5536 72.0408C89.5536 67.1162 87.5949 62.3933 84.1083 58.9111C80.6217 55.4289 75.8928 53.4727 70.962 53.4727ZM74.2953 72.4872V81.2779H67.7225V72.4872C66.8127 71.7995 66.1421 70.8438 65.8054 69.7549C65.4687 68.6661 65.483 67.4991 65.8461 66.4188C66.2093 65.3385 66.903 64.3994 67.8294 63.7341C68.7557 63.0688 69.8679 62.7108 71.0089 62.7108C72.15 62.7108 73.2622 63.0688 74.1885 63.7341C75.1149 64.3994 75.8086 65.3385 76.1718 66.4188C76.5349 67.4991 76.5492 68.6661 76.2125 69.7549C75.8758 70.8438 75.2052 71.7995 74.2953 72.4872Z" fill="#BA1C51"/>
<path d="M157.347 69.6035H97.2532V75.9805H157.347V69.6035Z" fill="white"/>
<path d="M157.347 81.2324H144.389V87.6093H157.347V81.2324Z" fill="#BA1C51"/>
<path d="M103.169 72.6957H102.081L103.048 71.7317C103.066 71.7138 103.075 71.6899 103.075 71.6651C103.075 71.6402 103.066 71.6163 103.048 71.5985C103.04 71.5897 103.029 71.5827 103.018 71.578C103.006 71.5732 102.994 71.5708 102.982 71.5708C102.969 71.5708 102.957 71.5732 102.946 71.578C102.934 71.5827 102.924 71.5897 102.915 71.5985L101.948 72.5644V71.4766C101.948 71.4517 101.938 71.4279 101.92 71.4103C101.903 71.3927 101.879 71.3828 101.854 71.3828C101.829 71.3833 101.806 71.3933 101.788 71.4108C101.771 71.4283 101.761 71.4519 101.76 71.4766V72.5644L100.795 71.5929C100.786 71.5841 100.776 71.5771 100.764 71.5724C100.753 71.5676 100.741 71.5651 100.728 71.5651C100.716 71.5651 100.704 71.5676 100.692 71.5724C100.681 71.5771 100.67 71.5841 100.662 71.5929C100.644 71.6107 100.634 71.6346 100.634 71.6595C100.634 71.6843 100.644 71.7082 100.662 71.726L101.629 72.6901H100.539C100.515 72.6906 100.491 72.7006 100.474 72.7181C100.456 72.7356 100.446 72.7591 100.446 72.7839C100.446 72.8087 100.455 72.8326 100.473 72.8502C100.491 72.8678 100.515 72.8776 100.539 72.8776H101.629L100.662 73.8436C100.644 73.8614 100.634 73.8853 100.634 73.9101C100.634 73.935 100.644 73.9589 100.662 73.9767C100.68 73.9936 100.703 74.003 100.728 74.003C100.753 74.003 100.777 73.9936 100.795 73.9767L101.76 73.0108V74.0968C101.76 74.1216 101.77 74.1455 101.788 74.1631C101.805 74.1807 101.829 74.1905 101.854 74.1905C101.879 74.1905 101.903 74.1807 101.92 74.1631C101.938 74.1455 101.948 74.1216 101.948 74.0968V73.0108L102.915 73.9767C102.933 73.9936 102.957 74.003 102.982 74.003C103.006 74.003 103.03 73.9936 103.048 73.9767C103.066 73.9589 103.075 73.935 103.075 73.9101C103.075 73.8853 103.066 73.8614 103.048 73.8436L102.081 72.8776H103.169C103.193 72.8776 103.217 72.8678 103.235 72.8502C103.253 72.8326 103.262 72.8087 103.262 72.7839C103.261 72.76 103.251 72.7375 103.233 72.7212C103.216 72.7048 103.193 72.6957 103.169 72.6957Z" fill="#BA1C51"/>
<path d="M107.112 72.6957H106.025L106.992 71.7317C107.009 71.7138 107.019 71.6899 107.019 71.6651C107.019 71.6402 107.009 71.6163 106.992 71.5985C106.983 71.5897 106.973 71.5827 106.961 71.578C106.95 71.5732 106.938 71.5708 106.925 71.5708C106.913 71.5708 106.901 71.5732 106.889 71.578C106.878 71.5827 106.867 71.5897 106.859 71.5985L105.892 72.5644V71.4766C105.892 71.4517 105.882 71.4279 105.864 71.4103C105.846 71.3927 105.823 71.3828 105.798 71.3828C105.773 71.3833 105.749 71.3933 105.732 71.4108C105.714 71.4283 105.704 71.4519 105.704 71.4766V72.5644L104.738 71.5929C104.73 71.5841 104.719 71.5771 104.708 71.5724C104.696 71.5676 104.684 71.5651 104.672 71.5651C104.659 71.5651 104.647 71.5676 104.636 71.5724C104.624 71.5771 104.614 71.5841 104.605 71.5929C104.588 71.6107 104.578 71.6346 104.578 71.6595C104.578 71.6843 104.588 71.7082 104.605 71.726L105.572 72.6901H104.483C104.458 72.6906 104.435 72.7006 104.417 72.7181C104.4 72.7356 104.39 72.7591 104.389 72.7839C104.389 72.8087 104.399 72.8326 104.417 72.8502C104.434 72.8678 104.458 72.8776 104.483 72.8776H105.572L104.605 73.8436C104.588 73.8614 104.578 73.8853 104.578 73.9101C104.578 73.935 104.588 73.9589 104.605 73.9767C104.623 73.9936 104.647 74.003 104.672 74.003C104.697 74.003 104.72 73.9936 104.738 73.9767L105.704 73.0108V74.0968C105.704 74.1216 105.714 74.1455 105.731 74.1631C105.749 74.1807 105.773 74.1905 105.798 74.1905C105.823 74.1905 105.846 74.1807 105.864 74.1631C105.882 74.1455 105.892 74.1216 105.892 74.0968V73.0108L106.859 73.9767C106.877 73.9936 106.901 74.003 106.925 74.003C106.95 74.003 106.974 73.9936 106.992 73.9767C107.009 73.9589 107.019 73.935 107.019 73.9101C107.019 73.8853 107.009 73.8614 106.992 73.8436L106.025 72.8776H107.112C107.137 72.8776 107.161 72.8678 107.179 72.8502C107.196 72.8326 107.206 72.8087 107.206 72.7839C107.205 72.76 107.194 72.7375 107.177 72.7212C107.159 72.7048 107.136 72.6957 107.112 72.6957Z" fill="#BA1C51"/>
<path d="M111.056 72.6957H109.969L110.936 71.7317C110.953 71.7138 110.963 71.6899 110.963 71.6651C110.963 71.6402 110.953 71.6163 110.936 71.5985C110.927 71.5897 110.917 71.5827 110.905 71.578C110.894 71.5732 110.882 71.5708 110.869 71.5708C110.857 71.5708 110.844 71.5732 110.833 71.578C110.822 71.5827 110.811 71.5897 110.802 71.5985L109.835 72.5644V71.4766C109.835 71.4517 109.825 71.4279 109.808 71.4103C109.79 71.3927 109.766 71.3828 109.741 71.3828C109.717 71.3833 109.693 71.3933 109.676 71.4108C109.658 71.4283 109.648 71.4519 109.648 71.4766V72.5644L108.682 71.5929C108.674 71.5841 108.663 71.5771 108.652 71.5724C108.64 71.5676 108.628 71.5651 108.616 71.5651C108.603 71.5651 108.591 71.5676 108.58 71.5724C108.568 71.5771 108.558 71.5841 108.549 71.5929C108.532 71.6107 108.522 71.6346 108.522 71.6595C108.522 71.6843 108.532 71.7082 108.549 71.726L109.516 72.6901H108.427C108.402 72.6906 108.379 72.7006 108.361 72.7181C108.344 72.7356 108.333 72.7591 108.333 72.7839C108.333 72.8087 108.343 72.8326 108.361 72.8502C108.378 72.8678 108.402 72.8776 108.427 72.8776H109.516L108.549 73.8436C108.532 73.8614 108.522 73.8853 108.522 73.9101C108.522 73.935 108.532 73.9589 108.549 73.9767C108.567 73.9936 108.591 74.003 108.616 74.003C108.64 74.003 108.664 73.9936 108.682 73.9767L109.648 73.0108V74.0968C109.648 74.1216 109.657 74.1455 109.675 74.1631C109.693 74.1807 109.717 74.1905 109.741 74.1905C109.766 74.1905 109.79 74.1807 109.808 74.1631C109.825 74.1455 109.835 74.1216 109.835 74.0968V73.0108L110.802 73.9767C110.821 73.9936 110.844 74.003 110.869 74.003C110.894 74.003 110.918 73.9936 110.936 73.9767C110.953 73.9589 110.963 73.935 110.963 73.9101C110.963 73.8853 110.953 73.8614 110.936 73.8436L109.969 72.8776H111.056C111.081 72.8776 111.105 72.8678 111.122 72.8502C111.14 72.8326 111.15 72.8087 111.15 72.7839C111.148 72.76 111.138 72.7375 111.12 72.7212C111.103 72.7048 111.08 72.6957 111.056 72.6957Z" fill="#BA1C51"/>
<path d="M115 72.6957H113.912L114.879 71.7317C114.897 71.7138 114.906 71.6899 114.906 71.6651C114.906 71.6402 114.897 71.6163 114.879 71.5985C114.871 71.5897 114.86 71.5827 114.849 71.578C114.837 71.5732 114.825 71.5708 114.813 71.5708C114.8 71.5708 114.788 71.5732 114.777 71.578C114.765 71.5827 114.755 71.5897 114.746 71.5985L113.779 72.5644V71.4766C113.779 71.4517 113.769 71.4279 113.751 71.4103C113.734 71.3927 113.71 71.3828 113.685 71.3828C113.66 71.3833 113.637 71.3933 113.619 71.4108C113.602 71.4283 113.592 71.4519 113.591 71.4766V72.5644L112.626 71.5929C112.617 71.5841 112.607 71.5771 112.595 71.5724C112.584 71.5676 112.572 71.5651 112.559 71.5651C112.547 71.5651 112.535 71.5676 112.523 71.5724C112.512 71.5771 112.501 71.5841 112.493 71.5929C112.475 71.6107 112.466 71.6346 112.466 71.6595C112.466 71.6843 112.475 71.7082 112.493 71.726L113.46 72.6901H112.371C112.346 72.6906 112.322 72.7006 112.305 72.7181C112.287 72.7356 112.277 72.7591 112.277 72.7839C112.277 72.8087 112.286 72.8326 112.304 72.8502C112.322 72.8678 112.346 72.8776 112.371 72.8776H113.46L112.493 73.8436C112.475 73.8614 112.466 73.8853 112.466 73.9101C112.466 73.935 112.475 73.9589 112.493 73.9767C112.511 73.9936 112.534 74.003 112.559 74.003C112.584 74.003 112.608 73.9936 112.626 73.9767L113.591 73.0108V74.0968C113.591 74.1216 113.601 74.1455 113.619 74.1631C113.636 74.1807 113.66 74.1905 113.685 74.1905C113.71 74.1905 113.734 74.1807 113.751 74.1631C113.769 74.1455 113.779 74.1216 113.779 74.0968V73.0108L114.746 73.9767C114.764 73.9936 114.788 74.003 114.813 74.003C114.837 74.003 114.861 73.9936 114.879 73.9767C114.897 73.9589 114.906 73.935 114.906 73.9101C114.906 73.8853 114.897 73.8614 114.879 73.8436L113.912 72.8776H115C115.024 72.8776 115.048 72.8678 115.066 72.8502C115.084 72.8326 115.093 72.8087 115.093 72.7839C115.092 72.76 115.082 72.7375 115.064 72.7212C115.047 72.7048 115.024 72.6957 115 72.6957Z" fill="#BA1C51"/>
<path d="M118.943 72.6957H117.856L118.823 71.7317C118.84 71.7138 118.85 71.6899 118.85 71.6651C118.85 71.6402 118.84 71.6163 118.823 71.5985C118.814 71.5897 118.804 71.5827 118.792 71.578C118.781 71.5732 118.769 71.5708 118.756 71.5708C118.744 71.5708 118.732 71.5732 118.72 71.578C118.709 71.5827 118.698 71.5897 118.69 71.5985L117.723 72.5644V71.4766C117.723 71.4517 117.713 71.4279 117.695 71.4103C117.677 71.3927 117.654 71.3828 117.629 71.3828C117.604 71.3833 117.58 71.3933 117.563 71.4108C117.545 71.4283 117.535 71.4519 117.535 71.4766V72.5644L116.57 71.5929C116.561 71.5841 116.55 71.5771 116.539 71.5724C116.528 71.5676 116.515 71.5651 116.503 71.5651C116.49 71.5651 116.478 71.5676 116.467 71.5724C116.455 71.5771 116.445 71.5841 116.436 71.5929C116.419 71.6107 116.409 71.6346 116.409 71.6595C116.409 71.6843 116.419 71.7082 116.436 71.726L117.403 72.6901H116.314C116.289 72.6906 116.266 72.7006 116.248 72.7181C116.231 72.7356 116.221 72.7591 116.22 72.7839C116.22 72.8087 116.23 72.8326 116.248 72.8502C116.265 72.8678 116.289 72.8776 116.314 72.8776H117.403L116.436 73.8436C116.419 73.8614 116.409 73.8853 116.409 73.9101C116.409 73.935 116.419 73.9589 116.436 73.9767C116.454 73.9936 116.478 74.003 116.503 74.003C116.528 74.003 116.551 73.9936 116.57 73.9767L117.535 73.0108V74.0968C117.535 74.1216 117.545 74.1455 117.562 74.1631C117.58 74.1807 117.604 74.1905 117.629 74.1905C117.654 74.1905 117.677 74.1807 117.695 74.1631C117.713 74.1455 117.723 74.1216 117.723 74.0968V73.0108L118.69 73.9767C118.708 73.9936 118.732 74.003 118.756 74.003C118.781 74.003 118.805 73.9936 118.823 73.9767C118.84 73.9589 118.85 73.935 118.85 73.9101C118.85 73.8853 118.84 73.8614 118.823 73.8436L117.856 72.8776H118.943C118.968 72.8776 118.992 72.8678 119.01 72.8502C119.027 72.8326 119.037 72.8087 119.037 72.7839C119.036 72.76 119.025 72.7375 119.008 72.7212C118.99 72.7048 118.967 72.6957 118.943 72.6957Z" fill="#BA1C51"/>
<path d="M122.887 72.6957H121.799L122.766 71.7317C122.784 71.7138 122.793 71.6899 122.793 71.6651C122.793 71.6402 122.784 71.6163 122.766 71.5985C122.758 71.5897 122.747 71.5827 122.736 71.578C122.724 71.5732 122.712 71.5708 122.7 71.5708C122.687 71.5708 122.675 71.5732 122.664 71.578C122.652 71.5827 122.642 71.5897 122.633 71.5985L121.666 72.5644V71.4766C121.666 71.4517 121.656 71.4279 121.638 71.4103C121.621 71.3927 121.597 71.3828 121.572 71.3828C121.547 71.3833 121.524 71.3933 121.506 71.4108C121.489 71.4283 121.479 71.4519 121.478 71.4766V72.5644L120.513 71.5929C120.504 71.5841 120.494 71.5771 120.482 71.5724C120.471 71.5676 120.459 71.5651 120.446 71.5651C120.434 71.5651 120.422 71.5676 120.41 71.5724C120.399 71.5771 120.388 71.5841 120.38 71.5929C120.362 71.6107 120.353 71.6346 120.353 71.6595C120.353 71.6843 120.362 71.7082 120.38 71.726L121.347 72.6901H120.257C120.233 72.6906 120.209 72.7006 120.192 72.7181C120.174 72.7356 120.164 72.7591 120.164 72.7839C120.164 72.8087 120.173 72.8326 120.191 72.8502C120.209 72.8678 120.233 72.8776 120.257 72.8776H121.347L120.38 73.8436C120.362 73.8614 120.353 73.8853 120.353 73.9101C120.353 73.935 120.362 73.9589 120.38 73.9767C120.398 73.9936 120.421 74.003 120.446 74.003C120.471 74.003 120.495 73.9936 120.513 73.9767L121.478 73.0108V74.0968C121.478 74.1216 121.488 74.1455 121.506 74.1631C121.523 74.1807 121.547 74.1905 121.572 74.1905C121.597 74.1905 121.621 74.1807 121.638 74.1631C121.656 74.1455 121.666 74.1216 121.666 74.0968V73.0108L122.633 73.9767C122.651 73.9936 122.675 74.003 122.7 74.003C122.725 74.003 122.748 73.9936 122.766 73.9767C122.784 73.9589 122.793 73.935 122.793 73.9101C122.793 73.8853 122.784 73.8614 122.766 73.8436L121.799 72.8776H122.887C122.912 72.8776 122.935 72.8678 122.953 72.8502C122.971 72.8326 122.981 72.8087 122.981 72.7839C122.979 72.76 122.969 72.7375 122.951 72.7212C122.934 72.7048 122.911 72.6957 122.887 72.6957Z" fill="#BA1C51"/>
<path d="M126.831 72.6957H125.743L126.71 71.7317C126.728 71.7138 126.737 71.6899 126.737 71.6651C126.737 71.6402 126.728 71.6163 126.71 71.5985C126.702 71.5897 126.691 71.5827 126.68 71.578C126.668 71.5732 126.656 71.5708 126.644 71.5708C126.631 71.5708 126.619 71.5732 126.608 71.578C126.596 71.5827 126.586 71.5897 126.577 71.5985L125.61 72.5644V71.4766C125.61 71.4517 125.6 71.4279 125.582 71.4103C125.565 71.3927 125.541 71.3828 125.516 71.3828C125.491 71.3833 125.468 71.3933 125.45 71.4108C125.433 71.4283 125.423 71.4519 125.422 71.4766V72.5644L124.457 71.5929C124.448 71.5841 124.438 71.5771 124.426 71.5724C124.415 71.5676 124.403 71.5651 124.39 71.5651C124.378 71.5651 124.366 71.5676 124.354 71.5724C124.343 71.5771 124.332 71.5841 124.324 71.5929C124.306 71.6107 124.297 71.6346 124.297 71.6595C124.297 71.6843 124.306 71.7082 124.324 71.726L125.291 72.6901H124.202C124.177 72.6906 124.153 72.7006 124.136 72.7181C124.118 72.7356 124.108 72.7591 124.108 72.7839C124.108 72.8087 124.118 72.8326 124.135 72.8502C124.153 72.8678 124.177 72.8776 124.202 72.8776H125.291L124.324 73.8436C124.306 73.8614 124.297 73.8853 124.297 73.9101C124.297 73.935 124.306 73.9589 124.324 73.9767C124.342 73.9936 124.366 74.003 124.39 74.003C124.415 74.003 124.439 73.9936 124.457 73.9767L125.422 73.0108V74.0968C125.422 74.1216 125.432 74.1455 125.45 74.1631C125.467 74.1807 125.491 74.1905 125.516 74.1905C125.541 74.1905 125.565 74.1807 125.582 74.1631C125.6 74.1455 125.61 74.1216 125.61 74.0968V73.0108L126.577 73.9767C126.595 73.9936 126.619 74.003 126.644 74.003C126.669 74.003 126.692 73.9936 126.71 73.9767C126.728 73.9589 126.737 73.935 126.737 73.9101C126.737 73.8853 126.728 73.8614 126.71 73.8436L125.743 72.8776H126.831C126.856 72.8776 126.879 72.8678 126.897 72.8502C126.915 72.8326 126.925 72.8087 126.925 72.7839C126.923 72.76 126.913 72.7375 126.895 72.7212C126.878 72.7048 126.855 72.6957 126.831 72.6957Z" fill="#BA1C51"/>
<path d="M130.775 72.6957H129.687L130.654 71.7317C130.672 71.7138 130.681 71.6899 130.681 71.6651C130.681 71.6402 130.672 71.6163 130.654 71.5985C130.646 71.5897 130.635 71.5827 130.624 71.578C130.612 71.5732 130.6 71.5708 130.588 71.5708C130.575 71.5708 130.563 71.5732 130.552 71.578C130.54 71.5827 130.53 71.5897 130.521 71.5985L129.554 72.5644V71.4766C129.554 71.4517 129.544 71.4279 129.526 71.4103C129.509 71.3927 129.485 71.3828 129.46 71.3828C129.435 71.3833 129.412 71.3933 129.394 71.4108C129.377 71.4283 129.367 71.4519 129.366 71.4766V72.5644L128.401 71.5929C128.392 71.5841 128.382 71.5771 128.37 71.5724C128.359 71.5676 128.347 71.5651 128.334 71.5651C128.322 71.5651 128.309 71.5676 128.298 71.5724C128.287 71.5771 128.276 71.5841 128.267 71.5929C128.25 71.6107 128.24 71.6346 128.24 71.6595C128.24 71.6843 128.25 71.7082 128.267 71.726L129.235 72.6901H128.145C128.121 72.6906 128.097 72.7006 128.08 72.7181C128.062 72.7356 128.052 72.7591 128.052 72.7839C128.052 72.8087 128.061 72.8326 128.079 72.8502C128.097 72.8678 128.121 72.8776 128.145 72.8776H129.235L128.267 73.8436C128.25 73.8614 128.24 73.8853 128.24 73.9101C128.24 73.935 128.25 73.9589 128.267 73.9767C128.286 73.9936 128.309 74.003 128.334 74.003C128.359 74.003 128.383 73.9936 128.401 73.9767L129.366 73.0108V74.0968C129.366 74.1216 129.376 74.1455 129.394 74.1631C129.411 74.1807 129.435 74.1905 129.46 74.1905C129.485 74.1905 129.509 74.1807 129.526 74.1631C129.544 74.1455 129.554 74.1216 129.554 74.0968V73.0108L130.521 73.9767C130.539 73.9936 130.563 74.003 130.588 74.003C130.612 74.003 130.636 73.9936 130.654 73.9767C130.672 73.9589 130.681 73.935 130.681 73.9101C130.681 73.8853 130.672 73.8614 130.654 73.8436L129.687 72.8776H130.775C130.799 72.8776 130.823 72.8678 130.841 72.8502C130.859 72.8326 130.868 72.8087 130.868 72.7839C130.867 72.76 130.856 72.7375 130.839 72.7212C130.822 72.7048 130.798 72.6957 130.775 72.6957Z" fill="#BA1C51"/>
<path d="M134.718 72.6957H133.631L134.598 71.7317C134.615 71.7138 134.625 71.6899 134.625 71.6651C134.625 71.6402 134.615 71.6163 134.598 71.5985C134.589 71.5897 134.579 71.5827 134.567 71.578C134.556 71.5732 134.544 71.5708 134.531 71.5708C134.519 71.5708 134.507 71.5732 134.495 71.578C134.484 71.5827 134.473 71.5897 134.465 71.5985L133.497 72.5644V71.4766C133.497 71.4517 133.488 71.4279 133.47 71.4103C133.452 71.3927 133.428 71.3828 133.404 71.3828C133.379 71.3833 133.355 71.3933 133.338 71.4108C133.32 71.4283 133.31 71.4519 133.31 71.4766V72.5644L132.344 71.5929C132.336 71.5841 132.325 71.5771 132.314 71.5724C132.302 71.5676 132.29 71.5651 132.278 71.5651C132.265 71.5651 132.253 71.5676 132.242 71.5724C132.23 71.5771 132.22 71.5841 132.211 71.5929C132.194 71.6107 132.184 71.6346 132.184 71.6595C132.184 71.6843 132.194 71.7082 132.211 71.726L133.178 72.6901H132.089C132.064 72.6906 132.041 72.7006 132.023 72.7181C132.006 72.7356 131.996 72.7591 131.995 72.7839C131.995 72.8087 132.005 72.8326 132.023 72.8502C132.04 72.8678 132.064 72.8776 132.089 72.8776H133.178L132.211 73.8436C132.194 73.8614 132.184 73.8853 132.184 73.9101C132.184 73.935 132.194 73.9589 132.211 73.9767C132.229 73.9936 132.253 74.003 132.278 74.003C132.302 74.003 132.326 73.9936 132.344 73.9767L133.31 73.0108V74.0968C133.31 74.1216 133.32 74.1455 133.337 74.1631C133.355 74.1807 133.379 74.1905 133.404 74.1905C133.428 74.1905 133.452 74.1807 133.47 74.1631C133.488 74.1455 133.497 74.1216 133.497 74.0968V73.0108L134.465 73.9767C134.483 73.9936 134.507 74.003 134.531 74.003C134.556 74.003 134.58 73.9936 134.598 73.9767C134.615 73.9589 134.625 73.935 134.625 73.9101C134.625 73.8853 134.615 73.8614 134.598 73.8436L133.631 72.8776H134.718C134.743 72.8776 134.767 72.8678 134.785 72.8502C134.802 72.8326 134.812 72.8087 134.812 72.7839C134.811 72.76 134.8 72.7375 134.783 72.7212C134.765 72.7048 134.742 72.6957 134.718 72.6957Z" fill="#BA1C51"/>
<path d="M138.662 72.6957H137.574L138.541 71.7317C138.559 71.7138 138.568 71.6899 138.568 71.6651C138.568 71.6402 138.559 71.6163 138.541 71.5985C138.533 71.5897 138.522 71.5827 138.511 71.578C138.499 71.5732 138.487 71.5708 138.475 71.5708C138.462 71.5708 138.45 71.5732 138.439 71.578C138.427 71.5827 138.417 71.5897 138.408 71.5985L137.441 72.5644V71.4766C137.441 71.4517 137.431 71.4279 137.413 71.4103C137.396 71.3927 137.372 71.3828 137.347 71.3828C137.322 71.3833 137.299 71.3933 137.281 71.4108C137.264 71.4283 137.254 71.4519 137.253 71.4766V72.5644L136.288 71.5929C136.279 71.5841 136.269 71.5771 136.257 71.5724C136.246 71.5676 136.233 71.5651 136.221 71.5651C136.209 71.5651 136.196 71.5676 136.185 71.5724C136.174 71.5771 136.163 71.5841 136.154 71.5929C136.137 71.6107 136.127 71.6346 136.127 71.6595C136.127 71.6843 136.137 71.7082 136.154 71.726L137.122 72.6901H136.032C136.008 72.6906 135.984 72.7006 135.967 72.7181C135.949 72.7356 135.939 72.7591 135.938 72.7839C135.938 72.8087 135.948 72.8326 135.966 72.8502C135.984 72.8678 136.007 72.8776 136.032 72.8776H137.122L136.154 73.8436C136.137 73.8614 136.127 73.8853 136.127 73.9101C136.127 73.935 136.137 73.9589 136.154 73.9767C136.173 73.9936 136.196 74.003 136.221 74.003C136.246 74.003 136.27 73.9936 136.288 73.9767L137.253 73.0108V74.0968C137.253 74.1216 137.263 74.1455 137.281 74.1631C137.298 74.1807 137.322 74.1905 137.347 74.1905C137.372 74.1905 137.396 74.1807 137.413 74.1631C137.431 74.1455 137.441 74.1216 137.441 74.0968V73.0108L138.408 73.9767C138.426 73.9936 138.45 74.003 138.475 74.003C138.499 74.003 138.523 73.9936 138.541 73.9767C138.559 73.9589 138.568 73.935 138.568 73.9101C138.568 73.8853 138.559 73.8614 138.541 73.8436L137.574 72.8776H138.662C138.686 72.8776 138.71 72.8678 138.728 72.8502C138.746 72.8326 138.755 72.8087 138.755 72.7839C138.754 72.76 138.743 72.7375 138.726 72.7212C138.709 72.7048 138.685 72.6957 138.662 72.6957Z" fill="#BA1C51"/>
<path d="M142.606 72.6957H141.518L142.485 71.7317C142.503 71.7138 142.512 71.6899 142.512 71.6651C142.512 71.6402 142.503 71.6163 142.485 71.5985C142.477 71.5897 142.466 71.5827 142.455 71.578C142.443 71.5732 142.431 71.5708 142.419 71.5708C142.406 71.5708 142.394 71.5732 142.383 71.578C142.371 71.5827 142.361 71.5897 142.352 71.5985L141.385 72.5644V71.4766C141.385 71.4517 141.375 71.4279 141.357 71.4103C141.34 71.3927 141.316 71.3828 141.291 71.3828C141.266 71.3833 141.243 71.3933 141.225 71.4108C141.208 71.4283 141.198 71.4519 141.197 71.4766V72.5644L140.232 71.5929C140.223 71.5841 140.213 71.5771 140.201 71.5724C140.19 71.5676 140.178 71.5651 140.165 71.5651C140.153 71.5651 140.141 71.5676 140.129 71.5724C140.118 71.5771 140.107 71.5841 140.099 71.5929C140.081 71.6107 140.072 71.6346 140.072 71.6595C140.072 71.6843 140.081 71.7082 140.099 71.726L141.066 72.6901H139.976C139.952 72.6906 139.928 72.7006 139.911 72.7181C139.893 72.7356 139.883 72.7591 139.883 72.7839C139.883 72.8087 139.892 72.8326 139.91 72.8502C139.928 72.8678 139.952 72.8776 139.976 72.8776H141.066L140.099 73.8436C140.081 73.8614 140.072 73.8853 140.072 73.9101C140.072 73.935 140.081 73.9589 140.099 73.9767C140.117 73.9936 140.14 74.003 140.165 74.003C140.19 74.003 140.214 73.9936 140.232 73.9767L141.197 73.0108V74.0968C141.197 74.1216 141.207 74.1455 141.225 74.1631C141.242 74.1807 141.266 74.1905 141.291 74.1905C141.316 74.1905 141.34 74.1807 141.357 74.1631C141.375 74.1455 141.385 74.1216 141.385 74.0968V73.0108L142.352 73.9767C142.37 73.9936 142.394 74.003 142.419 74.003C142.443 74.003 142.467 73.9936 142.485 73.9767C142.503 73.9589 142.512 73.935 142.512 73.9101C142.512 73.8853 142.503 73.8614 142.485 73.8436L141.518 72.8776H142.606C142.63 72.8776 142.654 72.8678 142.672 72.8502C142.69 72.8326 142.699 72.8087 142.699 72.7839C142.698 72.76 142.687 72.7375 142.67 72.7212C142.653 72.7048 142.63 72.6957 142.606 72.6957Z" fill="#BA1C51"/>
<path d="M172.838 95.5143C172.833 95.2876 172.805 95.062 172.754 94.841C172.585 94.2071 172.203 93.4399 171.576 93.2486C170.929 93.0506 170.303 92.7866 169.71 92.4609C169.597 90.4503 170.059 88.3928 169.556 86.4441C169.368 85.7314 169.058 85.0487 168.975 84.3191C168.872 83.4113 169.12 82.4435 168.757 81.607C168.472 80.9468 167.845 80.4817 167.171 80.2378C166.496 79.994 165.77 79.9284 165.054 79.8627C164.153 79.7896 161.234 79.4445 160.217 80.2491C160.146 80.3035 160.083 80.3665 160.029 80.4367C160.006 80.4676 159.986 80.5002 159.969 80.5342L159.959 80.5492C159.939 80.5883 159.922 80.6291 159.909 80.6711C159.894 80.7171 159.884 80.7641 159.877 80.8118C159.877 80.8268 159.877 80.8418 159.877 80.8568C159.877 80.8718 159.877 80.9224 159.877 80.9562V81.0068C159.877 81.0406 159.877 81.0743 159.877 81.11C159.877 81.1456 159.877 81.1362 159.877 81.1494C159.89 81.3182 159.914 81.487 159.914 81.6539C159.916 81.737 159.909 81.8201 159.892 81.9015C159.829 82.1227 159.723 82.3292 159.58 82.5091L159.546 82.5579C159.526 82.5879 159.505 82.6161 159.486 82.6461C159.467 82.6761 159.452 82.6986 159.437 82.7248C159.422 82.7511 159.407 82.768 159.394 82.7924C159.376 82.8233 159.36 82.8552 159.345 82.888C159.345 82.9068 159.325 82.9236 159.317 82.9424C159.294 82.9931 159.275 83.0458 159.261 83.1C159.217 83.2629 159.213 83.4341 159.249 83.5989C159.3 83.8093 159.387 84.0092 159.507 84.1897C159.554 84.2666 159.604 84.3416 159.657 84.4166L159.788 84.5948C159.764 84.7688 159.751 84.9442 159.749 85.1199C159.749 85.7073 159.883 86.2869 160.14 86.8152C160.397 87.3434 160.77 87.8065 161.233 88.1696C161.307 88.9617 161.299 89.7593 161.208 90.5497C161.191 90.7147 161.171 90.8817 161.148 91.0467C161.126 91.2118 161.109 91.3206 161.086 91.4575C160.811 91.4968 160.531 91.4756 160.265 91.3956C160.143 91.341 160.017 91.2928 159.89 91.2512C159.343 91.1142 158.786 91.6582 158.245 91.4931C158.245 91.5194 158.23 91.5437 158.22 91.5681C158.107 91.4981 157.978 91.4598 157.845 91.4575C157.524 91.4425 157.263 91.2099 157.03 90.9905L156.314 90.3171C156.268 90.2759 156.226 90.2293 156.19 90.1783C156.152 90.1054 156.123 90.0279 156.104 89.9476C155.984 89.5594 155.693 89.2499 155.411 88.9555C155.358 88.8883 155.287 88.8371 155.206 88.8073C155.175 88.8026 155.143 88.8026 155.112 88.8073C155.093 88.7811 155.072 88.756 155.05 88.7323C155.002 88.6766 154.95 88.6239 154.894 88.5747C154.553 88.2596 154.519 87.9896 154.222 87.6369C153.963 87.3007 153.729 86.9465 153.52 86.5773C153.495 86.3803 153.462 86.1778 153.42 85.9733C153.326 85.5053 153.188 85.047 153.009 84.6042L152.633 83.7733L152.59 83.8164C152.318 83.4113 152.027 83.19 151.766 83.2425C151.328 83.3325 151.112 84.1803 151.182 85.2887L151.332 86.4141C151.332 86.4422 151.345 86.4703 151.353 86.4985C151.326 86.6318 151.312 86.7675 151.311 86.9036C151.311 87.0611 151.458 87.1774 151.535 87.3181C151.658 87.5086 151.723 87.7308 151.723 87.9577C151.713 88.0383 151.689 88.1152 151.685 88.194C151.695 88.3702 151.757 88.5396 151.862 88.6816L152.801 90.2571L152.988 90.5872L153 90.6022C153.059 90.7174 153.145 90.8165 153.251 90.8911C153.288 91.2855 153.393 91.6707 153.561 92.0295C153.593 92.1008 153.629 92.1683 153.666 92.2358C153.919 92.6503 154.216 93.0358 154.553 93.3856L155 93.8863C155.441 94.3777 155.882 94.871 156.361 95.3249C156.533 95.507 156.74 95.6519 156.97 95.7506C157.082 95.7956 157.205 95.8101 157.325 95.7927C157.445 95.7752 157.558 95.7264 157.653 95.6512C157.653 95.8838 157.653 96.1164 157.653 96.3489C157.723 96.3532 157.79 96.376 157.848 96.415C157.906 96.4539 157.953 96.5076 157.983 96.5705C158.013 96.6334 158.026 96.7032 158.02 96.7727C158.014 96.8423 157.99 96.909 157.95 96.966C157.556 97.9769 157.157 98.9972 156.56 99.9031C156.982 100.152 157.373 100.45 157.725 100.79C157.953 101.043 158.156 101.318 158.331 101.61C158.348 101.749 158.361 101.886 158.369 102.023C158.508 104.258 157.642 106.477 156.866 108.608C156.643 109.212 156.399 109.844 156.418 110.472C156.27 110.563 156.13 110.663 155.997 110.774C156.151 111.175 156.091 111.534 156.074 111.963C156.068 112.221 156.015 112.475 155.918 112.713C155.836 112.879 155.746 113.039 155.648 113.195C155.161 114.052 155.054 115.071 154.956 116.05C154.898 116.641 155.127 117.363 154.859 117.892C154.395 118.799 153.984 119.767 153.92 120.776C153.918 121.003 153.889 121.229 153.833 121.45C153.775 121.637 153.672 121.797 153.619 121.98C153.565 122.227 153.553 122.48 153.582 122.731C153.618 123.63 153.484 124.527 153.187 125.377C152.953 126.047 152.694 126.763 152.878 127.451C152.425 127.927 152.145 128.54 152.083 129.194C152.078 129.361 152.058 129.527 152.023 129.691C151.966 129.858 151.89 130.018 151.798 130.169C151.42 130.857 151.243 131.637 151.287 132.42C150.724 133.183 150.442 134.125 150.275 135.061C150.108 135.997 150.034 136.949 149.82 137.874C149.535 139.097 149.018 140.333 148.917 141.586C148.309 141.974 148.046 142.726 147.929 143.437C147.813 144.148 147.794 144.894 147.495 145.551C147.341 145.892 147.12 146.198 146.973 146.547C146.871 146.824 146.795 147.111 146.748 147.404C146.658 147.861 146.579 148.372 146.69 148.81C146.53 148.979 146.345 149.12 146.14 149.229C146.17 149.112 146.194 148.996 146.215 148.878C145.73 149.317 144.851 149.163 144.464 149.69C144.348 149.86 144.303 150.068 144.338 150.271C144.373 150.474 144.486 150.655 144.652 150.776C144.773 150.85 144.904 150.906 145.041 150.943C145.98 151.243 146.945 151.545 147.91 151.386C148.025 151.373 148.135 151.338 148.235 151.282C148.361 151.19 148.464 151.071 148.538 150.934C148.682 150.705 148.827 150.476 148.97 150.247C149.315 150.35 149.667 150.432 150.023 150.493C150.059 150.793 150.085 151.093 150.098 151.393C150.286 151.431 150.538 151.442 150.626 151.267C150.653 151.201 150.664 151.13 150.658 151.059C150.658 150.926 150.677 150.75 150.688 150.57H150.725C151.298 150.593 151.869 150.478 152.387 150.234C152.187 148.572 152.849 146.948 153.424 145.376C154.031 143.722 154.551 142.038 155.075 140.353C155.45 139.168 155.865 138.02 156.233 136.833C156.697 135.333 157.162 133.832 157.629 132.332C157.832 131.671 158.036 131.019 158.269 130.362C158.759 129.034 159.341 127.741 160.01 126.493C160.198 126.139 160.386 125.788 160.54 125.42C160.727 124.972 160.861 124.503 161.011 124.04C161.338 123.089 161.732 122.163 162.19 121.268C162.203 121.243 162.213 121.221 162.226 121.198C162.378 121.819 162.53 122.449 162.632 123.074C162.769 123.84 162.78 124.623 162.664 125.392C162.573 125.915 162.403 126.433 162.423 126.964C162.451 127.697 162.844 128.363 163.037 129.07C163.162 129.599 163.232 130.14 163.248 130.683C163.3 131.527 163.758 132.474 163.435 133.256C162.431 135.734 162.917 138.532 162.344 141.134C162.049 142.469 161.146 143.724 161.218 145.089C161.268 146.058 161.353 147.025 161.473 147.989C161.502 148.293 161.581 148.59 161.708 148.869C161.783 149.015 161.869 149.155 161.965 149.289C161.882 149.321 161.813 149.405 161.753 149.583C161.599 150.052 161.753 150.633 162.17 150.896C162.34 150.987 162.523 151.05 162.712 151.084C162.968 151.156 163.232 151.193 163.497 151.192C163.58 151.188 163.662 151.178 163.743 151.162C164.034 151.284 164.33 151.391 164.632 151.481C164.632 151.558 164.647 151.635 164.656 151.712C164.657 151.752 164.666 151.792 164.682 151.828C164.699 151.865 164.723 151.897 164.754 151.924C164.801 151.946 164.852 151.955 164.904 151.95H165.924C165.924 151.866 165.924 151.779 165.924 151.695C166.04 151.707 166.158 151.695 166.27 151.659C166.381 151.622 166.484 151.563 166.572 151.485C166.662 151.37 166.726 151.237 166.759 151.095C167.037 150.153 167.313 149.211 167.588 148.268C167.916 147.226 168.053 146.133 167.991 145.042C167.629 141.586 168.425 138.118 168.166 134.652C168.01 132.568 168.117 130.474 168.485 128.417C168.57 127.952 168.673 127.48 168.711 127.016C168.793 126.142 168.692 125.259 168.754 124.391C168.774 124.087 168.816 123.785 168.853 123.483C169.111 121.609 169.245 119.72 169.257 117.828C169.251 117.201 169.212 116.575 169.141 115.952C169.336 115.903 169.514 115.799 169.653 115.652C169.82 115.435 169.777 115.129 169.775 114.851C169.775 114.187 170.055 113.561 170.28 112.935C170.57 112.071 170.807 111.19 170.99 110.298C171.184 109.578 171.29 108.838 171.306 108.094C171.306 108.019 171.302 107.944 171.295 107.869C171.365 107.82 171.424 107.756 171.467 107.681C171.516 107.571 171.547 107.454 171.557 107.334C171.625 106.856 171.695 106.376 171.762 105.896C171.812 105.552 171.862 105.208 171.911 104.866L172.508 100.704C172.558 100.342 172.611 99.9819 172.662 99.6218L172.818 98.5452C172.834 98.4177 172.853 98.2902 172.866 98.1701C173.325 97.4049 172.887 96.3846 172.838 95.5143ZM167.856 111.097C167.634 110.571 167.428 110.033 167.48 109.467H167.46C167.509 109.292 167.501 109.107 167.435 108.938C167.377 108.801 167.276 108.685 167.214 108.548C167.147 108.381 167.113 108.202 167.112 108.022C167.066 106.882 167.156 105.74 167.381 104.62C167.405 104.489 167.432 104.356 167.456 104.224C167.535 104.179 167.607 104.123 167.67 104.058C167.769 103.945 167.851 103.819 167.912 103.682C168.125 103.257 168.318 102.823 168.496 102.383C168.555 102.24 168.639 102.075 168.784 102.039C168.754 103.137 168.866 104.256 168.419 105.247C168.335 105.406 168.271 105.577 168.232 105.753C168.19 106.032 168.307 106.316 168.265 106.593C168.245 106.738 168.183 106.871 168.158 107.013C168.14 107.083 168.14 107.157 168.159 107.227C168.178 107.297 168.216 107.36 168.267 107.411C168.292 107.428 168.319 107.442 168.348 107.452C168.337 107.527 168.327 107.604 168.32 107.677C168.305 107.831 168.297 107.976 168.288 108.066C168.245 108.524 168.228 108.985 168.237 109.446C168.237 109.943 168.256 110.44 168.249 110.946C168.255 111.092 168.231 111.237 168.177 111.372C168.14 111.442 168.092 111.505 168.034 111.56C167.98 111.391 167.92 111.243 167.856 111.097Z" fill="url(#paint0_linear)"/>
<path d="M153.032 89.3321C153.605 89.2148 153.8 87.806 153.468 86.1854C153.135 84.5648 152.401 83.3462 151.828 83.4634C151.255 83.5807 151.06 84.9895 151.393 86.6101C151.725 88.2307 152.459 89.4493 153.032 89.3321Z" fill="#FBBEBE"/>
<path d="M161.783 149.617C161.629 150.082 161.783 150.663 162.2 150.916C162.369 151.006 162.55 151.07 162.739 151.104C162.993 151.176 163.257 151.212 163.522 151.211C163.847 151.196 164.158 151.068 164.483 151.023C164.521 151.014 164.56 151.019 164.594 151.038C164.61 151.056 164.623 151.077 164.63 151.099C164.637 151.122 164.639 151.146 164.635 151.17C164.639 151.354 164.653 151.538 164.677 151.721C164.677 151.761 164.686 151.801 164.703 151.838C164.72 151.874 164.744 151.907 164.774 151.933C164.821 151.955 164.873 151.964 164.925 151.959H165.942C165.966 151.066 165.868 150.174 165.651 149.307C165.637 149.241 165.612 149.177 165.576 149.12C165.49 149.025 165.376 148.96 165.251 148.932C165.003 148.829 164.734 148.782 164.465 148.795C164.136 148.838 163.862 149.05 163.582 149.227C163.302 149.403 162.921 149.559 162.581 149.469C162.241 149.378 161.957 149.095 161.783 149.617Z" fill="#3F3D56"/>
<path d="M146.838 148.794C146.552 149.1 146.201 149.338 145.811 149.491L145.638 149.574C145.614 149.583 145.594 149.599 145.58 149.621C145.577 149.635 145.577 149.651 145.58 149.665C145.583 149.68 145.589 149.693 145.599 149.705C145.742 149.927 145.955 150.096 146.204 150.187C146.452 150.277 146.724 150.284 146.977 150.206C147.089 150.178 147.192 150.124 147.279 150.048C147.423 149.879 147.505 149.666 147.512 149.445C147.569 149.216 147.559 148.976 147.484 148.752C147.223 148.165 147.127 148.432 146.838 148.794Z" fill="#FBBEBE"/>
<path d="M150.74 151.104C150.746 151.175 150.735 151.246 150.708 151.312C150.62 151.484 150.374 151.475 150.183 151.438C150.153 150.801 150.076 150.168 149.952 149.543C149.587 149.526 149.324 149.871 149.129 150.181L148.626 150.978C148.553 151.115 148.45 151.235 148.325 151.327C148.225 151.382 148.114 151.417 148 151.43C147.039 151.589 146.068 151.288 145.14 150.987C145.004 150.951 144.873 150.895 144.751 150.822C144.586 150.701 144.474 150.52 144.439 150.318C144.404 150.116 144.449 149.908 144.564 149.738C144.952 149.213 145.826 149.363 146.31 148.928C146.26 149.234 146.177 149.534 146.062 149.823C146.71 149.725 147.146 149.132 147.668 148.737C147.799 148.626 147.957 148.551 148.126 148.519C148.253 148.509 148.38 148.522 148.502 148.559C149.104 148.71 149.667 148.987 150.154 149.371C150.352 149.526 150.659 149.746 150.746 149.986C150.838 150.273 150.74 150.798 150.74 151.104Z" fill="#3F3D56"/>
<path d="M163.659 89.2225C165.802 89.2225 167.539 87.4876 167.539 85.3476C167.539 83.2075 165.802 81.4727 163.659 81.4727C161.516 81.4727 159.779 83.2075 159.779 85.3476C159.779 87.4876 161.516 89.2225 163.659 89.2225Z" fill="#FBBEBE"/>
<path d="M171.302 108.225C171.286 108.966 171.181 109.702 170.988 110.418C170.805 111.306 170.568 112.183 170.279 113.043C170.055 113.668 169.775 114.294 169.777 114.957C169.777 115.232 169.822 115.538 169.653 115.756C169.503 115.908 169.313 116.017 169.105 116.069C169.001 116.096 168.905 116.148 168.825 116.219C168.745 116.29 168.682 116.38 168.643 116.479C168.467 116.216 168.335 115.926 168.252 115.62C167.916 114.59 167.603 113.554 167.313 112.513C167.287 112.453 167.275 112.387 167.28 112.322C167.285 112.257 167.305 112.193 167.34 112.138C167.387 112.096 167.443 112.065 167.503 112.046C167.695 111.967 167.872 111.854 168.023 111.712C168.094 111.649 168.153 111.573 168.196 111.489C168.251 111.354 168.276 111.21 168.269 111.065C168.269 110.568 168.269 110.073 168.256 109.576C168.248 109.117 168.266 108.658 168.309 108.201C168.309 108.111 168.326 107.966 168.341 107.812C168.369 107.518 168.425 107.177 168.585 107.062C168.823 106.903 169.537 107.117 169.807 107.154C170.273 107.218 170.746 107.293 171.201 107.381C171.267 107.658 171.301 107.941 171.302 108.225Z" fill="#3F3D56"/>
<path d="M155.636 89.6846C155.486 89.9847 155.125 90.1291 154.848 90.3185L153.895 90.9712C153.832 91.0285 153.757 91.0723 153.676 91.1C153.595 91.1277 153.509 91.1388 153.424 91.1325C153.347 91.1039 153.276 91.0602 153.215 91.0038C153.155 90.9474 153.107 90.8796 153.073 90.8043C153.073 90.7993 153.073 90.7943 153.073 90.7893L152.876 90.4592L151.937 88.8875C151.832 88.7467 151.772 88.5785 151.762 88.4036C151.762 88.3229 151.79 88.2479 151.798 88.1672C151.8 87.9407 151.735 87.7186 151.61 87.5295C151.535 87.3889 151.385 87.2726 151.388 87.1151C151.381 86.908 151.417 86.7018 151.494 86.5092C151.592 86.3311 151.733 86.1803 151.905 86.0704C151.993 86.0066 152.083 85.9466 152.177 85.8828C152.227 85.8488 152.282 85.8234 152.34 85.8078C152.496 85.7759 152.65 85.9053 152.808 85.9109C153.486 86.3648 153.747 87.2238 154.28 87.8428C154.581 88.1954 154.611 88.4655 154.951 88.7806C155.005 88.8293 155.058 88.8818 155.109 88.9362C155.176 89.0094 155.233 89.0915 155.278 89.1801C155.34 89.3413 155.713 89.5308 155.636 89.6846Z" fill="#3F3D56"/>
<path d="M162.296 89.2247C162.575 89.8155 162.793 90.4644 162.712 91.1134C162.696 91.2892 162.64 91.459 162.549 91.6104C162.279 92.0249 161.712 92.0999 161.218 92.1243C161.114 92.1156 161.009 92.1277 160.91 92.1599C160.81 92.1921 160.718 92.2437 160.639 92.3119C160.573 92.4076 160.541 92.5226 160.547 92.6387C160.554 92.7547 160.599 92.8654 160.675 92.9533C160.834 93.1225 161.031 93.2511 161.25 93.3284C162.031 93.6716 162.874 93.9549 163.723 93.8761C164.117 93.8386 164.5 93.7242 164.893 93.666C165.321 93.6197 165.751 93.5959 166.181 93.5947C166.692 93.576 167.201 93.5253 167.71 93.4747L169.058 93.3415C169.132 93.3426 169.203 93.3166 169.259 93.2684C169.358 93.1521 169.231 92.9814 169.107 92.8933C168.391 92.3644 167.481 92.0005 167.073 91.2053C166.885 90.8302 166.827 90.3838 166.688 89.9787C166.549 89.5735 166.328 89.2078 166.241 88.7952C166.195 88.4332 166.174 88.0685 166.179 87.7036C166.184 87.3357 166.05 86.9795 165.804 86.7058C165.535 86.4563 165.146 86.3926 164.782 86.3776C163.884 86.3382 162.928 86.552 162.292 87.1841C162.121 87.3547 161.974 87.5592 161.798 87.713C161.621 87.8668 161.381 87.9118 161.497 88.1143C161.614 88.3169 161.843 88.4426 161.967 88.6207C162.092 88.813 162.202 89.015 162.296 89.2247Z" fill="#FBBEBE"/>
<path d="M169.944 94.6808C169.708 96.125 169.322 97.541 168.795 98.9064C168.53 99.523 168.304 100.156 168.119 100.801C167.974 101.382 168.003 102.005 167.869 102.588C167.704 103.314 167.539 104.042 167.405 104.773C167.182 105.89 167.092 107.03 167.139 108.168C167.139 108.347 167.174 108.525 167.24 108.691C167.302 108.826 167.402 108.943 167.46 109.081C167.503 109.203 167.521 109.333 167.512 109.462C167.503 109.591 167.467 109.717 167.407 109.832C167.311 110.046 167.18 110.244 167.02 110.417C165.27 110.938 163.398 110.768 161.574 110.878C159.894 110.979 158.194 111.325 156.538 111.038C156.35 110.287 156.664 109.502 156.932 108.77C157.711 106.645 158.573 104.432 158.434 102.206C158.42 101.946 158.39 101.687 158.346 101.431C158.074 99.8536 158.371 98.22 158.846 96.6914C159.141 95.7386 159.127 94.7239 159.06 93.7318C159.026 93.4096 159.022 93.085 159.047 92.7621C159.074 92.4323 159.197 92.1175 159.4 91.8562C159.4 91.8431 159.417 91.8299 159.426 91.8168C159.435 91.8037 159.509 91.8055 159.567 91.8168C159.582 91.8231 159.598 91.8263 159.614 91.8263C159.63 91.8263 159.646 91.8231 159.661 91.8168L159.681 91.8037C159.689 91.798 159.699 91.795 159.709 91.795C159.718 91.795 159.728 91.798 159.736 91.8037C159.779 91.8299 159.803 91.92 159.897 91.9368C160.036 91.9578 160.176 91.9709 160.316 91.9762C160.485 91.9812 160.652 92.0051 160.816 92.0475H160.838C161.082 92.0886 161.333 92.0673 161.567 91.9856C161.722 91.9468 161.873 91.8888 162.014 91.813C162.055 91.768 162.314 91.7268 162.367 91.6949C162.538 91.5917 162.5 91.1078 162.536 90.909C162.556 90.7096 162.603 90.514 162.677 90.3276C162.762 90.1901 162.88 90.0756 163.02 89.9942C163.161 89.9127 163.319 89.8669 163.48 89.8606C163.804 89.8529 164.127 89.8818 164.444 89.9469C165.144 90.0463 165.862 90.0294 166.549 90.1907C166.895 90.2713 167.272 90.3932 167.589 90.2357C167.676 90.2563 167.689 90.3314 167.689 90.4233C167.681 90.5106 167.663 90.5967 167.636 90.6802C167.516 91.1979 167.924 91.6743 168.299 92.0494C168.458 92.2262 168.645 92.3752 168.853 92.4901C169.041 92.5764 169.229 92.612 169.417 92.7058C169.569 92.7869 169.698 92.9049 169.792 93.0491C169.901 93.2143 169.973 93.4001 170.006 93.5948C170.047 93.9577 170.026 94.3248 169.944 94.6808Z" fill="#3F3D56"/>
<path opacity="0.1" d="M169.944 94.6795C169.708 96.1237 169.323 97.5397 168.795 98.9051C168.53 99.5217 168.304 100.154 168.119 100.799C167.975 101.381 168.003 102.004 167.869 102.587C167.704 103.313 167.539 104.04 167.405 104.772C167.366 104.794 167.325 104.815 167.283 104.834C167.05 104.945 166.802 105.025 166.547 105.07C166.089 105.125 165.626 105.11 165.173 105.025L162.493 104.667C161.422 104.522 160.282 104.348 159.488 103.624C159.047 103.226 158.758 102.701 158.44 102.195C158.426 101.935 158.396 101.677 158.352 101.42C158.08 99.8429 158.376 98.2093 158.851 96.6807C159.146 95.7279 159.133 94.7132 159.066 93.721C159.032 93.3989 159.028 93.0743 159.052 92.7514C159.08 92.4216 159.202 92.1068 159.405 91.8455C159.46 91.8294 159.516 91.8169 159.573 91.808C159.61 91.8003 159.649 91.7953 159.687 91.793H159.742C159.805 91.7932 159.868 91.8008 159.929 91.8155C160.057 91.8562 160.183 91.9044 160.305 91.9599H160.328C160.489 92.0129 160.658 92.037 160.827 92.0312C161.075 92.0312 161.33 91.9918 161.578 91.9749C161.884 91.9271 162.198 91.9833 162.468 92.1343C162.643 92.2745 162.809 92.4254 162.964 92.5863C163.152 92.7337 163.363 92.8485 163.59 92.9258C165.206 93.5421 166.999 93.5044 168.589 92.8208C168.741 92.7341 168.914 92.69 169.09 92.6932C169.22 92.7186 169.343 92.771 169.451 92.847C169.563 92.9127 169.674 92.9764 169.789 93.0346C169.897 93.1998 169.97 93.3857 170.003 93.5804C170.046 93.9474 170.026 94.319 169.944 94.6795Z" fill="black"/>
<path d="M171.58 93.4384C170.832 93.2103 170.113 92.8955 169.439 92.5006C169.331 92.4251 169.208 92.3728 169.078 92.3468C168.902 92.3447 168.729 92.3887 168.575 92.4744C166.987 93.1579 165.194 93.1955 163.578 92.5794C163.352 92.5013 163.141 92.3866 162.953 92.2399C162.796 92.0795 162.631 91.9286 162.457 91.7879C161.839 91.3884 160.984 91.8573 160.293 91.6003C160.171 91.5457 160.045 91.4975 159.918 91.4559C159.371 91.319 158.815 91.8629 158.278 91.6979C158.078 92.2403 157.931 92.8005 157.837 93.3709C157.761 94.0259 157.72 94.6846 157.715 95.344C157.715 95.7397 157.696 96.1355 157.715 96.5312C157.781 96.542 157.844 96.5665 157.901 96.6029C157.957 96.6394 158.005 96.6872 158.042 96.7432C158.066 96.8085 158.076 96.8784 158.071 96.9481C158.066 97.0177 158.046 97.0854 158.012 97.1464C157.619 98.1536 157.221 99.172 156.626 100.074C157.045 100.324 157.435 100.621 157.786 100.959C158.444 101.653 158.767 102.627 159.476 103.268C160.276 103.99 161.416 104.167 162.481 104.309L165.161 104.667C165.615 104.752 166.079 104.768 166.538 104.714C166.792 104.668 167.039 104.588 167.272 104.476C167.424 104.413 167.563 104.321 167.681 104.206C167.78 104.094 167.862 103.967 167.923 103.831C168.136 103.407 168.329 102.974 168.507 102.535C168.569 102.379 168.663 102.197 168.832 102.184C169.828 101.288 170.767 100.369 171.762 99.4721C172.162 99.141 172.521 98.7632 172.83 98.3468C173.324 97.6172 172.876 96.5837 172.83 95.7022C172.825 95.4767 172.797 95.2524 172.746 95.0326C172.584 94.3931 172.205 93.6278 171.58 93.4384Z" fill="#BA1C51"/>
<path opacity="0.1" d="M155.637 89.685C155.486 89.9851 155.126 90.1296 154.848 90.319L153.896 90.9717C153.832 91.0289 153.758 91.0727 153.677 91.1005C153.596 91.1282 153.51 91.1392 153.424 91.133C153.347 91.1044 153.276 91.0607 153.216 91.0043C153.155 90.9479 153.107 90.8801 153.073 90.8048C153.073 90.7616 153.073 90.7147 153.073 90.6697C153.066 90.5179 153.086 90.366 153.133 90.2215C153.227 90.0094 153.371 89.8237 153.554 89.6813C153.908 89.3469 154.328 89.0912 154.788 88.9311C154.859 88.9032 154.937 88.8954 155.013 88.9085C155.042 88.9162 155.07 88.9282 155.096 88.9442C155.163 89.0174 155.22 89.0994 155.265 89.188C155.34 89.3418 155.714 89.5312 155.637 89.685Z" fill="black"/>
<path d="M157.879 91.6617C157.559 91.6467 157.298 91.416 157.066 91.1965L156.354 90.5363C156.306 90.4961 156.265 90.4494 156.23 90.3976C156.191 90.3246 156.162 90.2471 156.144 90.1669C155.993 89.788 155.756 89.4491 155.452 89.1766C155.4 89.1094 155.329 89.0586 155.248 89.0303C155.171 89.0162 155.093 89.024 155.021 89.0528C154.561 89.2127 154.14 89.4684 153.787 89.803C153.604 89.9456 153.459 90.1311 153.366 90.3432C153.319 90.4877 153.298 90.6396 153.306 90.7914C153.31 91.287 153.422 91.7758 153.633 92.2244C153.665 92.2937 153.7 92.3631 153.738 92.4307C153.988 92.8443 154.285 93.2286 154.621 93.5766L155.067 94.0755C155.507 94.5669 155.946 95.0583 156.423 95.5104C156.594 95.6925 156.802 95.8369 157.032 95.9342C157.147 95.9813 157.274 95.9958 157.397 95.9759C157.52 95.9561 157.636 95.9027 157.73 95.8217C157.82 95.7177 157.888 95.5964 157.929 95.4653C158.219 94.7151 158.493 93.9349 158.51 93.1265C158.514 92.8028 158.5 92.4791 158.468 92.1568C158.44 91.8155 158.198 91.6823 157.879 91.6617Z" fill="#BA1C51"/>
<path d="M169.259 117.92C169.248 119.807 169.114 121.691 168.857 123.56C168.82 123.862 168.778 124.164 168.758 124.466C168.696 125.342 168.797 126.221 168.715 127.092C168.671 127.562 168.574 128.029 168.491 128.489C168.124 130.54 168.017 132.629 168.172 134.707C168.431 138.163 167.637 141.622 167.997 145.069C168.041 145.739 168.004 146.413 167.886 147.074C167.819 147.484 167.722 147.889 167.595 148.286C167.321 149.225 167.046 150.162 166.769 151.099C166.736 151.241 166.672 151.375 166.581 151.489C166.485 151.572 166.373 151.633 166.252 151.669C166.13 151.705 166.002 151.715 165.877 151.697C164.793 151.664 163.774 151.196 162.79 150.741C162.677 150.696 162.572 150.633 162.48 150.553C162.275 150.341 162.292 150.007 162.202 149.728C162.112 149.448 161.868 149.186 161.729 148.899C161.614 148.627 161.545 148.339 161.524 148.046C161.399 147.085 161.314 146.121 161.269 145.153C161.197 143.792 162.099 142.539 162.395 141.215C162.959 138.611 162.482 135.821 163.483 133.35C163.798 132.57 163.34 131.625 163.295 130.785C163.279 130.243 163.208 129.704 163.084 129.175C162.897 128.47 162.5 127.806 162.472 127.075C162.452 126.546 162.623 126.03 162.711 125.509C162.828 124.741 162.817 123.96 162.679 123.196C162.579 122.566 162.427 121.936 162.275 121.321L162.241 121.39C161.784 122.283 161.39 123.208 161.064 124.156C160.914 124.616 160.782 125.085 160.594 125.531C160.44 125.906 160.251 126.25 160.065 126.602C159.398 127.846 158.818 129.133 158.328 130.456C158.095 131.105 157.89 131.769 157.687 132.42L156.296 136.922C155.92 138.105 155.509 139.249 155.141 140.431C154.621 142.119 154.1 143.792 153.496 145.442C152.932 147.008 152.262 148.631 152.463 150.285C151.945 150.528 151.376 150.643 150.805 150.621C149.837 150.535 148.887 150.305 147.988 149.938C147.629 149.805 147.257 149.655 147.015 149.36C146.598 148.852 146.701 148.107 146.827 147.46C146.875 147.169 146.95 146.882 147.053 146.605C147.195 146.26 147.428 145.954 147.575 145.613C147.869 144.958 147.888 144.218 148.005 143.507C148.121 142.796 148.38 142.046 148.989 141.659C149.092 140.41 149.607 139.178 149.89 137.957C150.104 137.032 150.176 136.081 150.345 135.144C150.514 134.206 150.786 133.268 151.353 132.508C151.308 131.725 151.485 130.945 151.864 130.258C151.955 130.107 152.03 129.946 152.087 129.779C152.122 129.617 152.142 129.451 152.147 129.284C152.209 128.633 152.489 128.02 152.94 127.546C152.752 126.861 153.013 126.146 153.248 125.482C153.544 124.635 153.677 123.74 153.642 122.844C153.613 122.593 153.625 122.34 153.678 122.093C153.73 121.906 153.834 121.746 153.894 121.566C153.947 121.346 153.976 121.12 153.978 120.893C154.052 119.878 154.463 118.922 154.917 118.016C155.188 117.487 154.959 116.769 155.015 116.18C155.113 115.201 155.22 114.188 155.706 113.334C155.796 113.173 155.894 113.019 155.975 112.852C156.072 112.614 156.125 112.36 156.13 112.102C156.147 111.673 156.207 111.316 156.054 110.917C157.058 110.082 158.429 109.848 159.736 109.791C161.043 109.735 162.365 109.853 163.644 109.576C164.02 109.491 164.395 109.375 164.792 109.319C165.691 109.188 166.604 109.392 167.492 109.595C167.43 110.157 167.637 110.697 167.868 111.221C168.769 113.34 169.242 115.617 169.259 117.92Z" fill="#33313F"/>
<path opacity="0.1" d="M164.836 118.35L162.679 123.196C162.579 122.566 162.427 121.936 162.275 121.321L162.241 121.39V121.289L163.417 118.706L164.836 118.35Z" fill="black"/>
<path opacity="0.1" d="M171.302 108.225C171.178 108.318 171.029 108.373 170.874 108.385C170.636 108.393 170.399 108.361 170.172 108.289L168.482 107.867C168.429 107.854 168.377 107.836 168.328 107.812C168.356 107.518 168.412 107.177 168.572 107.062C168.81 106.903 169.524 107.117 169.794 107.154C170.26 107.218 170.733 107.293 171.188 107.381C171.258 107.657 171.297 107.94 171.302 108.225Z" fill="black"/>
<path d="M172.731 97.0655C172.767 97.2212 172.818 97.375 172.848 97.5326C172.898 97.9191 172.885 98.3113 172.808 98.6935L172.654 99.7664L172.5 100.845L171.905 104.995L171.759 106.023L171.552 107.458C171.542 107.577 171.512 107.694 171.462 107.803C171.4 107.905 171.314 107.99 171.212 108.051C171.109 108.111 170.993 108.145 170.874 108.15C170.636 108.158 170.399 108.125 170.172 108.054L168.482 107.631C168.407 107.617 168.337 107.589 168.275 107.546C168.223 107.496 168.186 107.433 168.167 107.363C168.148 107.294 168.147 107.22 168.166 107.15C168.19 107.008 168.252 106.875 168.273 106.732C168.314 106.455 168.198 106.17 168.239 105.894C168.28 105.718 168.343 105.549 168.427 105.389C168.99 104.146 168.664 102.694 168.855 101.344C169.028 100.281 169.477 99.2821 170.159 98.4478C170.579 97.9212 171.062 97.4476 171.597 97.0374C171.807 96.8742 172.142 96.5385 172.406 96.4747C172.746 96.4035 172.675 96.8292 172.731 97.0655Z" fill="#BA1C51"/>
<path d="M159.941 80.9091C159.817 81.303 160.01 81.7363 159.922 82.1376C159.826 82.5803 159.409 82.8878 159.291 83.3324C159.103 84.0094 159.678 84.6265 160.098 85.1892C161.657 87.2785 161.452 90.1707 160.919 92.7196C160.49 94.7645 159.896 96.7716 159.144 98.7214C158.91 99.3272 158.65 99.9424 158.188 100.396C159.052 100.149 159.971 99.8992 160.836 100.139C161.933 100.443 162.88 101.507 163.991 101.265C164.66 101.116 165.129 100.524 165.73 100.196C166.857 99.5898 168.215 99.9705 169.471 100.166C169.742 100.229 170.025 100.215 170.288 100.124C170.489 100.016 170.66 99.8596 170.784 99.6685C171.345 98.9501 171.68 98.0823 171.749 97.174C171.779 96.7218 171.712 96.2683 171.553 95.8438C171.394 95.4192 171.147 95.0333 170.827 94.7114C170.56 94.4601 170.241 94.2575 170.036 93.9612C169.837 93.6151 169.731 93.2237 169.727 92.8246C169.578 90.7615 170.081 88.6552 169.563 86.6596C169.375 85.9488 169.069 85.2679 168.987 84.5402C168.883 83.6343 169.129 82.6647 168.769 81.8357C168.485 81.1773 167.86 80.7103 167.186 80.4702C166.512 80.2302 165.79 80.1626 165.075 80.0951C164.046 80.0089 160.371 79.5681 159.941 80.9091Z" fill="#33313F"/>
<g opacity="0.1">
<path opacity="0.1" d="M160.919 92.7204C160.492 94.7569 159.902 96.7558 159.154 98.6978C159.283 98.4408 159.392 98.1708 159.496 97.9026C160.248 95.9531 160.842 93.9459 161.27 91.9007C161.805 89.35 162.01 86.4616 160.451 84.3703C160.076 83.8714 159.593 83.3313 159.61 82.7461C159.471 82.9231 159.363 83.1222 159.291 83.335C159.103 84.0121 159.678 84.6292 160.098 85.1918C161.657 87.2793 161.452 90.1715 160.919 92.7204Z" fill="black"/>
<path opacity="0.1" d="M159.944 81.949C160.095 81.7621 160.207 81.5473 160.275 81.317C160.304 81.0383 160.296 80.7571 160.252 80.4805C160.108 80.5892 159.999 80.7388 159.941 80.91C159.83 81.2419 159.957 81.602 159.944 81.949Z" fill="black"/>
<path opacity="0.1" d="M171.137 98.8458C171.013 99.0364 170.842 99.1925 170.641 99.2997C170.379 99.3923 170.095 99.4067 169.824 99.341C168.568 99.1534 167.195 98.767 166.083 99.3728C165.481 99.6992 165.013 100.292 164.343 100.442C163.233 100.689 162.286 99.626 161.189 99.3166C160.412 99.1009 159.593 99.2791 158.81 99.5041C158.654 99.8356 158.444 100.139 158.188 100.401C159.052 100.153 159.971 99.9036 160.836 100.144C161.933 100.448 162.88 101.511 163.991 101.269C164.66 101.121 165.129 100.528 165.73 100.2C166.857 99.5942 168.215 99.9749 169.471 100.17C169.742 100.234 170.025 100.219 170.288 100.129C170.489 100.021 170.66 99.8641 170.784 99.6729C171.124 99.2246 171.387 98.7225 171.561 98.1875C171.436 98.4168 171.294 98.6368 171.137 98.8458Z" fill="black"/>
</g>
</g>
<defs>
<linearGradient id="paint0_linear" x1="144.339" y1="115.836" x2="173.071" y2="115.836" gradientUnits="userSpaceOnUse">
<stop stop-color="#808080" stop-opacity="0.25"/>
<stop offset="0.54" stop-color="#808080" stop-opacity="0.12"/>
<stop offset="1" stop-color="#808080" stop-opacity="0.1"/>
</linearGradient>
<clipPath id="clip0">
<rect width="219" height="151" fill="white" transform="translate(0 0.970703)"/>
</clipPath>
</defs>
</svg>
