<svg width="553" height="553" viewBox="0 0 553 553" fill="none" xmlns="http://www.w3.org/2000/svg">
<path d="M217.5 431L226.5 385.5H323L331.5 431.5L345.5 433.5V437.5H203V433.5L217.5 431Z" fill="#F6F6F6"/>
<rect x="85" y="136" width="378" height="245" rx="7" fill="#F6F6F6" stroke="#262424" stroke-width="10"/>
<path d="M355.967 275.548H423.071C423.812 275.547 424.523 275.252 425.047 274.727C425.571 274.203 425.866 273.491 425.867 272.749V202.799C425.866 202.057 425.571 201.345 425.047 200.821C424.523 200.296 423.812 200.001 423.071 200H355.967C355.226 200.001 354.515 200.296 353.991 200.821C353.467 201.345 353.172 202.057 353.171 202.799V272.749C353.172 273.491 353.467 274.203 353.991 274.727C354.515 275.252 355.226 275.547 355.967 275.548ZM423.071 201.119C423.516 201.12 423.942 201.297 424.257 201.612C424.571 201.927 424.748 202.353 424.749 202.799V272.749C424.748 273.195 424.571 273.621 424.257 273.936C423.942 274.251 423.516 274.428 423.071 274.429H355.967C355.522 274.428 355.096 274.251 354.781 273.936C354.467 273.621 354.29 273.195 354.289 272.749V202.799C354.29 202.353 354.467 201.927 354.781 201.612C355.096 201.297 355.522 201.12 355.967 201.119H423.071Z" fill="#5F5F5F"/>
<path d="M243.881 275.548H310.986C311.727 275.547 312.438 275.252 312.962 274.727C313.486 274.203 313.781 273.491 313.782 272.749V202.799C313.781 202.057 313.486 201.345 312.962 200.821C312.438 200.296 311.727 200.001 310.986 200H243.881C243.14 200.001 242.43 200.296 241.905 200.821C241.381 201.345 241.086 202.057 241.085 202.799V272.749C241.086 273.491 241.381 274.203 241.905 274.727C242.43 275.252 243.14 275.547 243.881 275.548ZM310.986 201.119C311.431 201.12 311.857 201.297 312.171 201.612C312.486 201.927 312.663 202.353 312.663 202.799V272.749C312.663 273.195 312.486 273.621 312.171 273.936C311.857 274.251 311.431 274.428 310.986 274.429H243.881C243.437 274.428 243.01 274.251 242.696 273.936C242.381 273.621 242.204 273.195 242.204 272.749V202.799C242.204 202.353 242.381 201.927 242.696 201.612C243.01 201.297 243.437 201.12 243.881 201.119H310.986Z" fill="#5F5F5F"/>
<path d="M131.796 275.548H198.9C199.642 275.547 200.352 275.252 200.876 274.727C201.401 274.203 201.695 273.491 201.696 272.749V202.799C201.695 202.057 201.401 201.345 200.876 200.821C200.352 200.296 199.642 200.001 198.9 200H131.796C131.055 200.001 130.344 200.296 129.82 200.821C129.296 201.345 129.001 202.057 129 202.799V272.749C129.001 273.491 129.296 274.203 129.82 274.727C130.344 275.252 131.055 275.547 131.796 275.548ZM198.9 201.119C199.345 201.12 199.771 201.297 200.086 201.612C200.4 201.927 200.577 202.353 200.578 202.799V272.749C200.577 273.195 200.4 273.621 200.086 273.936C199.771 274.251 199.345 274.428 198.9 274.429H131.796C131.351 274.428 130.925 274.251 130.61 273.936C130.296 273.621 130.119 273.195 130.118 272.749V202.799C130.119 202.353 130.296 201.927 130.61 201.612C130.925 201.297 131.351 201.12 131.796 201.119H198.9Z" fill="#5F5F5F"/>
<path d="M402.477 318.316C402.228 318.316 401.98 318.267 401.75 318.172C401.519 318.077 401.309 317.937 401.133 317.76C400.956 317.584 400.816 317.374 400.72 317.143C400.625 316.913 400.576 316.665 400.576 316.416C400.576 316.166 400.625 315.918 400.72 315.688C400.816 315.457 400.956 315.247 401.133 315.071C401.309 314.894 401.519 314.755 401.75 314.659C401.98 314.564 402.228 314.515 402.477 314.516H419.51C420.013 314.516 420.496 314.716 420.852 315.072C421.208 315.428 421.408 315.912 421.408 316.416C421.408 316.92 421.208 317.403 420.852 317.759C420.496 318.115 420.013 318.316 419.51 318.316H402.477Z" fill="#E5E5E5"/>
<path d="M359.529 307.12C359.025 307.12 358.542 306.92 358.186 306.564C357.83 306.207 357.63 305.724 357.63 305.22C357.63 304.716 357.83 304.233 358.186 303.877C358.542 303.52 359.025 303.32 359.529 303.32H419.51C420.013 303.32 420.496 303.52 420.852 303.877C421.208 304.233 421.408 304.716 421.408 305.22C421.408 305.724 421.208 306.207 420.852 306.564C420.496 306.92 420.013 307.12 419.51 307.12H359.529Z" fill="#E5E5E5"/>
<path d="M290.391 318.316C289.889 318.315 289.407 318.114 289.051 317.758C288.696 317.402 288.497 316.919 288.497 316.416C288.497 315.912 288.696 315.43 289.051 315.073C289.407 314.717 289.889 314.517 290.391 314.516H307.424C307.928 314.516 308.411 314.716 308.767 315.072C309.123 315.428 309.323 315.912 309.323 316.416C309.323 316.92 309.123 317.403 308.767 317.759C308.411 318.115 307.928 318.316 307.424 318.316H290.391Z" fill="#E5E5E5"/>
<path d="M247.443 307.12C246.939 307.12 246.457 306.92 246.101 306.564C245.745 306.207 245.545 305.724 245.545 305.22C245.545 304.716 245.745 304.233 246.101 303.877C246.457 303.52 246.939 303.32 247.443 303.32H307.424C307.928 303.32 308.411 303.52 308.767 303.877C309.123 304.233 309.323 304.716 309.323 305.22C309.323 305.724 309.123 306.207 308.767 306.564C308.411 306.92 307.928 307.12 307.424 307.12H247.443Z" fill="#E5E5E5"/>
<path d="M178.306 318.316C177.803 318.315 177.321 318.114 176.966 317.758C176.611 317.402 176.411 316.919 176.411 316.416C176.411 315.912 176.611 315.43 176.966 315.073C177.321 314.717 177.803 314.517 178.306 314.516H195.339C195.588 314.515 195.835 314.564 196.066 314.659C196.297 314.755 196.506 314.894 196.683 315.071C196.86 315.247 197 315.457 197.095 315.688C197.191 315.918 197.24 316.166 197.24 316.416C197.24 316.665 197.191 316.913 197.095 317.143C197 317.374 196.86 317.584 196.683 317.76C196.506 317.937 196.297 318.077 196.066 318.172C195.835 318.267 195.588 318.316 195.339 318.316H178.306Z" fill="#E5E5E5"/>
<path d="M135.357 307.12C134.854 307.12 134.371 306.92 134.015 306.564C133.659 306.207 133.459 305.724 133.459 305.22C133.459 304.716 133.659 304.233 134.015 303.877C134.371 303.52 134.854 303.32 135.357 303.32H195.339C195.842 303.32 196.325 303.52 196.681 303.877C197.037 304.233 197.237 304.716 197.237 305.22C197.237 305.724 197.037 306.207 196.681 306.564C196.325 306.92 195.842 307.12 195.339 307.12H135.357Z" fill="#E5E5E5"/>
<path d="M359.529 296.111C359.279 296.111 359.032 296.062 358.801 295.967C358.57 295.872 358.361 295.732 358.184 295.555C358.008 295.379 357.867 295.169 357.772 294.938C357.676 294.708 357.627 294.46 357.627 294.211C357.627 293.961 357.676 293.713 357.772 293.483C357.867 293.252 358.008 293.042 358.184 292.866C358.361 292.689 358.57 292.549 358.801 292.454C359.032 292.359 359.279 292.31 359.529 292.311H419.51C420.013 292.311 420.496 292.511 420.852 292.867C421.208 293.223 421.408 293.707 421.408 294.211C421.408 294.714 421.208 295.198 420.852 295.554C420.496 295.91 420.013 296.111 419.51 296.111H359.529Z" fill="#07106D"/>
<path d="M247.443 296.111C246.94 296.11 246.458 295.909 246.103 295.553C245.747 295.197 245.548 294.714 245.548 294.211C245.548 293.707 245.747 293.224 246.103 292.868C246.458 292.512 246.94 292.311 247.443 292.311H307.424C307.928 292.311 308.411 292.511 308.767 292.867C309.123 293.223 309.323 293.707 309.323 294.211C309.323 294.714 309.123 295.198 308.767 295.554C308.411 295.91 307.928 296.111 307.424 296.111H247.443Z" fill="#07106D"/>
<path d="M135.357 296.111C134.854 296.111 134.371 295.91 134.015 295.554C133.659 295.198 133.459 294.714 133.459 294.211C133.459 293.707 133.659 293.223 134.015 292.867C134.371 292.511 134.854 292.311 135.357 292.311H195.339C195.588 292.31 195.835 292.359 196.066 292.454C196.297 292.549 196.506 292.689 196.683 292.866C196.86 293.042 197 293.252 197.095 293.483C197.191 293.713 197.24 293.961 197.24 294.211C197.24 294.46 197.191 294.708 197.095 294.938C197 295.169 196.86 295.379 196.683 295.555C196.506 295.732 196.297 295.872 196.066 295.967C195.835 296.062 195.588 296.111 195.339 296.111H135.357Z" fill="#07106D"/>
<path d="M370.266 261.991C369.762 261.991 369.279 261.791 368.923 261.435C368.567 261.079 368.367 260.595 368.367 260.091C368.367 259.587 368.567 259.104 368.923 258.748C369.279 258.392 369.762 258.191 370.266 258.191H408.773C409.276 258.191 409.759 258.392 410.115 258.748C410.471 259.104 410.671 259.587 410.671 260.091C410.671 260.595 410.471 261.079 410.115 261.435C409.759 261.791 409.276 261.991 408.773 261.991H370.266Z" fill="#E5E5E5"/>
<path d="M370.266 250.796C369.762 250.796 369.279 250.596 368.923 250.24C368.567 249.883 368.367 249.4 368.367 248.896C368.367 248.392 368.567 247.909 368.923 247.553C369.279 247.196 369.762 246.996 370.266 246.996H408.773C409.276 246.996 409.759 247.196 410.115 247.553C410.471 247.909 410.671 248.392 410.671 248.896C410.671 249.4 410.471 249.883 410.115 250.24C409.759 250.596 409.276 250.796 408.773 250.796H370.266Z" fill="#E5E5E5"/>
<path d="M389.519 237.672C382.866 237.672 377.473 232.274 377.473 225.614C377.473 218.955 382.866 213.557 389.519 213.557C396.172 213.557 401.566 218.955 401.566 225.614C401.566 232.274 396.172 237.672 389.519 237.672Z" fill="#07106D"/>
<path d="M258.18 261.991C257.677 261.991 257.194 261.791 256.838 261.435C256.482 261.079 256.282 260.595 256.282 260.091C256.282 259.587 256.482 259.104 256.838 258.748C257.194 258.392 257.677 258.191 258.18 258.191H296.687C297.191 258.191 297.673 258.392 298.029 258.748C298.385 259.104 298.585 259.587 298.585 260.091C298.585 260.595 298.385 261.079 298.029 261.435C297.673 261.791 297.191 261.991 296.687 261.991H258.18Z" fill="#E5E5E5"/>
<path d="M258.18 250.796C257.677 250.796 257.194 250.596 256.838 250.24C256.482 249.883 256.282 249.4 256.282 248.896C256.282 248.392 256.482 247.909 256.838 247.553C257.194 247.196 257.677 246.996 258.18 246.996H296.687C297.191 246.996 297.673 247.196 298.029 247.553C298.385 247.909 298.585 248.392 298.585 248.896C298.585 249.4 298.385 249.883 298.029 250.24C297.673 250.596 297.191 250.796 296.687 250.796H258.18Z" fill="#E5E5E5"/>
<path d="M277.434 237.672C270.781 237.672 265.387 232.274 265.387 225.614C265.387 218.955 270.781 213.557 277.434 213.557C284.087 213.557 289.48 218.955 289.48 225.614C289.48 232.274 284.087 237.672 277.434 237.672Z" fill="#07106D"/>
<path d="M146.095 261.991C145.591 261.991 145.108 261.791 144.752 261.435C144.396 261.079 144.196 260.595 144.196 260.091C144.196 259.587 144.396 259.104 144.752 258.748C145.108 258.392 145.591 258.191 146.095 258.191H184.602C185.105 258.191 185.588 258.392 185.944 258.748C186.3 259.104 186.5 259.587 186.5 260.091C186.5 260.595 186.3 261.079 185.944 261.435C185.588 261.791 185.105 261.991 184.602 261.991H146.095Z" fill="#E5E5E5"/>
<path d="M146.095 250.796C145.591 250.796 145.108 250.596 144.752 250.24C144.396 249.883 144.196 249.4 144.196 248.896C144.196 248.392 144.396 247.909 144.752 247.553C145.108 247.196 145.591 246.996 146.095 246.996H184.602C185.105 246.996 185.588 247.196 185.944 247.553C186.3 247.909 186.5 248.392 186.5 248.896C186.5 249.4 186.3 249.883 185.944 250.24C185.588 250.596 185.105 250.796 184.602 250.796H146.095Z" fill="#E5E5E5"/>
<path d="M165.348 237.672C158.695 237.672 153.301 232.274 153.301 225.614C153.301 218.955 158.695 213.557 165.348 213.557C172.001 213.557 177.395 218.955 177.395 225.614C177.395 232.274 172.001 237.672 165.348 237.672Z" fill="#07106D"/>
<path d="M470.361 388.734L463.907 392.258L468.015 405.765L474.468 406.352L477.989 398.718L470.361 388.734Z" fill="#FFA5A5"/>
<path d="M490.309 415.748V422.207L500.283 421.62L500.144 416.3L490.309 415.748Z" fill="#FFA5A5"/>
<path d="M468.015 311.219L471.534 355.263L482.682 419.86L500.283 417.511L494.416 366.42L496.763 319.441L468.015 311.219Z" fill="#262424"/>
<path d="M514.951 278.332L472.708 278.919L468.014 311.218L496.763 324.725L503.804 350.564L468.014 388.735L482.095 406.352C482.095 406.352 502.043 379.339 516.711 364.07C531.379 348.802 524.338 302.409 524.338 302.409L514.951 278.332Z" fill="#262424"/>
<path d="M489.723 194.941C482.594 194.941 476.815 189.156 476.815 182.021C476.815 174.886 482.594 169.102 489.723 169.102C496.851 169.102 502.63 174.886 502.63 182.021C502.63 189.156 496.851 194.941 489.723 194.941Z" fill="#FFA5A5"/>
<path d="M485.029 190.832V203.751L493.83 217.845C493.83 217.845 507.324 207.862 504.39 205.513C501.457 203.164 500.87 184.959 500.87 184.959L485.029 190.832Z" fill="#FFA5A5"/>
<path d="M485.029 201.402L473 207.5L460.5 213L470.5 239.5L471.5 284.791H518L528 213L517 207.5L506.151 204.338L502.126 198.857L495.003 209.623L485.029 201.402Z" fill="#E5E5E5"/>
<path d="M470.948 239.575L464.494 264.239L473 289.001L469 305.501L451 258.367C451 258.367 458.04 221.957 458.627 217.846C459.214 213.736 460.387 213.148 460.387 213.148L465.081 213.736L470.948 239.575Z" fill="#E5E5E5"/>
<path d="M517.884 248.969L523.165 252V266.5L517.884 288L523.165 299.5L537.246 260.714L528.445 213.146H524.925L517.884 248.969Z" fill="#E5E5E5"/>
<path d="M468.014 388.148C468.014 388.148 459.8 390.497 456.867 391.085C453.933 391.672 458.627 402.83 458.627 402.83C458.627 402.83 461.561 418.098 462.147 421.034C462.734 423.971 466.841 433.954 472.121 435.128C477.402 436.303 473.881 414.575 473.881 414.575C473.881 414.575 476.228 407.528 476.228 405.179C476.228 402.83 472.708 404.004 472.708 404.004C463.321 402.83 468.014 388.148 468.014 388.148Z" fill="#262424"/>
<path d="M487.376 433.365C487.962 436.888 486.789 436.888 496.176 438.063C505.564 439.237 503.217 431.603 503.217 431.603C502.824 428.004 502.037 424.459 500.87 421.033C499.11 416.335 489.722 422.207 489.722 422.207C489.722 422.207 486.789 429.841 487.376 433.365Z" fill="#262424"/>
<path d="M500.885 185.369L501.191 190.592C501.191 190.592 504.977 182.023 505.564 173.214C506.15 164.405 496.176 162.643 490.309 162.056C484.442 161.469 474.468 165.58 474.468 170.278C474.468 174.976 485.029 173.801 489.136 172.627C493.243 171.452 495.003 181.435 495.003 181.435L497.35 182.023L500.885 185.369Z" fill="#262424"/>
<path d="M481.566 205.561L485.029 201.402L495.003 209.624L485.029 216.671L481.566 205.561Z" fill="#F6F6F6"/>
<path d="M506.151 204.338L502.044 199.053L495.003 209.623L503.804 216.083L506.151 204.338Z" fill="#F6F6F6"/>
<path d="M17.6313 243.477L70.2912 305.35C70.2912 305.35 87.7993 317.894 104.809 304.432C121.818 290.97 114.921 270.839 114.921 270.839L66.51 211.583C66.51 211.583 106.311 205.234 120.34 211.441C134.369 217.649 164.009 260.314 164.723 271.651C165.437 282.989 152.271 323.566 152.271 323.566L231.27 419.384C231.27 419.384 234.91 439.829 220.031 452.577C205.153 465.325 182.465 452.122 182.465 452.122L107.112 352.19C107.112 352.19 76.1478 358.829 61.2692 354.58C46.3907 350.33 14.0225 312.758 9.05886 298.588C4.09524 284.418 17.6313 243.477 17.6313 243.477Z" fill="#D3D3D3"/>
</svg>
