<svg width="209" height="178" viewBox="0 0 209 178" fill="none" xmlns="http://www.w3.org/2000/svg">
<g clip-path="url(#clip0)">
<path d="M187.847 99.4117C187.813 102.053 187.692 105.012 187.42 108.13L195.048 98.6434L195.101 98.7918C194.477 96.6508 193.553 94.6084 192.357 92.7246L192.418 92.8642L187.847 99.4117Z" fill="#57B894"/>
<path d="M187.852 98.9493L192.28 92.607C191.007 90.6943 189.482 89.2134 187.741 88.31C187.651 88.263 187.56 88.2192 187.469 88.1758C187.537 88.8907 187.906 93.0897 187.852 98.9493Z" fill="#57B894"/>
<path d="M196.002 117.359C196.189 116.253 196.335 115.15 196.438 114.049L184.936 123.06L184.92 122.98C184.747 123.63 184.567 124.269 184.379 124.897L195.975 117.184L196.002 117.359Z" fill="#57B894"/>
<path d="M186.248 116.993L196.542 107.477L196.583 107.642C196.45 104.699 195.969 101.783 195.149 98.9531L187.376 108.62C187.107 111.541 186.731 114.332 186.248 116.993Z" fill="#57B894"/>
<path d="M187.18 108.454L173.41 94.8054L173.469 94.6387C172.352 96.4164 171.418 98.3022 170.682 100.267L186.352 115.091C186.725 112.774 186.992 110.536 187.18 108.454Z" fill="#57B894"/>
<path d="M185.993 117.167C186.098 116.601 186.197 116.038 186.29 115.48L170.561 100.602L170.619 100.434C170.359 101.126 170.115 101.84 169.887 102.577L169.944 102.409L185.993 117.167Z" fill="#57B894"/>
<path d="M185.018 122.602L196.425 113.667L196.458 113.837C196.638 111.842 196.683 109.836 196.592 107.834L186.158 117.479C185.826 119.252 185.445 120.96 185.018 122.602Z" fill="#57B894"/>
<path d="M168.793 116.558L181.691 131.472C182.566 129.515 183.323 127.508 183.957 125.462L168.435 110.977C168.401 112.901 168.497 114.826 168.721 116.738L168.793 116.558Z" fill="#57B894"/>
<path d="M187.249 88.1756L187.354 88.1215C184.646 86.8735 181.812 87.1879 179.169 88.7641L187.641 98.9512C187.697 92.6115 187.256 88.2384 187.249 88.1756Z" fill="#57B894"/>
<path d="M184.05 125.964C183.466 127.806 182.782 129.615 182.001 131.384L193.703 124.462L193.725 124.635C194.545 123.051 195.161 121.37 195.557 119.632C195.71 118.948 195.845 118.264 195.964 117.578L184.23 125.382C184.17 125.577 184.111 125.772 184.05 125.964Z" fill="#57B894"/>
<path d="M187.635 99.4221L178.969 89.0012L179.036 88.8418C177.053 90.0591 175.182 91.9886 173.558 94.5013L187.217 108.039C187.483 104.957 187.602 102.033 187.635 99.4221Z" fill="#57B894"/>
<path d="M184.068 125.103C184.822 122.617 185.44 120.094 185.921 117.542L169.833 102.748C169.528 103.748 169.255 104.785 169.014 105.86C168.682 107.4 168.492 108.967 168.446 110.542L184.057 125.11L184.068 125.103Z" fill="#57B894"/>
<path d="M200.641 141.109C198.926 143.122 196.94 145.324 194.737 147.552L206.678 145.098L206.625 145.247C207.513 143.201 208.107 141.04 208.391 138.828L208.348 138.974L200.641 141.109Z" fill="#57B894"/>
<path d="M207.66 132.492C207.62 132.398 207.578 132.306 207.536 132.215C207.131 132.809 204.73 136.277 200.941 140.756L208.407 138.688C208.65 136.405 208.423 134.295 207.66 132.492Z" fill="#57B894"/>
<path d="M183.315 157.4C182.766 157.791 182.219 158.168 181.672 158.532L195.535 159.969L195.444 160.121C196.296 159.388 197.114 158.631 197.898 157.849L183.276 157.472L183.315 157.4Z" fill="#57B894"/>
<path d="M188.167 153.632L202.181 152.852L202.107 153.005C203.887 150.654 205.381 148.101 206.559 145.4L194.39 147.901C192.316 149.98 190.241 151.89 188.167 153.632Z" fill="#57B894"/>
<path d="M183.632 157.171L198.131 157.546L198.048 157.698C199.463 156.276 200.78 154.76 201.991 153.16L187.787 153.951C186.397 155.105 185.012 156.178 183.632 157.171Z" fill="#57B894"/>
<path d="M166.373 165.313C166.469 165.204 166.567 165.093 166.667 164.977C169.584 164.337 172.412 163.35 175.092 162.036L174.882 151.663C174.984 151.392 175.081 151.119 175.175 150.844L175.398 161.886C177.323 160.936 179.189 159.872 180.987 158.699L178.528 139.495C178.628 139.436 178.729 139.375 178.833 139.312L181.288 158.492L181.302 158.493C183.471 157.058 185.561 155.508 187.564 153.849L185.004 134.96C185.103 134.879 185.202 134.797 185.301 134.714L187.86 153.603C188.303 153.234 188.739 152.864 189.167 152.493L186.85 133.356C186.948 133.266 187.046 133.175 187.144 133.083L189.463 152.235C191.232 150.688 192.868 149.134 194.345 147.65L192.467 128.378L192.619 128.287C192.091 128.458 191.555 128.652 191.016 128.864C191.982 127.625 192.84 126.305 193.579 124.918L181.765 131.906C181.018 133.546 180.162 135.135 179.205 136.663C178.995 136.885 178.787 137.11 178.581 137.34L178.611 137.575C178.519 137.711 178.427 137.846 178.334 137.98L178.294 137.668C178.177 137.803 178.06 137.941 177.944 138.079C179.342 136.098 180.55 133.99 181.551 131.783L168.748 116.979C168.909 118.354 169.124 119.735 169.377 121.103C168.168 119.379 166.732 117.826 165.108 116.484L165.208 116.599L162.891 124.234C163.677 126.757 164.479 129.608 165.186 132.657L169.441 121.441C169.473 121.611 169.506 121.78 169.539 121.949L165.296 133.136C165.946 135.997 166.453 138.767 166.818 141.447L172.139 131.939C172.181 132.069 172.222 132.198 172.263 132.326L166.883 141.937C167.116 143.726 167.284 145.467 167.387 147.162L173.996 137.332C174.041 137.453 174.086 137.572 174.13 137.689L167.45 147.622L167.411 147.551C167.448 148.223 167.474 148.886 167.49 149.541L175.036 140.011C175.086 140.134 175.133 140.248 175.176 140.353L167.499 150.048C167.502 150.251 167.506 150.455 167.508 150.657C167.523 152.589 167.434 154.52 167.239 156.442L167.972 155.611C167.842 155.925 167.716 156.234 167.593 156.539L167.176 157.012C167.143 157.298 167.107 157.582 167.068 157.864C166.926 158.23 166.79 158.587 166.659 158.934C166.765 158.281 166.857 157.623 166.934 156.961L150.17 146.829C154.999 157.319 163.512 167.072 164.057 167.691C164.423 166.902 164.753 166.096 165.048 165.272C165.148 165.256 165.248 165.24 165.348 165.223C165.313 165.322 165.279 165.422 165.244 165.52C165.192 165.529 165.139 165.538 165.087 165.546C165.13 165.556 165.176 165.566 165.223 165.576C165.014 166.153 164.79 166.718 164.552 167.268C164.887 166.931 165.39 166.409 165.998 165.734C169.849 166.48 180.18 167.953 188.745 164.4L175.178 162.267C172.381 163.643 169.423 164.667 166.373 165.313ZM174.806 147.86L175.108 147.517L175.118 148.004L174.816 148.347L174.806 147.86Z" fill="#57B894"/>
<path d="M207.366 132.074L207.481 132.099C206.194 129.415 203.81 127.854 200.767 127.387L200.777 140.622C204.874 135.775 207.331 132.126 207.366 132.074Z" fill="#57B894"/>
<path d="M180.737 159.144C179.109 160.191 177.426 161.15 175.693 162.015L189.132 164.128L189.039 164.275C190.683 163.577 192.232 162.674 193.649 161.587C194.204 161.158 194.746 160.717 195.276 160.265L181.248 158.811C181.077 158.922 180.907 159.035 180.737 159.144Z" fill="#57B894"/>
<path d="M194.638 147.353C196.815 145.149 198.776 142.972 200.471 140.983L200.461 127.444L200.614 127.363C198.308 127.04 195.633 127.336 192.776 128.238L194.638 147.353Z" fill="#57B894"/>
<path d="M164.997 116.395C163.194 114.969 161.285 114.03 159.349 113.708C159.248 113.691 159.148 113.677 159.049 113.664C159.335 114.323 160.987 118.203 162.752 123.792L164.997 116.395Z" fill="#57B894"/>
<path d="M165.059 133.039L147.732 124.304L147.738 124.127C147.226 126.162 146.923 128.243 146.831 130.339L166.328 139.606C165.965 137.287 165.525 135.077 165.059 133.039Z" fill="#57B894"/>
<path d="M166.388 139.994L146.819 130.693L146.822 130.516C146.789 131.254 146.778 132.009 146.79 132.78L146.792 132.602L166.629 141.689C166.554 141.119 166.473 140.554 166.388 139.994Z" fill="#57B894"/>
<path d="M167.265 150.209L148.013 141.219C148.578 143.06 149.265 144.861 150.071 146.61L150.084 146.417L166.972 156.623C167.198 154.493 167.296 152.351 167.265 150.209Z" fill="#57B894"/>
<path d="M158.839 113.731L158.922 113.648C155.96 113.295 153.362 114.468 151.337 116.782L162.551 123.859C160.64 117.812 158.865 113.789 158.839 113.731Z" fill="#57B894"/>
<path d="M162.692 124.309L151.221 117.07L151.235 116.898C149.727 118.667 148.545 121.079 147.78 123.969L164.965 132.634C164.263 129.62 163.47 126.802 162.692 124.309Z" fill="#57B894"/>
<path d="M167.259 149.832C167.205 147.236 167.011 144.645 166.678 142.07L146.792 132.961C146.812 134.006 146.874 135.076 146.978 136.173C147.14 137.74 147.445 139.289 147.889 140.801L167.25 149.842L167.259 149.832Z" fill="#57B894"/>
<path d="M151.054 103.849L93.2988 96.5879C90.6811 74.8699 94.6359 53.6673 101.388 32.582L159.144 39.8434C150.428 60.529 147.87 81.8792 151.054 103.849Z" fill="#F2F2F2"/>
<path d="M144.752 44.6836L109.457 40.2461L108.979 44.0283L144.274 48.4657L144.752 44.6836Z" fill="#BA1C51"/>
<path opacity="0.3" d="M149.136 54.5457L101.298 48.5312L101.059 50.4223L148.897 56.4368L149.136 54.5457Z" fill="#BA1C51"/>
<path opacity="0.3" d="M148.364 60.6551L100.526 54.6406L100.287 56.5317L148.125 62.5462L148.364 60.6551Z" fill="#BA1C51"/>
<path opacity="0.3" d="M147.592 66.7644L99.7542 60.75L99.5152 62.6411L147.353 68.6555L147.592 66.7644Z" fill="#BA1C51"/>
<path opacity="0.3" d="M146.82 72.8738L98.9819 66.8594L98.7429 68.7505L146.581 74.7649L146.82 72.8738Z" fill="#BA1C51"/>
<path opacity="0.3" d="M146.048 78.9851L98.2097 72.9707L97.9707 74.8618L145.809 80.8762L146.048 78.9851Z" fill="#BA1C51"/>
<path opacity="0.3" d="M145.276 85.0945L97.4377 79.0801L97.1987 80.9712L145.037 86.9856L145.276 85.0945Z" fill="#BA1C51"/>
<path opacity="0.3" d="M144.503 91.2039L96.6655 85.1895L96.4265 87.0805L144.264 93.095L144.503 91.2039Z" fill="#BA1C51"/>
<path d="M123.704 82.4534L69.6702 60.8521C72.6474 39.1802 81.8526 19.6657 93.7342 0.970703L147.768 22.572C134.089 40.3849 126.197 60.3947 123.704 82.4534Z" fill="#E6E6E6"/>
<path d="M132.617 23.6227L99.5964 10.4219L98.1745 13.9603L131.195 27.1611L132.617 23.6227Z" fill="#BA1C51"/>
<path opacity="0.3" d="M134.357 34.2709L89.6016 16.3789L88.8906 18.1481L133.646 36.0401L134.357 34.2709Z" fill="#BA1C51"/>
<path opacity="0.3" d="M132.06 39.9857L87.3044 22.0938L86.5935 23.863L131.349 41.7549L132.06 39.9857Z" fill="#BA1C51"/>
<path opacity="0.3" d="M129.763 45.7006L85.0073 27.8086L84.2963 29.5778L129.052 47.4698L129.763 45.7006Z" fill="#BA1C51"/>
<path opacity="0.3" d="M127.466 51.4174L82.7104 33.5254L81.9995 35.2946L126.755 53.1866L127.466 51.4174Z" fill="#BA1C51"/>
<path opacity="0.3" d="M125.169 57.1342L80.4133 39.2422L79.7023 41.0114L124.458 58.9034L125.169 57.1342Z" fill="#BA1C51"/>
<path opacity="0.3" d="M122.871 62.8509L78.1162 44.959L77.4052 46.7282L122.161 64.6202L122.871 62.8509Z" fill="#BA1C51"/>
<path opacity="0.3" d="M120.575 68.5658L75.8193 50.6738L75.1084 52.4431L119.864 70.335L120.575 68.5658Z" fill="#BA1C51"/>
<path d="M110.341 87.6569H52.1286C46.8083 66.436 48.0734 44.9065 52.1286 23.1445H110.341C104.288 44.7549 104.427 66.2566 110.341 87.6569Z" fill="#F2F2F2"/>
<path d="M96.6701 29.7422H61.0957V33.5543H96.6701V29.7422Z" fill="#BA1C51"/>
<path opacity="0.3" d="M102.256 38.9785H54.0396V40.8846H102.256V38.9785Z" fill="#BA1C51"/>
<path opacity="0.3" d="M102.256 45.1367H54.0396V47.0428H102.256V45.1367Z" fill="#BA1C51"/>
<path opacity="0.3" d="M102.256 51.2949H54.0396V53.201H102.256V51.2949Z" fill="#BA1C51"/>
<path opacity="0.3" d="M102.256 57.4531H54.0396V59.3592H102.256V57.4531Z" fill="#BA1C51"/>
<path opacity="0.3" d="M102.256 63.6113H54.0396V65.5174H102.256V63.6113Z" fill="#BA1C51"/>
<path opacity="0.3" d="M102.256 69.7676H54.0396V71.6736H102.256V69.7676Z" fill="#BA1C51"/>
<path opacity="0.3" d="M102.256 75.9258H54.0396V77.8318H102.256V75.9258Z" fill="#BA1C51"/>
<path d="M71.1029 74.778L51.048 59.2272C50.8473 58.8791 50.5582 58.59 50.2098 58.3889C49.8613 58.1879 49.4659 58.082 49.0633 58.082H38.2393C37.6321 58.082 37.0498 58.3226 36.6205 58.7508C36.1911 59.179 35.95 59.7598 35.95 60.3654V155.652C35.95 157.616 36.7323 159.5 38.1249 160.889C39.5175 162.278 41.4062 163.058 43.3756 163.058H154.489C155.464 163.058 156.43 162.866 157.331 162.494C158.232 162.122 159.05 161.576 159.74 160.889C160.429 160.201 160.976 159.384 161.35 158.486C161.723 157.587 161.915 156.624 161.915 155.652V81.5098C161.915 79.7244 161.204 78.0122 159.938 76.7497C158.672 75.4872 156.955 74.778 155.165 74.778H71.1029Z" fill="#3F3D56"/>
<path d="M158.136 96.875H137.981V103.911H158.136V96.875Z" fill="#BA1C51"/>
<path d="M0.5 177.535C0.5 177.535 92.6778 124.955 203.987 177.535H0.5Z" fill="#F2F2F2"/>
<path d="M20.2419 56.8741C20.2419 56.8741 21.2312 62.1038 20.5387 62.4985C19.9794 62.8492 19.4499 63.2452 18.9558 63.6826L20.7366 66.1494L24.9906 67.0375L29.0468 63.2879V59.5383C29.0468 59.5383 27.8596 57.6635 28.0574 56.4794C28.2553 55.2953 20.2419 56.8741 20.2419 56.8741Z" fill="#FBBEBE"/>
<path opacity="0.1" d="M20.2419 56.8741C20.2419 56.8741 21.2312 62.1038 20.5387 62.4985C19.9794 62.8492 19.4499 63.2452 18.9558 63.6826L20.7366 66.1494L24.9906 67.0375L29.0468 63.2879V59.5383C29.0468 59.5383 27.8596 57.6635 28.0574 56.4794C28.2553 55.2953 20.2419 56.8741 20.2419 56.8741Z" fill="black"/>
<path d="M13.4157 65.8535L12.8221 66.1495C12.8221 66.1495 11.536 66.6429 10.9424 70.8859C10.3488 75.1288 8.96382 85.2922 9.35954 85.5882C9.75527 85.8842 9.5574 87.8577 9.5574 87.8577L12.5253 72.366L13.4157 65.8535Z" fill="#2F2E41"/>
<path d="M20.4508 41.7711C20.3603 41.9594 20.3286 42.1794 20.2437 42.3712C19.8581 43.2427 18.7605 43.0477 17.9688 43.3773C17.2983 43.6564 16.7979 44.4229 16.7454 45.2512C16.7231 45.6028 16.7748 45.9575 16.7431 46.3081C16.6846 46.9559 16.3497 47.5263 16.2306 48.1626C15.9411 49.7083 16.6166 52.1494 17.3793 51.3152C17.6199 51.0522 17.9209 50.8778 18.1808 50.641C18.8555 50.026 19.1992 49.0482 19.7472 48.2807C19.8166 48.1681 19.912 48.0738 20.0255 48.0056C20.426 47.8071 20.7826 48.3384 21.0991 48.6866C21.2603 48.8621 21.457 49.0014 21.6763 49.0952C21.8956 49.189 22.1324 49.2352 22.3709 49.2306C22.6095 49.2261 22.8443 49.1709 23.0599 49.0689C23.2754 48.9668 23.4667 48.8201 23.621 48.6386C23.7176 48.4984 23.8378 48.3759 23.9763 48.2766C24.1307 48.2056 24.3047 48.1886 24.47 48.2282C25.2507 48.3653 25.954 48.783 26.4468 49.4022C26.7112 49.7249 26.9322 50.1046 27.2491 50.3547C27.566 50.6049 28.0283 50.6874 28.3137 50.39C28.888 50.795 29.1023 51.6548 29.1038 52.4377C29.1053 53.2206 28.9445 53.9985 28.9837 54.7801C29.023 55.5617 29.3306 56.4053 29.9551 56.692C30.0534 55.9803 30.4238 55.334 30.9887 54.8883C31.4141 54.5726 31.931 54.4162 32.2907 54.0041C33.0108 53.179 32.7826 51.8067 32.8103 50.6296C32.8444 49.1779 33.3488 47.79 33.438 46.3414C33.4825 45.6175 33.4075 44.8414 33.0255 44.2685C32.7364 43.8868 32.3698 43.5701 31.9498 43.3391L28.5542 41.1663C28.4034 41.0551 28.2324 40.9743 28.0507 40.9281C27.5508 40.8386 27.1188 41.3062 26.6449 41.5123C26.2496 41.6521 25.8283 41.703 25.411 41.6615C24.0928 41.6259 23.7218 41.8813 22.8357 41.0246C22.7667 40.9551 22.6824 40.9028 22.5894 40.8719C22.4964 40.8409 22.3974 40.8322 22.3005 40.8465C21.7705 40.9303 20.7407 41.1676 20.4508 41.7711Z" fill="#2F2E41"/>
<path d="M22.3196 160.975L24.3971 165.513L20.3409 166.895L18.2634 165.81L18.7582 160.975H22.3196Z" fill="#FBBEBE"/>
<path d="M20.4399 164.824C20.4399 164.824 17.1752 162.85 16.5816 163.541C15.988 164.232 11.2393 169.264 11.2393 169.264C11.2393 169.264 3.91845 173.211 9.5575 173.803C15.1966 174.395 24.3971 170.35 24.3971 170.35C24.3971 170.35 24.8918 165.021 24.4961 164.923C24.1003 164.824 22.4185 165.811 21.6271 165.515C21.19 165.364 20.7867 165.129 20.4399 164.824Z" fill="#2F2E41"/>
<path d="M27.6618 165.81V169.856L22.3196 168.672L23.5067 164.527L27.6618 165.81Z" fill="#FBBEBE"/>
<path d="M22.2206 167.191C22.2206 167.191 27.6618 166.303 28.1564 168.967C28.6511 171.631 29.9372 175.578 28.6511 176.565C27.365 177.552 20.7366 178.834 20.6377 177.157C20.5388 175.479 21.3302 172.223 21.3302 172.223C21.3302 172.223 21.8249 169.658 21.5281 168.967C21.2313 168.276 22.2206 167.191 22.2206 167.191Z" fill="#2F2E41"/>
<path d="M11.3527 100.562C11.3527 100.562 6.88636 128.808 10.5468 142.623C14.2072 156.437 16.7794 164.627 16.7794 164.627C16.7794 164.627 23.111 162.851 23.111 161.667C23.111 160.482 20.6377 142.919 20.0442 141.241C19.4506 139.564 18.4613 138.972 19.3516 137.59C20.242 136.209 21.726 127.328 21.726 127.328C21.726 127.328 24.9907 142.031 25.1886 142.425C25.3864 142.82 23.111 165.416 23.111 165.416C23.111 165.416 29.6415 170.143 30.0362 166.6C30.1351 165.712 34.4881 134.235 34.4881 133.841C34.4881 133.446 36.2688 103.252 33.3998 101.772C30.5308 100.292 11.3527 100.562 11.3527 100.562Z" fill="#2F2E41"/>
<path d="M24.1003 58.8493C27.8157 58.8493 30.8276 55.8452 30.8276 52.1395C30.8276 48.4338 27.8157 45.4297 24.1003 45.4297C20.385 45.4297 17.373 48.4338 17.373 52.1395C17.373 55.8452 20.385 58.8493 24.1003 58.8493Z" fill="#FBBEBE"/>
<path d="M22.6164 65.4597V64.769L20.6377 61.5128C20.6377 61.5128 18.6591 61.7101 18.3623 62.5982C18.0655 63.4863 14.7019 70.5908 14.7019 70.5908L11.1404 102.462C11.1404 102.462 20.9345 104.83 22.4185 103.153C23.9025 101.476 29.5415 64.9664 29.5415 64.9664L30.333 60.5261C30.333 60.5261 28.974 58.5526 28.6642 58.8486C28.3543 59.1446 23.2099 64.8677 23.2099 64.8677L23.111 65.7558L22.6164 65.4597Z" fill="#BA1C51"/>
<path d="M20.5882 60.8712C20.5882 60.8712 18.758 60.4271 18.1644 61.5125C17.5708 62.5979 17.5708 62.9926 16.9772 63.3873C16.3837 63.782 12.9211 65.5582 12.7232 66.2489C12.5254 66.9396 8.27134 88.7464 8.27134 88.7464C8.27134 88.7464 6.19379 95.2589 7.1831 99.6992C8.17241 104.139 7.47989 105.028 9.55744 105.422C11.635 105.817 11.9318 105.817 11.9318 105.225C11.9318 104.633 14.6029 84.6021 16.4826 83.2207C18.3623 81.8393 17.8676 66.7422 17.8676 66.7422C17.8676 66.7422 20.5388 63.486 20.5388 62.9926C20.5388 62.4993 20.9839 60.8342 20.5882 60.8712Z" fill="#2F2E41"/>
<path d="M26.1779 64.4716C26.4539 64.5175 30.2341 59.6366 30.5309 59.834C30.8277 60.0313 32.3116 62.5968 32.5095 62.5968C32.7073 62.5968 41.1165 64.6689 41.809 68.5172C42.5015 72.3655 36.9614 84.601 36.9614 84.601C36.9614 84.601 34.587 91.6068 35.0817 94.6657C35.4173 96.9951 35.3504 99.3646 34.8838 101.671C34.686 102.461 33.9934 103.349 34.1913 103.744C34.3892 104.138 29.8383 103.25 27.9587 104.336C26.079 105.421 17.6699 106.21 18.1645 105.026C18.6592 103.842 18.956 99.2047 20.341 94.271C21.726 89.3373 25.2875 77.6938 24.6939 76.9045C24.1004 76.1151 25.5843 64.3729 26.1779 64.4716Z" fill="#2F2E41"/>
<path d="M40.6217 67.334L41.9078 68.5181C41.9078 68.5181 43.3918 71.0836 43.1939 72.2677C42.9961 73.4517 47.349 91.3116 45.5683 91.9037C43.7875 92.4957 39.5335 95.4559 39.0388 96.2453C38.5442 97.0347 37.357 98.4161 36.5656 98.8108C35.7741 99.2055 34.9827 99.8962 34.488 99.5015C33.9934 99.1068 32.9051 91.0156 33.6966 90.7196C34.488 90.4236 35.2795 89.5355 36.0709 89.5355C36.8623 89.5355 37.357 88.7461 37.357 88.0554C37.357 87.3647 36.7634 83.2204 36.7634 83.2204L35.4773 73.4517L40.6217 67.334Z" fill="#2F2E41"/>
<path d="M21.6376 42.7553C21.5575 42.8977 21.5295 43.0639 21.4544 43.209C21.1135 43.8677 20.1429 43.7203 19.4429 43.9695C19.1471 44.0799 18.8885 44.2715 18.6971 44.5221C18.5058 44.7728 18.3893 45.0723 18.3612 45.3861C18.3415 45.6519 18.3872 45.92 18.3592 46.1851C18.3074 46.6747 18.0114 47.1059 17.906 47.587C17.65 48.7555 18.2473 50.6009 18.9217 49.9702C19.1344 49.7714 19.4006 49.6396 19.6304 49.4606C20.227 48.9956 20.5308 48.2564 21.0155 47.6763C21.0799 47.5885 21.1642 47.5173 21.2615 47.4683C21.6156 47.3183 21.9309 47.7199 22.2108 47.9831C22.5206 48.2545 22.9205 48.4011 23.3328 48.3944C23.745 48.3877 24.1399 48.2281 24.4406 47.9468C24.5289 47.8384 24.6352 47.7458 24.7548 47.6731C24.8937 47.6193 25.0453 47.6066 25.1913 47.6366C25.8574 47.7281 26.4732 48.0407 26.9392 48.5241C27.1495 48.7885 27.3873 49.0298 27.6486 49.2442C27.9288 49.4333 28.3376 49.4956 28.5899 49.2708C29.0978 49.577 29.2872 50.2269 29.2886 50.8188C29.2899 51.4106 29.1477 51.9987 29.1824 52.5895C29.2171 53.1804 29.4891 53.8181 30.0413 54.0349C30.092 53.7573 30.1993 53.4931 30.3565 53.2586C30.5137 53.0241 30.7175 52.8242 30.9552 52.6714C31.3313 52.4327 31.7884 52.3144 32.1064 52.0029C32.7432 51.3792 32.5414 50.3418 32.5659 49.452C32.596 48.3545 33.042 47.3053 33.1208 46.2103C33.1602 45.663 33.0939 45.0763 32.7561 44.6433C32.4902 44.3471 32.1666 44.1081 31.805 43.9407L28.8026 42.2981C28.6658 42.2127 28.5152 42.1518 28.3574 42.118C27.9154 42.0504 27.5334 42.4039 27.1144 42.5596C26.7611 42.6657 26.3909 42.704 26.0234 42.6725C24.8578 42.6456 24.5297 42.8386 23.7463 42.191C23.681 42.1372 23.6052 42.0974 23.5238 42.0742C23.4423 42.051 23.3569 42.045 23.273 42.0564C22.8044 42.1197 21.8939 42.2991 21.6376 42.7553Z" fill="#2F2E41"/>
</g>
<defs>
<clipPath id="clip0">
<rect width="208" height="177" fill="white" transform="translate(0.5 0.970703)"/>
</clipPath>
</defs>
</svg>
