<svg width="221" height="162" viewBox="0 0 221 162" fill="none" xmlns="http://www.w3.org/2000/svg">
<g clip-path="url(#clip0)">
<path opacity="0.2" d="M31.1952 9.86782C29.5562 9.8209 27.8766 9.86782 26.3393 10.341C22.1565 11.6301 20.1739 15.8481 20.8185 19.4929C21.4631 23.1378 24.1147 26.3135 26.866 29.216C29.6172 32.1184 32.5983 34.9882 34.1071 38.4576C34.8595 40.1893 35.2113 42.129 34.4467 43.8586C33.2673 46.5245 29.7108 48.0134 26.2966 48.3234C22.8824 48.6335 19.454 48.0297 16.0277 47.8278C14.59 47.7442 13.1117 47.734 11.7574 48.1236C10.2709 48.5478 9.03257 49.4146 7.89384 50.3182C3.4426 53.8591 -0.120014 58.6951 0.461554 63.7677C1.11226 69.5256 6.91574 74.0761 13.2723 76.5176C15.377 77.3334 17.6036 77.982 19.4561 79.1365C24.3364 82.1817 25.4324 87.8927 24.9464 92.9327C24.4604 97.9727 22.8052 103.019 23.7263 108.014C24.8102 113.825 29.6071 119.075 36.0775 121.527C41.8424 123.711 49.0571 123.566 54.1753 120.484C56.6703 118.979 58.5574 116.888 60.1984 114.726C62.635 111.534 64.648 108.037 66.1869 104.324C66.9006 102.592 67.5717 100.73 69.2371 99.5269C70.2538 98.7865 71.5715 98.3724 72.8749 98.0502C76.8036 97.0793 80.9417 96.8142 84.9069 95.9493C88.8721 95.0845 92.8516 93.4712 95.0071 90.5891C98.0573 86.5098 96.6338 81.2842 96.6481 76.487C96.6725 65.5422 104.601 55.7457 107.527 45.0763C108.483 41.5905 108.839 37.7336 106.704 34.6231C105.254 32.512 102.807 30.9884 100.237 29.8115C94.5821 27.2232 88.1543 26.0708 81.8323 24.949C73.0458 23.3907 62.3762 23.1888 55.5662 18.1468C49.0408 13.3169 40.0997 9.86782 31.1952 9.86782Z" fill="#BA1C51"/>
<g opacity="0.5">
<path opacity="0.5" d="M5.55941 72.2257C5.12425 72.8702 4.76637 73.8064 5.33573 74.8977C6.45413 77.0393 9.21963 76.5987 10.5637 78.6486C10.9229 79.2166 11.1231 79.8711 11.1433 80.5434C11.1941 81.704 10.8362 82.6177 10.6512 83.6396C10.4092 84.8447 10.5978 86.0968 11.1839 87.1764C11.8438 88.3034 12.8395 89.1944 14.0308 89.7239C15.0719 90.1849 16.0642 90.3032 17.0606 90.5275C18.2967 90.8118 19.5006 91.2219 20.6538 91.7513C21.2018 91.9818 21.7173 92.2835 22.187 92.6488C22.7598 93.153 23.2797 93.7148 23.7385 94.3254L28.0637 99.6815C28.6132 100.404 29.2257 101.075 29.8938 101.688C30.6227 102.278 31.4235 102.772 32.277 103.159C34.0034 104.022 35.8091 104.905 37.3078 104.805C38.8064 104.705 39.8475 103.255 39.1379 101.228C38.4668 99.298 36.5757 97.6724 35.7176 95.747C34.3653 92.712 36.1365 90.4439 35.0038 87.4048C33.918 84.484 30.8739 82.526 28.9299 79.8581C27.535 77.9612 26.7582 75.7543 25.5015 73.7616C23.6714 70.9061 20.9466 68.7216 18.3844 67.6161C16.1311 66.6553 13.6636 66.3124 11.2348 66.6228C10.3075 66.7248 9.39451 66.8981 8.73567 67.455C8.03616 68.0465 8.12563 69.152 7.67014 69.9372C7.14754 70.8408 6.15115 71.3527 5.55941 72.2257Z" fill="#BA1C51"/>
<path opacity="0.5" d="M8.27417 68.1172C8.27417 68.1172 29.9264 88.4219 38.6581 104.231" stroke="#535461" stroke-width="2" stroke-miterlimit="10"/>
<path opacity="0.5" d="M5.41919 75.0227C5.41919 75.0227 14.0715 73.3359 20.0601 80.1014" stroke="#535461" stroke-width="2" stroke-miterlimit="10"/>
<path opacity="0.5" d="M11.5684 87.7716C11.5684 87.7716 21.1256 81.0673 24.432 84.9671" stroke="#535461" stroke-width="2" stroke-miterlimit="10"/>
<path opacity="0.5" d="M18.3436 67.5664C18.3436 67.5664 17.337 72.6982 20.9586 81.0811" stroke="#535461" stroke-width="2" stroke-miterlimit="10"/>
<path opacity="0.5" d="M34.9937 87.4844C34.9937 87.4844 34.1478 90.8498 27.3479 88.3757" stroke="#535461" stroke-width="2" stroke-miterlimit="10"/>
<path opacity="0.5" d="M28.0901 99.2575C28.0901 99.2575 32.2404 94.4459 30.3533 92.084" stroke="#535461" stroke-width="2" stroke-miterlimit="10"/>
</g>
<path d="M1.49055 48.6757C0.473822 49.8811 -0.477835 51.5496 0.270476 53.1956C1.71016 56.4264 7.03985 54.8456 8.94113 57.8541C9.5105 58.7536 9.58777 59.853 9.45559 60.834C9.19938 62.7534 8.25179 64.383 7.59702 66.1371C6.94224 67.8912 6.60266 70.0125 7.52585 71.8645C8.41446 73.6573 10.2873 74.7893 12.1011 75.2401C13.915 75.6909 15.7329 75.5889 17.5447 75.648C19.6971 75.7327 21.8343 76.0486 23.9196 76.5904C24.836 76.7985 25.7134 77.1525 26.5183 77.6387C27.4435 78.2323 28.1919 79.1032 28.9239 79.9599L35.431 87.5657C36.2952 88.5856 37.1777 89.6054 38.2493 90.3539C39.4857 91.2167 40.8928 91.6552 42.2776 92.0774C45.2566 92.9912 48.378 93.9131 51.2248 93.287C54.0716 92.6608 56.4609 89.9317 55.7492 86.7723C55.0721 83.7638 52.0178 81.6303 50.9889 78.683C49.3622 74.0388 53.3782 69.731 52.1724 65.0051C51.0174 60.473 45.8971 58.1356 43.0503 54.299C41.0169 51.5496 40.2157 48.1107 38.4384 45.1858C35.8722 40.9638 31.3986 38.1674 26.9453 37.1047C22.4921 36.0421 18.0124 36.5377 13.8357 37.6004C12.0666 38.0511 10.2974 38.6202 8.89436 39.7461C7.40384 40.9434 7.23303 42.7607 6.14716 44.2048C4.88845 45.8834 2.8611 47.044 1.49055 48.6757Z" fill="#BA1C51"/>
<path d="M7.82471 41.0059C7.82471 41.0059 42.3263 68.2352 53.9353 91.9156" stroke="#535461" stroke-width="2" stroke-miterlimit="10"/>
<path d="M0.380371 53.3649C0.380371 53.3649 17.1299 47.9293 26.3151 57.3749" stroke="#535461" stroke-width="2" stroke-miterlimit="10"/>
<path d="M8.06665 72.742C8.06665 72.742 28.0169 58.6684 33.0599 64.1571" stroke="#535461" stroke-width="2" stroke-miterlimit="10"/>
<path d="M26.8943 37.0234C26.8943 37.0234 23.4558 45.8735 27.7077 58.7376" stroke="#535461" stroke-width="2" stroke-miterlimit="10"/>
<path d="M52.1193 65.1309C52.1193 65.1309 49.5145 70.9908 37.4988 68.9409" stroke="#535461" stroke-width="2" stroke-miterlimit="10"/>
<path d="M35.606 86.8353C35.606 86.8353 44.8521 77.559 42.0256 74.1895" stroke="#535461" stroke-width="2" stroke-miterlimit="10"/>
<path opacity="0.1" d="M125.661 158.366C177.883 158.366 220.217 146.995 220.217 132.968C220.217 118.941 177.883 107.57 125.661 107.57C73.4397 107.57 31.1057 118.941 31.1057 132.968C31.1057 146.995 73.4397 158.366 125.661 158.366Z" fill="#BA1C51"/>
<path d="M199.309 1.05469C199.309 1.05469 192.023 8.36276 196.137 19.2076C200.25 30.0524 189.085 48.087 189.085 48.087C189.085 48.087 189.205 48.0687 189.426 48.0299C204.391 45.3784 211.827 28.2127 203.506 15.4587C200.413 10.7186 197.873 5.15847 199.309 1.05469Z" fill="#BA1C51"/>
<path d="M199.309 1.05469C199.309 1.05469 195.195 10.0128 199.309 17.3209C203.423 24.629 200.015 45.1397 189.085 48.087" stroke="#535461" stroke-width="2" stroke-miterlimit="10"/>
<path d="M212.287 30.6167C212.287 30.6167 203.972 29.2888 203.216 36.7621C202.459 44.2354 187.229 45.2716 187.229 45.2716L187.513 45.4612C200.088 53.7402 212.118 50.7358 210.288 39.7502C209.623 35.6546 209.678 31.5427 212.287 30.6167Z" fill="#BA1C51"/>
<path opacity="0.2" d="M212.287 30.6167C212.287 30.6167 203.972 29.2888 203.216 36.7621C202.459 44.2354 187.229 45.2716 187.229 45.2716L187.513 45.4612C200.088 53.7402 212.118 50.7358 210.288 39.7502C209.623 35.6546 209.678 31.5427 212.287 30.6167Z" fill="#F5F5F5"/>
<path d="M212.287 30.6152C212.287 30.6152 205.833 32.043 206.363 37.9213C206.894 43.7995 196.78 50.8629 187.229 45.264" stroke="#535461" stroke-width="2" stroke-miterlimit="10"/>
<path d="M50.1654 58.04C50.1654 58.04 47.469 48.8616 50.6717 42.1022C52.0325 39.2767 52.4428 36.0846 51.8409 33.0053C51.5441 31.546 51.1146 30.117 50.5578 28.7363" stroke="#535461" stroke-width="2" stroke-miterlimit="10"/>
<path d="M52.5466 24.4635C52.5466 25.5894 50.5132 28.8508 50.5132 28.8508C50.5132 28.8508 48.4797 25.5873 48.4797 24.4635C48.4797 23.9225 48.694 23.4037 49.0753 23.0212C49.4567 22.6387 49.9739 22.4238 50.5132 22.4238C51.0525 22.4238 51.5697 22.6387 51.9511 23.0212C52.3324 23.4037 52.5466 23.9225 52.5466 24.4635Z" fill="#BA1C51"/>
<path d="M55.9057 30.6977C55.2956 31.6421 51.8225 33.2738 51.8225 33.2738C51.8225 33.2738 51.8855 29.427 52.4956 28.4826C52.6343 28.2447 52.8197 28.0374 53.0405 27.8733C53.2614 27.7092 53.5131 27.5918 53.7805 27.528C54.0478 27.4642 54.3253 27.4555 54.5961 27.5023C54.867 27.5491 55.1255 27.6504 55.3562 27.8003C55.5869 27.9501 55.7849 28.1453 55.9383 28.3741C56.0916 28.6028 56.1972 28.8604 56.2485 29.1312C56.2999 29.402 56.296 29.6804 56.2371 29.9497C56.1781 30.2189 56.0654 30.4734 55.9057 30.6977Z" fill="#BA1C51"/>
<path d="M55.7593 41.3475C54.7568 41.8534 50.938 41.5046 50.938 41.5046C50.938 41.5046 52.9287 38.2167 53.9292 37.7108C54.1686 37.5764 54.4327 37.4921 54.7055 37.4628C54.9784 37.4335 55.2543 37.4598 55.5166 37.5403C55.779 37.6208 56.0224 37.7537 56.2323 37.931C56.4421 38.1083 56.614 38.3264 56.7376 38.5721C56.8611 38.8179 56.9339 39.0861 56.9514 39.3608C56.9689 39.6354 56.9308 39.9108 56.8394 40.1703C56.748 40.4297 56.6052 40.668 56.4195 40.8707C56.2339 41.0733 56.0093 41.2362 55.7593 41.3496V41.3475Z" fill="#BA1C51"/>
<path d="M53.8398 49.3789C52.9369 50.0479 49.114 50.3498 49.114 50.3498C49.114 50.3498 50.5212 46.7723 51.424 46.1033C51.6372 45.9284 51.8835 45.7988 52.1481 45.7224C52.4127 45.6459 52.69 45.6241 52.9632 45.6583C53.2364 45.6925 53.4999 45.782 53.7376 45.9214C53.9753 46.0608 54.1823 46.2472 54.346 46.4692C54.5098 46.6913 54.6269 46.9444 54.6902 47.2131C54.7535 47.4819 54.7617 47.7608 54.7144 48.0329C54.6671 48.305 54.5651 48.5646 54.4148 48.7959C54.2644 49.0273 54.0688 49.2256 53.8398 49.3789Z" fill="#BA1C51"/>
<path d="M47.5586 33.4897C48.372 34.2729 52.1115 35.0867 52.1115 35.0867C52.1115 35.0867 51.1944 31.3521 50.3892 30.5689C50.2011 30.3676 49.9742 30.2066 49.7223 30.0957C49.4704 29.9848 49.1987 29.9264 48.9236 29.9239C48.6485 29.9214 48.3758 29.9749 48.1219 30.0812C47.8681 30.1875 47.6384 30.3444 47.4467 30.5423C47.255 30.7402 47.1054 30.9751 47.0068 31.2327C46.9083 31.4903 46.8628 31.7653 46.8733 32.041C46.8838 32.3168 46.9499 32.5875 47.0677 32.8369C47.1855 33.0862 47.3525 33.309 47.5586 33.4917V33.4897Z" fill="#BA1C51"/>
<path d="M45.4295 42.9153C46.432 43.4211 50.2509 43.0723 50.2509 43.0723C50.2509 43.0723 48.2601 39.7844 47.2596 39.2786C46.7819 39.0621 46.2393 39.039 45.745 39.2141C45.2507 39.3893 44.843 39.7492 44.6069 40.2186C44.3707 40.6881 44.3245 41.2309 44.4778 41.7337C44.6311 42.2366 44.972 42.6606 45.4295 42.9173V42.9153Z" fill="#BA1C51"/>
<path d="M44.6161 52.3569C45.519 53.0259 49.3419 53.3278 49.3419 53.3278C49.3419 53.3278 47.9347 49.7502 47.0319 49.0812C46.5975 48.7905 46.0682 48.6786 45.5537 48.7687C45.0393 48.8587 44.5791 49.1438 44.2685 49.565C43.958 49.9861 43.8208 50.5109 43.8856 51.0307C43.9503 51.5505 44.2119 52.0253 44.6161 52.3569Z" fill="#BA1C51"/>
<path d="M218.07 111.418H200.767C201.167 110.615 201.376 109.731 201.377 108.834V29.801C201.376 28.2606 200.765 26.7836 199.679 25.6947C198.592 24.6058 197.119 23.9941 195.584 23.9941H61.6461C60.1096 23.9941 58.636 24.6064 57.5496 25.6961C56.4631 26.7859 55.8527 28.2639 55.8527 29.8051V108.834C55.8535 109.731 56.0624 110.615 56.4628 111.418H38.548C38.1419 111.418 37.7525 111.58 37.4653 111.868C37.1782 112.156 37.0168 112.546 37.0168 112.954V114.192C37.0168 116.471 37.9196 118.657 39.5266 120.269C41.1336 121.881 43.3132 122.787 45.5858 122.787H211.044C213.317 122.787 215.496 121.881 217.103 120.269C218.71 118.657 219.613 116.471 219.613 114.192V112.954C219.613 112.751 219.573 112.55 219.495 112.363C219.418 112.176 219.304 112.006 219.16 111.863C219.017 111.72 218.847 111.608 218.659 111.531C218.472 111.455 218.272 111.416 218.07 111.418ZM111.458 116.333L109.973 114.642H146.801L145.158 116.333H111.458Z" fill="url(#paint0_linear)"/>
<path d="M194.992 25.1094H62.2237C59.6115 25.1094 57.4939 27.2334 57.4939 29.8536V108.966C57.4939 111.586 59.6115 113.71 62.2237 113.71H194.992C197.604 113.71 199.722 111.586 199.722 108.966V29.8536C199.722 27.2334 197.604 25.1094 194.992 25.1094Z" fill="#535461"/>
<path d="M196.43 38.0254H60.4893V110.407H196.43V38.0254Z" fill="#F1F1F4"/>
<path d="M128.459 32.9183C129.121 32.9183 129.657 32.3805 129.657 31.717C129.657 31.0535 129.121 30.5156 128.459 30.5156C127.798 30.5156 127.262 31.0535 127.262 31.717C127.262 32.3805 127.798 32.9183 128.459 32.9183Z" fill="white"/>
<path d="M149.449 110.555L144.772 115.36H111.83L107.608 110.555H40.5755C40.1786 110.555 39.7979 110.713 39.5172 110.994C39.2365 111.276 39.0789 111.658 39.0789 112.056V113.267C39.0789 114.371 39.2958 115.464 39.7172 116.484C40.1387 117.504 40.7564 118.43 41.5351 119.21C42.3137 119.99 43.238 120.609 44.2552 121.03C45.2723 121.452 46.3623 121.668 47.4628 121.667H209.163C211.384 121.667 213.514 120.782 215.084 119.207C216.655 117.631 217.537 115.495 217.537 113.267V112.056C217.537 111.658 217.379 111.276 217.099 110.994C216.818 110.713 216.437 110.555 216.04 110.555H149.449Z" fill="#535461"/>
<path d="M105.957 43.541H68.7917V71.6352H105.957V43.541Z" fill="white"/>
<path opacity="0.2" d="M84.8156 45.9707H72.4277V52.9932H84.8156V45.9707Z" fill="#BA1C51"/>
<path d="M102.322 45.9707H87.7783V47.5922H102.322V45.9707Z" fill="#E6E8EC"/>
<path d="M98.0127 48.6719H87.7783V50.2934H98.0127V48.6719Z" fill="#E6E8EC"/>
<path d="M102.322 51.373H87.7783V52.9946H102.322V51.373Z" fill="#E6E8EC"/>
<path d="M102.322 54.0742H72.4277V55.6957H102.322V54.0742Z" fill="#E6E8EC"/>
<path d="M102.322 56.7754H72.4277V58.3969H102.322V56.7754Z" fill="#E6E8EC"/>
<path d="M102.322 59.4785H72.4277V61.1H102.322V59.4785Z" fill="#E6E8EC"/>
<path d="M99.8977 62.1777H72.4277V63.7993H99.8977V62.1777Z" fill="#E6E8EC"/>
<path d="M102.322 64.8789H72.4277V66.5004H102.322V64.8789Z" fill="#E6E8EC"/>
<path d="M102.322 67.582H72.4277V69.2036H102.322V67.582Z" fill="#E6E8EC"/>
<path d="M146.893 43.541H109.727V71.6352H146.893V43.541Z" fill="white"/>
<path opacity="0.2" d="M125.749 45.9707H113.361V52.9932H125.749V45.9707Z" fill="#BA1C51"/>
<path d="M143.257 45.9707H128.714V47.5922H143.257V45.9707Z" fill="#E6E8EC"/>
<path d="M138.948 48.6719H128.714V50.2934H138.948V48.6719Z" fill="#E6E8EC"/>
<path d="M143.257 51.373H128.714V52.9946H143.257V51.373Z" fill="#E6E8EC"/>
<path d="M143.255 54.0742H113.361V55.6957H143.255V54.0742Z" fill="#E6E8EC"/>
<path d="M143.255 56.7754H113.361V58.3969H143.255V56.7754Z" fill="#E6E8EC"/>
<path d="M143.255 59.4785H113.361V61.1H143.255V59.4785Z" fill="#E6E8EC"/>
<path d="M140.831 62.1777H113.361V63.7993H140.831V62.1777Z" fill="#E6E8EC"/>
<path d="M143.255 64.8789H113.361V66.5004H143.255V64.8789Z" fill="#E6E8EC"/>
<path d="M143.255 67.582H113.361V69.2036H143.255V67.582Z" fill="#E6E8EC"/>
<path d="M187.826 43.541H150.661V71.6352H187.826V43.541Z" fill="white"/>
<path opacity="0.2" d="M166.684 45.9707H154.297V52.9932H166.684V45.9707Z" fill="#BA1C51"/>
<path d="M184.19 45.9707H169.647V47.5922H184.19V45.9707Z" fill="#E6E8EC"/>
<path d="M179.882 48.6719H169.647V50.2934H179.882V48.6719Z" fill="#E6E8EC"/>
<path d="M184.19 51.373H169.647V52.9946H184.19V51.373Z" fill="#E6E8EC"/>
<path d="M184.19 54.0742H154.297V55.6957H184.19V54.0742Z" fill="#E6E8EC"/>
<path d="M184.19 56.7754H154.297V58.3969H184.19V56.7754Z" fill="#E6E8EC"/>
<path d="M184.19 59.4785H154.297V61.1H184.19V59.4785Z" fill="#E6E8EC"/>
<path d="M181.767 62.1777H154.297V63.7993H181.767V62.1777Z" fill="#E6E8EC"/>
<path d="M184.19 64.8789H154.297V66.5004H184.19V64.8789Z" fill="#E6E8EC"/>
<path d="M184.19 67.582H154.297V69.2036H184.19V67.582Z" fill="#E6E8EC"/>
<path d="M105.957 75.1445H68.7917V103.239H105.957V75.1445Z" fill="white"/>
<path opacity="0.2" d="M84.8156 77.5762H72.4277V84.5987H84.8156V77.5762Z" fill="#BA1C51"/>
<path d="M102.322 77.5762H87.7783V79.1977H102.322V77.5762Z" fill="#E6E8EC"/>
<path d="M98.0127 80.2793H87.7783V81.9008H98.0127V80.2793Z" fill="#E6E8EC"/>
<path d="M102.322 82.9785H87.7783V84.6H102.322V82.9785Z" fill="#E6E8EC"/>
<path d="M102.322 85.6797H72.4277V87.3012H102.322V85.6797Z" fill="#E6E8EC"/>
<path d="M102.322 88.3828H72.4277V90.0043H102.322V88.3828Z" fill="#E6E8EC"/>
<path d="M102.322 91.082H72.4277V92.7036H102.322V91.082Z" fill="#E6E8EC"/>
<path d="M99.8977 93.7852H72.4277V95.4067H99.8977V93.7852Z" fill="#E6E8EC"/>
<path d="M102.322 96.4863H72.4277V98.1079H102.322V96.4863Z" fill="#E6E8EC"/>
<path d="M102.322 99.1875H72.4277V100.809H102.322V99.1875Z" fill="#E6E8EC"/>
<path d="M146.893 75.1445H109.727V103.239H146.893V75.1445Z" fill="white"/>
<path opacity="0.2" d="M125.749 77.5762H113.361V84.5987H125.749V77.5762Z" fill="#BA1C51"/>
<path d="M143.257 77.5762H128.714V79.1977H143.257V77.5762Z" fill="#E6E8EC"/>
<path d="M138.948 80.2793H128.714V81.9008H138.948V80.2793Z" fill="#E6E8EC"/>
<path d="M143.257 82.9785H128.714V84.6H143.257V82.9785Z" fill="#E6E8EC"/>
<path d="M143.255 85.6797H113.361V87.3012H143.255V85.6797Z" fill="#E6E8EC"/>
<path d="M143.255 88.3828H113.361V90.0043H143.255V88.3828Z" fill="#E6E8EC"/>
<path d="M143.255 91.082H113.361V92.7036H143.255V91.082Z" fill="#E6E8EC"/>
<path d="M140.831 93.7852H113.361V95.4067H140.831V93.7852Z" fill="#E6E8EC"/>
<path d="M143.255 96.4863H113.361V98.1079H143.255V96.4863Z" fill="#E6E8EC"/>
<path d="M143.255 99.1875H113.361V100.809H143.255V99.1875Z" fill="#E6E8EC"/>
<path opacity="0.1" d="M187.826 75.1445H150.661V103.239H187.826V75.1445Z" fill="black"/>
<path d="M89.8931 52.9942H32.5497C31.8593 52.9928 31.1753 53.128 30.537 53.3921C29.8987 53.6561 29.3186 54.0438 28.8298 54.5329C28.341 55.022 27.9532 55.603 27.6885 56.2427C27.4238 56.8823 27.2874 57.568 27.2871 58.2605V137.958C27.2879 138.65 27.4246 139.335 27.6895 139.974C27.9543 140.613 28.342 141.194 28.8305 141.682C29.3191 142.171 29.8988 142.558 30.5366 142.822C31.1744 143.086 31.8577 143.221 32.5477 143.22H89.8911C90.581 143.221 91.2644 143.086 91.9022 142.822C92.54 142.558 93.1197 142.171 93.6082 141.682C94.0967 141.194 94.4845 140.613 94.7493 139.974C95.0141 139.335 95.1509 138.65 95.1517 137.958V58.2605C95.1514 57.5683 95.0151 56.883 94.7507 56.2436C94.4862 55.6043 94.0987 55.0234 93.6104 54.5344C93.122 54.0453 92.5424 53.6575 91.9045 53.3932C91.2667 53.129 90.5832 52.9933 89.8931 52.9942Z" fill="url(#paint1_linear)"/>
<path d="M90.2793 54.0742H32.1631C29.917 54.0742 28.0962 55.9006 28.0962 58.1535V138.328C28.0962 140.581 29.917 142.407 32.1631 142.407H90.2793C92.5253 142.407 94.3462 140.581 94.3462 138.328V58.1535C94.3462 55.9006 92.5253 54.0742 90.2793 54.0742Z" fill="#535461"/>
<path d="M90.9789 62.4316H31.4617V134.054H90.9789V62.4316Z" fill="#F1F1F4"/>
<path d="M60.9508 58.9379C61.3967 58.9379 61.7581 58.5753 61.7581 58.1281C61.7581 57.6809 61.3967 57.3184 60.9508 57.3184C60.505 57.3184 60.1436 57.6809 60.1436 58.1281C60.1436 58.5753 60.505 58.9379 60.9508 58.9379Z" fill="white"/>
<path d="M60.9507 140.517C62.2894 140.517 63.3746 139.428 63.3746 138.086C63.3746 136.743 62.2894 135.654 60.9507 135.654C59.6121 135.654 58.5269 136.743 58.5269 138.086C58.5269 139.428 59.6121 140.517 60.9507 140.517Z" fill="white"/>
<path d="M51.0092 69.75H34.0339V82.5835H51.0092V69.75Z" fill="white"/>
<path opacity="0.2" d="M41.3544 70.8613H35.6953V74.0697H41.3544V70.8613Z" fill="#BA1C51"/>
<path d="M49.3498 70.8613H42.7065V71.6017H49.3498V70.8613Z" fill="#E6E8EC"/>
<path d="M47.3815 72.0957H42.7065V72.8361H47.3815V72.0957Z" fill="#E6E8EC"/>
<path d="M49.3498 73.3301H42.7065V74.0705H49.3498V73.3301Z" fill="#E6E8EC"/>
<path d="M49.35 74.5625H35.6953V75.3029H49.35V74.5625Z" fill="#E6E8EC"/>
<path d="M49.35 75.7988H35.6953V76.5392H49.35V75.7988Z" fill="#E6E8EC"/>
<path d="M49.35 77.0312H35.6953V77.7716H49.35V77.0312Z" fill="#E6E8EC"/>
<path d="M48.2438 78.2656H35.6953V79.006H48.2438V78.2656Z" fill="#E6E8EC"/>
<path d="M49.35 79.5H35.6953V80.2404H49.35V79.5Z" fill="#E6E8EC"/>
<path d="M49.35 80.7324H35.6953V81.4728H49.35V80.7324Z" fill="#E6E8EC"/>
<path d="M69.7089 69.75H52.7336V82.5835H69.7089V69.75Z" fill="white"/>
<path opacity="0.2" d="M60.0519 70.8613H54.3928V74.0697H60.0519V70.8613Z" fill="#BA1C51"/>
<path d="M68.0496 70.8613H61.4062V71.6017H68.0496V70.8613Z" fill="#E6E8EC"/>
<path d="M66.0812 72.0957H61.4062V72.8361H66.0812V72.0957Z" fill="#E6E8EC"/>
<path d="M68.0496 73.3301H61.4062V74.0705H68.0496V73.3301Z" fill="#E6E8EC"/>
<path d="M68.0475 74.5625H54.3928V75.3029H68.0475V74.5625Z" fill="#E6E8EC"/>
<path d="M68.0475 75.7988H54.3928V76.5392H68.0475V75.7988Z" fill="#E6E8EC"/>
<path d="M68.0475 77.0312H54.3928V77.7716H68.0475V77.0312Z" fill="#E6E8EC"/>
<path d="M66.9413 78.2656H54.3928V79.006H66.9413V78.2656Z" fill="#E6E8EC"/>
<path d="M68.0475 79.5H54.3928V80.2404H68.0475V79.5Z" fill="#E6E8EC"/>
<path d="M68.0475 80.7324H54.3928V81.4728H68.0475V80.7324Z" fill="#E6E8EC"/>
<path d="M88.4065 69.75H71.4312V82.5835H88.4065V69.75Z" fill="white"/>
<path opacity="0.2" d="M78.7516 70.8613H73.0925V74.0697H78.7516V70.8613Z" fill="#BA1C51"/>
<path d="M86.7473 70.8613H80.104V71.6017H86.7473V70.8613Z" fill="#E6E8EC"/>
<path d="M84.7789 72.0957H80.104V72.8361H84.7789V72.0957Z" fill="#E6E8EC"/>
<path d="M86.7473 73.3301H80.104V74.0705H86.7473V73.3301Z" fill="#E6E8EC"/>
<path d="M86.7472 74.5625H73.0925V75.3029H86.7472V74.5625Z" fill="#E6E8EC"/>
<path d="M86.7472 75.7988H73.0925V76.5392H86.7472V75.7988Z" fill="#E6E8EC"/>
<path d="M86.7472 77.0312H73.0925V77.7716H86.7472V77.0312Z" fill="#E6E8EC"/>
<path d="M85.641 78.2656H73.0925V79.006H85.641V78.2656Z" fill="#E6E8EC"/>
<path d="M86.7472 79.5H73.0925V80.2404H86.7472V79.5Z" fill="#E6E8EC"/>
<path d="M86.7472 80.7324H73.0925V81.4728H86.7472V80.7324Z" fill="#E6E8EC"/>
<path d="M51.0092 84.1875H34.0339V97.021H51.0092V84.1875Z" fill="white"/>
<path opacity="0.2" d="M41.3544 85.2988H35.6953V88.5072H41.3544V85.2988Z" fill="#BA1C51"/>
<path d="M49.3498 85.2988H42.7065V86.0392H49.3498V85.2988Z" fill="#E6E8EC"/>
<path d="M47.3815 86.5312H42.7065V87.2717H47.3815V86.5312Z" fill="#E6E8EC"/>
<path d="M49.3498 87.7656H42.7065V88.506H49.3498V87.7656Z" fill="#E6E8EC"/>
<path d="M49.35 89H35.6953V89.7404H49.35V89Z" fill="#E6E8EC"/>
<path d="M49.35 90.2344H35.6953V90.9748H49.35V90.2344Z" fill="#E6E8EC"/>
<path d="M49.35 91.4688H35.6953V92.2092H49.35V91.4688Z" fill="#E6E8EC"/>
<path d="M48.2438 92.7012H35.6953V93.4416H48.2438V92.7012Z" fill="#E6E8EC"/>
<path d="M49.35 93.9375H35.6953V94.6779H49.35V93.9375Z" fill="#E6E8EC"/>
<path d="M49.35 95.1699H35.6953V95.9103H49.35V95.1699Z" fill="#E6E8EC"/>
<path d="M69.7089 84.1875H52.7336V97.021H69.7089V84.1875Z" fill="white"/>
<path opacity="0.2" d="M60.0519 85.2988H54.3928V88.5072H60.0519V85.2988Z" fill="#BA1C51"/>
<path d="M68.0496 85.2988H61.4062V86.0392H68.0496V85.2988Z" fill="#E6E8EC"/>
<path d="M66.0812 86.5312H61.4062V87.2717H66.0812V86.5312Z" fill="#E6E8EC"/>
<path d="M68.0496 87.7656H61.4062V88.506H68.0496V87.7656Z" fill="#E6E8EC"/>
<path d="M68.0475 89H54.3928V89.7404H68.0475V89Z" fill="#E6E8EC"/>
<path d="M68.0475 90.2344H54.3928V90.9748H68.0475V90.2344Z" fill="#E6E8EC"/>
<path d="M68.0475 91.4688H54.3928V92.2092H68.0475V91.4688Z" fill="#E6E8EC"/>
<path d="M66.9413 92.7012H54.3928V93.4416H66.9413V92.7012Z" fill="#E6E8EC"/>
<path d="M68.0475 93.9375H54.3928V94.6779H68.0475V93.9375Z" fill="#E6E8EC"/>
<path d="M68.0475 95.1699H54.3928V95.9103H68.0475V95.1699Z" fill="#E6E8EC"/>
<path d="M88.4065 84.1875H71.4312V97.021H88.4065V84.1875Z" fill="white"/>
<path opacity="0.2" d="M78.7516 85.2988H73.0925V88.5072H78.7516V85.2988Z" fill="#BA1C51"/>
<path d="M86.7473 85.2988H80.104V86.0392H86.7473V85.2988Z" fill="#E6E8EC"/>
<path d="M84.7789 86.5312H80.104V87.2717H84.7789V86.5312Z" fill="#E6E8EC"/>
<path d="M86.7473 87.7656H80.104V88.506H86.7473V87.7656Z" fill="#E6E8EC"/>
<path d="M86.7472 89H73.0925V89.7404H86.7472V89Z" fill="#E6E8EC"/>
<path d="M86.7472 90.2344H73.0925V90.9748H86.7472V90.2344Z" fill="#E6E8EC"/>
<path d="M86.7472 91.4688H73.0925V92.2092H86.7472V91.4688Z" fill="#E6E8EC"/>
<path d="M85.641 92.7012H73.0925V93.4416H85.641V92.7012Z" fill="#E6E8EC"/>
<path d="M86.7472 93.9375H73.0925V94.6779H86.7472V93.9375Z" fill="#E6E8EC"/>
<path d="M86.7472 95.1699H73.0925V95.9103H86.7472V95.1699Z" fill="#E6E8EC"/>
<path d="M51.0092 99.1934H34.0339V112.027H51.0092V99.1934Z" fill="white"/>
<path opacity="0.2" d="M41.3544 100.305H35.6953V103.513H41.3544V100.305Z" fill="#BA1C51"/>
<path d="M49.3498 100.305H42.7065V101.045H49.3498V100.305Z" fill="#E6E8EC"/>
<path d="M47.3815 101.539H42.7065V102.279H47.3815V101.539Z" fill="#E6E8EC"/>
<path d="M49.3498 102.775H42.7065V103.516H49.3498V102.775Z" fill="#E6E8EC"/>
<path d="M49.35 104.008H35.6953V104.748H49.35V104.008Z" fill="#E6E8EC"/>
<path d="M49.35 105.24H35.6953V105.981H49.35V105.24Z" fill="#E6E8EC"/>
<path d="M49.35 106.477H35.6953V107.217H49.35V106.477Z" fill="#E6E8EC"/>
<path d="M48.2438 107.711H35.6953V108.451H48.2438V107.711Z" fill="#E6E8EC"/>
<path d="M49.35 108.943H35.6953V109.684H49.35V108.943Z" fill="#E6E8EC"/>
<path d="M49.35 110.178H35.6953V110.918H49.35V110.178Z" fill="#E6E8EC"/>
<path d="M69.7089 99.1934H52.7336V112.027H69.7089V99.1934Z" fill="white"/>
<path opacity="0.2" d="M60.0519 100.305H54.3928V103.513H60.0519V100.305Z" fill="#BA1C51"/>
<path d="M68.0496 100.305H61.4062V101.045H68.0496V100.305Z" fill="#E6E8EC"/>
<path d="M66.0812 101.539H61.4062V102.279H66.0812V101.539Z" fill="#E6E8EC"/>
<path d="M68.0496 102.775H61.4062V103.516H68.0496V102.775Z" fill="#E6E8EC"/>
<path d="M68.0475 104.008H54.3928V104.748H68.0475V104.008Z" fill="#E6E8EC"/>
<path d="M68.0475 105.24H54.3928V105.981H68.0475V105.24Z" fill="#E6E8EC"/>
<path d="M68.0475 106.477H54.3928V107.217H68.0475V106.477Z" fill="#E6E8EC"/>
<path d="M66.9413 107.711H54.3928V108.451H66.9413V107.711Z" fill="#E6E8EC"/>
<path d="M68.0475 108.943H54.3928V109.684H68.0475V108.943Z" fill="#E6E8EC"/>
<path d="M68.0475 110.178H54.3928V110.918H68.0475V110.178Z" fill="#E6E8EC"/>
<path d="M88.4065 99.1934H71.4312V112.027H88.4065V99.1934Z" fill="white"/>
<path opacity="0.2" d="M78.7516 100.305H73.0925V103.513H78.7516V100.305Z" fill="#BA1C51"/>
<path d="M86.7473 100.305H80.104V101.045H86.7473V100.305Z" fill="#E6E8EC"/>
<path d="M84.7789 101.539H80.104V102.279H84.7789V101.539Z" fill="#E6E8EC"/>
<path d="M86.7473 102.775H80.104V103.516H86.7473V102.775Z" fill="#E6E8EC"/>
<path d="M86.7472 104.008H73.0925V104.748H86.7472V104.008Z" fill="#E6E8EC"/>
<path d="M86.7472 105.24H73.0925V105.981H86.7472V105.24Z" fill="#E6E8EC"/>
<path d="M86.7472 106.477H73.0925V107.217H86.7472V106.477Z" fill="#E6E8EC"/>
<path d="M85.641 107.711H73.0925V108.451H85.641V107.711Z" fill="#E6E8EC"/>
<path d="M86.7472 108.943H73.0925V109.684H86.7472V108.943Z" fill="#E6E8EC"/>
<path d="M86.7472 110.178H73.0925V110.918H86.7472V110.178Z" fill="#E6E8EC"/>
<path d="M51.0092 113.631H34.0339V126.464H51.0092V113.631Z" fill="white"/>
<path opacity="0.2" d="M41.3544 114.742H35.6953V117.951H41.3544V114.742Z" fill="#BA1C51"/>
<path d="M49.3498 114.742H42.7065V115.483H49.3498V114.742Z" fill="#E6E8EC"/>
<path d="M47.3815 115.977H42.7065V116.717H47.3815V115.977Z" fill="#E6E8EC"/>
<path d="M49.3498 117.211H42.7065V117.951H49.3498V117.211Z" fill="#E6E8EC"/>
<path d="M49.35 118.445H35.6953V119.186H49.35V118.445Z" fill="#E6E8EC"/>
<path d="M49.35 119.678H35.6953V120.418H49.35V119.678Z" fill="#E6E8EC"/>
<path d="M49.35 120.912H35.6953V121.652H49.35V120.912Z" fill="#E6E8EC"/>
<path d="M48.2438 122.146H35.6953V122.887H48.2438V122.146Z" fill="#E6E8EC"/>
<path d="M49.35 123.381H35.6953V124.121H49.35V123.381Z" fill="#E6E8EC"/>
<path d="M49.35 124.615H35.6953V125.356H49.35V124.615Z" fill="#E6E8EC"/>
<path d="M69.7089 113.631H52.7336V126.464H69.7089V113.631Z" fill="white"/>
<path opacity="0.2" d="M60.0519 114.742H54.3928V117.951H60.0519V114.742Z" fill="#BA1C51"/>
<path d="M68.0496 114.742H61.4062V115.483H68.0496V114.742Z" fill="#E6E8EC"/>
<path d="M66.0812 115.977H61.4062V116.717H66.0812V115.977Z" fill="#E6E8EC"/>
<path d="M68.0496 117.211H61.4062V117.951H68.0496V117.211Z" fill="#E6E8EC"/>
<path d="M68.0475 118.445H54.3928V119.186H68.0475V118.445Z" fill="#E6E8EC"/>
<path d="M68.0475 119.678H54.3928V120.418H68.0475V119.678Z" fill="#E6E8EC"/>
<path d="M68.0475 120.912H54.3928V121.652H68.0475V120.912Z" fill="#E6E8EC"/>
<path d="M66.9413 122.146H54.3928V122.887H66.9413V122.146Z" fill="#E6E8EC"/>
<path d="M68.0475 123.381H54.3928V124.121H68.0475V123.381Z" fill="#E6E8EC"/>
<path d="M68.0475 124.615H54.3928V125.356H68.0475V124.615Z" fill="#E6E8EC"/>
<path opacity="0.1" d="M88.4065 113.631H71.4312V126.464H88.4065V113.631Z" fill="black"/>
<path d="M46.1837 80.0078H16.7393C16.3569 80.007 15.9781 80.0818 15.6245 80.2278C15.2709 80.3738 14.9494 80.5883 14.6785 80.859C14.4075 81.1296 14.1924 81.4512 14.0453 81.8052C13.8982 82.1593 13.8221 82.5389 13.8213 82.9225V147.598C13.8221 147.981 13.8982 148.361 14.0453 148.715C14.1924 149.069 14.4075 149.391 14.6785 149.661C14.9494 149.932 15.2709 150.146 15.6245 150.293C15.9781 150.439 16.3569 150.513 16.7393 150.513H46.1837C46.5661 150.513 46.9449 150.439 47.2985 150.293C47.6521 150.146 47.9736 149.932 48.2446 149.661C48.5155 149.391 48.7307 149.069 48.8778 148.715C49.0248 148.361 49.1009 147.981 49.1017 147.598V82.9245C49.1012 82.5408 49.0253 82.1609 48.8783 81.8066C48.7314 81.4523 48.5163 81.1306 48.2453 80.8597C47.9743 80.5888 47.6527 80.3742 47.299 80.228C46.9453 80.0818 46.5663 80.007 46.1837 80.0078Z" fill="url(#paint2_linear)"/>
<path d="M46.5966 80.5488H16.3286C15.0932 80.5488 14.0918 81.5533 14.0918 82.7924V148C14.0918 149.239 15.0932 150.244 16.3286 150.244H46.5966C47.8319 150.244 48.8334 149.239 48.8334 148V82.7924C48.8334 81.5533 47.8319 80.5488 46.5966 80.5488Z" fill="#535461"/>
<path d="M46.2733 87.0312H16.6499V143.758H46.2733V87.0312Z" fill="#F1F1F4"/>
<path d="M27.9601 84.06C28.1083 84.06 28.2285 83.9394 28.2285 83.7907C28.2285 83.642 28.1083 83.5215 27.9601 83.5215C27.8118 83.5215 27.6917 83.642 27.6917 83.7907C27.6917 83.9394 27.8118 84.06 27.9601 84.06Z" fill="white"/>
<path d="M35.0302 83.5195H29.5115C29.3991 83.5195 29.3081 83.6108 29.3081 83.7235V83.8561C29.3081 83.9687 29.3991 84.06 29.5115 84.06H35.0302C35.1425 84.06 35.2336 83.9687 35.2336 83.8561V83.7235C35.2336 83.6108 35.1425 83.5195 35.0302 83.5195Z" fill="white"/>
<path d="M31.3274 148.352C32.3685 148.352 33.2124 147.505 33.2124 146.461C33.2124 145.417 32.3685 144.57 31.3274 144.57C30.2863 144.57 29.4424 145.417 29.4424 146.461C29.4424 147.505 30.2863 148.352 31.3274 148.352Z" fill="white"/>
<path opacity="0.1" d="M41.5617 90.4277H21.3613V105.699H41.5617V90.4277Z" fill="black"/>
<path d="M41.5617 107.607H21.3613V122.878H41.5617V107.607Z" fill="white"/>
<path opacity="0.2" d="M30.0707 108.93H23.3379V112.748H30.0707V108.93Z" fill="#BA1C51"/>
<path d="M39.5852 108.93H31.6812V109.811H39.5852V108.93Z" fill="#E6E8EC"/>
<path d="M37.2447 110.398H31.6812V111.28H37.2447V110.398Z" fill="#E6E8EC"/>
<path d="M39.5852 111.865H31.6812V112.746H39.5852V111.865Z" fill="#E6E8EC"/>
<path d="M39.5872 113.332H23.3379V114.213H39.5872V113.332Z" fill="#E6E8EC"/>
<path d="M39.5872 114.801H23.3379V115.682H39.5872V114.801Z" fill="#E6E8EC"/>
<path d="M39.5872 116.27H23.3379V117.151H39.5872V116.27Z" fill="#E6E8EC"/>
<path d="M38.2696 117.738H23.3379V118.619H38.2696V117.738Z" fill="#E6E8EC"/>
<path d="M39.5872 119.207H23.3379V120.088H39.5872V119.207Z" fill="#E6E8EC"/>
<path d="M39.5872 120.676H23.3379V121.557H39.5872V120.676Z" fill="#E6E8EC"/>
<path d="M41.5617 124.822H21.3613V140.093H41.5617V124.822Z" fill="white"/>
<path opacity="0.2" d="M30.0707 126.145H23.3379V129.963H30.0707V126.145Z" fill="#BA1C51"/>
<path d="M39.5852 126.145H31.6812V127.026H39.5852V126.145Z" fill="#E6E8EC"/>
<path d="M37.2447 127.613H31.6812V128.494H37.2447V127.613Z" fill="#E6E8EC"/>
<path d="M39.5852 129.082H31.6812V129.963H39.5852V129.082Z" fill="#E6E8EC"/>
<path d="M39.5872 130.551H23.3379V131.432H39.5872V130.551Z" fill="#E6E8EC"/>
<path d="M39.5872 132.02H23.3379V132.901H39.5872V132.02Z" fill="#E6E8EC"/>
<path d="M39.5872 133.488H23.3379V134.369H39.5872V133.488Z" fill="#E6E8EC"/>
<path d="M38.2696 134.955H23.3379V135.836H38.2696V134.955Z" fill="#E6E8EC"/>
<path d="M39.5872 136.422H23.3379V137.303H39.5872V136.422Z" fill="#E6E8EC"/>
<path d="M39.5872 137.891H23.3379V138.772H39.5872V137.891Z" fill="#E6E8EC"/>
<path d="M110.551 132.036C109.184 130.374 107.529 128.463 107.761 126.25C107.948 124.457 107.499 122.801 107.588 121.004C107.714 118.45 107.2 116.449 105.365 114.811C104.294 113.855 102.502 113.102 101.97 113.294C100.912 113.673 99.7592 113.528 98.6713 113.783C97.8457 113.987 97.2947 114.275 96.9551 114.648C96.2698 115.26 96.2576 116.129 96.5708 117.057C96.2974 117.558 96.1323 118.112 96.0864 118.681C96.0405 119.251 96.1147 119.823 96.3043 120.362C96.4938 120.901 96.7944 121.394 97.1865 121.808C97.5786 122.223 98.0533 122.55 98.5798 122.768C97.8173 123.086 97.1564 123.822 96.9022 125.315C96.7214 126.341 96.4492 127.349 96.0888 128.326C95.9273 128.403 95.7617 128.471 95.5927 128.53C95.6293 128.544 95.6679 128.554 95.7065 128.569C95.6272 128.599 95.5459 128.63 95.4666 128.658C95.6129 128.715 95.7639 128.759 95.918 128.789C95.3632 130.233 94.6178 131.596 93.7016 132.842C93.7016 132.842 91.3997 133.352 90.505 132.46C90.505 132.46 90.6514 132.632 90.8486 132.889C89.9722 132.524 88.5366 131.93 87.3084 131.44C86.4177 131.086 86.1879 131.44 86.2001 131.934C85.9812 131.96 85.7696 132.029 85.5779 132.138C85.3147 131.969 85.0386 131.82 84.7523 131.693C84.2399 131.567 82.5786 130.674 80.9152 133.733C79.9473 135.514 77.4583 138.761 75.557 141.166C71.846 142.877 67.0165 145.041 65.223 145.59H64.0761C63.9257 145.343 63.8199 145.182 63.8199 145.182L63.7305 145.241L63.6918 145.182C63.6918 145.182 61.4327 146.75 59.1389 146.762C58.8125 146.757 58.4878 146.715 58.171 146.636C57.1156 146.369 56.3734 146.25 55.8427 146.261C55.2143 146.25 54.8585 146.399 54.6368 146.681C54.608 146.718 54.5815 146.757 54.5575 146.797C54.5329 146.839 54.5105 146.882 54.4904 146.926C54.4701 146.97 54.4518 147.017 54.4335 147.066C54.4265 147.109 54.4292 147.153 54.4415 147.195C54.4539 147.237 54.4754 147.275 54.5047 147.307C54.5352 147.351 54.5685 147.393 54.6043 147.433L54.6673 147.503C55.1217 147.927 55.6138 148.309 56.1375 148.643C56.3266 148.771 56.5259 148.902 56.7354 149.037L57.1319 149.289L57.4857 149.512L57.6281 149.6L57.7867 149.697L58.0693 149.871L58.2381 149.973L58.5553 150.162L58.8115 150.315C59.4826 150.723 60.1536 151.099 60.7555 151.439L61.1785 151.678L61.2191 151.7L61.4896 151.851L61.9593 152.112L62.2826 152.29L62.4331 152.373L62.5958 152.461L62.6283 152.48L62.9089 152.632C62.9667 152.642 63.0259 152.639 63.0824 152.624C63.1389 152.608 63.1914 152.58 63.2363 152.543C63.3177 152.196 63.5169 151.454 63.7284 151.396C63.9399 151.339 64.8631 149.716 65.1254 148.635H67.6205C68.1109 148.593 68.598 148.519 69.0784 148.412C68.4338 148.873 67.7953 149.163 67.2992 149.039C66.2499 148.778 65.2556 149.418 65.1559 150.058L65.1437 150.097C65.1437 150.109 65.1437 150.124 65.1437 150.136C65.1437 150.148 65.1437 150.167 65.1437 150.183C65.1437 150.199 65.1437 150.209 65.1437 150.222C65.1437 150.234 65.1437 150.252 65.1437 150.269C65.1437 150.285 65.1437 150.295 65.1437 150.307C65.1437 150.32 65.1437 150.34 65.1437 150.354C65.1437 150.368 65.1437 150.379 65.1437 150.391C65.1437 150.403 65.1437 150.426 65.1559 150.442C65.1681 150.458 65.1559 150.464 65.1559 150.475C65.1635 150.497 65.1723 150.519 65.1823 150.54V150.556C65.1962 150.583 65.2118 150.609 65.2291 150.634L65.2495 150.66L65.2901 150.711L65.3186 150.74L65.3654 150.785L65.3999 150.813L65.4548 150.854L65.4955 150.88L65.5626 150.919L65.6073 150.944L65.6907 150.982L65.7334 151.001C65.7781 151.019 65.8249 151.037 65.8758 151.054C65.9266 151.07 66.0506 151.107 66.1584 151.133L66.2662 151.16L66.4228 151.197L66.5061 151.215L66.8477 151.284L67.0145 151.315L67.1507 151.339L67.4639 151.394L68.0739 151.494L68.6128 151.576L69.3143 151.676L69.4689 151.696L69.721 151.731L70.083 151.78L70.3311 151.813L70.9716 151.894L71.1749 151.919L71.5816 151.968C72.1124 152.031 72.6268 152.092 73.0986 152.145L73.6456 152.206L73.9221 152.237L74.0401 152.249L74.3715 152.286L74.5566 152.306L74.7823 152.331L75.1015 152.363H75.1361L75.3395 152.384C75.3649 152.386 75.3906 152.383 75.4149 152.375C75.4393 152.368 75.4617 152.355 75.4808 152.338C75.4999 152.321 75.5153 152.3 75.526 152.276C75.5366 152.253 75.5424 152.228 75.5428 152.202C75.5428 152.202 75.5428 152.188 75.5428 152.182C75.5621 152.153 75.5727 152.119 75.5733 152.084C75.5784 151.779 75.6166 151.475 75.6872 151.178C75.7014 151.127 75.7177 151.074 75.7339 151.023L75.7543 150.964C75.7766 150.901 75.799 150.838 75.8255 150.772C75.8436 150.726 75.8592 150.679 75.8722 150.632L75.8844 150.587C75.8844 150.562 75.8966 150.536 75.9027 150.509C76.161 149.628 75.8499 147.986 75.7604 147.342C75.7323 147.134 75.6853 146.929 75.6201 146.73C75.6363 146.731 75.6526 146.731 75.6689 146.73C75.8015 146.68 75.9261 146.611 76.039 146.526C77.924 145.851 79.5162 145.08 80.0184 144.307C80.8354 144.088 81.704 144.179 82.4586 144.562C83.4346 145.049 90.8222 147.466 94.2628 148.584C94.8728 149.118 95.3649 149.43 95.6313 149.4C95.6313 149.4 100.009 150.109 101.77 148.722C101.927 148.831 102.024 148.89 102.024 148.89C102.024 148.89 104.583 147.615 104.967 145.959C105.091 145.422 105.203 144.629 105.317 143.752C105.911 143.152 106.245 142.341 106.246 141.496C106.325 138.712 107.401 135.532 108.198 132.699C109.166 132.774 109.54 132.593 110.435 132.152L110.396 132.101L110.551 132.036ZM95.8855 136.205L95.3975 136.04C95.5628 135.818 95.7052 135.581 95.8224 135.33L95.8855 136.205ZM93.1322 137.376L96.097 139.161L96.1234 139.524C96.0872 139.8 96.0955 140.08 96.1478 140.354C94.8423 139.189 93.3132 137.776 93.1342 137.376H93.1322ZM91.9223 134.777C91.599 134.643 91.3305 134.522 91.1475 134.422L91.8348 134.465C91.8755 134.566 91.9055 134.67 91.9243 134.777H91.9223ZM83.9918 137.684C83.9918 137.684 84.5042 136.538 85.6552 138.449C85.8341 138.747 86.1635 139.218 86.5987 139.805L83.2516 139.354C83.5993 138.849 83.849 138.282 83.9877 137.684H83.9918Z" fill="url(#paint3_linear)"/>
<path d="M91.3552 133.078C91.3552 133.078 89.0086 132.086 87.1581 131.344C85.3077 130.602 86.418 133.078 86.418 133.078C86.418 133.078 89.5048 133.944 89.5048 134.069C89.5048 134.193 92.0974 134.316 92.0974 134.316L91.3552 133.078Z" fill="#F7C4A7"/>
<path opacity="0.05" d="M91.3552 133.078C91.3552 133.078 89.0086 132.086 87.1581 131.344C85.3077 130.602 86.418 133.078 86.418 133.078C86.418 133.078 89.5048 133.944 89.5048 134.069C89.5048 134.193 92.0974 134.316 92.0974 134.316L91.3552 133.078Z" fill="black"/>
<path d="M101.349 123.294C101.349 123.294 97.1524 121.065 96.4102 125.399C95.9481 128.037 94.8947 130.536 93.3295 132.707C93.3295 132.707 91.1069 133.203 90.2427 132.336C90.2427 132.336 92.3412 134.812 91.3529 135.061C91.3529 135.061 93.5755 136.67 94.5638 136.174C95.552 135.679 96.2922 132.336 96.6623 131.469C97.0324 130.602 98.3907 123.045 101.349 123.294Z" fill="#575988"/>
<path opacity="0.1" d="M101.349 123.294C101.349 123.294 97.1524 121.065 96.4102 125.399C95.9481 128.037 94.8947 130.536 93.3295 132.707C93.3295 132.707 91.1069 133.203 90.2427 132.336C90.2427 132.336 92.3412 134.812 91.3529 135.061C91.3529 135.061 93.5755 136.67 94.5638 136.174C95.552 135.679 96.2922 132.336 96.6623 131.469C97.0324 130.602 98.3907 123.045 101.349 123.294Z" fill="black"/>
<path d="M99.0088 121.807C99.0088 121.807 101.601 124.778 101.725 127.254C101.85 129.731 104.688 124.654 104.936 124.529C105.184 124.405 102.466 120.197 102.218 118.837C101.97 117.476 99.0088 121.807 99.0088 121.807Z" fill="#F7C4A7"/>
<path d="M100.798 123.078L99.1636 124.563L99.9343 127.69L102.033 125.709L101.787 123.729L100.798 123.078Z" fill="#F7C4A7"/>
<path d="M66.6627 145.09H63.824L64.9342 147.813L67.6509 147.07L66.6627 145.09Z" fill="#F7C4A7"/>
<path opacity="0.1" d="M64.4789 144.697C64.4789 144.697 61.5426 146.751 59.0272 146.111C56.5118 145.47 55.8326 145.703 55.5398 146.537C55.2694 147.296 62.5573 151.312 63.7184 151.946C63.7367 151.958 63.7577 151.966 63.7796 151.968C63.8015 151.97 63.8235 151.966 63.8437 151.958C63.8639 151.949 63.8816 151.935 63.8952 151.918C63.9088 151.901 63.9179 151.88 63.9217 151.858C64.001 151.522 64.1922 150.8 64.3955 150.745C64.6619 150.673 65.8799 148.395 65.8189 147.496C65.7579 146.596 64.4789 144.697 64.4789 144.697Z" fill="black"/>
<path d="M64.3568 144.697C64.3568 144.697 61.4205 146.751 58.9051 146.111C56.3897 145.47 55.7106 145.703 55.4177 146.537C55.1473 147.296 62.4352 151.312 63.5963 151.946C63.6146 151.958 63.6357 151.966 63.6575 151.968C63.6794 151.97 63.7015 151.966 63.7216 151.958C63.7418 151.949 63.7595 151.935 63.7732 151.918C63.7868 151.901 63.7959 151.88 63.7997 151.858C63.879 151.522 64.0701 150.8 64.2735 150.745C64.5398 150.673 65.7579 148.395 65.6969 147.496C65.6359 146.596 64.3568 144.697 64.3568 144.697Z" fill="#F3B5B7"/>
<path d="M88.6383 139.766L80.3663 138.652C80.3663 138.652 66.9088 145.092 65.3044 145.216L65.6745 148.071H68.1432C69.1314 148.071 78.7598 145.967 80.1182 143.862C80.904 143.652 81.7395 143.739 82.4648 144.108C83.6991 144.72 95.5521 148.567 95.5521 148.567L88.6383 139.766Z" fill="#575988"/>
<path opacity="0.1" d="M88.6383 139.766L80.3663 138.652C80.3663 138.652 66.9088 145.092 65.3044 145.216L65.6745 148.071H68.1432C69.1314 148.071 78.7598 145.967 80.1182 143.862C80.904 143.652 81.7395 143.739 82.4648 144.108C83.6991 144.72 95.5521 148.567 95.5521 148.567L88.6383 139.766Z" fill="black"/>
<path d="M73.9467 143.604L72.5884 145.337L73.9467 146.08L75.9232 144.595L73.9467 143.604Z" fill="#F7C4A7"/>
<path d="M97.5264 141.621C97.5264 141.621 93.0853 137.806 92.7742 137.113C92.4631 136.419 85.1813 131.716 84.6872 131.592C84.193 131.467 82.5886 130.6 80.9842 133.572C79.3798 136.544 73.4604 143.725 73.4604 143.725C73.4604 143.725 75.3129 146.326 75.9291 146.202C76.5452 146.077 83.4529 140.258 83.9531 137.409C83.9531 137.409 84.4472 136.295 85.5575 138.151C86.6677 140.007 93.8296 148.925 95.1879 148.8C95.1879 148.8 100.497 149.667 101.608 147.562C102.718 145.457 97.5264 141.621 97.5264 141.621Z" fill="#575988"/>
<path d="M96.2801 121.629H77.7939V135.603H96.2801V121.629Z" fill="url(#paint4_linear)"/>
<path d="M95.5236 122.197H78.5483V135.031H95.5236V122.197Z" fill="white"/>
<path opacity="0.2" d="M85.8688 123.309H80.2097V126.517H85.8688V123.309Z" fill="#BA1C51"/>
<path d="M93.8643 123.309H87.2209V124.049H93.8643V123.309Z" fill="#E6E8EC"/>
<path d="M91.8959 124.543H87.2209V125.283H91.8959V124.543Z" fill="#E6E8EC"/>
<path d="M93.8643 125.777H87.2209V126.518H93.8643V125.777Z" fill="#E6E8EC"/>
<path d="M93.8644 127.012H80.2097V127.752H93.8644V127.012Z" fill="#E6E8EC"/>
<path d="M93.8644 128.246H80.2097V128.986H93.8644V128.246Z" fill="#E6E8EC"/>
<path d="M93.8644 129.479H80.2097V130.219H93.8644V129.479Z" fill="#E6E8EC"/>
<path d="M92.7582 130.713H80.2097V131.453H92.7582V130.713Z" fill="#E6E8EC"/>
<path d="M93.8644 131.947H80.2097V132.688H93.8644V131.947Z" fill="#E6E8EC"/>
<path d="M93.8644 133.182H80.2097V133.922H93.8644V133.182Z" fill="#E6E8EC"/>
<path d="M100.058 123.481C100.058 123.481 98.5148 124.162 98.3908 127.009C98.2667 129.857 95.5439 134.687 95.5439 134.687L95.79 140.383C95.79 140.383 98.7527 143.355 99.0008 145.213C99.2489 147.072 101.349 148.31 101.349 148.31C101.349 148.31 103.818 147.072 104.196 145.454C104.575 143.837 104.806 139.882 105.431 138.395C106.055 136.908 105.677 127.621 105.677 127.621L103.824 124.401L102.836 123.287L100.243 126.259C100.243 126.259 98.8239 124.346 100.058 123.481Z" fill="#F3B5B7"/>
<path opacity="0.1" d="M96.4162 138.526C96.4162 138.526 96.0462 134.067 97.1564 133.078L99.379 126.755C99.379 126.755 100.182 123.722 100.058 123.473C99.9341 123.225 97.1564 125.888 97.1564 125.888L95.304 132.452L95.7981 139.387L96.4162 138.526Z" fill="black"/>
<path d="M96.2922 138.524C96.2922 138.524 95.9222 134.065 97.0324 133.076L99.255 126.753C99.255 126.753 100.119 123.657 99.9952 123.41C99.8711 123.164 97.0324 125.886 97.0324 125.886L95.1799 132.45L95.6741 139.385L96.2922 138.524Z" fill="#575988"/>
<path d="M97.1565 136.545C97.1565 136.545 90.9788 134.564 90.6128 134.069C90.2468 133.573 86.2917 130.354 84.9334 132.582C83.575 134.809 89.9946 135.437 89.9946 135.437L96.5383 139.4L97.1565 136.545Z" fill="#F7C4A7"/>
<path opacity="0.1" d="M74.2129 145.325L72.3828 144.994C72.3828 144.994 69.3896 148.839 67.8319 148.449C66.2743 148.06 64.8387 149.742 66.4858 150.285C67.9743 150.772 74.398 151.456 75.6262 151.582C75.6513 151.586 75.6769 151.584 75.7012 151.577C75.7255 151.569 75.748 151.557 75.7673 151.54C75.7865 151.524 75.802 151.503 75.8127 151.48C75.8234 151.457 75.8292 151.432 75.8295 151.407C75.8353 150.929 75.9276 150.456 76.102 150.012C76.4314 149.196 76.102 147.458 76.0105 146.797C75.9596 146.408 75.8376 146.031 75.6506 145.686L74.2129 145.325Z" fill="black"/>
<path d="M74.1845 145.446L72.3544 145.115C72.3544 145.115 69.3652 148.962 67.7974 148.57C66.2296 148.179 64.8041 149.864 66.4512 150.406C67.9397 150.894 74.3634 151.577 75.5916 151.703C75.6168 151.707 75.6423 151.705 75.6667 151.698C75.691 151.69 75.7135 151.678 75.7327 151.662C75.752 151.645 75.7675 151.624 75.7782 151.601C75.7889 151.578 75.7946 151.553 75.795 151.528C75.8008 151.05 75.8931 150.577 76.0675 150.133C76.3969 149.317 76.0675 147.579 75.976 146.918C75.9251 146.529 75.8031 146.152 75.616 145.807L74.1845 145.446Z" fill="#F3B5B7"/>
<path opacity="0.1" d="M99.9342 123.233C102.116 123.233 103.885 121.458 103.885 119.27C103.885 117.081 102.116 115.307 99.9342 115.307C97.7521 115.307 95.9832 117.081 95.9832 119.27C95.9832 121.458 97.7521 123.233 99.9342 123.233Z" fill="black"/>
<path d="M99.564 123.233C101.746 123.233 103.515 121.458 103.515 119.27C103.515 117.081 101.746 115.307 99.564 115.307C97.382 115.307 95.613 117.081 95.613 119.27C95.613 121.458 97.382 123.233 99.564 123.233Z" fill="#F7C4A7"/>
<path d="M103.452 123.17C103.452 123.17 108.143 124.779 108.143 128.124C108.143 131.469 105.55 136.793 105.426 141.127C105.302 145.461 98.5127 144.841 98.5127 144.841C98.5127 144.841 97.5245 130.229 98.5127 129.113C99.501 127.998 103.946 123.666 103.452 123.17Z" fill="#575988"/>
<path opacity="0.1" d="M102.588 130.104C102.588 130.104 100.859 137.782 96.7844 136.427C96.7844 136.427 94.6859 139.524 96.1744 140.886C96.1744 140.886 99.7553 141.753 102.1 139.399C104.444 137.045 106.169 136.175 106.539 133.319C106.909 130.463 107.149 126.509 105.929 126.88C104.709 127.251 102.588 130.104 102.588 130.104Z" fill="black"/>
<path d="M102.712 129.981C102.712 129.981 100.983 137.658 96.9085 136.304C96.9085 136.304 94.8099 139.4 96.2984 140.762C96.2984 140.762 99.8793 141.629 102.224 139.276C104.568 136.922 106.291 136.055 106.669 133.208C107.047 130.36 107.279 126.397 106.059 126.768C104.839 127.14 102.712 129.981 102.712 129.981Z" fill="#575988"/>
<path d="M76.1733 149.734C76.1733 149.747 76.1733 149.759 76.1611 149.769C76.0729 149.98 76.0048 150.2 75.9578 150.424C75.9862 150.326 76.0208 150.22 76.0615 150.128C76.1136 150.001 76.1511 149.869 76.1733 149.734Z" fill="#DDDBE2"/>
<path d="M66.551 150.045C66.0426 149.877 65.8291 149.602 65.821 149.312C65.6176 149.72 65.7437 150.169 66.4615 150.406C67.95 150.893 74.3757 151.577 75.6019 151.703C75.6272 151.706 75.6529 151.704 75.6774 151.697C75.7019 151.69 75.7245 151.677 75.7437 151.661C75.763 151.644 75.7785 151.623 75.7891 151.6C75.7997 151.576 75.8052 151.551 75.8052 151.526C75.806 151.48 75.79 151.437 75.7603 151.403C75.7306 151.369 75.6893 151.347 75.6446 151.342C74.2923 151.195 68.0191 150.524 66.551 150.045Z" fill="#DDDBE2"/>
<path d="M55.5864 146.318C55.6179 146.226 55.6581 146.138 55.7063 146.055C55.573 146.19 55.4733 146.355 55.4155 146.536C55.1451 147.295 62.433 151.309 63.5941 151.945C63.6125 151.957 63.6335 151.964 63.6553 151.966C63.677 151.967 63.6988 151.964 63.7188 151.955C63.7388 151.946 63.7565 151.933 63.7702 151.916C63.7839 151.899 63.7932 151.879 63.7975 151.858C63.8043 151.829 63.8016 151.799 63.7899 151.772C63.7781 151.745 63.7579 151.723 63.7324 151.709C62.4432 151.003 55.3179 147.068 55.5864 146.318Z" fill="#DDDBE2"/>
<path d="M64.4342 150.526C64.3692 150.544 64.3041 150.63 64.2451 150.752H64.2655C64.3183 150.738 64.4119 150.632 64.5257 150.467C64.5002 150.493 64.4688 150.514 64.4342 150.526Z" fill="#DDDBE2"/>
<path opacity="0.1" d="M99.0152 122.758C98.6675 123.527 98.5943 124.39 98.3381 125.206C98.0885 125.996 97.6605 126.717 97.0873 127.314C96.5141 127.91 95.8113 128.366 95.0337 128.645C96.3168 129.159 97.8297 128.531 98.822 127.49C99.8143 126.45 100.394 125.065 100.951 123.719C102.391 124.69 102.216 126.921 102.698 128.659C102.906 129.415 103.273 130.117 103.774 130.719C104.276 131.32 104.9 131.807 105.606 132.145C106.308 132.461 107.072 132.618 107.842 132.602C108.612 132.586 109.369 132.4 110.059 132.055C108.739 130.44 106.86 128.225 107.084 126.075C107.265 124.333 106.018 123.003 106.106 121.257C106.228 118.777 105.292 117.523 103.513 115.932C102.478 115.002 104.107 113.688 102.773 114.074C102.248 114.225 101.695 113.666 101.181 113.847C100.164 114.214 99.0477 114.076 97.9985 114.322C92.5427 115.603 99.5195 121.635 99.0152 122.758Z" fill="black"/>
<path d="M99.1392 122.634C98.7915 123.403 98.7183 124.266 98.4621 125.082C98.2125 125.871 97.7845 126.593 97.2113 127.189C96.6381 127.786 95.9353 128.241 95.1577 128.52C96.4408 129.034 97.9537 128.406 98.946 127.366C99.9384 126.326 100.518 124.941 101.075 123.595C102.515 124.566 102.34 126.797 102.822 128.535C103.03 129.291 103.397 129.993 103.898 130.594C104.4 131.196 105.024 131.682 105.73 132.02C106.432 132.337 107.196 132.493 107.966 132.477C108.736 132.462 109.493 132.275 110.183 131.931C108.863 130.315 107.108 128.463 107.336 126.322C107.517 124.58 107.247 122.791 107.336 121.045C107.458 118.565 106.248 116.176 104.477 114.586C103.442 113.655 101.834 113.537 101.311 113.723C100.294 114.09 99.1778 113.951 98.1286 114.198C92.6667 115.481 99.6476 121.51 99.1392 122.634Z" fill="#B96B6B"/>
<path d="M33.3141 160.342C40.4312 158.146 44.6323 158.327 44.6323 158.327L44.0487 155.009C44.2311 154.886 44.3965 154.74 44.5408 154.574C44.5408 154.574 43.8108 150.546 44.5408 149.538C45.2709 148.531 47.2799 139.377 47.2799 139.377V136.262C50.9401 134.981 55.2206 127.565 55.2206 127.565L60.6072 141.478C60.6072 141.478 65.9918 152.19 66.7218 152.555C67.3054 152.847 67.5962 155.243 67.6917 156.196L67.647 156.21C67.6694 156.44 67.6795 156.583 67.6795 156.583L67.7222 156.555V156.583C67.8126 156.52 67.9078 156.464 68.0069 156.416C66.9556 157.627 65.3817 159.369 64.0722 160.52C63.3503 161.154 64.6456 161.644 65.2516 161.633C65.5963 161.622 65.9404 161.671 66.2683 161.778C69.3368 162.841 74.3818 158.961 74.3818 158.961L73.119 155.429C73.4485 155.402 73.6518 155.39 73.6518 155.39C73.6518 155.39 69.5442 140.925 67.6267 139.55C67.0205 139.107 66.4738 138.587 65.9999 138.004C65.0879 136.892 64.6282 135.476 64.7127 134.039L65.3858 122.17C66.4676 122.011 67.1651 121.878 67.1651 121.878C67.1651 121.878 67.4172 118.635 67.4091 116.147C67.4091 114.852 67.3562 113.716 67.1651 113.271C66.9394 112.745 66.8682 111.692 66.8641 110.636C66.8641 109.208 66.9821 107.87 66.9821 107.87C66.9821 107.87 68.4421 105.947 70.4511 101.547C71.3357 99.6116 71.5655 98.0798 71.5451 96.9825C71.5588 96.4712 71.5096 95.9601 71.3987 95.4609C71.3418 95.214 71.2365 94.981 71.0888 94.7754C70.9411 94.5698 70.7541 94.3959 70.5386 94.2636C69.3836 93.5538 66.7543 91.8017 65.9796 90.1048C64.9954 87.9509 63.574 87.6449 63.5171 87.6327L63.4296 87.2533C63.9747 86.8012 64.3727 86.1961 64.5724 85.5155C64.8693 84.5977 64.9303 83.6187 65.1825 82.6865C65.3045 82.2378 65.4732 81.8034 65.5891 81.3546C65.7049 80.903 65.7603 80.438 65.7539 79.9718C65.7759 79.2926 65.6365 78.6179 65.3472 78.0035C64.8754 77.0306 63.9359 76.2657 62.8663 76.1393C62.2766 76.0699 61.6239 76.1719 61.1399 75.8272C60.8065 75.5885 60.6316 75.1826 60.3266 74.8991C59.747 74.3484 58.8198 74.377 58.0654 74.634C57.0495 74.9834 56.1792 75.6632 55.5927 76.5655C55.2409 77.1081 54.9948 77.7302 54.5434 78.1973C54.1632 78.5868 53.665 78.8357 53.2461 79.1824C52.936 79.4251 52.6838 79.7342 52.5079 80.087C52.332 80.4399 52.2369 80.8276 52.2293 81.2221C52.2293 81.2221 52.2293 81.2425 52.2293 81.2527C52.2293 81.3037 52.2293 81.3546 52.2293 81.4056C52.2497 82.1929 52.7967 82.9762 53.5653 83.1353C53.7666 83.1724 53.9724 83.1779 54.1754 83.1516C54.002 83.7941 53.9598 84.465 54.0513 85.1243C54.1428 85.7835 54.366 86.4175 54.7076 86.9881C55.0492 87.5587 55.5021 88.0543 56.0393 88.4451C56.5764 88.8359 57.1867 89.1139 57.8335 89.2624C57.8213 89.3276 57.8071 89.3929 57.7929 89.4663H57.8356C57.7475 89.7837 57.6374 90.0945 57.5062 90.3964H57.4472L57.5956 90.1313L55.5012 89.9865C54.8913 89.9404 54.2801 90.055 53.728 90.3189C53.0061 90.6697 52.2171 91.3387 52.1195 92.6033C51.9365 94.9734 47.4629 98.5428 47.4629 98.5428C45.9114 101.015 35.7787 101.472 35.7787 101.472C35.7787 101.472 35.8234 101.529 35.8438 101.559L35.6404 101.521L34.8738 101.38C34.8738 101.38 32.5008 94.3309 30.2192 95.6118C27.9377 96.8927 34.1438 103.852 34.1438 103.852L35.9373 103.972L36.1183 103.985C36.0524 104.441 35.958 104.893 35.8356 105.337C35.8112 105.427 35.7929 105.484 35.7889 105.498C35.7889 105.498 40.5065 104.951 44.5144 105.039H44.8764L45.1326 105.027C45.3359 107.236 48.4756 111.725 48.4756 111.725L50.4135 112.133L50.5599 112.164C49.9354 113.459 49.1422 114.665 48.2011 115.751L47.5626 119.323L47.6134 119.311L47.5626 119.598C47.672 119.571 47.7732 119.518 47.8574 119.443C46.6068 122.772 44.5327 127.953 43.091 129.76C40.901 132.507 41.1734 136.898 41.1734 136.898C41.1734 136.898 38.9834 148.435 39.0749 150.54C39.0855 151.556 38.8114 152.554 38.2839 153.422C37.8543 153.916 37.4768 154.454 37.1574 155.027C35.5143 157.866 32.8668 157.678 32.8668 157.678C30.5852 159.151 33.3141 160.342 33.3141 160.342ZM47.4121 104.499L47.648 104.405L47.7029 104.382L47.9286 104.284L47.9672 104.266L48.1706 104.172L48.2153 104.152L48.4309 104.044L48.4817 104.017L48.685 103.909H48.7013L48.9046 103.791L48.9534 103.762L49.1568 103.644L49.1893 103.624L49.3662 103.515L49.4069 103.491L49.596 103.371L49.6387 103.342L49.8136 103.226L49.8299 103.216L50.0088 103.091L50.0495 103.063L50.2203 102.94L50.2467 102.922L50.3972 102.812L50.4297 102.787L50.5863 102.667L50.6188 102.642L50.7612 102.53H50.7734L50.9178 102.414L50.9483 102.39L51.0845 102.277L51.0967 102.267L51.2187 102.163L51.2391 102.145L51.359 102.041L51.3773 102.024L51.4871 101.925L51.5929 101.829L51.6071 101.814L51.8105 101.61L52.1073 101.586C52.3595 101.914 52.4591 102.496 52.4693 103.163C52.4408 104.874 51.9243 106.987 51.9243 106.987C51.8803 108.036 51.6984 109.074 51.3834 110.075C51.1608 110.063 50.9422 110.01 50.7388 109.918C50.7388 109.918 50.7266 109.983 50.7083 110.093L50.5334 110.048L49.6448 109.826C49.6448 109.826 48.9067 106.057 47.4121 104.499Z" fill="url(#paint5_linear)"/>
<path d="M72.1653 153.266L73.8591 158C73.8591 158 69.2208 161.569 66.2072 160.831C65.7533 160.718 65.2908 160.642 64.8245 160.606C64.2002 160.559 63.1266 160.105 63.7895 159.523C65.9287 157.647 68.7796 154.161 68.7796 154.161L72.1653 153.266Z" fill="#4F4D59"/>
<path d="M44.0059 152.82L44.8071 157.379C44.8071 157.379 40.7076 157.2 33.7573 159.345C33.7573 159.345 31.0833 158.183 33.312 156.753C33.312 156.753 35.8965 156.932 37.5009 154.161C39.1053 151.389 40.0854 151.748 40.0854 151.748L44.0059 152.82Z" fill="#4F4D59"/>
<path d="M65.2149 119.746L64.43 133.615C64.3459 135.094 64.8348 136.547 65.7945 137.672C66.2283 138.189 66.7226 138.651 67.2667 139.049C69.1375 140.389 73.1474 154.512 73.1474 154.512C73.1474 154.512 68.6027 154.779 67.3562 155.674C67.3562 155.674 67.0898 152.099 66.376 151.742C65.6623 151.385 60.4058 140.932 60.4058 140.932L55.1453 127.343C55.1453 127.343 50.9563 134.584 47.3917 135.835V138.874C47.3917 138.874 45.4314 147.811 44.7177 148.795C44.004 149.778 44.7177 153.71 44.7177 153.71C44.7177 153.71 42.668 156.303 37.9463 153.531C37.9463 153.531 39.4612 151.832 39.3697 149.776C39.2782 147.72 41.4235 136.461 41.4235 136.461C41.4235 136.461 41.1571 132.177 43.2943 129.489C45.4314 126.801 48.988 116.529 48.988 116.529L51.4403 111.236L65.2149 119.746Z" fill="#787C9C"/>
<g opacity="0.1">
<path opacity="0.1" d="M72.2995 154.516C72.2995 154.516 68.2895 140.393 66.4188 139.053C65.8436 138.631 65.3237 138.138 64.8713 137.586C63.9559 136.477 63.4957 135.059 63.5841 133.621L64.369 119.752L51.2268 111.626L51.4058 111.24L65.1702 119.75L64.3853 133.619C64.2969 135.057 64.7571 136.475 65.6725 137.584C66.1249 138.136 66.6448 138.629 67.2199 139.051C69.0907 140.391 73.1007 154.514 73.1007 154.514C73.1007 154.514 68.5559 154.781 67.3094 155.676C67.3094 155.676 67.2992 155.537 67.2769 155.311C69.0297 154.709 72.2995 154.516 72.2995 154.516Z" fill="black"/>
<path opacity="0.1" d="M43.8739 153.716C43.8739 153.716 43.1601 149.784 43.8739 148.801C44.5876 147.818 46.5478 138.88 46.5478 138.88V135.841C50.1125 134.588 54.3014 127.35 54.3014 127.35L54.6125 128.155C53.4047 130.077 50.1816 134.847 47.3511 135.841V138.88C47.3511 138.88 45.3908 147.818 44.6771 148.801C43.9633 149.784 44.6771 153.716 44.6771 153.716C44.6771 153.716 43.6827 154.971 41.4866 154.801C43.1235 154.661 43.8739 153.716 43.8739 153.716Z" fill="black"/>
</g>
<path d="M34.5607 104.193L36.3115 104.309L37.2347 104.37V102.127L36.0146 101.906L35.2643 101.77C35.2643 101.77 32.9482 94.8879 30.7195 96.1382C28.4908 97.3885 34.5607 104.193 34.5607 104.193Z" fill="#714B4F"/>
<path d="M62.6305 85.7812C62.6305 85.7812 63.7896 90.2501 64.1455 93.022C64.5013 95.7939 55.8591 93.5584 55.8591 93.5584C55.8591 93.5584 59.1554 89.5363 57.2826 87.3905L62.6305 85.7812Z" fill="#714B4F"/>
<path d="M53.2744 104.373L53.0955 106.072L55.8569 105.893L58.6183 103.48L61.3798 95.7025L63.1651 92.9347L64.5011 91.2357L63.9663 89.1797C63.9663 89.1797 63.7223 89.3837 63.3095 89.71C61.9532 90.7523 58.7688 92.9163 56.4425 92.3187C56.3349 92.2918 56.229 92.2584 56.1253 92.2188L52.6501 98.2072L53.2744 104.373Z" fill="#E6E6F0"/>
<path opacity="0.1" d="M63.2547 88.6504C63.2547 88.6504 64.6782 88.9176 65.6603 91.0633C66.4147 92.7134 68.9586 94.4145 70.0953 95.1141C70.312 95.247 70.4999 95.4222 70.648 95.6292C70.7961 95.8363 70.9013 96.071 70.9575 96.3195C71.1872 97.3393 71.2747 99.2362 70.0261 101.969C68.0659 106.253 66.6404 108.137 66.6404 108.137C66.6404 108.137 66.2846 112.421 66.8194 113.679C67.3542 114.937 66.8194 121.813 66.8194 121.813C66.8194 121.813 57.4655 123.6 54.3441 121.813C51.2228 120.026 51.6701 113.126 51.6701 113.126C51.6701 113.126 48.7298 119.388 47.6663 119.567L48.2763 116.082C48.2763 116.082 51.7515 112.327 51.9365 107.501C51.9365 107.501 53.0061 103.122 52.1155 101.959C52.1155 101.959 37.0557 103.211 36.165 102.139C36.165 102.139 46.0558 101.692 47.5707 99.2831C47.5707 99.2831 51.9365 95.7973 52.1155 93.4742C52.1416 93.0384 52.2779 92.6164 52.5117 92.2482C52.7454 91.8799 53.0688 91.5774 53.4514 91.3692C54.0576 91.0236 54.7531 90.868 55.4483 90.9226L57.4614 91.0613C57.4614 91.0613 53.9883 97.2169 54.1733 98.0328C54.3584 98.8487 53.9944 105.361 53.9944 105.361C53.9944 105.361 58.0044 96.6907 59.7857 95.7076C61.567 94.7245 63.6106 90.69 63.6106 90.69L63.2547 88.6504Z" fill="black"/>
<path opacity="0.1" d="M53.2744 104.373L53.0955 106.072L55.8569 105.893L58.6183 103.48L61.3798 95.7025L63.1651 92.9347L64.5011 91.2357L63.9663 89.1797C63.9663 89.1797 63.7223 89.3837 63.3095 89.71L63.4315 90.4157C63.4315 90.4157 61.3818 94.4522 59.6005 95.4353C57.8192 96.4184 53.8092 105.089 53.8092 105.089C53.8092 105.089 54.1651 98.5621 53.9882 97.7605C53.8661 97.2139 55.4278 94.2013 56.4425 92.3187C56.3349 92.2918 56.229 92.2584 56.1253 92.2188L52.6501 98.2072L53.2744 104.373Z" fill="black"/>
<path opacity="0.1" d="M36.3115 104.311L37.2347 104.372V102.128L36.0146 101.908C36.4437 102.479 36.4295 103.471 36.3115 104.311Z" fill="black"/>
<path d="M63.2547 88.373C63.2547 88.373 64.6782 88.6402 65.6603 90.786C66.4147 92.436 68.9586 94.1371 70.0953 94.8367C70.312 94.9697 70.4999 95.1448 70.648 95.3519C70.7961 95.5589 70.9013 95.7936 70.9575 96.0421C71.1872 97.062 71.2747 98.9589 70.0261 101.692C68.0659 105.975 66.6404 107.86 66.6404 107.86C66.6404 107.86 66.2846 112.143 66.8194 113.402C67.3542 114.66 66.8194 121.536 66.8194 121.536C66.8194 121.536 57.4655 123.323 54.3441 121.536C51.2228 119.749 51.6701 112.865 51.6701 112.865C51.6701 112.865 48.7298 119.121 47.6663 119.298L48.2763 115.813C48.2763 115.813 51.7515 112.058 51.9365 107.232C51.9365 107.232 53.0061 102.853 52.1155 101.69C52.1155 101.69 48.6403 105.445 44.7198 105.361C40.7993 105.278 36.165 105.808 36.165 105.808C36.165 105.808 37.0557 102.952 36.165 101.876C36.165 101.876 46.0558 101.429 47.5707 99.02C47.5707 99.02 51.9365 95.5343 52.1155 93.2111C52.1404 92.7737 52.2765 92.3499 52.5106 91.9801C52.7448 91.6103 53.0694 91.3066 53.4535 91.098C54.0596 90.7523 54.7552 90.5968 55.4503 90.6513L57.4635 90.79C57.4635 90.79 53.9883 96.9539 54.1733 97.7575C54.3584 98.5611 53.9944 105.086 53.9944 105.086C53.9944 105.086 58.0044 96.4154 59.7857 95.4323C61.567 94.4492 63.6167 90.4127 63.6167 90.4127L63.2608 88.373" fill="#67647E"/>
<path opacity="0.1" d="M65.2148 97.7578C65.2148 97.7578 63.0756 104.999 61.8291 105.892C60.5826 106.785 53.008 111.344 50.7793 110.271C50.7793 110.271 50.2445 112.953 51.0457 113.577C51.0457 113.577 59.3544 113.251 59.4215 113.22C59.4215 113.22 64.8569 112.505 65.7476 109.824C66.6382 107.144 67.7078 102.584 67.7078 102.584L65.2148 97.7578Z" fill="black"/>
<path d="M53.8094 105.936C53.9812 105.936 54.1205 105.736 54.1205 105.49C54.1205 105.243 53.9812 105.043 53.8094 105.043C53.6376 105.043 53.4983 105.243 53.4983 105.49C53.4983 105.736 53.6376 105.936 53.8094 105.936Z" fill="#BA7855"/>
<path d="M52.9185 109.065C53.0904 109.065 53.2297 108.865 53.2297 108.619C53.2297 108.372 53.0904 108.172 52.9185 108.172C52.7467 108.172 52.6074 108.372 52.6074 108.619C52.6074 108.865 52.7467 109.065 52.9185 109.065Z" fill="#BA7855"/>
<g opacity="0.1">
<path opacity="0.1" d="M66.1949 121.444C66.1949 121.444 66.7297 114.563 66.1949 113.31C65.6601 112.058 66.016 107.769 66.016 107.769C66.016 107.769 67.4394 105.892 69.4017 101.601C70.6503 98.8675 70.5608 96.9706 70.333 95.9508C70.2767 95.7021 70.1711 95.4673 70.0227 95.2603C69.8742 95.0532 69.6859 94.8781 69.4688 94.7454C68.3321 94.0458 65.7883 92.3447 65.0359 90.6946C64.4828 89.4851 63.7894 88.8712 63.2871 88.5672L63.2525 88.3633C63.2525 88.3633 64.676 88.6305 65.6581 90.7762C66.4125 92.4263 68.9564 94.1273 70.0911 94.8269C70.3081 94.9597 70.4965 95.1348 70.6449 95.3418C70.7934 95.5489 70.8989 95.7837 70.9553 96.0324C71.1851 97.0522 71.2725 98.9491 70.024 101.682C68.0637 105.965 66.6382 107.85 66.6382 107.85C66.6382 107.85 66.2824 112.133 66.8172 113.392C67.352 114.65 66.8172 121.526 66.8172 121.526C66.8172 121.526 60.1332 122.803 56.1802 122.12C60.1739 122.595 66.1949 121.444 66.1949 121.444Z" fill="black"/>
<path opacity="0.1" d="M54.1733 97.7589C54.2953 98.3097 54.1733 101.549 54.0736 103.531C53.6425 104.414 53.3721 104.998 53.3721 104.998C53.3721 104.998 53.7279 98.4708 53.551 97.6692C53.3822 96.9043 56.5117 91.2953 56.8228 90.7344L57.4715 90.7792C57.4715 90.7792 53.9882 96.9553 54.1733 97.7589Z" fill="black"/>
<path opacity="0.1" d="M44.0955 105.267C48.016 105.357 51.4912 101.596 51.4912 101.596C51.5963 101.742 51.6729 101.906 51.7169 102.081C50.7002 103.042 47.8533 105.422 44.7198 105.345C40.7993 105.255 36.165 105.791 36.165 105.791C36.165 105.791 36.1833 105.732 36.2118 105.63C38.831 105.362 41.4629 105.241 44.0955 105.267Z" fill="black"/>
<path opacity="0.1" d="M51.0459 112.773C51.0459 112.773 51.0093 113.332 51.0296 114.171C50.1023 116.006 48.4146 119.172 47.6602 119.298L47.7923 118.564C49.0897 116.93 51.0459 112.773 51.0459 112.773Z" fill="black"/>
</g>
<path d="M52.0768 90.2188H30.7764V106.32H52.0768V90.2188Z" fill="url(#paint6_linear)"/>
<path d="M51.5255 90.6309H31.3252V105.902H51.5255V90.6309Z" fill="white"/>
<path opacity="0.2" d="M40.0345 91.9531H33.3018V95.7713H40.0345V91.9531Z" fill="#BA1C51"/>
<path d="M49.5491 91.9531H41.645V92.8342H49.5491V91.9531Z" fill="#E6E8EC"/>
<path d="M47.2086 93.4219H41.645V94.303H47.2086V93.4219Z" fill="#E6E8EC"/>
<path d="M49.5491 94.8906H41.645V95.7717H49.5491V94.8906Z" fill="#E6E8EC"/>
<path d="M49.5511 96.3594H33.3018V97.2405H49.5511V96.3594Z" fill="#E6E8EC"/>
<path d="M49.5511 97.8281H33.3018V98.7093H49.5511V97.8281Z" fill="#E6E8EC"/>
<path d="M49.5511 99.2949H33.3018V100.176H49.5511V99.2949Z" fill="#E6E8EC"/>
<path d="M48.2334 100.764H33.3018V101.645H48.2334V100.764Z" fill="#E6E8EC"/>
<path d="M49.5511 102.23H33.3018V103.112H49.5511V102.23Z" fill="#E6E8EC"/>
<path d="M49.5511 103.699H33.3018V104.58H49.5511V103.699Z" fill="#E6E8EC"/>
<path d="M48.5507 111.88L50.4438 112.288L51.9364 112.596L51.1352 110.353L50.5781 110.212L49.7098 109.996C49.7098 109.996 48.4633 103.744 45.9682 104.193C43.4731 104.642 48.5507 111.88 48.5507 111.88Z" fill="#714B4F"/>
<path opacity="0.1" d="M50.4439 112.281L51.9364 112.597L51.1352 110.354L50.5781 110.213C50.4534 110.895 50.4084 111.589 50.4439 112.281Z" fill="black"/>
<path d="M65.2148 97.5801C65.2148 97.5801 63.0756 104.821 61.8291 105.714C60.5826 106.608 53.008 111.166 50.7793 110.093C50.7793 110.093 50.2445 112.775 51.0457 113.4C51.0457 113.4 59.3544 113.073 59.4215 113.043C59.4215 113.043 64.8569 112.327 65.7476 109.647C66.6382 106.967 67.7078 102.406 67.7078 102.406L65.2148 97.5801Z" fill="#67647E"/>
<path opacity="0.1" d="M62.5409 85.9609C62.5409 85.9609 62.7218 86.6605 62.9638 87.6783C62.4695 88.6148 61.6814 89.362 60.7214 89.8044C59.7614 90.2467 58.6829 90.3597 57.6524 90.1259C57.8659 89.2081 57.8192 88.2902 57.1929 87.5621L62.5409 85.9609Z" fill="black"/>
<path d="M58.7994 90.0735C61.4566 90.0735 63.6106 87.9129 63.6106 85.2477C63.6106 82.5825 61.4566 80.4219 58.7994 80.4219C56.1423 80.4219 53.9883 82.5825 53.9883 85.2477C53.9883 87.9129 56.1423 90.0735 58.7994 90.0735Z" fill="#714B4F"/>
<path opacity="0.1" d="M54.6208 83.9188C54.2714 84.0161 53.9056 84.0384 53.5471 83.9841C52.7968 83.8291 52.262 83.0642 52.2437 82.2953C52.2512 81.91 52.3441 81.5313 52.5158 81.1866C52.6874 80.842 52.9334 80.5399 53.236 80.3025C53.6427 79.9619 54.1307 79.7192 54.5028 79.3398C54.9441 78.8891 55.184 78.2812 55.5195 77.7509C56.0928 76.8702 56.9431 76.2068 57.9353 75.8663C58.6734 75.6154 59.5763 75.5869 60.1436 76.1253C60.4344 76.4007 60.6052 76.7984 60.9306 77.0309C61.4023 77.3675 62.0408 77.2675 62.6163 77.3348C63.1379 77.4153 63.6317 77.6233 64.0541 77.9407C64.4765 78.258 64.8145 78.6748 65.0381 79.1542C65.4751 80.1255 65.5586 81.2197 65.274 82.2463C65.1622 82.6848 64.9995 83.1111 64.8795 83.5476C64.6294 84.4573 64.5705 85.4119 64.2817 86.3093C63.9929 87.2068 63.3971 88.0838 62.4963 88.349C62.5676 87.3428 62.3696 86.3359 61.9229 85.4323C61.8489 85.2354 61.7037 85.0737 61.5162 84.9795C61.3554 84.9381 61.1869 84.9381 61.0261 84.9795C59.898 85.1473 58.7468 84.9135 57.7726 84.3186C57.431 84.1146 56.8982 83.3987 56.5322 83.3273C56.0706 83.2437 55.1088 83.8087 54.6208 83.9188Z" fill="black"/>
<path d="M54.6208 83.7372C54.2714 83.8345 53.9056 83.8567 53.5471 83.8025C52.7968 83.6475 52.262 82.8826 52.2437 82.1136C52.2512 81.7284 52.3441 81.3497 52.5158 81.005C52.6874 80.6603 52.9334 80.3583 53.236 80.1209C53.6427 79.7803 54.1307 79.5376 54.5028 79.1582C54.9441 78.7074 55.184 78.0996 55.5195 77.5693C56.0928 76.6885 56.9431 76.0252 57.9353 75.6847C58.6734 75.4338 59.5763 75.4052 60.1436 75.9437C60.4344 76.219 60.6052 76.6168 60.9306 76.8493C61.4023 77.1858 62.0408 77.0859 62.6163 77.1532C63.1379 77.2336 63.6317 77.4417 64.0541 77.759C64.4765 78.0763 64.8145 78.4931 65.0381 78.9726C65.4751 79.9438 65.5586 81.0381 65.274 82.0647C65.1622 82.5032 64.9995 82.9295 64.8795 83.366C64.6294 84.2757 64.5705 85.2302 64.2817 86.1277C63.9929 87.0251 63.3971 87.9022 62.4963 88.1673C62.5676 87.1612 62.3696 86.1543 61.9229 85.2506C61.8489 85.0538 61.7037 84.8921 61.5162 84.7978C61.3554 84.7565 61.1869 84.7565 61.0261 84.7978C59.898 84.9656 58.7468 84.7318 57.7726 84.137C57.431 83.933 56.8982 83.2171 56.5322 83.1457C56.0706 83.0621 55.1088 83.6291 54.6208 83.7372Z" fill="#503F43"/>
<path d="M17.5223 156.043C17.895 155.738 18.1666 155.327 18.3012 154.864C18.4028 154.395 18.2036 153.834 17.7562 153.663C17.256 153.471 16.7212 153.818 16.3165 154.171C15.9119 154.524 15.4462 154.923 14.9155 154.848C15.1882 154.6 15.3923 154.285 15.5078 153.934C15.6232 153.584 15.6462 153.209 15.5743 152.847C15.5514 152.697 15.4881 152.556 15.3913 152.439C15.1127 152.141 14.6104 152.27 14.277 152.504C13.2196 153.251 12.9247 154.691 12.9186 155.988C12.8129 155.521 12.9023 155.033 12.8983 154.56C12.8942 154.087 12.7641 153.54 12.3614 153.292C12.1118 153.157 11.8314 153.09 11.5481 153.098C11.0722 153.079 10.5435 153.128 10.2182 153.477C9.81149 153.91 9.91926 154.638 10.271 155.109C10.6228 155.58 11.1556 155.884 11.6477 156.214C12.0421 156.45 12.3785 156.771 12.6319 157.155C12.6617 157.208 12.6862 157.264 12.7051 157.322H15.68C16.3489 156.981 16.9687 156.551 17.5223 156.043Z" fill="#BA1C51"/>
<path d="M194.229 127.693C194.602 127.389 194.874 126.978 195.008 126.515C195.11 126.045 194.911 125.485 194.463 125.313C193.963 125.121 193.428 125.468 193.024 125.821C192.619 126.174 192.153 126.574 191.623 126.498C191.895 126.25 192.099 125.936 192.215 125.585C192.33 125.234 192.353 124.86 192.281 124.497C192.258 124.347 192.195 124.206 192.098 124.089C191.82 123.792 191.317 123.92 190.984 124.155C189.927 124.901 189.632 126.341 189.626 127.638C189.52 127.171 189.609 126.684 189.605 126.211C189.601 125.737 189.471 125.191 189.068 124.942C188.819 124.807 188.538 124.741 188.255 124.748C187.779 124.73 187.251 124.779 186.925 125.128C186.519 125.56 186.626 126.288 186.978 126.759C187.33 127.23 187.863 127.534 188.355 127.865C188.749 128.1 189.086 128.421 189.339 128.805C189.369 128.858 189.393 128.914 189.412 128.972H192.391C193.059 128.631 193.677 128.201 194.229 127.693Z" fill="#BA1C51"/>
<path d="M220.661 66.3796C220.24 65.1435 219.632 63.5771 219.152 63.2079C219.122 63.1842 219.09 63.1644 219.056 63.1487H218.997V61.621L217.862 61.8026C217.682 61.2507 217.546 60.6853 217.456 60.1117C217.565 60.2215 217.704 60.2963 217.856 60.3268C218.008 60.3573 218.165 60.3421 218.308 60.283C218.29 60.2524 218.273 60.2198 218.257 60.1872L218.308 60.1647C218.129 59.8487 218.035 59.4919 218.033 59.1286C218.042 58.7968 218.095 58.4676 218.19 58.1496C218.393 57.4459 218.737 56.7891 218.928 56.0813C219.05 55.626 219.108 55.1556 219.099 54.6842C219.105 53.885 218.924 53.0955 218.57 52.3794C218.481 52.1726 218.341 51.9916 218.163 51.8531C218.004 51.7643 217.839 51.6839 217.671 51.6125C217.389 51.422 217.146 51.1789 216.956 50.8965C216.15 49.9119 215.07 49.1892 213.855 48.8202C213.538 48.7015 213.194 48.6739 212.862 48.7406C212.1 48.9446 211.823 49.893 211.205 50.3907C210.66 50.8292 209.912 50.8741 209.226 51.021C208.541 51.1678 207.852 51.4595 207.384 51.9898C207.062 52.3594 206.886 52.8348 206.89 53.3258C206.871 53.5551 206.911 53.7855 207.007 53.9948C207.102 54.204 207.25 54.3852 207.435 54.521C207.646 54.6598 207.885 54.7501 208.135 54.7853C208.385 54.8206 208.64 54.8 208.881 54.725C208.692 55.3778 208.64 56.0627 208.728 56.7366C208.816 57.4106 209.042 58.059 209.392 58.6412C209.741 59.2235 210.207 59.7269 210.76 60.12C211.313 60.5131 211.94 60.7873 212.604 60.9255L212.736 61.1642C213.145 61.9273 213.455 62.7395 213.659 63.5811C212.614 64.1747 211.473 64.7315 210.784 64.7845C210.756 65.0548 210.706 65.3223 210.634 65.5841C210.472 66.2407 210.163 66.8514 209.729 67.3688C208.791 68.4253 204.576 76.4126 204.576 76.4126C204.576 76.4126 204.444 76.7308 204.226 77.2733C201.609 77.5956 197.337 78.0606 196.145 77.822L191.468 73.3592C191.468 73.3592 189.955 74.5178 190.087 75.9251L189.244 75.1215C189.244 75.1215 184.794 78.5277 191.82 80.7591L202.51 82.0033C201.493 85.0852 200.541 88.673 200.836 90.6249H200.924C201.128 90.6247 201.332 90.6091 201.534 90.578L201.515 90.9247L200.487 109.416C200.487 109.416 200.253 112.822 203.415 114.348C203.415 114.348 207.278 125.74 205.757 127.033C205.757 127.033 205.938 127.129 206.243 127.261L203.065 130.086C203.065 130.086 200.722 130.673 199.435 130.555C199.209 130.524 198.979 130.578 198.79 130.705C198.601 130.833 198.465 131.027 198.408 131.249C198.408 131.273 198.408 131.298 198.396 131.322V131.353C198.396 131.377 198.396 131.402 198.396 131.428C198.396 131.455 198.396 131.447 198.396 131.457C198.396 131.467 198.396 131.5 198.396 131.522C198.396 131.544 198.396 131.54 198.396 131.549C198.396 131.557 198.396 131.599 198.41 131.624V131.653C198.417 131.68 198.426 131.707 198.437 131.734L198.447 131.759C198.457 131.785 198.469 131.812 198.484 131.838V131.856C198.498 131.883 198.514 131.907 198.53 131.934L198.545 131.956C198.564 131.984 198.585 132.011 198.608 132.038L198.626 132.058C198.65 132.087 198.677 132.113 198.703 132.14L198.715 132.15L198.803 132.226L198.821 132.24C198.854 132.266 198.89 132.291 198.927 132.315L198.951 132.332C198.99 132.356 199.031 132.381 199.073 132.403H199.092L199.224 132.468H199.242L199.397 132.53L199.429 132.542L199.598 132.597H199.626L199.811 132.646H199.826L200.029 132.687H200.07L200.289 132.719H200.332L200.58 132.744C201.062 132.78 201.711 132.795 202.461 132.791C202.461 132.791 202.461 132.809 202.461 132.819C202.461 132.829 202.461 132.862 202.461 132.884V132.911C202.461 132.935 202.461 132.962 202.475 132.986V133.015C202.482 133.042 202.491 133.069 202.502 133.097L202.512 133.121C202.522 133.148 202.534 133.174 202.549 133.201V133.219C202.563 133.245 202.579 133.27 202.595 133.296L202.609 133.319C202.628 133.346 202.649 133.373 202.673 133.401L202.691 133.421C202.715 133.449 202.742 133.476 202.768 133.502L202.78 133.513L202.868 133.588L202.886 133.602C202.919 133.629 202.955 133.653 202.992 133.678L203.018 133.694C203.057 133.719 203.098 133.743 203.14 133.766H203.159L203.291 133.831H203.309L203.464 133.892L203.496 133.904L203.665 133.959H203.693L203.878 134.008H203.893L204.096 134.049H204.137L204.356 134.082H204.399L204.647 134.106C207.697 134.341 217.409 133.637 217.409 133.637V133.611V133.576C217.505 133.121 217.972 130.478 216.313 128.524C216.362 128.473 216.411 128.418 216.455 128.361C216.455 128.361 215.168 126.129 215.87 125.423C216.571 124.718 212.358 112.504 212.358 112.504C212.358 112.504 210.133 108.982 211.42 104.988C212.708 100.994 211.303 96.65 211.303 96.65C211.303 96.65 214.373 95.7342 214.436 91.9425C214.436 91.8283 214.436 91.71 214.436 91.5897C214.503 91.5993 214.571 91.6034 214.639 91.6019C214.683 91.605 214.726 91.605 214.77 91.6019C214.77 91.6019 214.184 89.4888 214.888 87.9611C215.591 86.4334 217.112 87.8428 218.517 81.6198C219.534 77.1163 220.429 71.9356 220.846 69.4146C221.027 68.4026 220.963 67.3618 220.661 66.3796ZM193.939 79.5904L192.871 78.5706C193.225 78.7174 193.618 78.8622 194.057 79.0009L198.083 79.47C196.285 79.6373 194.616 79.727 193.939 79.5924V79.5904Z" fill="url(#paint7_linear)"/>
<path d="M204.13 78.9932C204.13 78.9932 195.848 80.1477 194.122 79.8091L189.52 75.4238C189.52 75.4238 185.148 78.7709 192.052 80.9615L204.936 82.4606L204.13 78.9932Z" fill="#FDC2CC"/>
<path opacity="0.05" d="M204.13 78.9932C204.13 78.9932 195.848 80.1477 194.122 79.8091L189.52 75.4238C189.52 75.4238 185.148 78.7709 192.052 80.9615L204.936 82.4606L204.13 78.9932Z" fill="black"/>
<path d="M207.122 125.84L203.095 129.417C203.095 129.417 200.796 129.995 199.529 129.878C198.262 129.762 197.688 131.841 200.68 132.071C203.671 132.301 213.218 131.61 213.218 131.61C213.218 131.61 214.139 127.918 211.378 125.84H207.122Z" fill="#47465A"/>
<path opacity="0.05" d="M207.122 125.84L203.095 129.417C203.095 129.417 200.796 129.995 199.529 129.878C198.262 129.762 197.688 131.841 200.68 132.071C203.671 132.301 213.218 131.61 213.218 131.61C213.218 131.61 214.139 127.918 211.378 125.84H207.122Z" fill="black"/>
<path opacity="0.3" d="M213.362 130.012C213.356 130.432 213.307 130.851 213.218 131.262C213.218 131.262 203.661 131.953 200.68 131.723C199.242 131.613 198.63 131.074 198.52 130.558C198.39 131.15 198.911 131.933 200.68 132.07C203.671 132.3 213.218 131.609 213.218 131.609C213.33 131.084 213.378 130.548 213.362 130.012Z" fill="white"/>
<path d="M211.837 60.4164C211.837 60.4164 214.369 63.9939 213.448 66.417C212.527 68.8401 218.273 63.8776 218.273 63.8776C218.273 63.8776 216.433 60.6468 217.352 57.1855L211.837 60.4164Z" fill="#FDC2CC"/>
<path d="M211.156 127.223L207.13 130.8C207.13 130.8 204.83 131.377 203.563 131.261C202.296 131.145 201.723 133.223 204.714 133.454C207.705 133.684 217.252 132.993 217.252 132.993C217.252 132.993 218.174 129.301 215.412 127.223H211.156Z" fill="#47465A"/>
<path d="M212.299 126.415C211.699 127.157 210.853 127.434 209.968 127.485C207.957 127.581 205.743 126.415 205.743 126.415C207.238 125.146 203.443 113.952 203.443 113.952C200.338 112.453 200.568 109.106 200.568 109.106L201.585 90.9389L201.839 86.3762L205.06 84.4141L207.599 86.368L210.007 88.2221C210.164 88.8116 210.264 89.4146 210.308 90.0231C210.587 94.2635 207.246 95.2609 207.246 95.2609C207.246 95.2609 208.626 99.5299 207.362 103.452C206.097 107.374 208.283 110.836 208.283 110.836C208.283 110.836 212.425 122.835 211.74 123.528C211.054 124.222 212.299 126.415 212.299 126.415Z" fill="#565171"/>
<path opacity="0.05" d="M212.299 126.415C211.699 127.157 210.853 127.434 209.968 127.485C207.957 127.581 205.743 126.415 205.743 126.415C207.238 125.146 203.443 113.952 203.443 113.952C200.338 112.453 200.568 109.106 200.568 109.106L201.585 90.9389L201.839 86.3762L205.06 84.4141L207.599 86.368L210.007 88.2221C210.164 88.8116 210.264 89.4146 210.308 90.0231C210.587 94.2635 207.246 95.2609 207.246 95.2609C207.246 95.2609 208.626 99.5299 207.362 103.452C206.097 107.374 208.283 110.836 208.283 110.836C208.283 110.836 212.425 122.835 211.74 123.528C211.054 124.222 212.299 126.415 212.299 126.415Z" fill="black"/>
<path d="M216.325 127.799C214.369 130.222 209.769 127.799 209.769 127.799C209.863 127.714 209.933 127.606 209.972 127.485C210.816 125.184 207.126 114.185 207.126 114.185C204.02 112.685 203.669 109.108 203.669 109.108L202.855 90.6184L202.75 88.2239L207.589 86.3698L209.076 85.8008L214.023 89.6088C214.237 90.395 214.344 91.2067 214.34 92.0217C214.277 95.7482 211.262 96.6477 211.262 96.6477C211.262 96.6477 212.642 100.917 211.377 104.839C210.113 108.761 212.299 112.222 212.299 112.222C212.299 112.222 216.441 124.222 215.755 124.915C215.07 125.609 216.325 127.799 216.325 127.799Z" fill="#565171"/>
<path opacity="0.1" d="M214.341 92.0215C213.346 91.8788 211.333 90.6774 210.298 90.0247C209.904 89.7759 209.651 89.6168 209.651 89.6168C209.651 89.6168 208.616 86.7327 205.855 88.9253C204.957 89.6567 203.943 90.2317 202.856 90.6264C202.44 90.774 202.011 90.8819 201.574 90.9487L201.829 86.386L205.05 84.4238L207.589 86.3778L209.076 85.8088L214.023 89.6168C214.237 90.4003 214.343 91.2093 214.341 92.0215Z" fill="black"/>
<path d="M220.567 69.8868C220.16 72.3629 219.278 77.4519 218.279 81.8779C216.898 87.9969 215.404 86.6079 214.712 88.109C214.021 89.6102 214.597 91.6866 214.597 91.6866C213.446 91.8028 209.649 89.2635 209.649 89.2635C209.649 89.2635 208.614 86.3794 205.853 88.572C203.091 90.7647 200.905 90.6484 200.905 90.6484C200.33 86.8404 204.586 76.687 204.586 76.687C204.586 76.687 208.728 68.8404 209.647 67.8023C210.074 67.2937 210.378 66.6935 210.536 66.0482C210.606 65.791 210.655 65.5283 210.682 65.2629C212.177 65.1466 215.859 62.6113 215.859 62.6113L218.735 62.1504V63.6495C218.768 63.6646 218.799 63.6838 218.828 63.7066C219.302 64.0697 219.898 65.6096 220.311 66.8232C220.646 67.8077 220.734 68.86 220.567 69.8868Z" fill="#F68080"/>
<path opacity="0.1" d="M218.273 65.1482C218.273 65.1482 215.282 62.7251 210.796 70.5716C206.31 78.4181 205.275 77.1474 205.275 77.1474C205.275 77.1474 206.197 80.6148 205.735 81.3022C205.735 81.3022 208.84 81.0717 209.991 81.3022C211.142 81.5327 218.273 72.5378 218.273 72.5378C218.273 72.5378 221.962 67.455 218.273 65.1482Z" fill="black"/>
<path opacity="0.1" d="M218.165 64.6853C218.165 64.6853 215.174 62.2622 210.688 70.1087C206.202 77.9553 205.167 76.6845 205.167 76.6845C205.167 76.6845 208.734 80.6068 209.883 80.8393C211.032 81.0718 218.165 72.0688 218.165 72.0688C218.165 72.0688 221.846 66.9942 218.165 64.6853Z" fill="black"/>
<path opacity="0.1" d="M205.635 80.5517C205.682 79.6971 205.361 78.1938 205.176 77.4147C205.875 77.3229 206.316 77.2617 206.316 77.2617L207.13 80.7291L205.635 80.5517Z" fill="black"/>
<path opacity="0.1" d="M217.474 57.418L211.953 60.6488C212.186 60.9895 212.4 61.3421 212.596 61.7053C212.914 61.7704 213.239 61.8032 213.564 61.8032C215.038 61.8032 215.725 60.2511 216.614 59.2067C216.551 58.3685 217.228 58.346 217.474 57.418Z" fill="black"/>
<path d="M213.45 61.5713C216.118 61.5713 218.281 59.4016 218.281 56.7251C218.281 54.0486 216.118 51.8789 213.45 51.8789C210.781 51.8789 208.618 54.0486 208.618 56.7251C208.618 59.4016 210.781 61.5713 213.45 61.5713Z" fill="#FDC2CC"/>
<path d="M205.983 62.248H167.073V91.6599H205.983V62.248Z" fill="url(#paint8_linear)"/>
<path d="M205.111 62.9062H167.945V91.0004H205.111V62.9062Z" fill="white"/>
<path opacity="0.2" d="M183.969 65.3379H171.581V72.3604H183.969V65.3379Z" fill="#BA1C51"/>
<path d="M201.475 65.3379H186.932V66.9594H201.475V65.3379Z" fill="#E6E8EC"/>
<path d="M197.166 68.041H186.932V69.6625H197.166V68.041Z" fill="#E6E8EC"/>
<path d="M201.475 70.7402H186.932V72.3617H201.475V70.7402Z" fill="#E6E8EC"/>
<path d="M201.475 73.4414H171.581V75.063H201.475V73.4414Z" fill="#E6E8EC"/>
<path d="M201.475 76.1445H171.581V77.7661H201.475V76.1445Z" fill="#E6E8EC"/>
<path d="M201.475 78.8438H171.581V80.4653H201.475V78.8438Z" fill="#E6E8EC"/>
<path d="M199.051 81.5469H171.581V83.1684H199.051V81.5469Z" fill="#E6E8EC"/>
<path d="M201.475 84.248H171.581V85.8695H201.475V84.248Z" fill="#E6E8EC"/>
<path d="M201.475 86.9492H171.581V88.5708H201.475V86.9492Z" fill="#E6E8EC"/>
<path opacity="0.1" d="M207.337 52.8049C207.825 52.3034 208.458 51.9699 209.147 51.8524C209.818 51.7076 210.554 51.6627 211.091 51.2405C211.701 50.753 211.969 49.827 212.718 49.621C213.043 49.5554 213.381 49.5822 213.692 49.6985C214.887 50.0603 215.949 50.7702 216.742 51.7382C216.929 52.0155 217.167 52.2544 217.443 52.4418C217.609 52.5121 217.77 52.5911 217.927 52.6784C218.1 52.8148 218.235 52.9922 218.322 53.1945C218.861 54.287 218.986 55.5392 218.672 56.717C218.485 57.4125 218.147 58.057 217.948 58.7566C217.748 59.4562 217.698 60.2333 218.064 60.8513C217.71 61.0329 217.262 60.8044 217.047 60.474C216.831 60.1436 216.758 59.7356 216.64 59.3542C216.41 58.604 215.979 57.9316 215.394 57.4104C215.032 57.0882 214.377 56.872 214.131 57.2881C214.033 57.4492 214.039 57.6532 213.956 57.8204C213.791 58.1468 213.315 58.212 213 58.0244C212.697 57.814 212.483 57.4964 212.402 57.1351C211.929 55.5278 211.121 54.5162 209.407 55.2035C208.769 55.4605 208.016 55.6339 207.402 55.1933C206.601 54.612 206.758 53.4617 207.337 52.8049Z" fill="black"/>
<path d="M207.337 52.6877C207.825 52.1862 208.458 51.8528 209.147 51.7352C209.818 51.5904 210.554 51.5455 211.091 51.1233C211.701 50.6358 211.969 49.7098 212.718 49.5038C213.043 49.4382 213.381 49.465 213.692 49.5813C214.887 49.9431 215.949 50.653 216.742 51.621C216.929 51.8984 217.167 52.1372 217.443 52.3247C217.609 52.3949 217.77 52.4739 217.927 52.5613C218.1 52.6976 218.235 52.875 218.322 53.0773C218.861 54.1698 218.986 55.422 218.672 56.5998C218.485 57.2953 218.147 57.9398 217.948 58.6394C217.748 59.339 217.698 60.1161 218.064 60.7342C217.71 60.9157 217.262 60.6872 217.047 60.3568C216.831 60.0264 216.758 59.6185 216.64 59.237C216.41 58.4868 215.979 57.8144 215.394 57.2933C215.032 56.971 214.377 56.7548 214.131 57.1709C214.033 57.332 214.039 57.536 213.956 57.7032C213.791 58.0296 213.315 58.0948 213 57.9072C212.697 57.6968 212.483 57.3793 212.402 57.0179C211.929 55.4107 211.121 54.399 209.407 55.0863C208.769 55.3433 208.016 55.5167 207.402 55.0762C206.601 54.4949 206.758 53.3465 207.337 52.6877Z" fill="#B96B6B"/>
<path opacity="0.05" d="M218.835 63.7046H216.496C216.496 63.7046 211.894 66.0115 211.78 65.8972C211.703 65.8197 210.991 65.9523 210.54 66.0482C210.611 65.791 210.66 65.5283 210.686 65.2629C212.181 65.1466 215.864 62.6114 215.864 62.6114L218.739 62.1504V63.6495C218.773 63.6638 218.805 63.6823 218.835 63.7046Z" fill="black"/>
<path opacity="0.3" d="M217.389 131.396C217.382 131.817 217.333 132.236 217.244 132.647C217.244 132.647 207.687 133.338 204.706 133.108C203.268 132.998 202.656 132.459 202.546 131.943C202.416 132.535 202.937 133.318 204.706 133.454C207.697 133.685 217.244 132.994 217.244 132.994C217.356 132.469 217.405 131.933 217.389 131.396Z" fill="white"/>
<g opacity="0.05">
<path opacity="0.05" d="M204.763 88.4478C203.211 89.6715 201.839 90.1835 200.938 90.3875C200.938 90.4731 200.954 90.5588 200.966 90.6404C200.966 90.6404 203.152 90.7566 205.914 88.564C206.341 88.1964 206.847 87.9313 207.392 87.789C206.79 87.5095 205.93 87.5279 204.763 88.4478Z" fill="black"/>
<path opacity="0.05" d="M220.376 66.828C219.969 65.6042 219.359 64.0745 218.893 63.7114C218.865 63.6885 218.833 63.6694 218.8 63.6543C218.8 63.6543 217.848 63.6869 217.879 63.7114C218.352 64.0745 218.812 65.4981 219.225 66.7117C219.557 67.6955 219.643 68.7463 219.475 69.7712C219.068 72.2474 218.186 77.3363 217.187 81.7623C215.806 87.8813 214.312 86.4923 213.621 87.9935C213.055 89.2173 213.338 90.8368 213.46 91.3813C213.952 91.5853 214.379 91.7138 214.656 91.6853C214.656 91.6853 214.08 89.6089 214.771 88.1077C215.463 86.6065 216.957 87.9914 218.338 81.8766C219.337 77.4526 220.215 72.3616 220.626 69.8854C220.794 68.8611 220.708 67.8111 220.376 66.828Z" fill="black"/>
</g>
<path d="M207.122 80.7244L205.635 80.551L194.248 79.2232C187.346 77.0306 191.716 73.6855 191.716 73.6855L196.318 78.0708C197.646 78.338 202.851 77.7159 205.184 77.4161C205.883 77.3243 206.324 77.2631 206.324 77.2631L207.122 80.7244Z" fill="#FDC2CC"/>
<path d="M218.273 64.9177C218.273 64.9177 215.282 62.4946 210.796 70.3411C206.31 78.1877 205.275 76.917 205.275 76.917C205.275 76.917 206.197 80.3844 205.735 81.0717C205.735 81.0717 208.84 80.8413 209.991 81.0717C211.142 81.3022 218.273 72.3012 218.273 72.3012C218.273 72.3012 221.962 67.2245 218.273 64.9177Z" fill="#F68080"/>
</g>
<defs>
<linearGradient id="paint0_linear" x1="128.309" y1="122.787" x2="128.309" y2="23.9901" gradientUnits="userSpaceOnUse">
<stop stop-color="#808080" stop-opacity="0.25"/>
<stop offset="0.54" stop-color="#808080" stop-opacity="0.12"/>
<stop offset="1" stop-color="#808080" stop-opacity="0.1"/>
</linearGradient>
<linearGradient id="paint1_linear" x1="24299.7" y1="67950.9" x2="24299.7" y2="28039.3" gradientUnits="userSpaceOnUse">
<stop stop-color="#808080" stop-opacity="0.25"/>
<stop offset="0.54" stop-color="#808080" stop-opacity="0.12"/>
<stop offset="1" stop-color="#808080" stop-opacity="0.1"/>
</linearGradient>
<linearGradient id="paint2_linear" x1="7468.93" y1="55658.2" x2="7468.93" y2="31286.8" gradientUnits="userSpaceOnUse">
<stop stop-color="#808080" stop-opacity="0.25"/>
<stop offset="0.54" stop-color="#808080" stop-opacity="0.12"/>
<stop offset="1" stop-color="#808080" stop-opacity="0.1"/>
</linearGradient>
<linearGradient id="paint3_linear" x1="25995.8" y1="31566.6" x2="25995.8" y2="23961.1" gradientUnits="userSpaceOnUse">
<stop stop-color="#808080" stop-opacity="0.25"/>
<stop offset="0.54" stop-color="#808080" stop-opacity="0.12"/>
<stop offset="1" stop-color="#808080" stop-opacity="0.1"/>
</linearGradient>
<linearGradient id="paint4_linear" x1="7150.03" y1="8866.49" x2="8830.61" y2="8866.49" gradientUnits="userSpaceOnUse">
<stop stop-color="#808080" stop-opacity="0.25"/>
<stop offset="0.54" stop-color="#808080" stop-opacity="0.12"/>
<stop offset="1" stop-color="#808080" stop-opacity="0.1"/>
</linearGradient>
<linearGradient id="paint5_linear" x1="-22817.4" y1="73970.2" x2="-22817.4" y2="36433" gradientUnits="userSpaceOnUse">
<stop stop-color="#808080" stop-opacity="0.25"/>
<stop offset="0.54" stop-color="#808080" stop-opacity="0.12"/>
<stop offset="1" stop-color="#808080" stop-opacity="0.1"/>
</linearGradient>
<linearGradient id="paint6_linear" x1="4370.1" y1="8406.41" x2="4370.1" y2="7135.39" gradientUnits="userSpaceOnUse">
<stop stop-color="#808080" stop-opacity="0.25"/>
<stop offset="0.54" stop-color="#808080" stop-opacity="0.12"/>
<stop offset="1" stop-color="#808080" stop-opacity="0.1"/>
</linearGradient>
<linearGradient id="paint7_linear" x1="35329.8" y1="60596.2" x2="35329.8" y2="24756.3" gradientUnits="userSpaceOnUse">
<stop stop-color="#808080" stop-opacity="0.25"/>
<stop offset="0.54" stop-color="#808080" stop-opacity="0.12"/>
<stop offset="1" stop-color="#808080" stop-opacity="0.1"/>
</linearGradient>
<linearGradient id="paint8_linear" x1="35859.3" y1="13139.6" x2="35859.3" y2="8898.44" gradientUnits="userSpaceOnUse">
<stop stop-color="#808080" stop-opacity="0.25"/>
<stop offset="0.54" stop-color="#808080" stop-opacity="0.12"/>
<stop offset="1" stop-color="#808080" stop-opacity="0.1"/>
</linearGradient>
<clipPath id="clip0">
<rect width="221" height="161" fill="white" transform="translate(0 0.970703)"/>
</clipPath>
</defs>
</svg>
