<svg width="225" height="166" viewBox="0 0 225 166" fill="none" xmlns="http://www.w3.org/2000/svg">
<g clip-path="url(#clip0)">
<path opacity="0.1" d="M130.646 25.711C116.286 25.2129 102.608 20.5699 89.5488 15.4942C76.4894 10.4186 63.5509 4.7933 49.536 2.1027C40.5205 0.372454 30.2106 0.132363 22.9474 4.96593C15.9559 9.62091 13.698 17.665 12.4848 25.1157C11.571 30.7271 11.0338 36.6242 13.5355 41.8844C15.2739 45.5294 18.3604 48.595 20.4953 52.0872C27.919 64.2426 22.6758 79.2294 14.6237 91.0951C10.8574 96.6628 6.47054 101.973 3.55854 107.899C0.646541 113.826 -0.701424 120.614 1.84583 126.658C4.37327 132.651 10.3915 137.151 16.9113 140.316C30.1551 146.745 45.7617 148.586 60.9799 149.628C94.6691 151.925 128.537 150.933 162.313 149.941C174.813 149.57 187.367 149.195 199.666 147.26C206.493 146.187 213.542 144.483 218.497 140.365C224.791 135.139 226.351 126.289 222.133 119.729C215.06 108.739 195.501 106.008 190.557 94.2123C187.835 87.7199 190.63 80.4874 194.585 74.4653C203.069 61.546 217.29 50.2141 218.04 35.4476C218.555 25.3062 211.718 15.149 201.148 10.3511C190.067 5.32111 174.704 5.95407 166.529 14.2799C158.117 22.8537 143.325 26.1515 130.646 25.711Z" fill="#BA1C51"/>
<path d="M132.161 150.956L93.5059 150.46L93.6189 149.468L95.4882 133.098H129.435L131.933 149.468L132.123 150.708L132.161 150.956Z" fill="#D0D2D5"/>
<path opacity="0.1" d="M132.123 150.709H112.833L93.5059 150.461L93.6189 149.469H131.933L132.123 150.709Z" fill="black"/>
<path d="M138.355 149.717H87.063V150.957H138.355V149.717Z" fill="#D0D2D5"/>
<path d="M187.292 34.7755C187.294 34.3515 187.213 33.9313 187.053 33.5388C186.893 33.1463 186.657 32.7893 186.359 32.488C186.061 32.1868 185.706 31.9472 185.316 31.7831C184.925 31.6189 184.506 31.5333 184.083 31.5312H40.8398C40.4161 31.5331 39.9969 31.6184 39.6061 31.7825C39.2154 31.9465 38.8608 32.186 38.5626 32.4873C38.2643 32.7886 38.0284 33.1457 37.8681 33.5384C37.7078 33.931 37.6264 34.3513 37.6285 34.7755V121.684H187.292V34.7755Z" fill="#444053"/>
<path d="M37.6284 120.822V131.001C37.6284 131.854 37.9668 132.671 38.569 133.274C39.1712 133.877 39.988 134.216 40.8397 134.216H184.083C184.934 134.215 185.75 133.876 186.352 133.274C186.954 132.671 187.292 131.854 187.292 131.001V120.822H37.6284Z" fill="#D0D2D5"/>
<path opacity="0.1" d="M181.841 36.9883H43.8232V115.117H181.841V36.9883Z" fill="#BA1C51"/>
<path d="M113.204 130.351C113.711 130.352 114.211 130.237 114.667 130.016C115.123 129.794 115.523 129.472 115.836 129.074C115.931 128.952 116.018 128.824 116.096 128.691L114.26 128.389L116.243 128.405C116.434 127.99 116.538 127.541 116.549 127.084C116.56 126.627 116.477 126.173 116.306 125.75L113.644 127.139L116.1 125.333C115.869 124.937 115.559 124.593 115.19 124.321C114.821 124.05 114.4 123.857 113.953 123.755C113.506 123.654 113.043 123.645 112.593 123.729C112.143 123.814 111.715 123.991 111.335 124.248C110.956 124.505 110.633 124.838 110.388 125.225C110.142 125.612 109.979 126.046 109.907 126.499C109.836 126.952 109.859 127.415 109.974 127.859C110.088 128.303 110.293 128.718 110.575 129.08C110.889 129.477 111.288 129.798 111.743 130.018C112.199 130.238 112.698 130.352 113.204 130.351Z" fill="#BA1C51"/>
<path opacity="0.1" d="M116.55 134.215L131.97 149.716L129.605 134.215H116.55Z" fill="black"/>
<path d="M137.953 51.084H48.3924C48.1077 51.084 47.877 51.315 47.877 51.5999V104.936C47.877 105.221 48.1077 105.452 48.3924 105.452H137.953C138.237 105.452 138.468 105.221 138.468 104.936V51.5999C138.468 51.315 138.237 51.084 137.953 51.084Z" fill="white"/>
<path d="M181.88 36.9961H43.9121V41.5598H181.88V36.9961Z" fill="white"/>
<path d="M48.3173 37.7891H44.6619C44.5765 37.7891 44.5073 37.8584 44.5073 37.9438V40.4122C44.5073 40.4977 44.5765 40.567 44.6619 40.567H48.3173C48.4027 40.567 48.4719 40.4977 48.4719 40.4122V37.9438C48.4719 37.8584 48.4027 37.7891 48.3173 37.7891Z" fill="#BA1C51"/>
<path opacity="0.3" d="M133.199 37.7891H91.801C91.7375 37.7891 91.686 37.8406 91.686 37.9041V40.4519C91.686 40.5154 91.7375 40.567 91.801 40.567H133.199C133.263 40.567 133.314 40.5154 133.314 40.4519V37.9041C133.314 37.8406 133.263 37.7891 133.199 37.7891Z" fill="#BA1C51"/>
<path d="M132.079 39.4651H131.978L131.94 39.4333C132.067 39.2822 132.138 39.0912 132.138 38.8936C132.137 38.7313 132.088 38.573 131.997 38.4387C131.906 38.3043 131.777 38.2 131.627 38.1388C131.477 38.0776 131.312 38.0623 131.153 38.0948C130.994 38.1273 130.849 38.2062 130.735 38.3215C130.621 38.4368 130.543 38.5834 130.512 38.7427C130.481 38.902 130.498 39.067 130.561 39.2167C130.623 39.3664 130.729 39.4942 130.864 39.584C130.999 39.6737 131.158 39.7214 131.32 39.7211C131.517 39.7199 131.708 39.6497 131.859 39.5226L131.897 39.5544V39.6576L132.531 40.2925L132.729 40.0941L132.079 39.4651ZM131.318 39.4651C131.204 39.4655 131.093 39.4321 130.999 39.3693C130.904 39.3064 130.83 39.2169 130.787 39.112C130.743 39.0072 130.732 38.8917 130.754 38.7803C130.776 38.6688 130.83 38.5665 130.911 38.4862C130.991 38.4059 131.093 38.3512 131.204 38.3291C131.316 38.3071 131.431 38.3186 131.536 38.3622C131.641 38.4059 131.73 38.4797 131.793 38.5743C131.856 38.6689 131.889 38.7801 131.889 38.8936C131.889 38.9688 131.875 39.0434 131.846 39.1129C131.818 39.1825 131.776 39.2457 131.723 39.2989C131.669 39.3521 131.606 39.3941 131.537 39.4227C131.467 39.4512 131.393 39.4656 131.318 39.4651Z" fill="#444053"/>
<path d="M179.898 40.567C180.665 40.567 181.286 39.9451 181.286 39.178C181.286 38.4109 180.665 37.7891 179.898 37.7891C179.132 37.7891 178.511 38.4109 178.511 39.178C178.511 39.9451 179.132 40.567 179.898 40.567Z" fill="#BA1C51"/>
<path d="M157.413 46.5195H145.491C145.225 46.5195 145.01 46.7354 145.01 47.0017V54.768C145.01 55.0342 145.225 55.2501 145.491 55.2501H157.413C157.679 55.2501 157.895 55.0342 157.895 54.768V47.0017C157.895 46.7354 157.679 46.5195 157.413 46.5195Z" fill="white"/>
<path d="M177.795 46.5195H161.386C161.319 46.5195 161.265 46.5737 161.265 46.6406V47.7875C161.265 47.8543 161.319 47.9085 161.386 47.9085H177.795C177.862 47.9085 177.916 47.8543 177.916 47.7875V46.6406C177.916 46.5737 177.862 46.5195 177.795 46.5195Z" fill="white"/>
<path d="M177.795 49.498H161.386C161.319 49.498 161.265 49.5522 161.265 49.6191V50.766C161.265 50.8328 161.319 50.887 161.386 50.887H177.795C177.862 50.887 177.916 50.8328 177.916 50.766V49.6191C177.916 49.5522 177.862 49.498 177.795 49.498Z" fill="white"/>
<path d="M177.795 52.4727H161.386C161.319 52.4727 161.265 52.5268 161.265 52.5937V53.7406C161.265 53.8074 161.319 53.8616 161.386 53.8616H177.795C177.862 53.8616 177.916 53.8074 177.916 53.7406V52.5937C177.916 52.5268 177.862 52.4727 177.795 52.4727Z" fill="white"/>
<path d="M157.413 60.2129H145.491C145.225 60.2129 145.01 60.4288 145.01 60.6951V68.4613C145.01 68.7276 145.225 68.9435 145.491 68.9435H157.413C157.679 68.9435 157.895 68.7276 157.895 68.4613V60.6951C157.895 60.4288 157.679 60.2129 157.413 60.2129Z" fill="white"/>
<path d="M177.795 60.2129H161.386C161.319 60.2129 161.265 60.2671 161.265 60.3339V61.4808C161.265 61.5477 161.319 61.6018 161.386 61.6018H177.795C177.862 61.6018 177.916 61.5477 177.916 61.4808V60.3339C177.916 60.2671 177.862 60.2129 177.795 60.2129Z" fill="white"/>
<path d="M177.795 63.1875H161.386C161.319 63.1875 161.265 63.2417 161.265 63.3085V64.4554C161.265 64.5223 161.319 64.5765 161.386 64.5765H177.795C177.862 64.5765 177.916 64.5223 177.916 64.4554V63.3085C177.916 63.2417 177.862 63.1875 177.795 63.1875Z" fill="white"/>
<path d="M177.785 66.1641H161.395C161.323 66.1641 161.265 66.2227 161.265 66.295V67.4221C161.265 67.4944 161.323 67.553 161.395 67.553H177.785C177.857 67.553 177.916 67.4944 177.916 67.4221V66.295C177.916 66.2227 177.857 66.1641 177.785 66.1641Z" fill="white"/>
<path d="M157.413 73.9023H145.491C145.225 73.9023 145.01 74.1182 145.01 74.3845V82.1508C145.01 82.417 145.225 82.6329 145.491 82.6329H157.413C157.679 82.6329 157.895 82.417 157.895 82.1508V74.3845C157.895 74.1182 157.679 73.9023 157.413 73.9023Z" fill="white"/>
<path d="M177.785 73.9023H161.395C161.323 73.9023 161.265 73.961 161.265 74.0333V75.1603C161.265 75.2327 161.323 75.2913 161.395 75.2913H177.785C177.857 75.2913 177.916 75.2327 177.916 75.1603V74.0333C177.916 73.961 177.857 73.9023 177.785 73.9023Z" fill="white"/>
<path d="M177.785 76.8789H161.395C161.323 76.8789 161.265 76.9375 161.265 77.0099V78.1369C161.265 78.2092 161.323 78.2679 161.395 78.2679H177.785C177.857 78.2679 177.916 78.2092 177.916 78.1369V77.0099C177.916 76.9375 177.857 76.8789 177.785 76.8789Z" fill="white"/>
<path d="M177.785 79.8555H161.395C161.323 79.8555 161.265 79.9141 161.265 79.9864V81.1135C161.265 81.1858 161.323 81.2444 161.395 81.2444H177.785C177.857 81.2444 177.916 81.1858 177.916 81.1135V79.9864C177.916 79.9141 177.857 79.8555 177.785 79.8555Z" fill="white"/>
<path d="M157.413 87.5938H145.491C145.225 87.5938 145.01 87.8096 145.01 88.0759V95.8422C145.01 96.1085 145.225 96.3243 145.491 96.3243H157.413C157.679 96.3243 157.895 96.1085 157.895 95.8422V88.0759C157.895 87.8096 157.679 87.5938 157.413 87.5938Z" fill="white"/>
<path d="M177.785 87.5938H161.395C161.323 87.5938 161.265 87.6524 161.265 87.7247V88.8517C161.265 88.9241 161.323 88.9827 161.395 88.9827H177.785C177.857 88.9827 177.916 88.9241 177.916 88.8517V87.7247C177.916 87.6524 177.857 87.5938 177.785 87.5938Z" fill="white"/>
<path d="M177.785 90.5703H161.395C161.323 90.5703 161.265 90.6289 161.265 90.7013V91.8283C161.265 91.9006 161.323 91.9592 161.395 91.9592H177.785C177.857 91.9592 177.916 91.9006 177.916 91.8283V90.7013C177.916 90.6289 177.857 90.5703 177.785 90.5703Z" fill="white"/>
<path d="M177.785 93.5469H161.395C161.323 93.5469 161.265 93.6055 161.265 93.6778V94.8048C161.265 94.8772 161.323 94.9358 161.395 94.9358H177.785C177.857 94.9358 177.916 94.8772 177.916 94.8048V93.6778C177.916 93.6055 177.857 93.5469 177.785 93.5469Z" fill="white"/>
<path d="M157.413 101.285H145.491C145.225 101.285 145.01 101.501 145.01 101.767V109.534C145.01 109.8 145.225 110.016 145.491 110.016H157.413C157.679 110.016 157.895 109.8 157.895 109.534V101.767C157.895 101.501 157.679 101.285 157.413 101.285Z" fill="white"/>
<path d="M177.785 101.285H161.395C161.323 101.285 161.265 101.344 161.265 101.416V102.543C161.265 102.615 161.323 102.674 161.395 102.674H177.785C177.857 102.674 177.916 102.615 177.916 102.543V101.416C177.916 101.344 177.857 101.285 177.785 101.285Z" fill="white"/>
<path d="M177.785 104.262H161.395C161.323 104.262 161.265 104.32 161.265 104.393V105.52C161.265 105.592 161.323 105.651 161.395 105.651H177.785C177.857 105.651 177.916 105.592 177.916 105.52V104.393C177.916 104.32 177.857 104.262 177.785 104.262Z" fill="white"/>
<path d="M177.785 107.238H161.395C161.323 107.238 161.265 107.297 161.265 107.369V108.496C161.265 108.569 161.323 108.627 161.395 108.627H177.785C177.857 108.627 177.916 108.569 177.916 108.496V107.369C177.916 107.297 177.857 107.238 177.785 107.238Z" fill="white"/>
<path opacity="0.1" d="M81.3283 65.4922H60.9443V66.5498H81.3283V65.4922Z" fill="#BA1C51"/>
<path opacity="0.1" d="M64.7183 59.9004H62.7559V65.4919H64.7183V59.9004Z" fill="#BA1C51"/>
<path opacity="0.1" d="M67.587 59.9004H65.6245V65.4919H67.587V59.9004Z" fill="#BA1C51"/>
<path opacity="0.1" d="M70.4552 59.9004H68.4927V65.4919H70.4552V59.9004Z" fill="#BA1C51"/>
<path opacity="0.1" d="M73.3238 59.9004H71.3613V65.4919H73.3238V59.9004Z" fill="#BA1C51"/>
<path opacity="0.1" d="M76.192 59.9004H74.2295V65.4919H76.192V59.9004Z" fill="#BA1C51"/>
<path opacity="0.1" d="M79.0626 59.9004H77.1001V65.4919H79.0626V59.9004Z" fill="#BA1C51"/>
<path opacity="0.1" d="M64.7183 60.957H62.7559V61.5622H64.7183V60.957Z" fill="#BA1C51"/>
<path opacity="0.1" d="M67.587 60.957H65.6245V61.5622H67.587V60.957Z" fill="#BA1C51"/>
<path opacity="0.1" d="M70.4552 60.957H68.4927V61.5622H70.4552V60.957Z" fill="#BA1C51"/>
<path opacity="0.1" d="M73.3238 60.957H71.3613V61.5622H73.3238V60.957Z" fill="#BA1C51"/>
<path opacity="0.1" d="M76.192 60.957H74.2295V61.5622H76.192V60.957Z" fill="#BA1C51"/>
<path opacity="0.1" d="M79.0626 60.957H77.1001V61.5622H79.0626V60.957Z" fill="#BA1C51"/>
<path opacity="0.1" d="M64.7183 63.6777H62.7559V64.2829H64.7183V63.6777Z" fill="#BA1C51"/>
<path opacity="0.1" d="M67.587 63.6777H65.6245V64.2829H67.587V63.6777Z" fill="#BA1C51"/>
<path opacity="0.1" d="M70.4552 63.6777H68.4927V64.2829H70.4552V63.6777Z" fill="#BA1C51"/>
<path opacity="0.1" d="M73.3238 63.6777H71.3613V64.2829H73.3238V63.6777Z" fill="#BA1C51"/>
<path opacity="0.1" d="M76.192 63.6777H74.2295V64.2829H76.192V63.6777Z" fill="#BA1C51"/>
<path opacity="0.1" d="M79.0626 63.6777H77.1001V64.2829H79.0626V63.6777Z" fill="#BA1C51"/>
<path opacity="0.1" d="M126.019 68.2129H105.635V69.2705H126.019V68.2129Z" fill="#BA1C51"/>
<path opacity="0.1" d="M109.409 62.6211H107.447V68.2126H109.409V62.6211Z" fill="#BA1C51"/>
<path opacity="0.1" d="M112.278 62.6211H110.315V68.2126H112.278V62.6211Z" fill="#BA1C51"/>
<path opacity="0.1" d="M115.146 62.6211H113.184V68.2126H115.146V62.6211Z" fill="#BA1C51"/>
<path opacity="0.1" d="M118.017 62.6211H116.054V68.2126H118.017V62.6211Z" fill="#BA1C51"/>
<path opacity="0.1" d="M120.885 62.6211H118.922V68.2126H120.885V62.6211Z" fill="#BA1C51"/>
<path opacity="0.1" d="M123.753 62.6211H121.791V68.2126H123.753V62.6211Z" fill="#BA1C51"/>
<path opacity="0.1" d="M109.409 63.6777H107.447V64.2829H109.409V63.6777Z" fill="#BA1C51"/>
<path opacity="0.1" d="M112.278 63.6777H110.315V64.2829H112.278V63.6777Z" fill="#BA1C51"/>
<path opacity="0.1" d="M115.146 63.6777H113.184V64.2829H115.146V63.6777Z" fill="#BA1C51"/>
<path opacity="0.1" d="M118.017 63.6777H116.054V64.2829H118.017V63.6777Z" fill="#BA1C51"/>
<path opacity="0.1" d="M120.885 63.6777H118.922V64.2829H120.885V63.6777Z" fill="#BA1C51"/>
<path opacity="0.1" d="M123.753 63.6777H121.791V64.2829H123.753V63.6777Z" fill="#BA1C51"/>
<path opacity="0.1" d="M109.409 66.3984H107.447V67.0036H109.409V66.3984Z" fill="#BA1C51"/>
<path opacity="0.1" d="M112.278 66.3984H110.315V67.0036H112.278V66.3984Z" fill="#BA1C51"/>
<path opacity="0.1" d="M115.146 66.3984H113.184V67.0036H115.146V66.3984Z" fill="#BA1C51"/>
<path opacity="0.1" d="M118.017 66.3984H116.054V67.0036H118.017V66.3984Z" fill="#BA1C51"/>
<path opacity="0.1" d="M120.885 66.3984H118.922V67.0036H120.885V66.3984Z" fill="#BA1C51"/>
<path opacity="0.1" d="M123.753 66.3984H121.791V67.0036H123.753V66.3984Z" fill="#BA1C51"/>
<path opacity="0.1" d="M126.019 75.918H105.635V76.9756H126.019V75.918Z" fill="#BA1C51"/>
<path opacity="0.1" d="M109.409 70.3281H107.447V75.9197H109.409V70.3281Z" fill="#BA1C51"/>
<path opacity="0.1" d="M112.278 70.3281H110.315V75.9197H112.278V70.3281Z" fill="#BA1C51"/>
<path opacity="0.1" d="M115.146 70.3281H113.184V75.9197H115.146V70.3281Z" fill="#BA1C51"/>
<path opacity="0.1" d="M118.017 70.3281H116.054V75.9197H118.017V70.3281Z" fill="#BA1C51"/>
<path opacity="0.1" d="M120.885 70.3281H118.922V75.9197H120.885V70.3281Z" fill="#BA1C51"/>
<path opacity="0.1" d="M123.753 70.3281H121.791V75.9197H123.753V70.3281Z" fill="#BA1C51"/>
<path opacity="0.1" d="M109.409 71.3848H107.447V71.99H109.409V71.3848Z" fill="#BA1C51"/>
<path opacity="0.1" d="M112.278 71.3848H110.315V71.99H112.278V71.3848Z" fill="#BA1C51"/>
<path opacity="0.1" d="M115.146 71.3848H113.184V71.99H115.146V71.3848Z" fill="#BA1C51"/>
<path opacity="0.1" d="M118.017 71.3848H116.054V71.99H118.017V71.3848Z" fill="#BA1C51"/>
<path opacity="0.1" d="M120.885 71.3848H118.922V71.99H120.885V71.3848Z" fill="#BA1C51"/>
<path opacity="0.1" d="M123.753 71.3848H121.791V71.99H123.753V71.3848Z" fill="#BA1C51"/>
<path opacity="0.1" d="M109.409 74.1055H107.447V74.7106H109.409V74.1055Z" fill="#BA1C51"/>
<path opacity="0.1" d="M112.278 74.1055H110.315V74.7106H112.278V74.1055Z" fill="#BA1C51"/>
<path opacity="0.1" d="M115.146 74.1055H113.184V74.7106H115.146V74.1055Z" fill="#BA1C51"/>
<path opacity="0.1" d="M118.017 74.1055H116.054V74.7106H118.017V74.1055Z" fill="#BA1C51"/>
<path opacity="0.1" d="M120.885 74.1055H118.922V74.7106H120.885V74.1055Z" fill="#BA1C51"/>
<path opacity="0.1" d="M123.753 74.1055H121.791V74.7106H123.753V74.1055Z" fill="#BA1C51"/>
<path opacity="0.1" d="M73.4491 77.4509C73.297 77.2559 73.158 77.051 73.0328 76.8378L75.9686 76.3556L72.7969 76.3794C72.4926 75.7164 72.3266 74.9983 72.3089 74.2689C72.2912 73.5395 72.4221 72.8142 72.6938 72.1371L76.9458 74.3436L73.0189 71.4546C73.3842 70.813 73.8781 70.2539 74.4696 69.8125C75.0611 69.371 75.7373 69.0568 76.4559 68.8894C77.1745 68.722 77.9199 68.7052 78.6453 68.8399C79.3706 68.9746 80.0604 69.258 80.6712 69.6723C81.2819 70.0865 81.8006 70.6227 82.1944 71.2471C82.5883 71.8715 82.849 72.5707 82.9601 73.3008C83.0712 74.0309 83.0302 74.7761 82.8399 75.4896C82.6496 76.2031 82.3139 76.8695 81.854 77.4469C82.093 77.7487 82.2978 78.0761 82.4646 78.4231L78.6546 80.4074L82.7163 79.0442C83.0005 79.8872 83.0704 80.7877 82.9199 81.6644C82.7693 82.5412 82.403 83.3667 81.854 84.0663C82.4764 84.8562 82.864 85.8055 82.9725 86.8056C83.081 87.8057 82.9059 88.8162 82.4674 89.7214C82.0289 90.6266 81.3447 91.3899 80.493 91.924C79.6413 92.4581 78.6566 92.7413 77.6515 92.7413C76.6465 92.7413 75.6618 92.4581 74.8101 91.924C73.9584 91.3899 73.2741 90.6266 72.8356 89.7214C72.3971 88.8162 72.2221 87.8057 72.3306 86.8056C72.4391 85.8055 72.8267 84.8562 73.4491 84.0663C72.7078 83.1223 72.3048 81.9563 72.3048 80.7556C72.3048 79.5549 72.7078 78.389 73.4491 77.4449V77.4509Z" fill="#BA1C51"/>
<path opacity="0.1" d="M82.9998 80.7606C82.9999 81.9601 82.5963 83.1247 81.854 84.0663C82.4764 84.8562 82.864 85.8056 82.9725 86.8057C83.081 87.8058 82.9059 88.8163 82.4674 89.7215C82.0289 90.6266 81.3447 91.39 80.493 91.924C79.6413 92.4581 78.6566 92.7414 77.6515 92.7414C76.6465 92.7414 75.6618 92.4581 74.8101 91.924C73.9584 91.39 73.2741 90.6266 72.8356 89.7215C72.3971 88.8163 72.2221 87.8058 72.3306 86.8057C72.4391 85.8056 72.8267 84.8562 73.4491 84.0663C72.7295 83.1595 82.9998 80.1594 82.9998 80.7606Z" fill="#BA1C51"/>
<path opacity="0.2" d="M78.5075 94.1606C78.5168 94.1747 78.5254 94.1893 78.5333 94.2043H76.7175C76.7274 94.1904 76.7334 94.1745 76.7433 94.1606C76.587 93.8885 76.5062 93.5796 76.5094 93.2657C76.5085 93.0507 76.5454 92.8371 76.6184 92.6348C76.7195 92.6506 76.8444 92.6685 76.9891 92.6844C77.4103 92.7265 77.8346 92.7265 78.2558 92.6844C78.3774 92.6725 78.5022 92.6566 78.6304 92.6368C78.6295 92.64 78.6295 92.6434 78.6304 92.6467C78.7026 92.8457 78.7389 93.056 78.7375 93.2677C78.7415 93.5805 78.6621 93.8887 78.5075 94.1606Z" fill="#3F3D56"/>
<path opacity="0.1" d="M71.9819 94.2061H61.8722C61.8504 94.1485 61.8306 94.087 61.8127 94.0275C61.4565 92.8809 61.4978 91.6475 61.9297 90.5273C60.9427 89.8443 60.2137 88.8492 59.8596 87.7017C59.5055 86.5541 59.5469 85.3208 59.9771 84.1996C59.774 84.0596 59.5812 83.9051 59.4003 83.7373L62.0605 82.4099L59.0355 83.3702C58.5491 82.827 58.1787 82.1901 57.9469 81.4985C57.7151 80.8069 57.6268 80.0752 57.6876 79.3482L62.4074 80.2014L57.8045 78.6002C57.9633 77.8782 58.2696 77.1968 58.7043 76.5991C59.139 76.0014 59.6925 75.5002 60.3301 75.127C60.9677 74.7539 61.6755 74.5169 62.4091 74.4309C63.1427 74.3449 63.8861 74.4118 64.5926 74.6275C65.299 74.8431 65.9533 75.2027 66.5141 75.6838C67.075 76.1648 67.5303 76.7569 67.8514 77.4226C68.1725 78.0884 68.3525 78.8135 68.38 79.5523C68.4076 80.291 68.282 81.0275 68.0114 81.7154C68.3306 81.9378 68.625 82.1939 68.8895 82.4793L65.8328 85.4973L69.3117 82.9932C69.8331 83.7153 70.1663 84.5562 70.2812 85.4397C70.3962 86.3231 70.2891 87.2214 69.9699 88.053C70.9299 88.7185 71.6462 89.68 72.0095 90.7909C72.3727 91.9018 72.3631 93.1012 71.9819 94.2061Z" fill="#BA1C51"/>
<path opacity="0.1" d="M71.9815 94.2065H61.8718C61.85 94.149 61.8301 94.0875 61.8123 94.028C61.4561 92.8814 61.4973 91.648 61.9293 90.5278C60.9778 89.869 69.9041 83.966 70.0805 84.5414C70.4366 85.6886 70.3954 86.9227 69.9635 88.0435C70.9267 88.7087 71.6456 89.6716 72.01 90.7847C72.3745 91.8977 72.3645 93.0997 71.9815 94.2065Z" fill="#BA1C51"/>
<path opacity="0.1" d="M117.723 86.9542C117.109 87.9857 116.166 88.7798 115.045 89.2083C115.093 89.59 115.101 89.9758 115.067 90.3591L110.783 90.1012L114.968 91.0099C114.845 91.5809 114.629 92.1278 114.33 92.6291C113.965 93.243 113.479 93.7763 112.902 94.1966H107.07V94.3494H101.124C101.135 94.2978 101.147 94.2482 101.161 94.1966C101.378 93.3757 101.787 92.6181 102.354 91.9865C102.921 91.3548 103.63 90.8671 104.422 90.5635C104.27 89.3724 104.522 88.1646 105.138 87.1341C105.754 86.1035 106.697 85.3099 107.818 84.8807C107.786 84.6353 107.772 84.388 107.774 84.1406L110.539 85.2339L107.804 83.6247C107.885 82.8995 108.112 82.1984 108.473 81.5644C108.834 80.9305 109.321 80.377 109.903 79.938L112.423 84.0215L110.534 79.5253C111.563 78.9553 112.751 78.7405 113.914 78.914C115.077 79.0875 116.151 79.6397 116.969 80.4852C117.787 81.3307 118.305 82.4225 118.441 83.5918C118.577 84.7611 118.325 85.9428 117.723 86.9542Z" fill="#BA1C51"/>
<path opacity="0.1" d="M114.33 92.638C113.965 93.2519 113.479 93.7852 112.902 94.2055H107.07V94.3583H101.124C101.135 94.3067 101.147 94.2571 101.161 94.2055C101.378 93.3846 101.787 92.627 102.354 91.9954C102.921 91.3637 103.63 90.876 104.422 90.5724C104.373 90.1756 105.524 90.2351 107.061 90.493C110.072 90.999 114.534 92.2967 114.33 92.638Z" fill="#BA1C51"/>
<path d="M89.0512 78.3504C89.0512 78.3504 89.7847 82.3189 88.1473 83.6146C86.5099 84.9103 89.5349 92.6765 94.5263 91.7697C99.5178 90.8629 101.552 84.3487 101.552 84.3487C101.552 84.3487 96.5523 83.313 98.4057 78.0488L89.0512 78.3504Z" fill="#EE8E9E"/>
<path opacity="0.1" d="M89.0512 78.3504C89.0512 78.3504 89.7847 82.3189 88.1473 83.6146C86.5099 84.9103 89.5349 92.6765 94.5263 91.7697C99.5178 90.8629 101.552 84.3487 101.552 84.3487C101.552 84.3487 96.5523 83.313 98.4057 78.0488L89.0512 78.3504Z" fill="black"/>
<path d="M93.47 81.2616C98.0407 81.2616 101.746 77.5527 101.746 72.9775C101.746 68.4023 98.0407 64.6934 93.47 64.6934C88.8992 64.6934 85.1938 68.4023 85.1938 72.9775C85.1938 77.5527 88.8992 81.2616 93.47 81.2616Z" fill="#EE8E9E"/>
<path d="M107.071 88.7258V94.357H79.7427V88.9817C79.7426 88.3001 79.9432 87.6336 80.3194 87.0655C80.6956 86.4973 81.2306 86.0527 81.8578 85.7871L82.6408 85.4538C84.6231 84.6085 87.0316 83.5589 87.8186 83.1223C87.9048 83.0792 87.9859 83.0267 88.0604 82.9656C88.4906 82.535 88.4053 83.0945 88.4053 83.0945C88.4053 83.0945 88.3934 83.2017 88.3855 83.3862C88.3379 84.6541 88.5203 89.6365 94.3542 89.2218C100.045 88.825 100.301 84.9716 100.244 83.8386C100.24 83.7337 100.232 83.6291 100.218 83.5251C100.611 83.6189 100.997 83.7449 101.37 83.9021C102.559 84.3426 104.315 85.049 104.785 85.3824C104.932 85.4855 105.11 85.5927 105.304 85.7018C105.525 85.8248 105.731 85.9719 105.919 86.1403C106.281 86.4662 106.571 86.8649 106.77 87.3103C106.968 87.7558 107.071 88.238 107.071 88.7258Z" fill="#BA1C51"/>
<path opacity="0.1" d="M101.369 83.9021C100.888 86.1364 99.3752 90.3211 93.9238 90.4302C88.1157 90.5453 87.7787 84.7633 87.8164 83.1223C87.9038 83.0804 87.9857 83.0277 88.0602 82.9656C88.4923 82.535 88.4051 83.0945 88.4051 83.0945C88.4051 83.0945 87.6736 89.6961 94.352 89.2218C101.03 88.7476 100.21 83.5271 100.21 83.5271C100.21 83.4954 100.707 83.668 101.369 83.9021Z" fill="black"/>
<path d="M83.6732 73.3931C83.948 73.3243 84.2371 73.3396 84.5032 73.4368C84.7692 73.5341 85.0001 73.7089 85.1659 73.9387C85.4672 74.3614 85.5128 74.8713 85.5505 75.3594C85.9093 75.4348 86.1115 75.0281 86.1452 74.7205C86.278 73.4685 86.2879 72.1926 86.7081 70.9823C87.1284 69.7719 88.0462 68.6012 89.4556 68.1389C89.9372 67.9718 90.4518 67.9228 90.9562 67.996C91.2555 68.0456 91.537 68.1508 91.8344 68.1944C92.8652 68.3651 93.9852 67.8769 94.9505 68.2162C95.5571 68.4305 95.9417 68.9246 96.2252 69.4187C96.3485 69.6851 96.516 69.9287 96.7207 70.139C97.1311 70.508 97.7733 70.6033 98.3621 70.7184C98.9508 70.8334 99.5931 71.0338 99.8448 71.4882C100.071 71.899 99.9043 72.3732 99.829 72.8177C99.7125 73.5218 99.8302 74.2447 100.164 74.8753C100.273 75.0737 100.495 75.3138 100.759 75.2483C100.877 75.2084 100.977 75.1274 101.04 75.0201C101.716 74.0717 101.698 72.8375 102.547 71.9823C102.83 71.6966 103.197 71.4743 103.472 71.1886C103.681 70.9769 103.834 70.7167 103.918 70.4315C104.001 70.1462 104.013 69.8446 103.952 69.5536C103.8 68.8988 103.276 68.3631 102.854 67.7876C102.306 67.0587 101.906 66.2287 101.678 65.3451C101.639 65.2423 101.639 65.1284 101.678 65.0256C101.759 64.9214 101.862 64.8372 101.98 64.7796C102.21 64.6254 102.375 64.3926 102.446 64.125C102.517 63.8573 102.488 63.5729 102.364 63.3251C102.124 62.835 101.597 62.462 101.003 62.2398C100.399 62.0414 99.7766 61.9084 99.1451 61.8429C98.7288 61.9024 98.2412 61.6663 98.1123 61.333C98.0548 61.1841 98.0548 61.0234 97.9974 60.8746C97.9194 60.7252 97.8066 60.5967 97.6686 60.5C97.5306 60.4033 97.3714 60.3412 97.2044 60.319C96.8499 60.2616 96.4868 60.2874 96.1439 60.3944C95.7474 60.5055 95.2974 60.6722 94.9545 60.4778C94.7741 60.3766 94.675 60.192 94.4807 60.1087C94.0843 59.942 93.6759 60.2793 93.3925 60.5571C93.1193 60.8486 92.7839 61.0745 92.4112 61.2179C92.2145 61.2929 92.0038 61.3245 91.7938 61.3104C91.5837 61.2964 91.3791 61.2371 91.1941 61.1365C90.9225 60.9639 90.7857 60.6861 90.5697 60.4659C90.1615 60.1016 89.6393 59.8911 89.0929 59.8706C88.5309 59.8407 87.9679 59.9024 87.4257 60.0531C86.3909 60.3056 85.4027 60.7208 84.4979 61.2834C84.0427 61.5337 83.6566 61.893 83.3739 62.3291C83.2066 62.6634 83.1204 63.0325 83.1222 63.4065C83.0785 64.5792 83.4671 65.8133 84.48 66.6348C83.8616 66.8928 83.6534 67.5257 83.5087 68.0873C83.2768 68.9841 83.0448 69.8949 83.1321 70.8076C83.1757 71.2799 83.3045 71.7521 83.2351 72.2224C83.1795 72.4438 83.1489 72.6708 83.144 72.899C83.1731 73.0247 83.239 73.1389 83.3333 73.2269C83.4276 73.3149 83.5459 73.3727 83.6732 73.3931Z" fill="#454B69"/>
<g opacity="0.1">
<path opacity="0.1" d="M103.824 69.1836C103.735 69.378 103.614 69.5564 103.467 69.7114C103.191 70.0011 102.825 70.2253 102.541 70.5051C101.693 71.3543 101.711 72.5965 101.035 73.5449C100.972 73.6522 100.871 73.7326 100.753 73.7711C100.496 73.8386 100.274 73.6044 100.159 73.3981C100.028 73.1468 99.9283 72.8802 99.8632 72.6044C99.8493 72.6738 99.8354 72.7433 99.8235 72.8028C99.707 73.5069 99.8247 74.2298 100.159 74.8605C100.268 75.0589 100.49 75.299 100.753 75.2335C100.871 75.1935 100.971 75.1126 101.035 75.0053C101.711 74.0568 101.693 72.8227 102.541 71.9675C102.825 71.6817 103.191 71.4595 103.467 71.1738C103.676 70.962 103.828 70.7019 103.912 70.4166C103.996 70.1313 104.008 69.8298 103.947 69.5388C103.916 69.417 103.875 69.2981 103.824 69.1836Z" fill="black"/>
<path opacity="0.1" d="M101.977 63.3101C101.858 63.3671 101.755 63.4514 101.675 63.5561C101.636 63.6582 101.636 63.7715 101.675 63.8736C101.753 64.1819 101.853 64.4843 101.975 64.7784C102.204 64.6242 102.37 64.3915 102.441 64.1238C102.512 63.8561 102.483 63.5717 102.359 63.324C102.321 63.2422 102.274 63.1645 102.22 63.0918C102.15 63.1759 102.068 63.2494 101.977 63.3101Z" fill="black"/>
<path opacity="0.1" d="M84.4925 65.1493C83.7902 64.5701 83.3275 63.7506 83.1941 62.8496C83.1585 63.0274 83.1386 63.208 83.1346 63.3893C83.0891 64.2557 83.3173 65.1145 83.7868 65.8438C83.9287 65.5334 84.18 65.2861 84.4925 65.1493Z" fill="black"/>
<path opacity="0.1" d="M99.8292 71.355C99.9046 70.9086 100.071 70.4343 99.8451 70.0256C99.5933 69.5692 98.9511 69.3708 98.3623 69.2557C97.7736 69.1406 97.1313 69.0434 96.721 68.6763C96.5163 68.466 96.3487 68.2225 96.2254 67.956C95.9459 67.462 95.5574 66.9639 94.9508 66.7536C93.9854 66.4143 92.8654 66.9004 91.8346 66.7318C91.5373 66.6822 91.2558 66.579 90.9565 66.5334C90.4521 66.4596 89.9373 66.5086 89.4559 66.6762C88.0465 67.1405 87.1287 68.3112 86.7084 69.5196C86.2882 70.728 86.2782 72.0039 86.1454 73.2579C86.1117 73.5635 85.9095 73.9722 85.5507 73.8968C85.5131 73.4067 85.4675 72.9047 85.1662 72.4741C85.0001 72.2446 84.7691 72.0702 84.5031 71.9733C84.237 71.8764 83.9481 71.8615 83.6735 71.9304C83.507 71.8932 83.3589 71.7983 83.2552 71.6626C83.277 71.8445 83.277 72.0283 83.2552 72.2102C83.1996 72.4316 83.169 72.6586 83.1641 72.8868C83.1896 73.0138 83.2525 73.1303 83.3447 73.2211C83.4369 73.312 83.5542 73.3732 83.6814 73.3968C83.9562 73.328 84.2453 73.3433 84.5114 73.4405C84.7774 73.5378 85.0083 73.7126 85.1741 73.9425C85.4754 74.3651 85.521 74.875 85.5587 75.3632C85.9175 75.4386 86.1197 75.0318 86.1534 74.7242C86.2862 73.4722 86.2961 72.1963 86.7163 70.986C87.1366 69.7756 88.0544 68.6049 89.4638 68.1426C89.9454 67.9755 90.46 67.9265 90.9644 67.9997C91.2637 68.0493 91.5452 68.1545 91.8426 68.1981C92.8734 68.3688 93.9934 67.8807 94.9587 68.22C95.5653 68.4342 95.9499 68.9283 96.2334 69.4224C96.3567 69.6888 96.5242 69.9324 96.7289 70.1427C97.1393 70.5117 97.7815 70.607 98.3703 70.7221C98.959 70.8371 99.5596 71.0237 99.8233 71.4443C99.8134 71.4146 99.8233 71.3848 99.8292 71.355Z" fill="black"/>
<path opacity="0.1" d="M83.2475 70.7361C83.2802 70.3665 83.2581 69.994 83.1821 69.6309C83.124 70.0143 83.1113 70.4033 83.1444 70.7897C83.1444 70.8889 83.1662 70.9881 83.1801 71.0853C83.2019 70.9682 83.2316 70.8531 83.2475 70.7361Z" fill="black"/>
</g>
<path d="M73.5459 102.363V98.7819C73.5459 98.7551 73.5566 98.7294 73.5755 98.7104C73.5945 98.6914 73.6202 98.6807 73.647 98.6807H74.0534C74.0802 98.6807 74.1059 98.6914 74.1249 98.7104C74.1438 98.7294 74.1545 98.7551 74.1545 98.7819V100.272L75.8037 98.7422C75.8425 98.7099 75.8896 98.6891 75.9396 98.6822C75.9896 98.6753 76.0406 98.6826 76.0867 98.7033C76.1327 98.724 76.1721 98.7572 76.2002 98.7992C76.2283 98.8411 76.2441 98.8902 76.2458 98.9407V102.185C76.2441 102.235 76.2283 102.284 76.2002 102.326C76.1721 102.368 76.1327 102.402 76.0867 102.422C76.0406 102.443 75.9896 102.45 75.9396 102.443C75.8896 102.436 75.8425 102.416 75.8037 102.383L74.1545 100.863V102.346C74.1545 102.372 74.1438 102.398 74.1249 102.417C74.1059 102.436 74.0802 102.447 74.0534 102.447H73.647C73.623 102.447 73.5997 102.439 73.5811 102.424C73.5626 102.408 73.5501 102.387 73.5459 102.363Z" fill="#444053"/>
<path d="M113.396 98.7833V102.365C113.396 102.378 113.393 102.392 113.388 102.404C113.383 102.416 113.375 102.428 113.366 102.437C113.356 102.447 113.345 102.454 113.332 102.459C113.32 102.464 113.306 102.466 113.293 102.466H112.897C112.87 102.466 112.844 102.455 112.825 102.436C112.806 102.417 112.795 102.392 112.795 102.365V100.875L111.146 102.403C111.107 102.435 111.06 102.455 111.01 102.462C110.96 102.469 110.909 102.462 110.863 102.441C110.817 102.42 110.777 102.387 110.749 102.345C110.72 102.304 110.704 102.255 110.702 102.204V98.948C110.704 98.8974 110.72 98.8485 110.749 98.8067C110.777 98.7648 110.817 98.7317 110.863 98.7111C110.909 98.6905 110.96 98.6832 111.01 98.69C111.06 98.6967 111.107 98.7174 111.146 98.7495L112.795 100.269V98.7892C112.795 98.7624 112.806 98.7366 112.825 98.7177C112.844 98.6987 112.87 98.688 112.897 98.688H113.293C113.319 98.6875 113.345 98.6971 113.364 98.7148C113.383 98.7326 113.395 98.7571 113.396 98.7833Z" fill="#444053"/>
<path d="M92.798 102.518H91.9912C91.886 102.518 91.7852 102.476 91.7108 102.402C91.6365 102.327 91.5947 102.226 91.5947 102.121V99.1566C91.5947 99.0514 91.6365 98.9504 91.7108 98.876C91.7852 98.8016 91.886 98.7598 91.9912 98.7598H92.798C92.9031 98.7598 93.004 98.8016 93.0783 98.876C93.1527 98.9504 93.1944 99.0514 93.1944 99.1566V102.121C93.1944 102.226 93.1527 102.327 93.0783 102.402C93.004 102.476 92.9031 102.518 92.798 102.518ZM95.3551 102.121V99.1566C95.3551 99.0514 95.3134 98.9504 95.239 98.876C95.1647 98.8016 95.0638 98.7598 94.9587 98.7598H94.144C94.0388 98.7598 93.938 98.8016 93.8636 98.876C93.7893 98.9504 93.7475 99.0514 93.7475 99.1566V102.121C93.7475 102.226 93.7893 102.327 93.8636 102.402C93.938 102.476 94.0388 102.518 94.144 102.518H94.9508C95.0035 102.519 95.0559 102.509 95.1049 102.49C95.1539 102.471 95.1986 102.441 95.2362 102.405C95.2739 102.368 95.3038 102.323 95.3242 102.275C95.3446 102.226 95.3552 102.174 95.3551 102.121Z" fill="#444053"/>
<path opacity="0.6" d="M117.258 93.9551H69.6826V94.4849H117.258V93.9551Z" fill="#444053"/>
<path d="M84.373 95.4749C85.066 95.4749 85.6278 94.9126 85.6278 94.2189C85.6278 93.5252 85.066 92.9629 84.373 92.9629C83.68 92.9629 83.1182 93.5252 83.1182 94.2189C83.1182 94.9126 83.68 95.4749 84.373 95.4749Z" fill="#444053"/>
<path d="M84.3734 93.9551H69.6826V94.4849H84.3734V93.9551Z" fill="#444053"/>
<path d="M190.222 153.753C196.733 153.753 202.011 152.737 202.011 151.483C202.011 150.229 196.733 149.213 190.222 149.213C183.712 149.213 178.434 150.229 178.434 151.483C178.434 152.737 183.712 153.753 190.222 153.753Z" fill="#BA1C51"/>
<path d="M190.026 152.316C190.784 152.316 191.398 151.511 191.398 150.518C191.398 149.526 190.784 148.721 190.026 148.721C189.268 148.721 188.654 149.526 188.654 150.518C188.654 151.511 189.268 152.316 190.026 152.316Z" fill="#3F3D56"/>
<path d="M190.026 150.117C190.784 150.117 191.398 149.312 191.398 148.319C191.398 147.326 190.784 146.521 190.026 146.521C189.268 146.521 188.654 147.326 188.654 148.319C188.654 149.312 189.268 150.117 190.026 150.117Z" fill="#3F3D56"/>
<path d="M190.026 147.92C190.784 147.92 191.398 147.115 191.398 146.122C191.398 145.129 190.784 144.324 190.026 144.324C189.268 144.324 188.654 145.129 188.654 146.122C188.654 147.115 189.268 147.92 190.026 147.92Z" fill="#3F3D56"/>
<path d="M190.026 145.72C190.784 145.72 191.398 144.916 191.398 143.923C191.398 142.93 190.784 142.125 190.026 142.125C189.268 142.125 188.654 142.93 188.654 143.923C188.654 144.916 189.268 145.72 190.026 145.72Z" fill="#3F3D56"/>
<path d="M190.026 143.523C190.784 143.523 191.398 142.718 191.398 141.725C191.398 140.733 190.784 139.928 190.026 139.928C189.268 139.928 188.654 140.733 188.654 141.725C188.654 142.718 189.268 143.523 190.026 143.523Z" fill="#3F3D56"/>
<path d="M190.026 141.324C190.784 141.324 191.398 140.519 191.398 139.526C191.398 138.533 190.784 137.729 190.026 137.729C189.268 137.729 188.654 138.533 188.654 139.526C188.654 140.519 189.268 141.324 190.026 141.324Z" fill="#3F3D56"/>
<path d="M190.026 139.127C190.784 139.127 191.398 138.322 191.398 137.329C191.398 136.336 190.784 135.531 190.026 135.531C189.268 135.531 188.654 136.336 188.654 137.329C188.654 138.322 189.268 139.127 190.026 139.127Z" fill="#3F3D56"/>
<path d="M195.162 122.289C195.349 122.049 195.52 121.797 195.674 121.535L192.066 120.939L195.967 120.969C196.341 120.154 196.544 119.271 196.566 118.375C196.587 117.478 196.426 116.587 196.092 115.754L190.863 118.473L195.688 114.923C195.235 114.141 194.627 113.46 193.901 112.923C193.175 112.387 192.346 112.005 191.465 111.803C190.585 111.601 189.673 111.583 188.786 111.749C187.898 111.915 187.055 112.263 186.307 112.77C185.56 113.277 184.925 113.932 184.441 114.696C183.958 115.459 183.637 116.314 183.498 117.207C183.36 118.1 183.406 119.012 183.635 119.886C183.864 120.761 184.27 121.578 184.828 122.289C184.538 122.658 184.287 123.057 184.079 123.479L188.761 125.914L183.77 124.237C183.419 125.274 183.333 126.382 183.518 127.461C183.702 128.539 184.153 129.555 184.828 130.416C184.066 131.387 183.592 132.552 183.461 133.78C183.329 135.007 183.545 136.247 184.084 137.358C184.623 138.468 185.463 139.404 186.509 140.059C187.554 140.714 188.763 141.062 189.996 141.062C191.23 141.062 192.438 140.714 193.484 140.059C194.529 139.404 195.37 138.468 195.909 137.358C196.448 136.247 196.664 135.007 196.532 133.78C196.4 132.552 195.926 131.387 195.164 130.416C196.075 129.256 196.57 127.823 196.57 126.348C196.57 124.873 196.075 123.441 195.164 122.281L195.162 122.289Z" fill="#BA1C51"/>
<path opacity="0.1" d="M183.423 126.357C183.42 127.832 183.915 129.266 184.828 130.424C184.066 131.395 183.592 132.561 183.46 133.788C183.329 135.016 183.545 136.256 184.084 137.366C184.623 138.476 185.463 139.413 186.509 140.068C187.554 140.723 188.763 141.07 189.996 141.07C191.23 141.07 192.438 140.723 193.484 140.068C194.529 139.413 195.369 138.476 195.908 137.366C196.448 136.256 196.664 135.016 196.532 133.788C196.4 132.561 195.926 131.395 195.164 130.424C196.044 129.307 183.423 125.618 183.423 126.357Z" fill="black"/>
<path opacity="0.1" d="M57.9866 165.97C68.8251 165.97 77.6114 164.105 77.6114 161.804C77.6114 159.502 68.8251 157.637 57.9866 157.637C47.1481 157.637 38.3618 159.502 38.3618 161.804C38.3618 164.105 47.1481 165.97 57.9866 165.97Z" fill="#BA1C51"/>
<path d="M64.5581 161.319C64.1617 161.174 63.7375 161.198 63.3232 161.152C62.4629 161.053 61.6619 160.664 61.0514 160.049C60.6588 159.652 60.3501 159.179 60.1435 158.66C60.2744 158.708 60.4052 158.757 60.54 158.811C60.1435 157.884 60.5598 156.845 60.9246 155.908C61.5431 154.321 62.1278 152.725 62.6789 151.12C64.0665 147.054 65.2559 142.826 65.2301 138.5C65.2301 136.937 64.9427 135.459 64.8872 133.897C64.8456 132.738 65.024 131.581 65.016 130.421C65.016 130.258 65.016 130.097 65.0042 129.935C65.3588 129.624 65.6374 129.236 65.8185 128.8C65.9996 128.365 66.0784 127.893 66.0488 127.423C66.0287 127.177 65.9936 126.933 65.9438 126.692C65.8736 126.274 65.7809 125.859 65.6662 125.45C65.5354 125.02 65.357 124.607 65.2044 124.186C64.909 123.371 64.7088 122.522 64.457 121.692C64.5503 121.702 64.6414 121.726 64.7266 121.766C64.6631 121.691 64.6195 121.602 64.5998 121.506C64.4517 120.978 64.3718 120.433 64.3619 119.884L64.5304 119.809C64.6063 119.274 64.5787 118.729 64.4491 118.204C64.5443 117.353 64.6929 116.495 64.7841 115.648C64.8178 115.331 64.8039 114.932 64.5125 114.854C64.4531 114.4 64.4293 113.94 64.4055 113.481C64.3222 111.882 64.2396 110.284 64.1577 108.686C64.0745 107.08 63.9912 105.477 63.9595 103.87C63.9377 102.85 63.9258 101.794 63.6839 100.818C63.7257 100.35 63.678 99.8789 63.5432 99.4291C63.1745 98.2604 62.0287 97.3338 60.8671 97.3993C60.5206 96.9031 60.0923 96.4696 59.6004 96.1175C59.8323 95.5976 60.1098 95.0619 60.3378 94.6412C62.1972 94.036 63.5571 92.2006 63.5571 90.018C63.5598 89.219 63.373 88.4308 63.0119 87.7183C63.0461 87.6307 63.0752 87.5413 63.0992 87.4504C63.1987 87.0219 63.1676 86.5733 63.01 86.1626C62.9542 86.005 62.8879 85.8512 62.8117 85.7023C62.7602 85.6031 62.7047 85.5039 62.6472 85.4086L62.5461 85.2558C62.4846 85.1626 62.4212 85.0733 62.3479 84.986C62.2071 84.7968 62.0562 84.6153 61.8959 84.4423C61.6985 84.2285 61.4807 84.0344 61.2457 83.8629C60.9269 83.6258 60.5624 83.4575 60.1753 83.3688C59.9514 83.3246 59.7235 83.304 59.4953 83.3073C59.3586 83.3073 59.2198 83.3073 59.083 83.3192C58.8055 83.3351 58.53 83.355 58.2544 83.353C58.1632 83.353 58.0701 83.353 57.9789 83.3391C57.4938 83.2744 57.0141 83.1742 56.5437 83.0395L56.3058 82.9899C56.2245 82.974 56.1452 82.9601 56.064 82.9502C55.8465 82.9211 55.6272 82.9078 55.4078 82.9105H55.1878C54.968 82.9211 54.749 82.9436 54.5317 82.978L54.3136 83.0117C53.763 83.098 53.2263 83.2575 52.7178 83.4859C52.6524 83.5157 52.585 83.5494 52.5196 83.5851L52.48 83.607C52.4264 83.6347 52.3729 83.6645 52.3214 83.6962L52.2916 83.7141L52.1232 83.8212L52.1093 83.8312C50.5353 84.8907 49.6056 86.8988 49.3697 88.8909C49.1061 91.1272 49.568 93.3812 50.0298 95.5817L50.4461 97.566C50.464 97.6552 50.4838 97.7426 50.5016 97.8318C49.9163 98.3126 49.4661 98.9376 49.1953 99.6454C48.7988 100.638 48.7889 101.711 48.8206 102.786C48.8206 103.005 48.8325 103.223 48.8543 103.441C48.8048 103.854 48.7612 104.269 48.7334 104.685C48.6085 106.61 48.8424 108.545 48.781 110.473C48.7334 111.96 48.5094 113.45 48.6184 114.926C48.7136 116.236 49.0645 117.505 49.4114 118.769L49.9109 120.571C49.9271 120.664 49.9706 120.751 50.0358 120.819C50.1178 120.874 50.2182 120.895 50.3153 120.877C49.9903 121.615 49.7187 122.377 49.5026 123.154C49.3532 123.631 49.2548 124.122 49.2092 124.619C49.1438 125.528 49.3539 126.43 49.564 127.313C49.8812 128.636 50.197 129.964 50.5115 131.298C50.7336 132.23 50.9549 133.162 51.1756 134.094C51.6117 135.931 52.0498 137.78 52.1311 139.671C52.1764 140.621 52.1099 141.573 51.9329 142.507C51.361 145.304 51.2778 148.179 51.687 151.005C52.0179 153.389 52.5544 155.74 53.2907 158.031C53.4513 157.946 53.6138 157.866 53.7804 157.793L53.711 157.922C53.4824 158.319 53.2709 158.726 53.0766 159.142C52.9457 159.413 52.8325 159.692 52.7377 159.978C52.4839 160.771 52.4443 161.617 52.4086 162.452C52.3904 162.613 52.4046 162.775 52.4502 162.93C52.5593 163.23 52.8725 163.383 53.1639 163.466C54.0202 163.71 54.9103 163.623 55.8003 163.508C55.8044 163.527 55.8104 163.547 55.8182 163.565C55.9272 163.865 56.2384 164.018 56.5318 164.101C57.7569 164.45 59.0493 164.121 60.312 164.002C61.5748 163.883 62.8157 163.97 64.0308 163.678C64.212 163.64 64.3859 163.573 64.5462 163.48C64.8587 163.261 65.0879 162.943 65.1964 162.577C65.2345 162.482 65.2598 162.383 65.2718 162.281C65.3213 161.847 64.9506 161.464 64.5581 161.319ZM60.3656 142.943C60.2972 143.408 60.1637 143.861 59.9691 144.288C59.0155 146.318 58.3318 148.464 57.9353 150.672C57.6751 152.13 57.5247 153.606 57.4853 155.087C57.4655 156.178 57.5071 157.321 57.0531 158.301L57.2177 158.275C57.1661 158.37 57.1166 158.474 57.069 158.549L57.0452 158.593C56.7707 158.125 56.587 157.609 56.504 157.073C56.504 157.055 56.4148 157.041 56.2781 157.033C55.7177 153.899 55.5234 150.71 55.6992 147.531C55.7019 147.145 55.7552 146.761 55.8578 146.39C55.9589 146.07 56.1294 145.779 56.2543 145.469C56.4523 144.949 56.5855 144.407 56.6507 143.854C56.8666 142.441 56.9503 141.012 56.9005 139.584C56.8529 138.237 57.1641 136.897 57.4298 135.556C57.5566 134.919 57.6736 134.28 57.737 133.641L57.7489 133.512C58.9283 135.46 59.7526 137.602 60.1832 139.838C60.4226 140.855 60.4843 141.905 60.3656 142.943ZM51.8813 114.267L51.9447 114.323C52.1364 114.491 52.3128 114.677 52.472 114.876C52.5513 114.963 52.6084 115.068 52.6386 115.182C52.698 115.472 52.4582 115.718 52.2619 115.93C52.1766 116.022 52.0966 116.119 52.0221 116.22C51.9798 115.569 51.9348 114.918 51.8873 114.267H51.8813Z" fill="url(#paint0_linear)"/>
<path d="M49.1378 101.832L48.9198 103.517C48.8464 104.088 48.7731 104.658 48.7334 105.231C48.6006 107.14 48.8464 109.057 48.783 110.969C48.7315 112.442 48.4976 113.912 48.6105 115.382C48.7116 116.68 49.0803 117.942 49.4491 119.192L49.9724 120.978C49.9903 121.071 50.0359 121.157 50.1032 121.224C50.2041 121.284 50.3238 121.303 50.4382 121.277L52.7615 121.067C52.6128 120.385 52.4483 119.678 52.365 118.978C52.3016 118.43 52.2639 117.878 52.2243 117.327C52.1014 115.608 51.9606 113.89 51.8278 112.168L51.58 109.152C51.475 107.842 51.3659 106.527 51.0369 105.255C50.7067 103.97 50.0528 102.792 49.1378 101.832Z" fill="#BA1C51"/>
<path opacity="0.1" d="M49.1378 101.832L48.9198 103.517C48.8464 104.088 48.7731 104.658 48.7334 105.231C48.6006 107.14 48.8464 109.057 48.783 110.969C48.7315 112.442 48.4976 113.912 48.6105 115.382C48.7116 116.68 49.0803 117.942 49.4491 119.192L49.9724 120.978C49.9903 121.071 50.0359 121.157 50.1032 121.224C50.2041 121.284 50.3238 121.303 50.4382 121.277L52.7615 121.067C52.6128 120.385 52.4483 119.678 52.365 118.978C52.3016 118.43 52.2639 117.878 52.2243 117.327C52.1014 115.608 51.9606 113.89 51.8278 112.168L51.58 109.152C51.475 107.842 51.3659 106.527 51.0369 105.255C50.7067 103.97 50.0528 102.792 49.1378 101.832Z" fill="black"/>
<path d="M53.2767 159.179C53.1403 159.448 53.0212 159.725 52.9199 160.009C52.6543 160.792 52.6147 161.634 52.575 162.461C52.5575 162.621 52.5723 162.782 52.6186 162.935C52.7336 163.233 53.0626 163.384 53.3699 163.465C54.6564 163.812 56.0123 163.487 57.3345 163.368C58.6567 163.249 59.963 163.336 61.2396 163.048C61.4281 163.012 61.6104 162.949 61.7808 162.86C62.104 162.649 62.3454 162.334 62.4647 161.967C62.5031 161.873 62.5291 161.774 62.542 161.673C62.5836 161.237 62.205 160.86 61.7927 160.717C61.3804 160.574 60.9304 160.596 60.4963 160.552C59.6022 160.461 58.7632 160.076 58.1095 159.459C57.4558 158.842 57.0238 158.026 56.8806 157.137C56.8647 157.042 54.7317 157.1 54.5018 157.223C54.2401 157.368 54.0815 157.727 53.9329 157.971C53.699 158.364 53.4802 158.766 53.2767 159.179Z" fill="#A26565"/>
<path opacity="0.1" d="M53.2767 159.179C53.1403 159.448 53.0212 159.725 52.9199 160.009C52.6543 160.792 52.6147 161.634 52.575 162.461C52.5575 162.621 52.5723 162.782 52.6186 162.935C52.7336 163.233 53.0626 163.384 53.3699 163.465C54.6564 163.812 56.0123 163.487 57.3345 163.368C58.6567 163.249 59.963 163.336 61.2396 163.048C61.4281 163.012 61.6104 162.949 61.7808 162.86C62.104 162.649 62.3454 162.334 62.4647 161.967C62.5031 161.873 62.5291 161.774 62.542 161.673C62.5836 161.237 62.205 160.86 61.7927 160.717C61.3804 160.574 60.9304 160.596 60.4963 160.552C59.6022 160.461 58.7632 160.076 58.1095 159.459C57.4558 158.842 57.0238 158.026 56.8806 157.137C56.8647 157.042 54.7317 157.1 54.5018 157.223C54.2401 157.368 54.0815 157.727 53.9329 157.971C53.699 158.364 53.4802 158.766 53.2767 159.179Z" fill="black"/>
<path d="M56.8154 159.809C56.6782 160.076 56.559 160.353 56.4586 160.636C56.191 161.43 56.1513 162.261 56.1137 163.089C56.0952 163.248 56.11 163.41 56.1573 163.563C56.2703 163.861 56.5993 164.011 56.9066 164.095C58.1931 164.44 59.551 164.115 60.8712 163.996C62.1914 163.876 63.5017 163.964 64.7763 163.676C64.9657 163.638 65.1482 163.571 65.3175 163.478C65.6412 163.267 65.8827 162.952 66.0014 162.585C66.0398 162.491 66.0658 162.392 66.0787 162.291C66.1203 161.857 65.7417 161.478 65.3294 161.335C64.9171 161.192 64.4671 161.216 64.0329 161.17C63.1392 161.078 62.3007 160.694 61.647 160.077C60.9934 159.46 60.5612 158.645 60.4172 157.757C60.4014 157.662 58.2684 157.717 58.0385 157.84C57.7748 157.985 57.6162 158.344 57.4676 158.589C57.2416 158.991 57.0196 159.396 56.8154 159.809Z" fill="#A26565"/>
<path d="M66.0389 138.731C66.0666 143.019 64.8217 147.21 63.3608 151.232C62.7819 152.827 62.1681 154.408 61.5192 155.976C61.1347 156.904 60.7005 157.936 61.1128 158.853C59.9235 158.401 58.7143 158.135 57.4634 158.343C57.9392 157.371 57.8936 156.24 57.9154 155.168C57.9558 153.7 58.1122 152.237 58.3832 150.793C58.8031 148.596 59.5228 146.466 60.5221 144.465C60.7241 144.043 60.8637 143.594 60.9364 143.132C61.099 142.112 60.9721 141.064 60.76 140.054C60.3037 137.824 59.4365 135.697 58.2028 133.784L58.1909 133.911C58.1169 134.549 58.0097 135.183 57.8698 135.81C57.5903 137.138 57.2632 138.467 57.3128 139.802C57.3645 141.218 57.2768 142.636 57.0511 144.035C56.9784 144.584 56.8352 145.122 56.6249 145.634C56.4881 145.942 56.3097 146.229 56.2027 146.549C56.0955 146.916 56.0395 147.297 56.0362 147.68C55.8776 150.908 56.0362 154.186 56.6943 157.351C55.5902 157.264 54.486 157.583 53.4988 158.079C52.727 155.814 52.163 153.482 51.8139 151.114C51.3838 148.314 51.4711 145.458 52.0716 142.689C52.2587 141.766 52.3287 140.823 52.2797 139.882C52.1945 138.007 51.7346 136.173 51.2767 134.352L50.5789 131.574C50.2485 130.251 49.9181 128.934 49.5878 127.623C49.3677 126.748 49.1457 125.853 49.2151 124.953C49.2635 124.458 49.3672 123.971 49.5243 123.5C50.0192 121.898 50.7595 120.383 51.7187 119.008C55.5386 119.222 59.4041 118.865 63.2161 118.571C63.4009 118.535 63.5927 118.567 63.7553 118.663C63.8852 118.795 63.9627 118.97 63.9733 119.155L65.4065 127.29C65.6386 128.421 65.7745 129.569 65.8129 130.723C65.8129 131.873 65.6345 133.02 65.6781 134.169C65.7376 135.717 66.0309 137.181 66.0389 138.731Z" fill="#454B69"/>
<path opacity="0.1" d="M58.1948 133.913C58.1208 134.551 58.0136 135.185 57.8737 135.812C57.0431 134.373 56.1471 132.97 55.3819 131.496C55.1837 131.117 54.9974 130.732 54.809 130.347L54.2441 129.196C54.139 128.98 54.034 128.764 53.9388 128.543C53.7839 128.227 53.6649 127.894 53.584 127.551C53.8615 127.5 54.5474 128.25 54.7535 128.446C55.1741 128.863 55.5711 129.303 55.9429 129.764C56.3945 130.276 56.8092 130.82 57.1838 131.391C57.6636 132.167 58.0056 133.02 58.1948 133.913Z" fill="black"/>
<path d="M61.3762 94.4436C61.3762 94.4436 59.2551 97.8267 59.6476 98.5351C60.0401 99.2435 52.9673 97.9061 52.9673 97.9061C52.9673 97.9061 56.8189 94.523 56.4244 93.1063C56.0299 91.6896 61.3762 94.4436 61.3762 94.4436Z" fill="#EFB7B9"/>
<path d="M59.4915 95.4688C62.1398 95.4688 64.2867 93.3199 64.2867 90.669C64.2867 88.0181 62.1398 85.8691 59.4915 85.8691C56.8432 85.8691 54.6963 88.0181 54.6963 90.669C54.6963 93.3199 56.8432 95.4688 59.4915 95.4688Z" fill="#EFB7B9"/>
<path d="M61.4481 97.9917C60.9347 97.2786 60.2381 96.7177 59.4321 96.3686C58.9677 96.2021 58.4875 96.0838 57.9989 96.0154L56.086 95.6781C55.6182 95.5948 55.1167 95.5174 54.6806 95.7098C54.4601 95.823 54.2593 95.9711 54.0859 96.1484C53.4218 96.7654 52.7776 97.4421 51.943 97.7992C51.715 97.8965 51.4772 97.9679 51.2492 98.0651C50.3155 98.462 49.6178 99.3072 49.2233 100.248C48.807 101.228 48.7951 102.293 48.8268 103.359C48.8263 103.727 48.8628 104.094 48.9359 104.454C49.0313 104.798 49.1525 105.133 49.2986 105.458C49.5622 106.154 49.7833 106.865 49.9607 107.587C50.4563 109.486 50.8686 111.404 51.1977 113.342C51.2256 113.619 51.307 113.889 51.4375 114.135C51.6223 114.382 51.8459 114.597 52.0996 114.772C52.3008 114.938 52.486 115.122 52.6527 115.322C52.7357 115.404 52.7976 115.504 52.8331 115.616C52.8945 115.901 52.6348 116.147 52.4366 116.356C52.01 116.791 51.7016 117.329 51.5406 117.917C51.4412 118.038 51.3903 118.192 51.3979 118.348C51.4392 118.457 51.4548 118.573 51.4435 118.689C51.4044 118.794 51.3429 118.89 51.2631 118.969C51.1716 119.088 51.1066 119.226 51.0724 119.372C51.0383 119.519 51.0357 119.671 51.0648 119.818C52.5507 120.464 54.1409 120.837 55.7589 120.917C56.1554 120.937 56.5519 120.937 56.9483 120.985C57.2298 121.021 57.5073 121.078 57.7888 121.112C58.1973 121.15 58.6079 121.161 59.0178 121.144C61.1528 121.1 63.3492 121.046 65.3097 120.199C65.494 119.193 65.0956 118.167 64.8458 117.175C64.4494 115.588 64.3502 113.963 64.0529 112.361C63.8547 111.268 63.5573 110.191 63.3888 109.089C63.2203 107.988 63.1906 106.847 63.484 105.776C63.7516 104.827 63.8329 103.859 64.1104 102.913C64.3879 101.966 64.5822 100.94 64.269 100.004C63.8725 98.8449 62.6692 97.9262 61.4481 97.9917Z" fill="#BA1C51"/>
<path d="M63.8028 88.1222C64.0367 87.271 63.5768 86.384 63.0297 85.6915C62.435 84.9474 61.6778 84.2768 60.7481 84.0903C59.9928 83.9375 59.2098 84.122 58.4407 84.0605C57.7607 84.0069 57.1066 83.7609 56.4306 83.6637C55.8173 83.5975 55.1976 83.6209 54.591 83.7331C54.0154 83.8188 53.4527 83.9761 52.916 84.2014C50.8742 85.1082 49.6789 87.3424 49.4014 89.5588C49.1239 91.7752 49.6095 94.0094 50.0932 96.1901L50.5313 98.1624C50.9872 100.216 51.4431 102.278 51.5641 104.377C51.685 106.476 51.459 108.631 50.5967 110.548C53.3853 109.048 55.5461 106.6 56.6883 103.645C56.9975 102.833 57.2275 101.99 57.5724 101.192C57.8678 100.506 58.2464 99.8549 58.5081 99.1545C58.8038 98.3639 58.9458 97.5241 58.9263 96.6802C58.9105 96.0452 58.8054 95.4142 58.8232 94.7793C58.8411 94.1443 59.0036 93.4836 59.4417 93.0232C59.8382 92.6165 60.3833 92.428 60.8848 92.1641C61.6743 91.7581 62.3642 91.1821 62.9048 90.4775C63.22 90.0648 63.2378 89.8822 63.3171 89.4139C63.3964 88.9457 63.6799 88.5726 63.8028 88.1222Z" fill="#A26565"/>
<path d="M63.8088 124.177C63.8584 124.671 63.7692 125.169 63.8762 125.659C63.9575 126.024 64.1458 126.354 64.2568 126.711C64.3666 127.123 64.4233 127.548 64.4253 127.975C64.4412 128.332 64.4134 128.769 64.0963 128.935C63.9575 129.009 63.791 129.009 63.6463 129.072C63.5016 129.136 63.3787 129.308 63.4619 129.443C63.5452 129.578 63.6879 129.556 63.8187 129.582C63.9496 129.608 64.0903 129.743 64.017 129.852C63.9871 129.888 63.9469 129.913 63.902 129.925C63.7696 129.966 63.6441 130.026 63.5293 130.104C63.4732 130.145 63.4294 130.2 63.4025 130.264C63.3756 130.328 63.3666 130.398 63.3767 130.467C63.3847 130.5 63.4 130.531 63.4215 130.557C63.443 130.583 63.4701 130.604 63.5008 130.618C63.5315 130.632 63.565 130.639 63.5987 130.638C63.6325 130.638 63.6657 130.629 63.6958 130.614C63.6377 130.738 63.6059 130.874 63.6027 131.011C64.1101 131.229 64.679 130.943 65.1548 130.668C65.3605 130.553 65.5591 130.425 65.7495 130.287C66.1343 129.991 66.441 129.605 66.6428 129.164C66.8446 128.722 66.9354 128.238 66.9072 127.753C66.8845 127.509 66.8468 127.267 66.7942 127.028C66.721 126.612 66.6237 126.201 66.5028 125.796C66.366 125.37 66.1796 124.963 66.0191 124.544C65.6781 123.653 65.4581 122.721 65.1489 121.818C65.1282 121.724 65.0756 121.641 65.0002 121.582C64.932 121.548 64.8559 121.534 64.7801 121.54C64.4331 121.522 64.0852 121.554 63.7474 121.635C63.5491 121.695 63.2102 121.834 63.117 122.032C63.0238 122.231 63.1725 122.397 63.2617 122.562C63.5466 123.06 63.7324 123.608 63.8088 124.177Z" fill="#EFB7B9"/>
<path opacity="0.1" d="M63.4859 100.066C63.5877 100.171 63.6732 100.29 63.7396 100.42C64.4215 101.66 64.4295 103.142 64.4612 104.557C64.4969 106.144 64.5841 107.731 64.6713 109.329L64.931 114.091C64.9568 114.545 64.9805 115 65.046 115.45C65.3512 115.527 65.3631 115.924 65.3294 116.244C65.1094 118.184 64.5643 120.182 65.1312 122.05C65.1531 122.145 65.1987 122.234 65.264 122.308C64.9761 122.217 64.6681 122.213 64.3779 122.296C64.0945 122.355 63.8209 122.46 63.5355 122.526C63.1747 122.607 62.7663 122.643 62.5205 122.923C62.2419 122.084 62.0201 121.228 61.8564 120.359C61.7216 119.565 61.684 118.748 61.3629 118.014C61.234 117.718 61.0596 117.444 60.901 117.16C60.0704 115.676 59.662 114 59.2636 112.345C59.0848 111.56 59.0419 110.751 59.1367 109.952C59.1944 109.587 59.2275 109.219 59.2358 108.851C59.2117 108.461 59.1607 108.074 59.0832 107.692C58.9148 106.57 58.994 105.425 59.3151 104.336C59.6125 103.326 59.8741 102.263 60.5045 101.414C61.1349 100.564 62.4333 100.08 63.4859 100.066Z" fill="black"/>
<path d="M63.7217 99.9082C63.8235 100.013 63.909 100.133 63.9754 100.263C64.6573 101.502 64.6653 102.986 64.697 104.4C64.7327 105.988 64.8199 107.575 64.9071 109.163L65.1668 113.925C65.1926 114.379 65.2164 114.834 65.2818 115.284C65.587 115.361 65.5989 115.758 65.5633 116.078C65.3452 118.018 64.8001 120.014 65.365 121.883C65.3869 121.979 65.4326 122.068 65.4978 122.141C65.21 122.051 64.902 122.047 64.6118 122.13C64.3283 122.189 64.0547 122.294 63.7693 122.358C63.4085 122.441 63.0001 122.475 62.7543 122.755C62.4766 121.912 62.2568 121.052 62.0962 120.179C61.9614 119.385 61.9238 118.57 61.6026 117.836C61.4632 117.544 61.309 117.259 61.1407 116.982C60.3082 115.498 59.9018 113.82 59.5034 112.165C59.3245 111.38 59.2816 110.571 59.3765 109.772C59.5258 109.024 59.5075 108.252 59.323 107.512C59.1545 106.39 59.2337 105.246 59.5549 104.158C59.8522 103.148 60.1139 102.085 60.7443 101.236C61.3747 100.386 62.6691 99.9241 63.7217 99.9082Z" fill="#BA1C51"/>
<g opacity="0.1">
<path opacity="0.1" d="M63.0297 85.6915C62.435 84.9474 61.6777 84.2768 60.748 84.0903C59.9928 83.9375 59.2098 84.122 58.4406 84.0605C57.7607 84.0069 57.1066 83.7609 56.4306 83.6637C55.8173 83.5975 55.1976 83.6209 54.591 83.7331C54.0154 83.8188 53.4527 83.9761 52.916 84.2014C52.6261 84.3313 52.3493 84.4888 52.0894 84.6716C52.5671 84.4859 53.0636 84.3528 53.5701 84.2748C54.176 84.1624 54.7951 84.139 55.4077 84.2054C56.0857 84.2927 56.7379 84.5367 57.4198 84.5903C58.1869 84.6518 58.9699 84.4693 59.7272 84.6201C60.6569 84.8066 61.4181 85.4792 62.0068 86.2233C62.5559 86.9138 63.0138 87.8008 62.7819 88.654C62.659 89.1024 62.3735 89.4953 62.2962 89.9576C62.2189 90.4199 62.1991 90.6084 61.8819 91.0212C61.4752 91.5504 60.9836 92.0084 60.4269 92.3764C60.5795 92.3049 60.7361 92.2335 60.8848 92.1561C61.6743 91.7502 62.3642 91.1742 62.9048 90.4695C63.22 90.0568 63.2378 89.8743 63.3171 89.406C63.3964 88.9377 63.6799 88.5528 63.8028 88.1024C64.0367 87.271 63.5768 86.384 63.0297 85.6915Z" fill="black"/>
<path opacity="0.1" d="M59.4417 93.0349C59.5238 92.9497 59.6134 92.872 59.7093 92.8027C59.2514 93.025 58.7697 93.2194 58.4188 93.5964C57.9808 94.0548 57.8242 94.7175 57.8004 95.3525C57.7766 95.9874 57.8896 96.6184 57.9034 97.2514C57.9229 98.0959 57.781 98.9364 57.4852 99.7277C57.2235 100.428 56.8449 101.077 56.5495 101.765C56.2066 102.559 55.9766 103.404 55.6674 104.216C54.6764 106.778 52.9167 108.97 50.6304 110.49C50.6185 110.516 50.6086 110.544 50.5967 110.569C53.3853 109.07 55.5461 106.621 56.6883 103.666C56.9975 102.855 57.2275 102.012 57.5724 101.214C57.8678 100.527 58.2464 99.8765 58.508 99.1761C58.8038 98.3855 58.9458 97.5457 58.9263 96.7017C58.9105 96.0668 58.8054 95.4358 58.8232 94.8008C58.8411 94.1659 59.0036 93.4952 59.4417 93.0349Z" fill="black"/>
</g>
</g>
<defs>
<linearGradient id="paint0_linear" x1="57.3287" y1="164.25" x2="57.3287" y2="82.9164" gradientUnits="userSpaceOnUse">
<stop stop-color="#808080" stop-opacity="0.25"/>
<stop offset="0.54" stop-color="#808080" stop-opacity="0.12"/>
<stop offset="1" stop-color="#808080" stop-opacity="0.1"/>
</linearGradient>
<clipPath id="clip0">
<rect width="224" height="165" fill="white" transform="translate(0.5 0.970703)"/>
</clipPath>
</defs>
</svg>
