<svg width="481" height="332" viewBox="0 0 481 332" fill="none" xmlns="http://www.w3.org/2000/svg">
<g clip-path="url(#clip0)">
<path opacity="0.1" d="M272.002 45.201C241.235 45.2423 211.62 36.504 183.293 26.7967C154.967 17.0894 126.858 6.21912 96.6629 1.61288C77.2435 -1.34798 55.1609 -1.07581 39.981 9.67484C25.3691 20.0172 21.1378 37.135 19.0962 52.9496C17.5609 64.8466 16.853 77.3334 22.6031 88.216C26.5956 95.7707 33.4283 101.998 38.244 109.198C55.0539 134.245 44.9449 166.242 28.6084 191.871C20.9484 203.896 11.9755 215.422 6.18421 228.135C0.392946 240.849 -1.98201 255.265 3.92451 267.814C9.77751 280.251 22.9982 289.278 37.1862 295.443C65.9985 307.988 99.5442 310.676 132.188 311.712C204.45 314.008 276.851 309.324 349.058 304.639C375.78 302.907 402.62 301.163 428.79 296.144C443.32 293.361 458.282 289.229 468.584 280.173C481.661 268.676 484.336 249.905 474.82 236.412C458.862 213.78 416.784 209.512 405.341 185.025C399.031 171.545 404.473 156.085 412.487 143.091C429.675 115.21 459.261 90.2367 459.759 59.0528C460.101 37.6381 444.715 16.7471 421.735 7.43976C397.648 -2.30882 364.806 0.198432 347.931 18.3677C330.577 37.0855 299.168 45.1722 272.002 45.201Z" fill="#BA1C51"/>
<path d="M409.029 266.132C409.029 266.132 403.971 262.788 398.957 265.167C398.957 265.167 400.501 268.145 406.848 267.864L409.029 266.132Z" fill="#BA1C51"/>
<path d="M409.671 266.309C409.671 266.309 411.211 272.181 407.35 276.177C407.35 276.177 405.028 273.756 407.35 267.826L409.671 266.309Z" fill="#BA1C51"/>
<path d="M415.961 260.671C415.961 260.671 415.586 255.677 404.329 257.335C404.329 257.335 404.275 260.556 408.227 262.082C412.178 263.607 413.989 262.321 415.961 260.671Z" fill="#BA1C51"/>
<path d="M416.668 260.639C416.668 260.639 421.427 262.169 417.183 272.746C417.183 272.746 414.042 272.045 413.479 267.835C412.915 263.624 414.586 262.173 416.668 260.639Z" fill="#BA1C51"/>
<path d="M423.024 253.553C423.024 253.553 423.67 245.334 412.166 246.176C412.166 246.176 411.342 253.598 420.995 255.528L423.024 253.553Z" fill="#BA1C51"/>
<path d="M430.626 244.275C430.626 244.275 429.05 234.96 417.549 237.735C417.549 237.735 417.508 245.789 428.749 246.494L430.626 244.275Z" fill="#BA1C51"/>
<path d="M436.183 234.684C436.183 234.684 433.54 225.611 422.147 228.325C422.147 228.325 424.859 236.486 435.425 236.358L436.183 234.684Z" fill="#BA1C51"/>
<path d="M441.459 225.313C441.459 225.313 438.879 215.899 427.876 218.715C427.876 218.715 431.548 227.66 440.731 226.905L441.459 225.313Z" fill="#BA1C51"/>
<path d="M444.859 216.415C444.859 216.415 442.875 204.902 432.618 207.45C432.618 207.45 435.598 217.925 444.106 218.094L444.859 216.415Z" fill="#BA1C51"/>
<path d="M448.049 205.664C448.049 205.664 445.666 194.059 435.289 197.416C435.289 197.416 439.356 208.385 447.312 207.251L448.049 205.664Z" fill="#BA1C51"/>
<path d="M450.008 195.661C450.008 195.661 446.226 184.052 438.204 184.366C438.204 184.366 442.069 196.626 449.338 197.974L450.008 195.661Z" fill="#BA1C51"/>
<path d="M451.276 185.896C451.276 185.896 447.16 171.924 440.632 173.001C440.632 173.001 443.48 183.681 451.045 188.073L451.276 185.896Z" fill="#BA1C51"/>
<path d="M451.992 174.246C451.992 174.246 448.131 162.605 441.702 162.139C441.702 162.139 444.328 173.594 451.865 177.273L451.992 174.246Z" fill="#BA1C51"/>
<path d="M452.77 163.375C452.77 163.375 447.958 151.721 443.715 151.457C443.715 151.457 445.806 162.933 452.359 165.288L452.77 163.375Z" fill="#BA1C51"/>
<path d="M453.301 153.264C453.301 153.264 450.342 140.608 446.09 139.557C446.09 139.557 446.67 149.911 452.873 154.212L453.301 153.264Z" fill="#BA1C51"/>
<path d="M454.907 140.018C454.907 140.018 451.795 129.927 448.35 128.389C448.35 128.389 449.029 140.286 454.112 142.484L454.907 140.018Z" fill="#BA1C51"/>
<path d="M456.236 131.358L456.862 113.568C456.862 113.568 450.42 126.979 455.771 134.48L456.236 131.358Z" fill="#BA1C51"/>
<path d="M461.208 113.663C461.208 113.663 465.847 100.673 466.97 99.9473C466.97 99.9473 457.874 108.376 458.763 119.218L461.208 113.663Z" fill="#BA1C51"/>
<path d="M423.336 253.493C423.336 253.493 431.494 252.425 431.252 263.975C431.252 263.975 423.88 265.18 421.472 255.625L423.336 253.493Z" fill="#BA1C51"/>
<path d="M431.013 243.963C431.013 243.963 440.439 243.934 439.657 255.757C439.657 255.757 431.741 257.175 429.132 246.198L431.013 243.963Z" fill="#BA1C51"/>
<path d="M436.273 235.446C436.273 235.446 444.83 231.425 450.305 241.805C450.305 241.805 442.402 245.153 435.516 237.124L436.273 235.446Z" fill="#BA1C51"/>
<path d="M441.649 225.401C441.649 225.401 450.412 221.125 455.557 231.261C455.557 231.261 446.427 234.412 440.924 227.006L441.649 225.401Z" fill="#BA1C51"/>
<path d="M444.748 216.667C444.748 216.667 453.182 208.597 459.911 216.758C459.911 216.758 451.297 223.402 444.361 218.465L444.748 216.667Z" fill="#BA1C51"/>
<path d="M447.572 205.388C447.572 205.388 456.055 197.14 462.731 205.767C462.731 205.767 453.211 212.543 447.267 207.12L447.572 205.388Z" fill="#BA1C51"/>
<path d="M449.156 195.33C449.156 195.33 455.693 185.02 463.389 187.321C463.389 187.321 456.606 198.237 449.23 197.75L449.156 195.33Z" fill="#BA1C51"/>
<path d="M451.083 185.83C451.083 185.83 457.668 172.848 463.9 175.108C463.9 175.108 459.15 185.087 450.914 188.019L451.083 185.83Z" fill="#BA1C51"/>
<path d="M451.539 173.569C451.539 173.569 458.31 163.351 464.653 164.6C464.653 164.6 459.117 174.963 450.881 176.526L451.539 173.569Z" fill="#BA1C51"/>
<path d="M452.066 163.148C452.066 163.148 457.314 151.68 461.579 151.602C461.579 151.602 459.06 162.987 452.42 165.095L452.066 163.148Z" fill="#BA1C51"/>
<path d="M453.095 153.016C453.095 153.016 458.928 141.404 463.311 141.379C463.311 141.379 460.327 151.309 453.289 154.035L453.095 153.016Z" fill="#BA1C51"/>
<path d="M453.972 140.744C453.972 140.744 458.335 131.136 461.949 130.047C461.949 130.047 459.768 141.758 454.454 143.292L453.972 140.744Z" fill="#BA1C51"/>
<path d="M456.755 131.008L466.506 116.125C466.506 116.125 464.007 130.806 455.331 133.857L456.755 131.008Z" fill="#BA1C51"/>
<path d="M463.447 114.865C463.447 114.865 474.779 107.03 475.19 105.764C475.19 105.764 469.428 116.737 458.726 118.675L463.447 114.865Z" fill="#BA1C51"/>
<path d="M464.126 111.338C464.126 111.338 477.137 98.806 480.459 98.8184C480.459 98.8184 469.728 99.3091 463.813 110.67L464.126 111.338Z" fill="#BA1C51"/>
<path d="M454.1 142.604L454.573 142.666C457.018 123.494 460.582 112.15 464.608 110.76L464.451 110.307C460.183 111.791 456.594 122.962 454.1 142.604Z" fill="#444053"/>
<path d="M450.502 188.452L451.218 188.51C451.371 186.72 451.486 184.889 451.564 183.063C452.247 167.194 453.305 152.621 454.696 141.697L454.285 141.182C452.89 152.13 451.531 167.141 450.848 183.034C450.77 184.848 450.654 186.671 450.502 188.452Z" fill="#444053"/>
<path d="M395.677 275.279C395.8 275.225 408.408 269.584 421.492 256.132C429.159 248.254 435.529 239.206 440.364 229.328C446.415 216.985 450.103 201.818 451.338 187.084L450.593 187.435C447.815 220.507 432.787 243.105 420.838 255.415C407.881 268.747 395.413 274.33 395.29 274.384L395.677 275.279Z" fill="#444053"/>
<path d="M428.321 35.1465H32.8191C31.8847 35.1465 30.9885 35.5184 30.3277 36.1804C29.667 36.8424 29.2958 37.7402 29.2958 38.6764V48.9611H431.844V38.6764C431.844 37.7402 431.473 36.8424 430.812 36.1804C430.152 35.5184 429.255 35.1465 428.321 35.1465Z" fill="#3F3D56"/>
<path d="M29.2958 48.9609V280.403C29.2958 282.291 30.0443 284.101 31.3766 285.436C32.7089 286.771 34.5159 287.521 36.4001 287.521H424.74C426.624 287.521 428.431 286.771 429.764 285.436C431.096 284.101 431.844 282.291 431.844 280.403V48.9609H29.2958Z" fill="white"/>
<path opacity="0.8" d="M35.6716 43.6017C36.5808 43.6017 37.318 42.8632 37.318 41.9522C37.318 41.0412 36.5808 40.3027 35.6716 40.3027C34.7623 40.3027 34.0251 41.0412 34.0251 41.9522C34.0251 42.8632 34.7623 43.6017 35.6716 43.6017Z" fill="#FA5959"/>
<path opacity="0.8" d="M40.1992 43.6017C41.1084 43.6017 41.8456 42.8632 41.8456 41.9522C41.8456 41.0412 41.1084 40.3027 40.1992 40.3027C39.2899 40.3027 38.5527 41.0412 38.5527 41.9522C38.5527 42.8632 39.2899 43.6017 40.1992 43.6017Z" fill="#FED253"/>
<path opacity="0.8" d="M44.7269 43.6017C45.6361 43.6017 46.3733 42.8632 46.3733 41.9522C46.3733 41.0412 45.6361 40.3027 44.7269 40.3027C43.8176 40.3027 43.0804 41.0412 43.0804 41.9522C43.0804 42.8632 43.8176 43.6017 44.7269 43.6017Z" fill="#8CCF4D"/>
<path opacity="0.05" d="M390.235 87.5527H66.7147V230.078H390.235V87.5527Z" fill="black"/>
<path d="M387.766 88.6328H69.1843V228.016H387.766V88.6328Z" fill="#3F3D56"/>
<path d="M156.033 124.504C149.764 124.504 143.637 126.366 138.425 129.855C133.213 133.344 129.151 138.303 126.752 144.106C124.353 149.908 123.725 156.292 124.948 162.452C126.171 168.611 129.19 174.269 133.622 178.71C138.054 183.15 143.702 186.175 149.85 187.4C155.998 188.625 162.37 187.996 168.161 185.593C173.953 183.19 178.902 179.12 182.385 173.898C185.867 168.676 187.726 162.537 187.726 156.257C187.726 152.087 186.906 147.958 185.314 144.106C183.721 140.253 181.386 136.753 178.443 133.804C175.5 130.856 172.007 128.517 168.161 126.921C164.316 125.325 160.195 124.504 156.033 124.504ZM161.717 157.02V172.055H150.513V157.02C148.963 155.844 147.82 154.21 147.246 152.348C146.673 150.487 146.697 148.492 147.316 146.645C147.935 144.798 149.118 143.193 150.696 142.056C152.275 140.918 154.171 140.306 156.115 140.306C158.06 140.306 159.955 140.918 161.534 142.056C163.113 143.193 164.295 144.798 164.914 146.645C165.533 148.492 165.557 150.487 164.984 152.348C164.41 154.21 163.267 155.844 161.717 157.02Z" fill="#BA1C51"/>
<path opacity="0.05" d="M156.033 124.504C149.764 124.504 143.637 126.366 138.425 129.855C133.213 133.344 129.151 138.303 126.752 144.106C124.353 149.908 123.725 156.292 124.948 162.452C126.171 168.611 129.19 174.269 133.622 178.71C138.054 183.15 143.702 186.175 149.85 187.4C155.998 188.625 162.37 187.996 168.161 185.593C173.953 183.19 178.902 179.12 182.385 173.898C185.867 168.676 187.726 162.537 187.726 156.257C187.726 152.087 186.906 147.958 185.314 144.106C183.721 140.253 181.386 136.753 178.443 133.804C175.5 130.856 172.007 128.517 168.161 126.921C164.316 125.325 160.195 124.504 156.033 124.504ZM161.717 157.02V172.055H150.513V157.02C148.963 155.844 147.82 154.21 147.246 152.348C146.673 150.487 146.697 148.492 147.316 146.645C147.935 144.798 149.118 143.193 150.696 142.056C152.275 140.918 154.171 140.306 156.115 140.306C158.06 140.306 159.955 140.918 161.534 142.056C163.113 143.193 164.295 144.798 164.914 146.645C165.533 148.492 165.557 150.487 164.984 152.348C164.41 154.21 163.267 155.844 161.717 157.02Z" fill="black"/>
<path d="M156.033 115.432C147.973 115.432 140.095 117.826 133.394 122.312C126.693 126.798 121.47 133.174 118.386 140.634C115.302 148.094 114.495 156.302 116.067 164.221C117.639 172.141 121.52 179.415 127.219 185.125C132.918 190.834 140.179 194.722 148.083 196.298C155.988 197.873 164.181 197.064 171.627 193.974C179.072 190.885 185.437 185.652 189.914 178.938C194.392 172.224 196.781 164.331 196.781 156.257C196.781 145.429 192.488 135.045 184.846 127.389C177.205 119.733 166.84 115.432 156.033 115.432ZM163.339 157.238V176.566H148.933V157.238C146.938 155.726 145.469 153.625 144.731 151.231C143.993 148.837 144.024 146.271 144.82 143.896C145.616 141.521 147.136 139.456 149.167 137.993C151.197 136.53 153.635 135.743 156.136 135.743C158.636 135.743 161.074 136.53 163.105 137.993C165.135 139.456 166.655 141.521 167.451 143.896C168.247 146.271 168.279 148.837 167.541 151.231C166.803 153.625 165.333 155.726 163.339 157.238Z" fill="#BA1C51"/>
<path d="M345.37 150.902H213.657V164.923H345.37V150.902Z" fill="white"/>
<path d="M345.37 176.469H316.97V190.49H345.37V176.469Z" fill="#BA1C51"/>
<path d="M226.623 157.701H224.24L226.359 155.581C226.397 155.542 226.419 155.49 226.419 155.435C226.419 155.38 226.397 155.328 226.359 155.289C226.34 155.269 226.317 155.254 226.292 155.244C226.267 155.233 226.24 155.228 226.213 155.228C226.186 155.228 226.159 155.233 226.134 155.244C226.109 155.254 226.086 155.269 226.067 155.289L223.947 157.412V155.021C223.947 154.966 223.926 154.914 223.887 154.875C223.848 154.836 223.796 154.814 223.742 154.814C223.687 154.816 223.636 154.838 223.597 154.876C223.559 154.914 223.537 154.966 223.536 155.021V157.412L221.42 155.276C221.401 155.257 221.378 155.242 221.353 155.231C221.328 155.221 221.301 155.215 221.274 155.215C221.247 155.215 221.22 155.221 221.195 155.231C221.17 155.242 221.147 155.257 221.128 155.276C221.09 155.316 221.069 155.368 221.069 155.423C221.069 155.477 221.09 155.53 221.128 155.569L223.248 157.689H220.86C220.806 157.69 220.754 157.712 220.716 157.75C220.678 157.789 220.656 157.841 220.655 157.895C220.655 157.95 220.676 158.002 220.715 158.041C220.753 158.079 220.806 158.101 220.86 158.101H223.248L221.128 160.225C221.09 160.264 221.069 160.317 221.069 160.371C221.069 160.426 221.09 160.478 221.128 160.518C221.168 160.555 221.22 160.575 221.274 160.575C221.328 160.575 221.38 160.555 221.42 160.518L223.536 158.394V160.782C223.536 160.836 223.557 160.889 223.596 160.927C223.635 160.966 223.687 160.988 223.742 160.988C223.796 160.988 223.848 160.966 223.887 160.927C223.926 160.889 223.947 160.836 223.947 160.782V158.394L226.067 160.518C226.107 160.555 226.159 160.575 226.213 160.575C226.267 160.575 226.32 160.555 226.359 160.518C226.397 160.478 226.419 160.426 226.419 160.371C226.419 160.317 226.397 160.264 226.359 160.225L224.24 158.101H226.623C226.677 158.101 226.73 158.079 226.768 158.041C226.807 158.002 226.829 157.95 226.829 157.895C226.825 157.842 226.802 157.793 226.764 157.757C226.726 157.721 226.675 157.701 226.623 157.701Z" fill="#BA1C51"/>
<path d="M235.266 157.701H232.883L235.003 155.581C235.041 155.542 235.062 155.49 235.062 155.435C235.062 155.38 235.041 155.328 235.003 155.289C234.984 155.269 234.961 155.254 234.936 155.244C234.911 155.233 234.884 155.228 234.857 155.228C234.83 155.228 234.803 155.233 234.778 155.244C234.753 155.254 234.73 155.269 234.711 155.289L232.591 157.412V155.021C232.591 154.966 232.569 154.914 232.531 154.875C232.492 154.836 232.44 154.814 232.385 154.814C232.331 154.816 232.279 154.838 232.241 154.876C232.203 154.914 232.181 154.966 232.179 155.021V157.412L230.064 155.276C230.045 155.257 230.022 155.242 229.997 155.231C229.972 155.221 229.945 155.215 229.918 155.215C229.89 155.215 229.864 155.221 229.839 155.231C229.813 155.242 229.791 155.257 229.772 155.276C229.734 155.316 229.712 155.368 229.712 155.423C229.712 155.477 229.734 155.53 229.772 155.569L231.891 157.689H229.504C229.45 157.69 229.398 157.712 229.36 157.75C229.321 157.789 229.299 157.841 229.298 157.895C229.298 157.95 229.32 158.002 229.358 158.041C229.397 158.079 229.449 158.101 229.504 158.101H231.891L229.772 160.225C229.734 160.264 229.712 160.317 229.712 160.371C229.712 160.426 229.734 160.478 229.772 160.518C229.811 160.555 229.863 160.575 229.918 160.575C229.972 160.575 230.024 160.555 230.064 160.518L232.179 158.394V160.782C232.179 160.836 232.201 160.889 232.24 160.927C232.278 160.966 232.331 160.988 232.385 160.988C232.44 160.988 232.492 160.966 232.531 160.927C232.569 160.889 232.591 160.836 232.591 160.782V158.394L234.711 160.518C234.75 160.555 234.803 160.575 234.857 160.575C234.911 160.575 234.963 160.555 235.003 160.518C235.041 160.478 235.062 160.426 235.062 160.371C235.062 160.317 235.041 160.264 235.003 160.225L232.883 158.101H235.266C235.321 158.101 235.373 158.079 235.412 158.041C235.451 158.002 235.472 157.95 235.472 157.895C235.469 157.842 235.446 157.793 235.408 157.757C235.37 157.721 235.319 157.701 235.266 157.701Z" fill="#BA1C51"/>
<path d="M243.91 157.701H241.527L243.647 155.581C243.685 155.542 243.706 155.49 243.706 155.435C243.706 155.38 243.685 155.328 243.647 155.289C243.628 155.269 243.605 155.254 243.58 155.244C243.555 155.233 243.528 155.228 243.501 155.228C243.473 155.228 243.447 155.233 243.421 155.244C243.396 155.254 243.374 155.269 243.354 155.289L241.235 157.412V155.021C241.235 154.966 241.213 154.914 241.174 154.875C241.136 154.836 241.083 154.814 241.029 154.814C240.975 154.816 240.923 154.838 240.885 154.876C240.846 154.914 240.824 154.966 240.823 155.021V157.412L238.707 155.276C238.688 155.257 238.666 155.242 238.64 155.231C238.615 155.221 238.589 155.215 238.561 155.215C238.534 155.215 238.507 155.221 238.482 155.231C238.457 155.242 238.434 155.257 238.415 155.276C238.377 155.316 238.356 155.368 238.356 155.423C238.356 155.477 238.377 155.53 238.415 155.569L240.535 157.689H238.148C238.093 157.69 238.042 157.712 238.003 157.75C237.965 157.789 237.943 157.841 237.942 157.895C237.942 157.95 237.964 158.002 238.002 158.041C238.041 158.079 238.093 158.101 238.148 158.101H240.535L238.415 160.225C238.377 160.264 238.356 160.317 238.356 160.371C238.356 160.426 238.377 160.478 238.415 160.518C238.455 160.555 238.507 160.575 238.561 160.575C238.616 160.575 238.668 160.555 238.707 160.518L240.823 158.394V160.782C240.823 160.836 240.845 160.889 240.883 160.927C240.922 160.966 240.974 160.988 241.029 160.988C241.083 160.988 241.136 160.966 241.174 160.927C241.213 160.889 241.235 160.836 241.235 160.782V158.394L243.354 160.518C243.394 160.555 243.446 160.575 243.501 160.575C243.555 160.575 243.607 160.555 243.647 160.518C243.685 160.478 243.706 160.426 243.706 160.371C243.706 160.317 243.685 160.264 243.647 160.225L241.527 158.101H243.91C243.965 158.101 244.017 158.079 244.056 158.041C244.094 158.002 244.116 157.95 244.116 157.895C244.113 157.842 244.09 157.793 244.051 157.757C244.013 157.721 243.963 157.701 243.91 157.701Z" fill="#BA1C51"/>
<path d="M252.554 157.701H250.171L252.29 155.581C252.328 155.542 252.35 155.49 252.35 155.435C252.35 155.38 252.328 155.328 252.29 155.289C252.271 155.269 252.248 155.254 252.223 155.244C252.198 155.233 252.171 155.228 252.144 155.228C252.117 155.228 252.09 155.233 252.065 155.244C252.04 155.254 252.017 155.269 251.998 155.289L249.878 157.412V155.021C249.878 154.966 249.857 154.914 249.818 154.875C249.779 154.836 249.727 154.814 249.673 154.814C249.618 154.816 249.567 154.838 249.528 154.876C249.49 154.914 249.468 154.966 249.467 155.021V157.412L247.351 155.276C247.332 155.257 247.309 155.242 247.284 155.231C247.259 155.221 247.232 155.215 247.205 155.215C247.178 155.215 247.151 155.221 247.126 155.231C247.101 155.242 247.078 155.257 247.059 155.276C247.021 155.316 247 155.368 247 155.423C247 155.477 247.021 155.53 247.059 155.569L249.179 157.689H246.791C246.737 157.69 246.685 157.712 246.647 157.75C246.609 157.789 246.587 157.841 246.586 157.895C246.586 157.95 246.607 158.002 246.646 158.041C246.684 158.079 246.737 158.101 246.791 158.101H249.179L247.059 160.225C247.021 160.264 247 160.317 247 160.371C247 160.426 247.021 160.478 247.059 160.518C247.099 160.555 247.151 160.575 247.205 160.575C247.259 160.575 247.312 160.555 247.351 160.518L249.467 158.394V160.782C249.467 160.836 249.488 160.889 249.527 160.927C249.566 160.966 249.618 160.988 249.673 160.988C249.727 160.988 249.779 160.966 249.818 160.927C249.857 160.889 249.878 160.836 249.878 160.782V158.394L251.998 160.518C252.038 160.555 252.09 160.575 252.144 160.575C252.198 160.575 252.251 160.555 252.29 160.518C252.328 160.478 252.35 160.426 252.35 160.371C252.35 160.317 252.328 160.264 252.29 160.225L250.171 158.101H252.554C252.608 158.101 252.661 158.079 252.699 158.041C252.738 158.002 252.76 157.95 252.76 157.895C252.756 157.842 252.733 157.793 252.695 157.757C252.657 157.721 252.606 157.701 252.554 157.701Z" fill="#BA1C51"/>
<path d="M261.198 157.701H258.814L260.934 155.581C260.972 155.542 260.993 155.49 260.993 155.435C260.993 155.38 260.972 155.328 260.934 155.289C260.915 155.269 260.892 155.254 260.867 155.244C260.842 155.233 260.815 155.228 260.788 155.228C260.761 155.228 260.734 155.233 260.709 155.244C260.684 155.254 260.661 155.269 260.642 155.289L258.522 157.412V155.021C258.522 154.966 258.5 154.914 258.462 154.875C258.423 154.836 258.371 154.814 258.316 154.814C258.262 154.816 258.21 154.838 258.172 154.876C258.134 154.914 258.112 154.966 258.11 155.021V157.412L255.995 155.276C255.976 155.257 255.953 155.242 255.928 155.231C255.903 155.221 255.876 155.215 255.849 155.215C255.822 155.215 255.795 155.221 255.77 155.231C255.744 155.242 255.722 155.257 255.703 155.276C255.665 155.316 255.643 155.368 255.643 155.423C255.643 155.477 255.665 155.53 255.703 155.569L257.822 157.689H255.435C255.381 157.69 255.329 157.712 255.291 157.75C255.252 157.789 255.23 157.841 255.229 157.895C255.229 157.95 255.251 158.002 255.29 158.041C255.328 158.079 255.38 158.101 255.435 158.101H257.822L255.703 160.225C255.665 160.264 255.643 160.317 255.643 160.371C255.643 160.426 255.665 160.478 255.703 160.518C255.742 160.555 255.794 160.575 255.849 160.575C255.903 160.575 255.955 160.555 255.995 160.518L258.11 158.394V160.782C258.11 160.836 258.132 160.889 258.171 160.927C258.209 160.966 258.262 160.988 258.316 160.988C258.371 160.988 258.423 160.966 258.462 160.927C258.5 160.889 258.522 160.836 258.522 160.782V158.394L260.642 160.518C260.681 160.555 260.734 160.575 260.788 160.575C260.842 160.575 260.894 160.555 260.934 160.518C260.972 160.478 260.993 160.426 260.993 160.371C260.993 160.317 260.972 160.264 260.934 160.225L258.814 158.101H261.198C261.252 158.101 261.304 158.079 261.343 158.041C261.382 158.002 261.403 157.95 261.403 157.895C261.4 157.842 261.377 157.793 261.339 157.757C261.301 157.721 261.25 157.701 261.198 157.701Z" fill="#BA1C51"/>
<path d="M269.841 157.701H267.458L269.578 155.581C269.616 155.542 269.637 155.49 269.637 155.435C269.637 155.38 269.616 155.328 269.578 155.289C269.559 155.269 269.536 155.254 269.511 155.244C269.486 155.233 269.459 155.228 269.432 155.228C269.404 155.228 269.378 155.233 269.353 155.244C269.327 155.254 269.305 155.269 269.286 155.289L267.166 157.412V155.021C267.166 154.966 267.144 154.914 267.105 154.875C267.067 154.836 267.015 154.814 266.96 154.814C266.906 154.816 266.854 154.838 266.816 154.876C266.777 154.914 266.755 154.966 266.754 155.021V157.412L264.639 155.276C264.619 155.257 264.597 155.242 264.572 155.231C264.546 155.221 264.52 155.215 264.492 155.215C264.465 155.215 264.438 155.221 264.413 155.231C264.388 155.242 264.365 155.257 264.346 155.276C264.308 155.316 264.287 155.368 264.287 155.423C264.287 155.477 264.308 155.53 264.346 155.569L266.466 157.689H264.079C264.024 157.69 263.973 157.712 263.934 157.75C263.896 157.789 263.874 157.841 263.873 157.895C263.873 157.95 263.895 158.002 263.933 158.041C263.972 158.079 264.024 158.101 264.079 158.101H266.466L264.346 160.225C264.308 160.264 264.287 160.317 264.287 160.371C264.287 160.426 264.308 160.478 264.346 160.518C264.386 160.555 264.438 160.575 264.492 160.575C264.547 160.575 264.599 160.555 264.639 160.518L266.754 158.394V160.782C266.754 160.836 266.776 160.889 266.814 160.927C266.853 160.966 266.905 160.988 266.96 160.988C267.015 160.988 267.067 160.966 267.105 160.927C267.144 160.889 267.166 160.836 267.166 160.782V158.394L269.286 160.518C269.325 160.555 269.377 160.575 269.432 160.575C269.486 160.575 269.538 160.555 269.578 160.518C269.616 160.478 269.637 160.426 269.637 160.371C269.637 160.317 269.616 160.264 269.578 160.225L267.458 158.101H269.841C269.896 158.101 269.948 158.079 269.987 158.041C270.025 158.002 270.047 157.95 270.047 157.895C270.044 157.842 270.021 157.793 269.983 157.757C269.944 157.721 269.894 157.701 269.841 157.701Z" fill="#BA1C51"/>
<path d="M278.485 157.701H276.102L278.221 155.581C278.259 155.542 278.281 155.49 278.281 155.435C278.281 155.38 278.259 155.328 278.221 155.289C278.202 155.269 278.179 155.254 278.154 155.244C278.129 155.233 278.102 155.228 278.075 155.228C278.048 155.228 278.021 155.233 277.996 155.244C277.971 155.254 277.948 155.269 277.929 155.289L275.809 157.412V155.021C275.809 154.966 275.788 154.914 275.749 154.875C275.711 154.836 275.658 154.814 275.604 154.814C275.549 154.816 275.498 154.838 275.459 154.876C275.421 154.914 275.399 154.966 275.398 155.021V157.412L273.282 155.276C273.263 155.257 273.24 155.242 273.215 155.231C273.19 155.221 273.163 155.215 273.136 155.215C273.109 155.215 273.082 155.221 273.057 155.231C273.032 155.242 273.009 155.257 272.99 155.276C272.952 155.316 272.931 155.368 272.931 155.423C272.931 155.477 272.952 155.53 272.99 155.569L275.11 157.689H272.722C272.668 157.69 272.616 157.712 272.578 157.75C272.54 157.789 272.518 157.841 272.517 157.895C272.517 157.95 272.538 158.002 272.577 158.041C272.615 158.079 272.668 158.101 272.722 158.101H275.11L272.99 160.225C272.952 160.264 272.931 160.317 272.931 160.371C272.931 160.426 272.952 160.478 272.99 160.518C273.03 160.555 273.082 160.575 273.136 160.575C273.19 160.575 273.243 160.555 273.282 160.518L275.398 158.394V160.782C275.398 160.836 275.419 160.889 275.458 160.927C275.497 160.966 275.549 160.988 275.604 160.988C275.658 160.988 275.711 160.966 275.749 160.927C275.788 160.889 275.809 160.836 275.809 160.782V158.394L277.929 160.518C277.969 160.555 278.021 160.575 278.075 160.575C278.129 160.575 278.182 160.555 278.221 160.518C278.259 160.478 278.281 160.426 278.281 160.371C278.281 160.317 278.259 160.264 278.221 160.225L276.102 158.101H278.485C278.539 158.101 278.592 158.079 278.63 158.041C278.669 158.002 278.691 157.95 278.691 157.895C278.687 157.842 278.664 157.793 278.626 157.757C278.588 157.721 278.537 157.701 278.485 157.701Z" fill="#BA1C51"/>
<path d="M287.129 157.701H284.745L286.865 155.581C286.903 155.542 286.924 155.49 286.924 155.435C286.924 155.38 286.903 155.328 286.865 155.289C286.846 155.269 286.823 155.254 286.798 155.244C286.773 155.233 286.746 155.228 286.719 155.228C286.692 155.228 286.665 155.233 286.64 155.244C286.615 155.254 286.592 155.269 286.573 155.289L284.453 157.412V155.021C284.453 154.966 284.432 154.914 284.393 154.875C284.354 154.836 284.302 154.814 284.247 154.814C284.193 154.816 284.141 154.838 284.103 154.876C284.065 154.914 284.043 154.966 284.042 155.021V157.412L281.926 155.276C281.907 155.257 281.884 155.242 281.859 155.231C281.834 155.221 281.807 155.215 281.78 155.215C281.753 155.215 281.726 155.221 281.701 155.231C281.676 155.242 281.653 155.257 281.634 155.276C281.596 155.316 281.575 155.368 281.575 155.423C281.575 155.477 281.596 155.53 281.634 155.569L283.754 157.689H281.366C281.312 157.69 281.26 157.712 281.222 157.75C281.183 157.789 281.161 157.841 281.16 157.895C281.16 157.95 281.182 158.002 281.221 158.041C281.259 158.079 281.312 158.101 281.366 158.101H283.754L281.634 160.225C281.596 160.264 281.575 160.317 281.575 160.371C281.575 160.426 281.596 160.478 281.634 160.518C281.673 160.555 281.726 160.575 281.78 160.575C281.834 160.575 281.886 160.555 281.926 160.518L284.042 158.394V160.782C284.042 160.836 284.063 160.889 284.102 160.927C284.14 160.966 284.193 160.988 284.247 160.988C284.302 160.988 284.354 160.966 284.393 160.927C284.432 160.889 284.453 160.836 284.453 160.782V158.394L286.573 160.518C286.613 160.555 286.665 160.575 286.719 160.575C286.773 160.575 286.826 160.555 286.865 160.518C286.903 160.478 286.924 160.426 286.924 160.371C286.924 160.317 286.903 160.264 286.865 160.225L284.745 158.101H287.129C287.183 158.101 287.236 158.079 287.274 158.041C287.313 158.002 287.334 157.95 287.334 157.895C287.331 157.842 287.308 157.793 287.27 157.757C287.232 157.721 287.181 157.701 287.129 157.701Z" fill="#BA1C51"/>
<path d="M295.772 157.701H293.389L295.509 155.581C295.547 155.542 295.568 155.49 295.568 155.435C295.568 155.38 295.547 155.328 295.509 155.289C295.49 155.269 295.467 155.254 295.442 155.244C295.417 155.233 295.39 155.228 295.363 155.228C295.335 155.228 295.309 155.233 295.283 155.244C295.258 155.254 295.236 155.269 295.216 155.289L293.097 157.412V155.021C293.097 154.966 293.075 154.914 293.036 154.875C292.998 154.836 292.946 154.814 292.891 154.814C292.837 154.816 292.785 154.838 292.747 154.876C292.708 154.914 292.686 154.966 292.685 155.021V157.412L290.57 155.276C290.55 155.257 290.528 155.242 290.503 155.231C290.477 155.221 290.451 155.215 290.423 155.215C290.396 155.215 290.369 155.221 290.344 155.231C290.319 155.242 290.296 155.257 290.277 155.276C290.239 155.316 290.218 155.368 290.218 155.423C290.218 155.477 290.239 155.53 290.277 155.569L292.397 157.689H290.01C289.956 157.69 289.904 157.712 289.865 157.75C289.827 157.789 289.805 157.841 289.804 157.895C289.804 157.95 289.826 158.002 289.864 158.041C289.903 158.079 289.955 158.101 290.01 158.101H292.397L290.277 160.225C290.239 160.264 290.218 160.317 290.218 160.371C290.218 160.426 290.239 160.478 290.277 160.518C290.317 160.555 290.369 160.575 290.423 160.575C290.478 160.575 290.53 160.555 290.57 160.518L292.685 158.394V160.782C292.685 160.836 292.707 160.889 292.745 160.927C292.784 160.966 292.836 160.988 292.891 160.988C292.946 160.988 292.998 160.966 293.036 160.927C293.075 160.889 293.097 160.836 293.097 160.782V158.394L295.216 160.518C295.256 160.555 295.308 160.575 295.363 160.575C295.417 160.575 295.469 160.555 295.509 160.518C295.547 160.478 295.568 160.426 295.568 160.371C295.568 160.317 295.547 160.264 295.509 160.225L293.389 158.101H295.772C295.827 158.101 295.879 158.079 295.918 158.041C295.956 158.002 295.978 157.95 295.978 157.895C295.975 157.842 295.952 157.793 295.913 157.757C295.875 157.721 295.825 157.701 295.772 157.701Z" fill="#BA1C51"/>
<path d="M304.416 157.701H302.033L304.152 155.581C304.19 155.542 304.212 155.49 304.212 155.435C304.212 155.38 304.19 155.328 304.152 155.289C304.133 155.269 304.111 155.254 304.086 155.244C304.06 155.233 304.034 155.228 304.006 155.228C303.979 155.228 303.952 155.233 303.927 155.244C303.902 155.254 303.879 155.269 303.86 155.289L301.74 157.412V155.021C301.74 154.966 301.719 154.914 301.68 154.875C301.642 154.836 301.589 154.814 301.535 154.814C301.48 154.816 301.429 154.838 301.39 154.876C301.352 154.914 301.33 154.966 301.329 155.021V157.412L299.213 155.276C299.194 155.257 299.171 155.242 299.146 155.231C299.121 155.221 299.094 155.215 299.067 155.215C299.04 155.215 299.013 155.221 298.988 155.231C298.963 155.242 298.94 155.257 298.921 155.276C298.883 155.316 298.862 155.368 298.862 155.423C298.862 155.477 298.883 155.53 298.921 155.569L301.041 157.689H298.653C298.599 157.69 298.547 157.712 298.509 157.75C298.471 157.789 298.449 157.841 298.448 157.895C298.448 157.95 298.469 158.002 298.508 158.041C298.546 158.079 298.599 158.101 298.653 158.101H301.041L298.921 160.225C298.883 160.264 298.862 160.317 298.862 160.371C298.862 160.426 298.883 160.478 298.921 160.518C298.961 160.555 299.013 160.575 299.067 160.575C299.121 160.575 299.174 160.555 299.213 160.518L301.329 158.394V160.782C301.329 160.836 301.351 160.889 301.389 160.927C301.428 160.966 301.48 160.988 301.535 160.988C301.589 160.988 301.642 160.966 301.68 160.927C301.719 160.889 301.74 160.836 301.74 160.782V158.394L303.86 160.518C303.9 160.555 303.952 160.575 304.006 160.575C304.061 160.575 304.113 160.555 304.152 160.518C304.19 160.478 304.212 160.426 304.212 160.371C304.212 160.317 304.19 160.264 304.152 160.225L302.033 158.101H304.416C304.471 158.101 304.523 158.079 304.561 158.041C304.6 158.002 304.622 157.95 304.622 157.895C304.619 157.842 304.596 157.793 304.557 157.757C304.519 157.721 304.468 157.701 304.416 157.701Z" fill="#BA1C51"/>
<path d="M313.06 157.701H310.676L312.796 155.581C312.834 155.542 312.855 155.49 312.855 155.435C312.855 155.38 312.834 155.328 312.796 155.289C312.777 155.269 312.754 155.254 312.729 155.244C312.704 155.233 312.677 155.228 312.65 155.228C312.623 155.228 312.596 155.233 312.571 155.244C312.546 155.254 312.523 155.269 312.504 155.289L310.384 157.412V155.021C310.384 154.966 310.362 154.914 310.324 154.875C310.285 154.836 310.233 154.814 310.178 154.814C310.124 154.816 310.072 154.838 310.034 154.876C309.996 154.914 309.974 154.966 309.973 155.021V157.412L307.857 155.276C307.838 155.257 307.815 155.242 307.79 155.231C307.765 155.221 307.738 155.215 307.711 155.215C307.684 155.215 307.657 155.221 307.632 155.231C307.607 155.242 307.584 155.257 307.565 155.276C307.527 155.316 307.505 155.368 307.505 155.423C307.505 155.477 307.527 155.53 307.565 155.569L309.684 157.689H307.297C307.243 157.69 307.191 157.712 307.153 157.75C307.114 157.789 307.092 157.841 307.091 157.895C307.091 157.95 307.113 158.002 307.152 158.041C307.19 158.079 307.243 158.101 307.297 158.101H309.684L307.565 160.225C307.527 160.264 307.505 160.317 307.505 160.371C307.505 160.426 307.527 160.478 307.565 160.518C307.604 160.555 307.656 160.575 307.711 160.575C307.765 160.575 307.817 160.555 307.857 160.518L309.973 158.394V160.782C309.973 160.836 309.994 160.889 310.033 160.927C310.071 160.966 310.124 160.988 310.178 160.988C310.233 160.988 310.285 160.966 310.324 160.927C310.362 160.889 310.384 160.836 310.384 160.782V158.394L312.504 160.518C312.543 160.555 312.596 160.575 312.65 160.575C312.704 160.575 312.756 160.555 312.796 160.518C312.834 160.478 312.855 160.426 312.855 160.371C312.855 160.317 312.834 160.264 312.796 160.225L310.676 158.101H313.06C313.114 158.101 313.166 158.079 313.205 158.041C313.244 158.002 313.265 157.95 313.265 157.895C313.262 157.842 313.239 157.793 313.201 157.757C313.163 157.721 313.112 157.701 313.06 157.701Z" fill="#BA1C51"/>
<path d="M379.324 207.866C379.312 207.368 379.25 206.872 379.138 206.386C378.768 204.992 377.932 203.306 376.558 202.885C375.138 202.45 373.767 201.869 372.466 201.153C372.219 196.732 373.232 192.209 372.129 187.924C371.717 186.357 371.038 184.856 370.857 183.252C370.631 181.256 371.174 179.128 370.38 177.289C369.754 175.837 368.379 174.815 366.901 174.278C365.424 173.742 363.831 173.598 362.263 173.454C360.287 173.293 353.891 172.534 351.66 174.303C351.506 174.423 351.368 174.561 351.248 174.716C351.199 174.784 351.155 174.855 351.116 174.93L351.096 174.963C351.051 175.049 351.014 175.139 350.985 175.231C350.954 175.332 350.93 175.436 350.915 175.54C350.915 175.573 350.915 175.606 350.915 175.639C350.915 175.672 350.915 175.784 350.915 175.858V175.969C350.915 176.043 350.915 176.118 350.915 176.196C350.915 176.274 350.915 176.254 350.915 176.283C350.944 176.654 350.997 177.025 350.997 177.392C351.002 177.575 350.985 177.757 350.948 177.936C350.811 178.423 350.578 178.877 350.264 179.272L350.19 179.38C350.145 179.446 350.1 179.507 350.059 179.573C350.017 179.639 349.985 179.689 349.952 179.747C349.919 179.804 349.886 179.841 349.857 179.895C349.817 179.963 349.781 180.033 349.75 180.105C349.75 180.147 349.705 180.184 349.688 180.225C349.637 180.336 349.595 180.452 349.565 180.571C349.468 180.93 349.46 181.306 349.54 181.668C349.651 182.131 349.842 182.57 350.104 182.967C350.207 183.136 350.318 183.301 350.433 183.466L350.721 183.858C350.668 184.241 350.639 184.626 350.635 185.013C350.635 186.304 350.928 187.578 351.491 188.74C352.054 189.901 352.873 190.92 353.887 191.718C354.05 193.459 354.032 195.213 353.833 196.951C353.796 197.314 353.751 197.681 353.701 198.044C353.652 198.407 353.615 198.646 353.566 198.947C352.963 199.033 352.349 198.987 351.767 198.811C351.498 198.691 351.223 198.585 350.944 198.493C349.746 198.192 348.523 199.388 347.338 199.025C347.338 199.083 347.305 199.136 347.284 199.19C347.037 199.036 346.753 198.952 346.461 198.947C345.757 198.914 345.185 198.402 344.675 197.92L343.107 196.44C343.004 196.349 342.913 196.246 342.835 196.134C342.751 195.974 342.687 195.804 342.646 195.627C342.382 194.774 341.744 194.093 341.127 193.446C341.01 193.298 340.855 193.185 340.678 193.12C340.61 193.11 340.541 193.11 340.472 193.12C340.43 193.062 340.385 193.007 340.337 192.955C340.23 192.832 340.116 192.717 339.995 192.609C339.246 191.916 339.172 191.322 338.521 190.547C337.954 189.807 337.44 189.029 336.982 188.217C336.929 187.784 336.854 187.338 336.764 186.889C336.556 185.86 336.255 184.852 335.862 183.879L335.039 182.052L334.945 182.147C334.348 181.256 333.71 180.769 333.138 180.885C332.179 181.083 331.705 182.947 331.858 185.384L332.187 187.858C332.187 187.92 332.216 187.982 332.232 188.044C332.173 188.337 332.143 188.635 332.142 188.934C332.142 189.281 332.463 189.536 332.631 189.846C332.901 190.265 333.044 190.753 333.043 191.252C333.022 191.429 332.969 191.598 332.961 191.771C332.983 192.159 333.117 192.531 333.348 192.844L335.406 196.308L335.817 197.033L335.842 197.066C335.972 197.32 336.161 197.538 336.393 197.701C336.474 198.569 336.704 199.416 337.073 200.205C337.143 200.361 337.221 200.51 337.303 200.658C337.856 201.569 338.508 202.417 339.246 203.186L340.225 204.287C341.193 205.367 342.16 206.452 343.21 207.45C343.585 207.85 344.039 208.169 344.543 208.386C344.79 208.485 345.059 208.517 345.322 208.478C345.585 208.44 345.833 208.333 346.041 208.168C346.041 208.679 346.041 209.19 346.041 209.702C346.194 209.711 346.342 209.761 346.469 209.847C346.596 209.932 346.698 210.05 346.764 210.189C346.83 210.327 346.859 210.48 346.846 210.633C346.833 210.786 346.78 210.933 346.692 211.058C345.827 213.281 344.955 215.524 343.646 217.516C344.57 218.064 345.426 218.719 346.198 219.467C346.698 220.022 347.144 220.626 347.527 221.269C347.564 221.574 347.593 221.875 347.61 222.176C347.914 227.091 346.017 231.97 344.317 236.654C343.827 237.982 343.292 239.372 343.333 240.753C343.01 240.953 342.702 241.175 342.411 241.417C342.749 242.3 342.617 243.088 342.58 244.032C342.568 244.598 342.452 245.157 342.238 245.681C342.059 246.045 341.861 246.399 341.645 246.741C340.579 248.626 340.345 250.865 340.131 253.018C340.003 254.317 340.505 255.904 339.917 257.067C338.9 259.063 337.999 261.191 337.859 263.409C337.854 263.909 337.79 264.406 337.669 264.89C337.542 265.302 337.315 265.653 337.2 266.057C337.082 266.598 337.054 267.156 337.118 267.706C337.196 269.683 336.903 271.657 336.253 273.525C335.739 274.997 335.171 276.572 335.574 278.086C334.581 279.131 333.968 280.48 333.833 281.917C333.823 282.284 333.779 282.65 333.702 283.01C333.576 283.377 333.41 283.73 333.208 284.061C332.379 285.573 331.991 287.288 332.088 289.01C330.853 290.688 330.236 292.758 329.869 294.816C329.503 296.874 329.343 298.969 328.873 301.002C328.248 303.69 327.116 306.408 326.894 309.163C325.56 310.016 324.984 311.67 324.729 313.233C324.473 314.796 324.432 316.437 323.778 317.88C323.44 318.631 322.955 319.303 322.633 320.07C322.408 320.681 322.243 321.312 322.14 321.954C321.942 322.961 321.769 324.082 322.012 325.047C321.663 325.418 321.255 325.728 320.806 325.967C320.872 325.711 320.925 325.456 320.971 325.196C319.909 326.161 317.982 325.823 317.134 326.981C316.88 327.355 316.781 327.813 316.857 328.259C316.934 328.704 317.181 329.103 317.546 329.369C317.811 329.531 318.098 329.655 318.398 329.736C320.456 330.396 322.572 331.06 324.687 330.709C324.938 330.682 325.18 330.605 325.399 330.482C325.675 330.279 325.901 330.017 326.062 329.715C326.379 329.212 326.696 328.709 327.009 328.206C327.767 328.433 328.538 328.613 329.318 328.746C329.396 329.406 329.454 330.066 329.483 330.726C329.894 330.808 330.446 330.833 330.639 330.449C330.698 330.304 330.722 330.148 330.709 329.992C330.709 329.699 330.75 329.311 330.775 328.915H330.857C332.113 328.966 333.363 328.713 334.5 328.177C334.06 324.524 335.513 320.952 336.772 317.497C338.102 313.86 339.242 310.156 340.39 306.453C341.213 303.847 342.123 301.323 342.93 298.713C343.945 295.414 344.964 292.115 345.988 288.816C346.432 287.364 346.881 285.929 347.391 284.486C348.466 281.565 349.741 278.723 351.207 275.979C351.619 275.199 352.03 274.428 352.368 273.62C352.779 272.634 353.072 271.603 353.401 270.585C354.118 268.495 354.982 266.458 355.986 264.49C356.015 264.436 356.035 264.387 356.064 264.337C356.397 265.702 356.731 267.088 356.953 268.461C357.254 270.145 357.278 271.867 357.023 273.558C356.825 274.709 356.451 275.847 356.496 277.014C356.558 278.626 357.418 280.09 357.842 281.645C358.115 282.808 358.27 283.996 358.303 285.191C358.418 287.047 359.423 289.129 358.715 290.849C356.513 296.296 357.579 302.449 356.323 308.169C355.677 311.105 353.697 313.864 353.854 316.866C353.963 318.996 354.15 321.121 354.413 323.241C354.477 323.91 354.651 324.563 354.928 325.175C355.092 325.497 355.281 325.806 355.492 326.099C355.311 326.169 355.158 326.355 355.027 326.746C354.689 327.777 355.027 329.056 355.94 329.633C356.313 329.832 356.714 329.972 357.13 330.045C357.69 330.205 358.269 330.285 358.851 330.284C359.032 330.275 359.212 330.253 359.39 330.218C360.026 330.486 360.676 330.72 361.337 330.92C361.337 331.089 361.37 331.258 361.39 331.427C361.391 331.515 361.411 331.602 361.448 331.683C361.485 331.763 361.538 331.834 361.604 331.893C361.707 331.941 361.821 331.961 361.933 331.95H364.168C364.168 331.765 364.168 331.575 364.168 331.39C364.424 331.416 364.683 331.389 364.927 331.31C365.172 331.23 365.397 331.1 365.588 330.928C365.786 330.675 365.927 330.383 366 330.07C366.609 328 367.214 325.928 367.815 323.856C368.536 321.564 368.836 319.161 368.7 316.763C367.906 309.163 369.651 301.538 369.083 293.917C368.741 289.337 368.976 284.731 369.783 280.21C369.968 279.187 370.194 278.148 370.277 277.129C370.458 275.208 370.235 273.265 370.371 271.356C370.417 270.688 370.507 270.024 370.589 269.36C371.153 265.239 371.449 261.086 371.474 256.927C371.462 255.549 371.377 254.172 371.219 252.803C371.648 252.694 372.038 252.465 372.343 252.143C372.709 251.665 372.615 250.993 372.61 250.382C372.61 248.923 373.224 247.545 373.718 246.168C374.352 244.268 374.871 242.332 375.273 240.37C375.699 238.789 375.931 237.162 375.965 235.525C375.965 235.36 375.957 235.195 375.94 235.03C376.095 234.922 376.225 234.781 376.319 234.617C376.426 234.376 376.493 234.118 376.517 233.854C376.665 232.803 376.817 231.747 376.965 230.691C377.075 229.935 377.183 229.181 377.29 228.428L378.599 219.277C378.71 218.481 378.826 217.689 378.937 216.898L379.278 214.53C379.315 214.25 379.357 213.97 379.385 213.706C380.39 212.023 379.431 209.78 379.324 207.866ZM368.404 242.127C367.918 240.972 367.465 239.789 367.581 238.543H367.535C367.644 238.16 367.625 237.752 367.482 237.38C367.354 237.079 367.132 236.824 366.996 236.523C366.85 236.155 366.775 235.763 366.774 235.368C366.672 232.86 366.869 230.348 367.362 227.887C367.416 227.599 367.474 227.306 367.527 227.017C367.7 226.917 367.858 226.794 367.996 226.65C368.213 226.403 368.392 226.125 368.527 225.825C368.992 224.889 369.416 223.937 369.807 222.968C369.935 222.654 370.12 222.291 370.437 222.213C370.371 224.625 370.618 227.087 369.639 229.265C369.453 229.616 369.314 229.99 369.227 230.378C369.136 230.993 369.392 231.615 369.301 232.226C369.256 232.543 369.12 232.836 369.067 233.149C369.026 233.303 369.027 233.465 369.068 233.619C369.11 233.772 369.192 233.912 369.305 234.024C369.36 234.062 369.419 234.092 369.482 234.114C369.458 234.279 369.437 234.448 369.421 234.609C369.388 234.947 369.371 235.265 369.351 235.463C369.256 236.471 369.219 237.485 369.239 238.498C369.239 239.591 369.281 240.683 369.264 241.797C369.279 242.116 369.226 242.436 369.108 242.733C369.026 242.886 368.92 243.025 368.795 243.145C368.675 242.774 368.544 242.448 368.404 242.127Z" fill="url(#paint0_linear)"/>
<path d="M335.913 194.278C337.169 194.02 337.596 190.923 336.867 187.36C336.139 183.797 334.53 181.117 333.274 181.375C332.018 181.633 331.59 184.73 332.319 188.293C333.048 191.857 334.657 194.536 335.913 194.278Z" fill="#FBBEBE"/>
<path d="M355.093 326.825C354.755 327.847 355.093 329.126 356.006 329.683C356.376 329.88 356.775 330.019 357.188 330.095C357.746 330.253 358.324 330.332 358.904 330.33C359.616 330.297 360.299 330.017 361.011 329.918C361.094 329.897 361.181 329.909 361.254 329.951C361.29 329.989 361.317 330.035 361.332 330.085C361.348 330.135 361.352 330.187 361.345 330.239C361.352 330.645 361.383 331.049 361.435 331.452C361.436 331.54 361.455 331.627 361.492 331.708C361.529 331.788 361.583 331.86 361.649 331.918C361.752 331.966 361.866 331.986 361.979 331.975H364.21C364.26 330.012 364.045 328.05 363.572 326.144C363.541 325.998 363.485 325.859 363.407 325.732C363.218 325.524 362.969 325.38 362.695 325.32C362.149 325.092 361.56 324.989 360.97 325.019C360.25 325.113 359.649 325.579 359.036 325.967C358.422 326.355 357.587 326.697 356.842 326.499C356.097 326.301 355.475 325.678 355.093 326.825Z" fill="#3F3D56"/>
<path d="M322.337 325.014C321.71 325.686 320.941 326.211 320.086 326.548L319.707 326.729C319.655 326.749 319.61 326.785 319.579 326.832C319.572 326.864 319.572 326.897 319.579 326.93C319.586 326.962 319.6 326.992 319.62 327.018C319.936 327.506 320.401 327.878 320.947 328.077C321.492 328.275 322.087 328.29 322.642 328.119C322.887 328.057 323.114 327.939 323.304 327.772C323.618 327.4 323.798 326.932 323.815 326.445C323.939 325.942 323.918 325.414 323.753 324.923C323.181 323.632 322.971 324.218 322.337 325.014Z" fill="#FBBEBE"/>
<path d="M330.89 330.095C330.903 330.251 330.879 330.407 330.82 330.552C330.627 330.932 330.088 330.911 329.668 330.829C329.604 329.43 329.435 328.037 329.161 326.664C328.363 326.627 327.787 327.385 327.359 328.066L326.256 329.818C326.096 330.12 325.871 330.382 325.597 330.585C325.376 330.706 325.135 330.783 324.885 330.812C322.777 331.163 320.649 330.499 318.616 329.839C318.317 329.758 318.03 329.636 317.764 329.476C317.401 329.209 317.156 328.812 317.079 328.367C317.002 327.923 317.1 327.466 317.353 327.093C318.205 325.938 320.118 326.268 321.18 325.311C321.07 325.984 320.887 326.644 320.637 327.278C322.057 327.064 323.012 325.761 324.156 324.89C324.444 324.646 324.79 324.481 325.161 324.412C325.438 324.389 325.717 324.418 325.984 324.499C327.303 324.832 328.538 325.44 329.606 326.284C330.038 326.627 330.713 327.109 330.903 327.637C331.104 328.268 330.89 329.422 330.89 330.095Z" fill="#3F3D56"/>
<path d="M359.204 194.035C363.901 194.035 367.708 190.221 367.708 185.516C367.708 180.81 363.901 176.996 359.204 176.996C354.508 176.996 350.701 180.81 350.701 185.516C350.701 190.221 354.508 194.035 359.204 194.035Z" fill="#FBBEBE"/>
<path d="M375.957 235.816C375.922 237.445 375.692 239.063 375.269 240.637C374.867 242.59 374.347 244.518 373.714 246.41C373.224 247.783 372.61 249.16 372.615 250.616C372.615 251.222 372.713 251.894 372.343 252.373C372.013 252.709 371.597 252.947 371.141 253.061C370.913 253.122 370.703 253.235 370.527 253.392C370.351 253.549 370.215 253.745 370.128 253.965C369.742 253.386 369.453 252.748 369.272 252.076C368.534 249.811 367.848 247.533 367.214 245.243C367.156 245.111 367.131 244.967 367.141 244.823C367.151 244.68 367.196 244.54 367.272 244.418C367.376 244.327 367.498 244.258 367.63 244.216C368.052 244.044 368.438 243.795 368.77 243.482C368.926 243.344 369.054 243.177 369.149 242.991C369.268 242.696 369.323 242.378 369.309 242.059C369.309 240.966 369.309 239.878 369.281 238.785C369.263 237.776 369.302 236.767 369.396 235.762C369.396 235.564 369.433 235.247 369.466 234.909C369.528 234.261 369.651 233.511 370.001 233.259C370.524 232.909 372.088 233.379 372.68 233.461C373.701 233.601 374.738 233.766 375.735 233.96C375.879 234.568 375.954 235.191 375.957 235.816Z" fill="#3F3D56"/>
<path d="M341.621 195.052C341.291 195.712 340.501 196.03 339.892 196.446L337.805 197.881C337.666 198.007 337.502 198.104 337.325 198.164C337.147 198.225 336.959 198.25 336.772 198.236C336.602 198.173 336.447 198.077 336.314 197.953C336.182 197.829 336.076 197.68 336.002 197.514C336.004 197.503 336.004 197.492 336.002 197.481L335.57 196.756L333.512 193.3C333.283 192.99 333.15 192.62 333.129 192.236C333.129 192.059 333.191 191.894 333.207 191.716C333.213 191.218 333.07 190.73 332.796 190.314C332.631 190.005 332.302 189.749 332.31 189.403C332.294 188.948 332.373 188.494 332.541 188.071C332.757 187.679 333.066 187.348 333.442 187.106C333.636 186.966 333.833 186.834 334.039 186.694C334.148 186.619 334.269 186.563 334.397 186.529C334.739 186.459 335.076 186.743 335.422 186.755C336.908 187.753 337.48 189.642 338.649 191.003C339.307 191.778 339.373 192.372 340.118 193.065C340.238 193.172 340.353 193.287 340.464 193.407C340.611 193.568 340.736 193.748 340.835 193.943C340.97 194.298 341.789 194.714 341.621 195.052Z" fill="#3F3D56"/>
<path d="M356.216 194.039C356.829 195.338 357.307 196.765 357.13 198.192C357.094 198.578 356.971 198.952 356.772 199.285C356.179 200.196 354.936 200.361 353.854 200.415C353.626 200.395 353.396 200.422 353.178 200.493C352.961 200.564 352.759 200.677 352.586 200.827C352.441 201.038 352.37 201.29 352.385 201.546C352.399 201.801 352.497 202.044 352.664 202.237C353.012 202.609 353.444 202.892 353.924 203.062C355.636 203.817 357.484 204.439 359.344 204.266C360.209 204.184 361.048 203.932 361.909 203.804C362.846 203.703 363.789 203.65 364.732 203.648C365.852 203.606 366.967 203.495 368.083 203.384L371.038 203.091C371.2 203.093 371.356 203.036 371.478 202.93C371.697 202.674 371.417 202.299 371.145 202.105C369.577 200.943 367.581 200.143 366.687 198.394C366.276 197.569 366.148 196.588 365.844 195.697C365.539 194.806 365.053 194.002 364.864 193.095C364.763 192.299 364.718 191.497 364.728 190.695C364.738 189.886 364.445 189.103 363.905 188.501C363.316 187.953 362.464 187.812 361.666 187.779C359.698 187.693 357.603 188.163 356.208 189.553C355.833 189.928 355.512 190.377 355.125 190.716C354.739 191.054 354.212 191.153 354.467 191.598C354.722 192.043 355.224 192.32 355.496 192.712C355.771 193.134 356.012 193.578 356.216 194.039Z" fill="#FBBEBE"/>
<path d="M372.981 206.036C372.462 209.212 371.618 212.325 370.462 215.327C369.881 216.683 369.386 218.074 368.98 219.492C368.663 220.77 368.725 222.14 368.433 223.422C368.07 225.018 367.708 226.618 367.416 228.226C366.926 230.682 366.729 233.188 366.831 235.69C366.832 236.084 366.908 236.475 367.054 236.841C367.19 237.138 367.408 237.393 367.535 237.699C367.631 237.967 367.67 238.251 367.65 238.535C367.63 238.819 367.552 239.096 367.42 239.348C367.209 239.82 366.922 240.255 366.572 240.635C362.736 241.781 358.632 241.406 354.636 241.649C350.952 241.872 347.227 242.631 343.596 242C343.185 240.35 343.872 238.622 344.461 237.014C346.169 232.342 348.058 227.476 347.754 222.581C347.722 222.01 347.657 221.441 347.56 220.878C346.963 217.41 347.614 213.818 348.655 210.457C349.301 208.362 349.272 206.131 349.124 203.95C349.051 203.241 349.041 202.528 349.095 201.818C349.155 201.093 349.424 200.401 349.869 199.826C349.869 199.797 349.906 199.768 349.927 199.739C349.947 199.71 350.108 199.715 350.236 199.739C350.268 199.753 350.303 199.76 350.339 199.76C350.374 199.76 350.409 199.753 350.441 199.739L350.487 199.71C350.504 199.698 350.525 199.691 350.546 199.691C350.568 199.691 350.589 199.698 350.606 199.71C350.701 199.768 350.754 199.966 350.96 200.003C351.264 200.049 351.571 200.078 351.878 200.09C352.248 200.101 352.615 200.153 352.973 200.247H353.022C353.557 200.337 354.107 200.29 354.619 200.11C354.96 200.025 355.289 199.898 355.599 199.731C355.689 199.632 356.257 199.541 356.373 199.471C356.747 199.244 356.665 198.181 356.743 197.743C356.786 197.305 356.89 196.875 357.052 196.465C357.239 196.163 357.498 195.911 357.805 195.732C358.112 195.553 358.458 195.452 358.813 195.438C359.522 195.421 360.231 195.485 360.925 195.628C362.46 195.846 364.033 195.809 365.539 196.164C366.296 196.341 367.124 196.609 367.819 196.263C368.009 196.308 368.037 196.473 368.037 196.675C368.02 196.867 367.981 197.057 367.922 197.24C367.659 198.378 368.552 199.426 369.375 200.251C369.723 200.639 370.133 200.967 370.589 201.22C371.001 201.409 371.413 201.488 371.824 201.694C372.158 201.872 372.441 202.132 372.647 202.449C372.885 202.812 373.044 203.22 373.117 203.649C373.205 204.447 373.159 205.254 372.981 206.036Z" fill="#3F3D56"/>
<path opacity="0.1" d="M372.981 206.036C372.462 209.211 371.618 212.325 370.462 215.327C369.881 216.682 369.386 218.073 368.98 219.492C368.663 220.77 368.725 222.139 368.433 223.422C368.07 225.018 367.708 226.618 367.416 228.226C367.329 228.275 367.239 228.321 367.148 228.362C366.636 228.607 366.094 228.782 365.535 228.882C364.531 229.003 363.515 228.97 362.522 228.783L356.648 227.995C354.302 227.677 351.804 227.294 350.063 225.702C349.095 224.828 348.461 223.673 347.766 222.56C347.734 221.989 347.669 221.42 347.572 220.857C346.976 217.389 347.626 213.797 348.667 210.436C349.313 208.341 349.285 206.11 349.136 203.929C349.063 203.22 349.054 202.507 349.108 201.797C349.167 201.072 349.436 200.38 349.881 199.805C350.002 199.77 350.124 199.742 350.248 199.722C350.331 199.706 350.415 199.695 350.499 199.689H350.618C350.757 199.69 350.895 199.707 351.03 199.739C351.31 199.828 351.585 199.934 351.853 200.056H351.902C352.255 200.173 352.626 200.226 352.997 200.213C353.541 200.213 354.1 200.127 354.644 200.089C355.315 199.984 356.002 200.108 356.595 200.44C356.977 200.748 357.34 201.08 357.681 201.434C358.093 201.758 358.557 202.01 359.052 202.18C362.595 203.535 366.526 203.452 370.009 201.949C370.344 201.759 370.723 201.662 371.108 201.669C371.392 201.725 371.661 201.84 371.898 202.007C372.145 202.151 372.388 202.292 372.639 202.419C372.876 202.783 373.036 203.191 373.108 203.619C373.203 204.426 373.16 205.243 372.981 206.036Z" fill="black"/>
<path d="M376.566 203.306C374.927 202.805 373.352 202.113 371.874 201.244C371.636 201.078 371.367 200.963 371.083 200.906C370.698 200.902 370.317 200.998 369.98 201.187C366.499 202.69 362.569 202.772 359.028 201.418C358.533 201.246 358.07 200.994 357.657 200.671C357.315 200.319 356.952 199.987 356.57 199.677C355.216 198.799 353.343 199.83 351.829 199.265C351.56 199.145 351.285 199.039 351.005 198.948C349.808 198.647 348.589 199.842 347.412 199.48C346.974 200.672 346.65 201.904 346.445 203.158C346.277 204.598 346.188 206.046 346.177 207.496C346.177 208.366 346.136 209.236 346.177 210.106C346.322 210.13 346.461 210.184 346.584 210.264C346.708 210.344 346.813 210.449 346.894 210.572C346.948 210.716 346.97 210.87 346.958 211.023C346.947 211.176 346.902 211.325 346.828 211.459C345.967 213.673 345.095 215.913 343.79 217.896C344.71 218.445 345.563 219.098 346.334 219.843C347.774 221.368 348.482 223.509 350.038 224.919C351.792 226.507 354.29 226.894 356.624 227.208L362.497 227.995C363.492 228.182 364.509 228.217 365.514 228.098C366.072 227.997 366.613 227.82 367.124 227.575C367.457 227.435 367.762 227.233 368.021 226.981C368.238 226.734 368.417 226.456 368.552 226.156C369.017 225.224 369.441 224.272 369.832 223.307C369.968 222.964 370.174 222.564 370.544 222.535C372.726 220.564 374.784 218.544 376.965 216.573C377.842 215.845 378.628 215.014 379.307 214.098C380.39 212.494 379.406 210.222 379.307 208.284C379.295 207.788 379.233 207.295 379.122 206.812C378.768 205.405 377.937 203.723 376.566 203.306Z" fill="#BA1C51"/>
<path opacity="0.1" d="M341.621 195.053C341.291 195.713 340.501 196.03 339.892 196.447L337.805 197.882C337.666 198.008 337.502 198.104 337.325 198.165C337.147 198.226 336.959 198.25 336.772 198.236C336.602 198.174 336.447 198.077 336.315 197.954C336.182 197.83 336.076 197.68 336.002 197.515C336.002 197.42 336.002 197.317 336.002 197.218C335.987 196.884 336.031 196.55 336.134 196.232C336.338 195.766 336.655 195.358 337.056 195.045C337.831 194.309 338.753 193.747 339.76 193.395C339.917 193.334 340.088 193.317 340.254 193.346C340.318 193.362 340.379 193.389 340.435 193.424C340.583 193.585 340.707 193.765 340.806 193.96C340.97 194.298 341.79 194.715 341.621 195.053Z" fill="black"/>
<path d="M346.535 199.4C345.836 199.367 345.264 198.86 344.753 198.378L343.193 196.926C343.089 196.838 342.997 196.735 342.922 196.621C342.837 196.46 342.774 196.29 342.732 196.114C342.401 195.281 341.883 194.535 341.217 193.936C341.101 193.789 340.946 193.677 340.769 193.615C340.601 193.584 340.429 193.601 340.271 193.664C339.263 194.016 338.341 194.578 337.567 195.314C337.166 195.627 336.849 196.035 336.645 196.501C336.541 196.819 336.496 197.153 336.513 197.487C336.523 198.576 336.767 199.651 337.229 200.637C337.299 200.79 337.377 200.943 337.46 201.091C338.009 202 338.658 202.846 339.394 203.611L340.374 204.708C341.337 205.788 342.3 206.868 343.345 207.862C343.72 208.263 344.174 208.58 344.679 208.794C344.932 208.898 345.209 208.929 345.479 208.886C345.749 208.842 346.002 208.725 346.21 208.547C346.407 208.318 346.556 208.051 346.647 207.763C347.28 206.114 347.881 204.398 347.918 202.621C347.927 201.909 347.897 201.197 347.828 200.489C347.766 199.738 347.235 199.446 346.535 199.4Z" fill="#BA1C51"/>
<path d="M371.478 257.134C371.455 261.282 371.16 265.424 370.598 269.534C370.515 270.198 370.425 270.862 370.379 271.526C370.244 273.451 370.466 275.385 370.285 277.299C370.19 278.334 369.976 279.361 369.795 280.371C368.991 284.88 368.756 289.473 369.095 294.041C369.663 301.641 367.922 309.246 368.712 316.825C368.808 318.299 368.727 319.779 368.47 321.233C368.322 322.136 368.109 323.026 367.832 323.897C367.231 325.962 366.627 328.024 366.021 330.083C365.949 330.396 365.809 330.689 365.609 330.941C365.399 331.123 365.153 331.258 364.887 331.337C364.62 331.416 364.34 331.437 364.066 331.399C361.691 331.324 359.456 330.297 357.299 329.295C357.051 329.197 356.821 329.058 356.62 328.883C356.171 328.417 356.208 327.683 356.01 327.069C355.813 326.454 355.278 325.877 354.973 325.246C354.723 324.649 354.571 324.015 354.525 323.37C354.25 321.258 354.064 319.139 353.965 317.011C353.808 314.017 355.784 311.262 356.434 308.351C357.669 302.627 356.624 296.491 358.818 291.06C359.509 289.344 358.505 287.266 358.406 285.419C358.37 284.227 358.216 283.041 357.945 281.88C357.533 280.33 356.665 278.87 356.603 277.262C356.558 276.099 356.932 274.965 357.126 273.818C357.383 272.131 357.359 270.413 357.056 268.734C356.838 267.348 356.504 265.963 356.171 264.61L356.097 264.763C355.094 266.726 354.232 268.759 353.516 270.845C353.187 271.856 352.899 272.886 352.487 273.868C352.15 274.693 351.734 275.447 351.326 276.223C349.865 278.957 348.593 281.788 347.519 284.697C347.009 286.124 346.56 287.584 346.116 289.014L343.066 298.912C342.242 301.514 341.341 304.029 340.534 306.627C339.394 310.338 338.254 314.017 336.929 317.646C335.694 321.089 334.224 324.656 334.665 328.293C333.53 328.828 332.283 329.081 331.03 329.031C328.909 328.843 326.828 328.338 324.856 327.53C324.07 327.238 323.255 326.908 322.724 326.26C321.81 325.143 322.037 323.506 322.313 322.083C322.416 321.442 322.582 320.812 322.806 320.203C323.119 319.444 323.63 318.772 323.951 318.021C324.597 316.582 324.638 314.953 324.893 313.39C325.148 311.827 325.716 310.178 327.05 309.328C327.276 306.582 328.404 303.872 329.026 301.188C329.495 299.155 329.651 297.064 330.022 295.002C330.392 292.94 330.989 290.878 332.232 289.208C332.134 287.486 332.522 285.771 333.352 284.26C333.552 283.928 333.716 283.575 333.842 283.208C333.918 282.85 333.962 282.486 333.973 282.12C334.109 280.687 334.721 279.341 335.71 278.297C335.299 276.792 335.871 275.221 336.385 273.761C337.033 271.898 337.326 269.93 337.25 267.959C337.186 267.408 337.212 266.851 337.328 266.309C337.443 265.897 337.669 265.546 337.801 265.15C337.919 264.665 337.981 264.169 337.986 263.67C338.147 261.439 339.048 259.336 340.044 257.344C340.637 256.181 340.135 254.602 340.258 253.307C340.472 251.154 340.707 248.927 341.773 247.051C341.971 246.696 342.185 246.358 342.362 245.991C342.576 245.467 342.692 244.908 342.703 244.342C342.74 243.397 342.872 242.614 342.535 241.736C344.737 239.9 347.741 239.385 350.606 239.261C353.471 239.138 356.369 239.397 359.172 238.787C359.995 238.601 360.818 238.346 361.686 238.222C363.658 237.933 365.658 238.383 367.605 238.828C367.469 240.065 367.922 241.253 368.428 242.404C370.405 247.064 371.442 252.07 371.478 257.134Z" fill="#33313F"/>
<path opacity="0.1" d="M361.785 258.078L357.056 268.734C356.838 267.348 356.504 265.963 356.171 264.61L356.097 264.763V264.54L358.674 258.862L361.785 258.078Z" fill="black"/>
<path opacity="0.1" d="M375.957 235.816C375.684 236.02 375.358 236.142 375.018 236.166C374.497 236.185 373.976 236.114 373.479 235.956L369.775 235.028C369.658 235 369.545 234.96 369.437 234.909C369.499 234.261 369.622 233.511 369.972 233.259C370.495 232.909 372.059 233.379 372.652 233.461C373.672 233.601 374.71 233.766 375.706 233.96C375.86 234.567 375.944 235.19 375.957 235.816Z" fill="black"/>
<path d="M379.089 211.281C379.167 211.624 379.278 211.962 379.344 212.308C379.455 213.158 379.426 214.02 379.258 214.861L378.92 217.22L378.583 219.591L377.278 228.717L376.957 230.976L376.504 234.131C376.483 234.394 376.416 234.65 376.306 234.89C376.172 235.114 375.983 235.301 375.758 235.434C375.533 235.567 375.279 235.642 375.018 235.653C374.497 235.669 373.977 235.598 373.479 235.442L369.774 234.51C369.612 234.481 369.458 234.418 369.322 234.325C369.208 234.214 369.127 234.075 369.085 233.922C369.043 233.769 369.042 233.608 369.083 233.455C369.136 233.141 369.272 232.849 369.317 232.535C369.408 231.925 369.153 231.298 369.243 230.692C369.332 230.306 369.47 229.933 369.655 229.583C370.89 226.848 370.174 223.657 370.593 220.688C370.971 218.351 371.956 216.155 373.45 214.32C374.372 213.163 375.43 212.121 376.603 211.219C377.064 210.861 377.796 210.123 378.377 209.982C379.122 209.826 378.965 210.762 379.089 211.281Z" fill="#BA1C51"/>
<path d="M351.055 175.759C350.783 176.625 351.207 177.578 351.013 178.46C350.804 179.434 349.89 180.11 349.63 181.087C349.219 182.576 350.478 183.933 351.4 185.17C354.817 189.764 354.368 196.123 353.199 201.727C352.259 206.223 350.958 210.636 349.309 214.923C348.795 216.255 348.227 217.607 347.214 218.605C349.108 218.061 351.12 217.512 353.018 218.04C355.422 218.708 357.496 221.047 359.933 220.515C361.398 220.189 362.427 218.886 363.744 218.164C366.214 216.832 369.19 217.669 371.944 218.098C372.537 218.238 373.158 218.207 373.734 218.007C374.174 217.77 374.548 217.425 374.821 217.005C376.05 215.426 376.785 213.518 376.936 211.521C377.001 210.526 376.855 209.529 376.507 208.596C376.158 207.662 375.616 206.814 374.915 206.106C374.331 205.554 373.631 205.108 373.182 204.457C372.746 203.696 372.512 202.835 372.503 201.958C372.178 197.421 373.281 192.79 372.145 188.403C371.734 186.84 371.063 185.343 370.882 183.743C370.655 181.751 371.194 179.619 370.404 177.796C369.783 176.349 368.412 175.322 366.934 174.794C365.457 174.267 363.876 174.118 362.308 173.97C360.052 173.78 351.997 172.811 351.055 175.759Z" fill="#33313F"/>
<g opacity="0.1">
<path opacity="0.1" d="M353.199 201.725C352.263 206.203 350.969 210.598 349.33 214.868C349.614 214.303 349.853 213.709 350.079 213.119C351.729 208.833 353.03 204.42 353.969 199.923C355.142 194.315 355.591 187.964 352.174 183.366C351.351 182.269 350.293 181.082 350.33 179.795C350.026 180.184 349.789 180.622 349.631 181.09C349.219 182.578 350.478 183.935 351.4 185.172C354.817 189.762 354.368 196.121 353.199 201.725Z" fill="black"/>
<path opacity="0.1" d="M351.063 178.043C351.393 177.632 351.639 177.16 351.787 176.654C351.851 176.041 351.834 175.423 351.738 174.814C351.421 175.054 351.183 175.383 351.055 175.759C350.812 176.489 351.092 177.28 351.063 178.043Z" fill="black"/>
<path opacity="0.1" d="M375.594 215.19C375.322 215.609 374.948 215.952 374.508 216.188C373.932 216.391 373.31 216.423 372.717 216.278C369.964 215.866 366.955 215.016 364.518 216.348C363.197 217.066 362.172 218.369 360.703 218.699C358.27 219.243 356.196 216.905 353.792 216.225C352.088 215.75 350.293 216.142 348.577 216.637C348.236 217.366 347.775 218.032 347.214 218.608C349.108 218.064 351.12 217.515 353.018 218.043C355.422 218.711 357.496 221.05 359.933 220.518C361.398 220.192 362.427 218.889 363.744 218.167C366.214 216.835 369.19 217.672 371.944 218.101C372.537 218.241 373.158 218.21 373.734 218.01C374.175 217.773 374.548 217.428 374.821 217.008C375.567 216.022 376.143 214.919 376.525 213.742C376.25 214.246 375.939 214.73 375.594 215.19Z" fill="black"/>
</g>
</g>
<defs>
<linearGradient id="paint0_linear" x1="316.859" y1="252.547" x2="379.834" y2="252.547" gradientUnits="userSpaceOnUse">
<stop stop-color="#808080" stop-opacity="0.25"/>
<stop offset="0.54" stop-color="#808080" stop-opacity="0.12"/>
<stop offset="1" stop-color="#808080" stop-opacity="0.1"/>
</linearGradient>
<clipPath id="clip0">
<rect width="480" height="332" fill="white" transform="translate(0.5)"/>
</clipPath>
</defs>
</svg>
