<svg width="532" height="387" viewBox="0 0 532 387" fill="none" xmlns="http://www.w3.org/2000/svg">
<g clip-path="url(#clip0)">
<path opacity="0.2" d="M75.0944 21.384C71.149 21.2712 67.1057 21.384 63.4051 22.5214C53.336 25.62 48.5634 35.7589 50.1151 44.5201C51.6668 53.2814 58.0499 60.915 64.6729 67.8916C71.2959 74.8683 78.4719 81.7665 82.104 90.1061C83.9152 94.2685 84.762 98.9311 82.9215 103.089C80.0824 109.497 71.521 113.076 63.3023 113.821C55.0836 114.566 46.8306 113.115 38.5825 112.629C35.1217 112.428 31.563 112.404 28.3029 113.34C24.7247 114.36 21.7436 116.444 19.0024 118.616C8.28721 127.127 -0.288863 138.751 1.11111 150.945C2.67752 164.785 16.6479 175.723 31.9497 181.592C37.0161 183.553 42.3761 185.112 46.8355 187.887C58.5835 195.207 61.2219 208.934 60.052 221.049C58.8821 233.164 54.8975 245.293 57.115 257.3C59.724 271.268 71.2714 283.888 86.8473 289.781C100.725 295.032 118.092 294.684 130.413 287.276C136.419 283.658 140.962 278.632 144.912 273.435C150.777 265.761 155.623 257.356 159.328 248.431C161.046 244.269 162.661 239.792 166.67 236.9C169.118 235.12 172.29 234.125 175.428 233.35C184.885 231.017 194.846 230.379 204.391 228.3C213.937 226.222 223.516 222.344 228.705 215.416C236.047 205.61 232.621 193.049 232.655 181.518C232.714 155.21 251.8 131.662 258.843 106.016C261.144 97.6367 262.001 88.3656 256.861 80.8889C253.371 75.8145 247.482 72.1522 241.295 69.3233C227.682 63.1016 212.209 60.3316 196.99 57.635C175.839 53.8893 150.155 53.404 133.761 41.2843C118.053 29.6746 96.5297 21.384 75.0944 21.384Z" fill="#BA1C51"/>
<g opacity="0.5">
<path opacity="0.5" d="M13.383 171.278C12.3354 172.827 11.4739 175.077 12.8445 177.7C15.5368 182.848 22.194 181.789 25.4296 186.717C26.2942 188.082 26.776 189.655 26.8247 191.271C26.947 194.061 26.0855 196.257 25.6401 198.714C25.0575 201.61 25.5115 204.62 26.9226 207.215C28.5109 209.924 30.9078 212.066 33.7756 213.339C36.2818 214.447 38.6706 214.731 41.0692 215.27C44.0447 215.954 46.9429 216.939 49.7187 218.212C51.038 218.766 52.2789 219.491 53.4095 220.369C54.7885 221.581 56.04 222.932 57.1444 224.399L67.5561 237.274C68.879 239.01 70.3533 240.624 71.9616 242.098C73.7162 243.516 75.6441 244.704 77.6986 245.633C81.8544 247.707 86.2012 249.83 89.8088 249.59C93.4165 249.35 95.9227 245.864 94.2143 240.99C92.599 236.352 88.0466 232.445 85.9809 227.817C82.7257 220.521 86.9893 215.069 84.2628 207.764C81.6488 200.743 74.321 196.037 69.6414 189.624C66.2834 185.064 64.4135 179.76 61.3884 174.97C56.9829 168.106 50.4235 162.855 44.2558 160.198C38.8315 157.888 32.8918 157.064 27.0449 157.81C24.8128 158.055 22.615 158.472 21.029 159.81C19.3451 161.232 19.5605 163.889 18.464 165.777C17.206 167.949 14.8074 169.179 13.383 171.278Z" fill="#BA1C51"/>
<path opacity="0.5" d="M19.9177 161.402C19.9177 161.402 72.0399 210.209 93.0591 248.211" stroke="#535461" stroke-width="2" stroke-miterlimit="10"/>
<path opacity="0.5" d="M13.0452 178C13.0452 178 33.8735 173.945 48.2893 190.208" stroke="#535461" stroke-width="2" stroke-miterlimit="10"/>
<path opacity="0.5" d="M27.8478 208.646C27.8478 208.646 50.8544 192.531 58.8136 201.905" stroke="#535461" stroke-width="2" stroke-miterlimit="10"/>
<path opacity="0.5" d="M44.1579 160.08C44.1579 160.08 41.7349 172.415 50.4529 192.566" stroke="#535461" stroke-width="2" stroke-miterlimit="10"/>
<path opacity="0.5" d="M84.2384 207.955C84.2384 207.955 82.2021 216.045 65.8331 210.098" stroke="#535461" stroke-width="2" stroke-miterlimit="10"/>
<path opacity="0.5" d="M67.6198 236.253C67.6198 236.253 77.6105 224.687 73.0679 219.01" stroke="#535461" stroke-width="2" stroke-miterlimit="10"/>
</g>
<path d="M3.58809 114.666C1.14059 117.563 -1.15028 121.574 0.651084 125.53C4.11675 133.296 16.9466 129.497 21.5234 136.728C22.894 138.89 23.08 141.533 22.7619 143.891C22.1451 148.505 19.864 152.422 18.2878 156.638C16.7116 160.855 15.8942 165.954 18.1165 170.405C20.2556 174.715 24.7639 177.436 29.1303 178.519C33.4966 179.603 37.8728 179.358 42.2342 179.5C47.4156 179.703 52.5603 180.463 57.5801 181.765C59.7863 182.265 61.8982 183.116 63.8359 184.285C66.0632 185.712 67.8645 187.805 69.6267 189.864L85.2908 208.147C87.3712 210.598 89.4956 213.05 92.0753 214.849C95.0514 216.923 98.4388 217.977 101.772 218.992C108.943 221.188 116.457 223.404 123.31 221.899C130.163 220.394 135.915 213.834 134.202 206.24C132.572 199.008 125.219 193.88 122.743 186.795C118.827 175.632 128.494 165.277 125.591 153.917C122.811 143.023 110.485 137.405 103.632 128.183C98.7374 121.574 96.8087 113.308 92.5305 106.277C86.353 96.1284 75.584 89.4067 64.8639 86.8524C54.1438 84.2981 43.3601 85.4894 33.3057 88.0438C29.0471 89.1273 24.7884 90.4952 21.4108 93.2015C17.8228 96.0794 17.4116 100.448 14.7977 103.919C11.7677 107.954 6.88733 110.744 3.58809 114.666Z" fill="#BA1C51"/>
<path d="M18.8361 96.2324C18.8361 96.2324 101.89 161.684 129.835 218.605" stroke="#535461" stroke-width="2" stroke-miterlimit="10"/>
<path d="M0.915405 125.942C0.915405 125.942 41.2357 112.876 63.3464 135.581" stroke="#535461" stroke-width="2" stroke-miterlimit="10"/>
<path d="M19.4185 172.518C19.4185 172.518 67.4435 138.688 79.5831 151.882" stroke="#535461" stroke-width="2" stroke-miterlimit="10"/>
<path d="M64.7415 86.6621C64.7415 86.6621 56.464 107.935 66.6995 138.857" stroke="#535461" stroke-width="2" stroke-miterlimit="10"/>
<path d="M125.464 154.227C125.464 154.227 119.194 168.312 90.2689 163.385" stroke="#535461" stroke-width="2" stroke-miterlimit="10"/>
<path d="M85.7118 206.395C85.7118 206.395 107.969 184.097 101.165 175.998" stroke="#535461" stroke-width="2" stroke-miterlimit="10"/>
<path opacity="0.1" d="M302.497 378.335C428.207 378.335 530.115 351.002 530.115 317.286C530.115 283.569 428.207 256.236 302.497 256.236C176.787 256.236 74.879 283.569 74.879 317.286C74.879 351.002 176.787 378.335 302.497 378.335Z" fill="#BA1C51"/>
<path d="M479.785 0.201172C479.785 0.201172 462.246 17.7678 472.149 43.8358C482.051 69.9038 455.173 113.254 455.173 113.254C455.173 113.254 455.461 113.21 455.995 113.117C492.017 106.743 509.918 65.4815 489.888 34.8245C482.443 23.4305 476.329 10.0655 479.785 0.201172Z" fill="#BA1C51"/>
<path d="M479.785 0.201172C479.785 0.201172 469.882 21.7341 479.785 39.3008C489.687 56.8674 481.483 106.17 455.173 113.254" stroke="#535461" stroke-width="2" stroke-miterlimit="10"/>
<path d="M511.025 71.2565C511.025 71.2565 491.009 68.0648 489.188 86.0285C487.367 103.992 450.704 106.483 450.704 106.483L451.389 106.939C481.66 126.839 510.618 119.617 506.213 93.2111C504.612 83.3663 504.745 73.4824 511.025 71.2565Z" fill="#BA1C51"/>
<path opacity="0.2" d="M511.025 71.2565C511.025 71.2565 491.009 68.0648 489.188 86.0285C487.367 103.992 450.704 106.483 450.704 106.483L451.389 106.939C481.66 126.839 510.618 119.617 506.213 93.2111C504.612 83.3663 504.745 73.4824 511.025 71.2565Z" fill="#F5F5F5"/>
<path d="M511.025 71.2578C511.025 71.2578 495.488 74.6897 496.766 88.8195C498.043 102.949 473.695 119.928 450.704 106.469" stroke="#535461" stroke-width="2" stroke-miterlimit="10"/>
<path d="M120.76 137.178C120.76 137.178 114.269 115.116 121.979 98.8681C125.255 92.0763 126.242 84.4035 124.794 77.0017C124.079 73.4939 123.045 70.0591 121.705 66.7402" stroke="#535461" stroke-width="2" stroke-miterlimit="10"/>
<path d="M126.492 56.4711C126.492 59.1775 121.597 67.017 121.597 67.017C121.597 67.017 116.702 59.1726 116.702 56.4711C116.702 55.1708 117.218 53.9238 118.136 53.0043C119.054 52.0849 120.299 51.5684 121.597 51.5684C122.895 51.5684 124.14 52.0849 125.058 53.0043C125.976 53.9238 126.492 55.1708 126.492 56.4711Z" fill="#BA1C51"/>
<path d="M134.579 71.4533C133.11 73.7233 124.75 77.6455 124.75 77.6455C124.75 77.6455 124.901 68.3989 126.37 66.1289C126.704 65.5569 127.15 65.0587 127.682 64.6643C128.213 64.2699 128.819 63.9875 129.463 63.8342C130.106 63.6809 130.774 63.6599 131.426 63.7723C132.078 63.8848 132.701 64.1285 133.256 64.4887C133.811 64.8489 134.288 65.3181 134.657 65.8679C135.026 66.4177 135.28 67.0368 135.404 67.6878C135.528 68.3387 135.518 69.008 135.376 69.6552C135.235 70.3024 134.963 70.9141 134.579 71.4533Z" fill="#BA1C51"/>
<path d="M134.226 97.0552C131.813 98.2711 122.62 97.4327 122.62 97.4327C122.62 97.4327 127.412 89.5295 129.821 88.3136C130.397 87.9906 131.033 87.7878 131.69 87.7173C132.346 87.6469 133.01 87.7103 133.642 87.9037C134.274 88.0972 134.86 88.4166 135.365 88.8429C135.87 89.2691 136.284 89.7933 136.581 90.384C136.879 90.9746 137.054 91.6194 137.096 92.2796C137.138 92.9397 137.046 93.6016 136.826 94.2254C136.606 94.8491 136.262 95.4218 135.816 95.909C135.369 96.3962 134.828 96.7877 134.226 97.0601V97.0552Z" fill="#BA1C51"/>
<path d="M129.605 116.362C127.432 117.97 118.229 118.696 118.229 118.696C118.229 118.696 121.617 110.096 123.79 108.488C124.303 108.068 124.896 107.756 125.533 107.573C126.17 107.389 126.837 107.336 127.495 107.419C128.153 107.501 128.787 107.716 129.359 108.051C129.931 108.386 130.43 108.834 130.824 109.368C131.218 109.902 131.5 110.51 131.652 111.156C131.805 111.802 131.825 112.473 131.711 113.126C131.597 113.78 131.351 114.404 130.989 114.961C130.628 115.517 130.157 115.994 129.605 116.362Z" fill="#BA1C51"/>
<path d="M114.485 78.171C116.443 80.0536 125.445 82.0098 125.445 82.0098C125.445 82.0098 123.237 73.0329 121.298 71.1502C120.846 70.6662 120.3 70.2793 119.693 70.0128C119.087 69.7463 118.433 69.6058 117.771 69.5998C117.108 69.5938 116.452 69.7225 115.841 69.978C115.23 70.2335 114.677 70.6105 114.215 71.0863C113.754 71.562 113.394 72.1266 113.156 72.7458C112.919 73.365 112.81 74.026 112.835 74.6888C112.86 75.3516 113.019 76.0024 113.303 76.6017C113.586 77.2011 113.988 77.7366 114.485 78.1759V78.171Z" fill="#BA1C51"/>
<path d="M109.36 100.819C111.773 102.035 120.966 101.197 120.966 101.197C120.966 101.197 116.173 93.2933 113.765 92.0775C112.615 91.557 111.309 91.5016 110.119 91.9226C108.929 92.3436 107.948 93.2086 107.379 94.3371C106.811 95.4655 106.7 96.7703 107.069 97.9789C107.438 99.1876 108.258 100.207 109.36 100.824V100.819Z" fill="#BA1C51"/>
<path d="M107.402 123.52C109.575 125.129 118.778 125.854 118.778 125.854C118.778 125.854 115.39 117.255 113.217 115.647C112.171 114.948 110.897 114.679 109.659 114.895C108.42 115.112 107.312 115.797 106.565 116.809C105.817 117.822 105.487 119.083 105.643 120.333C105.799 121.582 106.428 122.723 107.402 123.52Z" fill="#BA1C51"/>
<path d="M524.946 265.484H483.295C484.258 263.556 484.761 261.429 484.763 259.272V69.3C484.76 65.5971 483.29 62.0468 480.675 59.4295C478.06 56.8121 474.514 55.3418 470.817 55.3418H148.397C144.699 55.3418 141.151 56.8134 138.536 59.4329C135.921 62.0524 134.451 65.6052 134.451 69.3098V259.272C134.453 261.429 134.956 263.556 135.92 265.484H92.7947C91.8171 265.484 90.8796 265.873 90.1883 266.566C89.4971 267.258 89.1088 268.197 89.1088 269.176V272.152C89.1088 277.631 91.282 282.886 95.1504 286.761C99.0189 290.636 104.266 292.812 109.736 292.812H508.034C513.505 292.812 518.751 290.636 522.62 286.761C526.488 282.886 528.662 277.631 528.662 272.152V269.176C528.662 268.689 528.565 268.206 528.378 267.756C528.191 267.307 527.917 266.898 527.572 266.555C527.226 266.212 526.816 265.941 526.366 265.757C525.915 265.573 525.433 265.48 524.946 265.484ZM268.305 277.3L264.732 273.236H353.386L349.431 277.3H268.305Z" fill="url(#paint0_linear)"/>
<path d="M469.393 58.0254H149.787C143.499 58.0254 138.402 63.1311 138.402 69.4292V259.593C138.402 265.891 143.499 270.997 149.787 270.997H469.393C475.681 270.997 480.779 265.891 480.779 259.593V69.4292C480.779 63.1311 475.681 58.0254 469.393 58.0254Z" fill="#535461"/>
<path d="M472.854 89.0684H145.612V263.053H472.854V89.0684Z" fill="#F1F1F4"/>
<path d="M309.233 76.793C310.825 76.793 312.116 75.5002 312.116 73.9053C312.116 72.3105 310.825 71.0176 309.233 71.0176C307.64 71.0176 306.35 72.3105 306.35 73.9053C306.35 75.5002 307.64 76.793 309.233 76.793Z" fill="white"/>
<path d="M359.759 263.412L348.5 274.963H269.201L259.039 263.412H97.675C96.7195 263.412 95.8031 263.792 95.1275 264.469C94.4518 265.146 94.0723 266.064 94.0723 267.021V269.933C94.0723 272.586 94.5945 275.214 95.609 277.665C96.6236 280.116 98.1106 282.343 99.985 284.218C101.859 286.093 104.084 287.579 106.533 288.593C108.981 289.606 111.605 290.126 114.254 290.122H503.506C508.852 290.122 513.979 287.995 517.76 284.209C521.54 280.423 523.664 275.287 523.664 269.933V267.021C523.664 266.064 523.284 265.146 522.609 264.469C521.933 263.792 521.017 263.412 520.061 263.412H359.759Z" fill="#535461"/>
<path d="M255.064 102.324H165.598V169.855H255.064V102.324Z" fill="white"/>
<path opacity="0.2" d="M204.171 108.168H174.351V125.048H204.171V108.168Z" fill="#BA1C51"/>
<path d="M246.312 108.168H211.303V112.066H246.312V108.168Z" fill="#E6E8EC"/>
<path d="M235.94 114.662H211.303V118.56H235.94V114.662Z" fill="#E6E8EC"/>
<path d="M246.312 121.152H211.303V125.05H246.312V121.152Z" fill="#E6E8EC"/>
<path d="M246.312 127.648H174.351V131.546H246.312V127.648Z" fill="#E6E8EC"/>
<path d="M246.312 134.141H174.351V138.038H246.312V134.141Z" fill="#E6E8EC"/>
<path d="M246.312 140.637H174.351V144.534H246.312V140.637Z" fill="#E6E8EC"/>
<path d="M240.477 147.127H174.351V151.025H240.477V147.127Z" fill="#E6E8EC"/>
<path d="M246.312 153.619H174.351V157.517H246.312V153.619Z" fill="#E6E8EC"/>
<path d="M246.312 160.113H174.351V164.011H246.312V160.113Z" fill="#E6E8EC"/>
<path d="M353.606 102.324H264.14V169.855H353.606V102.324Z" fill="white"/>
<path opacity="0.2" d="M302.708 108.168H272.887V125.048H302.708V108.168Z" fill="#BA1C51"/>
<path d="M344.854 108.168H309.845V112.066H344.854V108.168Z" fill="#E6E8EC"/>
<path d="M334.481 114.662H309.845V118.56H334.481V114.662Z" fill="#E6E8EC"/>
<path d="M344.854 121.152H309.845V125.05H344.854V121.152Z" fill="#E6E8EC"/>
<path d="M344.849 127.648H272.887V131.546H344.849V127.648Z" fill="#E6E8EC"/>
<path d="M344.849 134.141H272.887V138.038H344.849V134.141Z" fill="#E6E8EC"/>
<path d="M344.849 140.637H272.887V144.534H344.849V140.637Z" fill="#E6E8EC"/>
<path d="M339.014 147.127H272.887V151.025H339.014V147.127Z" fill="#E6E8EC"/>
<path d="M344.849 153.619H272.887V157.517H344.849V153.619Z" fill="#E6E8EC"/>
<path d="M344.849 160.113H272.887V164.011H344.849V160.113Z" fill="#E6E8EC"/>
<path d="M452.143 102.324H362.677V169.855H452.143V102.324Z" fill="white"/>
<path opacity="0.2" d="M401.249 108.168H371.429V125.048H401.249V108.168Z" fill="#BA1C51"/>
<path d="M443.39 108.168H408.381V112.066H443.39V108.168Z" fill="#E6E8EC"/>
<path d="M433.018 114.662H408.381V118.56H433.018V114.662Z" fill="#E6E8EC"/>
<path d="M443.39 121.152H408.381V125.05H443.39V121.152Z" fill="#E6E8EC"/>
<path d="M443.39 127.648H371.429V131.546H443.39V127.648Z" fill="#E6E8EC"/>
<path d="M443.39 134.141H371.429V138.038H443.39V134.141Z" fill="#E6E8EC"/>
<path d="M443.39 140.637H371.429V144.534H443.39V140.637Z" fill="#E6E8EC"/>
<path d="M437.556 147.127H371.429V151.025H437.556V147.127Z" fill="#E6E8EC"/>
<path d="M443.39 153.619H371.429V157.517H443.39V153.619Z" fill="#E6E8EC"/>
<path d="M443.39 160.113H371.429V164.011H443.39V160.113Z" fill="#E6E8EC"/>
<path d="M255.064 178.293H165.598V245.824H255.064V178.293Z" fill="white"/>
<path opacity="0.2" d="M204.171 184.137H174.351V201.017H204.171V184.137Z" fill="#BA1C51"/>
<path d="M246.312 184.137H211.303V188.034H246.312V184.137Z" fill="#E6E8EC"/>
<path d="M235.94 190.635H211.303V194.532H235.94V190.635Z" fill="#E6E8EC"/>
<path d="M246.312 197.125H211.303V201.023H246.312V197.125Z" fill="#E6E8EC"/>
<path d="M246.312 203.615H174.351V207.513H246.312V203.615Z" fill="#E6E8EC"/>
<path d="M246.312 210.111H174.351V214.009H246.312V210.111Z" fill="#E6E8EC"/>
<path d="M246.312 216.604H174.351V220.501H246.312V216.604Z" fill="#E6E8EC"/>
<path d="M240.477 223.1H174.351V226.997H240.477V223.1Z" fill="#E6E8EC"/>
<path d="M246.312 229.594H174.351V233.491H246.312V229.594Z" fill="#E6E8EC"/>
<path d="M246.312 236.084H174.351V239.982H246.312V236.084Z" fill="#E6E8EC"/>
<path d="M353.606 178.293H264.14V245.824H353.606V178.293Z" fill="white"/>
<path opacity="0.2" d="M302.708 184.137H272.887V201.017H302.708V184.137Z" fill="#BA1C51"/>
<path d="M344.854 184.137H309.845V188.034H344.854V184.137Z" fill="#E6E8EC"/>
<path d="M334.481 190.635H309.845V194.532H334.481V190.635Z" fill="#E6E8EC"/>
<path d="M344.854 197.125H309.845V201.023H344.854V197.125Z" fill="#E6E8EC"/>
<path d="M344.849 203.615H272.887V207.513H344.849V203.615Z" fill="#E6E8EC"/>
<path d="M344.849 210.111H272.887V214.009H344.849V210.111Z" fill="#E6E8EC"/>
<path d="M344.849 216.604H272.887V220.501H344.849V216.604Z" fill="#E6E8EC"/>
<path d="M339.014 223.1H272.887V226.997H339.014V223.1Z" fill="#E6E8EC"/>
<path d="M344.849 229.594H272.887V233.491H344.849V229.594Z" fill="#E6E8EC"/>
<path d="M344.849 236.084H272.887V239.982H344.849V236.084Z" fill="#E6E8EC"/>
<path opacity="0.1" d="M452.143 178.293H362.677V245.824H452.143V178.293Z" fill="black"/>
<path d="M216.394 125.049H78.3546C76.6925 125.046 75.0461 125.371 73.5096 126.005C71.9731 126.64 70.5766 127.572 69.4 128.748C68.2233 129.923 67.2897 131.32 66.6525 132.857C66.0152 134.395 65.6869 136.043 65.6863 137.708V329.279C65.6882 330.942 66.0173 332.589 66.6548 334.125C67.2923 335.661 68.2257 337.056 69.4017 338.231C70.5777 339.405 71.9732 340.337 73.5085 340.971C75.0438 341.605 76.6889 341.93 78.3497 341.928H216.389C218.05 341.93 219.695 341.605 221.23 340.971C222.766 340.337 224.161 339.405 225.337 338.231C226.513 337.056 227.446 335.661 228.084 334.125C228.721 332.589 229.051 330.942 229.053 329.279V137.708C229.052 136.044 228.724 134.397 228.087 132.86C227.451 131.323 226.518 129.927 225.342 128.751C224.167 127.575 222.771 126.643 221.236 126.008C219.701 125.373 218.055 125.047 216.394 125.049Z" fill="url(#paint1_linear)"/>
<path d="M217.324 127.648H77.4244C72.0175 127.648 67.6344 132.039 67.6344 137.454V330.172C67.6344 335.587 72.0175 339.978 77.4244 339.978H217.324C222.731 339.978 227.114 335.587 227.114 330.172V137.454C227.114 132.039 222.731 127.648 217.324 127.648Z" fill="#535461"/>
<path d="M219.008 147.736H75.7357V319.897H219.008V147.736Z" fill="#F1F1F4"/>
<path d="M146.723 139.338C147.796 139.338 148.666 138.467 148.666 137.392C148.666 136.317 147.796 135.445 146.723 135.445C145.65 135.445 144.78 136.317 144.78 137.392C144.78 138.467 145.65 139.338 146.723 139.338Z" fill="white"/>
<path d="M146.723 335.432C149.946 335.432 152.558 332.816 152.558 329.588C152.558 326.361 149.946 323.744 146.723 323.744C143.501 323.744 140.888 326.361 140.888 329.588C140.888 332.816 143.501 335.432 146.723 335.432Z" fill="white"/>
<path d="M122.791 165.324H81.9279V196.172H122.791V165.324Z" fill="white"/>
<path opacity="0.2" d="M99.5498 167.998H85.927V175.71H99.5498V167.998Z" fill="#BA1C51"/>
<path d="M118.797 167.998H102.805V169.778H118.797V167.998Z" fill="#E6E8EC"/>
<path d="M114.059 170.965H102.805V172.745H114.059V170.965Z" fill="#E6E8EC"/>
<path d="M118.797 173.932H102.805V175.711H118.797V173.932Z" fill="#E6E8EC"/>
<path d="M118.797 176.896H85.927V178.676H118.797V176.896Z" fill="#E6E8EC"/>
<path d="M118.797 179.863H85.927V181.643H118.797V179.863Z" fill="#E6E8EC"/>
<path d="M118.797 182.828H85.927V184.608H118.797V182.828Z" fill="#E6E8EC"/>
<path d="M116.134 185.795H85.927V187.575H116.134V185.795Z" fill="#E6E8EC"/>
<path d="M118.797 188.762H85.927V190.541H118.797V188.762Z" fill="#E6E8EC"/>
<path d="M118.797 191.729H85.927V193.508H118.797V191.729Z" fill="#E6E8EC"/>
<path d="M167.806 165.324H126.943V196.172H167.806V165.324Z" fill="white"/>
<path opacity="0.2" d="M144.56 167.998H130.937V175.71H144.56V167.998Z" fill="#BA1C51"/>
<path d="M163.812 167.998H147.82V169.778H163.812V167.998Z" fill="#E6E8EC"/>
<path d="M159.073 170.965H147.82V172.745H159.073V170.965Z" fill="#E6E8EC"/>
<path d="M163.812 173.932H147.82V175.711H163.812V173.932Z" fill="#E6E8EC"/>
<path d="M163.807 176.896H130.937V178.676H163.807V176.896Z" fill="#E6E8EC"/>
<path d="M163.807 179.863H130.937V181.643H163.807V179.863Z" fill="#E6E8EC"/>
<path d="M163.807 182.828H130.937V184.608H163.807V182.828Z" fill="#E6E8EC"/>
<path d="M161.144 185.795H130.937V187.575H161.144V185.795Z" fill="#E6E8EC"/>
<path d="M163.807 188.762H130.937V190.541H163.807V188.762Z" fill="#E6E8EC"/>
<path d="M163.807 191.729H130.937V193.508H163.807V191.729Z" fill="#E6E8EC"/>
<path d="M212.816 165.324H171.952V196.172H212.816V165.324Z" fill="white"/>
<path opacity="0.2" d="M189.574 167.998H175.951V175.71H189.574V167.998Z" fill="#BA1C51"/>
<path d="M208.821 167.998H192.829V169.778H208.821V167.998Z" fill="#E6E8EC"/>
<path d="M204.083 170.965H192.829V172.745H204.083V170.965Z" fill="#E6E8EC"/>
<path d="M208.821 173.932H192.829V175.711H208.821V173.932Z" fill="#E6E8EC"/>
<path d="M208.821 176.896H175.951V178.676H208.821V176.896Z" fill="#E6E8EC"/>
<path d="M208.821 179.863H175.951V181.643H208.821V179.863Z" fill="#E6E8EC"/>
<path d="M208.821 182.828H175.951V184.608H208.821V182.828Z" fill="#E6E8EC"/>
<path d="M206.159 185.795H175.951V187.575H206.159V185.795Z" fill="#E6E8EC"/>
<path d="M208.821 188.762H175.951V190.541H208.821V188.762Z" fill="#E6E8EC"/>
<path d="M208.821 191.729H175.951V193.508H208.821V191.729Z" fill="#E6E8EC"/>
<path d="M122.791 200.027H81.9279V230.876H122.791V200.027Z" fill="white"/>
<path opacity="0.2" d="M99.5498 202.701H85.927V210.413H99.5498V202.701Z" fill="#BA1C51"/>
<path d="M118.797 202.701H102.805V204.481H118.797V202.701Z" fill="#E6E8EC"/>
<path d="M114.059 205.666H102.805V207.446H114.059V205.666Z" fill="#E6E8EC"/>
<path d="M118.797 208.633H102.805V210.413H118.797V208.633Z" fill="#E6E8EC"/>
<path d="M118.797 211.6H85.927V213.379H118.797V211.6Z" fill="#E6E8EC"/>
<path d="M118.797 214.564H85.927V216.344H118.797V214.564Z" fill="#E6E8EC"/>
<path d="M118.797 217.531H85.927V219.311H118.797V217.531Z" fill="#E6E8EC"/>
<path d="M116.134 220.496H85.927V222.276H116.134V220.496Z" fill="#E6E8EC"/>
<path d="M118.797 223.465H85.927V225.245H118.797V223.465Z" fill="#E6E8EC"/>
<path d="M118.797 226.43H85.927V228.209H118.797V226.43Z" fill="#E6E8EC"/>
<path d="M167.806 200.027H126.943V230.876H167.806V200.027Z" fill="white"/>
<path opacity="0.2" d="M144.56 202.701H130.937V210.413H144.56V202.701Z" fill="#BA1C51"/>
<path d="M163.812 202.701H147.82V204.481H163.812V202.701Z" fill="#E6E8EC"/>
<path d="M159.073 205.666H147.82V207.446H159.073V205.666Z" fill="#E6E8EC"/>
<path d="M163.812 208.633H147.82V210.413H163.812V208.633Z" fill="#E6E8EC"/>
<path d="M163.807 211.6H130.937V213.379H163.807V211.6Z" fill="#E6E8EC"/>
<path d="M163.807 214.564H130.937V216.344H163.807V214.564Z" fill="#E6E8EC"/>
<path d="M163.807 217.531H130.937V219.311H163.807V217.531Z" fill="#E6E8EC"/>
<path d="M161.144 220.496H130.937V222.276H161.144V220.496Z" fill="#E6E8EC"/>
<path d="M163.807 223.465H130.937V225.245H163.807V223.465Z" fill="#E6E8EC"/>
<path d="M163.807 226.43H130.937V228.209H163.807V226.43Z" fill="#E6E8EC"/>
<path d="M212.816 200.027H171.952V230.876H212.816V200.027Z" fill="white"/>
<path opacity="0.2" d="M189.574 202.701H175.951V210.413H189.574V202.701Z" fill="#BA1C51"/>
<path d="M208.821 202.701H192.829V204.481H208.821V202.701Z" fill="#E6E8EC"/>
<path d="M204.083 205.666H192.829V207.446H204.083V205.666Z" fill="#E6E8EC"/>
<path d="M208.821 208.633H192.829V210.413H208.821V208.633Z" fill="#E6E8EC"/>
<path d="M208.821 211.6H175.951V213.379H208.821V211.6Z" fill="#E6E8EC"/>
<path d="M208.821 214.564H175.951V216.344H208.821V214.564Z" fill="#E6E8EC"/>
<path d="M208.821 217.531H175.951V219.311H208.821V217.531Z" fill="#E6E8EC"/>
<path d="M206.159 220.496H175.951V222.276H206.159V220.496Z" fill="#E6E8EC"/>
<path d="M208.821 223.465H175.951V225.245H208.821V223.465Z" fill="#E6E8EC"/>
<path d="M208.821 226.43H175.951V228.209H208.821V226.43Z" fill="#E6E8EC"/>
<path d="M122.791 236.104H81.9279V266.952H122.791V236.104Z" fill="white"/>
<path opacity="0.2" d="M99.5498 238.775H85.927V246.487H99.5498V238.775Z" fill="#BA1C51"/>
<path d="M118.797 238.775H102.805V240.555H118.797V238.775Z" fill="#E6E8EC"/>
<path d="M114.059 241.74H102.805V243.52H114.059V241.74Z" fill="#E6E8EC"/>
<path d="M118.797 244.707H102.805V246.487H118.797V244.707Z" fill="#E6E8EC"/>
<path d="M118.797 247.674H85.927V249.453H118.797V247.674Z" fill="#E6E8EC"/>
<path d="M118.797 250.639H85.927V252.418H118.797V250.639Z" fill="#E6E8EC"/>
<path d="M118.797 253.607H85.927V255.387H118.797V253.607Z" fill="#E6E8EC"/>
<path d="M116.134 256.57H85.927V258.35H116.134V256.57Z" fill="#E6E8EC"/>
<path d="M118.797 259.539H85.927V261.319H118.797V259.539Z" fill="#E6E8EC"/>
<path d="M118.797 262.504H85.927V264.284H118.797V262.504Z" fill="#E6E8EC"/>
<path d="M167.806 236.104H126.943V266.952H167.806V236.104Z" fill="white"/>
<path opacity="0.2" d="M144.56 238.775H130.937V246.487H144.56V238.775Z" fill="#BA1C51"/>
<path d="M163.812 238.775H147.82V240.555H163.812V238.775Z" fill="#E6E8EC"/>
<path d="M159.073 241.74H147.82V243.52H159.073V241.74Z" fill="#E6E8EC"/>
<path d="M163.812 244.707H147.82V246.487H163.812V244.707Z" fill="#E6E8EC"/>
<path d="M163.807 247.674H130.937V249.453H163.807V247.674Z" fill="#E6E8EC"/>
<path d="M163.807 250.639H130.937V252.418H163.807V250.639Z" fill="#E6E8EC"/>
<path d="M163.807 253.607H130.937V255.387H163.807V253.607Z" fill="#E6E8EC"/>
<path d="M161.144 256.57H130.937V258.35H161.144V256.57Z" fill="#E6E8EC"/>
<path d="M163.807 259.539H130.937V261.319H163.807V259.539Z" fill="#E6E8EC"/>
<path d="M163.807 262.504H130.937V264.284H163.807V262.504Z" fill="#E6E8EC"/>
<path d="M212.816 236.104H171.952V266.952H212.816V236.104Z" fill="white"/>
<path opacity="0.2" d="M189.574 238.775H175.951V246.487H189.574V238.775Z" fill="#BA1C51"/>
<path d="M208.821 238.775H192.829V240.555H208.821V238.775Z" fill="#E6E8EC"/>
<path d="M204.083 241.74H192.829V243.52H204.083V241.74Z" fill="#E6E8EC"/>
<path d="M208.821 244.707H192.829V246.487H208.821V244.707Z" fill="#E6E8EC"/>
<path d="M208.821 247.674H175.951V249.453H208.821V247.674Z" fill="#E6E8EC"/>
<path d="M208.821 250.639H175.951V252.418H208.821V250.639Z" fill="#E6E8EC"/>
<path d="M208.821 253.607H175.951V255.387H208.821V253.607Z" fill="#E6E8EC"/>
<path d="M206.159 256.57H175.951V258.35H206.159V256.57Z" fill="#E6E8EC"/>
<path d="M208.821 259.539H175.951V261.319H208.821V259.539Z" fill="#E6E8EC"/>
<path d="M208.821 262.504H175.951V264.284H208.821V262.504Z" fill="#E6E8EC"/>
<path d="M122.791 270.805H81.9279V301.653H122.791V270.805Z" fill="white"/>
<path opacity="0.2" d="M99.5498 273.475H85.927V281.187H99.5498V273.475Z" fill="#BA1C51"/>
<path d="M118.797 273.475H102.805V275.254H118.797V273.475Z" fill="#E6E8EC"/>
<path d="M114.059 276.443H102.805V278.223H114.059V276.443Z" fill="#E6E8EC"/>
<path d="M118.797 279.408H102.805V281.188H118.797V279.408Z" fill="#E6E8EC"/>
<path d="M118.797 282.375H85.927V284.155H118.797V282.375Z" fill="#E6E8EC"/>
<path d="M118.797 285.342H85.927V287.121H118.797V285.342Z" fill="#E6E8EC"/>
<path d="M118.797 288.307H85.927V290.086H118.797V288.307Z" fill="#E6E8EC"/>
<path d="M116.134 291.273H85.927V293.053H116.134V291.273Z" fill="#E6E8EC"/>
<path d="M118.797 294.238H85.927V296.018H118.797V294.238Z" fill="#E6E8EC"/>
<path d="M118.797 297.207H85.927V298.987H118.797V297.207Z" fill="#E6E8EC"/>
<path d="M167.806 270.805H126.943V301.653H167.806V270.805Z" fill="white"/>
<path opacity="0.2" d="M144.56 273.475H130.937V281.187H144.56V273.475Z" fill="#BA1C51"/>
<path d="M163.812 273.475H147.82V275.254H163.812V273.475Z" fill="#E6E8EC"/>
<path d="M159.073 276.443H147.82V278.223H159.073V276.443Z" fill="#E6E8EC"/>
<path d="M163.812 279.408H147.82V281.188H163.812V279.408Z" fill="#E6E8EC"/>
<path d="M163.807 282.375H130.937V284.155H163.807V282.375Z" fill="#E6E8EC"/>
<path d="M163.807 285.342H130.937V287.121H163.807V285.342Z" fill="#E6E8EC"/>
<path d="M163.807 288.307H130.937V290.086H163.807V288.307Z" fill="#E6E8EC"/>
<path d="M161.144 291.273H130.937V293.053H161.144V291.273Z" fill="#E6E8EC"/>
<path d="M163.807 294.238H130.937V296.018H163.807V294.238Z" fill="#E6E8EC"/>
<path d="M163.807 297.207H130.937V298.987H163.807V297.207Z" fill="#E6E8EC"/>
<path opacity="0.1" d="M212.816 270.805H171.952V301.653H212.816V270.805Z" fill="black"/>
<path d="M111.176 189.982H40.2958C39.3753 189.981 38.4634 190.16 37.6122 190.511C36.761 190.862 35.9872 191.378 35.3349 192.028C34.6827 192.679 34.1647 193.452 33.8107 194.303C33.4566 195.154 33.2734 196.067 33.2715 196.988V352.45C33.2734 353.372 33.4566 354.285 33.8107 355.136C34.1647 355.987 34.6827 356.76 35.3349 357.411C35.9872 358.061 36.761 358.577 37.6122 358.928C38.4634 359.279 39.3753 359.458 40.2958 359.456H111.176C112.096 359.458 113.008 359.279 113.859 358.928C114.71 358.577 115.484 358.061 116.137 357.411C116.789 356.76 117.307 355.987 117.661 355.136C118.015 354.285 118.198 353.372 118.2 352.45V196.993C118.199 196.071 118.016 195.158 117.662 194.306C117.308 193.455 116.791 192.681 116.138 192.03C115.486 191.379 114.712 190.863 113.86 190.512C113.009 190.16 112.097 189.981 111.176 189.982Z" fill="url(#paint2_linear)"/>
<path d="M112.169 191.287H39.3069C36.3331 191.287 33.9224 193.702 33.9224 196.68V353.422C33.9224 356.4 36.3331 358.815 39.3069 358.815H112.169C115.143 358.815 117.554 356.4 117.554 353.422V196.68C117.554 193.702 115.143 191.287 112.169 191.287Z" fill="#535461"/>
<path d="M111.391 206.869H40.0804V343.225H111.391V206.869Z" fill="#F1F1F4"/>
<path d="M67.3065 199.724C67.6634 199.724 67.9527 199.434 67.9527 199.077C67.9527 198.719 67.6634 198.43 67.3065 198.43C66.9497 198.43 66.6604 198.719 66.6604 199.077C66.6604 199.434 66.9497 199.724 67.3065 199.724Z" fill="white"/>
<path d="M84.3264 198.424H71.0414C70.771 198.424 70.5519 198.643 70.5519 198.914V199.233C70.5519 199.503 70.771 199.723 71.0414 199.723H84.3264C84.5968 199.723 84.8159 199.503 84.8159 199.233V198.914C84.8159 198.643 84.5968 198.424 84.3264 198.424Z" fill="white"/>
<path d="M75.4126 354.266C77.9186 354.266 79.9502 352.231 79.9502 349.721C79.9502 347.211 77.9186 345.176 75.4126 345.176C72.9065 345.176 70.8749 347.211 70.8749 349.721C70.8749 352.231 72.9065 354.266 75.4126 354.266Z" fill="white"/>
<path opacity="0.1" d="M100.049 215.031H51.4221V251.738H100.049V215.031Z" fill="black"/>
<path d="M100.049 256.326H51.4221V293.033H100.049V256.326Z" fill="white"/>
<path opacity="0.2" d="M72.3875 259.502H56.1801V268.68H72.3875V259.502Z" fill="#BA1C51"/>
<path d="M95.2912 259.502H76.2643V261.62H95.2912V259.502Z" fill="#E6E8EC"/>
<path d="M89.657 263.033H76.2643V265.151H89.657V263.033Z" fill="#E6E8EC"/>
<path d="M95.2912 266.559H76.2643V268.677H95.2912V266.559Z" fill="#E6E8EC"/>
<path d="M95.2961 270.088H56.1801V272.206H95.2961V270.088Z" fill="#E6E8EC"/>
<path d="M95.2961 273.619H56.1801V275.737H95.2961V273.619Z" fill="#E6E8EC"/>
<path d="M95.2961 277.15H56.1801V279.268H95.2961V277.15Z" fill="#E6E8EC"/>
<path d="M92.1241 280.678H56.1801V282.796H92.1241V280.678Z" fill="#E6E8EC"/>
<path d="M95.2961 284.209H56.1801V286.327H95.2961V284.209Z" fill="#E6E8EC"/>
<path d="M95.2961 287.738H56.1801V289.856H95.2961V287.738Z" fill="#E6E8EC"/>
<path d="M100.049 297.705H51.4221V334.412H100.049V297.705Z" fill="white"/>
<path opacity="0.2" d="M72.3875 300.883H56.1801V310.061H72.3875V300.883Z" fill="#BA1C51"/>
<path d="M95.2912 300.883H76.2643V303.001H95.2912V300.883Z" fill="#E6E8EC"/>
<path d="M89.657 304.412H76.2643V306.53H89.657V304.412Z" fill="#E6E8EC"/>
<path d="M95.2912 307.943H76.2643V310.061H95.2912V307.943Z" fill="#E6E8EC"/>
<path d="M95.2961 311.471H56.1801V313.589H95.2961V311.471Z" fill="#E6E8EC"/>
<path d="M95.2961 315.002H56.1801V317.12H95.2961V315.002Z" fill="#E6E8EC"/>
<path d="M95.2961 318.533H56.1801V320.651H95.2961V318.533Z" fill="#E6E8EC"/>
<path d="M92.1241 322.062H56.1801V324.18H92.1241V322.062Z" fill="#E6E8EC"/>
<path d="M95.2961 325.588H56.1801V327.706H95.2961V325.588Z" fill="#E6E8EC"/>
<path d="M95.2961 329.119H56.1801V331.237H95.2961V329.119Z" fill="#E6E8EC"/>
<path d="M266.122 315.048C262.833 311.052 258.848 306.458 259.406 301.138C259.857 296.829 258.775 292.848 258.99 288.528C259.294 282.39 258.055 277.581 253.64 273.644C251.06 271.344 246.748 269.535 245.465 269.996C242.92 270.908 240.144 270.56 237.526 271.173C235.538 271.663 234.212 272.354 233.394 273.251C231.745 274.722 231.715 276.811 232.469 279.042C231.811 280.247 231.414 281.577 231.303 282.946C231.193 284.315 231.371 285.692 231.828 286.987C232.284 288.282 233.007 289.466 233.951 290.463C234.895 291.459 236.038 292.245 237.305 292.769C235.47 293.534 233.879 295.304 233.267 298.893C232.832 301.359 232.176 303.781 231.309 306.129C230.92 306.315 230.521 306.478 230.115 306.62C230.203 306.654 230.296 306.679 230.389 306.713C230.198 306.786 230.002 306.86 229.811 306.929C230.163 307.066 230.527 307.171 230.898 307.242C229.562 310.714 227.768 313.99 225.562 316.984C225.562 316.984 220.021 318.21 217.867 316.067C217.867 316.067 218.22 316.479 218.695 317.097C216.585 316.219 213.129 314.793 210.172 313.616C208.028 312.763 207.475 313.616 207.505 314.802C206.977 314.864 206.468 315.03 206.007 315.293C205.373 314.885 204.708 314.528 204.019 314.224C202.786 313.92 198.786 311.773 194.782 319.127C192.452 323.407 186.461 331.212 181.884 336.992C172.951 341.106 161.325 346.308 157.008 347.626H154.247C153.885 347.033 153.63 346.646 153.63 346.646L153.415 346.788L153.322 346.646C153.322 346.646 147.883 350.416 142.362 350.446C141.576 350.433 140.794 350.331 140.032 350.142C137.491 349.499 135.704 349.215 134.427 349.239C132.914 349.215 132.058 349.573 131.524 350.249C131.455 350.338 131.391 350.432 131.333 350.529C131.274 350.629 131.22 350.732 131.172 350.838C131.123 350.946 131.079 351.058 131.035 351.176C131.018 351.279 131.024 351.385 131.054 351.485C131.084 351.585 131.136 351.677 131.206 351.755C131.279 351.861 131.36 351.962 131.446 352.059L131.597 352.225C132.691 353.245 133.876 354.162 135.137 354.966C135.592 355.275 136.072 355.589 136.576 355.912L137.53 356.52L138.382 357.054L138.725 357.265L139.106 357.501L139.787 357.917L140.193 358.163L140.957 358.618L141.574 358.986C143.189 359.967 144.804 360.869 146.253 361.688L147.271 362.261L147.369 362.315L148.02 362.678L149.151 363.306L149.929 363.732L150.292 363.933L150.683 364.144L150.761 364.188L151.437 364.556C151.576 364.579 151.719 364.571 151.855 364.534C151.991 364.497 152.117 364.431 152.225 364.34C152.421 363.507 152.901 361.722 153.41 361.585C153.919 361.447 156.141 357.545 156.773 354.946H162.779C163.959 354.847 165.132 354.668 166.288 354.412C164.737 355.52 163.2 356.216 162.005 355.917C159.48 355.289 157.086 356.829 156.846 358.368L156.817 358.462C156.817 358.491 156.817 358.525 156.817 358.555C156.817 358.584 156.817 358.628 156.817 358.667C156.817 358.707 156.817 358.731 156.817 358.761C156.817 358.79 156.817 358.834 156.817 358.873C156.817 358.913 156.817 358.937 156.817 358.967C156.817 358.996 156.817 359.045 156.817 359.079C156.817 359.114 156.817 359.138 156.817 359.168C156.817 359.197 156.817 359.251 156.846 359.29C156.875 359.329 156.846 359.344 156.846 359.369C156.864 359.422 156.885 359.474 156.91 359.525V359.565C156.943 359.629 156.981 359.692 157.022 359.751L157.071 359.815L157.169 359.937L157.238 360.006L157.35 360.114L157.433 360.182L157.566 360.28L157.663 360.344L157.825 360.437L157.933 360.496L158.133 360.589L158.236 360.633C158.344 360.678 158.456 360.722 158.579 360.761C158.701 360.8 159 360.888 159.259 360.952L159.519 361.016L159.896 361.104L160.096 361.148L160.919 361.315L161.32 361.389L161.648 361.447L162.402 361.58L163.87 361.82L165.168 362.016L166.856 362.256L167.228 362.305L167.835 362.389L168.707 362.506L169.304 362.585L170.846 362.781L171.335 362.84L172.314 362.957C173.592 363.109 174.83 363.256 175.966 363.384L177.283 363.531L177.948 363.605L178.232 363.634L179.03 363.722L179.476 363.771L180.019 363.83L180.788 363.909H180.871L181.36 363.958C181.422 363.964 181.483 363.957 181.542 363.938C181.601 363.919 181.654 363.888 181.701 363.847C181.746 363.806 181.784 363.756 181.809 363.7C181.835 363.644 181.849 363.583 181.85 363.521C181.85 363.521 181.85 363.487 181.85 363.472C181.896 363.402 181.922 363.321 181.923 363.237C181.936 362.503 182.027 361.774 182.197 361.06C182.232 360.937 182.271 360.81 182.31 360.687L182.359 360.545C182.413 360.393 182.467 360.241 182.53 360.084C182.574 359.974 182.611 359.861 182.643 359.746L182.672 359.638C182.672 359.579 182.701 359.516 182.716 359.452C183.338 357.334 182.589 353.387 182.374 351.838C182.306 351.338 182.193 350.846 182.036 350.367C182.075 350.371 182.114 350.371 182.153 350.367C182.472 350.248 182.773 350.083 183.044 349.877C187.582 348.254 191.415 346.401 192.624 344.543C194.59 344.018 196.681 344.236 198.498 345.155C200.847 346.327 218.631 352.137 226.913 354.824C228.382 356.108 229.566 356.858 230.208 356.785C230.208 356.785 240.747 358.491 244.986 355.157C245.363 355.417 245.598 355.559 245.598 355.559C245.598 355.559 251.755 352.495 252.681 348.514C252.979 347.224 253.248 345.317 253.523 343.209C254.952 341.767 255.756 339.819 255.76 337.787C255.95 331.094 258.54 323.451 260.459 316.641C262.789 316.822 263.69 316.386 265.843 315.327L265.75 315.204L266.122 315.048ZM230.819 325.069L229.645 324.672C230.043 324.139 230.385 323.568 230.668 322.966L230.819 325.069ZM224.192 327.883L231.329 332.173L231.392 333.046C231.305 333.71 231.325 334.383 231.451 335.041C228.308 332.242 224.627 328.844 224.197 327.883H224.192ZM221.279 321.637C220.501 321.313 219.855 321.024 219.414 320.784L221.069 320.887C221.167 321.128 221.239 321.38 221.284 321.637H221.279ZM202.189 328.623C202.189 328.623 203.422 325.868 206.193 330.462C206.623 331.178 207.416 332.31 208.464 333.722L200.407 332.639C201.244 331.423 201.845 330.061 202.179 328.623H202.189Z" fill="url(#paint3_linear)"/>
<path d="M219.914 317.546C219.914 317.546 214.265 315.163 209.81 313.379C205.356 311.594 208.028 317.546 208.028 317.546C208.028 317.546 215.459 319.63 215.459 319.929C215.459 320.228 221.7 320.522 221.7 320.522L219.914 317.546Z" fill="#F7C4A7"/>
<path opacity="0.05" d="M219.914 317.546C219.914 317.546 214.265 315.163 209.81 313.379C205.356 311.594 208.028 317.546 208.028 317.546C208.028 317.546 215.459 319.63 215.459 319.929C215.459 320.228 221.7 320.522 221.7 320.522L219.914 317.546Z" fill="black"/>
<path d="M243.972 294.034C243.972 294.034 233.869 288.675 232.082 299.094C230.97 305.436 228.434 311.443 224.666 316.66C224.666 316.66 219.316 317.852 217.236 315.768C217.236 315.768 222.287 321.72 219.909 322.318C219.909 322.318 225.259 326.186 227.638 324.995C230.017 323.804 231.799 315.768 232.689 313.684C233.58 311.601 236.85 293.436 243.972 294.034Z" fill="#575988"/>
<path opacity="0.1" d="M243.972 294.034C243.972 294.034 233.869 288.675 232.082 299.094C230.97 305.436 228.434 311.443 224.666 316.66C224.666 316.66 219.316 317.852 217.236 315.768C217.236 315.768 222.287 321.72 219.909 322.318C219.909 322.318 225.259 326.186 227.638 324.995C230.017 323.804 231.799 315.768 232.689 313.684C233.58 311.601 236.85 293.436 243.972 294.034Z" fill="black"/>
<path d="M238.338 290.46C238.338 290.46 244.579 297.603 244.878 303.555C245.177 309.507 252.01 297.304 252.607 297.005C253.204 296.706 246.66 286.592 246.063 283.321C245.465 280.051 238.338 290.46 238.338 290.46Z" fill="#F7C4A7"/>
<path d="M242.646 293.516L238.71 297.085L240.566 304.601L245.617 299.84L245.025 295.08L242.646 293.516Z" fill="#F7C4A7"/>
<path d="M160.473 346.426H153.64L156.312 352.971L162.852 351.186L160.473 346.426Z" fill="#F7C4A7"/>
<path opacity="0.1" d="M155.216 345.479C155.216 345.479 148.148 350.416 142.093 348.876C136.037 347.337 134.402 347.896 133.698 349.901C133.047 351.725 150.59 361.378 153.385 362.903C153.429 362.932 153.48 362.95 153.533 362.955C153.585 362.96 153.638 362.951 153.687 362.93C153.736 362.909 153.778 362.877 153.811 362.835C153.844 362.793 153.866 362.744 153.875 362.692C154.066 361.883 154.526 360.148 155.015 360.015C155.657 359.844 158.589 354.367 158.442 352.205C158.295 350.043 155.216 345.479 155.216 345.479Z" fill="black"/>
<path d="M154.922 345.479C154.922 345.479 147.854 350.416 141.799 348.876C135.744 347.337 134.109 347.896 133.404 349.901C132.753 351.725 150.296 361.378 153.092 362.903C153.136 362.932 153.186 362.95 153.239 362.955C153.292 362.96 153.345 362.951 153.393 362.93C153.442 362.909 153.484 362.877 153.517 362.835C153.55 362.793 153.572 362.744 153.581 362.692C153.772 361.883 154.232 360.148 154.722 360.015C155.363 359.844 158.295 354.367 158.148 352.205C158.001 350.043 154.922 345.479 154.922 345.479Z" fill="#F3B5B7"/>
<path d="M213.374 333.624L193.461 330.947C193.461 330.947 161.066 346.425 157.203 346.724L158.094 353.588H164.037C166.416 353.588 189.594 348.529 192.864 343.469C194.755 342.964 196.766 343.175 198.512 344.062C201.484 345.533 230.017 354.78 230.017 354.78L213.374 333.624Z" fill="#575988"/>
<path opacity="0.1" d="M213.374 333.624L193.461 330.947C193.461 330.947 161.066 346.425 157.203 346.724L158.094 353.588H164.037C166.416 353.588 189.594 348.529 192.864 343.469C194.755 342.964 196.766 343.175 198.512 344.062C201.484 345.533 230.017 354.78 230.017 354.78L213.374 333.624Z" fill="black"/>
<path d="M178.007 342.85L174.737 347.017L178.007 348.802L182.765 345.232L178.007 342.85Z" fill="#F7C4A7"/>
<path d="M234.77 338.085C234.77 338.085 224.079 328.917 223.33 327.25C222.581 325.583 205.052 314.277 203.863 313.978C202.673 313.679 198.811 311.595 194.949 318.738C191.087 325.882 176.837 343.144 176.837 343.144C176.837 343.144 181.297 349.395 182.78 349.096C184.263 348.797 200.891 334.81 202.096 327.961C202.096 327.961 203.285 325.284 205.958 329.745C208.63 334.207 225.871 355.642 229.141 355.343C229.141 355.343 241.921 357.426 244.594 352.367C247.267 347.307 234.77 338.085 234.77 338.085Z" fill="#575988"/>
<path d="M231.769 290.027H187.269V323.616H231.769V290.027Z" fill="url(#paint4_linear)"/>
<path d="M229.948 291.396H189.085V322.245H229.948V291.396Z" fill="white"/>
<path opacity="0.2" d="M206.707 294.068H193.084V301.78H206.707V294.068Z" fill="#BA1C51"/>
<path d="M225.954 294.068H209.962V295.848H225.954V294.068Z" fill="#E6E8EC"/>
<path d="M221.216 297.035H209.962V298.815H221.216V297.035Z" fill="#E6E8EC"/>
<path d="M225.954 300H209.962V301.78H225.954V300Z" fill="#E6E8EC"/>
<path d="M225.954 302.967H193.084V304.746H225.954V302.967Z" fill="#E6E8EC"/>
<path d="M225.954 305.932H193.084V307.711H225.954V305.932Z" fill="#E6E8EC"/>
<path d="M225.954 308.898H193.084V310.678H225.954V308.898Z" fill="#E6E8EC"/>
<path d="M223.291 311.865H193.084V313.645H223.291V311.865Z" fill="#E6E8EC"/>
<path d="M225.954 314.832H193.084V316.612H225.954V314.832Z" fill="#E6E8EC"/>
<path d="M225.954 317.799H193.084V319.579H225.954V317.799Z" fill="#E6E8EC"/>
<path d="M240.864 294.479C240.864 294.479 237.149 296.117 236.85 302.961C236.552 309.805 229.997 321.415 229.997 321.415L230.589 335.109C230.589 335.109 237.722 342.252 238.319 346.718C238.916 351.185 243.972 354.161 243.972 354.161C243.972 354.161 249.915 351.185 250.825 347.297C251.736 343.409 252.294 333.903 253.797 330.328C255.299 326.754 254.389 304.432 254.389 304.432L249.93 296.691L247.551 294.014L241.31 301.157C241.31 301.157 237.893 296.558 240.864 294.479Z" fill="#F3B5B7"/>
<path opacity="0.1" d="M232.097 330.642C232.097 330.642 231.206 319.924 233.879 317.547L239.229 302.348C239.229 302.348 241.163 295.058 240.864 294.459C240.565 293.861 233.879 300.264 233.879 300.264L229.42 316.041L230.609 332.711L232.097 330.642Z" fill="black"/>
<path d="M231.799 330.643C231.799 330.643 230.908 319.925 233.58 317.548L238.931 302.349C238.931 302.349 241.011 294.907 240.712 294.313C240.414 293.72 233.58 300.265 233.58 300.265L229.121 316.042L230.31 332.712L231.799 330.643Z" fill="#575988"/>
<path d="M233.879 325.882C233.879 325.882 219.008 321.122 218.127 319.93C217.246 318.739 207.725 311.002 204.455 316.356C201.185 321.71 216.639 323.22 216.639 323.22L232.391 332.746L233.879 325.882Z" fill="#F7C4A7"/>
<path opacity="0.1" d="M178.648 346.99L174.243 346.195C174.243 346.195 167.037 355.437 163.288 354.501C159.538 353.564 156.082 357.609 160.047 358.913C163.631 360.085 179.094 361.727 182.05 362.031C182.111 362.04 182.173 362.035 182.231 362.018C182.29 362 182.344 361.971 182.39 361.931C182.436 361.891 182.474 361.842 182.5 361.786C182.525 361.731 182.539 361.671 182.54 361.61C182.554 360.461 182.776 359.325 183.196 358.256C183.989 356.295 183.196 352.118 182.976 350.529C182.853 349.593 182.559 348.687 182.109 347.857L178.648 346.99Z" fill="black"/>
<path d="M178.58 347.277L174.174 346.482C174.174 346.482 166.979 355.729 163.205 354.788C159.431 353.846 155.999 357.896 159.964 359.2C163.547 360.372 179.011 362.014 181.967 362.318C182.028 362.327 182.089 362.322 182.148 362.305C182.206 362.287 182.261 362.258 182.307 362.218C182.353 362.178 182.39 362.129 182.416 362.073C182.442 362.018 182.456 361.958 182.457 361.897C182.471 360.748 182.693 359.612 183.113 358.543C183.906 356.582 183.113 352.405 182.892 350.816C182.77 349.88 182.476 348.974 182.026 348.144L178.58 347.277Z" fill="#F3B5B7"/>
<path opacity="0.1" d="M240.565 293.886C245.818 293.886 250.076 289.621 250.076 284.36C250.076 279.099 245.818 274.834 240.565 274.834C235.313 274.834 231.054 279.099 231.054 284.36C231.054 289.621 235.313 293.886 240.565 293.886Z" fill="black"/>
<path d="M239.675 293.886C244.927 293.886 249.186 289.621 249.186 284.36C249.186 279.099 244.927 274.834 239.675 274.834C234.422 274.834 230.164 279.099 230.164 284.36C230.164 289.621 234.422 293.886 239.675 293.886Z" fill="#F7C4A7"/>
<path d="M249.034 293.736C249.034 293.736 260.327 297.605 260.327 305.645C260.327 313.686 254.086 326.482 253.787 336.9C253.488 347.319 237.144 345.828 237.144 345.828C237.144 345.828 234.765 310.705 237.144 308.023C239.523 305.341 250.223 294.928 249.034 293.736Z" fill="#575988"/>
<path opacity="0.1" d="M246.954 310.404C246.954 310.404 242.793 328.858 232.983 325.602C232.983 325.602 227.932 333.045 231.515 336.32C231.515 336.32 240.135 338.403 245.779 332.745C251.423 327.088 255.574 324.994 256.465 318.13C257.355 311.266 257.933 301.76 254.996 302.652C252.059 303.545 246.954 310.404 246.954 310.404Z" fill="black"/>
<path d="M247.252 310.106C247.252 310.106 243.091 328.56 233.282 325.305C233.282 325.305 228.23 332.747 231.813 336.022C231.813 336.022 240.433 338.106 246.077 332.448C251.721 326.791 255.867 324.707 256.778 317.863C257.688 311.018 258.246 301.492 255.309 302.385C252.372 303.277 247.252 310.106 247.252 310.106Z" fill="#575988"/>
<path d="M183.367 357.59C183.367 357.619 183.367 357.649 183.338 357.673C183.125 358.181 182.962 358.708 182.848 359.247C182.917 359.012 183 358.757 183.098 358.536C183.223 358.232 183.314 357.914 183.367 357.59Z" fill="#DDDBE2"/>
<path d="M160.204 358.334C158.98 357.932 158.466 357.27 158.447 356.574C157.957 357.555 158.261 358.633 159.989 359.202C163.572 360.374 179.04 362.016 181.992 362.32C182.053 362.329 182.115 362.324 182.174 362.306C182.232 362.289 182.287 362.259 182.333 362.218C182.38 362.178 182.417 362.128 182.442 362.072C182.468 362.016 182.481 361.955 182.481 361.894C182.483 361.785 182.445 361.68 182.373 361.598C182.302 361.517 182.202 361.465 182.095 361.452C178.839 361.099 163.738 359.486 160.204 358.334Z" fill="#DDDBE2"/>
<path d="M133.81 349.377C133.886 349.157 133.983 348.945 134.099 348.744C133.778 349.069 133.538 349.466 133.399 349.901C132.748 351.725 150.292 361.374 153.087 362.903C153.131 362.931 153.182 362.948 153.234 362.952C153.286 362.957 153.339 362.948 153.387 362.927C153.435 362.906 153.477 362.874 153.51 362.833C153.543 362.792 153.566 362.744 153.576 362.693C153.593 362.624 153.586 362.552 153.558 362.487C153.53 362.423 153.481 362.369 153.42 362.335C150.316 360.638 133.164 351.181 133.81 349.377Z" fill="#DDDBE2"/>
<path d="M155.108 359.492C154.952 359.536 154.795 359.742 154.653 360.036H154.702C154.829 360.002 155.054 359.747 155.329 359.35C155.267 359.413 155.192 359.462 155.108 359.492Z" fill="#DDDBE2"/>
<path opacity="0.1" d="M238.353 292.745C237.516 294.593 237.34 296.667 236.723 298.628C236.122 300.526 235.092 302.26 233.712 303.694C232.332 305.128 230.64 306.223 228.769 306.894C231.857 308.13 235.499 306.62 237.888 304.119C240.277 301.619 241.672 298.29 243.013 295.054C246.479 297.388 246.058 302.751 247.218 306.928C247.718 308.745 248.602 310.434 249.809 311.879C251.017 313.325 252.52 314.494 254.218 315.307C255.909 316.068 257.748 316.443 259.602 316.406C261.456 316.369 263.278 315.92 264.938 315.092C261.761 311.209 257.238 305.884 257.776 300.717C258.212 296.53 255.211 293.333 255.422 289.136C255.716 283.175 253.464 280.159 249.181 276.335C246.689 274.099 250.61 270.942 247.399 271.869C246.136 272.232 244.805 270.888 243.566 271.325C241.119 272.207 238.431 271.874 235.905 272.467C222.772 275.546 239.567 290.043 238.353 292.745Z" fill="black"/>
<path d="M238.652 292.444C237.815 294.293 237.638 296.367 237.022 298.328C236.421 300.226 235.39 301.96 234.011 303.394C232.631 304.827 230.939 305.923 229.067 306.594C232.156 307.829 235.798 306.319 238.187 303.819C240.575 301.318 241.97 297.989 243.312 294.754C246.777 297.087 246.356 302.451 247.516 306.628C248.017 308.445 248.9 310.133 250.108 311.579C251.316 313.024 252.819 314.193 254.516 315.007C256.208 315.768 258.047 316.143 259.901 316.105C261.754 316.068 263.577 315.619 265.236 314.791C262.059 310.908 257.835 306.457 258.383 301.309C258.819 297.122 258.168 292.822 258.383 288.625C258.677 282.663 255.765 276.922 251.501 273.098C249.009 270.863 245.137 270.578 243.879 271.024C241.432 271.907 238.745 271.573 236.219 272.167C223.071 275.25 239.875 289.743 238.652 292.444Z" fill="#B96B6B"/>
<path d="M80.1951 383.087C97.3276 377.807 107.441 378.243 107.441 378.243L106.036 370.266C106.475 369.972 106.873 369.621 107.22 369.222C107.22 369.222 105.463 359.539 107.22 357.117C108.978 354.695 113.814 332.692 113.814 332.692V325.205C122.625 322.126 132.929 304.3 132.929 304.3L145.896 337.741C145.896 337.741 158.858 363.491 160.615 364.368C162.02 365.07 162.72 370.83 162.95 373.12L162.843 373.154C162.896 373.708 162.921 374.051 162.921 374.051L163.024 373.983V374.051C163.241 373.9 163.47 373.765 163.709 373.649C161.178 376.562 157.389 380.749 154.237 383.514C152.499 385.038 155.617 386.215 157.076 386.191C157.906 386.164 158.734 386.281 159.524 386.539C166.91 389.093 179.055 379.768 179.055 379.768L176.015 371.276C176.808 371.213 177.297 371.183 177.297 371.183C177.297 371.183 167.41 336.413 162.794 333.108C161.334 332.043 160.018 330.794 158.878 329.392C156.682 326.72 155.575 323.316 155.779 319.861L157.399 291.332C160.003 290.949 161.682 290.631 161.682 290.631C161.682 290.631 162.289 282.835 162.27 276.854C162.27 273.741 162.143 271.01 161.682 269.941C161.139 268.676 160.968 266.146 160.958 263.607C160.958 260.175 161.242 256.959 161.242 256.959C161.242 256.959 164.756 252.335 169.593 241.76C171.722 237.107 172.275 233.425 172.226 230.788C172.259 229.559 172.141 228.33 171.874 227.13C171.737 226.537 171.483 225.977 171.128 225.482C170.772 224.988 170.322 224.57 169.803 224.252C167.023 222.546 160.694 218.335 158.829 214.255C156.459 209.078 153.038 208.343 152.901 208.313L152.69 207.401C154.002 206.315 154.96 204.86 155.441 203.224C156.156 201.018 156.303 198.665 156.91 196.424C157.203 195.345 157.61 194.301 157.889 193.223C158.167 192.137 158.301 191.019 158.285 189.898C158.338 188.266 158.003 186.644 157.306 185.167C156.171 182.829 153.909 180.99 151.334 180.686C149.915 180.519 148.343 180.765 147.178 179.936C146.376 179.362 145.955 178.387 145.22 177.705C143.825 176.382 141.593 176.45 139.777 177.068C137.332 177.908 135.237 179.542 133.825 181.711C132.978 183.015 132.386 184.51 131.299 185.633C130.384 186.569 129.184 187.168 128.176 188.001C127.43 188.584 126.823 189.327 126.399 190.176C125.976 191.024 125.747 191.956 125.728 192.904C125.728 192.904 125.728 192.953 125.728 192.977C125.728 193.1 125.728 193.223 125.728 193.345C125.777 195.238 127.094 197.12 128.945 197.503C129.429 197.592 129.924 197.605 130.413 197.542C129.996 199.086 129.894 200.699 130.114 202.284C130.335 203.868 130.872 205.392 131.694 206.764C132.516 208.135 133.607 209.327 134.9 210.266C136.193 211.205 137.662 211.874 139.219 212.231C139.19 212.387 139.156 212.544 139.121 212.721H139.224C139.012 213.484 138.747 214.231 138.431 214.957H138.289L138.646 214.319L133.605 213.971C132.137 213.86 130.665 214.136 129.336 214.77C127.598 215.613 125.699 217.222 125.464 220.261C125.024 225.958 114.255 234.538 114.255 234.538C110.52 240.48 86.1278 241.579 86.1278 241.579C86.1278 241.579 86.2355 241.716 86.2845 241.789L85.795 241.696L83.9495 241.358C83.9495 241.358 78.237 224.414 72.7448 227.493C67.2526 230.572 82.1922 247.3 82.1922 247.3L86.5096 247.589L86.9453 247.619C86.7868 248.716 86.5596 249.801 86.2649 250.869C86.2061 251.085 86.1621 251.222 86.1523 251.257C86.1523 251.257 97.5087 249.943 107.157 250.153H108.028L108.645 250.124C109.134 255.434 116.692 266.225 116.692 266.225L121.357 267.205L121.71 267.279C120.206 270.393 118.297 273.293 116.031 275.903L114.494 284.488L114.617 284.458L114.494 285.149C114.758 285.085 115.002 284.957 115.204 284.777C112.194 292.778 107.201 305.231 103.73 309.575C98.4584 316.179 99.1143 326.735 99.1143 326.735C99.1143 326.735 93.8424 354.465 94.0626 359.524C94.0881 361.967 93.4283 364.367 92.1585 366.452C91.1243 367.641 90.2156 368.934 89.4466 370.311C85.4915 377.135 79.1182 376.684 79.1182 376.684C73.6259 380.224 80.1951 383.087 80.1951 383.087ZM114.132 248.854L114.7 248.629L114.832 248.575L115.376 248.339L115.469 248.295L115.958 248.07L116.066 248.021L116.585 247.761L116.707 247.697L117.196 247.437H117.236L117.725 247.153L117.843 247.084L118.332 246.8L118.41 246.751L118.836 246.491L118.934 246.432L119.389 246.143L119.492 246.074L119.913 245.795L119.952 245.77L120.383 245.471L120.481 245.403L120.892 245.109L120.956 245.064L121.318 244.8L121.396 244.741L121.773 244.452L121.852 244.393L122.194 244.123H122.224L122.571 243.844L122.645 243.785L122.973 243.515L123.002 243.491L123.296 243.241L123.345 243.196L123.633 242.946L123.677 242.907L123.942 242.667L124.196 242.437L124.231 242.402L124.72 241.912L125.435 241.853C126.042 242.642 126.282 244.04 126.306 245.643C126.238 249.756 124.994 254.836 124.994 254.836C124.888 257.357 124.45 259.852 123.692 262.258C123.156 262.229 122.63 262.101 122.14 261.881C122.14 261.881 122.111 262.038 122.067 262.303L121.646 262.195L119.507 261.66C119.507 261.66 117.73 252.6 114.132 248.854Z" fill="url(#paint5_linear)"/>
<path d="M173.719 366.074L177.797 377.454C177.797 377.454 166.631 386.033 159.377 384.259C158.284 383.987 157.171 383.806 156.048 383.719C154.546 383.606 151.961 382.513 153.557 381.116C158.706 376.605 165.569 368.227 165.569 368.227L173.719 366.074Z" fill="#4F4D59"/>
<path d="M105.933 365.002L107.862 375.96C107.862 375.96 97.9933 375.528 81.2621 380.686C81.2621 380.686 74.8252 377.892 80.1901 374.455C80.1901 374.455 86.4116 374.886 90.2738 368.223C94.136 361.56 96.4954 362.423 96.4954 362.423L105.933 365.002Z" fill="#4F4D59"/>
<path d="M156.988 285.503L155.099 318.842C154.896 322.395 156.073 325.889 158.383 328.594C159.427 329.835 160.617 330.946 161.927 331.903C166.43 335.124 176.083 369.071 176.083 369.071C176.083 369.071 165.143 369.713 162.142 371.866C162.142 371.866 161.501 363.271 159.783 362.413C158.065 361.555 145.411 336.428 145.411 336.428L132.748 303.766C132.748 303.766 122.664 321.171 114.083 324.176V331.481C114.083 331.481 109.364 352.965 107.646 355.328C105.928 357.692 107.646 367.144 107.646 367.144C107.646 367.144 102.712 373.376 91.3458 366.713C91.3458 366.713 94.9926 362.629 94.7723 357.687C94.5521 352.745 99.7163 325.681 99.7163 325.681C99.7163 325.681 99.0751 315.386 104.22 308.924C109.364 302.462 117.926 277.772 117.926 277.772L123.829 265.049L156.988 285.503Z" fill="#787C9C"/>
<g opacity="0.1">
<path opacity="0.1" d="M174.042 369.081C174.042 369.081 164.389 335.134 159.886 331.913C158.501 330.899 157.25 329.715 156.161 328.388C153.957 325.72 152.849 322.312 153.062 318.857L154.952 285.518L123.315 265.985L123.746 265.059L156.88 285.513L154.991 318.852C154.778 322.308 155.886 325.715 158.089 328.383C159.178 329.71 160.43 330.894 161.814 331.908C166.318 335.129 175.971 369.076 175.971 369.076C175.971 369.076 165.031 369.718 162.03 371.87C162.03 371.87 162.005 371.537 161.952 370.993C166.171 369.546 174.042 369.081 174.042 369.081Z" fill="black"/>
<path opacity="0.1" d="M105.615 367.159C105.615 367.159 103.897 357.707 105.615 355.344C107.333 352.981 112.052 331.497 112.052 331.497V324.191C120.633 321.181 130.716 303.781 130.716 303.781L131.465 305.718C128.558 310.336 120.799 321.804 113.985 324.191V331.497C113.985 331.497 109.266 352.981 107.548 355.344C105.83 357.707 107.548 367.159 107.548 367.159C107.548 367.159 105.155 370.175 99.868 369.768C103.809 369.429 105.615 367.159 105.615 367.159Z" fill="black"/>
</g>
<path d="M83.1958 248.119L87.4104 248.398L89.6327 248.545V243.152L86.6957 242.623L84.8894 242.294C84.8894 242.294 79.314 225.752 73.9491 228.758C68.5841 231.763 83.1958 248.119 83.1958 248.119Z" fill="#714B4F"/>
<path d="M150.766 203.861C150.766 203.861 153.557 214.603 154.413 221.266C155.27 227.929 134.466 222.556 134.466 222.556C134.466 222.556 142.401 212.887 137.893 207.73L150.766 203.861Z" fill="#714B4F"/>
<path d="M128.244 248.55L127.814 252.634L134.461 252.203L141.109 246.403L147.756 227.708L152.054 221.055L155.27 216.971L153.982 212.029C153.982 212.029 153.395 212.52 152.401 213.304C149.136 215.809 141.471 221.011 135.871 219.575C135.612 219.51 135.357 219.43 135.107 219.334L126.742 233.729L128.244 248.55Z" fill="#E6E6F0"/>
<path opacity="0.1" d="M152.269 210.76C152.269 210.76 155.696 211.402 158.06 216.56C159.876 220.526 166 224.615 168.736 226.297C169.258 226.616 169.71 227.037 170.067 227.535C170.423 228.033 170.676 228.597 170.812 229.194C171.365 231.646 171.575 236.205 168.57 242.775C163.851 253.071 160.419 257.601 160.419 257.601C160.419 257.601 159.563 267.897 160.85 270.922C162.138 273.947 160.85 290.474 160.85 290.474C160.85 290.474 138.333 294.769 130.819 290.474C123.305 286.179 124.382 269.593 124.382 269.593C124.382 269.593 117.304 284.645 114.744 285.076L116.213 276.697C116.213 276.697 124.578 267.671 125.024 256.071C125.024 256.071 127.598 245.545 125.454 242.75C125.454 242.75 89.2019 245.761 87.0579 243.182C87.0579 243.182 110.867 242.108 114.514 236.318C114.514 236.318 125.024 227.939 125.454 222.355C125.517 221.307 125.845 220.293 126.408 219.408C126.971 218.523 127.749 217.795 128.67 217.295C130.13 216.464 131.804 216.09 133.477 216.221L138.323 216.555C138.323 216.555 129.963 231.351 130.408 233.313C130.854 235.274 129.977 250.928 129.977 250.928C129.977 250.928 139.63 230.086 143.918 227.723C148.206 225.36 153.126 215.663 153.126 215.663L152.269 210.76Z" fill="black"/>
<path opacity="0.1" d="M128.244 248.55L127.814 252.634L134.461 252.203L141.109 246.403L147.756 227.708L152.054 221.055L155.27 216.971L153.982 212.029C153.982 212.029 153.395 212.52 152.401 213.304L152.695 215C152.695 215 147.761 224.703 143.473 227.066C139.185 229.429 129.532 250.271 129.532 250.271C129.532 250.271 130.388 234.582 129.963 232.655C129.669 231.341 133.428 224.1 135.871 219.575C135.612 219.51 135.357 219.43 135.107 219.334L126.742 233.729L128.244 248.55Z" fill="black"/>
<path opacity="0.1" d="M87.4104 248.402L89.6327 248.55V243.156L86.6957 242.627C87.7285 244 87.6943 246.382 87.4104 248.402Z" fill="black"/>
<path d="M152.269 210.094C152.269 210.094 155.696 210.736 158.06 215.894C159.876 219.86 166 223.949 168.736 225.631C169.258 225.95 169.71 226.371 170.067 226.869C170.423 227.367 170.676 227.931 170.812 228.528C171.365 230.98 171.575 235.539 168.57 242.109C163.851 252.405 160.419 256.935 160.419 256.935C160.419 256.935 159.563 267.231 160.85 270.256C162.138 273.281 160.85 289.808 160.85 289.808C160.85 289.808 138.333 294.103 130.819 289.808C123.305 285.513 124.382 268.966 124.382 268.966C124.382 268.966 117.304 284.003 114.744 284.43L116.213 276.051C116.213 276.051 124.578 267.025 125.024 255.425C125.024 255.425 127.598 244.899 125.454 242.104C125.454 242.104 117.089 251.13 107.651 250.929C98.2136 250.728 87.0579 252.003 87.0579 252.003C87.0579 252.003 89.2019 245.139 87.0579 242.55C87.0579 242.55 110.867 241.476 114.514 235.686C114.514 235.686 125.024 227.307 125.454 221.723C125.514 220.672 125.842 219.653 126.406 218.764C126.969 217.875 127.751 217.145 128.675 216.644C130.134 215.813 131.809 215.439 133.482 215.57L138.328 215.904C138.328 215.904 129.963 230.72 130.408 232.651C130.854 234.583 129.977 250.267 129.977 250.267C129.977 250.267 139.63 229.425 143.918 227.062C148.206 224.699 153.141 214.997 153.141 214.997L152.284 210.094" fill="#67647E"/>
<path opacity="0.1" d="M156.988 232.652C156.988 232.652 151.838 250.057 148.838 252.205C145.837 254.352 127.603 265.31 122.238 262.731C122.238 262.731 120.951 269.178 122.879 270.678C122.879 270.678 142.88 269.894 143.042 269.82C143.042 269.82 156.126 268.099 158.27 261.657C160.414 255.215 162.989 244.252 162.989 244.252L156.988 232.652Z" fill="black"/>
<path d="M129.532 252.311C129.946 252.311 130.281 251.831 130.281 251.238C130.281 250.645 129.946 250.164 129.532 250.164C129.118 250.164 128.783 250.645 128.783 251.238C128.783 251.831 129.118 252.311 129.532 252.311Z" fill="#BA7855"/>
<path d="M127.388 259.833C127.801 259.833 128.137 259.352 128.137 258.759C128.137 258.166 127.801 257.686 127.388 257.686C126.974 257.686 126.639 258.166 126.639 258.759C126.639 259.352 126.974 259.833 127.388 259.833Z" fill="#BA7855"/>
<g opacity="0.1">
<path opacity="0.1" d="M159.347 289.586C159.347 289.586 160.635 273.044 159.347 270.034C158.06 267.024 158.917 256.713 158.917 256.713C158.917 256.713 162.343 252.203 167.067 241.887C170.072 235.318 169.857 230.758 169.309 228.307C169.173 227.709 168.919 227.144 168.562 226.647C168.204 226.149 167.751 225.728 167.228 225.409C164.492 223.727 158.368 219.639 156.557 215.672C155.226 212.765 153.557 211.289 152.347 210.559L152.264 210.068C152.264 210.068 155.691 210.711 158.055 215.868C159.871 219.835 165.995 223.924 168.726 225.605C169.249 225.924 169.702 226.345 170.059 226.843C170.417 227.341 170.671 227.905 170.807 228.503C171.36 230.954 171.57 235.514 168.565 242.083C163.846 252.379 160.414 256.909 160.414 256.909C160.414 256.909 159.558 267.205 160.845 270.23C162.133 273.255 160.845 289.782 160.845 289.782C160.845 289.782 144.755 292.852 135.239 291.209C144.853 292.352 159.347 289.586 159.347 289.586Z" fill="black"/>
<path opacity="0.1" d="M130.408 232.651C130.702 233.975 130.408 241.76 130.168 246.526C129.131 248.649 128.479 250.051 128.479 250.051C128.479 250.051 129.336 234.362 128.91 232.435C128.504 230.597 136.037 217.114 136.786 215.766L138.348 215.873C138.348 215.873 129.963 230.719 130.408 232.651Z" fill="black"/>
<path opacity="0.1" d="M106.148 250.698C115.586 250.914 123.952 241.873 123.952 241.873C124.205 242.224 124.389 242.62 124.495 243.04C122.047 245.349 115.194 251.071 107.651 250.884C98.2136 250.669 87.0579 251.958 87.0579 251.958C87.0579 251.958 87.1019 251.816 87.1704 251.571C93.4754 250.927 99.8112 250.636 106.148 250.698Z" fill="black"/>
<path opacity="0.1" d="M122.88 268.744C122.88 268.744 122.791 270.087 122.84 272.103C120.608 276.515 116.545 284.124 114.729 284.428L115.048 282.663C118.171 278.736 122.88 268.744 122.88 268.744Z" fill="black"/>
</g>
<path d="M125.361 214.523H74.0861V253.226H125.361V214.523Z" fill="url(#paint6_linear)"/>
<path d="M124.035 215.521H75.4076V252.229H124.035V215.521Z" fill="white"/>
<path opacity="0.2" d="M96.373 218.697H80.1656V227.875H96.373V218.697Z" fill="#BA1C51"/>
<path d="M119.277 218.697H100.25V220.815H119.277V218.697Z" fill="#E6E8EC"/>
<path d="M113.643 222.229H100.25V224.347H113.643V222.229Z" fill="#E6E8EC"/>
<path d="M119.277 225.758H100.25V227.876H119.277V225.758Z" fill="#E6E8EC"/>
<path d="M119.282 229.289H80.1656V231.407H119.282V229.289Z" fill="#E6E8EC"/>
<path d="M119.282 232.818H80.1656V234.936H119.282V232.818Z" fill="#E6E8EC"/>
<path d="M119.282 236.342H80.1656V238.46H119.282V236.342Z" fill="#E6E8EC"/>
<path d="M116.11 239.873H80.1656V241.991H116.11V239.873Z" fill="#E6E8EC"/>
<path d="M119.282 243.402H80.1656V245.52H119.282V243.402Z" fill="#E6E8EC"/>
<path d="M119.282 246.934H80.1656V249.052H119.282V246.934Z" fill="#E6E8EC"/>
<path d="M116.873 266.598L121.431 267.579L125.024 268.319L123.095 262.926L121.754 262.588L119.664 262.068C119.664 262.068 116.663 247.041 110.657 248.12C104.651 249.198 116.873 266.598 116.873 266.598Z" fill="#714B4F"/>
<path opacity="0.1" d="M121.431 267.559L125.024 268.319L123.095 262.926L121.754 262.588C121.454 264.227 121.345 265.895 121.431 267.559Z" fill="black"/>
<path d="M156.988 232.225C156.988 232.225 151.838 249.629 148.838 251.777C145.837 253.924 127.603 264.882 122.238 262.303C122.238 262.303 120.951 268.75 122.879 270.25C122.879 270.25 142.88 269.466 143.042 269.392C143.042 269.392 156.126 267.672 158.27 261.229C160.414 254.787 162.989 243.825 162.989 243.825L156.988 232.225Z" fill="#67647E"/>
<path opacity="0.1" d="M150.551 204.295C150.551 204.295 150.987 205.977 151.569 208.423C150.379 210.674 148.482 212.47 146.171 213.533C143.86 214.597 141.264 214.868 138.784 214.306C139.297 212.1 139.185 209.894 137.677 208.144L150.551 204.295Z" fill="black"/>
<path d="M141.544 214.178C147.941 214.178 153.126 208.985 153.126 202.578C153.126 196.172 147.941 190.979 141.544 190.979C135.148 190.979 129.963 196.172 129.963 202.578C129.963 208.985 135.148 214.178 141.544 214.178Z" fill="#714B4F"/>
<path opacity="0.1" d="M131.485 199.381C130.644 199.615 129.763 199.668 128.9 199.538C127.094 199.165 125.807 197.327 125.763 195.479C125.781 194.553 126.005 193.642 126.418 192.814C126.831 191.985 127.423 191.259 128.151 190.689C129.13 189.87 130.305 189.286 131.201 188.374C132.263 187.291 132.841 185.83 133.649 184.555C135.029 182.438 137.075 180.844 139.464 180.025C141.241 179.422 143.414 179.353 144.78 180.648C145.48 181.31 145.891 182.266 146.674 182.825C147.81 183.634 149.347 183.393 150.732 183.555C151.988 183.748 153.176 184.249 154.193 185.011C155.21 185.774 156.024 186.776 156.562 187.928C157.614 190.263 157.815 192.893 157.13 195.361C156.861 196.415 156.469 197.44 156.18 198.489C155.578 200.676 155.436 202.97 154.741 205.127C154.046 207.284 152.612 209.393 150.443 210.03C150.615 207.612 150.138 205.191 149.063 203.019C148.885 202.546 148.535 202.157 148.084 201.931C147.697 201.831 147.291 201.831 146.904 201.931C144.188 202.334 141.417 201.772 139.072 200.342C138.25 199.852 136.967 198.131 136.086 197.959C134.975 197.758 132.66 199.116 131.485 199.381Z" fill="black"/>
<path d="M131.485 198.95C130.644 199.183 129.763 199.237 128.9 199.106C127.094 198.734 125.807 196.895 125.763 195.047C125.781 194.121 126.005 193.211 126.418 192.382C126.831 191.554 127.423 190.828 128.151 190.257C129.13 189.438 130.305 188.855 131.201 187.943C132.263 186.859 132.841 185.398 133.649 184.124C135.029 182.006 137.075 180.412 139.464 179.593C141.241 178.99 143.414 178.922 144.78 180.216C145.48 180.878 145.891 181.834 146.674 182.393C147.81 183.202 149.347 182.962 150.732 183.123C151.988 183.317 153.176 183.817 154.193 184.58C155.21 185.342 156.024 186.344 156.562 187.497C157.614 189.831 157.815 192.462 157.13 194.929C156.861 195.983 156.469 197.008 156.18 198.057C155.578 200.244 155.436 202.538 154.741 204.696C154.046 206.853 152.612 208.961 150.443 209.598C150.615 207.18 150.138 204.76 149.063 202.587C148.885 202.114 148.535 201.726 148.084 201.499C147.697 201.4 147.291 201.4 146.904 201.499C144.188 201.902 141.417 201.34 139.072 199.91C138.25 199.42 136.967 197.699 136.086 197.528C134.975 197.327 132.66 198.69 131.485 198.95Z" fill="#503F43"/>
<path d="M42.1804 372.754C43.0775 372.021 43.7313 371.033 44.0552 369.92C44.2999 368.792 43.8202 367.444 42.7433 367.032C41.5392 366.571 40.2518 367.405 39.2777 368.253C38.3036 369.101 37.1826 370.062 35.905 369.881C36.5616 369.285 37.0529 368.528 37.3308 367.685C37.6088 366.842 37.6639 365.942 37.491 365.071C37.4358 364.71 37.2835 364.371 37.0504 364.091C36.3798 363.375 35.1707 363.684 34.368 364.247C31.8226 366.042 31.1128 369.503 31.0981 372.621C30.8436 371.499 31.0589 370.327 31.0491 369.189C31.0394 368.052 30.7261 366.738 29.7569 366.14C29.1558 365.817 28.4809 365.656 27.7989 365.674C26.6534 365.63 25.3807 365.748 24.5975 366.586C23.6185 367.625 23.8779 369.376 24.7248 370.508C25.5716 371.641 26.8541 372.371 28.0387 373.166C28.9881 373.731 29.7979 374.503 30.4079 375.426C30.4796 375.554 30.5387 375.688 30.5841 375.828H37.7455C39.3557 375.009 40.8476 373.974 42.1804 372.754Z" fill="#BA1C51"/>
<path d="M467.557 304.603C468.454 303.871 469.108 302.883 469.432 301.77C469.677 300.642 469.197 299.294 468.12 298.882C466.916 298.421 465.628 299.254 464.654 300.103C463.68 300.951 462.559 301.912 461.282 301.73C461.938 301.134 462.43 300.378 462.707 299.535C462.985 298.692 463.041 297.791 462.868 296.921C462.812 296.56 462.66 296.221 462.427 295.94C461.756 295.224 460.547 295.533 459.745 296.097C457.199 297.892 456.489 301.353 456.475 304.471C456.22 303.348 456.436 302.177 456.426 301.039C456.416 299.902 456.103 298.588 455.133 297.99C454.532 297.666 453.857 297.506 453.175 297.524C452.03 297.48 450.757 297.597 449.974 298.436C448.995 299.475 449.255 301.225 450.101 302.358C450.948 303.49 452.231 304.221 453.415 305.015C454.365 305.581 455.175 306.353 455.785 307.275C455.856 307.403 455.915 307.538 455.961 307.677H463.132C464.739 306.857 466.227 305.823 467.557 304.603Z" fill="#BA1C51"/>
<path d="M531.183 157.229C530.169 154.258 528.706 150.492 527.551 149.605C527.48 149.548 527.403 149.5 527.32 149.463H527.179V145.791L524.447 146.227C524.013 144.9 523.686 143.541 523.468 142.163C523.731 142.426 524.066 142.606 524.431 142.68C524.796 142.753 525.175 142.716 525.519 142.574C525.475 142.501 525.436 142.422 525.397 142.344L525.519 142.29C525.089 141.53 524.861 140.673 524.858 139.799C524.88 139.002 525.007 138.211 525.235 137.446C525.725 135.755 526.552 134.176 527.012 132.475C527.306 131.38 527.444 130.25 527.423 129.116C527.438 127.195 527.002 125.297 526.151 123.576C525.935 123.079 525.599 122.644 525.172 122.311C524.787 122.098 524.392 121.905 523.987 121.733C523.308 121.275 522.723 120.691 522.264 120.012C520.324 117.645 517.726 115.908 514.799 115.021C514.036 114.735 513.209 114.669 512.41 114.83C510.575 115.32 509.909 117.6 508.421 118.796C507.109 119.85 505.308 119.958 503.658 120.311C502.008 120.664 500.349 121.365 499.223 122.64C498.447 123.528 498.024 124.671 498.034 125.851C497.988 126.402 498.085 126.956 498.315 127.459C498.545 127.962 498.9 128.398 499.345 128.724C499.854 129.058 500.429 129.275 501.031 129.359C501.633 129.444 502.246 129.395 502.826 129.214C502.372 130.784 502.247 132.43 502.459 134.05C502.671 135.67 503.214 137.228 504.056 138.628C504.897 140.027 506.019 141.238 507.35 142.183C508.68 143.127 510.192 143.787 511.789 144.119L512.107 144.692C513.091 146.527 513.837 148.479 514.329 150.502C511.813 151.929 509.067 153.267 507.408 153.395C507.341 154.044 507.22 154.687 507.045 155.317C506.657 156.895 505.912 158.363 504.867 159.607C502.61 162.146 492.463 181.345 492.463 181.345C492.463 181.345 492.145 182.11 491.621 183.414C485.321 184.189 475.037 185.307 472.168 184.733L460.91 174.006C460.91 174.006 457.268 176.791 457.586 180.174L455.555 178.242C455.555 178.242 444.844 186.43 461.757 191.793L487.49 194.784C485.042 202.192 482.751 210.816 483.461 215.508H483.672C484.163 215.508 484.654 215.47 485.14 215.395L485.096 216.229L482.619 260.677C482.619 260.677 482.056 268.865 489.668 272.532C489.668 272.532 498.969 299.914 495.307 303.022C495.307 303.022 495.743 303.253 496.477 303.571L488.826 310.362C488.826 310.362 483.187 311.774 480.088 311.489C479.544 311.415 478.991 311.543 478.535 311.851C478.079 312.158 477.752 312.623 477.617 313.156C477.617 313.215 477.616 313.274 477.587 313.333V313.406C477.587 313.465 477.587 313.524 477.587 313.588C477.587 313.652 477.587 313.632 477.587 313.656C477.587 313.681 477.587 313.759 477.587 313.813C477.587 313.867 477.587 313.858 477.587 313.877C477.587 313.897 477.587 314 477.621 314.059V314.127C477.638 314.193 477.659 314.258 477.685 314.323L477.709 314.382C477.734 314.446 477.763 314.51 477.798 314.573V314.617C477.832 314.681 477.871 314.74 477.91 314.804L477.944 314.858C477.99 314.923 478.041 314.988 478.096 315.054L478.14 315.103C478.199 315.171 478.263 315.235 478.326 315.299L478.356 315.323L478.566 315.505L478.61 315.539C478.688 315.603 478.777 315.662 478.865 315.721L478.923 315.76C479.016 315.819 479.114 315.877 479.217 315.931H479.261L479.579 316.088H479.623L479.995 316.235L480.074 316.265L480.48 316.397H480.549L480.994 316.515H481.028L481.518 316.613H481.616L482.144 316.691H482.247L482.844 316.75C484.004 316.838 485.566 316.873 487.372 316.863C487.372 316.863 487.372 316.907 487.372 316.932C487.372 316.956 487.372 317.035 487.372 317.088V317.152C487.372 317.211 487.372 317.275 487.407 317.334V317.402C487.423 317.468 487.444 317.533 487.47 317.598L487.495 317.657C487.519 317.721 487.549 317.785 487.583 317.848V317.892C487.617 317.956 487.656 318.015 487.695 318.079L487.73 318.133C487.775 318.198 487.826 318.263 487.881 318.329L487.925 318.378C487.984 318.447 488.048 318.51 488.111 318.574L488.141 318.598L488.351 318.78L488.395 318.814C488.474 318.878 488.562 318.937 488.65 318.996L488.713 319.035C488.806 319.094 488.904 319.152 489.007 319.206H489.051L489.369 319.363H489.414L489.786 319.51L489.864 319.54L490.27 319.672H490.339L490.784 319.79H490.818L491.308 319.888H491.406L491.934 319.966H492.037L492.634 320.025C499.977 320.589 523.356 318.898 523.356 318.898V318.834V318.75C523.586 317.657 524.711 311.303 520.717 306.606C520.835 306.484 520.952 306.351 521.06 306.214C521.06 306.214 517.961 300.85 519.65 299.154C521.339 297.458 511.196 268.1 511.196 268.1C511.196 268.1 505.841 259.633 508.94 250.033C512.038 240.434 508.656 229.991 508.656 229.991C508.656 229.991 516.047 227.789 516.199 218.675C516.199 218.401 516.199 218.116 516.199 217.827C516.361 217.85 516.525 217.86 516.689 217.856C516.793 217.864 516.898 217.864 517.002 217.856C517.002 217.856 515.592 212.777 517.286 209.105C518.979 205.433 522.641 208.821 526.023 193.862C528.471 183.037 530.625 170.584 531.628 164.524C532.064 162.092 531.912 159.59 531.183 157.229ZM466.857 188.984L464.287 186.533C465.139 186.886 466.084 187.234 467.141 187.567L476.833 188.695C472.506 189.097 468.487 189.312 466.857 188.989V188.984Z" fill="url(#paint7_linear)"/>
<path d="M491.391 187.547C491.391 187.547 471.453 190.322 467.298 189.508L456.22 178.967C456.22 178.967 445.696 187.012 462.314 192.278L493.329 195.881L491.391 187.547Z" fill="#FDC2CC"/>
<path opacity="0.05" d="M491.391 187.547C491.391 187.547 471.453 190.322 467.298 189.508L456.22 178.967C456.22 178.967 445.696 187.012 462.314 192.278L493.329 195.881L491.391 187.547Z" fill="black"/>
<path d="M498.591 300.15L488.899 308.75C488.899 308.75 483.363 310.137 480.313 309.858C477.264 309.578 475.883 314.574 483.084 315.128C490.285 315.682 513.267 314.02 513.267 314.02C513.267 314.02 515.484 305.146 508.837 300.15H498.591Z" fill="#47465A"/>
<path opacity="0.05" d="M498.591 300.15L488.899 308.75C488.899 308.75 483.363 310.137 480.313 309.858C477.264 309.578 475.883 314.574 483.084 315.128C490.285 315.682 513.267 314.02 513.267 314.02C513.267 314.02 515.484 305.146 508.837 300.15H498.591Z" fill="black"/>
<path opacity="0.3" d="M513.614 310.178C513.598 311.189 513.481 312.195 513.267 313.183C513.267 313.183 490.26 314.845 483.084 314.291C479.623 314.026 478.15 312.732 477.885 311.492C477.572 312.913 478.825 314.796 483.084 315.125C490.285 315.679 513.267 314.017 513.267 314.017C513.536 312.756 513.653 311.467 513.614 310.178Z" fill="white"/>
<path d="M509.943 142.891C509.943 142.891 516.037 151.49 513.82 157.315C511.603 163.139 525.436 151.211 525.436 151.211C525.436 151.211 521.006 143.445 523.218 135.125L509.943 142.891Z" fill="#FDC2CC"/>
<path d="M508.303 303.477L498.611 312.076C498.611 312.076 493.075 313.464 490.025 313.184C486.976 312.905 485.595 317.901 492.796 318.455C499.996 319.009 522.979 317.347 522.979 317.347C522.979 317.347 525.196 308.472 518.549 303.477H508.303Z" fill="#47465A"/>
<path d="M511.054 301.536C509.61 303.321 507.574 303.987 505.444 304.11C500.603 304.34 495.273 301.536 495.273 301.536C498.87 298.486 489.736 271.58 489.736 271.58C482.262 267.976 482.815 259.931 482.815 259.931L485.262 216.262L485.874 205.295L493.628 200.578L499.742 205.275L505.537 209.732C505.914 211.149 506.157 212.598 506.262 214.061C506.932 224.254 498.89 226.651 498.89 226.651C498.89 226.651 502.214 236.913 499.169 246.341C496.124 255.769 501.386 264.089 501.386 264.089C501.386 264.089 511.358 292.932 509.708 294.598C508.058 296.265 511.054 301.536 511.054 301.536Z" fill="#565171"/>
<path opacity="0.05" d="M511.054 301.536C509.61 303.321 507.574 303.987 505.444 304.11C500.603 304.34 495.273 301.536 495.273 301.536C498.87 298.486 489.736 271.58 489.736 271.58C482.262 267.976 482.815 259.931 482.815 259.931L485.262 216.262L485.874 205.295L493.628 200.578L499.742 205.275L505.537 209.732C505.914 211.149 506.157 212.598 506.262 214.061C506.932 224.254 498.89 226.651 498.89 226.651C498.89 226.651 502.214 236.913 499.169 246.341C496.124 255.769 501.386 264.089 501.386 264.089C501.386 264.089 511.358 292.932 509.708 294.598C508.058 296.265 511.054 301.536 511.054 301.536Z" fill="black"/>
<path d="M520.746 304.865C516.037 310.69 504.965 304.865 504.965 304.865C505.19 304.66 505.359 304.4 505.454 304.11C507.486 298.58 498.601 272.139 498.601 272.139C491.127 268.536 490.28 259.936 490.28 259.936L488.322 215.492L488.067 209.737L499.717 205.28L503.296 203.912L515.205 213.066C515.721 214.955 515.978 216.907 515.969 218.866C515.817 227.823 508.558 229.985 508.558 229.985C508.558 229.985 511.881 240.247 508.837 249.675C505.792 259.103 511.054 267.423 511.054 267.423C511.054 267.423 521.025 296.266 519.376 297.933C517.726 299.599 520.746 304.865 520.746 304.865Z" fill="#565171"/>
<path opacity="0.1" d="M515.969 218.858C513.575 218.515 508.729 215.628 506.237 214.059C505.288 213.461 504.681 213.078 504.681 213.078C504.681 213.078 502.189 206.146 495.542 211.416C493.381 213.174 490.94 214.556 488.322 215.505C487.32 215.86 486.288 216.119 485.238 216.28L485.85 205.312L493.603 200.596L499.717 205.293L503.296 203.925L515.205 213.078C515.719 214.962 515.976 216.906 515.969 218.858Z" fill="black"/>
<path d="M530.957 165.655C529.978 171.607 527.854 183.839 525.45 194.478C522.127 209.186 518.529 205.848 516.864 209.456C515.2 213.065 516.585 218.056 516.585 218.056C513.815 218.335 504.676 212.231 504.676 212.231C504.676 212.231 502.184 205.299 495.537 210.569C488.89 215.839 483.627 215.56 483.627 215.56C482.242 206.407 492.487 182.001 492.487 182.001C492.487 182.001 502.458 163.14 504.671 160.644C505.697 159.422 506.429 157.979 506.81 156.428C506.98 155.81 507.098 155.178 507.163 154.54C510.76 154.261 519.625 148.167 519.625 148.167L526.547 147.059V150.662C526.627 150.698 526.703 150.744 526.772 150.799C527.913 151.672 529.347 155.374 530.34 158.291C531.148 160.657 531.36 163.187 530.957 165.655Z" fill="#F68080"/>
<path opacity="0.1" d="M525.436 154.265C525.436 154.265 518.235 148.441 507.437 167.302C496.638 186.162 494.147 183.108 494.147 183.108C494.147 183.108 496.364 191.443 495.253 193.095C495.253 193.095 502.728 192.541 505.498 193.095C508.269 193.649 525.436 172.028 525.436 172.028C525.436 172.028 534.315 159.81 525.436 154.265Z" fill="black"/>
<path opacity="0.1" d="M525.176 153.152C525.176 153.152 517.976 147.327 507.177 166.188C496.379 185.049 493.887 181.995 493.887 181.995C493.887 181.995 502.473 191.423 505.239 191.982C508.005 192.541 525.176 170.9 525.176 170.9C525.176 170.9 534.036 158.702 525.176 153.152Z" fill="black"/>
<path opacity="0.1" d="M495.013 191.293C495.126 189.239 494.352 185.625 493.907 183.752C495.591 183.532 496.653 183.385 496.653 183.385L498.611 191.719L495.013 191.293Z" fill="black"/>
<path opacity="0.1" d="M523.512 135.684L510.222 143.45C510.782 144.269 511.298 145.116 511.769 145.989C512.536 146.146 513.316 146.224 514.099 146.225C517.648 146.225 519.302 142.494 521.442 139.983C521.29 137.968 522.92 137.914 523.512 135.684Z" fill="black"/>
<path d="M513.825 145.667C520.248 145.667 525.455 140.452 525.455 134.018C525.455 127.585 520.248 122.369 513.825 122.369C507.401 122.369 502.194 127.585 502.194 134.018C502.194 140.452 507.401 145.667 513.825 145.667Z" fill="#FDC2CC"/>
<path d="M495.85 147.295H402.184V217.993H495.85V147.295Z" fill="url(#paint8_linear)"/>
<path d="M493.75 148.877H404.284V216.408H493.75V148.877Z" fill="white"/>
<path opacity="0.2" d="M442.857 154.721H413.036V171.601H442.857V154.721Z" fill="#BA1C51"/>
<path d="M484.998 154.721H449.989V158.618H484.998V154.721Z" fill="#E6E8EC"/>
<path d="M474.626 161.217H449.989V165.114H474.626V161.217Z" fill="#E6E8EC"/>
<path d="M484.998 167.709H449.989V171.607H484.998V167.709Z" fill="#E6E8EC"/>
<path d="M484.998 174.199H413.036V178.097H484.998V174.199Z" fill="#E6E8EC"/>
<path d="M484.998 180.695H413.036V184.593H484.998V180.695Z" fill="#E6E8EC"/>
<path d="M484.998 187.188H413.036V191.085H484.998V187.188Z" fill="#E6E8EC"/>
<path d="M479.163 193.684H413.036V197.581H479.163V193.684Z" fill="#E6E8EC"/>
<path d="M484.998 200.176H413.036V204.073H484.998V200.176Z" fill="#E6E8EC"/>
<path d="M484.998 206.666H413.036V210.564H484.998V206.666Z" fill="#E6E8EC"/>
<path opacity="0.1" d="M499.11 124.595C500.284 123.39 501.81 122.588 503.467 122.305C505.082 121.957 506.854 121.849 508.147 120.834C509.615 119.663 510.261 117.437 512.063 116.942C512.846 116.784 513.658 116.848 514.407 117.128C517.286 117.998 519.841 119.704 521.75 122.031C522.2 122.698 522.773 123.272 523.439 123.722C523.837 123.891 524.226 124.081 524.604 124.291C525.018 124.619 525.345 125.045 525.553 125.531C526.852 128.157 527.151 131.167 526.395 133.998C525.945 135.67 525.132 137.22 524.653 138.901C524.173 140.583 524.05 142.451 524.932 143.936C524.08 144.373 523.003 143.824 522.484 143.029C521.965 142.235 521.789 141.255 521.505 140.338C520.951 138.534 519.913 136.918 518.504 135.665C517.633 134.891 516.057 134.371 515.465 135.371C515.23 135.759 515.244 136.249 515.044 136.651C514.647 137.435 513.502 137.592 512.743 137.141C512.012 136.635 511.498 135.872 511.304 135.004C510.163 131.14 508.22 128.708 504.093 130.361C502.556 130.978 500.745 131.395 499.267 130.336C497.338 128.939 497.715 126.174 499.11 124.595Z" fill="black"/>
<path d="M499.11 124.316C500.284 123.11 501.81 122.309 503.467 122.026C505.082 121.678 506.854 121.57 508.147 120.555C509.615 119.383 510.261 117.158 512.063 116.662C512.846 116.505 513.658 116.569 514.407 116.849C517.286 117.718 519.841 119.425 521.75 121.751C522.2 122.418 522.773 122.992 523.439 123.443C523.837 123.612 524.226 123.802 524.604 124.012C525.018 124.339 525.345 124.766 525.553 125.252C526.852 127.878 527.151 130.888 526.395 133.719C525.945 135.391 525.132 136.94 524.653 138.622C524.173 140.304 524.05 142.172 524.932 143.657C524.08 144.093 523.003 143.544 522.484 142.75C521.965 141.956 521.789 140.975 521.505 140.058C520.951 138.255 519.913 136.639 518.504 135.386C517.633 134.611 516.057 134.092 515.465 135.092C515.23 135.479 515.244 135.97 515.044 136.372C514.647 137.156 513.502 137.313 512.743 136.862C512.012 136.356 511.498 135.593 511.304 134.724C510.163 130.861 508.22 128.429 504.093 130.081C502.556 130.699 500.745 131.116 499.267 130.057C497.338 128.659 497.715 125.899 499.11 124.316Z" fill="#B96B6B"/>
<path opacity="0.05" d="M526.787 150.798H521.158C521.158 150.798 510.08 156.343 509.806 156.069C509.62 155.883 507.907 156.201 506.82 156.432C506.99 155.813 507.108 155.182 507.173 154.544C510.771 154.265 519.636 148.171 519.636 148.171L526.557 147.062V150.666C526.639 150.7 526.716 150.745 526.787 150.798Z" fill="black"/>
<path opacity="0.3" d="M523.306 313.508C523.29 314.519 523.174 315.525 522.959 316.513C522.959 316.513 499.952 318.175 492.776 317.621C489.315 317.357 487.842 316.062 487.578 314.822C487.264 316.244 488.517 318.126 492.776 318.455C499.977 319.009 522.959 317.347 522.959 317.347C523.228 316.086 523.345 314.797 523.306 313.508Z" fill="white"/>
<g opacity="0.05">
<path opacity="0.05" d="M492.913 210.27C489.178 213.212 485.874 214.442 483.706 214.933C483.706 215.139 483.745 215.345 483.774 215.541C483.774 215.541 489.036 215.82 495.684 210.55C496.713 209.666 497.93 209.029 499.243 208.687C497.794 208.015 495.723 208.059 492.913 210.27Z" fill="black"/>
<path opacity="0.05" d="M530.497 158.301C529.518 155.359 528.05 151.682 526.929 150.809C526.86 150.754 526.784 150.708 526.703 150.672C526.703 150.672 524.413 150.75 524.486 150.809C525.627 151.682 526.733 155.104 527.727 158.021C528.527 160.386 528.734 162.912 528.329 165.375C527.35 171.327 525.225 183.56 522.822 194.199C519.498 208.907 515.9 205.568 514.236 209.177C512.875 212.118 513.556 216.011 513.849 217.32C515.034 217.81 516.062 218.119 516.728 218.051C516.728 218.051 515.342 213.06 517.007 209.451C518.671 205.843 522.269 209.172 525.592 194.473C527.996 183.839 530.11 171.602 531.099 165.65C531.504 163.188 531.297 160.664 530.497 158.301Z" fill="black"/>
</g>
<path d="M498.591 191.709L495.013 191.292L467.601 188.1C450.987 182.83 461.507 174.789 461.507 174.789L472.584 185.33C475.781 185.972 488.312 184.477 493.926 183.756C495.61 183.536 496.672 183.389 496.672 183.389L498.591 191.709Z" fill="#FDC2CC"/>
<path d="M525.436 153.71C525.436 153.71 518.235 147.886 507.437 166.747C496.638 185.608 494.147 182.553 494.147 182.553C494.147 182.553 496.364 190.888 495.253 192.54C495.253 192.54 502.728 191.986 505.498 192.54C508.269 193.094 525.436 171.458 525.436 171.458C525.436 171.458 534.315 159.255 525.436 153.71Z" fill="#F68080"/>
</g>
<defs>
<linearGradient id="paint0_linear" x1="308.87" y1="292.812" x2="308.87" y2="55.332" gradientUnits="userSpaceOnUse">
<stop stop-color="#808080" stop-opacity="0.25"/>
<stop offset="0.54" stop-color="#808080" stop-opacity="0.12"/>
<stop offset="1" stop-color="#808080" stop-opacity="0.1"/>
</linearGradient>
<linearGradient id="paint1_linear" x1="58495.3" y1="163333" x2="58495.3" y2="67396.6" gradientUnits="userSpaceOnUse">
<stop stop-color="#808080" stop-opacity="0.25"/>
<stop offset="0.54" stop-color="#808080" stop-opacity="0.12"/>
<stop offset="1" stop-color="#808080" stop-opacity="0.1"/>
</linearGradient>
<linearGradient id="paint2_linear" x1="17979.5" y1="133785" x2="17979.5" y2="75202.6" gradientUnits="userSpaceOnUse">
<stop stop-color="#808080" stop-opacity="0.25"/>
<stop offset="0.54" stop-color="#808080" stop-opacity="0.12"/>
<stop offset="1" stop-color="#808080" stop-opacity="0.1"/>
</linearGradient>
<linearGradient id="paint3_linear" x1="62578.2" y1="75875.2" x2="62578.2" y2="57593.6" gradientUnits="userSpaceOnUse">
<stop stop-color="#808080" stop-opacity="0.25"/>
<stop offset="0.54" stop-color="#808080" stop-opacity="0.12"/>
<stop offset="1" stop-color="#808080" stop-opacity="0.1"/>
</linearGradient>
<linearGradient id="paint4_linear" x1="17211.8" y1="21310.3" x2="21257.4" y2="21310.3" gradientUnits="userSpaceOnUse">
<stop stop-color="#808080" stop-opacity="0.25"/>
<stop offset="0.54" stop-color="#808080" stop-opacity="0.12"/>
<stop offset="1" stop-color="#808080" stop-opacity="0.1"/>
</linearGradient>
<linearGradient id="paint5_linear" x1="-54927" y1="177802" x2="-54927" y2="87572.6" gradientUnits="userSpaceOnUse">
<stop stop-color="#808080" stop-opacity="0.25"/>
<stop offset="0.54" stop-color="#808080" stop-opacity="0.12"/>
<stop offset="1" stop-color="#808080" stop-opacity="0.1"/>
</linearGradient>
<linearGradient id="paint6_linear" x1="10519.9" y1="20204.4" x2="10519.9" y2="17149.2" gradientUnits="userSpaceOnUse">
<stop stop-color="#808080" stop-opacity="0.25"/>
<stop offset="0.54" stop-color="#808080" stop-opacity="0.12"/>
<stop offset="1" stop-color="#808080" stop-opacity="0.1"/>
</linearGradient>
<linearGradient id="paint7_linear" x1="85047.3" y1="145654" x2="85047.3" y2="59505" gradientUnits="userSpaceOnUse">
<stop stop-color="#808080" stop-opacity="0.25"/>
<stop offset="0.54" stop-color="#808080" stop-opacity="0.12"/>
<stop offset="1" stop-color="#808080" stop-opacity="0.1"/>
</linearGradient>
<linearGradient id="paint8_linear" x1="86322.1" y1="31581.7" x2="86322.1" y2="21387.1" gradientUnits="userSpaceOnUse">
<stop stop-color="#808080" stop-opacity="0.25"/>
<stop offset="0.54" stop-color="#808080" stop-opacity="0.12"/>
<stop offset="1" stop-color="#808080" stop-opacity="0.1"/>
</linearGradient>
<clipPath id="clip0">
<rect width="532" height="387" fill="white"/>
</clipPath>
</defs>
</svg>
