<svg width="497" height="366" viewBox="0 0 497 366" fill="none" xmlns="http://www.w3.org/2000/svg">
<path opacity="0.1" d="M288.761 54.8804C256.901 53.7756 226.553 43.4764 197.577 32.2177C168.602 20.959 139.894 8.48117 108.799 2.51292C88.7958 -1.32507 65.9206 -1.85764 49.8055 8.86409C34.2929 19.1897 29.2833 37.0328 26.5916 53.56C24.564 66.007 23.3721 79.0879 28.9227 90.7559C32.7799 98.8412 39.628 105.641 44.3649 113.388C60.8362 140.351 49.2029 173.594 31.3373 199.914C22.9807 212.264 13.2474 224.042 6.78638 237.189C0.325382 250.336 -2.66541 265.393 2.98631 278.8C8.59405 292.092 21.9471 302.074 36.4129 309.094C65.7974 323.355 100.425 327.439 134.19 329.75C208.938 334.847 284.082 332.646 359.023 330.446C386.758 329.622 414.612 328.791 441.899 324.499C457.046 322.118 472.686 318.337 483.682 309.205C497.646 297.611 501.108 277.981 491.748 263.43C476.056 239.051 432.658 232.995 421.689 206.829C415.65 192.427 421.852 176.384 430.626 163.026C449.451 134.369 481.004 109.233 482.666 76.4779C483.81 53.9825 468.64 31.4519 445.189 20.8094C420.603 9.65194 386.516 11.056 368.378 29.5241C349.712 48.5424 316.892 55.8575 288.761 54.8804Z" fill="#BA1C51"/>
<path d="M292.122 332.694L206.356 331.594L206.607 329.393L210.754 293.082H286.074L291.616 329.393L292.038 332.144L292.122 332.694Z" fill="#D0D2D5"/>
<path opacity="0.1" d="M292.038 332.143H249.239L206.356 331.593L206.607 329.393H291.616L292.038 332.143Z" fill="black"/>
<path d="M305.866 329.943H192.062V332.694H305.866V329.943Z" fill="#D0D2D5"/>
<path d="M414.445 74.9872C414.45 74.0468 414.269 73.1147 413.914 72.2441C413.559 71.3736 413.035 70.5815 412.374 69.9133C411.713 69.2451 410.927 68.7137 410.06 68.3496C409.194 67.9854 408.264 67.7956 407.324 67.791H89.5039C88.5638 67.7951 87.6337 67.9844 86.7667 68.3483C85.8998 68.7122 85.113 69.2435 84.4513 69.9118C83.7896 70.58 83.266 71.3723 82.9104 72.2431C82.5548 73.114 82.3741 74.0465 82.3787 74.9872V267.767H414.445V74.9872Z" fill="#444053"/>
<path d="M82.3789 265.852V288.431C82.3789 290.322 83.1296 292.135 84.4658 293.472C85.802 294.81 87.6143 295.561 89.504 295.561H407.325C409.213 295.56 411.025 294.808 412.36 293.471C413.695 292.134 414.445 290.321 414.445 288.431V265.852H82.3789Z" fill="#D0D2D5"/>
<path opacity="0.1" d="M402.35 79.8945H96.1233V253.198H402.35V79.8945Z" fill="#BA1C51"/>
<path d="M250.061 286.99C251.186 286.991 252.296 286.736 253.307 286.245C254.319 285.754 255.206 285.04 255.902 284.156C256.113 283.886 256.306 283.602 256.478 283.306L252.406 282.637L256.804 282.673C257.228 281.753 257.459 280.756 257.484 279.743C257.508 278.73 257.324 277.723 256.945 276.784L251.038 279.865L256.487 275.859C255.975 274.98 255.288 274.216 254.469 273.614C253.649 273.012 252.715 272.585 251.724 272.359C250.732 272.133 249.705 272.114 248.706 272.302C247.707 272.49 246.757 272.881 245.916 273.452C245.074 274.022 244.358 274.76 243.813 275.619C243.268 276.477 242.906 277.439 242.748 278.444C242.589 279.449 242.639 280.476 242.894 281.461C243.149 282.445 243.604 283.367 244.229 284.169C244.925 285.05 245.811 285.762 246.821 286.25C247.832 286.739 248.939 286.992 250.061 286.99Z" fill="#BA1C51"/>
<path opacity="0.1" d="M257.486 295.561L291.699 329.944L286.452 295.561H257.486Z" fill="black"/>
<path d="M304.973 111.16H106.261C105.63 111.16 105.118 111.673 105.118 112.305V230.613C105.118 231.245 105.63 231.758 106.261 231.758H304.973C305.605 231.758 306.117 231.245 306.117 230.613V112.305C306.117 111.673 305.605 111.16 304.973 111.16Z" fill="white"/>
<path d="M402.438 79.9102H96.3213V90.0333H402.438V79.9102Z" fill="white"/>
<path d="M106.094 81.6719H97.9837C97.7942 81.6719 97.6406 81.8256 97.6406 82.0152V87.4905C97.6406 87.6801 97.7942 87.8338 97.9837 87.8338H106.094C106.283 87.8338 106.437 87.6801 106.437 87.4905V82.0152C106.437 81.8256 106.283 81.6719 106.094 81.6719Z" fill="#BA1C51"/>
<path opacity="0.3" d="M294.426 81.6719H202.574C202.433 81.6719 202.319 81.7862 202.319 81.9272V87.5785C202.319 87.7195 202.433 87.8338 202.574 87.8338H294.426C294.567 87.8338 294.681 87.7195 294.681 87.5785V81.9272C294.681 81.7862 294.567 81.6719 294.426 81.6719Z" fill="#BA1C51"/>
<path d="M291.941 85.3871H291.717L291.634 85.3167C291.916 84.9815 292.071 84.5578 292.073 84.1195C292.071 83.7595 291.962 83.4083 291.76 83.1103C291.558 82.8123 291.272 82.5808 290.939 82.4451C290.606 82.3093 290.24 82.2754 289.888 82.3475C289.535 82.4197 289.212 82.5947 288.959 82.8505C288.706 83.1063 288.534 83.4314 288.465 83.7848C288.396 84.1381 288.434 84.504 288.573 84.8361C288.712 85.1682 288.946 85.4517 289.245 85.6508C289.545 85.8499 289.897 85.9557 290.257 85.9549C290.695 85.9522 291.118 85.7965 291.453 85.5147L291.537 85.5852V85.814L292.944 87.2225L293.384 86.7823L291.941 85.3871ZM290.252 85.3871C290.001 85.388 289.754 85.314 289.545 85.1746C289.335 85.0351 289.171 84.8365 289.075 84.6039C288.978 84.3713 288.952 84.1152 289.001 83.868C289.05 83.6209 289.171 83.3938 289.349 83.2157C289.527 83.0375 289.754 82.9163 290.001 82.8673C290.248 82.8184 290.504 82.844 290.737 82.9408C290.969 83.0376 291.167 83.2013 291.307 83.4112C291.446 83.621 291.52 83.8675 291.519 84.1195C291.52 84.2863 291.488 84.4516 291.425 84.606C291.362 84.7603 291.269 84.9005 291.151 85.0184C291.033 85.1364 290.893 85.2297 290.739 85.293C290.584 85.3563 290.419 85.3883 290.252 85.3871Z" fill="#444053"/>
<path d="M398.04 87.8338C399.74 87.8338 401.118 86.4544 401.118 84.7528C401.118 83.0513 399.74 81.6719 398.04 81.6719C396.339 81.6719 394.961 83.0513 394.961 84.7528C394.961 86.4544 396.339 87.8338 398.04 87.8338Z" fill="#BA1C51"/>
<path d="M348.151 101.037H321.7C321.109 101.037 320.631 101.516 320.631 102.107V119.334C320.631 119.924 321.109 120.403 321.7 120.403H348.151C348.741 120.403 349.219 119.924 349.219 119.334V102.107C349.219 101.516 348.741 101.037 348.151 101.037Z" fill="white"/>
<path d="M393.373 101.037H356.965C356.817 101.037 356.697 101.157 356.697 101.306V103.85C356.697 103.998 356.817 104.118 356.965 104.118H393.373C393.522 104.118 393.642 103.998 393.642 103.85V101.306C393.642 101.157 393.522 101.037 393.373 101.037Z" fill="white"/>
<path d="M393.373 107.639H356.965C356.817 107.639 356.697 107.759 356.697 107.907V110.451C356.697 110.599 356.817 110.72 356.965 110.72H393.373C393.522 110.72 393.642 110.599 393.642 110.451V107.907C393.642 107.759 393.522 107.639 393.373 107.639Z" fill="white"/>
<path d="M393.373 114.242H356.965C356.817 114.242 356.697 114.362 356.697 114.511V117.055C356.697 117.203 356.817 117.323 356.965 117.323H393.373C393.522 117.323 393.642 117.203 393.642 117.055V114.511C393.642 114.362 393.522 114.242 393.373 114.242Z" fill="white"/>
<path d="M348.151 131.406H321.7C321.109 131.406 320.631 131.885 320.631 132.476V149.703C320.631 150.293 321.109 150.772 321.7 150.772H348.151C348.741 150.772 349.219 150.293 349.219 149.703V132.476C349.219 131.885 348.741 131.406 348.151 131.406Z" fill="white"/>
<path d="M393.373 131.406H356.965C356.817 131.406 356.697 131.526 356.697 131.675V134.219C356.697 134.367 356.817 134.487 356.965 134.487H393.373C393.522 134.487 393.642 134.367 393.642 134.219V131.675C393.642 131.526 393.522 131.406 393.373 131.406Z" fill="white"/>
<path d="M393.373 138.01H356.965C356.817 138.01 356.697 138.13 356.697 138.278V140.822C356.697 140.971 356.817 141.091 356.965 141.091H393.373C393.522 141.091 393.642 140.971 393.642 140.822V138.278C393.642 138.13 393.522 138.01 393.373 138.01Z" fill="white"/>
<path d="M393.351 144.611H356.987C356.826 144.611 356.697 144.741 356.697 144.902V147.402C356.697 147.562 356.826 147.692 356.987 147.692H393.351C393.512 147.692 393.642 147.562 393.642 147.402V144.902C393.642 144.741 393.512 144.611 393.351 144.611Z" fill="white"/>
<path d="M348.151 161.775H321.7C321.109 161.775 320.631 162.254 320.631 162.845V180.072C320.631 180.663 321.109 181.141 321.7 181.141H348.151C348.741 181.141 349.219 180.663 349.219 180.072V162.845C349.219 162.254 348.741 161.775 348.151 161.775Z" fill="white"/>
<path d="M393.351 161.775H356.987C356.826 161.775 356.697 161.905 356.697 162.066V164.566C356.697 164.726 356.826 164.856 356.987 164.856H393.351C393.512 164.856 393.642 164.726 393.642 164.566V162.066C393.642 161.905 393.512 161.775 393.351 161.775Z" fill="white"/>
<path d="M393.351 168.379H356.987C356.826 168.379 356.697 168.509 356.697 168.669V171.169C356.697 171.33 356.826 171.46 356.987 171.46H393.351C393.512 171.46 393.642 171.33 393.642 171.169V168.669C393.642 168.509 393.512 168.379 393.351 168.379Z" fill="white"/>
<path d="M393.351 174.98H356.987C356.826 174.98 356.697 175.111 356.697 175.271V177.771C356.697 177.931 356.826 178.061 356.987 178.061H393.351C393.512 178.061 393.642 177.931 393.642 177.771V175.271C393.642 175.111 393.512 174.98 393.351 174.98Z" fill="white"/>
<path d="M348.151 192.146H321.7C321.109 192.146 320.631 192.625 320.631 193.216V210.443C320.631 211.034 321.109 211.512 321.7 211.512H348.151C348.741 211.512 349.219 211.034 349.219 210.443V193.216C349.219 192.625 348.741 192.146 348.151 192.146Z" fill="white"/>
<path d="M393.351 192.146H356.987C356.826 192.146 356.697 192.277 356.697 192.437V194.937C356.697 195.097 356.826 195.227 356.987 195.227H393.351C393.512 195.227 393.642 195.097 393.642 194.937V192.437C393.642 192.277 393.512 192.146 393.351 192.146Z" fill="white"/>
<path d="M393.351 198.748H356.987C356.826 198.748 356.697 198.878 356.697 199.039V201.539C356.697 201.699 356.826 201.829 356.987 201.829H393.351C393.512 201.829 393.642 201.699 393.642 201.539V199.039C393.642 198.878 393.512 198.748 393.351 198.748Z" fill="white"/>
<path d="M393.351 205.35H356.987C356.826 205.35 356.697 205.48 356.697 205.64V208.14C356.697 208.301 356.826 208.431 356.987 208.431H393.351C393.512 208.431 393.642 208.301 393.642 208.14V205.64C393.642 205.48 393.512 205.35 393.351 205.35Z" fill="white"/>
<path d="M348.151 222.516H321.7C321.109 222.516 320.631 222.994 320.631 223.585V240.812C320.631 241.403 321.109 241.882 321.7 241.882H348.151C348.741 241.882 349.219 241.403 349.219 240.812V223.585C349.219 222.994 348.741 222.516 348.151 222.516Z" fill="white"/>
<path d="M393.351 222.516H356.987C356.826 222.516 356.697 222.646 356.697 222.806V225.306C356.697 225.467 356.826 225.597 356.987 225.597H393.351C393.512 225.597 393.642 225.467 393.642 225.306V222.806C393.642 222.646 393.512 222.516 393.351 222.516Z" fill="white"/>
<path d="M393.351 229.117H356.987C356.826 229.117 356.697 229.247 356.697 229.408V231.908C356.697 232.068 356.826 232.198 356.987 232.198H393.351C393.512 232.198 393.642 232.068 393.642 231.908V229.408C393.642 229.247 393.512 229.117 393.351 229.117Z" fill="white"/>
<path d="M393.351 235.719H356.987C356.826 235.719 356.697 235.849 356.697 236.009V238.509C356.697 238.67 356.826 238.8 356.987 238.8H393.351C393.512 238.8 393.642 238.67 393.642 238.509V236.009C393.642 235.849 393.512 235.719 393.351 235.719Z" fill="white"/>
<path opacity="0.1" d="M179.338 143.119H134.111V145.465H179.338V143.119Z" fill="#BA1C51"/>
<path opacity="0.1" d="M142.485 130.717H138.131V143.12H142.485V130.717Z" fill="#BA1C51"/>
<path opacity="0.1" d="M148.849 130.717H144.495V143.12H148.849V130.717Z" fill="#BA1C51"/>
<path opacity="0.1" d="M155.214 130.717H150.859V143.12H155.214V130.717Z" fill="#BA1C51"/>
<path opacity="0.1" d="M161.578 130.717H157.224V143.12H161.578V130.717Z" fill="#BA1C51"/>
<path opacity="0.1" d="M167.942 130.717H163.588V143.12H167.942V130.717Z" fill="#BA1C51"/>
<path opacity="0.1" d="M174.311 130.717H169.957V143.12H174.311V130.717Z" fill="#BA1C51"/>
<path opacity="0.1" d="M142.485 133.062H138.131V134.405H142.485V133.062Z" fill="#BA1C51"/>
<path opacity="0.1" d="M148.849 133.062H144.495V134.405H148.849V133.062Z" fill="#BA1C51"/>
<path opacity="0.1" d="M155.214 133.062H150.859V134.405H155.214V133.062Z" fill="#BA1C51"/>
<path opacity="0.1" d="M161.578 133.062H157.224V134.405H161.578V133.062Z" fill="#BA1C51"/>
<path opacity="0.1" d="M167.942 133.062H163.588V134.405H167.942V133.062Z" fill="#BA1C51"/>
<path opacity="0.1" d="M174.311 133.062H169.957V134.405H174.311V133.062Z" fill="#BA1C51"/>
<path opacity="0.1" d="M142.485 139.098H138.131V140.44H142.485V139.098Z" fill="#BA1C51"/>
<path opacity="0.1" d="M148.849 139.098H144.495V140.44H148.849V139.098Z" fill="#BA1C51"/>
<path opacity="0.1" d="M155.214 139.098H150.859V140.44H155.214V139.098Z" fill="#BA1C51"/>
<path opacity="0.1" d="M161.578 139.098H157.224V140.44H161.578V139.098Z" fill="#BA1C51"/>
<path opacity="0.1" d="M167.942 139.098H163.588V140.44H167.942V139.098Z" fill="#BA1C51"/>
<path opacity="0.1" d="M174.311 139.098H169.957V140.44H174.311V139.098Z" fill="#BA1C51"/>
<path opacity="0.1" d="M278.496 149.152H233.269V151.498H278.496V149.152Z" fill="#BA1C51"/>
<path opacity="0.1" d="M241.643 136.75H237.289V149.153H241.643V136.75Z" fill="#BA1C51"/>
<path opacity="0.1" d="M248.007 136.75H243.653V149.153H248.007V136.75Z" fill="#BA1C51"/>
<path opacity="0.1" d="M254.372 136.75H250.017V149.153H254.372V136.75Z" fill="#BA1C51"/>
<path opacity="0.1" d="M260.74 136.75H256.386V149.153H260.74V136.75Z" fill="#BA1C51"/>
<path opacity="0.1" d="M267.104 136.75H262.75V149.153H267.104V136.75Z" fill="#BA1C51"/>
<path opacity="0.1" d="M273.469 136.75H269.115V149.153H273.469V136.75Z" fill="#BA1C51"/>
<path opacity="0.1" d="M241.643 139.098H237.289V140.44H241.643V139.098Z" fill="#BA1C51"/>
<path opacity="0.1" d="M248.007 139.098H243.653V140.44H248.007V139.098Z" fill="#BA1C51"/>
<path opacity="0.1" d="M254.372 139.098H250.017V140.44H254.372V139.098Z" fill="#BA1C51"/>
<path opacity="0.1" d="M260.74 139.098H256.386V140.44H260.74V139.098Z" fill="#BA1C51"/>
<path opacity="0.1" d="M267.104 139.098H262.75V140.44H267.104V139.098Z" fill="#BA1C51"/>
<path opacity="0.1" d="M273.469 139.098H269.115V140.44H273.469V139.098Z" fill="#BA1C51"/>
<path opacity="0.1" d="M241.643 145.131H237.289V146.473H241.643V145.131Z" fill="#BA1C51"/>
<path opacity="0.1" d="M248.007 145.131H243.653V146.473H248.007V145.131Z" fill="#BA1C51"/>
<path opacity="0.1" d="M254.372 145.131H250.017V146.473H254.372V145.131Z" fill="#BA1C51"/>
<path opacity="0.1" d="M260.74 145.131H256.386V146.473H260.74V145.131Z" fill="#BA1C51"/>
<path opacity="0.1" d="M267.104 145.131H262.75V146.473H267.104V145.131Z" fill="#BA1C51"/>
<path opacity="0.1" d="M273.469 145.131H269.115V146.473H273.469V145.131Z" fill="#BA1C51"/>
<path opacity="0.1" d="M278.496 166.248H233.269V168.594H278.496V166.248Z" fill="#BA1C51"/>
<path opacity="0.1" d="M241.643 153.846H237.289V166.249H241.643V153.846Z" fill="#BA1C51"/>
<path opacity="0.1" d="M248.007 153.846H243.653V166.249H248.007V153.846Z" fill="#BA1C51"/>
<path opacity="0.1" d="M254.372 153.846H250.017V166.249H254.372V153.846Z" fill="#BA1C51"/>
<path opacity="0.1" d="M260.74 153.846H256.386V166.249H260.74V153.846Z" fill="#BA1C51"/>
<path opacity="0.1" d="M267.104 153.846H262.75V166.249H267.104V153.846Z" fill="#BA1C51"/>
<path opacity="0.1" d="M273.469 153.846H269.115V166.249H273.469V153.846Z" fill="#BA1C51"/>
<path opacity="0.1" d="M241.643 156.191H237.289V157.534H241.643V156.191Z" fill="#BA1C51"/>
<path opacity="0.1" d="M248.007 156.191H243.653V157.534H248.007V156.191Z" fill="#BA1C51"/>
<path opacity="0.1" d="M254.372 156.191H250.017V157.534H254.372V156.191Z" fill="#BA1C51"/>
<path opacity="0.1" d="M260.74 156.191H256.386V157.534H260.74V156.191Z" fill="#BA1C51"/>
<path opacity="0.1" d="M267.104 156.191H262.75V157.534H267.104V156.191Z" fill="#BA1C51"/>
<path opacity="0.1" d="M273.469 156.191H269.115V157.534H273.469V156.191Z" fill="#BA1C51"/>
<path opacity="0.1" d="M241.643 162.225H237.289V163.567H241.643V162.225Z" fill="#BA1C51"/>
<path opacity="0.1" d="M248.007 162.225H243.653V163.567H248.007V162.225Z" fill="#BA1C51"/>
<path opacity="0.1" d="M254.372 162.225H250.017V163.567H254.372V162.225Z" fill="#BA1C51"/>
<path opacity="0.1" d="M260.74 162.225H256.386V163.567H260.74V162.225Z" fill="#BA1C51"/>
<path opacity="0.1" d="M267.104 162.225H262.75V163.567H267.104V162.225Z" fill="#BA1C51"/>
<path opacity="0.1" d="M273.469 162.225H269.115V163.567H273.469V162.225Z" fill="#BA1C51"/>
<path opacity="0.1" d="M161.855 169.646C161.518 169.213 161.209 168.759 160.931 168.286L167.445 167.216L160.408 167.269C159.733 165.798 159.364 164.206 159.325 162.588C159.286 160.97 159.576 159.361 160.179 157.859L169.613 162.753L160.901 156.345C161.711 154.922 162.807 153.682 164.119 152.702C165.432 151.723 166.932 151.026 168.526 150.655C170.121 150.284 171.775 150.246 173.384 150.545C174.993 150.844 176.524 151.473 177.879 152.391C179.234 153.31 180.385 154.5 181.259 155.885C182.133 157.27 182.711 158.821 182.958 160.44C183.204 162.06 183.113 163.713 182.691 165.295C182.269 166.878 181.524 168.356 180.503 169.637C181.034 170.307 181.488 171.033 181.858 171.803L173.405 176.204L182.417 173.18C183.047 175.05 183.202 177.047 182.868 178.992C182.534 180.937 181.722 182.768 180.503 184.32C181.884 186.072 182.744 188.178 182.985 190.396C183.226 192.615 182.837 194.856 181.864 196.864C180.892 198.872 179.373 200.565 177.484 201.75C175.594 202.934 173.409 203.563 171.179 203.563C168.949 203.563 166.764 202.934 164.875 201.75C162.985 200.565 161.467 198.872 160.494 196.864C159.521 194.856 159.133 192.615 159.373 190.396C159.614 188.178 160.474 186.072 161.855 184.32C160.21 182.226 159.316 179.64 159.316 176.976C159.316 174.313 160.21 171.727 161.855 169.633V169.646Z" fill="#BA1C51"/>
<path opacity="0.1" d="M183.046 176.988C183.046 179.648 182.15 182.232 180.503 184.32C181.884 186.072 182.744 188.178 182.985 190.397C183.226 192.615 182.837 194.857 181.864 196.864C180.892 198.872 179.373 200.566 177.484 201.75C175.594 202.935 173.409 203.563 171.179 203.563C168.949 203.563 166.764 202.935 164.875 201.75C162.985 200.566 161.467 198.872 160.494 196.864C159.521 194.857 159.133 192.615 159.373 190.397C159.614 188.178 160.474 186.072 161.855 184.32C160.258 182.309 183.046 175.654 183.046 176.988Z" fill="#BA1C51"/>
<path opacity="0.2" d="M173.079 206.715C173.1 206.746 173.119 206.778 173.136 206.812H169.108C169.13 206.781 169.143 206.746 169.165 206.715C168.818 206.111 168.639 205.426 168.646 204.73C168.644 204.253 168.726 203.779 168.888 203.33C169.112 203.365 169.389 203.405 169.71 203.44C170.645 203.534 171.586 203.534 172.521 203.44C172.79 203.414 173.067 203.378 173.352 203.334C173.35 203.342 173.35 203.349 173.352 203.356C173.512 203.798 173.592 204.264 173.589 204.734C173.598 205.428 173.422 206.112 173.079 206.715Z" fill="#3F3D56"/>
<path opacity="0.1" d="M158.6 206.811H136.169C136.121 206.683 136.077 206.547 136.037 206.415C135.247 203.871 135.338 201.136 136.297 198.651C134.107 197.136 132.489 194.928 131.704 192.383C130.918 189.837 131.01 187.102 131.965 184.615C131.514 184.304 131.086 183.961 130.685 183.589L136.587 180.645L129.875 182.775C128.796 181.57 127.974 180.157 127.46 178.623C126.946 177.089 126.75 175.466 126.885 173.853L137.357 175.746L127.144 172.194C127.496 170.593 128.176 169.081 129.14 167.755C130.105 166.43 131.333 165.318 132.748 164.49C134.162 163.662 135.733 163.137 137.361 162.946C138.988 162.755 140.638 162.904 142.205 163.382C143.773 163.86 145.224 164.658 146.469 165.725C147.713 166.792 148.723 168.105 149.436 169.582C150.148 171.059 150.547 172.667 150.609 174.306C150.67 175.945 150.391 177.578 149.791 179.104C150.499 179.598 151.152 180.166 151.739 180.799L144.957 187.493L152.676 181.939C153.833 183.54 154.572 185.406 154.827 187.365C155.082 189.325 154.844 191.317 154.136 193.162C156.266 194.638 157.855 196.771 158.661 199.235C159.467 201.7 159.446 204.36 158.6 206.811Z" fill="#BA1C51"/>
<path opacity="0.1" d="M158.6 206.812H136.169C136.121 206.684 136.077 206.548 136.037 206.416C135.247 203.872 135.338 201.136 136.297 198.652C134.186 197.19 153.991 184.096 154.382 185.373C155.172 187.917 155.081 190.655 154.123 193.141C156.26 194.617 157.855 196.752 158.663 199.221C159.472 201.69 159.45 204.357 158.6 206.812Z" fill="#BA1C51"/>
<path opacity="0.1" d="M260.089 190.73C258.727 193.018 256.634 194.78 254.147 195.73C254.254 196.577 254.27 197.433 254.196 198.283L244.691 197.711L253.976 199.726C253.703 200.993 253.224 202.206 252.56 203.318C251.75 204.68 250.673 205.863 249.393 206.795H236.453V207.134H223.259C223.285 207.02 223.311 206.909 223.342 206.795C223.824 204.974 224.731 203.294 225.989 201.893C227.247 200.491 228.819 199.41 230.577 198.736C230.24 196.094 230.799 193.415 232.165 191.129C233.531 188.843 235.626 187.083 238.111 186.131C238.042 185.586 238.009 185.038 238.015 184.489L244.15 186.914L238.081 183.345C238.26 181.736 238.765 180.181 239.566 178.775C240.367 177.368 241.446 176.141 242.738 175.167L248.328 184.225L244.137 174.251C246.42 172.987 249.056 172.511 251.637 172.895C254.218 173.28 256.6 174.505 258.416 176.381C260.231 178.256 261.379 180.678 261.682 183.272C261.984 185.865 261.425 188.487 260.089 190.73Z" fill="#BA1C51"/>
<path opacity="0.1" d="M252.56 203.334C251.75 204.695 250.673 205.878 249.393 206.811H236.453V207.15H223.259C223.285 207.035 223.311 206.925 223.342 206.811C223.824 204.99 224.731 203.31 225.989 201.908C227.247 200.507 228.819 199.425 230.577 198.752C230.467 197.872 233.023 198.004 236.431 198.576C243.112 199.698 253.013 202.577 252.56 203.334Z" fill="#BA1C51"/>
<path d="M196.473 171.64C196.473 171.64 198.101 180.442 194.468 183.317C190.835 186.191 197.546 203.418 208.621 201.406C219.696 199.395 224.208 184.945 224.208 184.945C224.208 184.945 213.116 182.648 217.228 170.971L196.473 171.64Z" fill="#EE8E9E"/>
<path opacity="0.1" d="M196.473 171.64C196.473 171.64 198.101 180.442 194.468 183.317C190.835 186.191 197.546 203.418 208.621 201.406C219.696 199.395 224.208 184.945 224.208 184.945C224.208 184.945 213.116 182.648 217.228 170.971L196.473 171.64Z" fill="black"/>
<path d="M206.277 178.101C216.418 178.101 224.64 169.874 224.64 159.725C224.64 149.577 216.418 141.35 206.277 141.35C196.136 141.35 187.914 149.577 187.914 159.725C187.914 169.874 196.136 178.101 206.277 178.101Z" fill="#EE8E9E"/>
<path d="M236.453 194.66V207.151H175.819V195.228C175.819 193.716 176.264 192.237 177.099 190.977C177.934 189.717 179.121 188.73 180.512 188.141L182.25 187.402C186.648 185.527 191.992 183.199 193.738 182.23C193.929 182.135 194.109 182.018 194.274 181.883C195.229 180.928 195.04 182.169 195.04 182.169C195.04 182.169 195.013 182.406 194.996 182.816C194.89 185.628 195.295 196.68 208.239 195.76C220.866 194.88 221.433 186.332 221.306 183.819C221.299 183.587 221.28 183.355 221.249 183.124C222.122 183.332 222.977 183.611 223.804 183.96C226.443 184.937 230.34 186.504 231.382 187.244C231.708 187.472 232.103 187.71 232.534 187.952C233.023 188.225 233.481 188.551 233.898 188.925C234.702 189.648 235.345 190.532 235.786 191.52C236.226 192.508 236.453 193.578 236.453 194.66Z" fill="#BA1C51"/>
<path opacity="0.1" d="M223.804 183.96C222.735 188.916 219.379 198.199 207.284 198.441C194.397 198.696 193.65 185.87 193.733 182.23C193.927 182.137 194.109 182.021 194.274 181.883C195.233 180.928 195.039 182.169 195.039 182.169C195.039 182.169 193.416 196.812 208.234 195.76C223.052 194.708 221.231 183.128 221.231 183.128C221.231 183.058 222.335 183.441 223.804 183.96Z" fill="black"/>
<path d="M184.541 160.646C185.151 160.494 185.792 160.528 186.382 160.743C186.973 160.959 187.485 161.347 187.853 161.857C188.521 162.794 188.623 163.925 188.706 165.008C189.502 165.175 189.951 164.273 190.026 163.591C190.32 160.814 190.342 157.983 191.275 155.299C192.207 152.614 194.243 150.017 197.371 148.991C198.439 148.621 199.581 148.512 200.7 148.675C201.364 148.785 201.989 149.018 202.649 149.115C204.936 149.493 207.421 148.411 209.563 149.163C210.908 149.638 211.762 150.734 212.391 151.83C212.664 152.421 213.036 152.962 213.49 153.428C214.401 154.247 215.826 154.458 217.132 154.713C218.438 154.969 219.863 155.413 220.422 156.421C220.923 157.332 220.554 158.384 220.387 159.37C220.128 160.932 220.389 162.535 221.13 163.934C221.372 164.374 221.864 164.907 222.449 164.762C222.711 164.673 222.933 164.493 223.074 164.255C224.574 162.152 224.534 159.414 226.417 157.517C227.045 156.883 227.859 156.39 228.471 155.756C228.933 155.287 229.273 154.71 229.458 154.077C229.644 153.444 229.67 152.775 229.535 152.13C229.196 150.677 228.035 149.489 227.098 148.212C225.882 146.595 224.995 144.754 224.49 142.794C224.402 142.566 224.402 142.314 224.49 142.086C224.668 141.855 224.897 141.668 225.159 141.54C225.668 141.198 226.036 140.682 226.193 140.088C226.35 139.494 226.286 138.863 226.012 138.314C225.48 137.227 224.31 136.399 222.99 135.906C221.652 135.466 220.27 135.171 218.869 135.026C217.946 135.158 216.864 134.634 216.578 133.895C216.45 133.565 216.45 133.208 216.323 132.878C216.15 132.547 215.899 132.262 215.593 132.047C215.287 131.833 214.934 131.695 214.563 131.646C213.777 131.518 212.971 131.576 212.21 131.813C211.331 132.059 210.332 132.429 209.571 131.998C209.171 131.773 208.951 131.364 208.52 131.179C207.64 130.809 206.734 131.558 206.106 132.174C205.499 132.82 204.755 133.321 203.928 133.64C203.492 133.806 203.025 133.876 202.558 133.845C202.092 133.814 201.638 133.682 201.228 133.459C200.625 133.076 200.322 132.46 199.842 131.971C198.937 131.163 197.778 130.696 196.566 130.651C195.319 130.585 194.07 130.722 192.867 131.056C190.571 131.616 188.378 132.537 186.371 133.785C185.361 134.34 184.504 135.137 183.877 136.104C183.506 136.846 183.314 137.665 183.318 138.494C183.222 141.095 184.084 143.833 186.331 145.655C184.959 146.227 184.497 147.631 184.176 148.877C183.661 150.866 183.147 152.887 183.34 154.911C183.437 155.959 183.723 157.006 183.569 158.05C183.446 158.541 183.378 159.044 183.367 159.55C183.431 159.829 183.578 160.082 183.787 160.278C183.996 160.473 184.259 160.601 184.541 160.646Z" fill="#454B69"/>
<g opacity="0.1">
<path opacity="0.1" d="M229.249 151.311C229.052 151.742 228.784 152.137 228.457 152.481C227.846 153.124 227.032 153.621 226.403 154.242C224.521 156.126 224.561 158.881 223.061 160.985C222.921 161.223 222.699 161.401 222.436 161.487C221.864 161.636 221.372 161.117 221.117 160.659C220.826 160.102 220.606 159.51 220.461 158.898C220.431 159.053 220.4 159.207 220.373 159.339C220.115 160.9 220.376 162.504 221.117 163.903C221.359 164.343 221.851 164.876 222.436 164.73C222.698 164.642 222.92 164.462 223.061 164.224C224.561 162.12 224.521 159.383 226.403 157.486C227.032 156.852 227.846 156.359 228.457 155.725C228.92 155.255 229.259 154.678 229.445 154.046C229.631 153.413 229.657 152.744 229.522 152.098C229.454 151.828 229.363 151.565 229.249 151.311Z" fill="black"/>
<path opacity="0.1" d="M225.15 138.283C224.887 138.409 224.658 138.596 224.481 138.829C224.394 139.055 224.394 139.306 224.481 139.533C224.655 140.217 224.877 140.888 225.146 141.54C225.655 141.198 226.023 140.682 226.18 140.088C226.337 139.494 226.273 138.863 225.999 138.314C225.913 138.133 225.81 137.96 225.691 137.799C225.535 137.985 225.353 138.148 225.15 138.283Z" fill="black"/>
<path opacity="0.1" d="M186.358 142.363C184.8 141.078 183.773 139.26 183.477 137.262C183.398 137.656 183.354 138.057 183.345 138.459C183.244 140.381 183.75 142.286 184.792 143.903C185.107 143.215 185.665 142.666 186.358 142.363Z" fill="black"/>
<path opacity="0.1" d="M220.387 156.125C220.554 155.134 220.923 154.083 220.422 153.176C219.863 152.164 218.438 151.723 217.132 151.468C215.826 151.213 214.401 150.997 213.49 150.183C213.036 149.716 212.664 149.176 212.391 148.585C211.77 147.489 210.908 146.385 209.562 145.918C207.421 145.165 204.936 146.244 202.648 145.87C201.989 145.76 201.364 145.531 200.7 145.429C199.581 145.266 198.439 145.375 197.371 145.746C194.243 146.776 192.207 149.373 191.275 152.054C190.342 154.734 190.32 157.564 190.026 160.346C189.951 161.024 189.502 161.93 188.706 161.763C188.623 160.676 188.521 159.562 187.853 158.607C187.484 158.098 186.972 157.711 186.382 157.496C185.791 157.281 185.15 157.248 184.541 157.401C184.171 157.319 183.843 157.108 183.613 156.807C183.661 157.21 183.661 157.618 183.613 158.022C183.49 158.513 183.422 159.016 183.411 159.523C183.467 159.804 183.607 160.063 183.811 160.264C184.016 160.466 184.276 160.601 184.559 160.654C185.168 160.501 185.81 160.535 186.4 160.751C186.99 160.967 187.502 161.354 187.87 161.864C188.539 162.802 188.64 163.933 188.724 165.016C189.52 165.183 189.968 164.281 190.043 163.598C190.338 160.821 190.36 157.991 191.292 155.306C192.225 152.621 194.261 150.024 197.388 148.999C198.457 148.628 199.598 148.52 200.718 148.682C201.382 148.792 202.006 149.025 202.666 149.122C204.953 149.501 207.438 148.418 209.58 149.171C210.926 149.646 211.779 150.742 212.408 151.838C212.682 152.429 213.054 152.969 213.508 153.436C214.418 154.254 215.843 154.465 217.149 154.721C218.456 154.976 219.788 155.39 220.373 156.323C220.351 156.257 220.373 156.191 220.387 156.125Z" fill="black"/>
<path opacity="0.1" d="M183.595 154.758C183.668 153.938 183.619 153.112 183.45 152.307C183.321 153.157 183.293 154.02 183.367 154.877C183.367 155.097 183.415 155.317 183.446 155.533C183.494 155.273 183.56 155.018 183.595 154.758Z" fill="black"/>
</g>
<path d="M162.07 224.91V216.965C162.07 216.906 162.094 216.848 162.136 216.806C162.178 216.764 162.235 216.741 162.295 216.741H163.196C163.256 216.741 163.313 216.764 163.355 216.806C163.397 216.848 163.421 216.906 163.421 216.965V220.271L167.08 216.877C167.166 216.805 167.27 216.759 167.381 216.744C167.492 216.729 167.605 216.745 167.708 216.791C167.81 216.837 167.897 216.91 167.96 217.003C168.022 217.096 168.057 217.205 168.061 217.317V224.513C168.057 224.625 168.022 224.734 167.96 224.827C167.897 224.92 167.81 224.994 167.708 225.04C167.605 225.086 167.492 225.102 167.381 225.087C167.27 225.071 167.166 225.025 167.08 224.954L163.421 221.582V224.87C163.421 224.929 163.397 224.987 163.355 225.029C163.313 225.071 163.256 225.094 163.196 225.094H162.295C162.241 225.095 162.19 225.077 162.149 225.043C162.107 225.009 162.08 224.962 162.07 224.91Z" fill="#444053"/>
<path d="M250.488 216.966V224.911C250.488 224.941 250.482 224.97 250.47 224.998C250.459 225.025 250.442 225.05 250.421 225.071C250.399 225.092 250.374 225.108 250.346 225.12C250.319 225.131 250.289 225.136 250.259 225.135H249.38C249.32 225.135 249.263 225.112 249.221 225.07C249.179 225.027 249.155 224.97 249.155 224.911V221.605L245.496 224.994C245.409 225.066 245.305 225.112 245.194 225.127C245.083 225.142 244.969 225.125 244.867 225.08C244.765 225.034 244.677 224.961 244.614 224.868C244.551 224.775 244.515 224.666 244.511 224.554V217.332C244.515 217.22 244.551 217.111 244.614 217.018C244.677 216.925 244.765 216.852 244.867 216.806C244.969 216.761 245.083 216.744 245.194 216.759C245.305 216.774 245.409 216.82 245.496 216.892L249.155 220.263V216.98C249.155 216.92 249.179 216.863 249.221 216.821C249.263 216.779 249.32 216.755 249.38 216.755H250.259C250.317 216.754 250.374 216.775 250.416 216.815C250.459 216.854 250.485 216.908 250.488 216.966Z" fill="#444053"/>
<path d="M204.786 225.254H202.996C202.763 225.254 202.539 225.161 202.374 224.996C202.209 224.831 202.116 224.607 202.116 224.374V217.798C202.116 217.565 202.209 217.341 202.374 217.176C202.539 217.011 202.763 216.918 202.996 216.918H204.786C205.019 216.918 205.243 217.011 205.408 217.176C205.573 217.341 205.666 217.565 205.666 217.798V224.374C205.666 224.607 205.573 224.831 205.408 224.996C205.243 225.161 205.019 225.254 204.786 225.254ZM210.46 224.374V217.798C210.46 217.565 210.367 217.341 210.202 217.176C210.037 217.011 209.813 216.918 209.58 216.918H207.772C207.539 216.918 207.315 217.011 207.15 217.176C206.985 217.341 206.893 217.565 206.893 217.798V224.374C206.893 224.607 206.985 224.831 207.15 224.996C207.315 225.161 207.539 225.254 207.772 225.254H209.562C209.679 225.256 209.796 225.235 209.904 225.192C210.013 225.149 210.112 225.085 210.196 225.003C210.279 224.921 210.346 224.823 210.391 224.715C210.436 224.607 210.46 224.491 210.46 224.374Z" fill="#444053"/>
<path opacity="0.6" d="M259.056 206.258H153.498V207.433H259.056V206.258Z" fill="#444053"/>
<path d="M186.093 209.629C187.631 209.629 188.877 208.381 188.877 206.843C188.877 205.304 187.631 204.057 186.093 204.057C184.556 204.057 183.309 205.304 183.309 206.843C183.309 208.381 184.556 209.629 186.093 209.629Z" fill="#444053"/>
<path d="M186.094 206.258H153.498V207.433H186.094V206.258Z" fill="#444053"/>
<path d="M420.946 338.896C435.392 338.896 447.102 336.642 447.102 333.861C447.102 331.08 435.392 328.826 420.946 328.826C406.5 328.826 394.79 331.08 394.79 333.861C394.79 336.642 406.5 338.896 420.946 338.896Z" fill="#BA1C51"/>
<path d="M420.51 335.71C422.191 335.71 423.554 333.924 423.554 331.722C423.554 329.52 422.191 327.734 420.51 327.734C418.829 327.734 417.467 329.52 417.467 331.722C417.467 333.924 418.829 335.71 420.51 335.71Z" fill="#3F3D56"/>
<path d="M420.51 330.833C422.191 330.833 423.554 329.047 423.554 326.845C423.554 324.643 422.191 322.857 420.51 322.857C418.829 322.857 417.467 324.643 417.467 326.845C417.467 329.047 418.829 330.833 420.51 330.833Z" fill="#3F3D56"/>
<path d="M420.51 325.96C422.191 325.96 423.554 324.174 423.554 321.972C423.554 319.77 422.191 317.984 420.51 317.984C418.829 317.984 417.467 319.77 417.467 321.972C417.467 324.174 418.829 325.96 420.51 325.96Z" fill="#3F3D56"/>
<path d="M420.51 321.085C422.191 321.085 423.554 319.299 423.554 317.097C423.554 314.895 422.191 313.109 420.51 313.109C418.829 313.109 417.467 314.895 417.467 317.097C417.467 319.299 418.829 321.085 420.51 321.085Z" fill="#3F3D56"/>
<path d="M420.51 316.208C422.191 316.208 423.554 314.422 423.554 312.22C423.554 310.018 422.191 308.232 420.51 308.232C418.829 308.232 417.467 310.018 417.467 312.22C417.467 314.422 418.829 316.208 420.51 316.208Z" fill="#3F3D56"/>
<path d="M420.51 311.331C422.191 311.331 423.554 309.545 423.554 307.343C423.554 305.141 422.191 303.355 420.51 303.355C418.829 303.355 417.467 305.141 417.467 307.343C417.467 309.545 418.829 311.331 420.51 311.331Z" fill="#3F3D56"/>
<path d="M420.51 306.454C422.191 306.454 423.554 304.668 423.554 302.466C423.554 300.264 422.191 298.479 420.51 298.479C418.829 298.479 417.467 300.264 417.467 302.466C417.467 304.668 418.829 306.454 420.51 306.454Z" fill="#3F3D56"/>
<path d="M431.906 269.104C432.322 268.573 432.701 268.014 433.041 267.432L425.036 266.111L433.692 266.177C434.521 264.369 434.973 262.411 435.021 260.422C435.068 258.434 434.71 256.456 433.969 254.611L422.367 260.64L433.072 252.766C432.069 251.031 430.72 249.521 429.108 248.33C427.496 247.14 425.657 246.294 423.704 245.846C421.752 245.398 419.728 245.357 417.759 245.726C415.79 246.095 413.918 246.865 412.259 247.99C410.601 249.115 409.192 250.569 408.12 252.262C407.047 253.956 406.335 255.852 406.028 257.833C405.72 259.813 405.823 261.837 406.331 263.776C406.838 265.715 407.74 267.529 408.978 269.104C408.333 269.924 407.776 270.809 407.316 271.745L417.704 277.146L406.63 273.426C405.852 275.726 405.66 278.184 406.07 280.577C406.48 282.97 407.48 285.223 408.978 287.132C407.287 289.285 406.235 291.871 405.943 294.594C405.651 297.317 406.131 300.067 407.327 302.53C408.523 304.993 410.387 307.07 412.707 308.523C415.027 309.976 417.708 310.747 420.445 310.747C423.181 310.747 425.863 309.976 428.182 308.523C430.502 307.07 432.366 304.993 433.563 302.53C434.759 300.067 435.238 297.317 434.946 294.594C434.654 291.871 433.602 289.285 431.911 287.132C433.931 284.559 435.029 281.382 435.029 278.109C435.029 274.837 433.931 271.66 431.911 269.087L431.906 269.104Z" fill="#BA1C51"/>
<path opacity="0.1" d="M405.86 278.127C405.854 281.4 406.952 284.58 408.978 287.15C407.287 289.303 406.235 291.888 405.943 294.611C405.651 297.334 406.13 300.085 407.326 302.548C408.523 305.011 410.387 307.088 412.707 308.541C415.026 309.994 417.708 310.764 420.444 310.764C423.181 310.764 425.862 309.994 428.182 308.541C430.502 307.088 432.366 305.011 433.562 302.548C434.758 300.085 435.238 297.334 434.946 294.611C434.654 291.888 433.602 289.303 431.911 287.15C433.863 284.672 405.86 276.49 405.86 278.127Z" fill="black"/>
<path opacity="0.1" d="M127.549 365.999C151.596 365.999 171.091 361.861 171.091 356.757C171.091 351.652 151.596 347.514 127.549 347.514C103.501 347.514 84.0061 351.652 84.0061 356.757C84.0061 361.861 103.501 365.999 127.549 365.999Z" fill="#BA1C51"/>
<path d="M142.129 355.683C141.249 355.362 140.308 355.414 139.389 355.313C137.48 355.092 135.703 354.23 134.348 352.866C133.477 351.985 132.792 350.937 132.334 349.785C132.624 349.891 132.915 350.001 133.214 350.12C132.334 348.064 133.258 345.758 134.067 343.68C135.439 340.159 136.737 336.619 137.959 333.06C141.038 324.042 143.677 314.662 143.62 305.067C143.62 301.599 142.982 298.32 142.859 294.856C142.767 292.286 143.162 289.72 143.145 287.145C143.145 286.784 143.145 286.427 143.118 286.067C143.905 285.377 144.523 284.516 144.925 283.55C145.327 282.584 145.502 281.539 145.436 280.494C145.392 279.95 145.314 279.409 145.203 278.875C145.047 277.946 144.842 277.026 144.587 276.119C144.297 275.164 143.901 274.249 143.563 273.316C142.907 271.507 142.463 269.623 141.904 267.783C142.111 267.804 142.313 267.859 142.503 267.946C142.362 267.781 142.265 267.582 142.221 267.37C141.893 266.198 141.715 264.99 141.693 263.774L142.067 263.606C142.236 262.419 142.174 261.21 141.887 260.046C142.098 258.157 142.428 256.256 142.63 254.377C142.705 253.672 142.674 252.788 142.028 252.616C141.896 251.608 141.843 250.587 141.79 249.57C141.605 246.023 141.422 242.477 141.24 238.932C141.056 235.372 140.871 231.815 140.801 228.25C140.752 225.988 140.726 223.646 140.189 221.481C140.282 220.443 140.176 219.398 139.877 218.4C139.059 215.808 136.517 213.752 133.939 213.897C133.171 212.797 132.22 211.835 131.129 211.054C131.643 209.901 132.259 208.713 132.765 207.779C136.891 206.437 139.908 202.366 139.908 197.524C139.914 195.752 139.499 194.004 138.698 192.423C138.774 192.229 138.838 192.03 138.892 191.829C139.113 190.878 139.044 189.883 138.694 188.972C138.57 188.623 138.423 188.282 138.254 187.951C138.14 187.731 138.016 187.511 137.889 187.3L137.665 186.961C137.528 186.754 137.388 186.556 137.225 186.362C136.912 185.943 136.578 185.54 136.222 185.156C135.784 184.682 135.301 184.252 134.779 183.871C134.072 183.345 133.263 182.972 132.404 182.775C131.908 182.677 131.402 182.631 130.896 182.639C130.592 182.639 130.284 182.639 129.981 182.665C129.365 182.7 128.754 182.744 128.142 182.74C127.94 182.74 127.733 182.74 127.531 182.709C126.455 182.566 125.391 182.344 124.347 182.045L123.819 181.935C123.639 181.899 123.463 181.869 123.282 181.847C122.8 181.782 122.313 181.753 121.827 181.759H121.338C120.851 181.782 120.365 181.832 119.883 181.908L119.399 181.983C118.177 182.174 116.986 182.528 115.858 183.035C115.713 183.101 115.564 183.176 115.418 183.255L115.33 183.303C115.212 183.365 115.093 183.431 114.979 183.502L114.913 183.541L114.539 183.779L114.508 183.801C111.016 186.151 108.953 190.605 108.43 195.024C107.845 199.985 108.869 204.985 109.894 209.866L110.818 214.267C110.857 214.465 110.901 214.659 110.941 214.857C109.642 215.923 108.643 217.31 108.043 218.88C107.163 221.08 107.141 223.461 107.211 225.847C107.211 226.331 107.238 226.815 107.286 227.299C107.176 228.215 107.079 229.135 107.018 230.059C106.741 234.328 107.26 238.62 107.123 242.898C107.018 246.195 106.521 249.5 106.763 252.775C106.974 255.68 107.752 258.496 108.522 261.3L109.63 265.296C109.666 265.503 109.763 265.695 109.907 265.847C110.089 265.969 110.312 266.015 110.528 265.974C109.807 267.613 109.204 269.302 108.724 271.027C108.393 272.084 108.175 273.173 108.073 274.275C107.928 276.291 108.394 278.294 108.861 280.252C109.564 283.187 110.265 286.133 110.963 289.09C111.456 291.159 111.947 293.226 112.436 295.292C113.404 299.367 114.376 303.47 114.556 307.664C114.657 309.771 114.509 311.882 114.116 313.954C112.848 320.159 112.663 326.537 113.571 332.805C114.305 338.093 115.496 343.307 117.129 348.39C117.486 348.201 117.846 348.025 118.216 347.862L118.062 348.148C117.554 349.028 117.085 349.93 116.654 350.855C116.364 351.455 116.112 352.074 115.902 352.708C115.339 354.468 115.251 356.343 115.172 358.196C115.132 358.552 115.163 358.913 115.264 359.257C115.506 359.921 116.201 360.26 116.848 360.445C118.748 360.987 120.723 360.793 122.697 360.538C122.707 360.581 122.72 360.624 122.737 360.665C122.979 361.33 123.669 361.669 124.32 361.854C127.038 362.628 129.906 361.898 132.708 361.634C135.509 361.369 138.263 361.563 140.959 360.916C141.361 360.83 141.747 360.682 142.102 360.476C142.796 359.991 143.304 359.285 143.545 358.473C143.629 358.263 143.686 358.043 143.712 357.818C143.822 356.854 143 356.004 142.129 355.683ZM132.827 314.922C132.675 315.953 132.379 316.958 131.947 317.906C129.831 322.408 128.314 327.168 127.434 332.065C126.857 335.3 126.523 338.573 126.436 341.858C126.392 344.279 126.484 346.814 125.477 348.988L125.842 348.931C125.728 349.142 125.618 349.371 125.512 349.539L125.46 349.635C124.85 348.597 124.443 347.454 124.259 346.264C124.259 346.224 124.061 346.194 123.757 346.176C122.514 339.224 122.083 332.15 122.473 325.098C122.479 324.242 122.597 323.392 122.825 322.567C123.049 321.858 123.428 321.211 123.705 320.525C124.144 319.371 124.439 318.168 124.584 316.942C125.063 313.809 125.249 310.638 125.138 307.47C125.033 304.482 125.723 301.511 126.313 298.536C126.594 297.123 126.854 295.706 126.994 294.288L127.021 294.002C129.638 298.322 131.466 303.073 132.422 308.034C132.953 310.289 133.09 312.62 132.827 314.922ZM114.002 251.313L114.143 251.437C114.568 251.811 114.959 252.222 115.313 252.665C115.489 252.858 115.615 253.09 115.682 253.342C115.814 253.985 115.282 254.531 114.847 255.002C114.657 255.206 114.48 255.42 114.314 255.644C114.221 254.201 114.121 252.757 114.015 251.313H114.002Z" fill="url(#paint0_linear)"/>
<path d="M107.915 223.725L107.431 227.461C107.268 228.729 107.106 229.992 107.018 231.264C106.723 235.498 107.268 239.75 107.128 243.993C107.013 247.259 106.494 250.52 106.745 253.782C106.969 256.66 107.787 259.459 108.606 262.232L109.767 266.193C109.806 266.4 109.908 266.591 110.057 266.739C110.281 266.872 110.546 266.914 110.8 266.858L115.955 266.391C115.625 264.877 115.26 263.31 115.075 261.757C114.935 260.542 114.851 259.318 114.763 258.095C114.49 254.283 114.178 250.472 113.883 246.651L113.334 239.961C113.101 237.056 112.859 234.138 112.129 231.317C111.396 228.467 109.945 225.853 107.915 223.725Z" fill="#BA1C51"/>
<path opacity="0.1" d="M107.915 223.725L107.431 227.461C107.268 228.729 107.106 229.992 107.018 231.264C106.723 235.498 107.268 239.75 107.128 243.993C107.013 247.259 106.494 250.52 106.745 253.782C106.969 256.66 107.787 259.459 108.606 262.232L109.767 266.193C109.806 266.4 109.908 266.591 110.057 266.739C110.281 266.872 110.546 266.914 110.8 266.858L115.955 266.391C115.625 264.877 115.26 263.31 115.075 261.757C114.935 260.542 114.851 259.318 114.763 258.095C114.49 254.283 114.178 250.472 113.883 246.651L113.334 239.961C113.101 237.056 112.859 234.138 112.129 231.317C111.396 228.467 109.945 225.853 107.915 223.725Z" fill="black"/>
<path d="M117.098 350.933C116.796 351.529 116.531 352.144 116.307 352.773C115.717 354.512 115.629 356.378 115.541 358.213C115.503 358.567 115.536 358.925 115.638 359.265C115.893 359.925 116.623 360.26 117.305 360.44C120.16 361.211 123.168 360.489 126.102 360.225C129.035 359.961 131.934 360.154 134.766 359.516C135.184 359.435 135.589 359.294 135.967 359.098C136.684 358.631 137.22 357.932 137.484 357.117C137.57 356.909 137.627 356.69 137.656 356.466C137.748 355.498 136.908 354.661 135.993 354.344C135.078 354.028 134.08 354.076 133.117 353.979C131.133 353.776 129.272 352.924 127.821 351.554C126.371 350.185 125.412 348.375 125.094 346.404C125.059 346.193 120.327 346.321 119.817 346.594C119.236 346.915 118.884 347.712 118.554 348.253C118.035 349.124 117.55 350.018 117.098 350.933Z" fill="#A26565"/>
<path opacity="0.1" d="M117.098 350.933C116.796 351.529 116.531 352.144 116.307 352.773C115.717 354.512 115.629 356.378 115.541 358.213C115.503 358.567 115.536 358.925 115.638 359.265C115.893 359.925 116.623 360.26 117.305 360.44C120.16 361.211 123.168 360.489 126.102 360.225C129.035 359.961 131.934 360.154 134.766 359.516C135.184 359.435 135.589 359.294 135.967 359.098C136.684 358.631 137.22 357.932 137.484 357.117C137.57 356.909 137.627 356.69 137.656 356.466C137.748 355.498 136.908 354.661 135.993 354.344C135.078 354.028 134.08 354.076 133.117 353.979C131.133 353.776 129.272 352.924 127.821 351.554C126.371 350.185 125.412 348.375 125.094 346.404C125.059 346.193 120.327 346.321 119.817 346.594C119.236 346.915 118.884 347.712 118.554 348.253C118.035 349.124 117.55 350.018 117.098 350.933Z" fill="black"/>
<path d="M124.949 352.334C124.645 352.927 124.38 353.54 124.158 354.169C123.564 355.93 123.476 357.774 123.392 359.609C123.351 359.963 123.384 360.321 123.489 360.661C123.74 361.321 124.47 361.656 125.152 361.841C128.006 362.606 131.019 361.885 133.948 361.62C136.877 361.356 139.785 361.55 142.613 360.912C143.033 360.827 143.438 360.678 143.813 360.472C144.531 360.006 145.067 359.306 145.331 358.491C145.416 358.282 145.474 358.063 145.502 357.84C145.595 356.876 144.755 356.035 143.84 355.718C142.925 355.401 141.926 355.454 140.963 355.353C138.98 355.149 137.12 354.297 135.67 352.929C134.219 351.56 133.26 349.752 132.941 347.783C132.906 347.571 128.173 347.695 127.663 347.967C127.078 348.289 126.726 349.085 126.396 349.627C125.895 350.52 125.402 351.418 124.949 352.334Z" fill="#A26565"/>
<path d="M145.414 305.578C145.476 315.09 142.714 324.385 139.472 333.307C138.188 336.846 136.826 340.354 135.386 343.831C134.533 345.891 133.57 348.179 134.485 350.213C131.846 349.209 129.163 348.619 126.388 349.082C127.443 346.925 127.342 344.416 127.39 342.039C127.48 338.782 127.827 335.537 128.428 332.334C129.36 327.46 130.957 322.737 133.174 318.298C133.622 317.362 133.932 316.366 134.093 315.341C134.454 313.078 134.172 310.754 133.702 308.514C132.689 303.566 130.765 298.849 128.028 294.606L128.002 294.888C127.837 296.303 127.6 297.709 127.289 299.1C126.669 302.044 125.943 304.993 126.053 307.955C126.168 311.096 125.974 314.241 125.473 317.343C125.311 318.562 124.994 319.754 124.527 320.891C124.224 321.573 123.828 322.211 123.59 322.92C123.353 323.735 123.228 324.579 123.221 325.429C122.869 332.59 123.221 339.861 124.681 346.881C122.231 346.687 119.781 347.396 117.591 348.496C115.879 343.471 114.627 338.3 113.853 333.047C112.898 326.835 113.092 320.501 114.424 314.359C114.84 312.311 114.995 310.218 114.886 308.131C114.697 303.972 113.677 299.905 112.661 295.865L111.113 289.703C110.38 286.768 109.646 283.847 108.913 280.94C108.425 278.999 107.933 277.014 108.087 275.015C108.194 273.919 108.424 272.838 108.773 271.794C109.871 268.24 111.513 264.878 113.642 261.829C122.117 262.304 130.693 261.512 139.151 260.861C139.561 260.78 139.987 260.852 140.348 261.063C140.636 261.356 140.808 261.744 140.831 262.155L144.011 280.2C144.526 282.708 144.828 285.255 144.913 287.815C144.913 290.367 144.517 292.911 144.614 295.46C144.746 298.893 145.397 302.141 145.414 305.578Z" fill="#454B69"/>
<path opacity="0.1" d="M128.011 294.886C127.846 296.301 127.608 297.707 127.298 299.098C125.455 295.907 123.467 292.795 121.769 289.525C121.33 288.684 120.916 287.831 120.498 286.977L119.245 284.424C119.012 283.944 118.779 283.464 118.568 282.976C118.224 282.274 117.96 281.536 117.78 280.775C118.396 280.661 119.918 282.324 120.375 282.76C121.308 283.685 122.189 284.66 123.014 285.683C124.016 286.819 124.936 288.025 125.767 289.292C126.832 291.013 127.591 292.906 128.011 294.886Z" fill="black"/>
<path d="M135.07 207.34C135.07 207.34 130.364 214.844 131.234 216.415C132.105 217.987 116.412 215.02 116.412 215.02C116.412 215.02 124.958 207.516 124.083 204.373C123.208 201.231 135.07 207.34 135.07 207.34Z" fill="#EFB7B9"/>
<path d="M130.887 209.61C136.763 209.61 141.526 204.843 141.526 198.963C141.526 193.083 136.763 188.316 130.887 188.316C125.011 188.316 120.248 193.083 120.248 198.963C120.248 204.843 125.011 209.61 130.887 209.61Z" fill="#EFB7B9"/>
<path d="M135.228 215.209C134.089 213.627 132.543 212.383 130.755 211.608C129.725 211.239 128.659 210.976 127.575 210.825L123.331 210.077C122.293 209.892 121.18 209.72 120.212 210.147C119.723 210.398 119.278 210.727 118.893 211.12C117.42 212.489 115.99 213.989 114.138 214.782C113.633 214.997 113.105 215.156 112.599 215.371C110.527 216.252 108.979 218.127 108.104 220.213C107.18 222.387 107.154 224.751 107.224 227.114C107.223 227.93 107.304 228.744 107.466 229.544C107.678 230.305 107.947 231.05 108.271 231.771C108.856 233.314 109.347 234.891 109.74 236.494C110.84 240.704 111.755 244.959 112.485 249.258C112.547 249.873 112.727 250.471 113.017 251.018C113.427 251.565 113.923 252.043 114.486 252.431C114.932 252.798 115.343 253.206 115.713 253.65C115.897 253.832 116.035 254.055 116.113 254.302C116.25 254.935 115.673 255.481 115.234 255.943C114.287 256.91 113.603 258.102 113.246 259.407C113.025 259.675 112.912 260.016 112.929 260.362C113.021 260.603 113.055 260.862 113.03 261.119C112.943 261.353 112.807 261.565 112.63 261.74C112.427 262.004 112.283 262.309 112.207 262.634C112.131 262.959 112.125 263.296 112.19 263.624C115.487 265.057 119.015 265.883 122.605 266.062C123.485 266.106 124.364 266.106 125.244 266.212C125.869 266.291 126.484 266.418 127.109 266.493C128.015 266.578 128.926 266.602 129.836 266.564C134.573 266.467 139.446 266.348 143.796 264.469C144.205 262.237 143.321 259.962 142.767 257.761C141.887 254.24 141.667 250.635 141.007 247.083C140.567 244.658 139.908 242.268 139.534 239.825C139.16 237.383 139.094 234.852 139.745 232.475C140.339 230.371 140.519 228.223 141.135 226.124C141.751 224.025 142.182 221.749 141.487 219.672C140.607 217.101 137.937 215.063 135.228 215.209Z" fill="#BA1C51"/>
<path d="M140.453 193.317C140.972 191.429 139.952 189.461 138.738 187.925C137.418 186.275 135.738 184.787 133.675 184.373C132 184.035 130.262 184.444 128.556 184.307C127.047 184.189 125.596 183.643 124.096 183.427C122.735 183.28 121.36 183.332 120.014 183.581C118.737 183.771 117.489 184.12 116.298 184.62C111.768 186.631 109.116 191.587 108.5 196.504C107.884 201.42 108.962 206.376 110.035 211.213L111.007 215.588C112.019 220.143 113.03 224.716 113.298 229.373C113.567 234.03 113.065 238.809 111.152 243.061C117.339 239.735 122.133 234.304 124.668 227.749C125.354 225.949 125.864 224.078 126.629 222.309C127.285 220.786 128.125 219.342 128.705 217.789C129.362 216.035 129.677 214.172 129.633 212.3C129.598 210.892 129.365 209.492 129.405 208.084C129.444 206.675 129.805 205.209 130.777 204.188C131.657 203.286 132.866 202.868 133.979 202.283C135.731 201.382 137.261 200.104 138.461 198.541C139.16 197.626 139.2 197.221 139.375 196.182C139.551 195.144 140.18 194.316 140.453 193.317Z" fill="#A26565"/>
<path d="M140.466 273.294C140.576 274.39 140.378 275.495 140.616 276.582C140.796 277.392 141.214 278.122 141.46 278.915C141.704 279.829 141.83 280.772 141.834 281.718C141.869 282.51 141.808 283.479 141.104 283.849C140.796 284.011 140.427 284.011 140.106 284.152C139.785 284.293 139.512 284.676 139.697 284.975C139.881 285.275 140.198 285.226 140.488 285.283C140.779 285.341 141.091 285.64 140.928 285.882C140.862 285.961 140.773 286.018 140.673 286.045C140.379 286.135 140.101 286.269 139.846 286.441C139.722 286.532 139.624 286.654 139.565 286.796C139.505 286.938 139.485 287.094 139.508 287.246C139.525 287.319 139.559 287.387 139.607 287.445C139.655 287.503 139.715 287.549 139.783 287.581C139.851 287.612 139.925 287.627 140 287.626C140.075 287.624 140.149 287.606 140.216 287.572C140.087 287.848 140.016 288.148 140.009 288.452C141.135 288.936 142.397 288.303 143.453 287.691C143.909 287.436 144.35 287.154 144.772 286.846C145.626 286.19 146.307 285.335 146.754 284.355C147.202 283.375 147.403 282.301 147.341 281.225C147.291 280.685 147.207 280.149 147.09 279.619C146.928 278.696 146.712 277.783 146.444 276.886C146.14 275.939 145.727 275.037 145.37 274.108C144.614 272.132 144.126 270.063 143.44 268.061C143.394 267.853 143.277 267.668 143.11 267.537C142.958 267.462 142.79 267.43 142.621 267.445C141.851 267.404 141.08 267.475 140.33 267.656C139.89 267.788 139.138 268.096 138.931 268.536C138.725 268.976 139.055 269.346 139.252 269.711C139.885 270.816 140.297 272.033 140.466 273.294Z" fill="#EFB7B9"/>
<path opacity="0.1" d="M139.749 219.812C139.975 220.044 140.165 220.308 140.312 220.596C141.825 223.347 141.843 226.635 141.913 229.773C141.992 233.294 142.186 236.815 142.38 240.358L142.956 250.921C143.013 251.929 143.066 252.937 143.211 253.936C143.888 254.108 143.914 254.988 143.84 255.697C143.352 260.001 142.142 264.434 143.4 268.575C143.448 268.788 143.55 268.985 143.695 269.147C143.056 268.947 142.372 268.938 141.729 269.121C141.1 269.253 140.493 269.486 139.859 269.632C139.059 269.812 138.153 269.891 137.607 270.512C136.989 268.652 136.497 266.752 136.134 264.825C135.835 263.065 135.751 261.251 135.039 259.623C134.753 258.967 134.366 258.36 134.014 257.73C132.171 254.438 131.265 250.719 130.381 247.048C129.984 245.308 129.889 243.513 130.1 241.74C130.228 240.932 130.301 240.116 130.32 239.297C130.266 238.434 130.153 237.575 129.981 236.727C129.607 234.238 129.783 231.698 130.496 229.284C131.155 227.044 131.736 224.685 133.134 222.801C134.533 220.917 137.414 219.843 139.749 219.812Z" fill="black"/>
<path d="M140.273 219.461C140.499 219.694 140.688 219.96 140.836 220.249C142.349 222.995 142.366 226.287 142.437 229.426C142.516 232.947 142.709 236.468 142.903 239.989L143.479 250.552C143.536 251.56 143.589 252.568 143.734 253.567C144.411 253.739 144.438 254.619 144.359 255.328C143.875 259.632 142.665 264.06 143.919 268.206C143.967 268.419 144.069 268.615 144.213 268.778C143.575 268.578 142.891 268.569 142.247 268.752C141.618 268.884 141.012 269.117 140.378 269.258C139.578 269.443 138.672 269.518 138.126 270.138C137.51 268.269 137.022 266.361 136.666 264.425C136.367 262.665 136.283 260.856 135.571 259.227C135.261 258.579 134.919 257.948 134.546 257.335C132.699 254.042 131.797 250.319 130.913 246.648C130.516 244.908 130.421 243.113 130.632 241.34C130.963 239.681 130.922 237.969 130.513 236.327C130.139 233.84 130.315 231.301 131.028 228.889C131.687 226.648 132.268 224.289 133.666 222.405C135.065 220.522 137.937 219.496 140.273 219.461Z" fill="#BA1C51"/>
<g opacity="0.1">
<path opacity="0.1" d="M138.738 187.925C137.418 186.275 135.738 184.787 133.675 184.373C132 184.035 130.262 184.444 128.556 184.307C127.047 184.189 125.596 183.643 124.096 183.427C122.735 183.28 121.36 183.332 120.014 183.581C118.737 183.771 117.489 184.12 116.298 184.62C115.655 184.908 115.041 185.257 114.464 185.663C115.524 185.251 116.625 184.956 117.749 184.783C119.094 184.533 120.467 184.482 121.826 184.629C123.331 184.822 124.778 185.364 126.291 185.483C127.993 185.619 129.73 185.214 131.41 185.549C133.473 185.962 135.162 187.454 136.468 189.105C137.687 190.637 138.703 192.604 138.188 194.497C137.915 195.491 137.282 196.363 137.11 197.388C136.939 198.414 136.895 198.832 136.191 199.747C135.289 200.921 134.198 201.937 132.963 202.754C133.301 202.595 133.649 202.437 133.979 202.265C135.731 201.364 137.261 200.087 138.461 198.524C139.16 197.608 139.2 197.203 139.375 196.165C139.551 195.126 140.18 194.272 140.453 193.273C140.972 191.429 139.952 189.461 138.738 187.925Z" fill="black"/>
<path opacity="0.1" d="M130.777 204.216C130.959 204.027 131.158 203.855 131.371 203.701C130.355 204.194 129.286 204.625 128.508 205.462C127.536 206.478 127.188 207.948 127.135 209.357C127.082 210.765 127.333 212.165 127.364 213.569C127.407 215.442 127.092 217.307 126.436 219.062C125.855 220.616 125.015 222.055 124.36 223.582C123.599 225.343 123.089 227.218 122.403 229.018C120.204 234.701 116.3 239.563 111.227 242.935C111.2 242.992 111.178 243.054 111.152 243.111C117.339 239.785 122.134 234.354 124.668 227.799C125.354 225.998 125.864 224.128 126.629 222.359C127.285 220.836 128.125 219.392 128.705 217.838C129.362 216.085 129.677 214.222 129.633 212.35C129.598 210.941 129.365 209.542 129.405 208.133C129.444 206.725 129.805 205.237 130.777 204.216Z" fill="black"/>
</g>
<defs>
<linearGradient id="paint0_linear" x1="126.088" y1="362.184" x2="126.088" y2="181.772" gradientUnits="userSpaceOnUse">
<stop stop-color="#808080" stop-opacity="0.25"/>
<stop offset="0.54" stop-color="#808080" stop-opacity="0.12"/>
<stop offset="1" stop-color="#808080" stop-opacity="0.1"/>
</linearGradient>
</defs>
</svg>
