<svg width="519" height="339" viewBox="0 0 519 339" fill="none" xmlns="http://www.w3.org/2000/svg">
<g clip-path="url(#clip0)">
<path opacity="0.1" d="M268.427 60.9665C235.65 66.5052 202.919 64.1308 171.432 60.6771C139.945 57.2235 108.536 52.7135 75.7452 54.0729C54.6514 54.9455 31.1602 59.1248 16.4318 71.2723C2.25445 82.9559 0.0454146 98.7224 0.0178591 112.955C-0.0188817 123.66 0.908822 134.738 8.49579 143.266C13.7681 149.182 21.8832 153.421 27.9959 158.881C49.2643 177.849 42.7979 207.715 28.841 233.107C22.2919 245.02 14.2825 256.736 9.82305 268.93C5.36364 281.123 4.7712 294.189 12.7531 304.132C20.6616 313.993 35.9595 319.55 51.9096 322.429C84.3058 328.28 120.399 324.647 155.321 319.724C232.61 308.789 309.1 291.741 385.424 274.735C413.664 268.438 442.028 262.114 469.234 253.039C484.344 247.987 499.729 241.7 509.488 231.913C521.888 219.513 522.201 202.552 510.251 192.417C490.199 175.424 444.815 179.194 429.306 159.768C420.773 149.071 424.488 134.545 431.281 121.713C445.844 94.1941 473.992 67.0058 470.346 39.5694C467.829 20.7397 448.627 5.15689 422.89 1.09701C395.913 -3.15576 361.267 4.9089 345.735 23.8581C329.766 43.3813 297.37 56.0615 268.427 60.9665Z" fill="#BA1C51"/>
<path d="M295.501 164.984H165.333V195.126H295.501V164.984Z" fill="#565661"/>
<path opacity="0.1" d="M295.501 164.984H165.333V195.126H295.501V164.984Z" fill="black"/>
<path d="M180.907 196.119L181.821 276.587L169.301 308.193L168.332 196.119H180.907Z" fill="#BCBEC9"/>
<path d="M166.707 170.771L293.439 171.534V193.983H166.707V170.771Z" fill="#565661"/>
<path d="M282.596 196.119L293.439 197.648V306.971L282.596 273.532V196.119Z" fill="#BCBEC9"/>
<path d="M358.636 166.193H297.559V295.981H358.636V166.193Z" fill="#EFEFF0"/>
<path d="M353.749 169.799H302.445V269.564H353.749V169.799Z" fill="#565661"/>
<path opacity="0.1" d="M353.749 169.799H302.445V269.564H353.749V169.799Z" fill="black"/>
<path d="M353.749 171.842H302.445V193.983H353.749V171.842Z" fill="#565661"/>
<path d="M353.749 196.119H302.445V243.148H353.749V196.119Z" fill="#565661"/>
<path d="M353.749 246.051H302.445V293.079H353.749V246.051Z" fill="#565661"/>
<path opacity="0.1" d="M353.749 246.051H302.445V293.079H353.749V246.051Z" fill="black"/>
<path d="M304.585 304.431C306.412 304.431 307.892 302.539 307.892 300.206C307.892 297.872 306.412 295.98 304.585 295.98C302.759 295.98 301.279 297.872 301.279 300.206C301.279 302.539 302.759 304.431 304.585 304.431Z" fill="#565661"/>
<path d="M350.443 304.634C352.269 304.634 353.749 302.742 353.749 300.409C353.749 298.075 352.269 296.184 350.443 296.184C348.616 296.184 347.136 298.075 347.136 300.409C347.136 302.742 348.616 304.634 350.443 304.634Z" fill="#565661"/>
<path d="M164.874 308.193H169.301L168.084 167.318H161.361L164.874 308.193Z" fill="#EFEFF0"/>
<path d="M293.439 166.193V306.971H297.559V167.319L293.439 166.193Z" fill="#EFEFF0"/>
<path d="M168.3 192.605V197.648H293.439V193.983L168.3 192.605Z" fill="#EFEFF0"/>
<path d="M176.783 156.729H335.429L358.484 164.361V168.789L160.599 167.264V162.759L176.783 156.729Z" fill="white"/>
<path d="M160.599 162.758L358.484 164.361V168.788L160.599 167.263V162.758Z" fill="#BCBEC9"/>
<path d="M178.523 215.261L177.605 215.123C177.605 215.082 177.605 215.045 177.605 215.008C177.577 214.792 177.545 214.581 177.513 214.365C177.89 214.664 178.248 214.962 178.578 215.261H178.523Z" fill="url(#paint0_linear)"/>
<path d="M158.564 286.176C159.161 286.038 159.767 285.923 160.373 285.84C164.537 285.248 168.783 285.873 172.599 287.641C172.213 290.479 171.832 293.414 172.649 296.155C173.219 298.084 174.362 299.83 174.606 301.841C175.219 301.947 175.791 302.221 176.257 302.633C176.724 303.045 177.066 303.579 177.247 304.174C177.423 304.701 177.511 305.254 177.508 305.809C177.503 306.497 177.417 307.181 177.251 307.848C177.195 308.381 176.934 308.871 176.522 309.215C176.11 309.558 175.581 309.727 175.047 309.685C171.492 310.09 168.006 308.689 164.7 307.316L158.27 304.643C157.517 304.33 156.759 304.013 156.038 303.628C154.67 302.889 153.456 301.896 152.46 300.702C152.25 300.489 152.102 300.222 152.033 299.931C151.914 299.122 152.86 298.64 153.462 298.094C153.638 297.927 153.792 297.739 153.921 297.533C154.633 296.459 154.702 294.975 155.129 293.708C156.139 290.699 159.262 288.761 160.364 285.827C160.424 285.666 160.479 285.505 160.525 285.34" fill="#A26565"/>
<path opacity="0.1" d="M177.508 305.809C177.503 306.497 177.417 307.181 177.251 307.848C177.195 308.381 176.934 308.871 176.522 309.214C176.11 309.558 175.581 309.726 175.047 309.685C171.492 310.089 168.006 308.689 164.7 307.315L158.27 304.643C157.517 304.33 156.759 304.013 156.038 303.628C154.67 302.889 153.456 301.896 152.46 300.702C152.25 300.489 152.102 300.222 152.033 299.931C151.914 299.122 152.86 298.64 153.462 298.093C153.638 297.927 153.792 297.739 153.921 297.533C155.694 297.914 157.893 299.03 159.248 299.462C160.605 299.832 161.908 300.377 163.124 301.083C164.814 302.167 166.031 303.839 167.464 305.217C168.897 306.594 170.748 307.848 172.746 307.678C173.802 307.519 174.82 307.167 175.749 306.64L177.508 305.809Z" fill="black"/>
<path d="M169.981 240.543C170.101 240.96 170.09 241.403 169.95 241.813C169.811 242.224 169.549 242.582 169.2 242.839C168.599 243.211 167.823 243.161 167.226 243.565C166.486 244.084 166.381 245.113 166.252 246.004C165.793 249.067 164.273 251.845 162.973 254.661C161.673 257.476 160.576 260.548 161.053 263.607C161.379 265.683 162.399 267.897 161.443 269.766C161.209 270.225 160.86 270.634 160.594 271.079C159.285 273.265 160.029 276.035 159.978 278.579C159.998 278.861 159.935 279.144 159.799 279.392C159.599 279.627 159.352 279.817 159.074 279.952C158.607 280.295 158.224 280.739 157.953 281.25C157.682 281.761 157.53 282.327 157.508 282.905C157.469 284.062 157.608 285.217 157.921 286.331C157.972 286.781 158.17 287.201 158.486 287.525C158.851 287.767 159.283 287.889 159.721 287.874C162.607 288.108 165.437 288.796 168.107 289.914C169.848 290.639 171.538 291.549 173.389 291.898C173.568 291.953 173.756 291.972 173.943 291.952C174.129 291.932 174.309 291.875 174.473 291.783C174.705 291.573 174.866 291.295 174.932 290.988C175.644 288.646 176.365 286.23 176.121 283.796C176.016 282.749 175.736 281.725 175.662 280.678C175.341 276.544 178.138 272.815 179.024 268.737C179.423 266.9 179.423 264.999 179.708 263.143C180.48 258.059 183.281 253.499 184.361 248.47C184.511 247.532 184.744 246.61 185.059 245.714C185.862 243.767 187.722 242.187 187.764 240.079C187.789 239.615 187.667 239.155 187.415 238.766C186.982 238.29 186.406 237.968 185.775 237.847C183.28 237.161 180.74 236.648 178.174 236.313C176.998 236.082 175.798 235.999 174.601 236.065C173.047 236.248 171.554 236.775 170.229 237.608C168.456 238.701 169.595 238.963 169.981 240.543Z" fill="#454B69"/>
<path opacity="0.05" d="M169.981 240.543C170.101 240.96 170.09 241.403 169.95 241.813C169.811 242.224 169.549 242.582 169.2 242.839C168.599 243.211 167.823 243.161 167.226 243.565C166.486 244.084 166.381 245.113 166.252 246.004C165.793 249.067 164.273 251.845 162.973 254.661C161.673 257.476 160.576 260.548 161.053 263.607C161.379 265.683 162.399 267.897 161.443 269.766C161.209 270.225 160.86 270.634 160.594 271.079C159.285 273.265 160.029 276.035 159.978 278.579C159.998 278.861 159.935 279.144 159.799 279.392C159.599 279.627 159.352 279.817 159.074 279.952C158.607 280.295 158.224 280.739 157.953 281.25C157.682 281.761 157.53 282.327 157.508 282.905C157.469 284.062 157.608 285.217 157.921 286.331C157.972 286.781 158.17 287.201 158.486 287.525C158.851 287.767 159.283 287.889 159.721 287.874C162.607 288.108 165.437 288.796 168.107 289.914C169.848 290.639 171.538 291.549 173.389 291.898C173.568 291.953 173.756 291.972 173.943 291.952C174.129 291.932 174.309 291.875 174.473 291.783C174.705 291.573 174.866 291.295 174.932 290.988C175.644 288.646 176.365 286.23 176.121 283.796C176.016 282.749 175.736 281.725 175.662 280.678C175.341 276.544 178.138 272.815 179.024 268.737C179.423 266.9 179.423 264.999 179.708 263.143C180.48 258.059 183.281 253.499 184.361 248.47C184.511 247.532 184.744 246.61 185.059 245.714C185.862 243.767 187.722 242.187 187.764 240.079C187.789 239.615 187.667 239.155 187.415 238.766C186.982 238.29 186.406 237.968 185.775 237.847C183.28 237.161 180.74 236.648 178.174 236.313C176.998 236.082 175.798 235.999 174.601 236.065C173.047 236.248 171.554 236.775 170.229 237.608C168.456 238.701 169.595 238.963 169.981 240.543Z" fill="black"/>
<path d="M160.993 309.759H157.076L154.513 257.109L154.334 254.114L157.664 252.943L157.889 256.126L160.993 309.759Z" fill="#565661"/>
<path opacity="0.1" d="M157.889 256.126L154.513 257.109L154.334 254.114L157.664 252.943L157.889 256.126Z" fill="black"/>
<path d="M210.148 320.896L203.686 321.676L173.917 254.114L165.889 253.526L151.79 257.641L149.048 338.081H142.586L145.131 254.702L129.658 255.097L102.048 323.83H96.1736L125.213 243.501L126.333 240.405L169.609 238.922L180.397 244.97L180.535 245.319L210.148 320.896Z" fill="#565661"/>
<path opacity="0.1" d="M180.535 245.319C171.235 248.121 161.581 251.18 161.581 251.18C161.581 251.18 152.777 254.252 149.048 251.18C148.578 250.813 148.052 250.523 147.491 250.321C147.975 250.666 148.498 250.955 149.048 251.18L125.213 243.496L126.329 240.405L169.609 238.922L180.397 244.97L180.535 245.319Z" fill="black"/>
<path d="M136.515 231.988L154.137 228.07C154.137 228.07 196.242 235.905 199.374 239.037C199.374 239.037 165.692 245.89 161.972 248.223C158.252 250.556 136.12 253.137 136.515 231.988Z" fill="white"/>
<path d="M128.937 187.948C127.559 192.315 123.798 196.251 119.219 196.439C118.886 196.478 118.549 196.418 118.25 196.265C117.676 195.907 117.662 195.066 117.896 194.428C118.131 193.789 118.539 193.215 118.604 192.545C118.617 192.408 118.608 192.27 118.576 192.136C118.457 191.59 118.011 191.103 117.488 191.218C117.844 190.932 118.082 190.525 118.154 190.074C118.226 189.623 118.128 189.161 117.878 188.779C117.67 188.544 117.483 188.292 117.318 188.026C116.937 187.245 117.529 186.368 117.777 185.532C118.287 183.695 116.992 181.858 116.886 179.943C116.794 178.23 117.662 176.618 117.878 174.918C118.223 172.163 116.854 169.522 116.693 166.771C116.583 164.851 117.056 162.95 117.584 161.099C118.043 159.446 118.562 157.774 118.595 156.047C118.595 154.794 118.379 153.554 118.319 152.304C118.224 151.162 118.431 150.015 118.921 148.979C119.239 148.37 119.78 147.907 120.432 147.689C121.938 147.184 122.925 147.969 123.146 149.397C123.513 151.827 123.302 154.307 123.784 156.745C124.23 159.026 124.906 161.256 125.8 163.4C126.613 165.338 127.601 167.212 128.225 169.219C128.695 170.873 129.032 172.563 129.231 174.271C129.846 178.859 130.329 183.58 128.937 187.948Z" fill="#BA1C51"/>
<path d="M233.538 299.109C232.957 299.928 232.21 300.615 231.344 301.124C230.479 301.634 229.516 301.955 228.518 302.067C226.525 302.315 224.454 301.814 222.52 302.361C222.221 302.41 221.938 302.533 221.698 302.718C221.458 302.903 221.267 303.145 221.143 303.421C221.095 303.795 221.066 304.17 221.055 304.547C220.83 305.773 219.218 306.048 217.965 306.039L212.793 306.007C211.719 306.007 210.529 305.947 209.758 305.203C209.391 304.797 209.184 304.271 209.175 303.724C209.167 303.177 209.358 302.645 209.712 302.227C209.872 302.037 210.069 301.881 210.29 301.768C209.967 301.661 209.681 301.467 209.462 301.207C209.243 300.946 209.1 300.63 209.05 300.294C208.956 299.619 208.989 298.932 209.147 298.269C209.147 296.349 209.606 293.134 210.956 291.632C212.614 289.763 215.489 287.347 217.992 286.847C218.837 286.685 219.709 286.723 220.537 286.958C221.364 287.193 222.126 287.619 222.759 288.201C223.944 289.304 224.808 291.031 226.433 291.223C227.32 291.334 228.174 290.916 229.051 290.764C230.048 290.636 231.06 290.819 231.949 291.288C232.838 291.758 233.56 292.491 234.016 293.387C234.238 293.841 234.393 294.325 234.475 294.824C234.718 296.319 234.383 297.851 233.538 299.109Z" fill="#A26565"/>
<path opacity="0.1" d="M233.538 299.108C232.957 299.927 232.21 300.614 231.344 301.124C230.479 301.634 229.516 301.955 228.518 302.066C226.525 302.314 224.454 301.813 222.52 302.36C222.221 302.409 221.939 302.532 221.698 302.717C221.458 302.902 221.267 303.144 221.143 303.421C221.095 303.794 221.066 304.17 221.055 304.546C220.83 305.772 219.218 306.048 217.965 306.039L212.793 306.007C211.719 306.007 210.529 305.947 209.758 305.203C209.391 304.797 209.184 304.271 209.175 303.723C209.167 303.176 209.358 302.644 209.712 302.227C212.697 302.103 215.632 302.227 218.608 301.611C219.815 301.368 221.005 301.047 222.227 300.877C224.872 300.5 227.687 300.821 230.117 299.701C232.142 298.782 233.593 296.913 234.452 294.828C234.7 296.319 234.374 297.849 233.538 299.108Z" fill="black"/>
<path d="M219.894 291.849C218.056 293.272 215.903 294.384 213.588 294.503C211.273 294.622 208.816 293.585 207.682 291.573C206.024 288.62 207.494 284.514 205.464 281.804C204.83 280.955 203.916 280.353 203.245 279.531C202.575 278.709 202.189 277.474 202.786 276.601C202.065 276.877 201.303 276.179 201.091 275.435C200.88 274.69 201.013 273.891 200.885 273.138C200.55 271.14 198.588 269.859 197.647 268.086C196.706 266.314 196.834 264.013 196.728 261.914C196.494 256.8 194.59 251.904 191.309 247.975C190.685 247.231 189.885 246.473 188.912 246.51C189.082 244.829 187.961 243.222 186.51 242.377C185.059 241.532 183.332 241.247 181.651 241.082C164.691 239.41 147.018 245.716 130.825 240.411C126.319 238.937 121.975 236.471 119.219 232.604C118.146 231.132 117.378 229.46 116.961 227.687C116.543 225.914 116.485 224.075 116.79 222.279V222.215C117.428 218.954 119.15 218.151 122.002 216.663C125.295 214.922 128.736 213.479 132.285 212.35C139.174 210.196 146.591 209.42 153.7 211C157.021 211.744 160.222 212.975 163.547 213.696C164.856 213.981 166.174 214.183 167.501 214.353C169.563 214.61 171.635 214.78 173.71 215.019C180.348 215.783 186.885 217.253 193.211 219.404C195.567 220.204 197.923 221.118 199.948 222.564C201.55 223.728 202.904 225.198 203.933 226.89C204.961 228.582 205.642 230.462 205.937 232.42C206.13 233.77 206.134 235.176 206.428 236.484C206.707 237.585 207.075 238.66 207.53 239.699C211.454 249.402 214.661 259.379 217.124 269.551C217.264 270.307 217.523 271.036 217.891 271.71C218.479 272.661 219.489 273.299 220.082 274.25C221.46 276.491 220.132 279.618 221.354 281.951C221.776 282.76 222.479 283.398 222.902 284.206C224.279 286.856 222.245 290.025 219.894 291.849Z" fill="#454B69"/>
<path opacity="0.1" d="M196.425 239.079C197.078 238.562 197.641 237.941 198.092 237.242C198.545 236.538 198.725 235.694 198.598 234.867C198.777 235.913 198.708 236.986 198.398 238C198.088 239.015 197.544 239.942 196.811 240.709C195.658 241.889 193.495 243.047 191.81 242.642C192.049 241.292 195.355 239.988 196.425 239.079Z" fill="black"/>
<path opacity="0.1" d="M167.731 216.19C167.592 216.682 167.333 217.132 166.977 217.499C166.621 217.866 166.179 218.139 165.692 218.293C164.712 218.592 163.687 218.712 162.665 218.647H161.747C149.696 218.38 137.516 215.707 125.745 218.256C124.327 218.549 122.935 218.959 121.584 219.483C119.864 220.161 118.253 221.089 116.803 222.238V222.174C117.442 218.913 119.164 218.109 122.016 216.621C125.306 214.896 128.742 213.466 132.285 212.35C139.174 210.196 146.591 209.42 153.7 211C157.021 211.744 160.222 212.975 163.547 213.696C164.856 213.981 166.174 214.183 167.501 214.353C167.759 214.928 167.838 215.568 167.731 216.19Z" fill="black"/>
<path d="M167.731 215.532C167.593 216.025 167.335 216.477 166.979 216.845C166.622 217.213 166.18 217.486 165.692 217.64C164.713 217.94 163.687 218.058 162.665 217.989H161.747C149.696 217.723 137.516 215.05 125.745 217.599C124.327 217.892 122.936 218.3 121.584 218.82C119.783 219.539 118.102 220.53 116.601 221.76C116.249 220.792 115.899 219.823 115.55 218.853C115.127 217.695 116.468 217.438 116.725 216.4C116.895 215.697 116.606 214.898 116.459 214.15C116.421 213.966 116.397 213.781 116.386 213.594C116.303 211.936 116.895 210.981 118.255 210.085C122.287 207.421 127.206 205.594 131.808 204.22C134.254 203.447 136.781 202.957 139.339 202.76C142.958 202.549 146.573 203.219 150.095 204.069C154.426 205.139 158.711 206.553 162.55 208.818C164.433 209.915 166.27 211.293 167.285 213.25C167.69 213.937 167.848 214.743 167.731 215.532Z" fill="#A26565"/>
<path opacity="0.1" d="M128.937 187.949C127.559 192.316 123.798 196.252 119.219 196.44C118.886 196.48 118.549 196.419 118.25 196.266C117.676 195.908 117.662 195.067 117.896 194.429C118.131 193.791 118.539 193.216 118.604 192.546C118.617 192.409 118.608 192.271 118.576 192.137C121.006 188.711 123.362 185.248 124.294 181.193C124.483 180.495 124.54 179.768 124.464 179.048C124.34 178.222 123.922 177.473 123.692 176.674C123.288 175.259 123.476 173.762 123.591 172.297C124.07 165.846 122.992 159.374 120.45 153.426C119.83 151.993 119.123 150.542 118.907 149.012C119.225 148.403 119.766 147.941 120.418 147.722C121.924 147.217 122.912 148.002 123.132 149.43C123.499 151.86 123.288 154.34 123.77 156.779C124.216 159.059 124.892 161.289 125.787 163.433C126.599 165.371 127.587 167.245 128.211 169.252C128.682 170.906 129.018 172.596 129.217 174.304C129.846 178.86 130.329 183.581 128.937 187.949Z" fill="black"/>
<path opacity="0.1" d="M167.731 215.531C167.593 216.024 167.335 216.475 166.979 216.843C166.623 217.212 166.18 217.485 165.692 217.639C164.713 217.939 163.687 218.057 162.665 217.988H161.747C157.824 215.382 153.108 214.244 148.428 214.773C146.931 214.952 145.434 215.301 143.937 215.163C140.91 214.888 138.458 212.711 135.762 211.319C132.694 209.805 129.244 209.241 125.854 209.701C122.463 210.161 119.288 211.623 116.735 213.901L116.473 214.13C116.435 213.947 116.411 213.761 116.399 213.574C116.317 211.916 116.909 210.961 118.269 210.066C122.301 207.402 127.22 205.574 131.821 204.201C134.268 203.427 136.795 202.937 139.353 202.74C142.972 202.529 146.587 203.2 150.109 204.049C154.44 205.119 158.725 206.534 162.564 208.798C164.433 209.914 166.27 211.292 167.285 213.248C167.69 213.936 167.848 214.741 167.731 215.531Z" fill="black"/>
<path d="M178.032 165.224L177.968 165.389C176.939 168.058 175.047 170.313 173.834 172.912C172.305 176.205 171.928 179.897 171.589 183.516C171.295 186.616 171.005 189.735 171.24 192.844C171.827 200.505 175.57 207.77 176.572 215.284C176.818 217.019 176.881 218.775 176.76 220.524C176.677 221.631 176.475 222.82 175.74 223.638C175.005 224.455 173.577 224.777 172.787 223.991C173.141 223.316 173.499 222.646 173.857 221.97C171.758 220.34 168.599 221.511 166.146 220.492C165.067 220.032 164.204 219.206 163.299 218.466C161.234 216.787 158.854 215.538 156.3 214.792C153.745 214.046 151.067 213.818 148.424 214.122C146.926 214.305 145.429 214.654 143.932 214.517C140.905 214.236 138.453 212.064 135.757 210.673C132.69 209.158 129.24 208.595 125.85 209.054C122.46 209.513 119.284 210.974 116.73 213.249C116.087 213.846 115.224 214.544 114.434 214.168C114.128 213.981 113.882 213.712 113.722 213.391C110.714 208.252 112.927 201.625 116.142 196.619C119.357 191.613 123.614 186.998 124.937 181.197C125.128 180.499 125.186 179.772 125.107 179.052C124.983 178.226 124.565 177.477 124.335 176.678C123.931 175.263 124.119 173.766 124.234 172.301C124.716 165.849 123.642 159.376 121.102 153.426C120.367 151.712 119.495 149.976 119.495 148.116C119.495 145.186 121.594 142.757 123.33 140.401C125.327 137.691 127.004 134.692 129.534 132.465C131.931 130.348 135.403 129.052 138.37 130.127C143.412 128.903 148.6 128.398 153.783 128.625C155.574 128.708 157.425 128.896 158.996 129.764C160.677 130.683 161.884 132.318 163.538 133.296C164.746 134.017 166.137 134.357 167.451 134.862C171.078 136.279 174.072 138.956 175.883 142.403C177.72 145.963 178.179 150.055 178.583 154.041C178.969 157.793 179.336 161.692 178.032 165.224Z" fill="#BA1C51"/>
<path opacity="0.1" d="M171.24 192.844C171.827 200.504 175.57 207.77 176.572 215.283C174.569 213.588 171.782 211.885 171.41 209.914C170.996 207.783 169.674 204.991 169.453 202.837C169.233 200.683 170.744 198.052 169.159 196.573C168.388 195.852 170.44 196.054 169.687 195.314C167.993 193.666 167.575 191.126 167.469 188.77C167.29 184.6 167.818 180.384 167.051 176.283C166.592 173.752 165.632 171.341 164.865 168.884C163.974 166.023 163.331 163.093 162.688 160.158C162.055 157.549 161.595 154.901 161.31 152.231C161.113 149.935 161.205 147.501 162.229 145.406C163.253 143.312 165.324 141.613 167.648 141.645C175.419 141.746 174.078 152.281 175.786 157.15C176.471 159.088 177.394 160.962 177.766 162.982C177.901 163.774 177.975 164.576 177.986 165.38C176.957 168.048 175.065 170.303 173.853 172.902C172.323 176.195 171.947 179.888 171.607 183.507C171.295 186.616 171.005 189.734 171.24 192.844Z" fill="black"/>
<path d="M176.291 157.031C176.976 158.969 177.899 160.843 178.271 162.863C178.891 166.248 177.931 169.844 178.973 173.123C179.245 173.823 179.472 174.54 179.653 175.268C179.832 176.311 179.626 177.376 179.626 178.437C179.626 180.145 180.163 181.799 180.641 183.438C182.256 189.01 183.325 194.726 183.832 200.505C183.908 202.057 184.153 203.597 184.563 205.097C184.755 205.605 184.921 206.124 185.059 206.649C185.182 207.351 185.211 208.066 185.146 208.776C185.022 211.026 184.769 213.286 185.022 215.527C185.274 217.768 186.092 220.042 187.777 221.543C186.271 221.869 184.677 222.196 183.208 221.713C181.141 221.038 179.901 218.958 178.849 217.066C177.518 214.65 172.457 212.473 171.933 209.759C171.524 207.632 170.202 204.84 169.981 202.681C169.761 200.523 171.267 197.901 169.683 196.422C168.916 195.701 170.969 195.898 170.211 195.163C168.521 193.515 168.103 190.975 167.997 188.614C167.818 184.449 168.342 180.233 167.579 176.131C167.12 173.601 166.16 171.19 165.393 168.728C164.502 165.872 163.859 162.941 163.216 160.002C162.582 157.393 162.121 154.745 161.838 152.075C161.641 149.779 161.728 147.34 162.757 145.246C163.786 143.152 165.857 141.457 168.176 141.485C175.915 141.622 174.583 152.163 176.291 157.031Z" fill="#BA1C51"/>
<path opacity="0.1" d="M154.146 158.827C154.872 159.677 155.804 160.609 156.901 160.444C156.818 160.576 156.686 160.67 156.534 160.706C156.382 160.742 156.222 160.717 156.089 160.637C155.825 160.462 155.614 160.219 155.478 159.934L153.907 157.284C153.7 156.94 152.277 154.933 151.928 156.09C151.79 156.582 153.792 158.414 154.146 158.827Z" fill="black"/>
<path opacity="0.1" d="M153.301 165.435C153.256 164.569 152.891 163.751 152.277 163.139C151.725 162.638 151.08 162.25 150.38 161.995C148.658 161.288 146.619 160.719 144.749 160.811C145.429 161.803 147.611 162.395 148.704 162.955C150.253 163.754 151.785 164.581 153.301 165.435Z" fill="black"/>
<path opacity="0.1" d="M158.192 184.246C157.875 186.598 155.951 188.38 154.004 189.758C152.056 191.135 149.87 192.32 148.598 194.313C147.716 195.691 147.321 197.29 146.573 198.727C145.746 200.311 144.511 201.643 143.523 203.131C142.536 204.619 141.764 206.397 142.067 208.16C142.072 208.241 142.093 208.321 142.129 208.393C142.165 208.466 142.216 208.531 142.279 208.583C142.373 208.623 142.477 208.638 142.579 208.627C142.681 208.615 142.778 208.578 142.862 208.518C144.864 207.471 145.654 205.079 146.495 203.007C147.377 200.917 148.37 198.875 149.471 196.89C149.967 195.971 150.513 194.97 151.436 194.46C152.068 194.197 152.715 193.972 153.374 193.785C154.309 193.357 155.129 192.713 155.767 191.907C158.274 188.916 159.583 185.102 159.441 181.202C159.414 180.379 159.368 176.421 158.132 177.642C156.897 178.864 158.403 182.648 158.192 184.246Z" fill="black"/>
<path d="M161.218 94.0622C165.168 95.7844 168.567 99.5734 168.443 103.867C168.337 108.377 164.562 112.626 165.862 116.947C166.615 119.455 168.884 121.136 170.679 123.042C177.518 130.28 177.504 142.914 170.642 150.138C168.016 152.894 164.64 154.855 161.861 157.486C152.065 166.718 151.647 182.686 156.892 195.082C152.874 195.951 148.778 196.412 144.667 196.459C142.742 196.459 140.386 196.133 139.688 194.338C139.045 192.68 140.148 190.438 138.88 189.212C138.283 188.638 137.387 188.56 136.584 188.427C131.413 187.591 127.169 183.462 125.231 178.599C123.293 173.735 123.394 168.261 124.505 163.144C125.295 159.447 126.531 155.378 124.698 152.072C122.402 147.911 115.798 146.156 115.899 141.398C115.981 137.499 120.579 135.603 123.187 132.705C128 127.368 125.709 119.087 125.699 111.895C125.699 105.567 127.913 99.036 132.625 94.82C139.633 88.496 153.131 90.5488 161.218 94.0622Z" fill="#A26565"/>
<g opacity="0.1">
<path opacity="0.1" d="M125.451 147.353C123.435 143.716 118.14 141.916 116.909 138.338C116.293 139.173 115.947 140.176 115.917 141.213C115.816 145.971 122.411 147.725 124.717 151.891C125.474 153.365 125.792 155.026 125.635 156.676C126.361 153.48 126.999 150.146 125.451 147.353Z" fill="black"/>
<path opacity="0.1" d="M166.39 111.058C167.217 108.646 168.415 106.212 168.475 103.709C168.483 103.438 168.476 103.167 168.452 102.896C167.529 105.661 166.114 108.343 166.39 111.058Z" fill="black"/>
<path opacity="0.1" d="M126.241 123.904C127.821 118.912 126.457 112.721 126.453 107.182C126.453 106.512 126.48 105.837 126.531 105.166C125.986 107.306 125.712 109.507 125.713 111.715C125.722 115.669 126.416 119.959 126.241 123.904Z" fill="black"/>
<path opacity="0.1" d="M171.41 145.438C168.783 148.193 165.407 150.154 162.628 152.786C157.668 157.457 155.12 163.854 154.481 170.637C155.666 165.586 158.059 160.933 161.894 157.319C164.649 154.701 168.048 152.749 170.675 149.971C173.799 146.565 175.614 142.161 175.795 137.543C175.002 140.494 173.496 143.205 171.41 145.438Z" fill="black"/>
<path opacity="0.1" d="M145.434 191.744C143.509 191.744 141.153 191.414 140.455 189.618C139.812 187.965 140.915 185.724 139.647 184.493C139.05 183.919 138.15 183.841 137.351 183.707C132.184 182.876 127.941 178.743 126.003 173.884C124.574 170.292 124.267 166.375 124.625 162.508C124.588 162.659 124.556 162.811 124.524 162.967C123.431 168.083 123.316 173.562 125.249 178.426C127.183 183.289 131.431 187.418 136.598 188.249C137.415 188.383 138.315 188.465 138.894 189.035C140.175 190.266 139.059 192.507 139.702 194.16C140.4 195.956 142.756 196.31 144.681 196.287C148.792 196.239 152.888 195.778 156.906 194.909C156.339 193.569 155.844 192.2 155.423 190.808C152.124 191.394 148.784 191.707 145.434 191.744Z" fill="black"/>
</g>
<path opacity="0.1" d="M160.474 171.719C161.609 172.573 162.84 169.317 162.137 168.504C161.949 168.715 160.3 171.599 160.474 171.719Z" fill="black"/>
<path opacity="0.1" d="M165.311 230.661C166.647 230.202 168.066 229.743 168.939 228.64C169.66 227.754 170.252 224.236 168.727 225.922C167.432 227.368 166.822 229.274 165.311 230.661Z" fill="black"/>
<path opacity="0.1" d="M178.918 226.972C178.758 228.056 178.459 229.181 177.692 229.962C177.55 230.109 177.233 230.2 177.192 230.003C178.048 229.547 178.844 228.985 179.561 228.331C181.114 226.793 181.325 223.004 178.96 221.998C178.937 223.661 179.171 225.282 178.918 226.972Z" fill="black"/>
<path d="M195.254 220.143C195.254 220.143 182.22 215.022 177.508 215.55C172.796 216.078 182.845 223.504 182.845 223.504L188.852 227.555C188.852 227.555 192.526 226.177 192.77 226.072C193.013 225.966 195.254 220.143 195.254 220.143Z" fill="#454B69"/>
<path d="M105.575 165.206C105.575 165.206 115.366 159.53 128.29 166.584C141.213 173.638 143.367 215.151 143.367 215.151C143.367 215.151 138.081 257.444 158.463 248.034C158.463 248.034 195.663 236.484 199.388 239.028C199.388 239.028 202.915 239.028 195.865 240.594C188.815 242.16 161.581 250.79 161.581 250.79C161.581 250.79 152.777 253.867 149.048 250.79C145.319 247.713 134.751 251.185 133.378 230.031C132.469 216.701 130.835 203.43 128.482 190.277L124.85 179.508L105.575 165.206Z" fill="#565661"/>
<path d="M104.399 230.614C104.399 230.614 108.707 187.728 101.643 172.256C95.4984 158.772 119.26 165.077 125.461 166.914C126.42 167.201 127.257 167.799 127.839 168.614C131.514 173.78 144.694 194.488 140.809 222.196C140.809 222.196 139.243 246.872 149.034 250.785L118.866 241.067C116.418 240.277 113.933 239.62 111.426 239.051C108.229 238.325 103.021 236.263 104.399 230.614Z" fill="white"/>
<path d="M318.969 310.677H322.887L325.454 258.027L325.629 255.032L322.299 253.861L322.079 257.044L318.969 310.677Z" fill="#565661"/>
<path opacity="0.1" d="M322.079 257.044L325.454 258.027L325.629 255.032L322.299 253.861L322.079 257.044Z" fill="black"/>
<path d="M286.261 290.346C286.165 291.067 285.98 291.774 285.71 292.449C285.431 293.332 284.834 294.079 284.034 294.544C283.496 294.766 282.92 294.88 282.339 294.879C280.176 295.008 277.889 294.975 276.029 293.873C275.236 293.363 274.51 292.756 273.866 292.068C269.686 287.915 265.886 283.397 262.513 278.566C261.948 277.753 261.365 276.793 261.617 275.81C265.987 274.598 270.137 272.699 273.912 270.184C274.432 269.785 275.016 269.474 275.638 269.266C276.704 269.038 277.801 268.998 278.881 269.146C279.923 269.316 279.969 269.349 280.369 270.524C281.03 272.513 280.92 274.658 281.664 276.646C282.136 277.745 282.711 278.797 283.381 279.788C285.301 282.998 286.775 286.787 286.261 290.346Z" fill="#A26565"/>
<path opacity="0.1" d="M286.261 290.345C286.165 291.066 285.98 291.773 285.71 292.449C285.431 293.331 284.834 294.078 284.034 294.543C283.496 294.765 282.92 294.879 282.339 294.878C280.176 295.007 277.889 294.975 276.029 293.872C275.236 293.362 274.51 292.756 273.866 292.068C269.686 287.915 265.886 283.396 262.513 278.565C261.948 277.752 261.365 276.792 261.617 275.81C263.043 275.415 264.447 274.945 265.824 274.404L265.893 274.455C267.303 275.461 268.327 276.903 269.324 278.317L272.538 282.841C273.111 283.729 273.788 284.547 274.554 285.275C275.505 286.038 276.554 286.668 277.673 287.149C279.184 287.879 280.695 288.609 282.265 289.197C283.28 289.606 284.998 289.767 286.261 290.345Z" fill="black"/>
<path d="M289.228 241.3C288.911 242.063 288.527 242.796 288.08 243.49C283.811 250.658 280.518 258.364 278.288 266.403C277.654 266.261 277.296 267.124 277.301 267.781C277.305 268.438 277.301 269.264 276.695 269.503C276.516 269.572 276.313 269.572 276.139 269.65C275.753 269.825 275.643 270.316 275.588 270.739L275.046 274.716C274.858 276.094 274.692 277.586 275.367 278.803C275.833 279.527 276.437 280.151 277.145 280.64L286.109 287.713C286.477 288.002 286.932 288.31 287.372 288.149C288.378 287.782 287.487 285.981 288.291 285.251C288.824 284.751 289.669 285.127 290.408 285.068C291.373 284.994 292.103 284.108 292.346 283.175C292.517 282.226 292.534 281.255 292.397 280.3C292.336 279.865 292.387 279.421 292.544 279.01C292.818 278.574 293.195 278.213 293.641 277.958C295.197 276.822 296.45 275.322 297.292 273.59C298.133 271.857 298.537 269.945 298.468 268.02C298.395 267.434 298.417 266.84 298.532 266.261C298.719 265.731 299.001 265.239 299.364 264.809C302.62 260.405 305.334 255.624 308.03 250.852C309.582 248.097 311.162 245.3 311.704 242.195C311.751 242.08 311.77 241.955 311.761 241.831C311.751 241.706 311.713 241.586 311.649 241.479C311.585 241.372 311.496 241.282 311.391 241.215C311.286 241.148 311.167 241.106 311.043 241.093C309.698 240.673 308.326 240.345 306.937 240.11C302.716 239.256 298.643 237.938 294.537 236.67C290.431 235.403 290.463 237.984 289.228 241.3Z" fill="#454B69"/>
<path d="M269.815 321.814L276.281 322.594L306.046 255.032L314.074 254.444L328.178 258.559L330.915 338.999H337.377L334.832 255.62L350.305 256.015L377.916 324.748H383.789L354.75 244.419L353.634 241.323L310.354 239.84L299.566 245.888L299.428 246.237L269.815 321.814Z" fill="#565661"/>
<path opacity="0.1" d="M299.428 246.237C308.728 249.039 318.382 252.098 318.382 252.098C318.382 252.098 327.186 255.17 330.915 252.098C331.385 251.731 331.911 251.441 332.472 251.239C331.988 251.584 331.465 251.873 330.915 252.098L354.75 244.414L353.648 241.323L310.368 239.84L299.58 245.888L299.428 246.237Z" fill="black"/>
<path d="M343.448 232.906L325.826 228.988C325.826 228.988 283.721 236.823 280.589 239.955C280.589 239.955 314.271 246.808 317.991 249.141C321.711 251.474 343.843 254.055 343.448 232.906Z" fill="white"/>
<path d="M278.059 295.861C276.998 297.882 274.385 298.451 272.088 298.484C268.9 298.523 265.734 297.957 262.756 296.817C261.057 296.164 259.427 295.324 257.672 294.846C255.059 294.13 252.161 294.19 249.865 292.752C248.647 291.94 247.641 290.849 246.93 289.569C246.797 289.344 246.668 289.11 246.549 288.871C245.451 286.736 244.942 284.251 245.552 281.946C246.163 279.64 248.381 277.1 250.953 277.137C254.007 277.183 257.649 278.63 260.598 279.378C264.272 280.297 267.946 281.358 271.193 283.3C273.912 284.935 276.314 287.282 277.595 290.148C277.841 290.701 278.044 291.272 278.201 291.856C278.601 293.179 278.693 294.653 278.059 295.861Z" fill="#A26565"/>
<path opacity="0.1" d="M278.059 295.861C276.998 297.882 274.385 298.451 272.088 298.483C268.9 298.523 265.734 297.957 262.756 296.816C261.057 296.164 259.427 295.324 257.672 294.846C255.059 294.13 252.161 294.189 249.865 292.752C248.647 291.94 247.641 290.849 246.93 289.569C246.797 289.344 246.668 289.11 246.549 288.871C247.008 288.908 247.431 288.954 247.66 288.977C250.48 289.248 253.171 290.276 255.863 291.053C259.599 292.132 263.457 292.734 267.344 292.844C270.1 292.922 272.975 292.72 275.381 291.374C276.1 290.921 276.845 290.511 277.613 290.148C277.86 290.701 278.062 291.272 278.219 291.856C278.601 293.179 278.693 294.653 278.059 295.861Z" fill="black"/>
<path d="M297.793 208.538C291.823 207.56 285.742 207.321 279.689 207.082L272.286 206.788C271.759 206.727 271.226 206.791 270.729 206.976C270.301 207.251 269.894 207.558 269.512 207.895C268.768 208.4 267.817 208.455 266.922 208.506C260.569 208.856 254.25 209.675 248.018 210.958C244.804 211.615 241.465 212.474 239.049 214.692C236.496 217.039 235.375 220.616 235.288 224.079C235.201 227.542 236.11 230.945 237.07 234.27C238.292 238.273 238.967 242.422 239.077 246.606C239.034 247.767 239.078 248.929 239.21 250.083C239.424 251.184 239.748 252.261 240.179 253.297L243.559 262.322C243.858 263.112 244.151 263.897 244.478 264.669C244.804 265.44 245.116 266.047 245.396 266.772C245.809 267.764 246.135 268.793 246.462 269.817L248.712 276.885L249.006 277.804C249.819 280.348 250.65 282.938 252.184 285.124C253.718 287.31 256.092 289.074 258.761 289.207C259.621 289.175 260.484 289.198 261.342 289.276C262.073 289.455 262.783 289.712 263.459 290.043C265.462 290.875 267.613 291.296 269.783 291.278C271.781 291.278 273.999 290.723 275.083 289.042C275.68 288.123 275.836 286.993 276.001 285.91C276.29 283.733 276.571 281.459 275.831 279.393C275.372 278.157 274.6 277.096 274.068 275.879C273.324 274.221 273.08 272.389 272.598 270.639C271.554 266.873 269.431 263.495 266.49 260.921C265.445 256.785 264.678 252.585 264.194 248.347C264.126 247.408 263.94 246.482 263.638 245.591C263.101 244.213 262.012 243.097 261.557 241.692C261.13 240.388 261.259 238.881 260.483 237.756C266.945 239.533 273.342 239.134 280.052 239.028C282.2 239.035 284.348 238.912 286.481 238.661C287.476 238.478 288.483 238.371 289.494 238.339C291.57 238.339 293.517 239.258 295.423 240.066C300.81 242.362 306.487 244.167 312.338 244.415C318.377 244.668 324.347 243.249 330.249 241.843C332.844 241.223 335.54 240.553 337.597 238.849C339.655 237.145 340.812 234.073 339.544 231.735C338.58 229.976 336.582 229.113 334.718 228.378C329.555 226.339 324.366 224.35 319.392 221.884C311.796 218.182 306.115 209.916 297.793 208.538Z" fill="#454B69"/>
<path d="M287.147 187.76C286.426 189.322 285.214 190.599 284.318 192.068C282.82 194.487 282.326 197.396 282.941 200.174C283.263 201.548 283.897 202.829 284.793 203.919C285.689 205.009 286.822 205.879 288.107 206.461C289.254 206.918 290.46 207.209 291.689 207.325C293.306 207.522 295.028 207.564 296.457 206.783C297.526 206.141 298.403 205.225 298.996 204.128C300.232 202.062 300.934 199.733 301.577 197.414C302.767 193.134 303.782 188.743 303.635 184.302C303.584 182.773 303.281 181.051 302.014 180.169C301.359 179.791 300.634 179.553 299.883 179.471L293.825 178.387C292.654 178.176 290.61 177.317 289.595 178.162C288.58 179.007 288.502 181.505 288.328 182.676C288.052 184.408 287.882 186.167 287.147 187.76Z" fill="#A1616A"/>
<path d="M360.781 169.997L359.196 183.279C358.868 185.648 358.679 188.034 358.631 190.425C358.631 191.757 358.673 193.236 357.791 194.232C357.359 194.686 356.814 195.014 356.211 195.183C354.287 195.78 352.188 195.247 350.351 194.425C349.276 193.966 348.178 193.3 347.692 192.23C347.409 191.488 347.291 190.694 347.347 189.902C347.347 181.979 348.096 173.717 352.234 166.966C352.587 166.304 353.084 165.729 353.69 165.285C354.838 164.55 356.339 164.757 357.639 165.157C358.438 165.4 360.597 165.671 361.107 166.383C361.616 167.095 360.891 169.083 360.781 169.997Z" fill="#A1616A"/>
<path d="M318.745 121.965C327.876 121.965 335.278 114.563 335.278 105.432C335.278 96.3007 327.876 88.8984 318.745 88.8984C309.613 88.8984 302.211 96.3007 302.211 105.432C302.211 114.563 309.613 121.965 318.745 121.965Z" fill="#A1616A"/>
<path d="M314.322 130.071C314.262 131.357 313.912 132.614 313.298 133.745C321.739 132.459 330.159 131.026 338.557 129.446C335.77 128.014 333.664 125.538 332.697 122.558C332.24 120.96 331.99 119.31 331.953 117.648C331.819 115.013 331.87 112.372 332.104 109.744C329.165 110.052 326.382 111.154 323.58 112.1C320.764 113.052 317.899 113.854 314.997 114.502C313.596 114.814 312.186 115.081 310.772 115.329C309.118 115.623 308.324 115.618 309.472 117.069C312.554 120.946 314.753 124.886 314.322 130.071Z" fill="#A1616A"/>
<path d="M319.401 127.864C317.22 128.19 314.933 128.557 313.192 129.908C312.53 130.477 311.899 131.082 311.305 131.722C307.846 135.079 302.964 136.429 298.767 138.799C298.082 139.137 297.475 139.614 296.985 140.2C296.526 140.838 296.291 141.651 295.809 142.285C295.249 143.02 294.362 143.479 293.926 144.292C293.49 145.105 293.586 145.968 293.54 146.831C293.435 148.728 292.718 150.529 292.163 152.343C289.614 161.027 291.01 170.713 287.152 178.916C287.329 179.388 287.601 179.82 287.95 180.184C288.299 180.549 288.718 180.839 289.182 181.037C290.153 181.387 291.166 181.605 292.195 181.685L300.742 182.746C301.963 182.897 303.258 183.04 304.374 182.53C303.353 185.344 302.631 188.258 302.22 191.224C302.013 193.036 301.691 194.834 301.256 196.606C300.08 200.648 297.123 204.014 293.618 206.315C293.177 206.546 292.805 206.89 292.539 207.312C292.08 208.23 292.76 209.259 293.242 210.159C294.643 212.768 294.45 215.9 294.431 218.858C294.413 221.815 294.711 225.062 296.778 227.184C298 228.438 299.672 229.117 301.297 229.765L314.666 235.106C316.873 236.046 319.148 236.813 321.473 237.403C324.995 238.206 328.655 238.174 332.27 238.018C334.658 237.917 337.043 237.764 339.425 237.559C340.373 237.556 341.304 237.311 342.13 236.847C342.841 236.286 343.389 235.543 343.714 234.698C345.574 230.651 346.199 225.93 349.083 222.541C351.063 220.212 354.135 218.352 354.36 215.307C354.466 213.792 353.791 212.318 353.781 210.798C353.781 208.928 354.76 207.151 354.7 205.286C354.576 202.251 351.715 199.936 351.26 196.932C350.103 189.318 353.97 181.712 356.344 174.387C356.771 173.078 357.322 171.632 358.581 171.071C359.839 170.511 361.612 170.805 362.062 169.565C363.196 166.451 363.467 162.8 363.32 159.489C363.238 157.574 362.558 155.7 362.636 153.78C362.691 152.43 363.123 151.116 363.238 149.771C363.412 147.736 362.875 145.715 362.319 143.75C362.158 143.048 361.918 142.367 361.603 141.72C361.263 141.133 360.863 140.583 360.409 140.08L358.172 137.421C357.125 136.177 356.018 134.886 354.498 134.257C354.006 133.04 352.436 132.199 351.311 131.529C350.176 130.885 349.005 130.31 347.802 129.807L335.154 124.222C334.681 123.984 334.175 123.82 333.652 123.735C332.882 123.709 332.117 123.867 331.42 124.194C327.562 125.724 323.535 127.249 319.401 127.864Z" fill="#BA1C51"/>
<path d="M306.005 108.307C305.518 106.594 304.273 105.115 304.085 103.343C303.915 101.767 304.608 100.243 305.003 98.7087C305.398 97.1748 305.385 95.301 304.168 94.2814C303.966 94.1069 303.708 93.9508 303.635 93.6936C303.488 93.2343 303.952 92.8164 304.094 92.3525C304.356 91.434 303.222 90.419 303.635 89.5373C303.869 89.055 304.457 88.8851 304.971 88.7335C306.937 88.1503 308.93 86.8551 309.357 84.8482C310.896 85.4911 312.535 84.2833 313.716 83.1122C314.896 81.941 316.347 80.6046 317.973 80.9582L317.61 81.6976C320.117 80.7875 322.859 80.7568 325.385 81.6104H324.614C326.83 81.6479 328.98 82.3751 330.763 83.6908C330.566 83.6908 330.547 83.9848 330.626 84.1501C331.269 85.6519 332.922 86.4464 334.516 86.8184C335.475 87.048 336.518 87.2134 337.221 87.9023C337.923 88.5912 337.937 90.0287 337.009 90.3593C338.901 91.0959 340.693 92.068 342.341 93.2527C342.801 93.5879 343.32 94.0426 343.26 94.6305C343.194 94.9256 343.099 95.2134 342.975 95.4893C342.883 95.9795 342.917 96.4849 343.072 96.9589L343.581 99.0624C344.142 101.4 344.582 104.215 342.879 105.91C343.516 107.102 343.753 108.467 343.554 109.804C343.354 111.141 342.73 112.378 341.772 113.332C341.907 113.742 341.954 114.176 341.909 114.606C341.864 115.036 341.729 115.451 341.512 115.824C341.295 116.198 341.001 116.521 340.65 116.773C340.299 117.025 339.899 117.2 339.476 117.286C340.04 118.168 339.521 119.426 338.63 119.977C337.74 120.528 336.619 120.533 335.581 120.436C334.543 120.34 333.491 120.106 332.453 120.262C330.942 120.496 329.464 121.525 328.008 121.066C327.465 120.834 326.944 120.554 326.451 120.23C325.431 119.683 324.246 119.559 323.117 119.311C321.191 118.897 319.362 118.118 317.73 117.015C316.647 116.365 315.785 115.405 315.254 114.259C314.244 111.706 315.943 108.358 314.157 106.277C313.109 105.065 311.034 105.047 309.862 106.084C309.279 106.603 309.201 107.696 308.595 108.087C307.749 108.301 306.874 108.375 306.005 108.307Z" fill="#464353"/>
<path opacity="0.1" d="M283.538 239.997C282.885 239.48 282.322 238.859 281.871 238.16C281.418 237.456 281.238 236.612 281.365 235.785C281.186 236.831 281.255 237.904 281.565 238.918C281.875 239.933 282.419 240.86 283.152 241.627C284.305 242.807 286.468 243.965 288.153 243.56C287.914 242.21 284.608 240.906 283.538 239.997Z" fill="black"/>
<path d="M374.388 166.124C374.388 166.124 364.597 160.448 351.673 167.502C338.75 174.556 336.596 216.069 336.596 216.069C336.596 216.069 341.882 258.362 321.5 248.952C321.5 248.952 284.3 237.402 280.575 239.946C280.575 239.946 277.048 239.946 284.098 241.512C291.148 243.078 318.382 251.708 318.382 251.708C318.382 251.708 327.186 254.785 330.915 251.708C334.644 248.631 345.212 252.103 346.585 230.949C347.493 217.619 349.128 204.348 351.48 191.195L355.113 180.426L374.388 166.124Z" fill="#565661"/>
<path d="M375.564 231.532C375.564 231.532 371.256 188.646 378.32 173.174C384.465 159.69 360.702 165.995 354.502 167.832C353.543 168.119 352.706 168.717 352.124 169.532C348.449 174.698 335.269 195.406 339.154 223.114C339.154 223.114 340.72 247.79 330.929 251.703L361.097 241.985C363.545 241.195 366.03 240.538 368.537 239.969C371.734 239.243 376.942 237.181 375.564 231.532Z" fill="white"/>
<path opacity="0.1" d="M454.653 314.926C479.368 314.926 499.403 311.708 499.403 307.738C499.403 303.769 479.368 300.551 454.653 300.551C429.938 300.551 409.903 303.769 409.903 307.738C409.903 311.708 429.938 314.926 454.653 314.926Z" fill="#BA1C51"/>
<path d="M456.09 170.047H453.211V234.881H456.09V170.047Z" fill="#535461"/>
<path d="M474.19 234.683L474.011 237.604L473.754 241.737L473.648 243.455L473.396 247.588L473.285 249.306L473.028 253.439L470.126 300.316C469.993 302.328 469.1 304.214 467.628 305.592C466.156 306.971 464.215 307.738 462.199 307.738H447.103C445.083 307.737 443.139 306.966 441.668 305.582C440.197 304.198 439.309 302.305 439.185 300.289L436.274 253.407L436.021 249.274L435.915 247.556L435.654 243.423L435.548 241.705L435.295 237.572L435.112 234.651C435.08 234.091 435.162 233.53 435.354 233.003C435.546 232.476 435.843 231.994 436.227 231.585C436.611 231.177 437.074 230.851 437.588 230.627C438.102 230.403 438.657 230.286 439.217 230.283H470.089C470.652 230.286 471.209 230.405 471.725 230.631C472.241 230.857 472.705 231.186 473.089 231.598C473.473 232.01 473.769 232.496 473.958 233.027C474.147 233.557 474.226 234.121 474.19 234.683Z" fill="#565661"/>
<path d="M474.011 237.604L473.754 241.723H435.553L435.295 237.604H474.011Z" fill="#9D9CB5"/>
<path d="M473.648 243.445L473.396 247.569H435.915L435.658 243.445H473.648Z" fill="#9D9CB5"/>
<path d="M473.285 249.287L473.028 253.407H436.278L436.021 249.287H473.285Z" fill="#9D9CB5"/>
<path d="M430.896 194.346C447.668 206.48 454.653 225.456 454.653 225.456C454.653 225.456 434.446 224.763 417.669 212.629C400.892 200.496 393.916 181.523 393.916 181.523C393.916 181.523 414.128 182.217 430.896 194.346Z" fill="#BA1C51"/>
<path d="M393.916 181.523C393.916 181.523 414.89 193.166 421.623 202.806C428.356 212.446 454.653 225.456 454.653 225.456" stroke="#535461" stroke-width="2" stroke-miterlimit="10"/>
<path d="M441.72 169.905C450.851 176.504 454.653 186.838 454.653 186.838C454.653 186.838 443.631 186.456 434.524 179.857C425.417 173.257 421.619 162.924 421.619 162.924C421.619 162.924 432.595 163.3 441.72 169.905Z" fill="#BA1C51"/>
<path d="M421.619 162.924C421.619 162.924 433.036 169.262 436.696 174.506C440.356 179.751 454.676 186.838 454.676 186.838" stroke="#535461" stroke-width="2" stroke-miterlimit="10"/>
<path d="M467.917 186.31C457.432 197.833 455.213 212.892 455.213 212.892C455.213 212.892 469.997 209.264 480.473 197.736C490.948 186.209 493.176 171.154 493.176 171.154C493.176 171.154 478.401 174.787 467.917 186.31Z" fill="#BA1C51"/>
<path d="M493.185 171.158C493.185 171.158 479.527 182.97 476.055 191.109C472.583 199.247 455.213 212.891 455.213 212.891" stroke="#535461" stroke-width="2" stroke-miterlimit="10"/>
<path d="M255.798 158.569V159.616H224.748V158.766C225.599 158.447 226.405 158.018 227.145 157.489C228.464 156.545 229.538 155.3 230.279 153.858C231.021 152.415 231.407 150.817 231.407 149.195C231.408 148.348 231.301 147.504 231.09 146.683C230.715 145.206 230.013 143.832 229.037 142.661C228.061 141.49 226.836 140.553 225.45 139.918H255.587C254.202 140.553 252.976 141.49 252 142.661C251.024 143.832 250.323 145.206 249.947 146.683C249.738 147.504 249.633 148.348 249.635 149.195C249.634 150.817 250.02 152.415 250.76 153.857C251.501 155.3 252.574 156.545 253.892 157.489C254.488 157.915 255.127 158.276 255.798 158.569Z" fill="#DFE6F5"/>
<path opacity="0.1" d="M255.587 139.918C254.202 140.553 252.976 141.49 252 142.661C251.024 143.832 250.323 145.206 249.947 146.683H231.09C230.715 145.206 230.013 143.832 229.037 142.661C228.062 141.49 226.836 140.553 225.451 139.918H255.587Z" fill="black"/>
<path d="M189.197 134.568V140.465C189.197 143.717 191.576 146.358 194.515 146.358H285.866C288.805 146.358 291.189 143.717 291.189 140.465V134.568H189.197Z" fill="#DFE6F5"/>
<path opacity="0.1" d="M255.798 158.57V159.617H224.748V158.767C225.599 158.448 226.405 158.018 227.145 157.49H253.892C254.488 157.915 255.127 158.277 255.798 158.57Z" fill="black"/>
<path d="M264.501 157.816H216.045C215.185 157.816 214.488 158.512 214.488 159.371C214.488 160.23 215.185 160.926 216.045 160.926H264.501C265.361 160.926 266.058 160.23 266.058 159.371C266.058 158.512 265.361 157.816 264.501 157.816Z" fill="#DFE6F5"/>
<path d="M291.189 69.9823C291.189 69.2835 291.051 68.5916 290.784 67.9461C290.516 67.3005 290.124 66.714 289.63 66.2201C289.135 65.7262 288.549 65.3346 287.903 65.0676C287.257 64.8006 286.565 64.6635 285.866 64.6641H194.515C193.816 64.6635 193.124 64.8006 192.479 65.0677C191.833 65.3347 191.247 65.7264 190.753 66.2204C190.259 66.7144 189.867 67.3009 189.6 67.9464C189.333 68.5919 189.196 69.2838 189.197 69.9823V135.717H291.189V69.9823Z" fill="#474157"/>
<path d="M288.406 72.3561V128.845C288.406 129.19 288.339 129.53 288.208 129.849C288.076 130.167 287.884 130.456 287.641 130.699C287.397 130.943 287.109 131.136 286.791 131.268C286.473 131.4 286.132 131.468 285.788 131.468H194.597C194.253 131.468 193.912 131.4 193.595 131.268C193.277 131.136 192.988 130.943 192.745 130.699C192.502 130.456 192.309 130.167 192.178 129.849C192.046 129.53 191.979 129.19 191.98 128.845V72.3561C191.977 71.8965 192.098 71.4446 192.329 71.0472C192.559 70.649 192.889 70.3184 193.288 70.0886C193.686 69.8588 194.138 69.738 194.597 69.7383H285.788C286.482 69.7383 287.148 70.0141 287.639 70.505C288.13 70.9959 288.406 71.6618 288.406 72.3561Z" fill="#4C4C78"/>
<path d="M240.193 68.4251C240.87 68.4251 241.419 67.8761 241.419 67.1989C241.419 66.5217 240.87 65.9727 240.193 65.9727C239.516 65.9727 238.967 66.5217 238.967 67.1989C238.967 67.8761 239.516 68.4251 240.193 68.4251Z" fill="white"/>
<path d="M240.193 143.737C241.864 143.737 243.219 142.382 243.219 140.71C243.219 139.039 241.864 137.684 240.193 137.684C238.521 137.684 237.166 139.039 237.166 140.71C237.166 142.382 238.521 143.737 240.193 143.737Z" fill="white"/>
<path d="M288.406 72.3561H191.989C191.989 71.6618 192.265 70.996 192.756 70.505C193.247 70.0141 193.912 69.7383 194.607 69.7383H285.788C286.482 69.7383 287.148 70.0141 287.639 70.505C288.13 70.996 288.406 71.6618 288.406 72.3561Z" fill="#C8CAD7"/>
<path d="M194.597 71.7041C194.96 71.7041 195.254 71.4101 195.254 71.0474C195.254 70.6847 194.96 70.3906 194.597 70.3906C194.235 70.3906 193.941 70.6847 193.941 71.0474C193.941 71.4101 194.235 71.7041 194.597 71.7041Z" fill="#EDEDF4"/>
<path d="M196.563 71.7041C196.926 71.7041 197.22 71.4101 197.22 71.0474C197.22 70.6847 196.926 70.3906 196.563 70.3906C196.2 70.3906 195.906 70.6847 195.906 71.0474C195.906 71.4101 196.2 71.7041 196.563 71.7041Z" fill="#EDEDF4"/>
<path d="M198.529 71.7041C198.891 71.7041 199.185 71.4101 199.185 71.0474C199.185 70.6847 198.891 70.3906 198.529 70.3906C198.166 70.3906 197.872 70.6847 197.872 71.0474C197.872 71.4101 198.166 71.7041 198.529 71.7041Z" fill="#EDEDF4"/>
</g>
<defs>
<linearGradient id="paint0_linear" x1="177.481" y1="214.815" x2="178.546" y2="214.815" gradientUnits="userSpaceOnUse">
<stop stop-color="#808080" stop-opacity="0.25"/>
<stop offset="0.54" stop-color="#808080" stop-opacity="0.12"/>
<stop offset="1" stop-color="#808080" stop-opacity="0.1"/>
</linearGradient>
<clipPath id="clip0">
<rect width="519" height="339" fill="white"/>
</clipPath>
</defs>
</svg>
