<svg width="482" height="404" viewBox="0 0 482 404" fill="none" xmlns="http://www.w3.org/2000/svg">
<g clip-path="url(#clip0)">
<path opacity="0.1" d="M48.8484 12.1145C30.7233 15.3597 9.91004 21.1429 2.57775 38.9238C-4.12262 55.1799 3.74128 73.4924 9.03236 90.3153C14.2466 106.924 16.9512 124.219 17.0568 141.627C17.1922 166.114 12.4227 191.935 22.1121 214.185C33.0453 239.289 60.1026 253.809 69.5864 279.54C73.5635 290.329 74.045 302.136 75.9407 313.537C80.1435 338.801 91.6234 362.661 108.475 381.145C119.679 393.433 134.268 403.746 150.427 403.991C162.684 404.182 174.26 398.619 185.614 393.749C198.861 388.069 212.438 383.195 226.273 379.153C232.1 377.453 238.104 375.888 244.132 376.42C255.747 377.423 265.437 385.95 276.46 389.962C306.336 400.796 337.22 377.252 368.741 374.77C395.763 372.638 422.905 386.225 449.456 380.553C453.368 379.715 457.551 378.195 459.602 374.584C462.997 368.6 458.784 360.319 461.803 354.115C464.823 347.91 472.972 347.268 477.757 342.548C482.627 337.743 483.023 329.447 480.54 322.922C478.058 316.396 473.268 311.2 468.664 306.119C445.876 280.951 424.895 254.204 405.879 226.077C386.48 197.392 368.324 163.651 373.781 128.887C375.667 116.924 380.301 105.603 382.402 93.6809C384.504 81.7584 383.641 68.256 375.932 59.2577C371.328 53.8808 364.869 50.776 358.6 47.8167C300.132 20.215 237.487 -8.0489 174.184 2.39894C163.878 4.09929 153.677 6.82787 143.25 7.19903C128.159 7.74074 113.956 0.994529 99.2165 3.18642C82.4806 5.65919 65.5692 9.12007 48.8484 12.1145Z" fill="#BA1C51"/>
<path d="M95.094 85.6952C95.094 85.6952 74.4663 74.3696 68.3477 57.02C65.8299 49.7245 61.0131 43.4429 54.621 39.1187C51.5707 37.0888 48.3407 35.3427 44.9717 33.9023" stroke="#535461" stroke-width="2" stroke-miterlimit="10"/>
<path d="M41.0597 22.9916C43.0107 24.9527 45.1121 34.1767 45.1121 34.1767C45.1121 34.1767 35.9041 32.02 33.9531 30.0538C33.0916 29.0969 32.631 27.8454 32.6667 26.5582C32.7025 25.2711 33.2318 24.047 34.145 23.1394C35.0583 22.2319 36.2856 21.7103 37.5728 21.6828C38.86 21.6553 40.1085 22.1239 41.0597 22.9916Z" fill="#BA1C51"/>
<path d="M57.7354 28.0227C58.3071 30.7312 55.0622 39.6142 55.0622 39.6142C55.0622 39.6142 48.5073 32.7977 47.9356 30.0842C47.727 28.8103 48.0175 27.505 48.7467 26.4399C49.4759 25.3748 50.5877 24.6318 51.8507 24.3656C53.1137 24.0994 54.4307 24.3305 55.5277 25.0107C56.6247 25.6909 57.4172 26.768 57.7404 28.0177L57.7354 28.0227Z" fill="#BA1C51"/>
<path d="M75.9408 46.8534C75.0681 49.4766 67.781 55.5106 67.781 55.5106C67.781 55.5106 65.5642 46.3167 66.4369 43.6884C66.8565 42.4247 67.761 41.3794 68.9512 40.7826C70.1415 40.1857 71.52 40.0862 72.7837 40.5059C74.0473 40.9256 75.0924 41.8301 75.6892 43.0205C76.286 44.2109 76.3855 45.5896 75.9658 46.8534H75.9408Z" fill="#BA1C51"/>
<path d="M86.528 64.2007C86.1117 66.9343 79.948 74.1119 79.948 74.1119C79.948 74.1119 76.2066 65.4246 76.6229 62.691C76.6923 62.0154 76.8981 61.3609 77.2279 60.7673C77.5577 60.1736 78.0046 59.6531 78.5415 59.2374C79.0784 58.8216 79.6942 58.5192 80.3514 58.3485C81.0087 58.1778 81.6937 58.1424 82.3651 58.2444C83.0364 58.3464 83.6801 58.5836 84.257 58.9418C84.834 59.3 85.3322 59.7716 85.7214 60.3281C86.1107 60.8846 86.3829 61.5143 86.5215 62.1791C86.6602 62.844 86.6624 63.53 86.528 64.1957V64.2007Z" fill="#BA1C51"/>
<path d="M47.9807 47.4142C50.7491 47.3841 58.7133 42.2781 58.7133 42.2781C58.7133 42.2781 50.6338 37.3626 47.8654 37.3927C46.5352 37.408 45.2657 37.9511 44.336 38.9026C43.4062 39.854 42.8925 41.1359 42.9078 42.4662C42.9231 43.7964 43.4662 45.0661 44.4175 45.996C45.3689 46.9258 46.6506 47.4396 47.9807 47.4243V47.4142Z" fill="#BA1C51"/>
<path d="M60.5942 67.5465C63.2222 66.6888 69.2957 59.436 69.2957 59.436C69.2957 59.436 60.1127 57.1639 57.4848 58.0216C56.2671 58.4701 55.2706 59.3731 54.7047 60.541C54.1388 61.7088 54.0475 63.0506 54.4501 64.2843C54.8526 65.5181 55.7176 66.5477 56.8634 67.157C58.0091 67.7663 59.3464 67.9077 60.5942 67.5515V67.5465Z" fill="#BA1C51"/>
<path d="M75.5396 85.4351C78.2779 85.0338 85.4898 78.9145 85.4898 78.9145C85.4898 78.9145 76.8235 75.1226 74.0902 75.5239C73.417 75.5933 72.7648 75.7982 72.1729 76.1263C71.581 76.4544 71.0617 76.899 70.6461 77.4331C70.2305 77.9673 69.9274 78.5801 69.7548 79.2345C69.5823 79.8889 69.544 80.5715 69.6422 81.2412C69.7404 81.9108 69.9731 82.5537 70.3263 83.131C70.6795 83.7083 71.1459 84.2082 71.6973 84.6005C72.2488 84.9928 72.8739 85.2694 73.5351 85.4137C74.1963 85.558 74.8798 85.5669 75.5446 85.4401L75.5396 85.4351Z" fill="#BA1C51"/>
<path d="M76.5376 154.912C76.5376 154.912 55.9099 143.586 49.7913 126.237C47.2735 118.941 42.4568 112.66 36.0646 108.336C33.0143 106.306 29.7843 104.559 26.4153 103.119" stroke="#535461" stroke-width="2" stroke-miterlimit="10"/>
<path d="M22.5033 92.2103C24.4543 94.1715 26.5557 103.395 26.5557 103.395C26.5557 103.395 17.3477 101.239 15.3967 99.2725C14.5352 98.3157 14.0746 97.0641 14.1103 95.777C14.1461 94.4899 14.6754 93.2658 15.5886 92.3582C16.5019 91.4506 17.7292 90.9291 19.0164 90.9015C20.3036 90.874 21.5521 91.3426 22.5033 92.2103Z" fill="#BA1C51"/>
<path d="M39.179 97.2415C39.7507 99.95 36.5058 108.833 36.5058 108.833C36.5058 108.833 29.9509 102.016 29.3792 99.303C29.1706 98.0291 29.4611 96.7238 30.1903 95.6586C30.9195 94.5935 32.0313 93.8506 33.2943 93.5844C34.5573 93.3182 35.8743 93.5492 36.9713 94.2295C38.0683 94.9097 38.8608 95.9867 39.184 97.2365L39.179 97.2415Z" fill="#BA1C51"/>
<path d="M57.3844 116.07C56.5117 118.693 49.2246 124.727 49.2246 124.727C49.2246 124.727 47.0078 115.533 47.8805 112.905C48.0883 112.279 48.4173 111.701 48.8487 111.202C49.2801 110.704 49.8055 110.295 50.3948 109.999C50.9842 109.704 51.626 109.527 52.2835 109.48C52.9411 109.432 53.6016 109.515 54.2273 109.723C54.853 109.931 55.4316 110.26 55.9301 110.691C56.4287 111.122 56.8373 111.648 57.1328 112.237C57.4283 112.827 57.6048 113.469 57.6523 114.126C57.6998 114.784 57.6172 115.444 57.4095 116.07H57.3844Z" fill="#BA1C51"/>
<path d="M67.9716 133.419C67.5553 136.153 61.3916 143.331 61.3916 143.331C61.3916 143.331 57.6502 134.643 58.0665 131.91C58.1359 131.234 58.3417 130.58 58.6715 129.986C59.0013 129.392 59.4482 128.872 59.9851 128.456C60.522 128.04 61.1378 127.738 61.795 127.567C62.4523 127.397 63.1373 127.361 63.8087 127.463C64.48 127.565 65.1237 127.802 65.7006 128.161C66.2776 128.519 66.7757 128.99 67.165 129.547C67.5543 130.103 67.8265 130.733 67.9651 131.398C68.1038 132.063 68.106 132.749 67.9716 133.414V133.419Z" fill="#BA1C51"/>
<path d="M29.4243 116.633C32.1927 116.603 40.1569 111.497 40.1569 111.497C40.1569 111.497 32.0774 106.581 29.309 106.611C27.9789 106.627 26.7093 107.17 25.7796 108.121C24.8498 109.073 24.3361 110.355 24.3514 111.685C24.3667 113.015 24.9098 114.285 25.8611 115.215C26.8125 116.145 28.0942 116.658 29.4243 116.643V116.633Z" fill="#BA1C51"/>
<path d="M42.0379 136.765C44.6659 135.908 50.7394 128.655 50.7394 128.655C50.7394 128.655 41.5564 126.383 38.9285 127.24C38.2799 127.425 37.6754 127.739 37.151 128.164C36.6267 128.588 36.1932 129.113 35.8766 129.709C35.56 130.304 35.3667 130.958 35.3084 131.63C35.25 132.301 35.3278 132.978 35.537 133.62C35.7462 134.261 36.0826 134.853 36.526 135.361C36.9694 135.87 37.5107 136.283 38.1176 136.577C38.7245 136.871 39.3845 137.04 40.0581 137.073C40.7317 137.106 41.4051 137.003 42.0379 136.77V136.765Z" fill="#BA1C51"/>
<path d="M56.9832 154.652C59.7215 154.251 66.9334 148.131 66.9334 148.131C66.9334 148.131 58.2671 144.339 55.5338 144.741C54.8606 144.81 54.2084 145.015 53.6165 145.343C53.0247 145.671 52.5053 146.116 52.0897 146.65C51.6741 147.184 51.371 147.797 51.1984 148.451C51.0259 149.106 50.9876 149.788 51.0858 150.458C51.184 151.128 51.4167 151.77 51.7699 152.348C52.1231 152.925 52.5895 153.425 53.1409 153.817C53.6924 154.21 54.3175 154.486 54.9787 154.63C55.6399 154.775 56.3234 154.784 56.9882 154.657L56.9832 154.652Z" fill="#BA1C51"/>
<path d="M315.665 2.12845e-05H82.6714C79.8683 -0.00393358 77.0919 0.544309 74.5007 1.61345C71.9095 2.68259 69.5543 4.25169 67.5694 6.23116C65.5846 8.21062 64.009 10.5617 62.9327 13.1501C61.8563 15.7386 61.3003 18.5137 61.2964 21.317V344.192C61.2997 346.996 61.8552 349.771 62.9312 352.36C64.0073 354.949 65.5827 357.301 67.5677 359.281C69.5526 361.261 71.9081 362.831 74.4996 363.9C77.0911 364.97 79.8679 365.518 82.6714 365.514H315.665C318.468 365.518 321.244 364.97 323.835 363.901C326.426 362.831 328.782 361.262 330.766 359.283C332.751 357.303 334.327 354.952 335.403 352.364C336.48 349.775 337.036 347 337.039 344.197V21.312C337.03 15.6513 334.773 10.226 330.765 6.22938C326.756 2.23275 321.325 -0.00796673 315.665 2.12845e-05Z" fill="url(#paint0_linear)"/>
<path d="M323.729 4.37891H74.6118C69.0721 4.37891 64.5813 8.87018 64.5813 14.4104V352.192C64.5813 357.733 69.0721 362.224 74.6118 362.224H323.729C329.269 362.224 333.759 357.733 333.759 352.192V14.4104C333.759 8.87018 329.269 4.37891 323.729 4.37891Z" fill="#535461"/>
<path d="M320.083 38.2305H78.2578V328.378H320.083V38.2305Z" fill="#F1F1F4"/>
<path d="M198.077 24.0746C199.891 24.0746 201.362 22.6037 201.362 20.7892C201.362 18.9748 199.891 17.5039 198.077 17.5039C196.263 17.5039 194.792 18.9748 194.792 20.7892C194.792 22.6037 196.263 24.0746 198.077 24.0746Z" fill="white"/>
<path d="M198.077 354.565C203.517 354.565 207.927 350.155 207.927 344.714C207.927 339.274 203.517 334.863 198.077 334.863C192.637 334.863 188.227 339.274 188.227 344.714C188.227 350.155 192.637 354.565 198.077 354.565Z" fill="white"/>
<path d="M148.592 75.9199H113.335C110.052 75.9199 107.392 78.581 107.392 81.8636V117.124C107.392 120.407 110.052 123.068 113.335 123.068H148.592C151.874 123.068 154.535 120.407 154.535 117.124V81.8636C154.535 78.581 151.874 75.9199 148.592 75.9199Z" fill="#BA1C51"/>
<path opacity="0.2" d="M249.749 123.066H285.006C288.288 123.066 290.949 120.405 290.949 117.123V81.8619C290.949 78.5793 288.288 75.9182 285.006 75.9182H249.749C246.467 75.9182 243.806 78.5793 243.806 81.8619V117.123C243.806 120.405 246.467 123.066 249.749 123.066Z" fill="#BA1C51"/>
<path d="M216.799 75.9199H181.542C178.26 75.9199 175.599 78.581 175.599 81.8636V117.124C175.599 120.407 178.26 123.068 181.542 123.068H216.799C220.081 123.068 222.742 120.407 222.742 117.124V81.8636C222.742 78.581 220.081 75.9199 216.799 75.9199Z" fill="#BA1C51"/>
<path d="M148.592 159.182H113.335C110.052 159.182 107.392 161.843 107.392 165.125V200.386C107.392 203.669 110.052 206.33 113.335 206.33H148.592C151.874 206.33 154.535 203.669 154.535 200.386V165.125C154.535 161.843 151.874 159.182 148.592 159.182Z" fill="#BA1C51"/>
<path opacity="0.2" d="M249.749 206.328H285.006C288.288 206.328 290.949 203.667 290.949 200.384V165.124C290.949 161.841 288.288 159.18 285.006 159.18H249.749C246.467 159.18 243.806 161.841 243.806 165.124V200.384C243.806 203.667 246.467 206.328 249.749 206.328Z" fill="#BA1C51"/>
<path opacity="0.2" d="M216.799 159.182H181.542C178.26 159.182 175.599 161.843 175.599 165.125V200.386C175.599 203.669 178.26 206.33 181.542 206.33H216.799C220.081 206.33 222.742 203.669 222.742 200.386V165.125C222.742 161.843 220.081 159.182 216.799 159.182Z" fill="#BA1C51"/>
<path d="M148.592 242.443H113.335C110.052 242.443 107.392 245.104 107.392 248.387V283.648C107.392 286.931 110.052 289.592 113.335 289.592H148.592C151.874 289.592 154.535 286.931 154.535 283.648V248.387C154.535 245.104 151.874 242.443 148.592 242.443Z" fill="#BA1C51"/>
<path d="M249.749 289.59H285.006C288.288 289.59 290.949 286.929 290.949 283.646V248.385C290.949 245.103 288.288 242.442 285.006 242.442H249.749C246.467 242.442 243.806 245.103 243.806 248.385V283.646C243.806 286.929 246.467 289.59 249.749 289.59Z" fill="#BA1C51"/>
<path d="M216.799 242.443H181.542C178.26 242.443 175.599 245.104 175.599 248.387V283.648C175.599 286.931 178.26 289.592 181.542 289.592H216.799C220.081 289.592 222.742 286.931 222.742 283.648V248.387C222.742 245.104 220.081 242.443 216.799 242.443Z" fill="#BA1C51"/>
<path d="M396.214 139.388C396.121 138.851 395.918 138.338 395.617 137.883C395.261 137.468 394.866 137.086 394.439 136.745C392.072 134.518 393.345 130.505 392.433 127.41C391.43 124.105 387.919 121.572 384.87 119.887C384.377 119.602 383.847 119.388 383.295 119.25C382.605 119.139 381.907 119.084 381.209 119.084C380.116 119.018 379.042 118.775 378.029 118.362C376.579 117.77 375.286 116.857 373.801 116.356C373.513 116.25 373.205 116.207 372.898 116.23C371.278 116.08 371.223 118.096 369.483 119.265C368.761 119.766 368.074 120.459 368.074 121.321C368.074 122.5 369.277 123.277 370.351 123.794C371.424 124.311 371.67 124.21 371.88 124.205H371.971C372.116 124.23 372.276 124.356 372.693 124.812C369.471 125.315 366.534 126.948 364.406 129.419C362.279 131.891 361.101 135.039 361.082 138.3C361.081 140.201 361.482 142.082 362.261 143.817C362.216 144.138 362.166 144.469 362.111 144.82C361.584 148.055 360.606 151.958 358.931 155.188C357.557 155.469 356.689 155.689 356.689 155.689C356.703 155.755 356.711 155.822 356.714 155.89L356.213 156.261L354.106 157.766C349.959 150.889 345.721 142.352 345.55 135.942C345.55 135.942 345.049 136.288 344.196 136.83V132.276L343.925 132.226L344.196 131.724L346.152 128.022C346.888 126.63 347.285 125.083 347.311 123.508C347.401 117.69 347.21 103.345 343.188 100.962C338.118 97.9528 337.105 110.964 334.401 117.63C332.395 122.6 333.398 129.803 334.01 133.138C334.055 133.364 334.095 133.57 334.135 133.76C332.486 134.382 330.883 135.118 329.336 135.962C330.404 136.384 331.202 139.729 331.643 142.137C331.688 142.392 331.733 142.638 331.773 142.864C330.753 143.185 329.712 143.439 328.659 143.626L337.375 162.646C335.515 164.803 331.633 168.58 328.659 166.624C324.601 163.955 312.109 165.289 312.109 165.289C312.109 165.289 304.967 146.325 305.308 140.647C305.308 140.647 304.932 140.838 304.305 141.149V135.977C304.073 136.134 303.83 136.273 303.578 136.394L303.843 135.922L304.23 135.235C304.966 133.933 305.404 132.484 305.513 130.992C305.935 125.158 306.552 110.181 301.938 108.31C296.19 105.978 294.5 122.64 294.5 122.64L295.724 137.728L295.749 138.064C293.02 138.305 290.779 138.305 290.779 138.305C291.466 138.982 291.686 142.718 291.782 145.061C291.782 145.302 291.782 145.522 291.782 145.728C290.388 145.969 289.194 145.989 288.417 145.638L297.544 170.3C297.544 170.3 298.221 176.319 310.052 178.967C317.008 180.537 321.858 181.977 324.677 182.92C319.852 194.356 303.111 235.585 308.021 245.617C308.021 245.617 310.649 244.614 313.337 243.731C313.959 252.378 315.037 265.474 316.346 273.866C314.917 278.285 313.839 281.991 313.488 284.113C313.458 284.289 313.433 284.454 313.412 284.615C312.409 292.615 304.285 307.948 316.457 320.944C316.457 320.944 324.907 325.96 325.584 331.943C326.151 336.989 335.083 349.569 337.912 353.451C335.65 357.338 329.271 367.59 323.553 370.274C316.457 373.609 322.199 378.274 328.96 377.296C335.72 376.318 358.048 360.297 358.048 360.297C358.048 360.297 357.893 349.825 355.776 349.062L353.745 344.869C354.872 344.694 355.976 344.391 357.035 343.966C366.163 340.3 378.671 333.634 378.671 333.634C378.671 333.634 378.917 325.804 375.371 322.935C373.555 317.332 365.15 312.302 365.15 312.302C365.15 312.302 359.056 296.627 344.181 292.284C344.181 292.284 341.779 288.898 341.869 285.021C342.847 283.145 343.509 281.951 343.509 281.951L351.202 263.694C353.194 261.918 354.887 259.833 356.218 257.519C356.331 257.312 356.442 257.103 356.549 256.892C361.188 257.439 364.824 257.986 364.824 257.986L364.488 241.986C361.423 208.972 370.892 199.306 370.892 199.306C370.892 199.306 384.433 182.975 385.767 171.308C387.016 160.539 377.898 159.998 376.489 159.978C376.22 158.381 376.28 156.746 376.665 155.173L376.825 155.288C377.111 155.522 377.46 155.667 377.828 155.704C377.902 155.711 377.976 155.711 378.049 155.704H378.169C378.502 155.689 378.824 155.589 379.107 155.413C382.643 153.558 385.396 150.202 389.278 149.234C390.091 149.033 390.938 148.943 391.736 148.682C392.628 148.367 393.446 147.87 394.137 147.223C394.827 146.575 395.376 145.791 395.748 144.92C396.476 143.17 396.64 141.236 396.214 139.388ZM346.563 315.943C347.24 318.275 358.058 326.275 358.058 326.275L358.474 329.15C355.701 331.777 352.783 334.247 349.733 336.548L345.886 328.608C345.886 328.608 340.139 310.275 335.068 308.279C334.13 307.908 333.83 306.774 333.96 305.184C337.255 307.597 346.002 314.072 346.548 315.958L346.563 315.943Z" fill="url(#paint1_linear)"/>
<path d="M326.397 180.848C326.397 180.848 303.407 234.055 308.989 245.551C308.989 245.551 318.187 241.94 319.521 242.597C320.855 243.254 333.97 173.951 333.97 173.951L326.397 180.848Z" fill="#575988"/>
<path opacity="0.05" d="M326.397 180.848C326.397 180.848 303.407 234.055 308.989 245.551C308.989 245.551 318.187 241.94 319.521 242.597C320.855 243.254 333.97 173.951 333.97 173.951L326.397 180.848Z" fill="black"/>
<path d="M338.875 350.325C338.875 350.325 330.991 365.107 324.095 368.382C317.199 371.657 322.781 376.267 329.351 375.279C335.921 374.291 357.597 358.526 357.597 358.526C357.597 358.526 357.447 348.209 355.385 347.456C353.324 346.704 338.875 350.325 338.875 350.325Z" fill="#575988"/>
<path d="M359.568 326.351C359.568 326.351 348.404 337.516 343.474 338.504C338.544 339.492 347.742 346.058 356.609 342.447C365.476 338.835 377.628 332.265 377.628 332.265C377.628 332.265 377.954 321.732 372.372 320.769C366.79 319.806 359.568 326.351 359.568 326.351Z" fill="#575988"/>
<path d="M313.588 235.038C313.588 235.038 315.885 275.109 318.844 280.681C321.803 286.254 332.967 303.343 332.967 303.343C332.967 303.343 345.776 312.542 346.433 314.839C347.09 317.136 357.597 325.021 357.597 325.021L358.254 329.62C358.254 329.62 375.662 328.617 374.674 322.724C373.686 316.83 364.493 311.228 364.493 311.228C364.493 311.228 358.58 295.789 344.131 291.521C344.131 291.521 339.532 284.95 343.474 279.698C343.474 279.698 353.329 255.066 358.911 252.112C364.493 249.157 356.609 232.094 356.609 232.094L313.588 235.038Z" fill="#67647E"/>
<path opacity="0.05" d="M313.588 235.038C313.588 235.038 315.885 275.109 318.844 280.681C321.803 286.254 332.967 303.343 332.967 303.343C332.967 303.343 345.776 312.542 346.433 314.839C347.09 317.136 357.597 325.021 357.597 325.021L358.254 329.62C358.254 329.62 375.662 328.617 374.674 322.724C373.686 316.83 364.493 311.228 364.493 311.228C364.493 311.228 358.58 295.789 344.131 291.521C344.131 291.521 339.532 284.95 343.474 279.698C343.474 279.698 353.329 255.066 358.911 252.112C364.493 249.157 356.609 232.094 356.609 232.094L313.588 235.038Z" fill="black"/>
<path d="M345.771 327.334L356.303 349.338C354.663 354.92 338.895 352.949 338.895 352.949C338.895 352.949 326.743 336.527 326.086 330.614C325.429 324.7 317.219 319.775 317.219 319.775C305.398 306.965 313.277 291.857 314.265 283.972C314.265 283.822 314.31 283.656 314.335 283.471C315.208 278.184 320.524 262.976 324.657 251.585C327.445 243.911 329.697 237.973 329.697 237.973C329.697 237.973 351.699 238.976 356.278 246.841C358.384 250.452 357.441 254.209 355.801 257.218C354.518 259.492 352.879 261.546 350.947 263.302L343.469 281.329C343.469 281.329 330.339 305.324 335.284 307.301C340.229 309.277 345.771 327.334 345.771 327.334Z" fill="#67647E"/>
<path d="M306.552 132.582C306.448 134.051 306.023 135.479 305.308 136.765L304.932 137.443L303.081 140.778H297.168L297.043 139.223L295.854 124.356C295.854 124.356 297.494 107.935 303.081 110.232C307.56 112.078 306.963 126.834 306.552 132.582Z" fill="#F7C4A7"/>
<path opacity="0.1" d="M304.932 137.438L303.081 140.773H297.168L297.043 139.218C299.796 138.977 303.071 138.476 304.932 137.438Z" fill="black"/>
<path d="M305.378 137.492V145.046L293.226 148.331C293.226 148.331 293.226 147.544 293.191 146.45C293.121 144.143 292.905 140.462 292.238 139.794C292.243 139.804 302.093 139.804 305.378 137.492Z" fill="#E6E6F0"/>
<path opacity="0.1" d="M305.378 141.922V145.047L293.226 148.332C293.226 148.332 293.226 147.545 293.191 146.451C297.238 145.744 303.081 143.04 305.378 141.922Z" fill="black"/>
<path d="M376.254 154.385C373.856 161.307 376.971 164.416 376.971 164.416C376.971 164.416 347.411 166.387 354.638 161.131C358.856 158.061 360.726 151.29 361.549 146.194C361.899 144.08 362.115 141.945 362.196 139.804C362.196 139.804 385.818 139.458 380.918 146.044C378.949 148.571 377.377 151.384 376.254 154.385Z" fill="#F7C4A7"/>
<path opacity="0.1" d="M380.923 146.029C378.516 149.269 377.728 149.746 376.911 152.083C376.172 152.208 375.423 152.27 374.674 152.268C369.042 152.268 363.56 151.11 361.549 146.199C361.899 144.083 362.115 141.948 362.196 139.804C362.196 139.804 385.813 139.443 380.923 146.029Z" fill="black"/>
<path d="M374.017 153.257C381.454 153.257 387.483 147.227 387.483 139.79C387.483 132.352 381.454 126.322 374.017 126.322C366.58 126.322 360.551 132.352 360.551 139.79C360.551 147.227 366.58 153.257 374.017 153.257Z" fill="#F7C4A7"/>
<path d="M306.361 142.088C306.361 142.088 293.552 148.659 289.941 147.013L298.808 171.32C298.808 171.32 299.465 177.233 310.96 179.847C322.455 182.46 328.037 184.772 328.037 184.772L349.382 159.483L338.544 162.437C338.544 162.437 332.962 170.322 329.015 167.693C325.068 165.065 312.931 166.389 312.931 166.389C312.931 166.389 306.035 147.675 306.361 142.088Z" fill="#575988"/>
<path opacity="0.05" d="M306.361 142.088C306.361 142.088 293.552 148.659 289.941 147.013L298.808 171.32C298.808 171.32 299.465 177.233 310.96 179.847C322.455 182.46 328.037 184.772 328.037 184.772L349.382 159.483L338.544 162.437C338.544 162.437 332.962 170.322 329.015 167.693C325.068 165.065 312.931 166.389 312.931 166.389C312.931 166.389 306.035 147.675 306.361 142.088Z" fill="black"/>
<path opacity="0.1" d="M356.283 157.595C356.283 157.595 373.646 152.629 375.471 161.853C375.471 161.853 367.447 157.941 355.952 164.862C355.089 165.364 354.247 165.931 353.444 166.508C343.329 173.595 336.262 184.564 333.424 197.023L326.086 229.175L325.429 237.817C325.429 237.817 314.897 239.893 312.951 236.778C311.005 233.664 312.294 223.291 315.248 219.835C318.202 216.379 322.786 201.498 322.786 201.498L325.66 192.87C328.066 185.614 331.889 178.909 336.909 173.143L337.601 172.306C341.927 167.114 347.413 163.011 353.615 160.328C355.295 159.601 356.514 158.683 356.283 157.595Z" fill="black"/>
<path d="M356.283 156.938C356.283 156.938 373.646 151.973 375.471 161.197C375.471 161.197 367.447 157.284 355.952 164.206C355.089 164.708 354.247 165.274 353.444 165.851C343.329 172.939 336.262 183.908 333.424 196.367L326.086 228.518L325.429 237.16C325.429 237.16 314.897 239.237 312.951 236.122C311.005 233.007 312.294 222.635 315.248 219.179C318.202 215.723 322.801 200.851 322.801 200.851L325.675 192.224C328.081 184.968 331.904 178.262 336.924 172.497L337.616 171.66C341.942 166.468 347.428 162.365 353.63 159.682C355.295 158.945 356.514 158.027 356.283 156.938Z" fill="#E6E6F0"/>
<path opacity="0.1" d="M312.62 223.146L312.766 228.804L317.365 225.85C317.365 225.85 325.554 196.041 331.322 187.915C331.999 186.957 332.325 185.528 332.962 185.287L356.443 162.626V157.359C356.443 157.359 344.457 166.227 343.469 167.892C343.048 168.59 336.753 172.03 332.937 177.422C329.538 182.387 326.52 187.601 323.909 193.021L316.025 210.757L312.62 223.146Z" fill="black"/>
<path d="M356.448 157.033V162.124L332.636 184.946C332.004 185.187 331.673 186.616 330.996 187.574C325.224 195.705 317.039 225.508 317.039 225.508L312.44 228.463L312.294 222.805L315.725 210.406L323.609 192.67C326.219 187.25 329.237 182.035 332.636 177.071C336.428 171.684 342.727 168.243 343.168 167.541C344.021 166.127 353.279 159.345 355.827 157.51L356.448 157.033Z" fill="#787C9C"/>
<path opacity="0.1" d="M369.533 125.495C368.495 124.993 367.321 124.216 367.321 123.057C367.321 122.209 367.988 121.507 368.69 121.051C370.566 119.772 370.421 117.459 372.577 118.182C374.022 118.683 375.28 119.581 376.685 120.163C377.668 120.57 378.712 120.81 379.774 120.875C380.446 120.875 381.117 120.929 381.78 121.036C382.308 121.174 382.815 121.385 383.285 121.663C386.279 123.338 388.502 126.114 389.484 129.402C390.376 132.452 390.286 136.063 392.583 138.255C392.998 138.591 393.381 138.965 393.727 139.373C394.021 139.83 394.217 140.342 394.303 140.878C394.717 142.699 394.559 144.602 393.852 146.33C393.492 147.186 392.958 147.958 392.284 148.596C391.61 149.235 390.81 149.725 389.935 150.037C389.158 150.293 388.34 150.378 387.548 150.579C383.776 151.532 381.103 154.842 377.663 156.668C377.388 156.84 377.074 156.938 376.75 156.954C376.396 156.914 376.061 156.771 375.787 156.542C374.458 155.594 373.365 154.12 373.4 152.485C373.507 151.463 373.805 150.472 374.277 149.56C374.997 147.854 375.548 146.082 375.922 144.269C376.041 143.852 376.053 143.412 375.958 142.99C375.707 142.192 374.824 141.821 374.212 141.254C373.049 140.176 372.908 138.34 373.34 136.81C373.771 135.28 374.674 133.931 375.346 132.492C375.577 132.059 375.712 131.582 375.742 131.092C375.742 129.171 373.144 128.128 372.051 126.859C370.626 125.124 371.564 126.498 369.533 125.495Z" fill="black"/>
<path d="M369.864 125.495C368.826 124.993 367.652 124.216 367.652 123.057C367.652 122.209 368.319 121.507 369.022 121.051C370.897 119.772 370.752 117.459 372.908 118.182C374.353 118.683 375.612 119.581 377.016 120.163C377.999 120.57 379.043 120.81 380.105 120.875C380.782 120.915 382.974 119.872 383.616 120.032C384.144 120.171 384.65 120.382 385.12 120.659C388.115 122.335 390.338 125.111 391.319 128.399C392.212 131.448 391.59 135.26 393.887 137.427C394.273 137.798 393.747 138.932 394.058 139.348C394.352 139.804 394.548 140.317 394.634 140.853C395.048 142.674 394.89 144.577 394.183 146.305C393.824 147.161 393.29 147.933 392.615 148.571C391.941 149.209 391.141 149.7 390.266 150.012C389.489 150.268 388.671 150.353 387.879 150.553C384.107 151.506 381.434 154.817 377.994 156.643C377.719 156.815 377.405 156.913 377.081 156.928C376.727 156.889 376.392 156.746 376.118 156.517C374.789 155.569 373.696 154.095 373.731 152.459C373.838 151.438 374.136 150.446 374.608 149.535C375.328 147.829 375.879 146.057 376.253 144.244C376.372 143.827 376.385 143.387 376.289 142.965C376.038 142.167 375.155 141.796 374.543 141.229C373.38 140.151 373.239 138.315 373.671 136.785C374.102 135.255 375.005 133.906 375.677 132.467C375.908 132.034 376.043 131.557 376.073 131.067C376.073 129.146 373.475 128.103 372.382 126.834C370.957 125.124 371.895 126.498 369.864 125.495Z" fill="#B96B6B"/>
<path opacity="0.1" d="M355.806 257.244C349.788 256.531 342.205 255.834 338.875 256.391C333.514 257.284 325.991 252.504 324.637 251.611C327.425 243.937 329.677 237.998 329.677 237.998C329.677 237.998 351.679 239.001 356.258 246.866C358.389 250.477 357.446 254.234 355.806 257.244Z" fill="black"/>
<path d="M384.529 172.308C383.215 183.804 370.08 199.895 370.08 199.895C370.08 199.895 360.882 209.425 363.841 241.937L364.167 257.701C364.167 257.701 344.788 254.747 338.88 255.73C332.972 256.713 324.431 250.805 324.431 250.805C324.431 250.805 321.141 193.976 335.284 182.164C337.02 179.475 338.909 176.887 340.941 174.415C344.733 169.825 349.889 164.654 354.713 163.38C355.334 163.212 355.972 163.115 356.614 163.089C356.614 163.089 371.394 154.878 375.336 161.118C375.331 161.143 385.838 160.812 384.529 172.308Z" fill="#575988"/>
<path opacity="0.1" d="M324.592 233.563C324.592 233.563 329.848 231.266 338.714 231.923C347.581 232.58 363.369 224.695 363.369 224.695" fill="black"/>
<path opacity="0.05" d="M334.116 306.83C334.116 306.83 334.442 307.833 330.174 309.127C325.906 310.421 324.592 311.756 324.592 311.756" fill="black"/>
<path d="M303.583 129.908H338.84C342.122 129.908 344.783 127.247 344.783 123.965V88.7037C344.783 85.4211 342.122 82.76 338.84 82.76H303.583C300.3 82.76 297.64 85.4211 297.64 88.7037V123.965C297.64 127.247 300.3 129.908 303.583 129.908Z" fill="#BA1C51"/>
<path d="M347.15 125.219C347.128 126.771 346.743 128.296 346.027 129.673L344.131 133.325L342.817 135.833L334.607 136.49C334.607 136.49 334.437 135.813 334.226 134.694C333.614 131.409 332.646 124.312 334.607 119.411C337.235 112.84 338.218 100.03 343.133 102.989C347.055 105.347 347.24 119.486 347.15 125.219Z" fill="#F7C4A7"/>
<path opacity="0.1" d="M344.131 133.219V133.319L342.817 135.827L334.607 136.484C334.607 136.484 334.437 135.807 334.226 134.688C337.165 133.57 341.017 132.526 344.131 133.219Z" fill="black"/>
<path d="M344.131 133.875V139.804L332.31 146.043C332.31 146.043 332.175 144.975 331.924 143.591C331.493 141.218 330.72 137.918 329.682 137.506C329.682 137.491 338.218 132.561 344.131 133.875Z" fill="#E6E6F0"/>
<path opacity="0.05" d="M376.108 187.565C374.668 188.834 372.981 189.791 371.153 190.376C369.325 190.962 367.395 191.162 365.486 190.966C344.693 188.854 344.131 181.506 344.131 181.506L340.941 174.414C344.733 169.824 349.889 164.653 354.713 163.379C358.159 168.931 361.233 172.939 361.233 172.939C361.233 172.939 376.67 161.117 381.269 172.282C383.932 178.807 379.92 184.199 376.108 187.565Z" fill="black"/>
<path opacity="0.1" d="M344.131 137.496V139.803L332.31 146.043C332.31 146.043 332.175 144.975 331.924 143.59C337.019 141.94 342.06 138.845 344.131 137.496Z" fill="black"/>
<path d="M345.445 137.492C345.445 137.492 336.578 143.732 329.025 145.046L344.462 179.203C344.462 179.203 345.029 186.551 365.817 188.663C367.726 188.859 369.654 188.658 371.481 188.072C373.308 187.487 374.994 186.53 376.434 185.262C380.246 181.897 384.248 176.505 381.57 170.004C376.971 158.839 361.534 170.661 361.534 170.661C361.534 170.661 345.771 149.971 345.445 137.492Z" fill="#575988"/>
<path d="M473.454 358.301H397.894C397.155 358.301 396.555 358.9 396.555 359.64V363.984C396.555 364.723 397.155 365.323 397.894 365.323H473.454C474.194 365.323 474.793 364.723 474.793 363.984V359.64C474.793 358.9 474.194 358.301 473.454 358.301Z" fill="#BA1C51"/>
<path d="M464.928 351.279H389.368C388.629 351.279 388.029 351.879 388.029 352.619V356.962C388.029 357.702 388.629 358.301 389.368 358.301H464.928C465.668 358.301 466.267 357.702 466.267 356.962V352.619C466.267 351.879 465.668 351.279 464.928 351.279Z" fill="#BA1C51"/>
<path opacity="0.05" d="M464.928 351.279H389.368C388.629 351.279 388.029 351.879 388.029 352.619V356.962C388.029 357.702 388.629 358.301 389.368 358.301H464.928C465.668 358.301 466.267 357.702 466.267 356.962V352.619C466.267 351.879 465.668 351.279 464.928 351.279Z" fill="black"/>
</g>
<defs>
<linearGradient id="paint0_linear" x1="199.165" y1="365.509" x2="199.165" y2="0" gradientUnits="userSpaceOnUse">
<stop stop-color="#808080" stop-opacity="0.25"/>
<stop offset="0.54" stop-color="#808080" stop-opacity="0.12"/>
<stop offset="1" stop-color="#808080" stop-opacity="0.1"/>
</linearGradient>
<linearGradient id="paint1_linear" x1="86952.8" y1="221560" x2="86952.8" y2="68696.8" gradientUnits="userSpaceOnUse">
<stop stop-color="#808080" stop-opacity="0.25"/>
<stop offset="0.54" stop-color="#808080" stop-opacity="0.12"/>
<stop offset="1" stop-color="#808080" stop-opacity="0.1"/>
</linearGradient>
<clipPath id="clip0">
<rect width="482" height="404" fill="white"/>
</clipPath>
</defs>
</svg>
