<svg width="241" height="158" viewBox="0 0 241 158" fill="none" xmlns="http://www.w3.org/2000/svg">
<g clip-path="url(#clip0)">
<path opacity="0.1" d="M124.63 29.2055C109.473 31.7706 94.3367 30.671 79.7763 29.0715C65.216 27.472 50.6917 25.3833 35.5282 26.0129C25.7738 26.417 14.9108 28.3526 8.1 33.9784C1.54401 39.3894 0.522488 46.6913 0.509746 53.2828C0.492756 58.2407 0.921752 63.371 4.43018 67.3207C6.86823 70.0603 10.6209 72.0235 13.4476 74.5524C23.2826 83.3368 20.2924 97.1685 13.8384 108.928C10.8099 114.446 7.10609 119.872 5.04394 125.519C2.98178 131.166 2.70782 137.217 6.39889 141.822C10.056 146.389 17.1302 148.962 24.5059 150.296C39.4868 153.006 56.1773 151.323 72.3263 149.043C108.067 143.979 143.438 136.083 178.732 128.207C191.791 125.291 204.907 122.362 217.488 118.16C224.475 115.82 231.59 112.908 236.103 108.375C241.837 102.633 241.981 94.7778 236.456 90.0835C227.183 82.2138 206.196 83.96 199.025 74.9629C195.079 70.0092 196.797 63.2816 199.938 57.3389C206.672 44.5941 219.689 32.0024 218.002 19.2959C216.839 10.5754 207.959 3.35857 196.058 1.47833C183.583 -0.491244 167.561 3.24371 160.379 12.0196C152.995 21.0613 138.014 26.9339 124.63 29.2055Z" fill="#BA1C51"/>
<path d="M137.148 77.3809H76.9546V91.3401H137.148V77.3809Z" fill="#565661"/>
<path opacity="0.1" d="M137.148 77.3809H76.9546V91.3401H137.148V77.3809Z" fill="black"/>
<path d="M84.1561 91.7988L84.5787 129.065L78.7894 143.703L78.3413 91.7988H84.1561Z" fill="#BCBEC9"/>
<path d="M77.5898 80.0605L136.195 80.4136V90.8102H77.5898V80.0605Z" fill="#565661"/>
<path d="M131.18 91.7988L136.194 92.5071V143.137L131.18 127.651V91.7988Z" fill="#BCBEC9"/>
<path d="M166.343 77.9395H138.1V138.048H166.343V77.9395Z" fill="#EFEFF0"/>
<path d="M164.084 79.6074H140.359V125.812H164.084V79.6074Z" fill="#565661"/>
<path opacity="0.1" d="M164.084 79.6074H140.359V125.812H164.084V79.6074Z" fill="black"/>
<path d="M164.084 80.5547H140.359V90.8088H164.084V80.5547Z" fill="#565661"/>
<path d="M164.084 91.7988H140.359V113.579H164.084V91.7988Z" fill="#565661"/>
<path d="M164.084 114.922H140.359V136.702H164.084V114.922Z" fill="#565661"/>
<path opacity="0.1" d="M164.084 114.922H140.359V136.702H164.084V114.922Z" fill="black"/>
<path d="M141.349 141.961C142.193 141.961 142.878 141.084 142.878 140.004C142.878 138.923 142.193 138.047 141.349 138.047C140.504 138.047 139.82 138.923 139.82 140.004C139.82 141.084 140.504 141.961 141.349 141.961Z" fill="#565661"/>
<path d="M162.554 142.054C163.399 142.054 164.084 141.178 164.084 140.097C164.084 139.017 163.399 138.141 162.554 138.141C161.71 138.141 161.025 139.017 161.025 140.097C161.025 141.178 161.71 142.054 162.554 142.054Z" fill="#565661"/>
<path d="M76.7423 143.704H78.7896L78.2268 78.4609H75.1177L76.7423 143.704Z" fill="#EFEFF0"/>
<path d="M136.194 77.9395V143.137H138.099V78.4606L136.194 77.9395Z" fill="#EFEFF0"/>
<path d="M78.3267 90.1719V92.5073H136.194V90.81L78.3267 90.1719Z" fill="#EFEFF0"/>
<path d="M82.2492 73.5547H155.612L166.273 77.0897V79.1401L74.7651 78.434V76.3474L82.2492 73.5547Z" fill="white"/>
<path d="M74.7651 76.3477L166.273 77.09V79.1404L74.7651 78.4342V76.3477Z" fill="#BCBEC9"/>
<path d="M83.0541 100.665L82.6294 100.601C82.6294 100.582 82.6294 100.565 82.6294 100.548C82.6166 100.448 82.6018 100.35 82.5869 100.25C82.7611 100.388 82.9267 100.526 83.0796 100.665H83.0541Z" fill="url(#paint0_linear)"/>
<path d="M73.8245 133.506C74.1006 133.442 74.381 133.389 74.6613 133.351C76.5866 133.076 78.5501 133.366 80.3147 134.185C80.1363 135.499 79.96 136.858 80.3381 138.128C80.6014 139.021 81.1302 139.83 81.2428 140.761C81.5264 140.81 81.7908 140.937 82.0065 141.128C82.2222 141.319 82.3806 141.566 82.4639 141.842C82.5454 142.086 82.5863 142.342 82.585 142.599C82.5826 142.917 82.5427 143.234 82.466 143.543C82.4402 143.79 82.3193 144.017 82.1289 144.176C81.9385 144.335 81.6937 144.413 81.4466 144.394C79.8029 144.581 78.1909 143.933 76.6618 143.297L73.6886 142.059C73.3403 141.914 72.9899 141.767 72.6565 141.589C72.024 141.247 71.4626 140.787 71.0021 140.234C70.9047 140.135 70.8364 140.012 70.8046 139.877C70.7494 139.502 71.1868 139.279 71.465 139.026C71.5465 138.949 71.6179 138.861 71.6774 138.766C72.0066 138.269 72.0385 137.582 72.236 136.994C72.7032 135.601 74.1473 134.704 74.657 133.345C74.6846 133.27 74.7101 133.196 74.7314 133.119" fill="#A26565"/>
<path opacity="0.1" d="M82.585 142.6C82.5826 142.919 82.5427 143.236 82.4661 143.545C82.4402 143.792 82.3193 144.019 82.1289 144.178C81.9385 144.336 81.6937 144.415 81.4467 144.396C79.8029 144.583 78.191 143.934 76.6619 143.298L73.6886 142.06C73.3403 141.915 72.9899 141.769 72.6565 141.59C72.024 141.248 71.4626 140.788 71.0021 140.235C70.9047 140.137 70.8364 140.013 70.8046 139.878C70.7494 139.504 71.1868 139.28 71.465 139.027C71.5465 138.95 71.6179 138.863 71.6774 138.768C72.4972 138.944 73.5145 139.461 74.141 139.661C74.7685 139.832 75.3711 140.084 75.9334 140.412C76.7149 140.914 77.2777 141.688 77.9404 142.326C78.603 142.964 79.4588 143.545 80.3827 143.466C80.8711 143.392 81.3419 143.229 81.7716 142.985L82.585 142.6Z" fill="black"/>
<path d="M79.104 112.373C79.1592 112.566 79.1543 112.771 79.0897 112.961C79.0252 113.152 78.9042 113.317 78.743 113.437C78.4648 113.609 78.1058 113.585 77.8298 113.773C77.4878 114.013 77.439 114.489 77.3795 114.902C77.1672 116.321 76.4642 117.608 75.8632 118.911C75.2622 120.215 74.7546 121.638 74.9755 123.055C75.1262 124.016 75.5977 125.041 75.156 125.907C75.0477 126.12 74.8863 126.309 74.7631 126.515C74.1578 127.528 74.5019 128.81 74.4785 129.989C74.4873 130.119 74.4586 130.25 74.3957 130.365C74.3028 130.474 74.1886 130.562 74.0601 130.625C73.8445 130.783 73.6674 130.989 73.542 131.226C73.4166 131.462 73.3462 131.724 73.3359 131.992C73.318 132.528 73.3825 133.063 73.5271 133.579C73.5505 133.787 73.6423 133.982 73.7883 134.132C73.9574 134.244 74.157 134.3 74.3596 134.294C75.6938 134.402 77.0026 134.721 78.2375 135.238C79.0424 135.574 79.824 135.995 80.6798 136.157C80.7626 136.183 80.8497 136.191 80.9359 136.182C81.0221 136.173 81.1055 136.146 81.181 136.104C81.2886 136.006 81.3629 135.878 81.3934 135.736C81.7226 134.651 82.056 133.532 81.9435 132.405C81.8946 131.92 81.7651 131.446 81.7311 130.961C81.5824 129.046 82.8758 127.319 83.2857 125.431C83.4704 124.58 83.4704 123.699 83.6021 122.84C83.9589 120.485 85.2544 118.373 85.7534 116.044C85.8229 115.61 85.9309 115.183 86.0763 114.768C86.4479 113.866 87.308 113.135 87.3271 112.158C87.3389 111.943 87.2824 111.731 87.1657 111.55C86.9655 111.33 86.6995 111.181 86.4076 111.125C85.2538 110.807 84.0794 110.569 82.8928 110.414C82.3489 110.307 81.7939 110.269 81.2405 110.299C80.5219 110.384 79.8311 110.628 79.2187 111.014C78.3989 111.52 78.9256 111.641 79.104 112.373Z" fill="#454B69"/>
<path opacity="0.05" d="M79.104 112.373C79.1592 112.566 79.1543 112.771 79.0897 112.961C79.0252 113.152 78.9042 113.317 78.743 113.437C78.4648 113.609 78.1058 113.585 77.8298 113.773C77.4878 114.013 77.439 114.489 77.3795 114.902C77.1672 116.321 76.4642 117.608 75.8632 118.911C75.2622 120.215 74.7546 121.638 74.9755 123.055C75.1262 124.016 75.5977 125.041 75.156 125.907C75.0477 126.12 74.8863 126.309 74.7631 126.515C74.1578 127.528 74.5019 128.81 74.4785 129.989C74.4873 130.119 74.4586 130.25 74.3957 130.365C74.3028 130.474 74.1886 130.562 74.0601 130.625C73.8445 130.783 73.6674 130.989 73.542 131.226C73.4166 131.462 73.3462 131.724 73.3359 131.992C73.318 132.528 73.3825 133.063 73.5271 133.579C73.5505 133.787 73.6423 133.982 73.7883 134.132C73.9574 134.244 74.157 134.3 74.3596 134.294C75.6938 134.402 77.0026 134.721 78.2375 135.238C79.0424 135.574 79.824 135.995 80.6798 136.157C80.7626 136.183 80.8497 136.191 80.9359 136.182C81.0221 136.173 81.1055 136.146 81.181 136.104C81.2886 136.006 81.3629 135.878 81.3934 135.736C81.7226 134.651 82.056 133.532 81.9435 132.405C81.8946 131.92 81.7651 131.446 81.7311 130.961C81.5824 129.046 82.8758 127.319 83.2857 125.431C83.4704 124.58 83.4704 123.699 83.6021 122.84C83.9589 120.485 85.2544 118.373 85.7534 116.044C85.8229 115.61 85.9309 115.183 86.0763 114.768C86.4479 113.866 87.308 113.135 87.3271 112.158C87.3389 111.943 87.2824 111.731 87.1657 111.55C86.9655 111.33 86.6995 111.181 86.4076 111.125C85.2538 110.807 84.0794 110.569 82.8928 110.414C82.3489 110.307 81.7939 110.269 81.2405 110.299C80.5219 110.384 79.8311 110.628 79.2187 111.014C78.3989 111.52 78.9256 111.641 79.104 112.373Z" fill="black"/>
<path d="M74.9481 144.428H73.1365L71.9515 120.044L71.8687 118.658L73.4084 118.115L73.5124 119.589L74.9481 144.428Z" fill="#565661"/>
<path opacity="0.1" d="M73.5124 119.589L71.9515 120.044L71.8687 118.658L73.4084 118.115L73.5124 119.589Z" fill="black"/>
<path d="M97.6785 149.585L94.6904 149.947L80.9243 118.657L77.212 118.385L70.6922 120.291L69.4243 157.544H66.4362L67.6127 118.929L60.4578 119.112L47.6899 150.944H44.9736L58.4021 113.742L58.9202 112.308L78.9323 111.621L83.9209 114.422L83.9847 114.584L97.6785 149.585Z" fill="#565661"/>
<path opacity="0.1" d="M83.9845 114.584C79.6839 115.881 75.2198 117.298 75.2198 117.298C75.2198 117.298 71.1486 118.721 69.4241 117.298C69.2066 117.128 68.9636 116.994 68.7041 116.9C68.9279 117.06 69.1695 117.194 69.4241 117.298L58.4019 113.74L58.9179 112.308L78.9321 111.621L83.9208 114.422L83.9845 114.584Z" fill="black"/>
<path d="M63.6284 108.41L71.7772 106.596C71.7772 106.596 91.2477 110.224 92.6961 111.675C92.6961 111.675 77.1205 114.848 75.4003 115.929C73.6801 117.009 63.4457 118.205 63.6284 108.41Z" fill="white"/>
<path d="M60.1239 88.0149C59.4868 90.0377 57.7475 91.8605 55.6301 91.9477C55.476 91.9658 55.3201 91.9376 55.182 91.8669C54.9165 91.701 54.9102 91.3117 55.0185 91.0161C55.1268 90.7204 55.3158 90.4546 55.3455 90.144C55.3519 90.0807 55.3475 90.0167 55.3328 89.9547C55.2776 89.7016 55.0716 89.4762 54.8294 89.5293C54.9943 89.3972 55.1041 89.2083 55.1375 88.9995C55.1709 88.7907 55.1254 88.577 55.01 88.3999C54.9139 88.2912 54.8272 88.1745 54.7509 88.0511C54.5746 87.6895 54.8486 87.2833 54.9632 86.8962C55.199 86.0454 54.6001 85.1946 54.5512 84.3076C54.5088 83.5143 54.9101 82.7677 55.01 81.9807C55.1692 80.7046 54.5364 79.4815 54.462 78.2075C54.4111 77.3184 54.6298 76.4379 54.874 75.5807C55.0864 74.815 55.3264 74.0408 55.3413 73.241C55.3413 72.6604 55.2415 72.0861 55.2138 71.5076C55.1698 70.9787 55.2657 70.4475 55.4921 69.9676C55.6391 69.6855 55.8895 69.4713 56.1908 69.37C56.8874 69.136 57.344 69.4997 57.4459 70.1612C57.6158 71.2863 57.5181 72.4349 57.7411 73.5643C57.9473 74.6205 58.2596 75.6531 58.6734 76.6463C59.0493 77.5439 59.5059 78.4117 59.7948 79.3412C60.0122 80.1073 60.1677 80.8897 60.2599 81.6808C60.5444 83.8057 60.7674 85.9922 60.1239 88.0149Z" fill="#BA1C51"/>
<path d="M108.495 139.496C108.226 139.875 107.88 140.194 107.48 140.43C107.08 140.666 106.635 140.814 106.173 140.866C105.252 140.981 104.294 140.749 103.4 141.002C103.261 141.025 103.131 141.082 103.019 141.167C102.908 141.253 102.82 141.365 102.763 141.493C102.74 141.666 102.727 141.84 102.722 142.014C102.618 142.582 101.873 142.71 101.293 142.706L98.9016 142.691C98.4046 142.691 97.8546 142.663 97.4978 142.319C97.3281 142.13 97.2325 141.887 97.2286 141.633C97.2247 141.38 97.3128 141.134 97.4765 140.94C97.5507 140.852 97.6417 140.78 97.7441 140.728C97.5948 140.678 97.4621 140.588 97.3609 140.468C97.2597 140.347 97.1938 140.201 97.1707 140.045C97.1272 139.732 97.1424 139.414 97.2153 139.107C97.2153 138.218 97.4277 136.729 98.0521 136.033C98.8187 135.168 100.148 134.049 101.306 133.817C101.696 133.742 102.099 133.76 102.482 133.869C102.865 133.978 103.217 134.175 103.51 134.445C104.058 134.955 104.457 135.755 105.209 135.844C105.619 135.895 106.014 135.702 106.42 135.631C106.881 135.572 107.349 135.657 107.76 135.874C108.171 136.092 108.505 136.431 108.715 136.846C108.818 137.056 108.89 137.281 108.928 137.512C109.04 138.204 108.885 138.914 108.495 139.496Z" fill="#A26565"/>
<path opacity="0.1" d="M108.495 139.496C108.226 139.875 107.88 140.193 107.48 140.429C107.08 140.665 106.635 140.814 106.173 140.866C105.252 140.981 104.294 140.749 103.4 141.002C103.261 141.025 103.131 141.082 103.019 141.167C102.908 141.253 102.82 141.365 102.763 141.493C102.74 141.666 102.727 141.84 102.722 142.014C102.618 142.582 101.873 142.71 101.293 142.706L98.9017 142.691C98.4047 142.691 97.8546 142.663 97.4979 142.318C97.3282 142.13 97.2325 141.887 97.2286 141.633C97.2247 141.38 97.3129 141.134 97.4766 140.94C98.8571 140.883 100.214 140.94 101.59 140.655C102.149 140.542 102.699 140.394 103.264 140.315C104.487 140.14 105.789 140.289 106.912 139.77C107.849 139.345 108.52 138.479 108.917 137.514C109.032 138.204 108.881 138.913 108.495 139.496Z" fill="black"/>
<path d="M102.185 136.133C101.335 136.792 100.339 137.307 99.2689 137.362C98.1985 137.418 97.0623 136.937 96.5378 136.005C95.7711 134.638 96.4507 132.736 95.512 131.481C95.2189 131.088 94.7963 130.809 94.4862 130.428C94.1762 130.048 93.9978 129.476 94.2739 129.071C93.9404 129.199 93.5879 128.876 93.4902 128.531C93.3925 128.187 93.4541 127.817 93.3946 127.468C93.2396 126.543 92.3328 125.949 91.8974 125.128C91.462 124.307 91.5215 123.241 91.4726 122.269C91.3641 119.901 90.4839 117.634 88.9666 115.814C88.6778 115.47 88.3083 115.119 87.858 115.136C87.9366 114.357 87.4184 113.613 86.7473 113.221C86.0762 112.83 85.2777 112.698 84.5004 112.622C76.6574 111.847 68.4852 114.768 60.9969 112.311C58.9135 111.628 56.9044 110.486 55.6302 108.695C55.1338 108.014 54.7787 107.239 54.5858 106.418C54.3928 105.597 54.366 104.745 54.5067 103.914V103.884C54.8019 102.374 55.5983 102.002 56.9172 101.312C58.4397 100.506 60.031 99.8379 61.6723 99.3152C64.8579 98.3176 68.2877 97.9582 71.5753 98.6899C73.1107 99.0344 74.591 99.6045 76.1286 99.9384C76.7339 100.07 77.3434 100.164 77.9571 100.243C78.9107 100.362 79.8685 100.44 80.8284 100.551C83.8978 100.905 86.9207 101.586 89.8459 102.582C90.9353 102.952 92.0248 103.376 92.9614 104.046C93.7022 104.584 94.3286 105.265 94.804 106.049C95.2795 106.833 95.5945 107.703 95.7307 108.61C95.8199 109.235 95.8221 109.886 95.958 110.492C96.0868 111.002 96.2573 111.5 96.4677 111.981C98.2823 116.475 99.7652 121.096 100.904 125.807C100.969 126.157 101.088 126.494 101.259 126.806C101.531 127.247 101.998 127.542 102.272 127.982C102.909 129.02 102.295 130.469 102.86 131.549C103.056 131.924 103.38 132.219 103.576 132.594C104.213 133.821 103.272 135.289 102.185 136.133Z" fill="#454B69"/>
<path opacity="0.1" d="M91.3326 111.695C91.6345 111.455 91.895 111.168 92.1035 110.844C92.3128 110.518 92.3959 110.127 92.3371 109.744C92.42 110.228 92.3884 110.725 92.2449 111.195C92.1014 111.665 91.8501 112.095 91.511 112.45C90.9779 112.996 89.9777 113.532 89.1982 113.345C89.3087 112.72 90.8378 112.116 91.3326 111.695Z" fill="black"/>
<path opacity="0.1" d="M78.0634 101.093C77.9993 101.321 77.8795 101.53 77.7149 101.7C77.5503 101.87 77.346 101.996 77.1204 102.067C76.6676 102.206 76.1934 102.262 75.7209 102.231H75.2961C69.7234 102.108 64.0913 100.87 58.6481 102.05C57.9921 102.186 57.3485 102.376 56.724 102.618C55.9284 102.932 55.1834 103.362 54.5132 103.895V103.865C54.8084 102.355 55.6048 101.982 56.9236 101.293C58.4448 100.494 60.0339 99.8321 61.6723 99.3152C64.8579 98.3176 68.2878 97.9582 71.5753 98.6899C73.1108 99.0344 74.5911 99.6045 76.1286 99.9384C76.7339 100.07 77.3434 100.164 77.9572 100.243C78.0762 100.509 78.1132 100.805 78.0634 101.093Z" fill="black"/>
<path d="M78.0632 100.789C77.9996 101.017 77.8801 101.226 77.7154 101.397C77.5507 101.567 77.3462 101.694 77.1203 101.765C76.6675 101.904 76.1932 101.959 75.7208 101.927H75.296C69.7233 101.803 64.0912 100.565 58.648 101.746C57.9923 101.882 57.3488 102.071 56.7239 102.312C55.8907 102.644 55.1135 103.104 54.4196 103.673C54.2568 103.225 54.0947 102.776 53.9333 102.327C53.7379 101.791 54.358 101.671 54.477 101.191C54.5555 100.865 54.4218 100.495 54.3538 100.149C54.3364 100.064 54.325 99.9777 54.3198 99.8912C54.2816 99.1233 54.5555 98.6809 55.1842 98.2662C57.0488 97.0325 59.3233 96.186 61.4513 95.55C62.5826 95.1918 63.7513 94.9649 64.9343 94.8737C66.6078 94.7758 68.2792 95.0864 69.9081 95.4798C71.9108 95.9754 73.8922 96.6305 75.6677 97.6791C76.5384 98.1875 77.3879 98.8256 77.8572 99.7317C78.0445 100.05 78.1173 100.423 78.0632 100.789Z" fill="#A26565"/>
<path opacity="0.1" d="M60.124 88.0137C59.4868 90.0365 57.7475 91.8593 55.6301 91.9465C55.4761 91.9646 55.3201 91.9364 55.182 91.8657C54.9166 91.6998 54.9102 91.3105 55.0185 91.0149C55.1268 90.7192 55.3158 90.4534 55.3456 90.1428C55.3519 90.0795 55.3476 90.0155 55.3328 89.9535C56.4563 88.3668 57.5458 86.7631 57.9769 84.885C58.0641 84.5616 58.0908 84.2248 58.0555 83.8917C57.9981 83.5088 57.8049 83.1621 57.6987 82.792C57.5118 82.1369 57.5988 81.4435 57.6519 80.765C57.8731 77.7773 57.3749 74.7801 56.1993 72.0253C55.9126 71.3617 55.5855 70.6896 55.4857 69.9813C55.6328 69.6991 55.8832 69.4849 56.1844 69.3836C56.881 69.1497 57.3376 69.5134 57.4396 70.1749C57.6095 71.3 57.5118 72.4486 57.7348 73.578C57.9409 74.6342 58.2533 75.6668 58.6671 76.66C59.043 77.5576 59.4996 78.4254 59.7884 79.3548C60.0059 80.121 60.1614 80.9034 60.2535 81.6945C60.5445 83.8045 60.7675 85.991 60.124 88.0137Z" fill="black"/>
<path opacity="0.1" d="M78.0633 100.789C77.9997 101.018 77.8801 101.227 77.7155 101.397C77.5508 101.568 77.3463 101.694 77.1204 101.766C76.6676 101.905 76.1933 101.959 75.7208 101.927H75.2961C73.482 100.721 71.3012 100.193 69.1372 100.438C68.4449 100.521 67.7526 100.683 67.0602 100.619C65.6607 100.492 64.5266 99.4835 63.28 98.839C61.8614 98.1375 60.2659 97.8765 58.6981 98.0895C57.1304 98.3025 55.662 98.9797 54.4813 100.034L54.3602 100.141C54.3428 100.056 54.3314 99.9698 54.3263 99.8833C54.288 99.1155 54.562 98.6731 55.1906 98.2584C57.0553 97.0247 59.3298 96.1782 61.4578 95.5422C62.5891 95.184 63.7577 94.9571 64.9407 94.8658C66.6142 94.768 68.2856 95.0785 69.9145 95.472C71.9172 95.9676 73.8987 96.6227 75.6741 97.6713C76.5385 98.1882 77.388 98.8263 77.8573 99.7323C78.0446 100.051 78.1173 100.424 78.0633 100.789Z" fill="black"/>
<path d="M82.8269 77.49L82.7972 77.5666C82.3214 78.8024 81.4465 79.8467 80.8858 81.0506C80.1786 82.5756 80.0044 84.2857 79.8473 85.9617C79.7114 87.3974 79.5776 88.8417 79.6859 90.2816C79.9577 93.8294 81.6886 97.1943 82.1515 100.674C82.2656 101.478 82.2948 102.291 82.2386 103.101C82.2004 103.613 82.1069 104.164 81.7672 104.543C81.4274 104.922 80.7669 105.07 80.4016 104.707C80.5651 104.394 80.7308 104.084 80.8964 103.771C79.9259 103.016 78.4647 103.558 77.3307 103.086C76.8316 102.873 76.4323 102.49 76.0139 102.148C75.0591 101.37 73.9587 100.792 72.7774 100.446C71.5961 100.101 70.3577 99.9953 69.1351 100.136C68.4428 100.221 67.7504 100.383 67.0581 100.319C65.6586 100.189 64.5245 99.183 63.2778 98.5385C61.8593 97.8373 60.2641 97.5762 58.6965 97.7888C57.1289 98.0014 55.6604 98.678 54.4792 99.7317C54.1819 100.008 53.7826 100.332 53.4173 100.157C53.2761 100.071 53.1621 99.946 53.0881 99.7977C51.6971 97.4176 52.7207 94.3484 54.2073 92.03C55.694 89.7116 57.6627 87.574 58.2743 84.8876C58.3626 84.5644 58.3893 84.2274 58.3529 83.8943C58.2955 83.5115 58.1023 83.1648 57.9961 82.7947C57.8092 82.1396 57.8963 81.4462 57.9494 80.7677C58.1722 77.7796 57.6755 74.7817 56.501 72.0258C56.1612 71.2325 55.7577 70.4285 55.7577 69.5671C55.7577 68.2101 56.7282 67.0849 57.531 65.9938C58.4548 64.7388 59.23 63.3499 60.4002 62.3183C61.5088 61.3378 63.1143 60.738 64.4863 61.2357C66.8175 60.6689 69.2169 60.4348 71.6135 60.5402C72.4418 60.5785 73.2977 60.6657 74.024 61.0677C74.8013 61.4931 75.3598 62.2503 76.1244 62.7033C76.6829 63.0373 77.3264 63.1947 77.9338 63.4286C79.611 64.0847 80.9955 65.3248 81.833 66.9211C82.6825 68.5695 82.8949 70.4646 83.0817 72.3109C83.2601 74.0486 83.43 75.8544 82.8269 77.49Z" fill="#BA1C51"/>
<path opacity="0.1" d="M79.6861 90.282C79.9579 93.8297 81.6888 97.1946 82.1518 100.674C81.2258 99.8895 79.9367 99.1004 79.7647 98.1879C79.5735 97.201 78.9619 95.9078 78.8599 94.9102C78.758 93.9127 79.4567 92.6939 78.724 92.0091C78.3672 91.6751 79.3166 91.7687 78.9683 91.4263C78.1846 90.6627 77.9913 89.4865 77.9425 88.3953C77.8597 86.464 78.1039 84.5115 77.7492 82.6121C77.5369 81.4401 77.093 80.3235 76.7383 79.1856C76.3263 77.8605 76.029 76.5035 75.7317 75.1443C75.439 73.936 75.2262 72.7096 75.0945 71.4732C75.0032 70.4097 75.0457 69.2824 75.5193 68.3125C75.9929 67.3426 76.9507 66.5556 78.0253 66.5705C81.6187 66.6173 80.9986 71.4966 81.7886 73.7512C82.105 74.6487 82.5319 75.5165 82.7039 76.4524C82.7667 76.8193 82.8008 77.1905 82.8059 77.5627C82.3302 78.7985 81.4552 79.8428 80.8945 81.0467C80.1873 82.5717 80.0131 84.2818 79.856 85.9578C79.7116 87.3978 79.5778 88.842 79.6861 90.282Z" fill="black"/>
<path d="M82.0219 73.696C82.3384 74.5936 82.7653 75.4614 82.9373 76.3973C83.224 77.9649 82.7801 79.6303 83.2622 81.1489C83.3877 81.4731 83.4927 81.8049 83.5765 82.1422C83.6594 82.6251 83.5638 83.1185 83.5638 83.6098C83.5638 84.4011 83.8123 85.1668 84.0331 85.9261C84.7801 88.5065 85.2744 91.1536 85.5091 93.8299C85.5442 94.5491 85.6574 95.2623 85.8468 95.9569C85.936 96.1923 86.0126 96.4323 86.0762 96.6758C86.1332 97.0008 86.1468 97.332 86.1165 97.6606C86.0592 98.7028 85.9424 99.7493 86.0592 100.787C86.176 101.825 86.554 102.878 87.3334 103.574C86.6368 103.725 85.8999 103.876 85.2203 103.652C84.2646 103.34 83.6912 102.376 83.2049 101.5C82.589 100.381 80.2486 99.3728 80.0065 98.1158C79.8175 97.131 79.2059 95.8378 79.1039 94.8381C79.002 93.8384 79.6986 92.6239 78.9659 91.9391C78.6112 91.6051 79.5605 91.6966 79.2101 91.3563C78.4286 90.5927 78.2353 89.4165 78.1865 88.3232C78.1036 86.394 78.3457 84.4415 77.9932 82.5421C77.7808 81.3701 77.337 80.2535 76.9823 79.1134C76.5703 77.7905 76.273 76.4334 75.9756 75.0722C75.6822 73.864 75.4693 72.6376 75.3385 71.401C75.2472 70.3376 75.2876 69.2081 75.7633 68.2382C76.239 67.2683 77.1968 66.4835 78.2693 66.4962C81.8478 66.5601 81.2319 71.4415 82.0219 73.696Z" fill="#BA1C51"/>
<path opacity="0.1" d="M71.7814 74.5282C72.1169 74.9216 72.548 75.3534 73.0556 75.2768C73.0171 75.338 72.9561 75.3816 72.8858 75.3983C72.8156 75.415 72.7416 75.4035 72.6797 75.3662C72.5579 75.2853 72.4602 75.1728 72.3972 75.0408L71.6709 73.8135C71.5753 73.654 70.917 72.7245 70.7556 73.2605C70.6919 73.4881 71.6178 74.3367 71.7814 74.5282Z" fill="black"/>
<path opacity="0.1" d="M71.3904 77.5878C71.3696 77.1868 71.2008 76.8078 70.9168 76.5243C70.6616 76.2924 70.3637 76.1125 70.0397 75.9947C69.2433 75.6671 68.3004 75.4034 67.436 75.4459C67.7503 75.9053 68.7591 76.1797 69.2646 76.4392C69.981 76.8093 70.6896 77.1921 71.3904 77.5878Z" fill="black"/>
<path opacity="0.1" d="M73.6524 86.3008C73.5058 87.3898 72.616 88.2151 71.7155 88.8532C70.8151 89.4913 69.8041 90.04 69.2159 90.9632C68.8081 91.6012 68.6255 92.3414 68.2793 93.0072C67.897 93.741 67.3257 94.3578 66.8691 95.0469C66.4125 95.7361 66.0557 96.5592 66.1959 97.376C66.1979 97.4135 66.2076 97.4503 66.2244 97.484C66.2412 97.5176 66.2648 97.5475 66.2936 97.5716C66.3374 97.5901 66.3851 97.5971 66.4323 97.5919C66.4795 97.5867 66.5246 97.5695 66.5633 97.5419C67.4893 97.0569 67.8546 95.9488 68.2432 94.9895C68.6512 94.0212 69.1106 93.0755 69.6194 92.1564C69.8488 91.731 70.1015 91.2673 70.5284 91.0312C70.8206 90.9093 71.1199 90.8049 71.4246 90.7186C71.8568 90.5201 72.2359 90.222 72.531 89.8486C73.6904 88.4634 74.2957 86.6969 74.23 84.8907C74.2173 84.5099 74.1961 82.6765 73.6248 83.2423C73.0535 83.808 73.7501 85.5606 73.6524 86.3008Z" fill="black"/>
<path d="M75.0519 44.5325C76.8783 45.3301 78.4499 47.0849 78.3925 49.0736C78.3437 51.1622 76.598 53.1297 77.199 55.1312C77.5473 56.2925 78.5964 57.071 79.4268 57.9537C82.589 61.3058 82.5827 67.157 79.4098 70.5028C78.195 71.7789 76.6341 72.6872 75.3492 73.9059C70.8193 78.1811 70.626 85.5766 73.0513 91.3173C71.193 91.7198 69.299 91.9336 67.3979 91.9554C66.508 91.9554 65.4186 91.8043 65.0958 90.9727C64.7984 90.2049 65.3081 89.1669 64.722 88.599C64.4459 88.3331 64.0318 88.297 63.6601 88.2353C61.2688 87.8482 59.3064 85.936 58.4102 83.6836C57.514 81.4311 57.5607 78.8958 58.0747 76.5263C58.4399 74.8141 59.0112 72.9296 58.1639 71.3982C57.102 69.4712 54.048 68.6587 54.0948 66.4551C54.133 64.6493 56.2589 63.7709 57.4651 62.4288C59.6908 59.9573 58.6311 56.1223 58.6268 52.7915C58.6268 49.8605 59.6505 46.836 61.8294 44.8834C65.0703 41.9546 71.312 42.9054 75.0519 44.5325Z" fill="#A26565"/>
<g opacity="0.1">
<path opacity="0.1" d="M58.512 69.2143C57.5796 67.5297 55.131 66.696 54.5618 65.0391C54.2771 65.4257 54.117 65.8903 54.1031 66.3705C54.0563 68.5741 57.106 69.3866 58.1722 71.3157C58.5222 71.9987 58.6696 72.7678 58.5969 73.532C58.9325 72.0517 59.2277 70.5075 58.512 69.2143Z" fill="black"/>
<path opacity="0.1" d="M77.4429 52.4046C77.8252 51.288 78.3795 50.1607 78.4071 49.0015C78.411 48.8759 78.4074 48.7502 78.3965 48.625C77.9696 49.9054 77.3155 51.1476 77.4429 52.4046Z" fill="black"/>
<path opacity="0.1" d="M58.877 58.3538C59.6076 56.0418 58.9769 53.1746 58.9747 50.6095C58.9747 50.299 58.9875 49.9863 59.0108 49.6758C58.7592 50.6671 58.6322 51.686 58.6328 52.7088C58.6371 54.5402 58.9577 56.5267 58.877 58.3538Z" fill="black"/>
<path opacity="0.1" d="M79.7642 68.3281C78.5494 69.6043 76.9884 70.5125 75.7036 71.7313C73.4099 73.8944 72.2312 76.8573 71.936 79.9988C72.484 77.6591 73.5904 75.5045 75.3638 73.8306C76.638 72.6182 78.2096 71.7143 79.4244 70.4274C80.8693 68.8503 81.7085 66.8107 81.7923 64.6719C81.4256 66.0386 80.7291 67.2942 79.7642 68.3281Z" fill="black"/>
<path opacity="0.1" d="M67.7526 89.7727C66.8627 89.7727 65.7732 89.6196 65.4504 88.7879C65.1531 88.0222 65.6628 86.9842 65.0767 86.4142C64.8006 86.1483 64.3843 86.1122 64.0148 86.0505C61.6256 85.6655 59.6632 83.7512 58.767 81.5009C58.1065 79.8376 57.9642 78.0233 58.1299 76.2324C58.1129 76.3026 58.098 76.3728 58.0832 76.4451C57.5777 78.8146 57.5246 81.352 58.4187 83.6045C59.3128 85.857 61.2773 87.7691 63.6665 88.1541C64.0445 88.2158 64.4608 88.254 64.7284 88.5178C65.3209 89.0878 64.8048 90.1258 65.1021 90.8915C65.4249 91.7231 66.5144 91.8869 67.4043 91.8763C69.3054 91.8543 71.1994 91.6406 73.0577 91.2382C72.7956 90.6177 72.5666 89.9836 72.3717 89.3388C70.8465 89.6103 69.3016 89.7554 67.7526 89.7727Z" fill="black"/>
</g>
<path opacity="0.1" d="M74.7076 80.4967C75.2322 80.8923 75.8014 79.3843 75.4764 79.0078C75.3894 79.1057 74.6269 80.4414 74.7076 80.4967Z" fill="black"/>
<path opacity="0.1" d="M76.9443 107.794C77.5623 107.582 78.2186 107.369 78.6221 106.859C78.9555 106.448 79.2295 104.819 78.5244 105.599C77.9255 106.269 77.6431 107.152 76.9443 107.794Z" fill="black"/>
<path opacity="0.1" d="M83.237 106.087C83.1627 106.589 83.0246 107.11 82.67 107.471C82.6041 107.539 82.4576 107.582 82.4385 107.491C82.8346 107.279 83.2028 107.019 83.5343 106.716C84.2521 106.004 84.3498 104.249 83.2561 103.783C83.2455 104.553 83.3538 105.304 83.237 106.087Z" fill="black"/>
<path d="M90.791 102.924C90.791 102.924 84.7639 100.552 82.5849 100.797C80.4059 101.042 85.0527 104.481 85.0527 104.481L87.8305 106.357C87.8305 106.357 89.5295 105.719 89.6421 105.67C89.7547 105.621 90.791 102.924 90.791 102.924Z" fill="#454B69"/>
<path d="M49.3208 77.4825C49.3208 77.4825 53.8486 74.8535 59.8248 78.1206C65.8011 81.3876 66.7971 100.613 66.7971 100.613C66.7971 100.613 64.3527 120.2 73.7778 115.842C73.7778 115.842 90.9802 110.493 92.7025 111.671C92.7025 111.671 94.3335 111.671 91.0736 112.397C87.8137 113.122 75.2199 117.119 75.2199 117.119C75.2199 117.119 71.1486 118.544 69.4242 117.119C67.6997 115.693 62.8129 117.301 62.1779 107.505C61.7577 101.331 61.002 95.1849 59.914 89.0936L58.2342 84.1058L49.3208 77.4825Z" fill="#565661"/>
<path d="M48.777 107.775C48.777 107.775 50.7691 87.9137 47.5028 80.7479C44.6612 74.5031 55.6495 77.4235 58.5165 78.2743C58.9602 78.4071 59.3472 78.684 59.6166 79.0612C61.3156 81.4541 67.4108 91.0446 65.6141 103.877C65.6141 103.877 64.8899 115.305 69.4177 117.117L55.4668 112.616C54.3349 112.25 53.1859 111.946 52.0264 111.683C50.5482 111.346 48.1399 110.391 48.777 107.775Z" fill="white"/>
<path d="M148 144.854H149.812L150.999 120.47L151.079 119.083L149.54 118.541L149.438 120.015L148 144.854Z" fill="#565661"/>
<path opacity="0.1" d="M149.438 120.015L150.999 120.47L151.08 119.083L149.54 118.541L149.438 120.015Z" fill="black"/>
<path d="M132.875 135.439C132.83 135.773 132.745 136.1 132.62 136.413C132.491 136.822 132.215 137.168 131.845 137.383C131.596 137.486 131.33 137.538 131.061 137.538C130.061 137.598 129.003 137.583 128.143 137.072C127.777 136.836 127.441 136.555 127.143 136.236C125.21 134.313 123.453 132.22 121.893 129.983C121.632 129.607 121.362 129.162 121.479 128.707C123.5 128.146 125.419 127.266 127.164 126.101C127.405 125.916 127.675 125.773 127.963 125.676C128.455 125.571 128.963 125.552 129.462 125.621C129.944 125.699 129.965 125.714 130.15 126.259C130.456 127.18 130.405 128.173 130.749 129.094C130.967 129.603 131.233 130.09 131.543 130.549C132.431 132.036 133.113 133.79 132.875 135.439Z" fill="#A26565"/>
<path opacity="0.1" d="M132.875 135.437C132.83 135.771 132.745 136.099 132.62 136.412C132.491 136.82 132.215 137.166 131.845 137.381C131.596 137.484 131.33 137.537 131.061 137.537C130.061 137.596 129.003 137.581 128.143 137.071C127.777 136.834 127.441 136.554 127.143 136.235C125.21 134.312 123.453 132.219 121.893 129.982C121.632 129.605 121.362 129.161 121.479 128.706C122.138 128.523 122.787 128.305 123.424 128.055L123.456 128.078C124.108 128.544 124.581 129.212 125.042 129.867L126.529 131.962C126.794 132.373 127.107 132.752 127.461 133.089C127.901 133.442 128.386 133.734 128.903 133.957C129.602 134.295 130.301 134.633 131.027 134.906C131.496 135.095 132.291 135.169 132.875 135.437Z" fill="black"/>
<path d="M134.247 112.724C134.101 113.077 133.923 113.417 133.716 113.738C131.742 117.058 130.22 120.627 129.188 124.35C128.895 124.284 128.73 124.684 128.732 124.988C128.734 125.292 128.732 125.675 128.451 125.786C128.369 125.818 128.275 125.818 128.194 125.854C128.016 125.935 127.965 126.162 127.94 126.358L127.689 128.2C127.602 128.838 127.525 129.529 127.838 130.093C128.053 130.428 128.332 130.717 128.66 130.944L132.805 134.219C132.975 134.353 133.185 134.496 133.389 134.421C133.854 134.251 133.442 133.417 133.814 133.079C134.06 132.847 134.451 133.022 134.793 132.994C135.239 132.96 135.577 132.549 135.689 132.118C135.768 131.678 135.776 131.228 135.712 130.786C135.684 130.584 135.708 130.379 135.78 130.188C135.907 129.987 136.081 129.82 136.288 129.701C137.007 129.175 137.587 128.481 137.976 127.678C138.365 126.876 138.552 125.99 138.52 125.099C138.486 124.827 138.496 124.552 138.55 124.284C138.636 124.038 138.766 123.811 138.934 123.612C140.44 121.572 141.695 119.358 142.942 117.148C143.659 115.872 144.39 114.576 144.641 113.139C144.662 113.085 144.671 113.027 144.667 112.97C144.662 112.912 144.645 112.856 144.615 112.807C144.585 112.757 144.545 112.715 144.496 112.684C144.447 112.653 144.392 112.634 144.335 112.628C143.713 112.434 143.079 112.282 142.436 112.173C140.484 111.777 138.601 111.167 136.702 110.58C134.803 109.993 134.818 111.188 134.247 112.724Z" fill="#454B69"/>
<path d="M125.27 150.011L128.26 150.373L142.024 119.083L145.737 118.811L152.259 120.716L153.524 157.97H156.512L155.336 119.355L162.491 119.538L175.259 151.37H177.975L164.547 114.167L164.03 112.734L144.016 112.047L139.028 114.848L138.964 115.01L125.27 150.011Z" fill="#565661"/>
<path opacity="0.1" d="M138.964 115.01C143.264 116.307 147.729 117.724 147.729 117.724C147.729 117.724 151.8 119.147 153.524 117.724C153.742 117.554 153.985 117.42 154.244 117.326C154.02 117.486 153.779 117.62 153.524 117.724L164.547 114.165L164.037 112.734L144.023 112.047L139.034 114.848L138.964 115.01Z" fill="black"/>
<path d="M159.32 108.836L151.171 107.021C151.171 107.021 131.7 110.65 130.252 112.101C130.252 112.101 145.827 115.274 147.548 116.355C149.268 117.435 159.502 118.63 159.32 108.836Z" fill="white"/>
<path d="M129.082 137.992C128.591 138.928 127.383 139.192 126.321 139.207C124.847 139.225 123.383 138.963 122.006 138.435C121.22 138.133 120.466 137.743 119.655 137.522C118.446 137.19 117.106 137.218 116.044 136.552C115.481 136.176 115.016 135.671 114.687 135.078C114.626 134.974 114.566 134.865 114.511 134.755C114.003 133.766 113.768 132.615 114.05 131.547C114.333 130.48 115.358 129.303 116.548 129.32C117.96 129.342 119.644 130.012 121.008 130.358C122.707 130.784 124.406 131.275 125.907 132.175C127.164 132.932 128.275 134.019 128.868 135.346C128.981 135.602 129.075 135.867 129.148 136.137C129.333 136.75 129.375 137.433 129.082 137.992Z" fill="#A26565"/>
<path opacity="0.1" d="M129.082 137.993C128.592 138.929 127.383 139.193 126.321 139.208C124.847 139.226 123.383 138.964 122.006 138.436C121.22 138.133 120.466 137.744 119.655 137.523C118.447 137.191 117.106 137.219 116.045 136.553C115.481 136.177 115.016 135.672 114.688 135.079C114.626 134.975 114.566 134.866 114.511 134.756C114.724 134.773 114.919 134.794 115.025 134.805C116.329 134.93 117.574 135.407 118.818 135.766C120.546 136.266 122.33 136.545 124.128 136.596C125.402 136.632 126.731 136.538 127.844 135.915C128.176 135.705 128.521 135.515 128.876 135.347C128.99 135.603 129.084 135.868 129.157 136.138C129.333 136.751 129.375 137.434 129.082 137.993Z" fill="black"/>
<path d="M138.208 97.5492C135.447 97.0962 132.635 96.9856 129.836 96.875L126.412 96.7389C126.169 96.7106 125.922 96.7405 125.692 96.8261C125.494 96.9535 125.306 97.0957 125.13 97.2514C124.786 97.4854 124.346 97.5109 123.932 97.5343C120.994 97.6964 118.072 98.0761 115.19 98.6701C113.704 98.9743 112.16 99.372 111.043 100.399C109.862 101.486 109.344 103.143 109.303 104.747C109.263 106.351 109.684 107.927 110.127 109.467C110.693 111.32 111.005 113.242 111.056 115.18C111.036 115.717 111.056 116.255 111.117 116.79C111.216 117.3 111.366 117.799 111.565 118.279L113.128 122.458C113.266 122.824 113.402 123.188 113.553 123.545C113.704 123.902 113.848 124.183 113.978 124.519C114.169 124.979 114.32 125.455 114.471 125.929L115.511 129.203L115.647 129.628C116.023 130.806 116.407 132.006 117.117 133.019C117.826 134.031 118.924 134.848 120.158 134.909C120.556 134.894 120.955 134.905 121.351 134.941C121.69 135.024 122.018 135.143 122.331 135.296C123.257 135.682 124.252 135.877 125.255 135.869C126.179 135.869 127.204 135.611 127.706 134.833C127.982 134.407 128.054 133.884 128.13 133.382C128.264 132.374 128.394 131.321 128.052 130.364C127.839 129.792 127.483 129.301 127.236 128.737C126.892 127.969 126.78 127.12 126.557 126.31C126.074 124.566 125.092 123.001 123.732 121.809C123.249 119.894 122.894 117.948 122.67 115.986C122.639 115.551 122.553 115.122 122.413 114.71C122.165 114.071 121.662 113.555 121.451 112.904C121.254 112.3 121.313 111.602 120.954 111.081C123.942 111.904 126.901 111.719 130.004 111.67C130.997 111.673 131.99 111.617 132.977 111.5C133.437 111.416 133.903 111.366 134.37 111.351C135.33 111.351 136.23 111.777 137.112 112.151C139.603 113.214 142.228 114.05 144.934 114.165C147.726 114.282 150.487 113.625 153.216 112.974C154.416 112.687 155.663 112.376 156.614 111.587C157.566 110.798 158.101 109.375 157.515 108.293C157.069 107.478 156.145 107.078 155.283 106.738C152.895 105.793 150.496 104.872 148.196 103.73C144.683 102.016 142.056 98.1873 138.208 97.5492Z" fill="#454B69"/>
<path d="M133.285 87.9269C132.952 88.65 132.391 89.2413 131.977 89.922C131.284 91.0423 131.056 92.3893 131.34 93.676C131.489 94.3121 131.782 94.9054 132.196 95.4102C132.611 95.915 133.135 96.3179 133.729 96.5879C134.259 96.7995 134.817 96.9341 135.386 96.9877C136.133 97.0792 136.93 97.0983 137.59 96.7368C138.084 96.4397 138.49 96.0151 138.765 95.5074C139.336 94.5502 139.661 93.4719 139.958 92.3977C140.508 90.4154 140.977 88.382 140.91 86.3252C140.886 85.617 140.746 84.8194 140.16 84.411C139.857 84.236 139.522 84.1259 139.174 84.0877L136.373 83.5857C135.832 83.4879 134.887 83.0901 134.417 83.4815C133.948 83.8728 133.912 85.0299 133.831 85.5723C133.704 86.3742 133.625 87.1888 133.285 87.9269Z" fill="#A1616A"/>
<path d="M167.335 79.7003L166.602 85.8515C166.451 86.9486 166.363 88.0537 166.341 89.1611C166.341 89.7779 166.36 90.4628 165.952 90.9243C165.753 91.1343 165.5 91.2865 165.222 91.3646C164.332 91.6411 163.361 91.3944 162.512 91.0136C162.015 90.8009 161.507 90.4925 161.282 89.9969C161.151 89.6534 161.097 89.2854 161.123 88.9186C161.123 85.2496 161.469 81.4231 163.383 78.2965C163.546 77.9897 163.776 77.7236 164.056 77.518C164.587 77.1777 165.281 77.2734 165.882 77.4585C166.252 77.5712 167.25 77.6967 167.486 78.0264C167.721 78.3561 167.386 79.277 167.335 79.7003Z" fill="#A1616A"/>
<path d="M147.896 57.4568C152.119 57.4568 155.542 54.0286 155.542 49.7997C155.542 45.5708 152.119 42.1426 147.896 42.1426C143.674 42.1426 140.251 45.5708 140.251 49.7997C140.251 54.0286 143.674 57.4568 147.896 57.4568Z" fill="#A1616A"/>
<path d="M145.851 61.2108C145.824 61.8066 145.662 62.3883 145.378 62.9124C149.281 62.3168 153.175 61.6532 157.058 60.9216C155.77 60.2582 154.796 59.1113 154.348 57.7311C154.137 56.991 154.022 56.2269 154.004 55.4574C153.943 54.2371 153.966 53.0139 154.074 51.7969C152.715 51.9394 151.428 52.4498 150.133 52.888C148.83 53.3289 147.505 53.7002 146.163 54.0004C145.516 54.145 144.864 54.2684 144.21 54.3833C143.445 54.5194 143.078 54.5173 143.609 55.1894C145.034 56.9845 146.051 58.8095 145.851 61.2108Z" fill="#A1616A"/>
<path d="M148.2 60.1868C147.191 60.3379 146.134 60.508 145.329 61.1333C145.022 61.3969 144.731 61.6774 144.456 61.9735C142.857 63.5283 140.599 64.1536 138.658 65.2512C138.341 65.4079 138.061 65.6288 137.834 65.8999C137.622 66.1955 137.513 66.572 137.29 66.8655C137.031 67.2058 136.621 67.4185 136.42 67.795C136.218 68.1715 136.262 68.5714 136.241 68.9712C136.192 69.8497 135.861 70.6834 135.604 71.5236C134.425 75.5457 135.071 80.0315 133.287 83.8302C133.369 84.049 133.495 84.249 133.656 84.4178C133.817 84.5867 134.011 84.7211 134.226 84.8129C134.675 84.9748 135.143 85.0757 135.619 85.1128L139.571 85.6041C140.136 85.6743 140.735 85.7402 141.251 85.5041C140.779 86.8076 140.445 88.1571 140.255 89.5305C140.159 90.37 140.01 91.2026 139.809 92.0233C139.265 93.895 137.898 95.4541 136.277 96.5197C136.073 96.6268 135.901 96.786 135.778 96.9813C135.566 97.4067 135.88 97.8831 136.103 98.3C136.751 99.5081 136.662 100.959 136.653 102.328C136.645 103.698 136.783 105.202 137.738 106.185C138.303 106.765 139.076 107.08 139.828 107.38L146.01 109.854C147.031 110.289 148.083 110.644 149.158 110.917C150.787 111.289 152.479 111.274 154.151 111.202C155.255 111.155 156.358 111.084 157.46 110.989C157.898 110.988 158.328 110.875 158.71 110.66C159.039 110.4 159.292 110.056 159.443 109.664C160.303 107.791 160.592 105.604 161.926 104.034C162.841 102.956 164.262 102.094 164.366 100.684C164.415 99.9824 164.103 99.2996 164.098 98.5956C164.098 97.7299 164.551 96.9068 164.523 96.0433C164.466 94.6373 163.143 93.5653 162.932 92.1743C162.397 88.6478 164.185 85.1255 165.283 81.733C165.481 81.1268 165.736 80.4569 166.318 80.1974C166.9 79.9379 167.719 80.074 167.927 79.4997C168.452 78.0576 168.577 76.3667 168.509 74.8331C168.471 73.9462 168.157 73.0784 168.193 72.1893C168.218 71.564 168.418 70.9557 168.471 70.3325C168.552 69.3902 168.303 68.4544 168.046 67.544C167.972 67.219 167.861 66.9036 167.715 66.6039C167.558 66.3321 167.373 66.0775 167.163 65.8446L166.129 64.6131C165.644 64.0367 165.133 63.439 164.43 63.1476C164.202 62.5839 163.476 62.1947 162.956 61.8842C162.431 61.5861 161.89 61.3197 161.333 61.0866L155.484 58.5002C155.266 58.3899 155.032 58.3139 154.79 58.2747C154.434 58.2627 154.08 58.3356 153.758 58.4874C151.974 59.1957 150.111 59.9018 148.2 60.1868Z" fill="#BA1C51"/>
<path d="M142.005 51.1304C141.78 50.337 141.204 49.6521 141.117 48.8311C141.039 48.1016 141.359 47.3954 141.542 46.685C141.725 45.9746 141.718 45.1068 141.155 44.6346C141.062 44.5538 140.943 44.4815 140.909 44.3624C140.841 44.1497 141.056 43.9561 141.121 43.7413C141.242 43.3159 140.718 42.8458 140.909 42.4375C141.017 42.2141 141.289 42.1354 141.527 42.0652C142.436 41.7951 143.358 41.1953 143.555 40.2658C144.267 40.5636 145.025 40.0042 145.571 39.4618C146.116 38.9195 146.788 38.3005 147.539 38.4643L147.372 38.8067C148.531 38.3852 149.799 38.371 150.967 38.7663H150.61C151.635 38.7837 152.629 39.1205 153.454 39.7298C153.363 39.7298 153.354 39.866 153.39 39.9425C153.688 40.638 154.452 41.006 155.189 41.1783C155.633 41.2846 156.115 41.3612 156.44 41.6803C156.765 41.9993 156.771 42.665 156.342 42.8182C157.217 43.1593 158.046 43.6095 158.808 44.1582C159.02 44.3134 159.26 44.524 159.233 44.7963C159.202 44.933 159.158 45.0662 159.101 45.194C159.059 45.421 159.074 45.6551 159.146 45.8746L159.381 46.8488C159.641 47.9314 159.844 49.2353 159.056 50.0201C159.351 50.572 159.461 51.2044 159.369 51.8236C159.276 52.4427 158.988 53.0156 158.545 53.4573C158.607 53.6473 158.629 53.8484 158.608 54.0474C158.587 54.2464 158.525 54.4388 158.424 54.6118C158.324 54.7848 158.188 54.9346 158.026 55.0512C157.864 55.1679 157.679 55.2488 157.483 55.2886C157.744 55.697 157.504 56.2798 157.092 56.535C156.68 56.7902 156.162 56.7924 155.682 56.7477C155.202 56.703 154.716 56.5946 154.236 56.6669C153.537 56.7754 152.853 57.2518 152.18 57.0391C151.929 56.9316 151.688 56.8021 151.46 56.652C150.988 56.3989 150.44 56.3415 149.918 56.2266C149.027 56.0349 148.182 55.6739 147.427 55.1631C146.926 54.8619 146.528 54.4174 146.282 53.8869C145.815 52.7043 146.601 51.1538 145.775 50.1903C145.29 49.6287 144.33 49.6202 143.789 50.1009C143.519 50.3413 143.483 50.8475 143.203 51.0283C142.812 51.1274 142.407 51.1619 142.005 51.1304Z" fill="#464353"/>
<path opacity="0.1" d="M131.616 112.12C131.314 111.881 131.053 111.594 130.845 111.27C130.635 110.944 130.552 110.553 130.611 110.17C130.528 110.654 130.56 111.151 130.703 111.621C130.847 112.091 131.098 112.52 131.437 112.875C131.97 113.422 132.971 113.958 133.75 113.771C133.639 113.146 132.11 112.541 131.616 112.12Z" fill="black"/>
<path d="M173.628 77.9083C173.628 77.9083 169.1 75.2793 163.124 78.5463C157.147 81.8134 156.151 101.039 156.151 101.039C156.151 101.039 158.596 120.626 149.171 116.268C149.171 116.268 131.968 110.919 130.246 112.097C130.246 112.097 128.615 112.097 131.875 112.822C135.135 113.548 147.729 117.544 147.729 117.544C147.729 117.544 151.8 118.969 153.524 117.544C155.249 116.119 160.135 117.727 160.77 107.93C161.191 101.757 161.946 95.6106 163.034 89.5194L164.714 84.5316L173.628 77.9083Z" fill="#565661"/>
<path d="M174.171 108.199C174.171 108.199 172.179 88.3375 175.446 81.1717C178.287 74.927 167.299 77.8473 164.432 78.6981C163.988 78.8309 163.601 79.1078 163.332 79.4851C161.633 81.8779 155.538 91.4684 157.334 104.3C157.334 104.3 158.059 115.729 153.531 117.541L167.482 113.04C168.614 112.674 169.762 112.37 170.922 112.106C172.4 111.77 174.809 110.815 174.171 108.199Z" fill="white"/>
<path opacity="0.1" d="M210.744 146.822C222.173 146.822 231.438 145.331 231.438 143.493C231.438 141.654 222.173 140.164 210.744 140.164C199.315 140.164 190.05 141.654 190.05 143.493C190.05 145.331 199.315 146.822 210.744 146.822Z" fill="#BA1C51"/>
<path d="M211.409 79.7227H210.077V109.749H211.409V79.7227Z" fill="#535461"/>
<path d="M219.779 109.659L219.696 111.011L219.577 112.926L219.528 113.721L219.411 115.636L219.36 116.431L219.241 118.345L217.899 140.055C217.838 140.987 217.425 141.861 216.744 142.499C216.063 143.137 215.166 143.492 214.233 143.492H207.253C206.319 143.492 205.42 143.135 204.74 142.494C204.059 141.853 203.649 140.976 203.591 140.042L202.245 118.33L202.128 116.416L202.079 115.621L201.958 113.706L201.909 112.911L201.793 110.997L201.708 109.644C201.693 109.385 201.731 109.125 201.82 108.881C201.908 108.637 202.046 108.413 202.223 108.224C202.401 108.035 202.615 107.884 202.853 107.78C203.091 107.677 203.347 107.622 203.606 107.621H217.882C218.143 107.623 218.4 107.677 218.639 107.782C218.877 107.887 219.092 108.039 219.269 108.23C219.447 108.421 219.584 108.646 219.671 108.892C219.759 109.137 219.795 109.398 219.779 109.659Z" fill="#565661"/>
<path d="M219.696 111.012L219.577 112.92H201.911L201.792 111.012H219.696Z" fill="#9D9CB5"/>
<path d="M219.528 113.717L219.411 115.627H202.079L201.96 113.717H219.528Z" fill="#9D9CB5"/>
<path d="M219.36 116.422L219.242 118.33H202.247L202.128 116.422H219.36Z" fill="#9D9CB5"/>
<path d="M199.758 90.9776C207.514 96.597 210.744 105.386 210.744 105.386C210.744 105.386 201.4 105.064 193.642 99.445C185.884 93.8256 182.658 85.0391 182.658 85.0391C182.658 85.0391 192.004 85.3602 199.758 90.9776Z" fill="#BA1C51"/>
<path d="M182.658 85.0391C182.658 85.0391 192.357 90.4309 195.47 94.8954C198.584 99.3599 210.744 105.386 210.744 105.386" stroke="#535461" stroke-width="2" stroke-miterlimit="10"/>
<path d="M204.764 79.6568C208.986 82.7133 210.744 87.4989 210.744 87.4989C210.744 87.4989 205.647 87.3224 201.436 84.266C197.225 81.2095 195.468 76.4238 195.468 76.4238C195.468 76.4238 200.544 76.5982 204.764 79.6568Z" fill="#BA1C51"/>
<path d="M195.468 76.4238C195.468 76.4238 200.748 79.359 202.441 81.788C204.133 84.217 210.755 87.4989 210.755 87.4989" stroke="#535461" stroke-width="2" stroke-miterlimit="10"/>
<path d="M216.878 87.2553C212.029 92.5919 211.003 99.5662 211.003 99.5662C211.003 99.5662 217.84 97.8859 222.684 92.5472C227.528 87.2085 228.558 80.2363 228.558 80.2363C228.558 80.2363 221.726 81.9188 216.878 87.2553Z" fill="#BA1C51"/>
<path d="M228.562 80.2383C228.562 80.2383 222.247 85.7088 220.641 89.4778C219.035 93.2468 211.003 99.566 211.003 99.566" stroke="#535461" stroke-width="2" stroke-miterlimit="10"/>
<path d="M118.788 74.4091V74.8941H104.43V74.5006C104.823 74.3527 105.196 74.1539 105.538 73.9093C106.148 73.472 106.645 72.8954 106.988 72.2274C107.33 71.5593 107.509 70.8191 107.509 70.068C107.509 69.6755 107.46 69.2846 107.363 68.9045C107.189 68.2205 106.865 67.584 106.413 67.0419C105.962 66.4997 105.395 66.0656 104.755 65.7715H118.691C118.05 66.0656 117.483 66.4997 117.032 67.0419C116.581 67.584 116.256 68.2205 116.083 68.9045C115.986 69.2847 115.937 69.6756 115.938 70.068C115.938 70.8189 116.116 71.5591 116.459 72.2272C116.801 72.8953 117.297 73.4719 117.907 73.9093C118.183 74.1062 118.478 74.2737 118.788 74.4091Z" fill="#DFE6F5"/>
<path opacity="0.1" d="M118.69 65.7715C118.05 66.0656 117.483 66.4997 117.032 67.0419C116.58 67.584 116.256 68.2204 116.082 68.9045H107.362C107.189 68.2204 106.864 67.584 106.413 67.0419C105.962 66.4997 105.395 66.0656 104.754 65.7715H118.69Z" fill="black"/>
<path d="M87.9897 63.293V66.024C87.9897 67.5299 89.0898 68.7529 90.449 68.7529H132.692C134.052 68.7529 135.154 67.5299 135.154 66.024V63.293H87.9897Z" fill="#DFE6F5"/>
<path opacity="0.1" d="M118.788 74.408V74.893H104.43V74.4995C104.823 74.3516 105.196 74.1528 105.538 73.9082H117.907C118.183 74.1051 118.478 74.2726 118.788 74.408Z" fill="black"/>
<path d="M122.813 74.0605H100.405C100.007 74.0605 99.6851 74.3829 99.6851 74.7805C99.6851 75.1782 100.007 75.5005 100.405 75.5005H122.813C123.21 75.5005 123.533 75.1782 123.533 74.7805C123.533 74.3829 123.21 74.0605 122.813 74.0605Z" fill="#DFE6F5"/>
<path d="M135.154 33.381C135.154 33.0574 135.09 32.7369 134.966 32.4379C134.843 32.139 134.661 31.8674 134.433 31.6386C134.204 31.4099 133.933 31.2285 133.634 31.1048C133.336 30.9812 133.016 30.9177 132.692 30.918H90.449C90.126 30.9177 89.8061 30.9812 89.5076 31.1049C89.2091 31.2286 88.9379 31.41 88.7094 31.6388C88.481 31.8675 88.2999 32.1392 88.1764 32.4381C88.0529 32.7371 87.9895 33.0575 87.9897 33.381V63.8243H135.154V33.381Z" fill="#474157"/>
<path d="M133.867 34.4819V60.6436C133.867 60.803 133.836 60.9609 133.775 61.1082C133.715 61.2556 133.626 61.3895 133.513 61.5023C133.401 61.6151 133.267 61.7046 133.12 61.7656C132.973 61.8267 132.816 61.8581 132.656 61.8581H90.4874C90.3283 61.8581 90.1707 61.8267 90.0237 61.7656C89.8767 61.7046 89.7431 61.6151 89.6307 61.5023C89.5182 61.3895 89.4291 61.2556 89.3684 61.1082C89.3077 60.9609 89.2766 60.803 89.2769 60.6436V34.4819C89.2758 34.2691 89.3315 34.0598 89.4383 33.8757C89.5446 33.6913 89.6975 33.5382 89.8817 33.4318C90.0659 33.3253 90.2748 33.2694 90.4874 33.2695H132.656C132.978 33.2695 133.285 33.3973 133.512 33.6246C133.739 33.852 133.867 34.1604 133.867 34.4819Z" fill="#4C4C78"/>
<path d="M111.572 32.6612C111.885 32.6612 112.139 32.4069 112.139 32.0933C112.139 31.7797 111.885 31.5254 111.572 31.5254C111.259 31.5254 111.005 31.7797 111.005 32.0933C111.005 32.4069 111.259 32.6612 111.572 32.6612Z" fill="white"/>
<path d="M111.572 67.5377C112.345 67.5377 112.971 66.9102 112.971 66.136C112.971 65.3619 112.345 64.7344 111.572 64.7344C110.799 64.7344 110.172 65.3619 110.172 66.136C110.172 66.9102 110.799 67.5377 111.572 67.5377Z" fill="white"/>
<path d="M133.867 34.4819H89.2808C89.2808 34.1604 89.4083 33.852 89.6353 33.6246C89.8623 33.3973 90.1702 33.2695 90.4913 33.2695H132.656C132.977 33.2695 133.285 33.3973 133.512 33.6246C133.739 33.852 133.867 34.1604 133.867 34.4819Z" fill="#C8CAD7"/>
<path d="M90.4873 34.1806C90.655 34.1806 90.791 34.0444 90.791 33.8764C90.791 33.7084 90.655 33.5723 90.4873 33.5723C90.3196 33.5723 90.1836 33.7084 90.1836 33.8764C90.1836 34.0444 90.3196 34.1806 90.4873 34.1806Z" fill="#EDEDF4"/>
<path d="M91.3965 34.1806C91.5642 34.1806 91.7001 34.0444 91.7001 33.8764C91.7001 33.7084 91.5642 33.5723 91.3965 33.5723C91.2287 33.5723 91.0928 33.7084 91.0928 33.8764C91.0928 34.0444 91.2287 34.1806 91.3965 34.1806Z" fill="#EDEDF4"/>
<path d="M92.3052 34.1806C92.4729 34.1806 92.6089 34.0444 92.6089 33.8764C92.6089 33.7084 92.4729 33.5723 92.3052 33.5723C92.1374 33.5723 92.0015 33.7084 92.0015 33.8764C92.0015 34.0444 92.1374 34.1806 92.3052 34.1806Z" fill="#EDEDF4"/>
</g>
<defs>
<linearGradient id="paint0_linear" x1="82.572" y1="100.458" x2="83.0647" y2="100.458" gradientUnits="userSpaceOnUse">
<stop stop-color="#808080" stop-opacity="0.25"/>
<stop offset="0.54" stop-color="#808080" stop-opacity="0.12"/>
<stop offset="1" stop-color="#808080" stop-opacity="0.1"/>
</linearGradient>
<clipPath id="clip0">
<rect width="240" height="157" fill="white" transform="translate(0.5 0.970703)"/>
</clipPath>
</defs>
</svg>
