<svg width="235" height="235" viewBox="0 0 235 235" fill="none" xmlns="http://www.w3.org/2000/svg">
<path d="M92.4277 183.156L96.2523 163.82H137.26L140.873 183.368L146.822 184.218V185.918H86.2659V184.218L92.4277 183.156Z" fill="#F6F6F6"/>
<rect x="38.9963" y="60.6699" width="154.882" height="98.3635" rx="7" fill="#F6F6F6" stroke="#262424" stroke-width="10"/>
<path d="M151.27 117.095H179.786C180.101 117.094 180.403 116.969 180.626 116.746C180.849 116.523 180.974 116.221 180.974 115.905V86.1795C180.974 85.8642 180.849 85.5619 180.626 85.339C180.403 85.116 180.101 84.9906 179.786 84.9902H151.27C150.955 84.9906 150.653 85.116 150.43 85.339C150.207 85.5619 150.082 85.8642 150.082 86.1795V115.905C150.082 116.221 150.207 116.523 150.43 116.746C150.653 116.969 150.955 117.094 151.27 117.095ZM179.786 85.4659C179.975 85.4661 180.156 85.5414 180.29 85.6752C180.424 85.8089 180.499 85.9903 180.499 86.1795V115.905C180.499 116.095 180.424 116.276 180.29 116.41C180.156 116.544 179.975 116.619 179.786 116.619H151.27C151.081 116.619 150.9 116.544 150.766 116.41C150.632 116.276 150.557 116.095 150.557 115.905V86.1795C150.557 85.9903 150.632 85.8089 150.766 85.6752C150.9 85.5414 151.081 85.4661 151.27 85.4659H179.786Z" fill="#5F5F5F"/>
<path d="M103.639 117.095H132.155C132.47 117.094 132.772 116.969 132.995 116.746C133.217 116.523 133.343 116.221 133.343 115.905V86.1795C133.343 85.8642 133.217 85.5619 132.995 85.339C132.772 85.116 132.47 84.9906 132.155 84.9902H103.639C103.324 84.9906 103.022 85.116 102.799 85.339C102.576 85.5619 102.451 85.8642 102.45 86.1795V115.905C102.451 116.221 102.576 116.523 102.799 116.746C103.022 116.969 103.324 117.094 103.639 117.095ZM132.155 85.4659C132.344 85.4661 132.525 85.5414 132.659 85.6752C132.792 85.8089 132.868 85.9903 132.868 86.1795V115.905C132.868 116.095 132.792 116.276 132.659 116.41C132.525 116.544 132.344 116.619 132.155 116.619H103.639C103.45 116.619 103.268 116.544 103.135 116.41C103.001 116.276 102.926 116.095 102.926 115.905V86.1795C102.926 85.9903 103.001 85.8089 103.135 85.6752C103.268 85.5414 103.45 85.4661 103.639 85.4659H132.155Z" fill="#5F5F5F"/>
<path d="M56.0075 117.095H84.5237C84.8387 117.094 85.1407 116.969 85.3635 116.746C85.5862 116.523 85.7115 116.221 85.7119 115.905V86.1795C85.7115 85.8642 85.5862 85.5619 85.3635 85.339C85.1407 85.116 84.8387 84.9906 84.5237 84.9902H56.0075C55.6925 84.9906 55.3905 85.116 55.1677 85.339C54.945 85.5619 54.8197 85.8642 54.8193 86.1795V115.905C54.8197 116.221 54.945 116.523 55.1677 116.746C55.3905 116.969 55.6925 117.094 56.0075 117.095ZM84.5237 85.4659C84.7128 85.4661 84.894 85.5414 85.0276 85.6752C85.1613 85.8089 85.2364 85.9903 85.2366 86.1795V115.905C85.2364 116.095 85.1613 116.276 85.0276 116.41C84.894 116.544 84.7128 116.619 84.5237 116.619H56.0075C55.8185 116.619 55.6372 116.544 55.5036 116.41C55.3699 116.276 55.2948 116.095 55.2946 115.905V86.1795C55.2948 85.9903 55.3699 85.8089 55.5036 85.6752C55.6372 85.5414 55.8185 85.4661 56.0075 85.4659H84.5237Z" fill="#5F5F5F"/>
<path d="M171.035 135.267C170.929 135.267 170.824 135.247 170.726 135.206C170.628 135.166 170.539 135.106 170.463 135.031C170.388 134.956 170.329 134.867 170.288 134.769C170.248 134.671 170.227 134.566 170.227 134.46C170.227 134.354 170.248 134.249 170.288 134.15C170.329 134.052 170.388 133.963 170.463 133.888C170.539 133.813 170.628 133.754 170.726 133.713C170.824 133.673 170.929 133.652 171.035 133.652H178.273C178.487 133.652 178.692 133.737 178.843 133.889C178.995 134.04 179.08 134.246 179.08 134.46C179.08 134.674 178.995 134.879 178.843 135.031C178.692 135.182 178.487 135.267 178.273 135.267H171.035Z" fill="#E5E5E5"/>
<path d="M152.784 130.511C152.57 130.511 152.364 130.426 152.213 130.275C152.062 130.123 151.977 129.918 151.977 129.704C151.977 129.49 152.062 129.284 152.213 129.133C152.364 128.982 152.57 128.896 152.784 128.896H178.273C178.487 128.896 178.692 128.982 178.843 129.133C178.995 129.284 179.08 129.49 179.08 129.704C179.08 129.918 178.995 130.123 178.843 130.275C178.692 130.426 178.487 130.511 178.273 130.511H152.784Z" fill="#E5E5E5"/>
<path d="M123.403 135.267C123.19 135.267 122.985 135.182 122.834 135.03C122.683 134.879 122.598 134.674 122.598 134.46C122.598 134.246 122.683 134.041 122.834 133.889C122.985 133.738 123.19 133.653 123.403 133.652H130.642C130.856 133.652 131.061 133.737 131.212 133.889C131.363 134.04 131.448 134.246 131.448 134.46C131.448 134.674 131.363 134.879 131.212 135.031C131.061 135.182 130.856 135.267 130.642 135.267H123.403Z" fill="#E5E5E5"/>
<path d="M105.152 130.511C104.938 130.511 104.733 130.426 104.582 130.275C104.431 130.123 104.346 129.918 104.346 129.704C104.346 129.49 104.431 129.284 104.582 129.133C104.733 128.982 104.938 128.896 105.152 128.896H130.642C130.856 128.896 131.061 128.982 131.212 129.133C131.363 129.284 131.448 129.49 131.448 129.704C131.448 129.918 131.363 130.123 131.212 130.275C131.061 130.426 130.856 130.511 130.642 130.511H105.152Z" fill="#E5E5E5"/>
<path d="M75.7721 135.267C75.5584 135.267 75.3536 135.182 75.2026 135.03C75.0517 134.879 74.9669 134.674 74.9669 134.46C74.9669 134.246 75.0517 134.041 75.2026 133.889C75.3536 133.738 75.5584 133.653 75.7721 133.652H83.0103C83.1163 133.652 83.2214 133.673 83.3194 133.713C83.4174 133.754 83.5065 133.813 83.5816 133.888C83.6567 133.963 83.7162 134.052 83.7568 134.15C83.7975 134.249 83.8184 134.354 83.8184 134.46C83.8184 134.566 83.7975 134.671 83.7568 134.769C83.7162 134.867 83.6567 134.956 83.5816 135.031C83.5065 135.106 83.4174 135.166 83.3194 135.206C83.2214 135.247 83.1163 135.267 83.0103 135.267H75.7721Z" fill="#E5E5E5"/>
<path d="M57.5208 130.511C57.3069 130.511 57.1017 130.426 56.9504 130.275C56.7992 130.123 56.7142 129.918 56.7142 129.704C56.7142 129.49 56.7992 129.284 56.9504 129.133C57.1017 128.982 57.3069 128.896 57.5208 128.896H83.0102C83.2242 128.896 83.4294 128.982 83.5806 129.133C83.7319 129.284 83.8169 129.49 83.8169 129.704C83.8169 129.918 83.7319 130.123 83.5806 130.275C83.4294 130.426 83.2242 130.511 83.0102 130.511H57.5208Z" fill="#E5E5E5"/>
<path d="M152.784 125.834C152.677 125.834 152.572 125.813 152.474 125.773C152.376 125.732 152.287 125.673 152.212 125.598C152.137 125.523 152.078 125.434 152.037 125.335C151.996 125.237 151.975 125.132 151.975 125.026C151.975 124.92 151.996 124.815 152.037 124.717C152.078 124.619 152.137 124.53 152.212 124.455C152.287 124.38 152.376 124.32 152.474 124.28C152.572 124.239 152.677 124.219 152.784 124.219H178.273C178.487 124.219 178.692 124.304 178.843 124.455C178.995 124.607 179.08 124.812 179.08 125.026C179.08 125.24 178.995 125.446 178.843 125.597C178.692 125.748 178.487 125.834 178.273 125.834H152.784Z" fill="#07106D"/>
<path d="M105.152 125.834C104.938 125.833 104.734 125.748 104.583 125.597C104.432 125.445 104.347 125.24 104.347 125.026C104.347 124.812 104.432 124.607 104.583 124.456C104.734 124.304 104.938 124.219 105.152 124.219H130.642C130.856 124.219 131.061 124.304 131.212 124.455C131.363 124.607 131.448 124.812 131.448 125.026C131.448 125.24 131.363 125.446 131.212 125.597C131.061 125.748 130.856 125.834 130.642 125.834H105.152Z" fill="#07106D"/>
<path d="M57.5209 125.834C57.3069 125.834 57.1018 125.748 56.9505 125.597C56.7992 125.446 56.7142 125.24 56.7142 125.026C56.7142 124.812 56.7992 124.607 56.9505 124.455C57.1018 124.304 57.3069 124.219 57.5209 124.219H83.0103C83.1163 124.219 83.2214 124.239 83.3194 124.28C83.4174 124.32 83.5065 124.38 83.5816 124.455C83.6567 124.53 83.7162 124.619 83.7568 124.717C83.7975 124.815 83.8184 124.92 83.8184 125.026C83.8184 125.132 83.7975 125.237 83.7568 125.335C83.7162 125.434 83.6567 125.523 83.5816 125.598C83.5065 125.673 83.4174 125.732 83.3194 125.773C83.2214 125.813 83.1163 125.834 83.0103 125.834H57.5209Z" fill="#07106D"/>
<path d="M157.346 111.334C157.132 111.334 156.927 111.249 156.776 111.097C156.625 110.946 156.54 110.74 156.54 110.526C156.54 110.312 156.625 110.107 156.776 109.955C156.927 109.804 157.132 109.719 157.346 109.719H173.71C173.924 109.719 174.129 109.804 174.28 109.955C174.432 110.107 174.517 110.312 174.517 110.526C174.517 110.74 174.432 110.946 174.28 111.097C174.129 111.249 173.924 111.334 173.71 111.334H157.346Z" fill="#E5E5E5"/>
<path d="M157.346 106.578C157.132 106.578 156.927 106.493 156.776 106.341C156.625 106.19 156.54 105.984 156.54 105.77C156.54 105.556 156.625 105.351 156.776 105.199C156.927 105.048 157.132 104.963 157.346 104.963H173.71C173.924 104.963 174.129 105.048 174.28 105.199C174.432 105.351 174.517 105.556 174.517 105.77C174.517 105.984 174.432 106.19 174.28 106.341C174.129 106.493 173.924 106.578 173.71 106.578H157.346Z" fill="#E5E5E5"/>
<path d="M165.528 101C162.701 101 160.409 98.7058 160.409 95.8759C160.409 93.046 162.701 90.752 165.528 90.752C168.355 90.752 170.647 93.046 170.647 95.8759C170.647 98.7058 168.355 101 165.528 101Z" fill="#07106D"/>
<path d="M109.715 111.334C109.501 111.334 109.296 111.249 109.144 111.097C108.993 110.946 108.908 110.74 108.908 110.526C108.908 110.312 108.993 110.107 109.144 109.955C109.296 109.804 109.501 109.719 109.715 109.719H126.079C126.293 109.719 126.498 109.804 126.649 109.955C126.8 110.107 126.885 110.312 126.885 110.526C126.885 110.74 126.8 110.946 126.649 111.097C126.498 111.249 126.293 111.334 126.079 111.334H109.715Z" fill="#E5E5E5"/>
<path d="M109.715 106.578C109.501 106.578 109.296 106.493 109.144 106.341C108.993 106.19 108.908 105.984 108.908 105.77C108.908 105.556 108.993 105.351 109.144 105.199C109.296 105.048 109.501 104.963 109.715 104.963H126.079C126.293 104.963 126.498 105.048 126.649 105.199C126.8 105.351 126.885 105.556 126.885 105.77C126.885 105.984 126.8 106.19 126.649 106.341C126.498 106.493 126.293 106.578 126.079 106.578H109.715Z" fill="#E5E5E5"/>
<path d="M117.897 101C115.07 101 112.778 98.7058 112.778 95.8759C112.778 93.046 115.07 90.752 117.897 90.752C120.724 90.752 123.016 93.046 123.016 95.8759C123.016 98.7058 120.724 101 117.897 101Z" fill="#07106D"/>
<path d="M62.0837 111.334C61.8698 111.334 61.6646 111.249 61.5133 111.097C61.362 110.946 61.277 110.74 61.277 110.526C61.277 110.312 61.362 110.107 61.5133 109.955C61.6646 109.804 61.8698 109.719 62.0837 109.719H78.4475C78.6614 109.719 78.8666 109.804 79.0179 109.955C79.1692 110.107 79.2542 110.312 79.2542 110.526C79.2542 110.74 79.1692 110.946 79.0179 111.097C78.8666 111.249 78.6614 111.334 78.4475 111.334H62.0837Z" fill="#E5E5E5"/>
<path d="M62.0837 106.578C61.8698 106.578 61.6646 106.493 61.5133 106.341C61.362 106.19 61.277 105.984 61.277 105.77C61.277 105.556 61.362 105.351 61.5133 105.199C61.6646 105.048 61.8698 104.963 62.0837 104.963H78.4475C78.6614 104.963 78.8666 105.048 79.0179 105.199C79.1692 105.351 79.2542 105.556 79.2542 105.77C79.2542 105.984 79.1692 106.19 79.0179 106.341C78.8666 106.493 78.6614 106.578 78.4475 106.578H62.0837Z" fill="#E5E5E5"/>
<path d="M70.2655 101C67.4382 101 65.1463 98.7058 65.1463 95.8759C65.1463 93.046 67.4382 90.752 70.2655 90.752C73.0928 90.752 75.3848 93.046 75.3848 95.8759C75.3848 98.7058 73.0928 101 70.2655 101Z" fill="#07106D"/>
<path d="M199.882 165.195L197.14 166.693L198.885 172.432L201.627 172.682L203.124 169.438L199.882 165.195Z" fill="#FFA5A5"/>
<path d="M208.359 176.674V179.419L212.598 179.169L212.539 176.908L208.359 176.674Z" fill="#FFA5A5"/>
<path d="M198.885 132.252L200.381 150.969L205.118 178.42L212.598 177.421L210.105 155.71L211.102 135.746L198.885 132.252Z" fill="#262424"/>
<path d="M218.831 118.277L200.88 118.527L198.885 132.252L211.102 137.992L214.094 148.973L198.885 165.194L204.869 172.68C204.869 172.68 213.346 161.201 219.579 154.712C225.812 148.224 222.82 128.509 222.82 128.509L218.831 118.277Z" fill="#262424"/>
<path d="M208.11 82.8417C205.081 82.8417 202.625 80.3837 202.625 77.3515C202.625 74.3194 205.081 71.8613 208.11 71.8613C211.139 71.8613 213.595 74.3194 213.595 77.3515C213.595 80.3837 211.139 82.8417 208.11 82.8417Z" fill="#FFA5A5"/>
<path d="M206.115 81.0932V86.5834L209.855 92.5727C209.855 92.5727 215.59 88.3303 214.343 87.3321C213.097 86.3338 212.847 78.5977 212.847 78.5977L206.115 81.0932Z" fill="#FFA5A5"/>
<path d="M206.115 85.5852L201.004 88.1766L195.692 90.5139L199.941 101.775L200.366 121.022H220.127L224.376 90.5139L219.702 88.1766L215.091 86.8329L213.381 84.5039L210.354 89.0789L206.115 85.5852Z" fill="#E5E5E5"/>
<path d="M200.132 101.806L197.389 112.287L201.004 122.81L199.304 129.822L191.655 109.792C191.655 109.792 194.647 94.3195 194.896 92.5726C195.145 90.8257 195.644 90.5762 195.644 90.5762L197.638 90.8257L200.132 101.806Z" fill="#E5E5E5"/>
<path d="M220.077 105.799L222.322 107.087V113.249L220.077 122.386L222.322 127.273L228.305 110.79L224.565 90.5762H223.069L220.077 105.799Z" fill="#E5E5E5"/>
<path d="M198.885 164.943C198.885 164.943 195.394 165.942 194.148 166.191C192.901 166.441 194.896 171.182 194.896 171.182C194.896 171.182 196.142 177.671 196.392 178.918C196.641 180.166 198.386 184.409 200.63 184.908C202.874 185.407 201.378 176.173 201.378 176.173C201.378 176.173 202.375 173.179 202.375 172.18C202.375 171.182 200.88 171.681 200.88 171.681C196.89 171.182 198.885 164.943 198.885 164.943Z" fill="#262424"/>
<path d="M207.113 184.161C207.362 185.659 206.863 185.659 210.853 186.158C214.842 186.657 213.845 183.413 213.845 183.413C213.678 181.883 213.343 180.377 212.847 178.921C212.099 176.924 208.11 179.42 208.11 179.42C208.11 179.42 206.863 182.664 207.113 184.161Z" fill="#262424"/>
<path d="M212.854 78.7726L212.984 80.9919C212.984 80.9919 214.592 77.3505 214.842 73.6072C215.091 69.8639 210.853 69.1152 208.359 68.8656C205.866 68.6161 201.628 70.363 201.628 72.3594C201.628 74.3558 206.115 73.8567 207.861 73.3576C209.606 72.8585 210.354 77.1009 210.354 77.1009L211.351 77.3505L212.854 78.7726Z" fill="#262424"/>
<path d="M204.644 87.3532L206.116 85.5859L210.354 89.0796L206.116 92.0743L204.644 87.3532Z" fill="#F6F6F6"/>
<path d="M215.091 86.8338L213.346 84.5879L210.354 89.0798L214.094 91.8249L215.091 86.8338Z" fill="#F6F6F6"/>
<path d="M7.49256 103.466L29.8706 129.759C29.8706 129.759 37.3108 135.09 44.539 129.369C51.7672 123.648 48.8362 115.093 48.8362 115.093L28.2638 89.9125C28.2638 89.9125 45.1776 87.2144 51.1391 89.8523C57.1007 92.4903 69.6964 110.621 70 115.439C70.3035 120.257 64.7083 137.5 64.7083 137.5L98.2794 178.218C98.2794 178.218 99.8261 186.907 93.5034 192.324C87.1807 197.741 77.5396 192.13 77.5396 192.13L45.5178 149.664C45.5178 149.664 32.3594 152.485 26.0367 150.68C19.714 148.874 5.95899 132.907 3.84967 126.886C1.74036 120.864 7.49256 103.466 7.49256 103.466Z" fill="#D3D3D3"/>
</svg>
