<svg width="452" height="386" viewBox="0 0 452 386" fill="none" xmlns="http://www.w3.org/2000/svg">
<g clip-path="url(#clip0)">
<path d="M407.12 214.681C407.046 220.441 406.783 226.894 406.192 233.693L422.767 213.005L422.884 213.329C421.527 208.66 419.52 204.206 416.921 200.098L417.052 200.402L407.12 214.681Z" fill="#57B894"/>
<path d="M407.131 213.671L416.752 199.839C413.986 195.668 410.673 192.439 406.89 190.469C406.693 190.366 406.496 190.271 406.298 190.176C406.445 191.735 407.247 200.892 407.131 213.671Z" fill="#57B894"/>
<path d="M424.84 253.821C425.247 251.409 425.563 249.003 425.789 246.602L400.793 266.252L400.759 266.079C400.383 267.496 399.991 268.889 399.582 270.258L424.781 253.439L424.84 253.821Z" fill="#57B894"/>
<path d="M403.644 253.02L426.015 232.267L426.103 232.626C425.815 226.209 424.769 219.848 422.987 213.678L406.095 234.759C405.513 241.129 404.695 247.216 403.644 253.02Z" fill="#57B894"/>
<path d="M405.67 234.401L375.746 204.635L375.876 204.271C373.449 208.148 371.419 212.261 369.818 216.546L403.872 248.873C404.682 243.82 405.261 238.94 405.67 234.401Z" fill="#57B894"/>
<path d="M403.09 253.395C403.319 252.161 403.534 250.935 403.735 249.717L369.555 217.271L369.682 216.904C369.116 218.414 368.586 219.972 368.09 221.579L368.214 221.212L403.09 253.395Z" fill="#57B894"/>
<path d="M400.971 265.254L425.759 245.767L425.831 246.139C426.223 241.787 426.321 237.413 426.124 233.047L403.45 254.081C402.727 257.947 401.901 261.671 400.971 265.254Z" fill="#57B894"/>
<path d="M365.715 252.075L393.743 284.598C395.645 280.331 397.289 275.955 398.667 271.491L364.936 239.902C364.862 244.1 365.07 248.298 365.557 252.468L365.715 252.075Z" fill="#57B894"/>
<path d="M405.82 190.174L406.048 190.056C400.164 187.334 394.004 188.02 388.261 191.457L406.671 213.673C406.793 199.847 405.834 190.311 405.82 190.174Z" fill="#57B894"/>
<path d="M398.868 272.584C397.599 276.602 396.113 280.548 394.416 284.404L419.845 269.31L419.893 269.686C421.675 266.232 423.013 262.566 423.874 258.775C424.206 257.284 424.501 255.792 424.759 254.297L399.259 271.316C399.129 271.74 399.001 272.166 398.868 272.584Z" fill="#57B894"/>
<path d="M406.659 214.704L387.828 191.978L387.972 191.631C383.663 194.286 379.598 198.493 376.069 203.973L405.75 233.496C406.329 226.774 406.588 220.397 406.659 214.704Z" fill="#57B894"/>
<path d="M398.908 270.708C400.545 265.288 401.89 259.784 402.935 254.22L367.973 221.957C367.311 224.137 366.718 226.399 366.194 228.743C365.474 232.102 365.06 235.52 364.96 238.954L398.884 270.724L398.908 270.708Z" fill="#57B894"/>
<path d="M434.922 305.613C431.195 310.003 426.88 314.804 422.093 319.664L448.041 314.312L447.925 314.636C449.855 310.174 451.147 305.462 451.763 300.639L451.67 300.957L434.922 305.613Z" fill="#57B894"/>
<path d="M450.173 286.818C450.087 286.614 449.996 286.414 449.904 286.215C449.024 287.51 443.807 295.074 435.574 304.842L451.798 300.332C452.325 295.353 451.832 290.751 450.173 286.818Z" fill="#57B894"/>
<path d="M397.271 341.139C396.078 341.99 394.888 342.813 393.701 343.606L423.827 346.74L423.628 347.072C425.479 345.474 427.256 343.823 428.96 342.117L397.186 341.294L397.271 341.139Z" fill="#57B894"/>
<path d="M407.814 332.923L438.268 331.221L438.107 331.554C441.975 326.428 445.222 320.861 447.781 314.971L421.338 320.424C416.83 324.958 412.322 329.124 407.814 332.923Z" fill="#57B894"/>
<path d="M397.96 340.64L429.469 341.457L429.287 341.79C432.362 338.687 435.225 335.381 437.855 331.893L406.989 333.617C403.968 336.133 400.959 338.474 397.96 340.64Z" fill="#57B894"/>
<path d="M360.454 358.398C360.664 358.159 360.876 357.917 361.095 357.663C367.432 356.269 373.578 354.116 379.401 351.25L378.946 328.629C379.166 328.038 379.379 327.443 379.583 326.843L380.067 350.924C384.25 348.852 388.305 346.531 392.211 343.973L386.868 302.093C387.085 301.964 387.306 301.831 387.531 301.694L392.867 343.521L392.896 343.524C397.61 340.395 402.153 337.014 406.504 333.396L400.941 292.204C401.156 292.027 401.371 291.848 401.586 291.667L407.148 332.861C408.111 332.056 409.058 331.249 409.989 330.439L404.952 288.705C405.165 288.508 405.378 288.31 405.591 288.11L410.631 329.876C414.476 326.502 418.031 323.113 421.239 319.878L417.158 277.849L417.49 277.652C416.341 278.024 415.178 278.447 414.005 278.909C416.106 276.207 417.969 273.328 419.575 270.305L393.903 285.543C392.278 289.12 390.42 292.586 388.34 295.918C387.884 296.402 387.43 296.892 386.983 297.395L387.048 297.906C386.849 298.203 386.648 298.497 386.447 298.789L386.36 298.109C386.105 298.404 385.852 298.704 385.6 299.005C388.637 294.685 391.262 290.088 393.438 285.275L365.615 252.99C365.965 255.989 366.432 259.002 366.983 261.985C364.356 258.226 361.235 254.838 357.705 251.912L357.924 252.161L352.887 268.813C354.596 274.314 356.338 280.533 357.876 287.181L367.121 262.722C367.191 263.092 367.263 263.461 367.335 263.83L358.113 288.226C359.526 294.464 360.629 300.506 361.421 306.351L372.986 285.615C373.075 285.898 373.164 286.18 373.254 286.459L361.564 307.42C362.07 311.32 362.435 315.118 362.657 318.813L377.02 297.377C377.118 297.641 377.215 297.901 377.31 298.155L362.796 319.817L362.71 319.663C362.79 321.127 362.847 322.573 362.881 324.002L379.28 303.218C379.389 303.487 379.49 303.736 379.583 303.964L362.901 325.107C362.908 325.55 362.918 325.995 362.921 326.434C362.955 330.648 362.76 334.86 362.336 339.052L363.929 337.239C363.647 337.923 363.373 338.598 363.106 339.263L362.2 340.294C362.128 340.919 362.049 341.537 361.966 342.152C361.657 342.95 361.36 343.728 361.075 344.487C361.307 343.061 361.507 341.626 361.675 340.183L325.245 318.087C335.738 340.965 354.238 362.233 355.421 363.583C356.217 361.863 356.935 360.105 357.575 358.307C357.792 358.273 358.009 358.237 358.226 358.202C358.151 358.417 358.078 358.634 358.001 358.848C357.888 358.867 357.774 358.888 357.66 358.906C357.754 358.927 357.853 358.948 357.956 358.971C357.501 360.23 357.014 361.46 356.497 362.662C357.226 361.925 358.318 360.787 359.641 359.315C368.009 360.943 390.459 364.154 409.071 356.407L379.588 351.754C373.511 354.755 367.083 356.987 360.454 358.398ZM378.78 320.335L379.437 319.587L379.458 320.65L378.801 321.398L378.78 320.335Z" fill="#57B894"/>
<path d="M449.537 285.909L449.787 285.964C446.99 280.111 441.809 276.707 435.195 275.688L435.217 304.551C444.122 293.981 449.46 286.024 449.537 285.909Z" fill="#57B894"/>
<path d="M391.669 344.942C388.132 347.226 384.473 349.316 380.709 351.202L409.912 355.812L409.71 356.132C413.283 354.609 416.649 352.64 419.728 350.27C420.933 349.334 422.112 348.372 423.263 347.386L392.779 344.215C392.409 344.458 392.039 344.704 391.669 344.942Z" fill="#57B894"/>
<path d="M421.878 319.231C426.607 314.423 430.87 309.677 434.553 305.338L434.53 275.812L434.862 275.637C429.852 274.93 424.04 275.576 417.83 277.543L421.878 319.231Z" fill="#57B894"/>
<path d="M357.465 251.718C353.546 248.607 349.398 246.56 345.192 245.857C344.973 245.821 344.755 245.791 344.538 245.762C345.16 247.199 348.75 255.659 352.586 267.848L357.465 251.718Z" fill="#57B894"/>
<path d="M357.599 288.016L319.948 268.966L319.959 268.58C318.848 273.018 318.188 277.557 317.988 282.128L360.357 302.336C359.568 297.28 358.611 292.459 357.599 288.016Z" fill="#57B894"/>
<path d="M360.488 303.182L317.962 282.899L317.969 282.512C317.898 284.122 317.874 285.769 317.899 287.45L317.904 287.063L361.011 306.88C360.847 305.635 360.673 304.402 360.488 303.182Z" fill="#57B894"/>
<path d="M362.392 325.456L320.557 305.85C321.784 309.864 323.277 313.792 325.029 317.607L325.058 317.185L361.756 339.444C362.247 334.798 362.46 330.127 362.392 325.456Z" fill="#57B894"/>
<path d="M344.084 245.909L344.263 245.726C337.827 244.958 332.181 247.516 327.781 252.562L352.149 267.994C347.996 254.808 344.139 246.034 344.084 245.909Z" fill="#57B894"/>
<path d="M352.457 268.976L327.529 253.19L327.559 252.814C324.281 256.672 321.714 261.932 320.05 268.235L357.395 287.129C355.87 280.557 354.146 274.413 352.457 268.976Z" fill="#57B894"/>
<path d="M362.379 324.638C362.263 318.977 361.841 313.327 361.117 307.712L317.904 287.846C317.948 290.124 318.083 292.458 318.308 294.85C318.66 298.267 319.323 301.646 320.288 304.943L362.361 324.661L362.379 324.638Z" fill="#57B894"/>
<path d="M327.166 224.358L201.659 208.523C195.97 161.161 204.564 114.922 219.237 68.9395L344.744 84.7749C325.806 129.886 320.247 176.446 327.166 224.358Z" fill="#F2F2F2"/>
<path d="M313.471 95.3296L236.772 85.6523L235.734 93.9005L312.433 103.578L313.471 95.3296Z" fill="#BA1C51"/>
<path opacity="0.3" d="M322.998 116.835L219.043 103.719L218.523 107.843L322.479 120.959L322.998 116.835Z" fill="#BA1C51"/>
<path opacity="0.3" d="M321.32 130.159L217.365 117.043L216.845 121.167L320.801 134.283L321.32 130.159Z" fill="#BA1C51"/>
<path opacity="0.3" d="M319.642 143.483L215.687 130.367L215.167 134.491L319.123 147.607L319.642 143.483Z" fill="#BA1C51"/>
<path opacity="0.3" d="M317.964 156.808L214.009 143.691L213.489 147.815L317.445 160.932L317.964 156.808Z" fill="#BA1C51"/>
<path opacity="0.3" d="M316.287 170.13L212.331 157.014L211.812 161.138L315.767 174.254L316.287 170.13Z" fill="#BA1C51"/>
<path opacity="0.3" d="M314.608 183.456L210.653 170.34L210.133 174.464L314.089 187.58L314.608 183.456Z" fill="#BA1C51"/>
<path opacity="0.3" d="M312.931 196.778L208.975 183.662L208.456 187.786L312.411 200.902L312.931 196.778Z" fill="#BA1C51"/>
<path d="M267.732 177.697L150.312 130.589C156.782 83.327 176.785 40.77 202.605 0L320.025 47.1079C290.298 85.9542 273.15 129.591 267.732 177.697Z" fill="#E6E6E6"/>
<path d="M287.101 49.4014L215.344 20.6133L212.254 28.3299L284.011 57.118L287.101 49.4014Z" fill="#BA1C51"/>
<path opacity="0.3" d="M290.881 72.6183L193.624 33.5996L192.079 37.4579L289.336 76.4766L290.881 72.6183Z" fill="#BA1C51"/>
<path opacity="0.3" d="M285.889 85.0831L188.633 46.0645L187.088 49.9228L284.344 88.9414L285.889 85.0831Z" fill="#BA1C51"/>
<path opacity="0.3" d="M280.898 97.5499L183.641 58.5312L182.096 62.3896L279.353 101.408L280.898 97.5499Z" fill="#BA1C51"/>
<path opacity="0.3" d="M275.906 110.015L178.649 70.9961L177.104 74.8544L274.361 113.873L275.906 110.015Z" fill="#BA1C51"/>
<path opacity="0.3" d="M270.914 122.48L173.658 83.4609L172.113 87.3192L269.369 126.338L270.914 122.48Z" fill="#BA1C51"/>
<path opacity="0.3" d="M265.923 134.944L168.666 95.9258L167.121 99.7841L264.378 138.803L265.923 134.944Z" fill="#BA1C51"/>
<path opacity="0.3" d="M260.931 147.411L163.675 108.393L162.13 112.251L259.386 151.27L260.931 147.411Z" fill="#BA1C51"/>
<path d="M238.694 189.042H112.193C100.632 142.763 103.381 95.8119 112.193 48.3535H238.694C225.54 95.4812 225.842 142.372 238.694 189.042Z" fill="#F2F2F2"/>
<path d="M208.985 62.7422H131.679V71.0556H208.985V62.7422Z" fill="#BA1C51"/>
<path opacity="0.3" d="M221.124 82.8867H116.346V87.0434H221.124V82.8867Z" fill="#BA1C51"/>
<path opacity="0.3" d="M221.124 96.3164H116.346V100.473H221.124V96.3164Z" fill="#BA1C51"/>
<path opacity="0.3" d="M221.124 109.746H116.346V113.903H221.124V109.746Z" fill="#BA1C51"/>
<path opacity="0.3" d="M221.124 123.174H116.346V127.331H221.124V123.174Z" fill="#BA1C51"/>
<path opacity="0.3" d="M221.124 136.604H116.346V140.76H221.124V136.604Z" fill="#BA1C51"/>
<path opacity="0.3" d="M221.124 150.033H116.346V154.19H221.124V150.033Z" fill="#BA1C51"/>
<path opacity="0.3" d="M221.124 163.463H116.346V167.62H221.124V163.463Z" fill="#BA1C51"/>
<path d="M153.426 160.955L109.845 127.042C109.409 126.283 108.78 125.653 108.023 125.214C107.266 124.776 106.407 124.545 105.532 124.545H82.0103C80.6909 124.545 79.4255 125.07 78.4925 126.003C77.5595 126.937 77.0354 128.204 77.0354 129.524V337.324C77.0354 341.607 78.7355 345.716 81.7617 348.745C84.7879 351.774 88.8923 353.475 93.172 353.475H334.63C336.749 353.475 338.847 353.058 340.805 352.246C342.763 351.434 344.542 350.244 346.04 348.745C347.539 347.245 348.727 345.464 349.538 343.505C350.349 341.545 350.767 339.445 350.767 337.324V175.636C350.767 171.742 349.221 168.008 346.471 165.255C343.72 162.502 339.99 160.955 336.1 160.955H153.426Z" fill="#3F3D56"/>
<path d="M342.555 209.146H298.758V224.49H342.555V209.146Z" fill="#BA1C51"/>
<path d="M0 385.046C0 385.046 200.31 270.382 442.193 385.046H0Z" fill="#F2F2F2"/>
<path d="M42.901 121.915C42.901 121.915 45.0508 133.32 43.546 134.18C42.3305 134.945 41.18 135.809 40.1062 136.763L43.9759 142.142L53.2202 144.079L62.0346 135.902V127.725C62.0346 127.725 59.4548 123.636 59.8848 121.054C60.3147 118.472 42.901 121.915 42.901 121.915Z" fill="#FBBEBE"/>
<path opacity="0.1" d="M42.901 121.915C42.901 121.915 45.0508 133.32 43.546 134.18C42.3305 134.945 41.18 135.809 40.1062 136.763L43.9759 142.142L53.2202 144.079L62.0346 135.902V127.725C62.0346 127.725 59.4548 123.636 59.8848 121.054C60.3147 118.472 42.901 121.915 42.901 121.915Z" fill="black"/>
<path d="M28.067 141.498L26.7771 142.144C26.7771 142.144 23.9823 143.22 22.6924 152.473C21.4025 161.726 18.3927 183.89 19.2527 184.535C20.1126 185.181 19.6826 189.485 19.6826 189.485L26.1322 155.7L28.067 141.498Z" fill="#2F2E41"/>
<path d="M43.3544 88.98C43.1577 89.3908 43.0888 89.8704 42.9042 90.2889C42.0664 92.1892 39.6811 91.764 37.9607 92.4828C36.5037 93.0916 35.4162 94.7632 35.3022 96.5694C35.2538 97.3363 35.3661 98.1097 35.2973 98.8744C35.1701 100.287 34.4424 101.531 34.1834 102.919C33.5543 106.29 35.0223 111.613 36.6798 109.794C37.2025 109.22 37.8568 108.84 38.4213 108.324C39.8876 106.982 40.6344 104.85 41.8255 103.176C41.9761 102.931 42.1835 102.725 42.4302 102.576C43.3005 102.143 44.0752 103.302 44.7632 104.061C45.1134 104.444 45.541 104.748 46.0175 104.952C46.494 105.157 47.0085 105.258 47.5269 105.248C48.0453 105.238 48.5557 105.118 49.024 104.895C49.4924 104.672 49.9081 104.353 50.2434 103.957C50.4534 103.651 50.7146 103.384 51.0154 103.167C51.3511 103.012 51.7291 102.975 52.0884 103.062C53.7849 103.361 55.3131 104.271 56.3841 105.622C56.9586 106.326 57.439 107.154 58.1276 107.699C58.8162 108.245 59.8208 108.425 60.441 107.776C61.6891 108.659 62.1547 110.534 62.158 112.242C62.1613 113.949 61.8118 115.646 61.897 117.35C61.9823 119.055 62.6509 120.894 64.0079 121.52C64.2216 119.967 65.0264 118.558 66.2541 117.586C67.1783 116.897 68.3017 116.556 69.0833 115.658C70.6482 113.858 70.1523 110.866 70.2124 108.299C70.2866 105.133 71.3827 102.106 71.5764 98.9471C71.6732 97.3684 71.5102 95.6757 70.6801 94.4265C70.0518 93.5941 69.2553 92.9034 68.3426 92.3996L60.9635 87.6611C60.6359 87.4188 60.2643 87.2423 59.8695 87.1416C58.7833 86.9465 57.8443 87.9663 56.8145 88.4156C55.9556 88.7205 55.0401 88.8317 54.1333 88.7412C51.2686 88.6635 50.4624 89.2203 48.5368 87.3522C48.387 87.2006 48.2037 87.0865 48.0016 87.019C47.7996 86.9516 47.5845 86.9326 47.3738 86.9638C46.2222 87.1465 43.9844 87.664 43.3544 88.98Z" fill="#2F2E41"/>
<path d="M47.4155 348.938L51.9299 358.836L43.1155 361.849L38.6011 359.482L39.6762 348.938H47.4155Z" fill="#FBBEBE"/>
<path d="M43.3308 357.328C43.3308 357.328 36.2364 353.024 34.9465 354.531C33.6566 356.037 23.3373 367.012 23.3373 367.012C23.3373 367.012 7.42847 375.619 19.6826 376.91C31.9367 378.201 51.9302 369.379 51.9302 369.379C51.9302 369.379 53.0051 357.759 52.1452 357.543C51.2853 357.328 47.6305 359.48 45.9107 358.834C44.9608 358.506 44.0845 357.994 43.3308 357.328Z" fill="#2F2E41"/>
<path d="M59.0247 359.481V368.303L47.4158 365.721L49.9954 356.684L59.0247 359.481Z" fill="#FBBEBE"/>
<path d="M47.2005 362.493C47.2005 362.493 59.0247 360.557 60.0996 366.367C61.1745 372.177 63.9693 380.784 61.1745 382.936C58.3797 385.088 43.9758 387.885 43.7608 384.227C43.5458 380.569 45.2657 373.468 45.2657 373.468C45.2657 373.468 46.3406 367.873 45.6956 366.367C45.0507 364.861 47.2005 362.493 47.2005 362.493Z" fill="#2F2E41"/>
<path d="M23.5839 217.187C23.5839 217.187 13.8781 278.785 21.8326 308.911C29.787 339.037 35.3766 356.898 35.3766 356.898C35.3766 356.898 49.1356 353.025 49.1356 350.442C49.1356 347.86 43.7609 309.557 42.471 305.899C41.1812 302.241 39.0313 300.95 40.9662 297.937C42.901 294.924 46.1258 275.558 46.1258 275.558C46.1258 275.558 53.2203 307.62 53.6502 308.481C54.0802 309.342 49.1356 358.619 49.1356 358.619C49.1356 358.619 63.3268 368.928 64.1845 361.202C64.3994 359.265 73.8587 290.621 73.8587 289.76C73.8587 288.899 77.7285 223.052 71.4939 219.824C65.2594 216.597 23.5839 217.187 23.5839 217.187Z" fill="#2F2E41"/>
<path d="M51.2852 126.218C59.359 126.218 65.9041 119.667 65.9041 111.586C65.9041 103.504 59.359 96.9531 51.2852 96.9531C43.2114 96.9531 36.6663 103.504 36.6663 111.586C36.6663 119.667 43.2114 126.218 51.2852 126.218Z" fill="#FBBEBE"/>
<path d="M48.0605 140.636V139.129L43.7608 132.028C43.7608 132.028 39.4611 132.459 38.8162 134.395C38.1712 136.332 30.8617 151.825 30.8617 151.825L23.1223 221.331C23.1223 221.331 44.4058 226.495 47.6305 222.837C50.8553 219.179 63.1094 139.56 63.1094 139.56L64.8292 129.876C64.8292 129.876 61.8761 125.573 61.2028 126.218C60.5296 126.864 49.3504 139.345 49.3504 139.345L49.1354 141.281L48.0605 140.636Z" fill="#BA1C51"/>
<path d="M43.6534 130.63C43.6534 130.63 39.6762 129.661 38.3863 132.028C37.0964 134.395 37.0964 135.256 35.8065 136.117C34.5165 136.978 26.9921 140.851 26.5621 142.357C26.1322 143.864 16.8878 191.42 16.8878 191.42C16.8878 191.42 12.3732 205.622 14.523 215.305C16.6729 224.989 15.168 226.925 19.6826 227.786C24.1973 228.647 24.8423 228.647 24.8423 227.356C24.8423 226.065 30.6468 182.382 34.7315 179.369C38.8162 176.357 37.7413 143.433 37.7413 143.433C37.7413 143.433 43.5459 136.332 43.5459 135.256C43.5459 134.18 44.5133 130.549 43.6534 130.63Z" fill="#2F2E41"/>
<path d="M55.8001 138.484C56.3999 138.584 64.6144 127.94 65.2594 128.37C65.9043 128.801 69.1291 134.395 69.5591 134.395C69.989 134.395 88.2627 138.914 89.7676 147.307C91.2725 155.699 79.2334 182.382 79.2334 182.382C79.2334 182.382 74.0737 197.66 75.1487 204.331C75.878 209.411 75.7325 214.578 74.7187 219.609C74.2887 221.331 72.7838 223.267 73.2138 224.128C73.6438 224.989 63.7545 223.052 59.6698 225.419C55.5851 227.786 37.3114 229.508 38.3864 226.925C39.4613 224.343 40.1063 214.229 43.116 203.47C46.1258 192.711 53.8652 167.319 52.5753 165.597C51.2854 163.876 54.5102 138.269 55.8001 138.484Z" fill="#2F2E41"/>
<path d="M87.1877 144.725L89.9825 147.307C89.9825 147.307 93.2073 152.902 92.7773 155.484C92.3473 158.066 101.807 197.015 97.9369 198.306C94.0672 199.597 84.8229 206.053 83.748 207.774C82.673 209.496 80.0932 212.508 78.3734 213.369C76.6535 214.23 74.9336 215.736 73.8587 214.875C72.7838 214.015 70.4189 196.369 72.1388 195.724C73.8587 195.078 75.5786 193.141 77.2984 193.141C79.0183 193.141 80.0932 191.42 80.0932 189.914C80.0932 188.407 78.8033 179.37 78.8033 179.37L76.0085 158.066L87.1877 144.725Z" fill="#2F2E41"/>
<path d="M45.9336 91.1203C45.7598 91.4308 45.6988 91.7934 45.5356 92.1097C44.7948 93.5463 42.6857 93.2249 41.1645 93.7683C40.5216 94.009 39.9598 94.4268 39.5439 94.9734C39.128 95.52 38.8749 96.1732 38.8139 96.8576C38.7711 97.4373 38.8704 98.0219 38.8095 98.6C38.697 99.6679 38.0536 100.608 37.8246 101.657C37.2684 104.206 38.5664 108.23 40.032 106.855C40.4941 106.421 41.0726 106.134 41.5718 105.743C42.8683 104.729 43.5286 103.117 44.5818 101.852C44.7217 101.661 44.905 101.505 45.1165 101.398C45.886 101.071 46.571 101.947 47.1794 102.521C47.8525 103.113 48.7216 103.433 49.6174 103.418C50.5132 103.403 51.3715 103.055 52.0249 102.442C52.2168 102.206 52.4476 102.004 52.7076 101.845C53.0096 101.728 53.339 101.7 53.6563 101.765C55.1037 101.965 56.4418 102.647 57.4546 103.701C57.9115 104.277 58.4282 104.804 58.9962 105.271C59.605 105.684 60.4934 105.82 61.0417 105.329C62.1453 105.997 62.5569 107.414 62.5599 108.705C62.5628 109.996 62.2538 111.278 62.3292 112.567C62.4045 113.855 62.9957 115.246 64.1956 115.719C64.3058 115.114 64.5389 114.537 64.8806 114.026C65.2222 113.514 65.665 113.079 66.1817 112.745C66.9989 112.225 67.9922 111.967 68.6833 111.287C70.067 109.927 69.6285 107.665 69.6817 105.724C69.7472 103.331 70.7164 101.043 70.8877 98.655C70.9733 97.4616 70.8292 96.182 70.0952 95.2377C69.5173 94.5918 68.814 94.0705 68.0283 93.7054L61.5037 90.1233C61.2066 89.9371 60.8792 89.8042 60.5364 89.7306C59.5759 89.5831 58.7457 90.354 57.8352 90.6937C57.0676 90.925 56.2631 91.0085 55.4644 90.9398C52.9315 90.8811 52.2185 91.302 50.516 89.8898C50.3742 89.7724 50.2096 89.6856 50.0326 89.6351C49.8556 89.5846 49.67 89.5713 49.4876 89.5962C48.4693 89.7342 46.4907 90.1254 45.9336 91.1203Z" fill="#2F2E41"/>
</g>
<defs>
<clipPath id="clip0">
<rect width="452" height="386" fill="white"/>
</clipPath>
</defs>
</svg>
