<svg width="221" height="185" viewBox="0 0 221 185" fill="none" xmlns="http://www.w3.org/2000/svg">
<g clip-path="url(#clip0)">
<path opacity="0.1" d="M22.796 6.48821C14.5231 7.96622 5.02328 10.6001 1.67659 18.6984C-1.38167 26.1021 2.20767 34.4425 4.62268 42.1044C7.00261 49.6688 8.23709 57.5456 8.28527 65.4739C8.34707 76.6264 6.17012 88.3866 10.5927 98.5202C15.583 109.954 27.9327 116.567 32.2615 128.286C34.0767 133.2 34.2965 138.577 35.1618 143.77C37.08 155.276 42.3198 166.143 50.0113 174.561C55.1251 180.158 61.7842 184.855 69.1597 184.967C74.7543 185.054 80.0376 182.52 85.2201 180.302C91.2663 177.715 97.4635 175.495 103.778 173.654C106.438 172.88 109.178 172.167 111.93 172.409C117.231 172.866 121.654 176.75 126.685 178.577C140.321 183.512 154.418 172.789 168.805 171.658C181.139 170.687 193.527 176.875 205.646 174.292C207.431 173.91 209.341 173.218 210.277 171.573C211.827 168.848 209.904 165.076 211.282 162.251C212.66 159.425 216.38 159.132 218.563 156.983C220.786 154.794 220.967 151.016 219.834 148.044C218.701 145.072 216.515 142.705 214.413 140.391C204.012 128.929 194.436 116.747 185.756 103.937C176.901 90.872 168.615 75.5048 171.105 59.6715C171.966 54.2232 174.081 49.0673 175.04 43.6373C176 38.2072 175.606 32.0576 172.087 27.9594C169.986 25.5105 167.038 24.0964 164.176 22.7486C137.49 10.1775 108.896 -2.69511 80.0032 2.06331C75.2991 2.83773 70.6431 4.08044 65.884 4.24949C58.996 4.49621 52.5133 1.42368 45.7855 2.42196C38.1468 3.54818 30.4279 5.12442 22.796 6.48821Z" fill="#BA1C51"/>
<path d="M43.904 39.999C43.904 39.999 34.4889 34.8408 31.6962 26.939C30.547 23.6163 28.3484 20.7553 25.4309 18.7859C24.0386 17.8614 22.5643 17.0662 21.0266 16.4102" stroke="#535461" stroke-width="2" stroke-miterlimit="10"/>
<path d="M19.2409 11.4423C20.1314 12.3355 21.0905 16.5365 21.0905 16.5365C21.0905 16.5365 16.8877 15.5542 15.9972 14.6588C15.604 14.223 15.3938 13.6529 15.4101 13.0667C15.4264 12.4805 15.668 11.923 16.0848 11.5097C16.5017 11.0963 17.0618 10.8588 17.6494 10.8462C18.2369 10.8337 18.8067 11.0471 19.2409 11.4423Z" fill="#BA1C51"/>
<path d="M26.8524 13.7342C27.1134 14.9678 25.6323 19.0135 25.6323 19.0135C25.6323 19.0135 22.6404 15.909 22.3795 14.6731C22.2843 14.0929 22.4169 13.4985 22.7497 13.0133C23.0825 12.5282 23.59 12.1899 24.1664 12.0686C24.7429 11.9474 25.344 12.0526 25.8447 12.3624C26.3454 12.6722 26.7072 13.1628 26.8547 13.732L26.8524 13.7342Z" fill="#BA1C51"/>
<path d="M35.1619 22.3083C34.7636 23.503 31.4376 26.2511 31.4376 26.2511C31.4376 26.2511 30.4258 22.0638 30.8241 20.8668C31.0156 20.2912 31.4284 19.8152 31.9717 19.5433C32.515 19.2715 33.1442 19.2262 33.7209 19.4173C34.2977 19.6085 34.7747 20.0204 35.0471 20.5626C35.3195 21.1048 35.3649 21.7327 35.1734 22.3083H35.1619Z" fill="#BA1C51"/>
<path d="M39.9943 30.2114C39.8043 31.4564 36.9909 34.7253 36.9909 34.7253C36.9909 34.7253 35.2833 30.7687 35.4733 29.5237C35.5049 29.2161 35.5988 28.918 35.7494 28.6476C35.8999 28.3772 36.1039 28.1402 36.349 27.9508C36.594 27.7615 36.8751 27.6237 37.1751 27.546C37.4751 27.4682 37.7877 27.4521 38.0942 27.4986C38.4006 27.545 38.6944 27.6531 38.9577 27.8162C39.221 27.9793 39.4484 28.1941 39.6261 28.4476C39.8038 28.701 39.928 28.9878 39.9913 29.2906C40.0546 29.5934 40.0556 29.9059 39.9943 30.2091V30.2114Z" fill="#BA1C51"/>
<path d="M22.3998 22.5663C23.6634 22.5526 27.2985 20.227 27.2985 20.227C27.2985 20.227 23.6108 17.9883 22.3472 18.002C21.7401 18.009 21.1606 18.2563 20.7362 18.6897C20.3119 19.123 20.0774 19.7068 20.0844 20.3127C20.0914 20.9186 20.3392 21.4968 20.7735 21.9203C21.2077 22.3438 21.7927 22.5778 22.3998 22.5708V22.5663Z" fill="#BA1C51"/>
<path d="M28.1571 31.7348C29.3566 31.3442 32.1287 28.0409 32.1287 28.0409C32.1287 28.0409 27.9373 27.0061 26.7378 27.3967C26.182 27.601 25.7272 28.0122 25.4689 28.5441C25.2106 29.076 25.1689 29.6871 25.3527 30.249C25.5364 30.8109 25.9312 31.2799 26.4542 31.5574C26.9771 31.8349 27.5875 31.8993 28.1571 31.7371V31.7348Z" fill="#BA1C51"/>
<path d="M34.9787 39.8811C36.2285 39.6983 39.5203 36.9113 39.5203 36.9113C39.5203 36.9113 35.5647 35.1843 34.3171 35.3671C34.0099 35.3987 33.7122 35.492 33.442 35.6414C33.1719 35.7909 32.9348 35.9933 32.7451 36.2366C32.5555 36.4799 32.4171 36.759 32.3383 37.057C32.2596 37.3551 32.2421 37.666 32.2869 37.971C32.3318 38.276 32.438 38.5687 32.5992 38.8317C32.7604 39.0946 32.9733 39.3223 33.225 39.5009C33.4767 39.6796 33.762 39.8056 34.0638 39.8713C34.3656 39.937 34.6776 39.9411 34.981 39.8833L34.9787 39.8811Z" fill="#BA1C51"/>
<path d="M35.4343 71.5243C35.4343 71.5243 26.0192 66.3662 23.2265 58.4644C22.0772 55.1417 19.8787 52.2807 16.9611 50.3113C15.5689 49.3868 14.0946 48.5915 12.5569 47.9355" stroke="#535461" stroke-width="2" stroke-miterlimit="10"/>
<path d="M10.7714 42.9677C11.6619 43.8609 12.621 48.0619 12.621 48.0619C12.621 48.0619 8.4182 47.0796 7.52774 46.1842C7.1345 45.7484 6.92427 45.1783 6.94058 44.5921C6.95688 44.0059 7.19848 43.4484 7.61533 43.035C8.03218 42.6217 8.59236 42.3842 9.17988 42.3716C9.76739 42.3591 10.3372 42.5725 10.7714 42.9677Z" fill="#BA1C51"/>
<path d="M18.3824 45.2577C18.6434 46.4913 17.1623 50.537 17.1623 50.537C17.1623 50.537 14.1705 47.4324 13.9095 46.1966C13.8143 45.6164 13.9469 45.0219 14.2797 44.5368C14.6126 44.0517 15.12 43.7133 15.6965 43.5921C16.2729 43.4708 16.8741 43.5761 17.3748 43.8859C17.8755 44.1957 18.2372 44.6862 18.3847 45.2554L18.3824 45.2577Z" fill="#BA1C51"/>
<path d="M26.692 53.8336C26.2937 55.0284 22.9676 57.7765 22.9676 57.7765C22.9676 57.7765 21.9558 53.5892 22.3541 52.3922C22.4489 52.1072 22.5991 51.8436 22.796 51.6165C22.9929 51.3895 23.2327 51.2033 23.5017 51.0687C23.7707 50.9341 24.0637 50.8537 24.3638 50.8321C24.6639 50.8105 24.9654 50.8481 25.251 50.9427C25.5366 51.0374 25.8007 51.1872 26.0282 51.3837C26.2558 51.5802 26.4423 51.8195 26.5772 52.088C26.712 52.3564 26.7926 52.6488 26.8143 52.9483C26.8359 53.2478 26.7983 53.5486 26.7034 53.8336H26.692Z" fill="#BA1C51"/>
<path d="M31.5243 61.7348C31.3343 62.9798 28.521 66.2488 28.521 66.2488C28.521 66.2488 26.8133 62.2922 27.0033 61.0472C27.0349 60.7395 27.1289 60.4414 27.2794 60.1711C27.4299 59.9007 27.6339 59.6636 27.879 59.4743C28.124 59.2849 28.4051 59.1472 28.7051 59.0694C29.0051 58.9917 29.3178 58.9756 29.6242 59.022C29.9306 59.0685 30.2244 59.1765 30.4877 59.3396C30.7511 59.5028 30.9785 59.7176 31.1561 59.971C31.3338 60.2245 31.458 60.5113 31.5213 60.8141C31.5846 61.1169 31.5856 61.4293 31.5243 61.7325V61.7348Z" fill="#BA1C51"/>
<path d="M13.9301 54.0897C15.1937 54.076 18.8288 51.7505 18.8288 51.7505C18.8288 51.7505 15.141 49.5117 13.8774 49.5255C13.2703 49.5324 12.6909 49.7798 12.2665 50.2131C11.8422 50.6465 11.6077 51.2303 11.6147 51.8361C11.6216 52.442 11.8695 53.0203 12.3037 53.4437C12.738 53.8672 13.323 54.1012 13.9301 54.0943V54.0897Z" fill="#BA1C51"/>
<path d="M19.6873 63.2582C20.8868 62.8676 23.659 59.5643 23.659 59.5643C23.659 59.5643 19.4676 58.5295 18.2681 58.9201C17.9721 59.0044 17.6962 59.1475 17.4568 59.3406C17.2175 59.5338 17.0196 59.7732 16.8751 60.0444C16.7306 60.3156 16.6424 60.6131 16.6158 60.9192C16.5891 61.2252 16.6246 61.5335 16.7201 61.8255C16.8156 62.1175 16.9691 62.3874 17.1715 62.6188C17.3739 62.8503 17.621 63.0386 17.898 63.1726C18.175 63.3065 18.4762 63.3834 18.7837 63.3985C19.0911 63.4136 19.3985 63.3667 19.6873 63.2605V63.2582Z" fill="#BA1C51"/>
<path d="M26.5089 71.4064C27.7588 71.2237 31.0505 68.4367 31.0505 68.4367C31.0505 68.4367 27.095 66.7097 25.8474 66.8925C25.5401 66.9241 25.2425 67.0174 24.9723 67.1668C24.7022 67.3163 24.4651 67.5187 24.2754 67.762C24.0857 68.0053 23.9474 68.2844 23.8686 68.5824C23.7899 68.8805 23.7724 69.1914 23.8172 69.4964C23.862 69.8014 23.9683 70.0941 24.1295 70.3571C24.2907 70.62 24.5035 70.8477 24.7552 71.0263C25.0069 71.205 25.2923 71.331 25.5941 71.3967C25.8958 71.4624 26.2078 71.4665 26.5112 71.4087L26.5089 71.4064Z" fill="#BA1C51"/>
<path d="M144.579 0.970713H38.2337C36.9543 0.968912 35.6871 1.21861 34.5044 1.70554C33.3217 2.19248 32.2467 2.90712 31.3408 3.80866C30.4348 4.7102 29.7157 5.78098 29.2244 6.95987C28.7331 8.13877 28.4793 9.40268 28.4775 10.6795V157.731C28.479 159.008 28.7326 160.273 29.2237 161.452C29.7149 162.631 30.434 163.702 31.3399 164.604C32.2459 165.505 33.321 166.22 34.5039 166.707C35.6867 167.194 36.9542 167.444 38.2337 167.442H144.579C145.859 167.444 147.126 167.195 148.309 166.708C149.491 166.221 150.566 165.506 151.472 164.605C152.378 163.703 153.097 162.632 153.589 161.453C154.08 160.274 154.334 159.01 154.335 157.734V10.6772C154.331 8.09901 153.301 5.6281 151.471 3.80785C149.642 1.9876 147.163 0.967075 144.579 0.970713Z" fill="url(#paint0_linear)"/>
<path d="M148.26 2.96484H34.5553C32.0268 2.96484 29.9771 5.01037 29.9771 7.53366V161.375C29.9771 163.898 32.0268 165.944 34.5553 165.944H148.26C150.789 165.944 152.838 163.898 152.838 161.375V7.53366C152.838 5.01037 150.789 2.96484 148.26 2.96484Z" fill="#535461"/>
<path d="M146.596 18.3828H36.2192V150.529H146.596V18.3828Z" fill="#F1F1F4"/>
<path d="M90.9088 11.9359C91.7369 11.9359 92.4082 11.266 92.4082 10.4396C92.4082 9.61327 91.7369 8.94336 90.9088 8.94336C90.0807 8.94336 89.4094 9.61327 89.4094 10.4396C89.4094 11.266 90.0807 11.9359 90.9088 11.9359Z" fill="white"/>
<path d="M90.9087 162.456C93.3916 162.456 95.4045 160.447 95.4045 157.969C95.4045 155.491 93.3916 153.482 90.9087 153.482C88.4257 153.482 86.4128 155.491 86.4128 157.969C86.4128 160.447 88.4257 162.456 90.9087 162.456Z" fill="white"/>
<path d="M68.3219 35.5469H52.2294C50.7313 35.5469 49.5168 36.7589 49.5168 38.2539V54.3133C49.5168 55.8083 50.7313 57.0203 52.2294 57.0203H68.3219C69.8201 57.0203 71.0345 55.8083 71.0345 54.3133V38.2539C71.0345 36.7589 69.8201 35.5469 68.3219 35.5469Z" fill="#BA1C51"/>
<path opacity="0.2" d="M114.494 57.0215H130.586C132.084 57.0215 133.299 55.8095 133.299 54.3145V38.2551C133.299 36.76 132.084 35.548 130.586 35.548H114.494C112.995 35.548 111.781 36.76 111.781 38.2551V54.3145C111.781 55.8095 112.995 57.0215 114.494 57.0215Z" fill="#BA1C51"/>
<path d="M99.454 35.5469H83.3615C81.8634 35.5469 80.6489 36.7589 80.6489 38.2539V54.3133C80.6489 55.8083 81.8634 57.0203 83.3615 57.0203H99.454C100.952 57.0203 102.167 55.8083 102.167 54.3133V38.2539C102.167 36.7589 100.952 35.5469 99.454 35.5469Z" fill="#BA1C51"/>
<path d="M68.3219 73.4688H52.2294C50.7313 73.4688 49.5168 74.6807 49.5168 76.1758V92.2352C49.5168 93.7302 50.7313 94.9422 52.2294 94.9422H68.3219C69.8201 94.9422 71.0345 93.7302 71.0345 92.2352V76.1758C71.0345 74.6807 69.8201 73.4688 68.3219 73.4688Z" fill="#BA1C51"/>
<path opacity="0.2" d="M114.494 94.9434H130.586C132.084 94.9434 133.299 93.7314 133.299 92.2363V76.1769C133.299 74.6819 132.084 73.4699 130.586 73.4699H114.494C112.995 73.4699 111.781 74.6819 111.781 76.1769V92.2363C111.781 93.7314 112.995 94.9434 114.494 94.9434Z" fill="#BA1C51"/>
<path opacity="0.2" d="M99.454 73.4688H83.3615C81.8634 73.4688 80.6489 74.6807 80.6489 76.1758V92.2352C80.6489 93.7302 81.8634 94.9422 83.3615 94.9422H99.454C100.952 94.9422 102.167 93.7302 102.167 92.2352V76.1758C102.167 74.6807 100.952 73.4688 99.454 73.4688Z" fill="#BA1C51"/>
<path d="M68.3219 111.389H52.2294C50.7313 111.389 49.5168 112.601 49.5168 114.096V130.155C49.5168 131.65 50.7313 132.862 52.2294 132.862H68.3219C69.8201 132.862 71.0345 131.65 71.0345 130.155V114.096C71.0345 112.601 69.8201 111.389 68.3219 111.389Z" fill="#BA1C51"/>
<path d="M114.494 132.863H130.586C132.084 132.863 133.299 131.651 133.299 130.156V114.097C133.299 112.602 132.084 111.39 130.586 111.39H114.494C112.995 111.39 111.781 112.602 111.781 114.097V130.156C111.781 131.651 112.995 132.863 114.494 132.863Z" fill="#BA1C51"/>
<path d="M99.454 111.389H83.3615C81.8634 111.389 80.6489 112.601 80.6489 114.096V130.155C80.6489 131.65 81.8634 132.862 83.3615 132.862H99.454C100.952 132.862 102.167 131.65 102.167 130.155V114.096C102.167 112.601 100.952 111.389 99.454 111.389Z" fill="#BA1C51"/>
<path d="M181.345 64.4534C181.302 64.2086 181.21 63.9753 181.072 63.768C180.91 63.5787 180.73 63.4051 180.535 63.2495C179.454 62.2352 180.035 60.4077 179.619 58.9982C179.161 57.4928 177.559 56.3391 176.167 55.5716C175.942 55.442 175.7 55.3443 175.448 55.2815C175.133 55.2311 174.815 55.2059 174.496 55.2061C173.997 55.1762 173.507 55.065 173.045 54.8771C172.383 54.6076 171.792 54.1918 171.115 53.9634C170.983 53.9152 170.843 53.8957 170.703 53.9062C169.963 53.8377 169.938 54.756 169.144 55.2883C168.814 55.5168 168.501 55.832 168.501 56.2249C168.501 56.7618 169.05 57.1158 169.54 57.3511C170.03 57.5864 170.142 57.5407 170.238 57.5385H170.279C170.346 57.5499 170.419 57.607 170.609 57.8149C169.138 58.0438 167.798 58.7877 166.827 59.9132C165.856 61.0388 165.318 62.4725 165.31 63.9576C165.309 64.8238 165.492 65.6803 165.848 66.4705C165.827 66.6167 165.804 66.7675 165.779 66.9274C165.538 68.4008 165.092 70.1781 164.328 71.6493C163.7 71.7772 163.304 71.8777 163.304 71.8777C163.311 71.9078 163.314 71.9384 163.316 71.9691L163.087 72.1381L162.125 72.8234C160.232 69.6915 158.298 65.8034 158.22 62.884C158.22 62.884 157.991 63.0416 157.602 63.2883V61.2141L157.479 61.1912L157.602 60.9628L158.495 59.2769C158.831 58.6427 159.012 57.9383 159.024 57.2209C159.065 54.571 158.978 48.0376 157.142 46.9525C154.828 45.5819 154.365 51.5076 153.131 54.5436C152.216 56.8075 152.674 60.0879 152.953 61.607C152.974 61.7098 152.992 61.8035 153.01 61.8903C152.257 62.1733 151.525 62.5084 150.819 62.8931C151.307 63.085 151.671 64.6087 151.872 65.7052C151.893 65.8217 151.914 65.9337 151.932 66.0365C151.466 66.1825 150.991 66.2985 150.51 66.3837L154.489 75.0462C153.64 76.0285 151.868 77.7486 150.51 76.8577C148.659 75.6424 142.956 76.25 142.956 76.25C142.956 76.25 139.697 67.6127 139.852 65.0268C139.852 65.0268 139.681 65.1136 139.394 65.2552V62.9C139.289 62.9712 139.178 63.0346 139.063 63.0896L139.184 62.8748L139.36 62.5619C139.696 61.9688 139.896 61.3088 139.946 60.6293C140.138 57.9725 140.42 51.1513 138.314 50.2992C135.691 49.2369 134.919 56.8257 134.919 56.8257L135.478 63.6972L135.489 63.8503C134.244 63.9599 133.221 63.9599 133.221 63.9599C133.534 64.2683 133.635 65.9702 133.679 67.037C133.679 67.1467 133.679 67.2472 133.679 67.3409C133.042 67.4505 132.497 67.4596 132.143 67.2997L136.309 78.5322C136.309 78.5322 136.618 81.2735 142.018 82.4796C145.193 83.1946 147.406 83.8503 148.693 84.2797C146.491 89.4882 138.85 108.266 141.091 112.835C141.091 112.835 142.29 112.378 143.517 111.976C143.801 115.914 144.293 121.879 144.891 125.701C144.238 127.713 143.746 129.401 143.586 130.368C143.572 130.448 143.561 130.523 143.552 130.596C143.094 134.24 139.385 141.223 144.941 147.142C144.941 147.142 148.798 149.427 149.107 152.152C149.366 154.45 153.443 160.179 154.734 161.947C153.701 163.718 150.79 168.387 148.18 169.609C144.941 171.128 147.562 173.253 150.648 172.807C153.734 172.362 163.925 165.066 163.925 165.066C163.925 165.066 163.854 160.296 162.888 159.949L161.961 158.039C162.475 157.959 162.979 157.821 163.462 157.628C167.628 155.958 173.338 152.922 173.338 152.922C173.338 152.922 173.45 149.356 171.831 148.049C171.003 145.497 167.166 143.206 167.166 143.206C167.166 143.206 164.385 136.067 157.595 134.089C157.595 134.089 156.499 132.547 156.54 130.781C156.986 129.927 157.289 129.383 157.289 129.383L160.8 121.068C161.709 120.259 162.482 119.309 163.089 118.256C163.141 118.161 163.191 118.066 163.24 117.97C165.358 118.219 167.017 118.468 167.017 118.468L166.864 111.181C165.465 96.145 169.787 91.7429 169.787 91.7429C169.787 91.7429 175.968 84.3049 176.577 78.9913C177.147 74.0867 172.985 73.84 172.342 73.8309C172.219 73.1035 172.246 72.3589 172.422 71.6424L172.495 71.6949C172.626 71.8017 172.785 71.8676 172.953 71.8846C172.986 71.8878 173.02 71.8878 173.054 71.8846H173.109C173.26 71.8774 173.408 71.8318 173.537 71.7521C175.151 70.9068 176.407 69.3785 178.179 68.9377C178.55 68.8463 178.937 68.8052 179.301 68.6864C179.708 68.5429 180.081 68.3165 180.397 68.0216C180.712 67.7267 180.962 67.3696 181.132 66.9731C181.465 66.1759 181.539 65.2949 181.345 64.4534ZM158.683 144.865C158.992 145.927 163.929 149.57 163.929 149.57L164.119 150.879C162.853 152.076 161.521 153.201 160.129 154.249L158.374 150.633C158.374 150.633 155.75 142.283 153.436 141.374C153.008 141.205 152.871 140.689 152.93 139.964C154.434 141.063 158.426 144.012 158.676 144.871L158.683 144.865Z" fill="url(#paint1_linear)"/>
<path d="M149.478 83.3364C149.478 83.3364 138.985 107.569 141.533 112.805C141.533 112.805 145.731 111.16 146.34 111.46C146.949 111.759 152.935 80.1953 152.935 80.1953L149.478 83.3364Z" fill="#575988"/>
<path opacity="0.05" d="M149.478 83.3364C149.478 83.3364 138.985 107.569 141.533 112.805C141.533 112.805 145.731 111.16 146.34 111.46C146.949 111.759 152.935 80.1953 152.935 80.1953L149.478 83.3364Z" fill="black"/>
<path d="M155.173 160.525C155.173 160.525 151.575 167.258 148.427 168.749C145.28 170.241 147.828 172.34 150.826 171.89C153.825 171.44 163.719 164.26 163.719 164.26C163.719 164.26 163.65 159.561 162.709 159.219C161.768 158.876 155.173 160.525 155.173 160.525Z" fill="#575988"/>
<path d="M164.618 149.604C164.618 149.604 159.523 154.689 157.272 155.139C155.022 155.589 159.22 158.58 163.267 156.935C167.315 155.29 172.861 152.298 172.861 152.298C172.861 152.298 173.01 147.5 170.462 147.062C167.914 146.623 164.618 149.604 164.618 149.604Z" fill="#575988"/>
<path d="M143.632 108.019C143.632 108.019 144.68 126.269 146.031 128.807C147.381 131.345 152.477 139.128 152.477 139.128C152.477 139.128 158.323 143.317 158.623 144.364C158.923 145.41 163.719 149.001 163.719 149.001L164.018 151.096C164.018 151.096 171.964 150.639 171.513 147.955C171.062 145.271 166.866 142.719 166.866 142.719C166.866 142.719 164.167 135.687 157.572 133.743C157.572 133.743 155.473 130.751 157.272 128.359C157.272 128.359 161.771 117.14 164.318 115.795C166.866 114.449 163.268 106.678 163.268 106.678L143.632 108.019Z" fill="#67647E"/>
<path opacity="0.05" d="M143.632 108.019C143.632 108.019 144.68 126.269 146.031 128.807C147.381 131.345 152.477 139.128 152.477 139.128C152.477 139.128 158.323 143.317 158.623 144.364C158.923 145.41 163.719 149.001 163.719 149.001L164.018 151.096C164.018 151.096 171.964 150.639 171.513 147.955C171.062 145.271 166.866 142.719 166.866 142.719C166.866 142.719 164.167 135.687 157.572 133.743C157.572 133.743 155.473 130.751 157.272 128.359C157.272 128.359 161.771 117.14 164.318 115.795C166.866 114.449 163.268 106.678 163.268 106.678L143.632 108.019Z" fill="black"/>
<path d="M158.321 150.055L163.128 160.076C162.379 162.619 155.182 161.721 155.182 161.721C155.182 161.721 149.636 154.242 149.336 151.549C149.036 148.855 145.289 146.612 145.289 146.612C139.893 140.778 143.49 133.897 143.94 130.306C143.94 130.237 143.961 130.162 143.972 130.077C144.371 127.67 146.797 120.743 148.684 115.555C149.956 112.06 150.984 109.355 150.984 109.355C150.984 109.355 161.026 109.812 163.116 113.394C164.078 115.039 163.647 116.75 162.899 118.121C162.313 119.157 161.565 120.092 160.683 120.892L157.27 129.102C157.27 129.102 151.277 140.031 153.534 140.931C155.791 141.831 158.321 150.055 158.321 150.055Z" fill="#67647E"/>
<path d="M140.42 61.3539C140.372 62.0227 140.179 62.6731 139.852 63.2591L139.68 63.5675L138.836 65.0866H136.137L136.08 64.3784L135.537 57.6075C135.537 57.6075 136.286 50.1283 138.836 51.1746C140.88 52.0152 140.608 58.736 140.42 61.3539Z" fill="#F7C4A7"/>
<path opacity="0.1" d="M139.68 63.5664L138.836 65.0855H136.137L136.08 64.3774C137.336 64.2677 138.831 64.0393 139.68 63.5664Z" fill="black"/>
<path d="M139.884 63.5918V67.0321L134.338 68.5284C134.338 68.5284 134.338 68.1697 134.322 67.6717C134.29 66.6209 134.191 64.9442 133.887 64.6403C133.889 64.6449 138.385 64.6449 139.884 63.5918Z" fill="#E6E6F0"/>
<path opacity="0.1" d="M139.884 65.6074V67.0306L134.338 68.5269C134.338 68.5269 134.338 68.1682 134.322 67.6702C136.169 67.3481 138.836 66.1168 139.884 65.6074Z" fill="black"/>
<path d="M172.234 71.2848C171.14 74.4373 172.561 75.8536 172.561 75.8536C172.561 75.8536 159.069 76.7514 162.368 74.3573C164.293 72.9593 165.147 69.8753 165.522 67.5543C165.682 66.5914 165.78 65.6193 165.817 64.644C165.817 64.644 176.599 64.4864 174.363 67.4858C173.464 68.6371 172.746 69.9181 172.234 71.2848Z" fill="#F7C4A7"/>
<path opacity="0.1" d="M174.365 67.4791C173.267 68.9549 172.907 69.1719 172.534 70.2364C172.197 70.2934 171.855 70.3217 171.513 70.3209C168.942 70.3209 166.44 69.7932 165.522 67.5568C165.682 66.5931 165.781 65.6203 165.818 64.6442C165.818 64.6442 176.597 64.4797 174.365 67.4791Z" fill="black"/>
<path d="M171.213 70.7712C174.608 70.7712 177.359 68.0251 177.359 64.6375C177.359 61.25 174.608 58.5039 171.213 58.5039C167.819 58.5039 165.067 61.25 165.067 64.6375C165.067 68.0251 167.819 70.7712 171.213 70.7712Z" fill="#F7C4A7"/>
<path d="M140.333 65.6836C140.333 65.6836 134.486 68.6762 132.838 67.9269L136.885 78.9971C136.885 78.9971 137.185 81.6904 142.432 82.8806C147.678 84.0708 150.226 85.1239 150.226 85.1239L159.969 73.6059L155.022 74.9514C155.022 74.9514 152.474 78.5425 150.673 77.3455C148.871 76.1485 143.331 76.7516 143.331 76.7516C143.331 76.7516 140.184 68.2284 140.333 65.6836Z" fill="#575988"/>
<path opacity="0.05" d="M140.333 65.6836C140.333 65.6836 134.486 68.6762 132.838 67.9269L136.885 78.9971C136.885 78.9971 137.185 81.6904 142.432 82.8806C147.678 84.0708 150.226 85.1239 150.226 85.1239L159.969 73.6059L155.022 74.9514C155.022 74.9514 152.474 78.5425 150.673 77.3455C148.871 76.1485 143.331 76.7516 143.331 76.7516C143.331 76.7516 140.184 68.2284 140.333 65.6836Z" fill="black"/>
<path opacity="0.1" d="M163.119 72.7466C163.119 72.7466 171.044 70.485 171.877 74.686C171.877 74.686 168.215 72.9042 162.968 76.0567C162.574 76.2851 162.19 76.5433 161.823 76.806C157.206 80.0338 153.981 85.0298 152.685 90.7043L149.336 105.347L149.036 109.283C149.036 109.283 144.229 110.229 143.341 108.811C142.453 107.392 143.041 102.668 144.389 101.094C145.738 99.5199 147.83 92.742 147.83 92.742L149.142 88.8128C150.24 85.508 151.985 82.454 154.276 79.8283L154.592 79.4468C156.566 77.0821 159.07 75.2135 161.901 73.9916C162.668 73.6604 163.224 73.2423 163.119 72.7466Z" fill="black"/>
<path d="M163.119 72.4478C163.119 72.4478 171.044 70.1862 171.877 74.3872C171.877 74.3872 168.215 72.6054 162.968 75.7579C162.574 75.9863 162.19 76.2444 161.823 76.5072C157.206 79.735 153.981 84.731 152.685 90.4055L149.336 105.049L149.036 108.985C149.036 108.985 144.229 109.93 143.341 108.512C142.453 107.093 143.041 102.369 144.389 100.795C145.738 99.221 147.837 92.4478 147.837 92.4478L149.148 88.5186C150.246 85.2138 151.992 82.1597 154.283 79.534L154.599 79.1525C156.573 76.7878 159.077 74.9192 161.908 73.6973C162.668 73.3615 163.224 72.9435 163.119 72.4478Z" fill="#E6E6F0"/>
<path opacity="0.1" d="M143.19 102.601L143.256 105.178L145.355 103.832C145.355 103.832 149.093 90.256 151.726 86.5553C152.035 86.119 152.184 85.4679 152.474 85.3583L163.192 75.0373V72.6387C163.192 72.6387 157.721 76.6775 157.27 77.4359C157.078 77.7535 154.205 79.3206 152.463 81.7763C150.912 84.0372 149.534 86.4122 148.342 88.8808L144.744 96.9585L143.19 102.601Z" fill="black"/>
<path d="M163.194 72.4902V74.8089L152.325 85.203C152.037 85.3126 151.886 85.9637 151.577 86.4C148.942 90.103 145.206 103.677 145.206 103.677L143.107 105.022L143.041 102.446L144.607 96.7986L148.205 88.721C149.397 86.2523 150.774 83.8773 152.325 81.6164C154.056 79.163 156.931 77.5959 157.133 77.2761C157.522 76.6319 161.747 73.5433 162.91 72.7072L163.194 72.4902Z" fill="#787C9C"/>
<path opacity="0.1" d="M169.167 58.1254C168.693 57.8969 168.157 57.5429 168.157 57.0152C168.157 56.6291 168.462 56.3093 168.782 56.1014C169.638 55.5189 169.572 54.4658 170.556 54.7947C171.215 55.0232 171.79 55.4321 172.431 55.6971C172.88 55.8823 173.356 55.9919 173.841 56.0214C174.148 56.0214 174.454 56.0458 174.757 56.0945C174.998 56.1575 175.229 56.2536 175.443 56.3801C176.81 57.1431 177.825 58.4075 178.273 59.9049C178.68 61.2939 178.639 62.9386 179.687 63.9369C179.877 64.09 180.052 64.2606 180.209 64.4463C180.344 64.6541 180.433 64.8875 180.473 65.1317C180.661 65.9608 180.59 66.8279 180.267 67.6148C180.103 68.0047 179.859 68.3563 179.551 68.6469C179.243 68.9376 178.878 69.161 178.479 69.303C178.124 69.4195 177.751 69.4583 177.389 69.5497C175.668 69.9838 174.448 71.4915 172.877 72.323C172.752 72.4014 172.609 72.4462 172.461 72.4532C172.299 72.4352 172.146 72.37 172.021 72.2659C171.415 71.8341 170.916 71.1625 170.932 70.4178C170.98 69.9528 171.116 69.501 171.332 69.086C171.661 68.309 171.912 67.5018 172.083 66.6759C172.137 66.4862 172.143 66.2858 172.099 66.0934C171.985 65.7302 171.582 65.5611 171.302 65.303C170.771 64.8118 170.707 63.9758 170.904 63.279C171.101 62.5823 171.513 61.9678 171.82 61.3121C171.925 61.1152 171.987 60.8978 172.001 60.6748C172.001 59.7999 170.815 59.3247 170.316 58.7467C169.666 57.9563 170.094 58.5823 169.167 58.1254Z" fill="black"/>
<path d="M169.318 58.1254C168.844 57.8969 168.308 57.5429 168.308 57.0152C168.308 56.6291 168.613 56.3093 168.933 56.1014C169.789 55.5189 169.723 54.4658 170.707 54.7947C171.366 55.0232 171.941 55.4321 172.582 55.6971C173.031 55.8823 173.507 55.9919 173.992 56.0214C174.301 56.0397 175.301 55.5646 175.594 55.6377C175.835 55.7006 176.067 55.7967 176.281 55.9232C177.648 56.6862 178.663 57.9506 179.11 59.4481C179.518 60.837 179.234 62.5731 180.282 63.56C180.459 63.729 180.218 64.2453 180.36 64.4349C180.495 64.6427 180.584 64.8761 180.624 65.1202C180.812 65.9494 180.74 66.8165 180.418 67.6034C180.253 67.9933 180.01 68.3448 179.702 68.6355C179.394 68.9262 179.029 69.1496 178.63 69.2916C178.275 69.4081 177.902 69.4469 177.54 69.5383C175.819 69.9723 174.599 71.48 173.028 72.3116C172.903 72.39 172.759 72.4348 172.612 72.4418C172.45 72.4238 172.297 72.3586 172.172 72.2545C171.566 71.8227 171.066 71.1511 171.083 70.4064C171.131 69.9413 171.267 69.4896 171.483 69.0746C171.812 68.2976 172.063 67.4904 172.234 66.6645C172.288 66.4748 172.294 66.2744 172.25 66.082C172.136 65.7188 171.733 65.5497 171.453 65.2916C170.922 64.8004 170.858 63.9643 171.055 63.2676C171.252 62.5708 171.664 61.9563 171.971 61.3007C172.076 61.1038 172.138 60.8863 172.152 60.6634C172.152 59.7884 170.966 59.3133 170.467 58.7353C169.817 57.9563 170.245 58.5823 169.318 58.1254Z" fill="#B96B6B"/>
<path opacity="0.1" d="M162.901 118.13C160.154 117.806 156.693 117.489 155.173 117.742C152.726 118.149 149.292 115.972 148.674 115.565C149.947 112.07 150.975 109.365 150.975 109.365C150.975 109.365 161.017 109.822 163.107 113.404C164.08 115.049 163.65 116.76 162.901 118.13Z" fill="black"/>
<path d="M176.011 79.4476C175.411 84.6835 169.416 92.0119 169.416 92.0119C169.416 92.0119 165.218 96.3523 166.568 111.16L166.717 118.34C166.717 118.34 157.872 116.994 155.176 117.442C152.479 117.89 148.581 115.199 148.581 115.199C148.581 115.199 147.079 89.3163 153.534 83.9365C154.326 82.7116 155.189 81.5332 156.116 80.4071C157.847 78.3169 160.2 75.9616 162.402 75.3814C162.686 75.3051 162.977 75.2606 163.27 75.2489C163.27 75.2489 170.016 71.5093 171.815 74.3511C171.813 74.3626 176.608 74.2118 176.011 79.4476Z" fill="#575988"/>
<path opacity="0.1" d="M148.654 107.347C148.654 107.347 151.053 106.301 155.1 106.6C159.147 106.9 166.353 103.309 166.353 103.309" fill="black"/>
<path opacity="0.05" d="M153.001 140.715C153.001 140.715 153.15 141.172 151.202 141.761C149.254 142.35 148.654 142.958 148.654 142.958" fill="black"/>
<path d="M139.065 60.1367H155.157C156.655 60.1367 157.87 58.9247 157.87 57.4297V41.3703C157.87 39.8753 156.655 38.6633 155.157 38.6633H139.065C137.566 38.6633 136.352 39.8753 136.352 41.3703V57.4297C136.352 58.9247 137.566 60.1367 139.065 60.1367Z" fill="#BA1C51"/>
<path d="M158.951 58.0012C158.94 58.708 158.765 59.4026 158.438 60.0297L157.572 61.6927L156.973 62.835L153.225 63.1342C153.225 63.1342 153.148 62.8258 153.051 62.3164C152.772 60.8201 152.33 57.5877 153.225 55.3558C154.425 52.3632 154.874 46.5288 157.117 47.8766C158.907 48.9503 158.992 55.3901 158.951 58.0012Z" fill="#F7C4A7"/>
<path opacity="0.1" d="M157.572 61.6443V61.69L156.973 62.8322L153.225 63.1315C153.225 63.1315 153.147 62.8231 153.051 62.3137C154.393 61.8042 156.151 61.3291 157.572 61.6443Z" fill="black"/>
<path d="M157.572 61.9432V64.6434L152.177 67.4852C152.177 67.4852 152.115 66.9986 152.001 66.3681C151.804 65.2876 151.451 63.7845 150.977 63.5971C150.977 63.5903 154.873 61.3447 157.572 61.9432Z" fill="#E6E6F0"/>
<path opacity="0.05" d="M172.167 86.3963C171.51 86.9742 170.74 87.4102 169.906 87.6768C169.071 87.9433 168.191 88.0347 167.319 87.9451C157.828 86.9834 157.572 83.6367 157.572 83.6367L156.116 80.4066C157.847 78.3163 160.2 75.9611 162.402 75.3809C163.975 77.9097 165.378 79.7349 165.378 79.7349C165.378 79.7349 172.424 74.3506 174.523 79.4357C175.738 82.4077 173.907 84.8634 172.167 86.3963Z" fill="black"/>
<path opacity="0.1" d="M157.572 63.5938V64.6446L152.177 67.4864C152.177 67.4864 152.115 66.9998 152 66.3693C154.326 65.6177 156.627 64.2083 157.572 63.5938Z" fill="black"/>
<path d="M158.172 63.5918C158.172 63.5918 154.125 66.4336 150.677 67.0321L157.723 82.5889C157.723 82.5889 157.982 85.9356 167.47 86.8973C168.342 86.9864 169.222 86.8948 170.056 86.6283C170.89 86.3618 171.659 85.9261 172.316 85.3485C174.056 83.8157 175.883 81.3599 174.661 78.3993C172.561 73.3142 165.516 78.6986 165.516 78.6986C165.516 78.6986 158.321 69.2754 158.172 63.5918Z" fill="#575988"/>
<path d="M216.6 164.158H182.112C181.774 164.158 181.5 164.431 181.5 164.768V166.746C181.5 167.083 181.774 167.356 182.112 167.356H216.6C216.937 167.356 217.211 167.083 217.211 166.746V164.768C217.211 164.431 216.937 164.158 216.6 164.158Z" fill="#BA1C51"/>
<path d="M212.708 160.959H178.22C177.883 160.959 177.609 161.232 177.609 161.569V163.547C177.609 163.884 177.883 164.157 178.22 164.157H212.708C213.045 164.157 213.319 163.884 213.319 163.547V161.569C213.319 161.232 213.045 160.959 212.708 160.959Z" fill="#BA1C51"/>
<path opacity="0.05" d="M212.708 160.959H178.22C177.883 160.959 177.609 161.232 177.609 161.569V163.547C177.609 163.884 177.883 164.157 178.22 164.157H212.708C213.045 164.157 213.319 163.884 213.319 163.547V161.569C213.319 161.232 213.045 160.959 212.708 160.959Z" fill="black"/>
</g>
<defs>
<linearGradient id="paint0_linear" x1="91.4053" y1="167.44" x2="91.4053" y2="0.970703" gradientUnits="userSpaceOnUse">
<stop stop-color="#808080" stop-opacity="0.25"/>
<stop offset="0.54" stop-color="#808080" stop-opacity="0.12"/>
<stop offset="1" stop-color="#808080" stop-opacity="0.1"/>
</linearGradient>
<linearGradient id="paint1_linear" x1="39688.5" y1="100909" x2="39688.5" y2="31288.6" gradientUnits="userSpaceOnUse">
<stop stop-color="#808080" stop-opacity="0.25"/>
<stop offset="0.54" stop-color="#808080" stop-opacity="0.12"/>
<stop offset="1" stop-color="#808080" stop-opacity="0.1"/>
</linearGradient>
<clipPath id="clip0">
<rect width="220" height="184" fill="white" transform="translate(0.5 0.970703)"/>
</clipPath>
</defs>
</svg>
