<svg width="490" height="376" viewBox="0 0 490 376" fill="none" xmlns="http://www.w3.org/2000/svg">
<g clip-path="url(#clip0)">
<path opacity="0.1" d="M478.126 255.647C477.687 255.967 477.283 256.279 476.852 256.581C475.265 257.703 473.603 258.716 471.879 259.613C462.844 264.373 451.707 266.698 440.86 268.277C416.531 271.822 391.694 272.511 366.961 273.186C300.134 275.02 233.145 276.849 166.481 272.625C140.142 270.958 113.223 268.168 89.3555 259.613C85.9344 258.39 82.5805 257.042 79.294 255.568C72.6433 252.581 66.2561 248.944 60.9444 244.601C55.9531 240.529 51.9057 235.853 49.4869 230.536C44.4429 219.463 47.1119 207.026 52.8714 196.173C55.2635 191.782 57.9611 187.564 60.9444 183.551C65.3913 177.44 70.2948 171.505 74.768 165.398C90.6856 143.691 101.072 116.229 86.3792 93.9646C82.1562 87.5684 76.0543 81.953 72.6126 75.276C68.2228 66.7346 68.5608 57.2499 69.9567 48.0372C70.1382 46.8674 70.3299 45.7092 70.5318 44.5627C72.9155 30.9016 77.4019 16.1833 91.2344 7.65499C105.602 -1.20673 126.006 -0.759258 143.838 2.3906C171.569 7.33912 197.148 17.6398 223 26.9402C248.852 36.2406 275.898 44.7382 304.309 45.6507C329.397 46.4579 358.66 40.417 375.311 24.716C391.483 9.46681 421.883 8.30426 443.792 17.5169C458.832 23.8386 470.053 35.2272 474.785 48.0372C475.743 50.609 476.433 53.2729 476.844 55.9864C477.223 58.4664 477.347 60.9787 477.212 63.4838C477.147 64.7209 477.019 65.9449 476.844 67.1557C473.183 92.4335 446.83 112.372 430.812 134.952C422.985 145.981 417.458 159.23 422.84 171.123C431.049 189.246 459.596 195.69 476.835 209.176C480.079 211.63 482.935 214.558 485.307 217.862C493.67 229.865 490.584 246.075 478.126 255.647Z" fill="#BA1C51"/>
<path d="M113.254 142.517C113.254 142.517 93.0606 106.754 62.6301 96.4532C49.86 92.1276 38.7141 83.9941 31.0934 72.8775C27.4855 67.5995 24.3703 62.0016 21.7869 56.1543" stroke="#535461" stroke-width="2" stroke-miterlimit="10"/>
<path d="M2.6515 49.5333C6.11949 52.8806 22.2654 56.3902 22.2654 56.3902C22.2654 56.3902 18.3145 40.3689 14.8377 37.0041C13.1665 35.4225 10.9389 34.5628 8.63774 34.6113C6.33658 34.6598 4.14722 35.6125 2.54413 37.263C0.941039 38.9136 0.0533558 41.1289 0.0734541 43.429C0.0935524 45.7291 1.01981 47.9286 2.6515 49.5509V49.5333Z" fill="#BA1C51"/>
<path d="M11.7867 78.5274C16.5234 79.4662 31.9801 73.6183 31.9801 73.6183C31.9801 73.6183 19.9299 62.3174 15.1889 61.3786C12.9356 60.9821 10.6166 61.4834 8.72878 62.7752C6.84098 64.0669 5.53462 66.0463 5.08968 68.2891C4.64474 70.5318 5.09661 72.8595 6.34847 74.7734C7.60032 76.6872 9.55253 78.0348 11.7867 78.5274Z" fill="#BA1C51"/>
<path d="M45.04 109.911C49.6054 108.332 59.9655 95.4913 59.9655 95.4913C59.9655 95.4913 43.8635 91.8106 39.3024 93.3899C38.1833 93.7374 37.1454 94.3059 36.2504 95.0619C35.3554 95.8179 34.6214 96.7459 34.0922 97.7908C33.5629 98.8356 33.2491 99.9761 33.1693 101.145C33.0896 102.313 33.2455 103.485 33.6279 104.592C34.0103 105.7 34.6113 106.719 35.3953 107.589C36.1794 108.459 37.1304 109.164 38.1919 109.66C39.2535 110.156 40.4039 110.434 41.575 110.477C42.7461 110.52 43.914 110.328 45.0092 109.911H45.04Z" fill="#BA1C51"/>
<path d="M75.5494 127.981C80.3168 127.192 92.7138 116.29 92.7138 116.29C92.7138 116.29 77.4678 109.942 72.7004 110.727C70.4109 111.105 68.3652 112.376 67.0134 114.261C65.6616 116.146 65.1145 118.49 65.4923 120.778C65.8701 123.066 67.1419 125.11 69.028 126.461C70.9141 127.812 73.2599 128.359 75.5494 127.981Z" fill="#BA1C51"/>
<path d="M45.4307 61.0983C45.4307 65.924 36.6949 79.9316 36.6949 79.9316C36.6949 79.9316 27.9415 65.9328 27.9371 61.1071C27.911 59.9427 28.118 58.7849 28.5458 57.7015C28.9736 56.6182 29.6138 55.6312 30.4286 54.7984C31.2434 53.9657 32.2164 53.3041 33.2906 52.8524C34.3648 52.4007 35.5185 52.168 36.6839 52.168C37.8493 52.168 39.003 52.4007 40.0772 52.8524C41.1514 53.3041 42.1245 53.9657 42.9393 54.7984C43.7541 55.6312 44.3942 56.6182 44.822 57.7015C45.2499 58.7849 45.4568 59.9427 45.4307 61.1071V61.0983Z" fill="#BA1C51"/>
<path d="M80.848 82.7121C79.4037 87.3185 66.8706 98.0666 66.8706 98.0666C66.8706 98.0666 62.7091 82.076 64.1358 77.4477C64.9026 75.3286 66.4585 73.5872 68.4789 72.5868C70.4993 71.5863 72.8283 71.404 74.9799 72.0779C77.1316 72.7519 78.9398 74.23 80.0274 76.2039C81.115 78.1779 81.3979 80.4953 80.8172 82.6727L80.848 82.7121Z" fill="#BA1C51"/>
<path d="M112.385 108.398C111.744 113.184 101.208 125.894 101.208 125.894C101.208 125.894 94.4039 110.855 95.0623 106.069C95.4033 103.799 96.624 101.753 98.4608 100.375C100.298 98.9964 102.603 98.3952 104.88 98.701C107.157 99.0069 109.222 100.195 110.629 102.01C112.036 103.824 112.673 106.119 112.402 108.398H112.385Z" fill="#BA1C51"/>
<path opacity="0.25" d="M2.6515 49.5333C6.11949 52.8806 22.2654 56.3902 22.2654 56.3902C22.2654 56.3902 18.3145 40.3689 14.8377 37.0041C13.1665 35.4225 10.9389 34.5628 8.63774 34.6113C6.33658 34.6598 4.14722 35.6125 2.54413 37.263C0.941039 38.9136 0.0533558 41.1289 0.0734541 43.429C0.0935524 45.7291 1.01981 47.9286 2.6515 49.5509V49.5333Z" fill="black"/>
<path opacity="0.25" d="M11.7867 78.5274C16.5234 79.4662 31.9801 73.6183 31.9801 73.6183C31.9801 73.6183 19.9299 62.3174 15.1889 61.3786C12.9356 60.9821 10.6166 61.4834 8.72878 62.7752C6.84098 64.0669 5.53462 66.0463 5.08968 68.2891C4.64474 70.5318 5.09661 72.8595 6.34847 74.7734C7.60032 76.6872 9.55253 78.0348 11.7867 78.5274Z" fill="black"/>
<path opacity="0.25" d="M45.04 109.911C49.6054 108.332 59.9655 95.4913 59.9655 95.4913C59.9655 95.4913 43.8635 91.8106 39.3024 93.3899C38.1833 93.7374 37.1454 94.3059 36.2504 95.0619C35.3554 95.8179 34.6214 96.7459 34.0922 97.7908C33.5629 98.8356 33.2491 99.9761 33.1693 101.145C33.0896 102.313 33.2455 103.485 33.6279 104.592C34.0103 105.7 34.6113 106.719 35.3953 107.589C36.1794 108.459 37.1304 109.164 38.1919 109.66C39.2535 110.156 40.4039 110.434 41.575 110.477C42.7461 110.52 43.914 110.328 45.0092 109.911H45.04Z" fill="black"/>
<path opacity="0.25" d="M75.5494 127.981C80.3168 127.192 92.7138 116.29 92.7138 116.29C92.7138 116.29 77.4678 109.942 72.7004 110.727C70.4109 111.105 68.3652 112.376 67.0134 114.261C65.6616 116.146 65.1145 118.49 65.4923 120.778C65.8701 123.066 67.1419 125.11 69.028 126.461C70.9141 127.812 73.2599 128.359 75.5494 127.981Z" fill="black"/>
<path opacity="0.25" d="M45.4307 61.0983C45.4307 65.924 36.6949 79.9316 36.6949 79.9316C36.6949 79.9316 27.9415 65.9328 27.9371 61.1071C27.911 59.9427 28.118 58.7849 28.5458 57.7015C28.9736 56.6182 29.6138 55.6312 30.4286 54.7984C31.2434 53.9657 32.2164 53.3041 33.2906 52.8524C34.3648 52.4007 35.5185 52.168 36.6839 52.168C37.8493 52.168 39.003 52.4007 40.0772 52.8524C41.1514 53.3041 42.1245 53.9657 42.9393 54.7984C43.7541 55.6312 44.3942 56.6182 44.822 57.7015C45.2499 58.7849 45.4568 59.9427 45.4307 61.1071V61.0983Z" fill="black"/>
<path opacity="0.25" d="M80.848 82.7121C79.4037 87.3185 66.8706 98.0666 66.8706 98.0666C66.8706 98.0666 62.7091 82.076 64.1358 77.4477C64.9026 75.3286 66.4585 73.5872 68.4789 72.5868C70.4993 71.5863 72.8283 71.404 74.9799 72.0779C77.1316 72.7519 78.9398 74.23 80.0274 76.2039C81.115 78.1779 81.3979 80.4953 80.8172 82.6727L80.848 82.7121Z" fill="black"/>
<path opacity="0.25" d="M112.385 108.398C111.744 113.184 101.208 125.894 101.208 125.894C101.208 125.894 94.4039 110.855 95.0623 106.069C95.4033 103.799 96.624 101.753 98.4608 100.375C100.298 98.9964 102.603 98.3952 104.88 98.701C107.157 99.0069 109.222 100.195 110.629 102.01C112.036 103.824 112.673 106.119 112.402 108.398H112.385Z" fill="black"/>
<path d="M112.091 141.806C112.091 141.806 108.14 100.928 84.4872 79.186C74.5705 70.0611 67.6784 58.1285 65.2157 44.8622C64.0598 38.5744 63.4837 32.1938 63.4949 25.8008" stroke="#535461" stroke-width="2" stroke-miterlimit="10"/>
<path d="M48.6792 12.0117C50.4878 16.4909 63.8374 26.208 63.8374 26.208C63.8374 26.208 66.7127 9.95424 64.9085 5.47513C64.0411 3.32265 62.3536 1.60267 60.2173 0.693563C58.0809 -0.215542 55.6707 -0.239303 53.5168 0.627505C51.3629 1.49431 49.6418 3.18069 48.7321 5.31565C47.8224 7.4506 47.7986 9.85926 48.666 12.0117H48.6792Z" fill="#BA1C51"/>
<path d="M45.2595 42.2166C49.2103 44.9935 65.703 45.9016 65.703 45.9016C65.703 45.9016 59.307 30.6963 55.3561 27.9194C53.459 26.5813 51.1076 26.0513 48.8194 26.4458C46.5312 26.8403 44.4934 28.127 43.1545 30.0229C41.8156 31.9188 41.2852 34.2687 41.68 36.5554C42.0747 38.8422 43.3623 40.8785 45.2595 42.2166Z" fill="#BA1C51"/>
<path d="M62.9549 84.3664C67.7837 84.7744 82.4634 77.2331 82.4634 77.2331C82.4634 77.2331 69.2368 67.3492 64.4211 66.9456C63.2624 66.8223 62.0907 66.9316 60.9749 67.267C59.859 67.6024 58.8214 68.1572 57.923 68.8988C57.0246 69.6404 56.2835 70.5539 55.7432 71.5856C55.2029 72.6174 54.8743 73.7466 54.7766 74.9069C54.679 76.0673 54.8142 77.2355 55.1745 78.343C55.5348 79.4504 56.1128 80.4748 56.8746 81.3559C57.6364 82.2371 58.5667 82.9572 59.6108 83.4742C60.6549 83.9912 61.7919 84.2945 62.9549 84.3664Z" fill="#BA1C51"/>
<path d="M83.5171 113.249C88.1966 114.46 103.952 109.511 103.952 109.511C103.952 109.511 92.5865 97.5348 87.9113 96.324C85.6796 95.7837 83.3249 96.1418 81.3551 97.3211C79.3853 98.5004 77.9583 100.406 77.3822 102.628C76.806 104.849 77.1269 107.208 78.2754 109.195C79.4239 111.182 81.3081 112.638 83.5215 113.249H83.5171Z" fill="#BA1C51"/>
<path d="M83.1001 39.9097C81.1466 44.3231 67.4765 53.584 67.4765 53.584C67.4765 53.584 65.1499 37.2468 67.1034 32.8292C67.5558 31.7603 68.2166 30.7922 69.0473 29.9812C69.878 29.1703 70.8619 28.5327 71.9417 28.1056C73.0215 27.6786 74.1756 27.4707 75.3366 27.4939C76.4977 27.5172 77.6425 27.7713 78.7042 28.2412C79.766 28.7112 80.7236 29.3877 81.521 30.2313C82.3185 31.075 82.9399 32.0688 83.3491 33.1549C83.7582 34.241 83.9469 35.3976 83.9042 36.5573C83.8614 37.7171 83.5881 38.8567 83.1001 39.9097Z" fill="#BA1C51"/>
<path d="M106.717 73.987C103.53 77.615 87.7137 82.3661 87.7137 82.3661C87.7137 82.3661 90.3828 66.0816 93.5742 62.4536C94.332 61.5912 95.2523 60.8863 96.2827 60.3794C97.3131 59.8724 98.4332 59.5732 99.5793 59.4988C100.725 59.4245 101.875 59.5765 102.962 59.9461C104.049 60.3157 105.053 60.8957 105.916 61.653C106.779 62.4103 107.485 63.33 107.992 64.3597C108.499 65.3894 108.799 66.5088 108.873 67.6542C108.947 68.7995 108.795 69.9482 108.425 71.0348C108.056 72.1214 107.475 73.1246 106.717 73.987Z" fill="#BA1C51"/>
<path d="M125.155 110.263C122.626 114.378 107.841 121.73 107.841 121.73C107.841 121.73 107.718 105.227 110.247 101.112C111.461 99.1336 113.412 97.7187 115.67 97.1782C117.928 96.6377 120.309 97.0158 122.288 98.2293C124.267 99.4428 125.683 101.392 126.224 103.649C126.765 105.906 126.387 108.285 125.172 110.263H125.155Z" fill="#BA1C51"/>
<path opacity="0.1" d="M179.176 373.64C206.216 373.64 228.136 370.788 228.136 367.27C228.136 363.752 206.216 360.9 179.176 360.9C152.136 360.9 130.216 363.752 130.216 367.27C130.216 370.788 152.136 373.64 179.176 373.64Z" fill="#BA1C51"/>
<path opacity="0.1" d="M80.2816 369.323C88.4957 369.323 95.1545 368.184 95.1545 366.779C95.1545 365.374 88.4957 364.234 80.2816 364.234C72.0676 364.234 65.4088 365.374 65.4088 366.779C65.4088 368.184 72.0676 369.323 80.2816 369.323Z" fill="#BA1C51"/>
<path d="M83.5125 338.447C83.5125 338.447 85.9226 341.602 82.3975 346.344C78.8725 351.086 75.9664 355.118 77.1297 358.088C77.1297 358.088 82.4458 349.248 86.7874 349.125C91.1289 349.002 88.2799 343.764 83.5125 338.447Z" fill="#BA1C51"/>
<path opacity="0.1" d="M83.5126 338.447C83.7231 338.753 83.8887 339.086 84.0043 339.439C88.2273 344.396 90.4793 349.024 86.4187 349.138C82.639 349.248 78.0999 356.004 77.0156 357.711C77.0514 357.843 77.0939 357.973 77.1429 358.101C77.1429 358.101 82.4591 349.261 86.8006 349.138C91.1422 349.016 88.28 343.764 83.5126 338.447Z" fill="black"/>
<path d="M87.9947 342.467C87.9947 343.577 87.8717 344.476 87.7181 344.476C87.5644 344.476 87.4371 343.598 87.4371 342.467C87.4371 341.335 87.5952 341.879 87.7488 341.879C87.9025 341.879 87.9947 341.357 87.9947 342.467Z" fill="#FFD037"/>
<path d="M89.5354 343.79C88.5609 344.321 87.7092 344.641 87.6346 344.505C87.56 344.369 88.2931 343.83 89.2676 343.299C90.2422 342.768 89.8559 343.154 89.9305 343.299C90.0051 343.444 90.51 343.259 89.5354 343.79Z" fill="#FFD037"/>
<path d="M70.7731 338.447C70.7731 338.447 68.3631 341.602 71.8882 346.344C75.4132 351.086 78.3193 355.118 77.156 358.088C77.156 358.088 71.8399 349.248 67.4983 349.125C63.1567 349.002 66.0145 343.764 70.7731 338.447Z" fill="#BA1C51"/>
<path opacity="0.1" d="M70.7732 338.447C70.5626 338.753 70.3971 339.086 70.2815 339.439C66.0585 344.396 63.8065 349.024 67.8671 349.138C71.6511 349.248 76.1858 356.004 77.2701 357.711C77.2363 357.843 77.1938 357.974 77.1428 358.101C77.1428 358.101 71.8267 349.261 67.4852 349.138C63.1436 349.016 66.0146 343.764 70.7732 338.447Z" fill="black"/>
<path d="M66.2911 342.467C66.2911 343.577 66.414 344.476 66.5677 344.476C66.7213 344.476 66.8486 343.598 66.8486 342.467C66.8486 341.335 66.6906 341.879 66.537 341.879C66.3833 341.879 66.2911 341.357 66.2911 342.467Z" fill="#FFD037"/>
<path d="M64.7547 343.79C65.7293 344.321 66.5765 344.641 66.6511 344.505C66.7258 344.369 65.9926 343.83 65.0181 343.299C64.0435 342.768 64.4299 343.154 64.3552 343.299C64.2806 343.444 63.7802 343.259 64.7547 343.79Z" fill="#FFD037"/>
<path d="M67.0594 357.69C67.0594 357.69 73.8023 357.479 75.8392 356.036C77.876 354.592 86.208 352.859 86.7128 355.18C87.2177 357.501 96.8446 366.714 89.2326 366.775C81.6206 366.836 71.5459 365.591 69.5178 364.358C67.4897 363.125 67.0594 357.69 67.0594 357.69Z" fill="#A8A8A8"/>
<path opacity="0.2" d="M89.3643 365.967C81.7523 366.028 71.6776 364.782 69.6495 363.549C68.1042 362.606 67.4897 359.233 67.2833 357.68H67.0594C67.0594 357.68 67.4984 363.111 69.5134 364.348C71.5283 365.585 81.6162 366.827 89.2282 366.765C91.4231 366.765 92.187 365.967 92.1431 364.809C91.8402 365.519 91.0017 365.954 89.3643 365.967Z" fill="black"/>
<path d="M292.233 357.43C292.233 357.43 273.672 356.312 275.863 369.31C275.863 369.31 275.424 371.605 277.509 372.649C277.509 372.649 277.544 371.688 279.414 372.013C280.08 372.125 280.756 372.157 281.429 372.109C282.341 372.049 283.208 371.692 283.896 371.091C283.896 371.091 289.111 368.942 291.139 360.418C291.139 360.418 292.641 358.558 292.584 358.08L289.449 359.396C289.449 359.396 290.521 361.655 289.678 363.533C289.678 363.533 289.577 359.479 288.975 359.584C288.852 359.584 287.347 360.365 287.347 360.365C287.347 360.365 289.19 364.314 287.786 367.156C287.786 367.156 288.312 362.331 286.758 360.65L284.563 361.936C284.563 361.936 286.715 365.998 285.257 369.315C285.257 369.315 285.63 364.23 284.103 362.247L282.105 363.805C282.105 363.805 284.125 367.81 282.891 370.561C282.891 370.561 282.733 364.643 281.671 364.195C281.671 364.195 279.915 365.735 279.656 366.389C279.656 366.389 281.038 369.293 280.182 370.828C280.182 370.828 279.656 366.88 279.221 366.88C279.221 366.88 277.465 369.512 277.298 371.267C277.298 371.267 277.377 368.604 278.8 366.612C277.796 366.803 276.869 367.284 276.135 367.994C276.135 367.994 276.407 366.147 279.208 365.985C279.208 365.985 280.648 364.002 281.034 363.884C281.034 363.884 278.225 363.647 276.521 364.401C276.521 364.401 278.018 362.646 281.548 363.449L283.519 361.844C283.519 361.844 279.822 361.335 278.251 361.896C278.251 361.896 280.06 360.352 284.05 361.458L286.201 360.177C286.201 360.177 283.045 359.497 281.166 359.738C281.166 359.738 283.15 358.667 286.829 359.826L288.365 359.137C288.365 359.137 286.052 358.698 285.376 358.615C284.7 358.531 284.664 358.356 284.664 358.356C286.128 358.112 287.631 358.279 289.006 358.839C289.006 358.839 292.29 357.637 292.233 357.43Z" fill="#BA1C51"/>
<path opacity="0.1" d="M279.449 376C286.703 376 292.584 375.006 292.584 373.78C292.584 372.554 286.703 371.561 279.449 371.561C272.195 371.561 266.315 372.554 266.315 373.78C266.315 375.006 272.195 376 279.449 376Z" fill="#BA1C51"/>
<path d="M259.717 358.123C259.717 358.123 249.252 357.491 250.498 364.822C250.435 365.194 250.491 365.576 250.659 365.914C250.826 366.252 251.095 366.528 251.429 366.704C251.429 366.704 251.429 366.16 252.504 366.344C252.879 366.405 253.259 366.424 253.637 366.401C254.151 366.364 254.638 366.162 255.029 365.827C255.029 365.827 257.97 364.611 259.115 359.808C259.115 359.808 259.958 358.759 259.928 358.492L258.172 359.242C258.172 359.242 258.773 360.518 258.299 361.576C258.299 361.576 258.242 359.29 257.904 359.343C257.834 359.343 256.986 359.781 256.986 359.781C256.986 359.781 258.022 361.975 257.241 363.611C257.241 363.611 257.535 360.878 256.662 359.939L255.419 360.668C255.419 360.668 256.631 362.958 255.81 364.826C255.81 364.826 256.021 361.957 255.156 360.843L254.032 361.72C254.032 361.72 255.169 363.98 254.471 365.528C254.471 365.528 254.379 362.19 253.782 361.94C253.354 362.3 252.973 362.711 252.645 363.164C252.645 363.164 253.426 364.804 252.943 365.669C252.943 365.669 252.645 363.444 252.403 363.436C252.403 363.436 251.42 364.91 251.319 365.919C251.364 364.983 251.654 364.075 252.162 363.287C251.597 363.393 251.075 363.663 250.661 364.063C250.661 364.063 250.814 363.019 252.417 362.931C252.417 362.931 253.224 361.812 253.444 361.747C253.444 361.747 251.859 361.611 250.898 362.036C250.898 362.036 251.745 361.054 253.734 361.501L254.844 360.593C254.844 360.593 252.759 360.308 251.877 360.624C251.877 360.624 252.895 359.746 255.147 360.387L256.354 359.667C255.424 359.461 254.47 359.379 253.518 359.422C253.518 359.422 254.638 358.821 256.71 359.47L257.588 359.084C257.588 359.084 256.271 358.825 255.907 358.785C255.542 358.746 255.503 358.641 255.503 358.641C256.329 358.503 257.177 358.598 257.952 358.913C257.952 358.913 259.748 358.241 259.717 358.123Z" fill="#BA1C51"/>
<path opacity="0.1" d="M252.509 368.594C256.599 368.594 259.915 368.035 259.915 367.344C259.915 366.654 256.599 366.094 252.509 366.094C248.419 366.094 245.103 366.654 245.103 367.344C245.103 368.035 248.419 368.594 252.509 368.594Z" fill="#BA1C51"/>
<path d="M279.634 342.589C279.634 342.589 267.004 341.825 268.492 350.674C268.416 351.123 268.483 351.584 268.685 351.992C268.887 352.401 269.213 352.735 269.616 352.946C269.616 352.946 269.616 352.293 270.911 352.508C271.364 352.58 271.823 352.602 272.281 352.574C272.901 352.529 273.491 352.286 273.962 351.88C273.962 351.88 277.513 350.415 278.892 344.611C278.892 344.611 279.915 343.348 279.875 343.023L277.742 343.931C277.742 343.931 278.47 345.471 277.9 346.748C277.9 346.748 277.829 343.988 277.417 344.054C277.338 344.054 276.311 344.585 276.311 344.585C276.311 344.585 277.566 347.265 276.618 349.209C276.618 349.209 276.978 345.91 275.92 344.778L274.419 345.655C274.419 345.655 275.885 348.419 274.893 350.678C274.893 350.678 275.147 347.217 274.102 345.853L272.742 346.91C272.742 346.91 274.12 349.634 273.282 351.508C273.282 351.508 273.172 347.48 272.448 347.173C272.448 347.173 271.258 348.222 271.078 348.652C271.078 348.652 272.022 350.63 271.433 351.674C271.433 351.674 271.078 348.994 270.784 348.981C270.784 348.981 269.598 350.735 269.467 351.977C269.523 350.85 269.875 349.758 270.485 348.81C269.802 348.939 269.172 349.266 268.672 349.748C268.672 349.748 268.857 348.489 270.779 348.38C270.779 348.38 271.758 347.033 272.022 346.949C272.022 346.949 270.108 346.792 268.949 347.305C268.949 347.305 269.967 346.116 272.373 346.656L273.716 345.563C273.716 345.563 271.196 345.217 270.13 345.598C270.13 345.598 271.359 344.55 274.081 345.313L275.542 344.436C275.542 344.436 273.396 343.997 272.118 344.142C272.118 344.142 273.466 343.414 275.973 344.199L277.017 343.734C277.017 343.734 275.441 343.422 274.98 343.374C274.52 343.326 274.498 343.199 274.498 343.199C275.494 343.033 276.517 343.147 277.452 343.528C277.452 343.528 279.678 342.729 279.634 342.589Z" fill="#BA1C51"/>
<path opacity="0.1" d="M270.937 355.227C275.876 355.227 279.88 354.552 279.88 353.718C279.88 352.885 275.876 352.209 270.937 352.209C265.999 352.209 261.995 352.885 261.995 353.718C261.995 354.552 265.999 355.227 270.937 355.227Z" fill="#BA1C51"/>
<path d="M477.66 256.495V41.9141H60.0312V244.185C65.3649 248.633 71.7785 252.375 78.4686 255.451C81.764 256.969 85.1295 258.356 88.5653 259.614H472.678L477.66 256.495Z" fill="url(#paint0_linear)"/>
<path d="M476.852 256.583V48.0566H60.9443V244.638C66.2561 248.963 72.6433 252.6 79.2939 255.605C82.5775 257.067 85.9314 258.416 89.3555 259.65H471.879L476.852 256.583Z" fill="white"/>
<path d="M476.852 42.5234H60.9487V53.5523H476.852V42.5234Z" fill="#5A5773"/>
<path d="M69.2544 50.8886C70.8303 50.8886 72.1078 49.6119 72.1078 48.0371C72.1078 46.4622 70.8303 45.1855 69.2544 45.1855C67.6785 45.1855 66.401 46.4622 66.401 48.0371C66.401 49.6119 67.6785 50.8886 69.2544 50.8886Z" fill="white"/>
<path d="M76.9367 50.8886C78.5125 50.8886 79.7901 49.6119 79.7901 48.0371C79.7901 46.4622 78.5125 45.1855 76.9367 45.1855C75.3608 45.1855 74.0833 46.4622 74.0833 48.0371C74.0833 49.6119 75.3608 50.8886 76.9367 50.8886Z" fill="white"/>
<path d="M84.6189 50.8886C86.1948 50.8886 87.4723 49.6119 87.4723 48.0371C87.4723 46.4622 86.1948 45.1855 84.6189 45.1855C83.043 45.1855 81.7655 46.4622 81.7655 48.0371C81.7655 49.6119 83.043 50.8886 84.6189 50.8886Z" fill="white"/>
<path d="M235.933 77.7891H167.232V120.931H235.933V77.7891Z" fill="#BA1C51"/>
<path opacity="0.2" d="M140.809 77.7891H72.1078V120.931H140.809V77.7891Z" fill="#5A5773"/>
<path opacity="0.2" d="M331.057 77.7891H262.355V120.931H331.057V77.7891Z" fill="#5A5773"/>
<path opacity="0.2" d="M140.809 139.465H72.1078V182.606H140.809V139.465Z" fill="#5A5773"/>
<path opacity="0.2" d="M235.933 139.465H167.232V182.606H235.933V139.465Z" fill="#5A5773"/>
<path opacity="0.2" d="M331.057 139.465H262.355V182.606H331.057V139.465Z" fill="#5A5773"/>
<path opacity="0.2" d="M140.809 201.139H72.1078V244.28H140.809V201.139Z" fill="#5A5773"/>
<path opacity="0.2" d="M235.933 201.139H167.232V244.28H235.933V201.139Z" fill="#5A5773"/>
<path opacity="0.2" d="M331.057 201.139H262.355V244.28H331.057V201.139Z" fill="#5A5773"/>
<path d="M219.098 115.581L214.357 117.257L212.636 114.405C211.319 112.212 209.493 109.211 208.145 107.031C205.766 103.197 208.878 97.3531 208.878 97.3531C208.878 97.3531 209.44 91.4877 211.442 89.6803C213.444 87.8728 214.001 97.3531 214.001 97.3531C222.039 101.003 217.732 109.588 217.732 109.588L218.514 112.993L219.098 115.581Z" fill="#EFB7B9"/>
<path opacity="0.1" d="M219.098 115.58L214.357 117.256L212.636 114.405V114.155C212.636 114.155 215.353 112.29 218.523 112.992L219.098 115.58Z" fill="black"/>
<path d="M211.442 134.796L213.817 132.787L212.627 114.704C212.627 114.704 218.773 110.501 223.321 117.077C223.321 117.077 223.136 121.096 223.321 122.192C223.505 123.289 222.043 124.386 223.321 125.478C224.598 126.571 223.321 130.229 223.321 130.229C223.321 130.229 224.765 132.787 225.678 133.515C226.591 134.243 227.509 140.276 225.678 141.552C223.847 142.829 220.415 145.755 220.415 147.032C220.415 148.308 216.025 151.419 216.025 151.419L212.17 146.325L211.442 134.796Z" fill="#FF6484"/>
<path d="M160.08 244.567C151.222 240.812 153.188 231.638 154.857 227.019C155.19 226.083 155.581 225.169 156.029 224.281L160.998 221.268C160.998 221.268 162.012 223.852 163.096 227.317C165.612 235.38 168.505 248.142 160.08 244.567Z" fill="#EFB7B9"/>
<path d="M172.258 328.265C171.658 329.433 171.215 330.675 170.941 331.959C170.502 334.024 170.311 336.135 170.37 338.245C170.405 339.706 170.528 340.663 170.528 340.663L160.66 347.445C160.66 347.445 160.717 346.651 160.814 345.484C161.068 342.378 161.599 336.613 162.1 335.868C162.447 335.35 162.688 333.271 162.842 331.34C162.995 329.41 163.057 327.717 163.057 327.717C163.057 327.717 174.931 323.268 172.258 328.265Z" fill="#EFB7B9"/>
<path d="M195.564 333.131C195.564 333.131 195.564 335.017 195.493 337.211C195.423 339.404 195.292 341.993 195.015 343.199C194.76 344.304 194.743 346.336 194.791 348.209C194.857 350.402 195.015 352.376 195.015 352.376C195.015 352.376 184.94 342.857 185.967 342.102C186.244 341.9 186.516 341.089 186.766 340.01C187.074 338.693 187.35 336.939 187.557 335.447C187.802 333.67 187.956 332.24 187.956 332.24L195.564 333.131Z" fill="#EFB7B9"/>
<path opacity="0.1" d="M172.258 328.265C171.658 329.433 171.215 330.675 170.941 331.959C168.24 331.888 165.544 331.682 162.864 331.34C163.013 329.454 163.079 327.717 163.079 327.717C163.079 327.717 174.931 323.268 172.258 328.265Z" fill="black"/>
<path opacity="0.1" d="M195.564 333.132C195.564 333.132 195.564 335.018 195.493 337.212C192.35 338.014 189.119 336.409 187.557 335.457C187.802 333.68 187.956 332.25 187.956 332.25L195.564 333.132Z" fill="black"/>
<path d="M216.192 239.821C212.171 248.595 210.524 259.001 210.524 259.001L209.063 267.774C209.063 267.774 209.796 271.609 209.063 273.07C208.329 274.53 206.868 276.908 206.868 276.908C206.868 276.908 207.965 285.858 206.868 286.77C205.77 287.683 206.868 293.162 206.868 293.162L203.211 311.587L198.092 335.33C193.158 339.353 186.591 334.237 186.591 334.237L188.039 318.712C188.039 318.712 190.234 291.512 189.321 290.398C188.408 289.284 189.686 285.831 189.686 285.831C189.686 285.831 190.968 282.541 190.054 281.264C189.141 279.988 190.234 277.246 190.234 277.246C190.234 277.246 189.87 266.103 190.968 263.545C192.065 260.988 190.968 245.168 190.968 245.168L190.529 240.242L190.274 237.513L190.252 237.245C190.252 237.245 190.085 238.338 189.813 240.031C189.005 245.186 187.284 255.868 186.604 258.066C186.141 259.65 185.513 261.181 184.73 262.633C184.73 262.633 185.678 268.112 184.73 269.573C183.781 271.034 184.585 272.679 184.585 272.679C184.585 272.679 185.498 277.246 182.754 279.071C180.01 280.896 182.754 281.813 182.754 281.813C182.754 281.813 180.744 286.2 180.015 288.02C179.286 289.841 180.015 292.407 180.015 292.407L178.553 307.2C178.553 307.2 177.271 313.408 177.456 317.611C177.64 321.813 175.809 331.491 175.809 331.491C175.809 331.491 161.735 331.491 159.567 329.846C157.398 328.201 163.189 312.153 163.189 312.153C163.189 312.153 164.835 284.024 164.466 283.296C164.097 282.567 164.466 277.084 165.748 275.991C167.03 274.899 165.748 272.701 165.748 272.701C165.748 272.701 165.383 268.314 165.748 267.222C166.112 266.129 165.691 262.471 165.691 262.471C165.691 262.471 164.466 253.521 164.286 248.406C164.106 243.291 163.189 231.788 163.189 231.788C163.189 231.788 164.146 224.672 164.29 221.286C164.343 220.04 164.901 218.482 165.607 217.017C166.398 215.363 167.308 213.767 168.329 212.244C168.329 212.244 211.635 199.452 213.452 200.724C213.935 201.062 214.638 203.356 215.331 206.677C217.263 215.955 219.15 233.372 216.192 239.821Z" fill="#444053"/>
<path d="M189.51 128.184C196.475 128.184 202.122 122.541 202.122 115.58C202.122 108.619 196.475 102.977 189.51 102.977C182.545 102.977 176.898 108.619 176.898 115.58C176.898 122.541 182.545 128.184 189.51 128.184Z" fill="#A1616A"/>
<path opacity="0.1" d="M215.331 206.686C213.878 207.431 212.904 207.945 212.904 207.945C212.904 207.945 192.434 217.627 186.613 217.078C182.109 216.64 170.612 216.89 165.603 217.013C166.394 215.358 167.304 213.763 168.325 212.24C168.325 212.24 211.635 199.452 213.452 200.724C213.935 201.07 214.638 203.356 215.331 206.686Z" fill="black"/>
<path d="M180.735 135.709C180.735 135.709 169.053 137.551 166.297 139.359C163.54 141.166 158.079 144.658 158.079 152.147C158.079 159.635 156.801 167.308 156.068 169.497C155.335 171.686 167.583 189.406 167.583 189.406L163.193 216.258C163.193 216.258 180.752 215.71 186.6 216.258C192.447 216.807 212.908 207.125 212.908 207.125C212.908 207.125 224.971 200.733 227.531 200.544C230.09 200.355 222.412 186.479 222.412 186.479C222.412 186.479 210.529 164.018 212.539 160.364C214.55 156.709 216.025 151.414 216.025 151.414L213.83 132.787C213.83 132.787 210.542 131.69 207.798 133.7C205.055 135.709 195.735 134.612 195.735 134.612L180.735 135.709Z" fill="#FF6484"/>
<path opacity="0.1" d="M160.906 168.22L156.323 169.497L155.054 186.685C155.054 186.685 156.7 191.252 155.054 192.713C153.408 194.174 153.044 225.409 153.044 225.409C153.044 225.409 158.347 229.243 164.558 226.321C164.558 226.321 163.645 222.851 166.389 210.247C169.132 197.644 169.128 191.252 169.128 191.252C169.128 191.252 169.128 175.542 170.41 172.984C171.692 170.427 170.41 164.035 170.41 164.035C170.41 164.035 167.851 160.565 168.031 159.288C168.211 158.012 160.906 168.22 160.906 168.22Z" fill="black"/>
<path opacity="0.1" d="M163.096 227.331C160.405 228.237 157.475 228.13 154.856 227.033C155.19 226.097 155.581 225.182 156.029 224.295L160.998 221.281C160.998 221.281 162.029 223.865 163.096 227.331Z" fill="black"/>
<path d="M160.629 168.22L156.059 169.497L154.782 186.685C154.782 186.685 156.428 191.252 154.782 192.712C153.136 194.173 152.771 225.409 152.771 225.409C152.771 225.409 158.079 229.239 164.286 226.304C164.286 226.304 163.373 222.834 166.112 210.23C168.851 197.626 168.856 191.234 168.856 191.234C168.856 191.234 168.856 175.524 170.133 172.967C171.411 170.409 170.133 164.017 170.133 164.017C170.133 164.017 167.574 160.547 167.758 159.27C167.943 157.994 160.629 168.22 160.629 168.22Z" fill="#FF6484"/>
<path opacity="0.1" d="M207.421 170.957C207.421 170.957 205.046 191.414 198.097 195.252C198.097 195.252 213.632 190.87 207.421 170.957Z" fill="black"/>
<path opacity="0.1" d="M172.513 172.787C172.513 172.787 181.099 176.985 179.097 179.907C177.096 182.829 172.513 172.787 172.513 172.787Z" fill="black"/>
<path opacity="0.1" d="M172.513 181.188C172.513 181.188 177.995 186.851 176.902 188.86C175.809 190.87 172.513 181.188 172.513 181.188Z" fill="black"/>
<path opacity="0.1" d="M216.74 134.248C216.74 134.248 218.891 137.898 219.098 140.276C219.304 142.653 216.74 134.248 216.74 134.248Z" fill="black"/>
<path opacity="0.1" d="M216.74 129.316C216.74 129.316 217.82 128.399 220.577 129.316C223.334 130.233 216.74 129.316 216.74 129.316Z" fill="black"/>
<path opacity="0.1" d="M206.187 236.074C201.659 236.716 197.041 236.125 192.82 234.363L190.515 240.26L190.261 237.531C190.638 235.241 191.371 232.788 192.82 232.17C192.82 232.17 197.895 236.21 206.187 236.074Z" fill="black"/>
<path opacity="0.1" d="M168.693 243.746C168.693 243.746 179.936 246.076 183.088 245.663L168.693 243.746Z" fill="black"/>
<path opacity="0.1" d="M169.861 246.69C169.861 246.69 174.659 246.484 177.056 247.445L169.861 246.69Z" fill="black"/>
<path opacity="0.1" d="M170.41 248.678C172.599 249.143 174.821 249.436 177.056 249.555L170.41 248.678Z" fill="black"/>
<path opacity="0.1" d="M170.133 273.815C170.34 273.679 179.729 271.486 180.897 273.061L170.133 273.815Z" fill="black"/>
<path opacity="0.1" d="M170.133 276.693C170.133 276.693 178.29 275.732 178.496 276.693C178.702 277.653 170.133 276.693 170.133 276.693Z" fill="black"/>
<path opacity="0.1" d="M170.133 279.294C170.133 279.294 178.838 277.495 179.865 277.934C180.893 278.373 170.133 279.294 170.133 279.294Z" fill="black"/>
<path opacity="0.1" d="M170.546 340.669L160.677 347.451C160.677 347.451 160.735 346.657 160.831 345.49C163.026 340.094 165.884 337.247 165.884 337.247C168.11 336.668 169.514 337.203 170.388 338.252C170.423 339.708 170.546 340.669 170.546 340.669Z" fill="black"/>
<path d="M171.507 346.761C170.113 349.94 169.411 353.38 169.448 356.851C169.504 359.697 168.781 362.505 167.359 364.971C167.153 365.319 166.921 365.65 166.665 365.963C166.665 365.963 159.808 365.906 157.407 363.918C157.137 363.705 156.917 363.435 156.762 363.129C155.388 360.391 159.435 349.911 159.435 349.911C161.56 341.83 165.875 337.513 165.875 337.513C173.562 335.526 171.507 346.761 171.507 346.761Z" fill="#444053"/>
<path opacity="0.1" d="M167.359 364.951C167.153 365.299 166.921 365.63 166.665 365.943C166.665 365.943 159.808 365.886 157.407 363.898C158.588 359.994 162.354 348.18 164.119 350.189C165.778 352.076 166.933 361.152 167.359 364.951Z" fill="black"/>
<path d="M166.419 350.92L165.941 368.617H168.241C168.241 368.617 168.614 353.092 169.642 350.92C170.669 348.749 166.419 350.92 166.419 350.92Z" fill="#444053"/>
<path opacity="0.1" d="M195.015 352.376C195.015 352.376 184.94 342.857 185.967 342.102C186.244 341.9 186.516 341.089 186.766 340.01C188.702 339.672 192.034 340.479 194.791 348.209C194.857 350.402 195.015 352.376 195.015 352.376Z" fill="black"/>
<path d="M196.521 362.993C196.443 363.027 196.362 363.05 196.279 363.064C195.094 363.27 190.726 363.151 188.281 363.064C187.833 363.049 187.408 362.861 187.096 362.539C186.784 362.218 186.609 361.787 186.608 361.339C186.608 360.681 186.608 359.879 186.556 359.023C186.441 356.321 186.117 353.105 185.146 352.381C183.43 351.065 182.074 346.599 185.146 340.944C185.146 340.944 191.038 336.448 195.287 349.964C195.287 349.964 195.7 353.82 197.548 355.189C199.396 356.558 197.346 362.603 196.521 362.993Z" fill="#444053"/>
<path opacity="0.1" d="M196.27 363.065C195.085 363.271 190.717 363.152 188.272 363.065C187.824 363.05 187.399 362.862 187.087 362.54C186.775 362.219 186.6 361.789 186.6 361.341C186.6 360.683 186.6 359.88 186.547 359.024C187.289 355.752 188.355 352.382 189.73 351.615C189.738 351.61 193.896 351.141 196.27 363.065Z" fill="black"/>
<path d="M185.893 351.216L186.999 365.943H188.404V349.961L185.893 351.216Z" fill="#444053"/>
<path opacity="0.1" d="M189.326 95.4962C185.343 95.7925 181.489 97.0299 178.079 99.1067C177.201 99.6376 176.323 100.282 175.959 101.234C175.642 102.059 175.774 102.989 175.787 103.867C175.906 111.421 167.477 117.137 167.741 124.687C167.846 127.684 169.352 130.474 169.628 133.461C170.089 138.445 167.139 143.029 164.312 147.157C167.225 147.335 170.094 146.384 172.324 144.503C175.307 154.44 175.692 164.975 173.443 175.103H177.486C177.885 175.073 178.287 175.123 178.667 175.247C179.022 175.416 179.34 175.653 179.602 175.945C183.382 179.704 185.915 185.263 184.47 190.396L193.075 187.171C195.133 186.399 197.223 185.614 199.014 184.342C200.805 183.069 202.306 181.222 202.684 179.055C202.917 177.739 202.842 176.169 203.926 175.405C204.46 175.121 205.03 174.91 205.621 174.778C207.983 173.944 209.027 171.216 209.51 168.759C210.098 165.745 210.283 162.666 210.059 159.603C209.677 154.471 208.158 149.259 209.409 144.249C210.116 141.437 211.688 138.818 211.815 135.914C212.021 131.127 208.277 127.004 207.719 122.244C207.328 118.927 208.527 115.571 208.136 112.255C207.919 110.543 207.292 108.908 206.309 107.49C205.325 106.072 204.014 104.912 202.486 104.108C201.428 103.564 200.291 103.2 199.247 102.599C196.863 101.217 195.34 98.7294 193.176 97.0185C191.011 95.3076 187.407 94.6627 185.779 96.8869L189.326 95.4962Z" fill="black"/>
<path d="M189.326 94.9484C185.343 95.2446 181.489 96.4821 178.079 98.5589C177.201 99.0897 176.323 99.7346 175.959 100.687C175.642 101.511 175.774 102.441 175.787 103.319C175.906 110.873 167.477 116.589 167.741 124.144C167.846 127.136 169.352 129.926 169.628 132.918C170.089 137.901 167.139 142.486 164.312 146.618C167.224 146.789 170.091 145.839 172.324 143.964C175.306 153.898 175.692 164.43 173.443 174.555H177.486C177.886 174.527 178.287 174.578 178.667 174.704C179.023 174.869 179.341 175.105 179.602 175.397C183.382 179.161 185.915 184.715 184.47 189.848L193.075 186.623C195.133 185.851 197.223 185.066 199.014 183.794C200.805 182.521 202.306 180.675 202.684 178.507C202.917 177.191 202.842 175.621 203.926 174.857C204.46 174.573 205.03 174.362 205.621 174.23C207.983 173.396 209.027 170.668 209.51 168.211C210.103 165.195 210.292 162.113 210.072 159.047C209.69 153.914 208.171 148.702 209.422 143.692C210.129 140.88 211.701 138.261 211.828 135.357C212.034 130.571 208.29 126.447 207.732 121.687C207.342 118.371 208.54 115.019 208.149 111.698C207.932 109.986 207.305 108.352 206.321 106.934C205.338 105.516 204.027 104.356 202.5 103.551C201.442 103.007 200.305 102.643 199.26 102.047C196.876 100.66 195.353 98.1728 193.189 96.4619C191.025 94.751 187.42 94.1061 185.792 96.3303L189.326 94.9484Z" fill="#925978"/>
<g opacity="0.1">
<path opacity="0.1" d="M175.779 101.494C175.761 101.663 175.752 101.833 175.752 102.003C175.765 101.836 175.774 101.665 175.779 101.494Z" fill="black"/>
<path opacity="0.1" d="M207.684 119.055C207.842 116.73 208.36 114.396 208.167 112.08C208.022 114.405 207.504 116.739 207.684 119.055Z" fill="black"/>
<path opacity="0.1" d="M169.628 130.615C169.374 127.895 168.105 125.35 167.807 122.635C167.747 123.133 167.725 123.634 167.741 124.135C167.846 127.096 169.317 129.865 169.615 132.813C169.688 132.082 169.692 131.346 169.628 130.615Z" fill="black"/>
<path opacity="0.1" d="M209.44 141.42C209.029 143.205 208.881 145.041 209.001 146.869C209.045 145.803 209.192 144.743 209.44 143.706C210.147 140.894 211.718 138.275 211.845 135.37C211.866 134.855 211.843 134.338 211.775 133.826C211.433 136.436 210.068 138.867 209.44 141.42Z" fill="black"/>
<path opacity="0.1" d="M172.324 141.656C170.493 143.19 168.227 144.11 165.844 144.288C165.344 145.069 164.826 145.833 164.312 146.587C167.224 146.758 170.091 145.808 172.324 143.933C173.927 149.266 174.787 154.795 174.879 160.362C175.009 154.032 174.147 147.72 172.324 141.656Z" fill="black"/>
<path opacity="0.1" d="M209.523 165.911C209.041 168.368 207.996 171.097 205.634 171.926C205.043 172.058 204.473 172.27 203.94 172.558C202.855 173.321 202.93 174.9 202.697 176.208C202.32 178.375 200.823 180.217 199.027 181.472C197.232 182.727 195.147 183.534 193.088 184.306L184.879 187.377C184.836 188.201 184.704 189.017 184.484 189.812L193.088 186.587C195.147 185.815 197.236 185.03 199.027 183.758C200.818 182.485 202.32 180.639 202.697 178.471C202.93 177.155 202.855 175.585 203.94 174.821C204.474 174.537 205.044 174.326 205.634 174.194C207.996 173.361 209.041 170.632 209.523 168.175C210.023 165.619 210.231 163.014 210.142 160.41C210.084 162.258 209.877 164.097 209.523 165.911Z" fill="black"/>
<path opacity="0.1" d="M179.615 173.086C179.354 172.792 179.036 172.555 178.68 172.388C178.3 172.264 177.899 172.213 177.499 172.239H173.913C173.772 173.002 173.623 173.766 173.474 174.525H177.517C177.917 174.497 178.318 174.548 178.698 174.674C179.053 174.839 179.371 175.075 179.633 175.367C182.398 178.122 184.492 181.833 184.852 185.641C185.296 181.088 182.934 176.402 179.615 173.086Z" fill="black"/>
</g>
<path opacity="0.1" d="M159.558 188.036C159.558 188.036 162.824 186.667 163.553 188.036C164.282 189.405 159.558 188.036 159.558 188.036Z" fill="black"/>
<path opacity="0.1" d="M160.713 190.384C160.713 190.384 163.979 189.015 164.712 190.384C165.445 191.752 160.713 190.384 160.713 190.384Z" fill="black"/>
<path opacity="0.1" d="M363.133 13.2579C363.133 13.2579 346.43 12.2533 348.401 23.949C348.401 23.949 348.01 26.0153 349.885 26.9541C349.885 26.9541 349.915 26.0767 351.597 26.3794C352.195 26.4801 352.804 26.5096 353.41 26.4671C354.227 26.4106 355.004 26.0886 355.622 25.5503C355.622 25.5503 360.315 23.6156 362.141 15.9471C362.141 15.9471 363.493 14.2713 363.458 13.8414L360.64 15.0478C360.64 15.0478 361.601 17.079 360.842 18.768C360.842 18.768 360.754 15.118 360.209 15.2057C360.1 15.2057 358.748 15.9077 358.748 15.9077C358.748 15.9077 360.403 19.448 359.152 22.0231C359.152 22.0231 359.626 17.6625 358.23 16.1665L356.237 17.3466C356.237 17.3466 358.173 21.001 356.86 23.9841C356.86 23.9841 357.198 19.4085 355.82 17.6274L354.02 19.0268C354.02 19.0268 355.842 22.611 354.744 25.0852C354.744 25.0852 354.599 19.7551 353.642 19.3558C353.642 19.3558 352.071 20.7421 351.834 21.3124C351.834 21.3124 353.076 23.9446 352.303 25.3046C352.303 25.3046 351.829 21.7599 351.425 21.7424C351.425 21.7424 349.858 24.0938 349.696 25.6906C349.772 24.2006 350.237 22.7563 351.043 21.5011C350.139 21.6721 349.306 22.1054 348.647 22.747C348.647 22.747 348.888 21.0843 351.43 20.9351C351.43 20.9351 352.725 19.154 353.072 19.0444C353.072 19.0444 350.543 18.8338 349.011 19.5138C349.011 19.5138 350.359 17.9432 353.537 18.6364L355.293 17.1887C355.293 17.1887 351.965 16.75 350.552 17.2369C350.552 17.2369 352.176 15.8506 355.771 16.8596L357.703 15.7059C357.703 15.7059 354.867 15.0917 353.177 15.3154C353.177 15.3154 354.959 14.3547 358.269 15.3944L359.652 14.7758C359.652 14.7758 357.571 14.3678 356.965 14.302C356.36 14.2362 356.324 14.0695 356.324 14.0695C357.641 13.8506 358.992 14.0025 360.227 14.5082C360.227 14.5082 363.181 13.4422 363.133 13.2579Z" fill="#BA1C51"/>
<path opacity="0.1" d="M339.327 3.77344C339.327 3.77344 325.279 12.8589 333.8 21.1108C333.8 21.1108 334.709 23.006 336.777 22.655C336.777 22.655 336.285 21.9356 337.817 21.1766C338.36 20.9033 338.869 20.5661 339.331 20.172C339.957 19.6419 340.393 18.9228 340.574 18.1233C340.574 18.1233 343.208 13.7802 340.135 6.52408C340.135 6.52408 340.231 4.37445 339.933 4.05859L338.379 6.69078C338.379 6.69078 340.359 7.75682 340.749 9.56426C340.749 9.56426 338.515 6.68201 338.115 7.07245C338.036 7.15142 337.352 8.507 337.352 8.507C337.352 8.507 340.789 10.3759 341.302 13.1879C341.302 13.1879 339.108 9.39317 337.084 9.02028L336.171 11.126C336.171 11.126 339.902 12.9247 340.613 16.1053C340.613 16.1053 338.168 12.2184 336.004 11.5998L335.389 13.7933C335.389 13.7933 338.989 15.6183 339.564 18.268C339.564 18.268 336.289 14.0653 335.28 14.3198C335.28 14.3198 334.841 16.3641 334.981 16.952C334.981 16.952 337.536 18.3207 337.729 19.8912C337.729 19.8912 335.244 17.3161 334.924 17.531C334.924 17.531 335.056 20.3519 335.877 21.7469C335.056 20.5014 334.575 19.0633 334.481 17.5749C333.854 18.2478 333.439 19.0899 333.287 19.9965C333.287 19.9965 332.496 18.5137 334.459 16.8905C334.459 16.8905 334.459 14.697 334.656 14.3943C334.656 14.3943 332.496 15.7104 331.662 17.1757C331.662 17.1757 331.82 15.1138 334.801 13.8065L335.372 11.5911C335.372 11.5911 332.422 13.1967 331.583 14.4382C331.583 14.4382 332.071 12.3588 335.561 11.0427L336.438 8.96763C336.438 8.96763 333.805 10.1565 332.558 11.3366C332.558 11.3366 333.436 9.50284 336.711 8.38416L337.457 7.06807C337.457 7.06807 335.539 7.97179 335.012 8.27888C334.485 8.58597 334.358 8.4719 334.358 8.4719C335.288 7.51559 336.466 6.83663 337.76 6.51092C337.76 6.51092 339.476 3.89627 339.327 3.77344Z" fill="#BA1C51"/>
<path opacity="0.1" d="M317.948 14.3598C317.948 14.3598 309.551 28.8369 320.89 32.3157C320.89 32.3157 322.562 33.5924 324.243 32.3157C324.243 32.3157 323.484 31.9034 324.502 30.5302C324.856 30.0401 325.151 29.51 325.38 28.9509C325.698 28.1944 325.761 27.3554 325.56 26.56C325.56 26.56 325.934 21.4974 319.897 16.4217C319.897 16.4217 319.019 14.4651 318.58 14.3203L318.392 17.3912C318.392 17.3912 320.639 17.4438 321.811 18.8784C321.811 18.8784 318.51 17.321 318.343 17.8431C318.308 17.9484 318.313 19.4662 318.313 19.4662C318.313 19.4662 322.259 19.5847 324.015 21.8572C324.015 21.8572 320.328 19.475 318.365 20.0541L318.506 22.3441C318.506 22.3441 322.645 22.2564 324.722 24.7701C324.722 24.7701 320.771 22.4143 318.576 22.8442L319.015 25.0772C319.015 25.0772 323.054 25.0772 324.766 27.1742C324.766 27.1742 319.937 24.9105 319.151 25.5817C319.151 25.5817 319.682 27.6085 320.086 28.0779C320.086 28.0779 322.984 28.1393 323.87 29.451C323.87 29.451 320.486 28.2797 320.297 28.6219C320.297 28.6219 321.697 31.0742 323.063 31.9428C321.767 31.209 320.685 30.1506 319.924 28.8719C319.671 29.7554 319.683 30.6934 319.959 31.5699C319.959 31.5699 318.58 30.6092 319.59 28.2709C319.59 28.2709 318.58 26.3143 318.638 25.959C318.638 25.959 317.321 28.1218 317.233 29.7932C317.233 29.7932 316.434 27.8849 318.497 25.3711L318.001 23.1338C318.001 23.1338 316.1 25.902 315.916 27.3891C315.916 27.3891 315.407 25.3141 317.922 22.5635L317.755 20.3217C317.755 20.3217 315.938 22.581 315.376 24.191C315.376 24.191 315.314 22.1642 317.733 19.6768L317.799 18.1633C317.799 18.1633 316.482 19.8348 316.17 20.3568C315.859 20.8789 315.674 20.8043 315.674 20.8043C316.07 19.5293 316.812 18.3889 317.817 17.5097C317.817 17.5097 318.133 14.3993 317.948 14.3598Z" fill="#BA1C51"/>
<path d="M390.052 179.388C388.809 179.388 387.595 179.757 386.562 180.446C385.529 181.136 384.724 182.117 384.248 183.264C383.773 184.411 383.648 185.673 383.891 186.891C384.133 188.109 384.731 189.227 385.61 190.105C386.488 190.983 387.608 191.581 388.826 191.823C390.045 192.066 391.308 191.941 392.456 191.466C393.604 190.991 394.585 190.186 395.275 189.154C395.965 188.122 396.334 186.908 396.334 185.666C396.329 184.003 395.666 182.409 394.489 181.232C393.312 180.056 391.716 179.393 390.052 179.388ZM371.685 130.127V136.405H377.967L389.275 159.296L384.547 166.986C384.031 167.896 383.76 168.924 383.761 169.97C383.761 174.172 386.637 176.247 390.535 176.247H427.265V170.211H391.303C391.198 170.217 391.093 170.201 390.995 170.164C390.897 170.127 390.807 170.069 390.733 169.995C390.659 169.921 390.601 169.832 390.564 169.734C390.527 169.635 390.511 169.53 390.517 169.426C390.6 169.154 390.712 168.892 390.851 168.645L393.99 163.692H417.392C418.523 163.701 419.634 163.398 420.604 162.817C421.573 162.236 422.364 161.398 422.888 160.397L434.201 140.958C434.421 140.465 434.529 139.928 434.517 139.388C434.512 138.984 434.427 138.585 434.265 138.215C434.104 137.844 433.87 137.51 433.576 137.232C433.283 136.954 432.937 136.737 432.559 136.595C432.181 136.453 431.777 136.388 431.374 136.405H384.881L381.895 130.127H371.685ZM420.978 179.388C419.736 179.389 418.522 179.758 417.49 180.449C416.457 181.139 415.653 182.12 415.178 183.267C414.703 184.414 414.579 185.676 414.822 186.894C415.065 188.111 415.664 189.229 416.542 190.107C417.421 190.984 418.54 191.582 419.759 191.824C420.977 192.066 422.24 191.941 423.388 191.466C424.535 190.99 425.516 190.186 426.206 189.154C426.896 188.121 427.265 186.908 427.265 185.666C427.26 184.002 426.596 182.407 425.418 181.231C424.24 180.054 422.644 179.392 420.978 179.388Z" fill="#BA1C51"/>
<path d="M412.941 147.495H407.673V142.23H403.722V147.495H398.454V151.443H403.722V156.708H407.673V151.443H412.941V147.495Z" fill="white"/>
</g>
<defs>
<linearGradient id="paint0_linear" x1="268.843" y1="259.614" x2="268.843" y2="41.9141" gradientUnits="userSpaceOnUse">
<stop stop-color="#808080" stop-opacity="0.25"/>
<stop offset="0.54" stop-color="#808080" stop-opacity="0.12"/>
<stop offset="1" stop-color="#808080" stop-opacity="0.1"/>
</linearGradient>
<clipPath id="clip0">
<rect width="490" height="376" fill="white"/>
</clipPath>
</defs>
</svg>
