<svg width="16" height="14" viewBox="0 0 16 14" fill="none" xmlns="http://www.w3.org/2000/svg">
<path d="M16 2.03333C15.4 2.3 14.8 2.5 14.1333 2.56667C14.8 2.16667 15.3333 1.5 15.6 0.766667C14.9333 1.16667 14.2667 1.43333 13.5333 1.56667C12.8667 0.9 12 0.5 11.0667 0.5C9.26667 0.5 7.8 1.96667 7.8 3.76667C7.8 4.03333 7.8 4.3 7.86667 4.5C5.13333 4.36667 2.73333 3.1 1.13333 1.1C0.8 1.56667 0.666667 2.16667 0.666667 2.76667C0.666667 3.9 1.26667 4.9 2.13333 5.5C1.6 5.43333 1.06667 5.3 0.666667 5.1C0.666667 5.1 0.666667 5.1 0.666667 5.16667C0.666667 6.76667 1.8 8.1 3.26667 8.36667C3 8.43333 2.73333 8.5 2.4 8.5C2.2 8.5 2 8.5 1.8 8.43333C2.2 9.76667 3.4 10.7 4.86667 10.7C3.73333 11.5667 2.33333 12.1 0.8 12.1C0.533333 12.1 0.266667 12.1 0 12.0333C1.46667 12.9667 3.2 13.5 5 13.5C11.0667 13.5 14.3333 8.5 14.3333 4.16667C14.3333 4.03333 14.3333 3.9 14.3333 3.76667C15 3.3 15.5333 2.7 16 2.03333Z" fill="#F6F6F6"/>
</svg>
