<svg width="25" height="26" viewBox="0 0 25 26" fill="none" xmlns="http://www.w3.org/2000/svg">
<circle cx="12.5" cy="13" r="12.5" fill="white"/>
<path d="M12.0267 14.72L11.2887 9.482V5.936H13.7367V9.482L13.0347 14.72H12.0267ZM12.5127 18.716C11.9967 18.716 11.6247 18.596 11.3967 18.356C11.1687 18.116 11.0547 17.81 11.0547 17.438V17.078C11.0547 16.706 11.1687 16.4 11.3967 16.16C11.6247 15.92 11.9967 15.8 12.5127 15.8C13.0167 15.8 13.3827 15.92 13.6107 16.16C13.8387 16.4 13.9527 16.706 13.9527 17.078V17.438C13.9527 17.81 13.8387 18.116 13.6107 18.356C13.3827 18.596 13.0167 18.716 12.5127 18.716Z" fill="#BA1C51"/>
</svg>
