<svg width="18" height="18" viewBox="0 0 18 18" fill="none" xmlns="http://www.w3.org/2000/svg">
<circle cx="9" cy="9" r="9" fill="#BA1C51"/>
<path d="M8.68444 10.48L8.19244 6.988V4.624H9.82444V6.988L9.35644 10.48H8.68444ZM9.00844 13.144C8.66444 13.144 8.41644 13.064 8.26444 12.904C8.11244 12.744 8.03644 12.54 8.03644 12.292V12.052C8.03644 11.804 8.11244 11.6 8.26444 11.44C8.41644 11.28 8.66444 11.2 9.00844 11.2C9.34444 11.2 9.58844 11.28 9.74044 11.44C9.89244 11.6 9.96844 11.804 9.96844 12.052V12.292C9.96844 12.54 9.89244 12.744 9.74044 12.904C9.58844 13.064 9.34444 13.144 9.00844 13.144Z" fill="white"/>
</svg>
