<svg width="24" height="24" viewBox="0 0 24 24" fill="none" xmlns="http://www.w3.org/2000/svg">
<path d="M21.6204 17.8347C22.6812 16.0893 23.2545 14.0881 23.28 12.0421C23.3055 9.99616 22.7822 7.98115 21.7653 6.20946L23.581 4.38249C23.7134 4.24919 23.8185 4.09093 23.8902 3.91675C23.9618 3.74258 23.9987 3.5559 23.9987 3.36737C23.9987 3.17884 23.9618 2.99216 23.8902 2.81799C23.8185 2.64381 23.7134 2.48556 23.581 2.35225L21.6637 0.423016C21.5313 0.289705 21.3741 0.183956 21.201 0.111808C21.028 0.0396594 20.8425 0.00252518 20.6552 0.00252518C20.4679 0.00252518 20.2825 0.0396594 20.1094 0.111808C19.9364 0.183956 19.7792 0.289705 19.6467 0.423016L17.8769 2.20263C16.1259 1.12682 14.1169 0.551199 12.0656 0.537519C10.0142 0.523839 7.99786 1.07262 6.23286 2.12498L4.5395 0.420491C4.40706 0.28718 4.24984 0.181431 4.0768 0.109282C3.90377 0.0371342 3.71831 0 3.53101 0C3.34372 0 3.15826 0.0371342 2.98522 0.109282C2.81218 0.181431 2.65496 0.28718 2.52252 0.420491L0.608403 2.35225C0.475963 2.48556 0.370904 2.64381 0.299228 2.81799C0.227551 2.99216 0.190659 3.17884 0.190659 3.36737C0.190659 3.5559 0.227551 3.74258 0.299228 3.91675C0.370904 4.09093 0.475963 4.24919 0.608403 4.38249L2.29486 6.08004C1.40201 7.58259 0.868457 9.27352 0.736346 11.0193H8.34704C8.53368 10.2908 8.93159 9.63483 9.49004 9.13488C10.0485 8.63493 10.7422 8.31369 11.4827 8.21211C12.2232 8.11053 12.977 8.23321 13.648 8.56451C14.319 8.89581 14.8768 9.42073 15.2503 10.0723L17.4241 8.80976C16.8744 7.84909 16.0827 7.05138 15.1289 6.49717C14.1751 5.94297 13.0929 5.65187 11.9915 5.65329C11.9025 5.65329 11.8134 5.65329 11.7256 5.6596L11.6441 5.66402C11.5814 5.66402 11.5186 5.67159 11.4559 5.67664L11.3694 5.68485C11.3029 5.69116 11.2364 5.69874 11.1706 5.70758L11.1078 5.71579C11.0225 5.72778 10.9373 5.74167 10.8532 5.75745C10.8331 5.75745 10.8131 5.76503 10.7905 5.76944C10.7278 5.78207 10.6613 5.79533 10.5973 5.80985L10.5133 5.83005C10.455 5.84394 10.3966 5.85909 10.3389 5.87487L10.2605 5.89634C10.1846 5.91843 10.11 5.94116 10.0354 5.96578L10.0172 5.97146C9.93754 5.99797 9.85915 6.02638 9.78075 6.05605L9.70549 6.08572C9.65156 6.10719 9.59762 6.12865 9.54431 6.15201L9.46215 6.18736C9.40696 6.21135 9.3524 6.23723 9.29846 6.26312L9.2326 6.29405C9.15923 6.33067 9.08647 6.36791 9.01498 6.40705L8.95602 6.43988C8.90292 6.46976 8.85024 6.50006 8.79798 6.53079L8.71895 6.57876L8.58098 6.66651L8.50572 6.71639C8.45011 6.75384 8.39492 6.79235 8.34014 6.83191L8.30126 6.85906C8.23645 6.90662 8.17374 6.95523 8.11311 7.00489L8.04287 7.0617L7.91743 7.1646C7.89318 7.18565 7.86872 7.20669 7.84405 7.22773C7.80224 7.26393 7.7621 7.30054 7.72364 7.33758C7.70231 7.35715 7.68099 7.37609 7.66092 7.39629C7.60385 7.45121 7.5474 7.50677 7.49284 7.56358L7.4389 7.62103C7.40002 7.66206 7.36176 7.70373 7.32413 7.74729L7.25828 7.82304C7.22504 7.86155 7.19556 7.90006 7.15981 7.93983C7.13912 7.96509 7.11779 7.99034 7.0971 8.01685C7.05946 8.06357 7.02309 8.11155 6.98671 8.15952L6.94407 8.21508C6.89828 8.27821 6.85313 8.34134 6.80922 8.40447C6.79104 8.43098 6.7741 8.45813 6.75654 8.48527C6.72832 8.5282 6.7001 8.57113 6.67313 8.61469C6.65494 8.64436 6.63675 8.6734 6.61919 8.70307C6.5916 8.74789 6.56526 8.79397 6.53954 8.83943L6.49376 8.92023C6.45676 8.98841 6.42038 9.05722 6.38526 9.12667H3.87658C4.52745 7.25773 5.79358 5.66896 7.46489 4.62398C9.13621 3.57899 11.1122 3.1406 13.0651 3.38155C15.018 3.62249 16.8304 4.52828 18.2015 5.94864C19.5726 7.36899 20.42 9.21853 20.6032 11.1904H14.0474C13.8648 10.7 13.5152 10.2908 13.0608 10.0358C12.6064 9.78084 12.0768 9.69658 11.5664 9.79808C11.056 9.89959 10.5981 10.1803 10.2741 10.59C9.95024 10.9998 9.78145 11.5121 9.79788 12.0355C9.81431 12.5589 10.0149 13.0594 10.3639 13.4478C10.7128 13.8362 11.1875 14.0872 11.7032 14.156C12.2189 14.2249 12.7422 14.1072 13.1797 13.8238C13.6172 13.5404 13.9405 13.1099 14.0919 12.6089H20.6251C20.4848 14.6071 19.6623 16.495 18.297 17.9525C16.9317 19.41 15.1078 20.3473 13.1343 20.6057C11.1608 20.8641 9.15924 20.4276 7.46899 19.3702C5.77873 18.3127 4.50378 16.6995 3.86027 14.8039H6.38839C6.42352 14.874 6.45989 14.9428 6.49752 15.011C6.51195 15.0375 6.527 15.0634 6.54205 15.0899C6.56839 15.136 6.59473 15.1827 6.62233 15.2281C6.63989 15.2572 6.65745 15.2862 6.67564 15.3146C6.70323 15.3594 6.73146 15.403 6.7603 15.4466C6.77724 15.4731 6.7948 15.4996 6.81236 15.5255C6.85689 15.5886 6.90205 15.6561 6.94908 15.7199C6.96163 15.7369 6.97542 15.7534 6.98797 15.771C7.02497 15.8196 7.0626 15.8683 7.10086 15.9162C7.12093 15.9421 7.14162 15.9667 7.16357 15.992C7.19619 16.0318 7.22629 16.0709 7.26329 16.11L7.32601 16.1845C7.36427 16.2268 7.40253 16.2691 7.44204 16.3108L7.49409 16.3663C7.54928 16.4238 7.60573 16.4793 7.6628 16.5343L7.72552 16.5923C7.76566 16.6302 7.8058 16.6668 7.84656 16.7035L7.91994 16.7666C7.96071 16.8013 8.00147 16.836 8.04537 16.8701L8.11436 16.9263C8.17708 16.9762 8.2398 17.0248 8.30251 17.0728L8.33952 17.0986C8.39471 17.1384 8.4499 17.1769 8.50634 17.2148L8.58098 17.264C8.62739 17.2943 8.67317 17.3234 8.72021 17.3524C8.74592 17.3682 8.77226 17.3846 8.7986 17.3998C8.85066 17.4313 8.90397 17.4629 8.95728 17.4913L9.0156 17.5241C9.0871 17.5633 9.15985 17.6005 9.23323 17.6371L9.29595 17.6681C9.35051 17.694 9.40508 17.7192 9.46027 17.7438L9.5418 17.7792C9.59574 17.8025 9.64967 17.824 9.70361 17.8423L9.77887 17.872C9.85727 17.9017 9.93566 17.9301 10.0153 17.9566L10.0329 17.9623C10.1075 17.9869 10.1828 18.0096 10.2587 18.0317L10.3377 18.0532C10.3947 18.0689 10.4531 18.0841 10.5108 18.098L10.6017 18.1207C10.6644 18.1352 10.7303 18.1485 10.7955 18.1611C10.8156 18.1655 10.835 18.17 10.8582 18.1731C10.9423 18.1889 11.0276 18.2028 11.1129 18.2148L11.1756 18.223C11.2383 18.2312 11.3073 18.2394 11.3738 18.2457L11.4603 18.2539C11.523 18.259 11.5857 18.2634 11.6485 18.2665L11.73 18.271C11.8178 18.2747 11.9069 18.2773 11.9959 18.2773C13.0973 18.2787 14.1795 17.9876 15.1333 17.4334C16.0871 16.8792 16.8788 16.0815 17.4284 15.1208L15.2547 13.8582C14.8812 14.5098 14.3234 15.0347 13.6524 15.366C12.9814 15.6973 12.2276 15.82 11.4871 15.7184C10.7466 15.6169 10.0529 15.2956 9.49443 14.7957C8.93598 14.2957 8.53807 13.6397 8.35143 12.9113H0.747635C0.896021 14.6138 1.42657 16.2601 2.29925 17.7262L0.417744 19.62C0.285303 19.7533 0.180245 19.9116 0.108568 20.0858C0.0368916 20.2599 0 20.4466 0 20.6352C0 20.8237 0.0368916 21.0104 0.108568 21.1845C0.180245 21.3587 0.285303 21.517 0.417744 21.6503L2.33437 23.5795C2.46681 23.7128 2.62403 23.8186 2.79707 23.8907C2.9701 23.9629 3.15557 24 3.34286 24C3.53015 24 3.71562 23.9629 3.88865 23.8907C4.06169 23.8186 4.21891 23.7128 4.35135 23.5795L6.23725 21.6812C7.96093 22.7071 9.92448 23.2536 11.9269 23.2647C13.9293 23.2757 15.8987 22.7511 17.6335 21.7443L19.4561 23.5789C19.5885 23.7122 19.7457 23.8179 19.9188 23.8901C20.0918 23.9622 20.2773 23.9994 20.4646 23.9994C20.6519 23.9994 20.8373 23.9622 21.0104 23.8901C21.1834 23.8179 21.3406 23.7122 21.4731 23.5789L23.3897 21.6496C23.5221 21.5163 23.6272 21.3581 23.6989 21.1839C23.7705 21.0097 23.8074 20.823 23.8074 20.6345C23.8074 20.446 23.7705 20.2593 23.6989 20.0851C23.6272 19.911 23.5221 19.7527 23.3897 19.6194L21.6204 17.8347Z" fill="#07106D"/>
</svg>
